<?xml version="1.0" encoding="utf-8" standalone="no"?>
<!DOCTYPE svg PUBLIC "-//W3C//DTD SVG 1.1//EN"
  "http://www.w3.org/Graphics/SVG/1.1/DTD/svg11.dtd">
<svg xmlns:xlink="http://www.w3.org/1999/xlink" width="460.8pt" height="345.6pt" viewBox="0 0 460.8 345.6" xmlns="http://www.w3.org/2000/svg" version="1.1">
 <metadata>
  <rdf:RDF xmlns:dc="http://purl.org/dc/elements/1.1/" xmlns:cc="http://creativecommons.org/ns#" xmlns:rdf="http://www.w3.org/1999/02/22-rdf-syntax-ns#">
   <cc:Work>
    <dc:type rdf:resource="http://purl.org/dc/dcmitype/StillImage"/>
    <dc:date>2024-12-03T11:43:28.071167</dc:date>
    <dc:format>image/svg+xml</dc:format>
    <dc:creator>
     <cc:Agent>
      <dc:title>Matplotlib v3.9.2, https://matplotlib.org/</dc:title>
     </cc:Agent>
    </dc:creator>
   </cc:Work>
  </rdf:RDF>
 </metadata>
 <defs>
  <style type="text/css">*{stroke-linejoin: round; stroke-linecap: butt}</style>
 </defs>
 <g id="figure_1">
  <g id="patch_1">
   <path d="M 0 345.6 
L 460.8 345.6 
L 460.8 0 
L 0 0 
z
" style="fill: #ffffff"/>
  </g>
  <g id="axes_1">
   <g id="patch_2">
    <path d="M 57.6 307.584 
L 414.72 307.584 
L 414.72 41.472 
L 57.6 41.472 
z
" style="fill: #ffffff"/>
   </g>
   <g id="matplotlib.axis_1">
    <g id="xtick_1">
     <g id="line2d_1">
      <path d="M 73.832727 307.584 
L 73.832727 41.472 
" clip-path="url(#pdfa85a9bc8)" style="fill: none; stroke: #b0b0b0; stroke-width: 0.8; stroke-linecap: square"/>
     </g>
     <g id="line2d_2">
      <defs>
       <path id="m095f2c45d5" d="M 0 0 
L 0 3.5 
" style="stroke: #000000; stroke-width: 0.8"/>
      </defs>
      <g>
       <use xlink:href="#m095f2c45d5" x="73.832727" y="307.584" style="stroke: #000000; stroke-width: 0.8"/>
      </g>
     </g>
     <g id="text_1">
      <!-- 0 -->
      <g transform="translate(70.651477 322.182437) scale(0.1 -0.1)">
       <defs>
        <path id="DejaVuSans-30" d="M 2034 4250 
Q 1547 4250 1301 3770 
Q 1056 3291 1056 2328 
Q 1056 1369 1301 889 
Q 1547 409 2034 409 
Q 2525 409 2770 889 
Q 3016 1369 3016 2328 
Q 3016 3291 2770 3770 
Q 2525 4250 2034 4250 
z
M 2034 4750 
Q 2819 4750 3233 4129 
Q 3647 3509 3647 2328 
Q 3647 1150 3233 529 
Q 2819 -91 2034 -91 
Q 1250 -91 836 529 
Q 422 1150 422 2328 
Q 422 3509 836 4129 
Q 1250 4750 2034 4750 
z
" transform="scale(0.015625)"/>
       </defs>
       <use xlink:href="#DejaVuSans-30"/>
      </g>
     </g>
    </g>
    <g id="xtick_2">
     <g id="line2d_3">
      <path d="M 114.414556 307.584 
L 114.414556 41.472 
" clip-path="url(#pdfa85a9bc8)" style="fill: none; stroke: #b0b0b0; stroke-width: 0.8; stroke-linecap: square"/>
     </g>
     <g id="line2d_4">
      <g>
       <use xlink:href="#m095f2c45d5" x="114.414556" y="307.584" style="stroke: #000000; stroke-width: 0.8"/>
      </g>
     </g>
     <g id="text_2">
      <!-- 100000 -->
      <g transform="translate(95.327056 322.182437) scale(0.1 -0.1)">
       <defs>
        <path id="DejaVuSans-31" d="M 794 531 
L 1825 531 
L 1825 4091 
L 703 3866 
L 703 4441 
L 1819 4666 
L 2450 4666 
L 2450 531 
L 3481 531 
L 3481 0 
L 794 0 
L 794 531 
z
" transform="scale(0.015625)"/>
       </defs>
       <use xlink:href="#DejaVuSans-31"/>
       <use xlink:href="#DejaVuSans-30" x="63.623047"/>
       <use xlink:href="#DejaVuSans-30" x="127.246094"/>
       <use xlink:href="#DejaVuSans-30" x="190.869141"/>
       <use xlink:href="#DejaVuSans-30" x="254.492188"/>
       <use xlink:href="#DejaVuSans-30" x="318.115234"/>
      </g>
     </g>
    </g>
    <g id="xtick_3">
     <g id="line2d_5">
      <path d="M 154.996384 307.584 
L 154.996384 41.472 
" clip-path="url(#pdfa85a9bc8)" style="fill: none; stroke: #b0b0b0; stroke-width: 0.8; stroke-linecap: square"/>
     </g>
     <g id="line2d_6">
      <g>
       <use xlink:href="#m095f2c45d5" x="154.996384" y="307.584" style="stroke: #000000; stroke-width: 0.8"/>
      </g>
     </g>
     <g id="text_3">
      <!-- 200000 -->
      <g transform="translate(135.908884 322.182437) scale(0.1 -0.1)">
       <defs>
        <path id="DejaVuSans-32" d="M 1228 531 
L 3431 531 
L 3431 0 
L 469 0 
L 469 531 
Q 828 903 1448 1529 
Q 2069 2156 2228 2338 
Q 2531 2678 2651 2914 
Q 2772 3150 2772 3378 
Q 2772 3750 2511 3984 
Q 2250 4219 1831 4219 
Q 1534 4219 1204 4116 
Q 875 4013 500 3803 
L 500 4441 
Q 881 4594 1212 4672 
Q 1544 4750 1819 4750 
Q 2544 4750 2975 4387 
Q 3406 4025 3406 3419 
Q 3406 3131 3298 2873 
Q 3191 2616 2906 2266 
Q 2828 2175 2409 1742 
Q 1991 1309 1228 531 
z
" transform="scale(0.015625)"/>
       </defs>
       <use xlink:href="#DejaVuSans-32"/>
       <use xlink:href="#DejaVuSans-30" x="63.623047"/>
       <use xlink:href="#DejaVuSans-30" x="127.246094"/>
       <use xlink:href="#DejaVuSans-30" x="190.869141"/>
       <use xlink:href="#DejaVuSans-30" x="254.492188"/>
       <use xlink:href="#DejaVuSans-30" x="318.115234"/>
      </g>
     </g>
    </g>
    <g id="xtick_4">
     <g id="line2d_7">
      <path d="M 195.578212 307.584 
L 195.578212 41.472 
" clip-path="url(#pdfa85a9bc8)" style="fill: none; stroke: #b0b0b0; stroke-width: 0.8; stroke-linecap: square"/>
     </g>
     <g id="line2d_8">
      <g>
       <use xlink:href="#m095f2c45d5" x="195.578212" y="307.584" style="stroke: #000000; stroke-width: 0.8"/>
      </g>
     </g>
     <g id="text_4">
      <!-- 300000 -->
      <g transform="translate(176.490712 322.182437) scale(0.1 -0.1)">
       <defs>
        <path id="DejaVuSans-33" d="M 2597 2516 
Q 3050 2419 3304 2112 
Q 3559 1806 3559 1356 
Q 3559 666 3084 287 
Q 2609 -91 1734 -91 
Q 1441 -91 1130 -33 
Q 819 25 488 141 
L 488 750 
Q 750 597 1062 519 
Q 1375 441 1716 441 
Q 2309 441 2620 675 
Q 2931 909 2931 1356 
Q 2931 1769 2642 2001 
Q 2353 2234 1838 2234 
L 1294 2234 
L 1294 2753 
L 1863 2753 
Q 2328 2753 2575 2939 
Q 2822 3125 2822 3475 
Q 2822 3834 2567 4026 
Q 2313 4219 1838 4219 
Q 1578 4219 1281 4162 
Q 984 4106 628 3988 
L 628 4550 
Q 988 4650 1302 4700 
Q 1616 4750 1894 4750 
Q 2613 4750 3031 4423 
Q 3450 4097 3450 3541 
Q 3450 3153 3228 2886 
Q 3006 2619 2597 2516 
z
" transform="scale(0.015625)"/>
       </defs>
       <use xlink:href="#DejaVuSans-33"/>
       <use xlink:href="#DejaVuSans-30" x="63.623047"/>
       <use xlink:href="#DejaVuSans-30" x="127.246094"/>
       <use xlink:href="#DejaVuSans-30" x="190.869141"/>
       <use xlink:href="#DejaVuSans-30" x="254.492188"/>
       <use xlink:href="#DejaVuSans-30" x="318.115234"/>
      </g>
     </g>
    </g>
    <g id="xtick_5">
     <g id="line2d_9">
      <path d="M 236.16004 307.584 
L 236.16004 41.472 
" clip-path="url(#pdfa85a9bc8)" style="fill: none; stroke: #b0b0b0; stroke-width: 0.8; stroke-linecap: square"/>
     </g>
     <g id="line2d_10">
      <g>
       <use xlink:href="#m095f2c45d5" x="236.16004" y="307.584" style="stroke: #000000; stroke-width: 0.8"/>
      </g>
     </g>
     <g id="text_5">
      <!-- 400000 -->
      <g transform="translate(217.07254 322.182437) scale(0.1 -0.1)">
       <defs>
        <path id="DejaVuSans-34" d="M 2419 4116 
L 825 1625 
L 2419 1625 
L 2419 4116 
z
M 2253 4666 
L 3047 4666 
L 3047 1625 
L 3713 1625 
L 3713 1100 
L 3047 1100 
L 3047 0 
L 2419 0 
L 2419 1100 
L 313 1100 
L 313 1709 
L 2253 4666 
z
" transform="scale(0.015625)"/>
       </defs>
       <use xlink:href="#DejaVuSans-34"/>
       <use xlink:href="#DejaVuSans-30" x="63.623047"/>
       <use xlink:href="#DejaVuSans-30" x="127.246094"/>
       <use xlink:href="#DejaVuSans-30" x="190.869141"/>
       <use xlink:href="#DejaVuSans-30" x="254.492188"/>
       <use xlink:href="#DejaVuSans-30" x="318.115234"/>
      </g>
     </g>
    </g>
    <g id="xtick_6">
     <g id="line2d_11">
      <path d="M 276.741869 307.584 
L 276.741869 41.472 
" clip-path="url(#pdfa85a9bc8)" style="fill: none; stroke: #b0b0b0; stroke-width: 0.8; stroke-linecap: square"/>
     </g>
     <g id="line2d_12">
      <g>
       <use xlink:href="#m095f2c45d5" x="276.741869" y="307.584" style="stroke: #000000; stroke-width: 0.8"/>
      </g>
     </g>
     <g id="text_6">
      <!-- 500000 -->
      <g transform="translate(257.654369 322.182437) scale(0.1 -0.1)">
       <defs>
        <path id="DejaVuSans-35" d="M 691 4666 
L 3169 4666 
L 3169 4134 
L 1269 4134 
L 1269 2991 
Q 1406 3038 1543 3061 
Q 1681 3084 1819 3084 
Q 2600 3084 3056 2656 
Q 3513 2228 3513 1497 
Q 3513 744 3044 326 
Q 2575 -91 1722 -91 
Q 1428 -91 1123 -41 
Q 819 9 494 109 
L 494 744 
Q 775 591 1075 516 
Q 1375 441 1709 441 
Q 2250 441 2565 725 
Q 2881 1009 2881 1497 
Q 2881 1984 2565 2268 
Q 2250 2553 1709 2553 
Q 1456 2553 1204 2497 
Q 953 2441 691 2322 
L 691 4666 
z
" transform="scale(0.015625)"/>
       </defs>
       <use xlink:href="#DejaVuSans-35"/>
       <use xlink:href="#DejaVuSans-30" x="63.623047"/>
       <use xlink:href="#DejaVuSans-30" x="127.246094"/>
       <use xlink:href="#DejaVuSans-30" x="190.869141"/>
       <use xlink:href="#DejaVuSans-30" x="254.492188"/>
       <use xlink:href="#DejaVuSans-30" x="318.115234"/>
      </g>
     </g>
    </g>
    <g id="xtick_7">
     <g id="line2d_13">
      <path d="M 317.323697 307.584 
L 317.323697 41.472 
" clip-path="url(#pdfa85a9bc8)" style="fill: none; stroke: #b0b0b0; stroke-width: 0.8; stroke-linecap: square"/>
     </g>
     <g id="line2d_14">
      <g>
       <use xlink:href="#m095f2c45d5" x="317.323697" y="307.584" style="stroke: #000000; stroke-width: 0.8"/>
      </g>
     </g>
     <g id="text_7">
      <!-- 600000 -->
      <g transform="translate(298.236197 322.182437) scale(0.1 -0.1)">
       <defs>
        <path id="DejaVuSans-36" d="M 2113 2584 
Q 1688 2584 1439 2293 
Q 1191 2003 1191 1497 
Q 1191 994 1439 701 
Q 1688 409 2113 409 
Q 2538 409 2786 701 
Q 3034 994 3034 1497 
Q 3034 2003 2786 2293 
Q 2538 2584 2113 2584 
z
M 3366 4563 
L 3366 3988 
Q 3128 4100 2886 4159 
Q 2644 4219 2406 4219 
Q 1781 4219 1451 3797 
Q 1122 3375 1075 2522 
Q 1259 2794 1537 2939 
Q 1816 3084 2150 3084 
Q 2853 3084 3261 2657 
Q 3669 2231 3669 1497 
Q 3669 778 3244 343 
Q 2819 -91 2113 -91 
Q 1303 -91 875 529 
Q 447 1150 447 2328 
Q 447 3434 972 4092 
Q 1497 4750 2381 4750 
Q 2619 4750 2861 4703 
Q 3103 4656 3366 4563 
z
" transform="scale(0.015625)"/>
       </defs>
       <use xlink:href="#DejaVuSans-36"/>
       <use xlink:href="#DejaVuSans-30" x="63.623047"/>
       <use xlink:href="#DejaVuSans-30" x="127.246094"/>
       <use xlink:href="#DejaVuSans-30" x="190.869141"/>
       <use xlink:href="#DejaVuSans-30" x="254.492188"/>
       <use xlink:href="#DejaVuSans-30" x="318.115234"/>
      </g>
     </g>
    </g>
    <g id="xtick_8">
     <g id="line2d_15">
      <path d="M 357.905525 307.584 
L 357.905525 41.472 
" clip-path="url(#pdfa85a9bc8)" style="fill: none; stroke: #b0b0b0; stroke-width: 0.8; stroke-linecap: square"/>
     </g>
     <g id="line2d_16">
      <g>
       <use xlink:href="#m095f2c45d5" x="357.905525" y="307.584" style="stroke: #000000; stroke-width: 0.8"/>
      </g>
     </g>
     <g id="text_8">
      <!-- 700000 -->
      <g transform="translate(338.818025 322.182437) scale(0.1 -0.1)">
       <defs>
        <path id="DejaVuSans-37" d="M 525 4666 
L 3525 4666 
L 3525 4397 
L 1831 0 
L 1172 0 
L 2766 4134 
L 525 4134 
L 525 4666 
z
" transform="scale(0.015625)"/>
       </defs>
       <use xlink:href="#DejaVuSans-37"/>
       <use xlink:href="#DejaVuSans-30" x="63.623047"/>
       <use xlink:href="#DejaVuSans-30" x="127.246094"/>
       <use xlink:href="#DejaVuSans-30" x="190.869141"/>
       <use xlink:href="#DejaVuSans-30" x="254.492188"/>
       <use xlink:href="#DejaVuSans-30" x="318.115234"/>
      </g>
     </g>
    </g>
    <g id="xtick_9">
     <g id="line2d_17">
      <path d="M 398.487353 307.584 
L 398.487353 41.472 
" clip-path="url(#pdfa85a9bc8)" style="fill: none; stroke: #b0b0b0; stroke-width: 0.8; stroke-linecap: square"/>
     </g>
     <g id="line2d_18">
      <g>
       <use xlink:href="#m095f2c45d5" x="398.487353" y="307.584" style="stroke: #000000; stroke-width: 0.8"/>
      </g>
     </g>
     <g id="text_9">
      <!-- 800000 -->
      <g transform="translate(379.399853 322.182437) scale(0.1 -0.1)">
       <defs>
        <path id="DejaVuSans-38" d="M 2034 2216 
Q 1584 2216 1326 1975 
Q 1069 1734 1069 1313 
Q 1069 891 1326 650 
Q 1584 409 2034 409 
Q 2484 409 2743 651 
Q 3003 894 3003 1313 
Q 3003 1734 2745 1975 
Q 2488 2216 2034 2216 
z
M 1403 2484 
Q 997 2584 770 2862 
Q 544 3141 544 3541 
Q 544 4100 942 4425 
Q 1341 4750 2034 4750 
Q 2731 4750 3128 4425 
Q 3525 4100 3525 3541 
Q 3525 3141 3298 2862 
Q 3072 2584 2669 2484 
Q 3125 2378 3379 2068 
Q 3634 1759 3634 1313 
Q 3634 634 3220 271 
Q 2806 -91 2034 -91 
Q 1263 -91 848 271 
Q 434 634 434 1313 
Q 434 1759 690 2068 
Q 947 2378 1403 2484 
z
M 1172 3481 
Q 1172 3119 1398 2916 
Q 1625 2713 2034 2713 
Q 2441 2713 2670 2916 
Q 2900 3119 2900 3481 
Q 2900 3844 2670 4047 
Q 2441 4250 2034 4250 
Q 1625 4250 1398 4047 
Q 1172 3844 1172 3481 
z
" transform="scale(0.015625)"/>
       </defs>
       <use xlink:href="#DejaVuSans-38"/>
       <use xlink:href="#DejaVuSans-30" x="63.623047"/>
       <use xlink:href="#DejaVuSans-30" x="127.246094"/>
       <use xlink:href="#DejaVuSans-30" x="190.869141"/>
       <use xlink:href="#DejaVuSans-30" x="254.492188"/>
       <use xlink:href="#DejaVuSans-30" x="318.115234"/>
      </g>
     </g>
    </g>
    <g id="text_10">
     <!-- TimePoint -->
     <g transform="translate(211.515469 335.860562) scale(0.1 -0.1)">
      <defs>
       <path id="DejaVuSans-54" d="M -19 4666 
L 3928 4666 
L 3928 4134 
L 2272 4134 
L 2272 0 
L 1638 0 
L 1638 4134 
L -19 4134 
L -19 4666 
z
" transform="scale(0.015625)"/>
       <path id="DejaVuSans-69" d="M 603 3500 
L 1178 3500 
L 1178 0 
L 603 0 
L 603 3500 
z
M 603 4863 
L 1178 4863 
L 1178 4134 
L 603 4134 
L 603 4863 
z
" transform="scale(0.015625)"/>
       <path id="DejaVuSans-6d" d="M 3328 2828 
Q 3544 3216 3844 3400 
Q 4144 3584 4550 3584 
Q 5097 3584 5394 3201 
Q 5691 2819 5691 2113 
L 5691 0 
L 5113 0 
L 5113 2094 
Q 5113 2597 4934 2840 
Q 4756 3084 4391 3084 
Q 3944 3084 3684 2787 
Q 3425 2491 3425 1978 
L 3425 0 
L 2847 0 
L 2847 2094 
Q 2847 2600 2669 2842 
Q 2491 3084 2119 3084 
Q 1678 3084 1418 2786 
Q 1159 2488 1159 1978 
L 1159 0 
L 581 0 
L 581 3500 
L 1159 3500 
L 1159 2956 
Q 1356 3278 1631 3431 
Q 1906 3584 2284 3584 
Q 2666 3584 2933 3390 
Q 3200 3197 3328 2828 
z
" transform="scale(0.015625)"/>
       <path id="DejaVuSans-65" d="M 3597 1894 
L 3597 1613 
L 953 1613 
Q 991 1019 1311 708 
Q 1631 397 2203 397 
Q 2534 397 2845 478 
Q 3156 559 3463 722 
L 3463 178 
Q 3153 47 2828 -22 
Q 2503 -91 2169 -91 
Q 1331 -91 842 396 
Q 353 884 353 1716 
Q 353 2575 817 3079 
Q 1281 3584 2069 3584 
Q 2775 3584 3186 3129 
Q 3597 2675 3597 1894 
z
M 3022 2063 
Q 3016 2534 2758 2815 
Q 2500 3097 2075 3097 
Q 1594 3097 1305 2825 
Q 1016 2553 972 2059 
L 3022 2063 
z
" transform="scale(0.015625)"/>
       <path id="DejaVuSans-50" d="M 1259 4147 
L 1259 2394 
L 2053 2394 
Q 2494 2394 2734 2622 
Q 2975 2850 2975 3272 
Q 2975 3691 2734 3919 
Q 2494 4147 2053 4147 
L 1259 4147 
z
M 628 4666 
L 2053 4666 
Q 2838 4666 3239 4311 
Q 3641 3956 3641 3272 
Q 3641 2581 3239 2228 
Q 2838 1875 2053 1875 
L 1259 1875 
L 1259 0 
L 628 0 
L 628 4666 
z
" transform="scale(0.015625)"/>
       <path id="DejaVuSans-6f" d="M 1959 3097 
Q 1497 3097 1228 2736 
Q 959 2375 959 1747 
Q 959 1119 1226 758 
Q 1494 397 1959 397 
Q 2419 397 2687 759 
Q 2956 1122 2956 1747 
Q 2956 2369 2687 2733 
Q 2419 3097 1959 3097 
z
M 1959 3584 
Q 2709 3584 3137 3096 
Q 3566 2609 3566 1747 
Q 3566 888 3137 398 
Q 2709 -91 1959 -91 
Q 1206 -91 779 398 
Q 353 888 353 1747 
Q 353 2609 779 3096 
Q 1206 3584 1959 3584 
z
" transform="scale(0.015625)"/>
       <path id="DejaVuSans-6e" d="M 3513 2113 
L 3513 0 
L 2938 0 
L 2938 2094 
Q 2938 2591 2744 2837 
Q 2550 3084 2163 3084 
Q 1697 3084 1428 2787 
Q 1159 2491 1159 1978 
L 1159 0 
L 581 0 
L 581 3500 
L 1159 3500 
L 1159 2956 
Q 1366 3272 1645 3428 
Q 1925 3584 2291 3584 
Q 2894 3584 3203 3211 
Q 3513 2838 3513 2113 
z
" transform="scale(0.015625)"/>
       <path id="DejaVuSans-74" d="M 1172 4494 
L 1172 3500 
L 2356 3500 
L 2356 3053 
L 1172 3053 
L 1172 1153 
Q 1172 725 1289 603 
Q 1406 481 1766 481 
L 2356 481 
L 2356 0 
L 1766 0 
Q 1100 0 847 248 
Q 594 497 594 1153 
L 594 3053 
L 172 3053 
L 172 3500 
L 594 3500 
L 594 4494 
L 1172 4494 
z
" transform="scale(0.015625)"/>
      </defs>
      <use xlink:href="#DejaVuSans-54"/>
      <use xlink:href="#DejaVuSans-69" x="57.958984"/>
      <use xlink:href="#DejaVuSans-6d" x="85.742188"/>
      <use xlink:href="#DejaVuSans-65" x="183.154297"/>
      <use xlink:href="#DejaVuSans-50" x="244.677734"/>
      <use xlink:href="#DejaVuSans-6f" x="301.355469"/>
      <use xlink:href="#DejaVuSans-69" x="362.537109"/>
      <use xlink:href="#DejaVuSans-6e" x="390.320312"/>
      <use xlink:href="#DejaVuSans-74" x="453.699219"/>
     </g>
    </g>
   </g>
   <g id="matplotlib.axis_2">
    <g id="ytick_1">
     <g id="line2d_19">
      <path d="M 57.6 295.488 
L 414.72 295.488 
" clip-path="url(#pdfa85a9bc8)" style="fill: none; stroke: #b0b0b0; stroke-width: 0.8; stroke-linecap: square"/>
     </g>
     <g id="line2d_20">
      <defs>
       <path id="m71c123c56c" d="M 0 0 
L -3.5 0 
" style="stroke: #000000; stroke-width: 0.8"/>
      </defs>
      <g>
       <use xlink:href="#m71c123c56c" x="57.6" y="295.488" style="stroke: #000000; stroke-width: 0.8"/>
      </g>
     </g>
     <g id="text_11">
      <!-- 0.0000 -->
      <g transform="translate(15.609375 299.287219) scale(0.1 -0.1)">
       <defs>
        <path id="DejaVuSans-2e" d="M 684 794 
L 1344 794 
L 1344 0 
L 684 0 
L 684 794 
z
" transform="scale(0.015625)"/>
       </defs>
       <use xlink:href="#DejaVuSans-30"/>
       <use xlink:href="#DejaVuSans-2e" x="63.623047"/>
       <use xlink:href="#DejaVuSans-30" x="95.410156"/>
       <use xlink:href="#DejaVuSans-30" x="159.033203"/>
       <use xlink:href="#DejaVuSans-30" x="222.65625"/>
       <use xlink:href="#DejaVuSans-30" x="286.279297"/>
      </g>
     </g>
    </g>
    <g id="ytick_2">
     <g id="line2d_21">
      <path d="M 57.6 264.9235 
L 414.72 264.9235 
" clip-path="url(#pdfa85a9bc8)" style="fill: none; stroke: #b0b0b0; stroke-width: 0.8; stroke-linecap: square"/>
     </g>
     <g id="line2d_22">
      <g>
       <use xlink:href="#m71c123c56c" x="57.6" y="264.9235" style="stroke: #000000; stroke-width: 0.8"/>
      </g>
     </g>
     <g id="text_12">
      <!-- 0.0002 -->
      <g transform="translate(15.609375 268.722718) scale(0.1 -0.1)">
       <use xlink:href="#DejaVuSans-30"/>
       <use xlink:href="#DejaVuSans-2e" x="63.623047"/>
       <use xlink:href="#DejaVuSans-30" x="95.410156"/>
       <use xlink:href="#DejaVuSans-30" x="159.033203"/>
       <use xlink:href="#DejaVuSans-30" x="222.65625"/>
       <use xlink:href="#DejaVuSans-32" x="286.279297"/>
      </g>
     </g>
    </g>
    <g id="ytick_3">
     <g id="line2d_23">
      <path d="M 57.6 234.358999 
L 414.72 234.358999 
" clip-path="url(#pdfa85a9bc8)" style="fill: none; stroke: #b0b0b0; stroke-width: 0.8; stroke-linecap: square"/>
     </g>
     <g id="line2d_24">
      <g>
       <use xlink:href="#m71c123c56c" x="57.6" y="234.358999" style="stroke: #000000; stroke-width: 0.8"/>
      </g>
     </g>
     <g id="text_13">
      <!-- 0.0004 -->
      <g transform="translate(15.609375 238.158218) scale(0.1 -0.1)">
       <use xlink:href="#DejaVuSans-30"/>
       <use xlink:href="#DejaVuSans-2e" x="63.623047"/>
       <use xlink:href="#DejaVuSans-30" x="95.410156"/>
       <use xlink:href="#DejaVuSans-30" x="159.033203"/>
       <use xlink:href="#DejaVuSans-30" x="222.65625"/>
       <use xlink:href="#DejaVuSans-34" x="286.279297"/>
      </g>
     </g>
    </g>
    <g id="ytick_4">
     <g id="line2d_25">
      <path d="M 57.6 203.794499 
L 414.72 203.794499 
" clip-path="url(#pdfa85a9bc8)" style="fill: none; stroke: #b0b0b0; stroke-width: 0.8; stroke-linecap: square"/>
     </g>
     <g id="line2d_26">
      <g>
       <use xlink:href="#m71c123c56c" x="57.6" y="203.794499" style="stroke: #000000; stroke-width: 0.8"/>
      </g>
     </g>
     <g id="text_14">
      <!-- 0.0006 -->
      <g transform="translate(15.609375 207.593718) scale(0.1 -0.1)">
       <use xlink:href="#DejaVuSans-30"/>
       <use xlink:href="#DejaVuSans-2e" x="63.623047"/>
       <use xlink:href="#DejaVuSans-30" x="95.410156"/>
       <use xlink:href="#DejaVuSans-30" x="159.033203"/>
       <use xlink:href="#DejaVuSans-30" x="222.65625"/>
       <use xlink:href="#DejaVuSans-36" x="286.279297"/>
      </g>
     </g>
    </g>
    <g id="ytick_5">
     <g id="line2d_27">
      <path d="M 57.6 173.229999 
L 414.72 173.229999 
" clip-path="url(#pdfa85a9bc8)" style="fill: none; stroke: #b0b0b0; stroke-width: 0.8; stroke-linecap: square"/>
     </g>
     <g id="line2d_28">
      <g>
       <use xlink:href="#m71c123c56c" x="57.6" y="173.229999" style="stroke: #000000; stroke-width: 0.8"/>
      </g>
     </g>
     <g id="text_15">
      <!-- 0.0008 -->
      <g transform="translate(15.609375 177.029218) scale(0.1 -0.1)">
       <use xlink:href="#DejaVuSans-30"/>
       <use xlink:href="#DejaVuSans-2e" x="63.623047"/>
       <use xlink:href="#DejaVuSans-30" x="95.410156"/>
       <use xlink:href="#DejaVuSans-30" x="159.033203"/>
       <use xlink:href="#DejaVuSans-30" x="222.65625"/>
       <use xlink:href="#DejaVuSans-38" x="286.279297"/>
      </g>
     </g>
    </g>
    <g id="ytick_6">
     <g id="line2d_29">
      <path d="M 57.6 142.665498 
L 414.72 142.665498 
" clip-path="url(#pdfa85a9bc8)" style="fill: none; stroke: #b0b0b0; stroke-width: 0.8; stroke-linecap: square"/>
     </g>
     <g id="line2d_30">
      <g>
       <use xlink:href="#m71c123c56c" x="57.6" y="142.665498" style="stroke: #000000; stroke-width: 0.8"/>
      </g>
     </g>
     <g id="text_16">
      <!-- 0.0010 -->
      <g transform="translate(15.609375 146.464717) scale(0.1 -0.1)">
       <use xlink:href="#DejaVuSans-30"/>
       <use xlink:href="#DejaVuSans-2e" x="63.623047"/>
       <use xlink:href="#DejaVuSans-30" x="95.410156"/>
       <use xlink:href="#DejaVuSans-30" x="159.033203"/>
       <use xlink:href="#DejaVuSans-31" x="222.65625"/>
       <use xlink:href="#DejaVuSans-30" x="286.279297"/>
      </g>
     </g>
    </g>
    <g id="ytick_7">
     <g id="line2d_31">
      <path d="M 57.6 112.100998 
L 414.72 112.100998 
" clip-path="url(#pdfa85a9bc8)" style="fill: none; stroke: #b0b0b0; stroke-width: 0.8; stroke-linecap: square"/>
     </g>
     <g id="line2d_32">
      <g>
       <use xlink:href="#m71c123c56c" x="57.6" y="112.100998" style="stroke: #000000; stroke-width: 0.8"/>
      </g>
     </g>
     <g id="text_17">
      <!-- 0.0012 -->
      <g transform="translate(15.609375 115.900217) scale(0.1 -0.1)">
       <use xlink:href="#DejaVuSans-30"/>
       <use xlink:href="#DejaVuSans-2e" x="63.623047"/>
       <use xlink:href="#DejaVuSans-30" x="95.410156"/>
       <use xlink:href="#DejaVuSans-30" x="159.033203"/>
       <use xlink:href="#DejaVuSans-31" x="222.65625"/>
       <use xlink:href="#DejaVuSans-32" x="286.279297"/>
      </g>
     </g>
    </g>
    <g id="ytick_8">
     <g id="line2d_33">
      <path d="M 57.6 81.536498 
L 414.72 81.536498 
" clip-path="url(#pdfa85a9bc8)" style="fill: none; stroke: #b0b0b0; stroke-width: 0.8; stroke-linecap: square"/>
     </g>
     <g id="line2d_34">
      <g>
       <use xlink:href="#m71c123c56c" x="57.6" y="81.536498" style="stroke: #000000; stroke-width: 0.8"/>
      </g>
     </g>
     <g id="text_18">
      <!-- 0.0014 -->
      <g transform="translate(15.609375 85.335717) scale(0.1 -0.1)">
       <use xlink:href="#DejaVuSans-30"/>
       <use xlink:href="#DejaVuSans-2e" x="63.623047"/>
       <use xlink:href="#DejaVuSans-30" x="95.410156"/>
       <use xlink:href="#DejaVuSans-30" x="159.033203"/>
       <use xlink:href="#DejaVuSans-31" x="222.65625"/>
       <use xlink:href="#DejaVuSans-34" x="286.279297"/>
      </g>
     </g>
    </g>
    <g id="ytick_9">
     <g id="line2d_35">
      <path d="M 57.6 50.971998 
L 414.72 50.971998 
" clip-path="url(#pdfa85a9bc8)" style="fill: none; stroke: #b0b0b0; stroke-width: 0.8; stroke-linecap: square"/>
     </g>
     <g id="line2d_36">
      <g>
       <use xlink:href="#m71c123c56c" x="57.6" y="50.971998" style="stroke: #000000; stroke-width: 0.8"/>
      </g>
     </g>
     <g id="text_19">
      <!-- 0.0016 -->
      <g transform="translate(15.609375 54.771216) scale(0.1 -0.1)">
       <use xlink:href="#DejaVuSans-30"/>
       <use xlink:href="#DejaVuSans-2e" x="63.623047"/>
       <use xlink:href="#DejaVuSans-30" x="95.410156"/>
       <use xlink:href="#DejaVuSans-30" x="159.033203"/>
       <use xlink:href="#DejaVuSans-31" x="222.65625"/>
       <use xlink:href="#DejaVuSans-36" x="286.279297"/>
      </g>
     </g>
    </g>
    <g id="text_20">
     <!-- diskLoadMean -->
     <g transform="translate(9.529687 210.210813) rotate(-90) scale(0.1 -0.1)">
      <defs>
       <path id="DejaVuSans-64" d="M 2906 2969 
L 2906 4863 
L 3481 4863 
L 3481 0 
L 2906 0 
L 2906 525 
Q 2725 213 2448 61 
Q 2172 -91 1784 -91 
Q 1150 -91 751 415 
Q 353 922 353 1747 
Q 353 2572 751 3078 
Q 1150 3584 1784 3584 
Q 2172 3584 2448 3432 
Q 2725 3281 2906 2969 
z
M 947 1747 
Q 947 1113 1208 752 
Q 1469 391 1925 391 
Q 2381 391 2643 752 
Q 2906 1113 2906 1747 
Q 2906 2381 2643 2742 
Q 2381 3103 1925 3103 
Q 1469 3103 1208 2742 
Q 947 2381 947 1747 
z
" transform="scale(0.015625)"/>
       <path id="DejaVuSans-73" d="M 2834 3397 
L 2834 2853 
Q 2591 2978 2328 3040 
Q 2066 3103 1784 3103 
Q 1356 3103 1142 2972 
Q 928 2841 928 2578 
Q 928 2378 1081 2264 
Q 1234 2150 1697 2047 
L 1894 2003 
Q 2506 1872 2764 1633 
Q 3022 1394 3022 966 
Q 3022 478 2636 193 
Q 2250 -91 1575 -91 
Q 1294 -91 989 -36 
Q 684 19 347 128 
L 347 722 
Q 666 556 975 473 
Q 1284 391 1588 391 
Q 1994 391 2212 530 
Q 2431 669 2431 922 
Q 2431 1156 2273 1281 
Q 2116 1406 1581 1522 
L 1381 1569 
Q 847 1681 609 1914 
Q 372 2147 372 2553 
Q 372 3047 722 3315 
Q 1072 3584 1716 3584 
Q 2034 3584 2315 3537 
Q 2597 3491 2834 3397 
z
" transform="scale(0.015625)"/>
       <path id="DejaVuSans-6b" d="M 581 4863 
L 1159 4863 
L 1159 1991 
L 2875 3500 
L 3609 3500 
L 1753 1863 
L 3688 0 
L 2938 0 
L 1159 1709 
L 1159 0 
L 581 0 
L 581 4863 
z
" transform="scale(0.015625)"/>
       <path id="DejaVuSans-4c" d="M 628 4666 
L 1259 4666 
L 1259 531 
L 3531 531 
L 3531 0 
L 628 0 
L 628 4666 
z
" transform="scale(0.015625)"/>
       <path id="DejaVuSans-61" d="M 2194 1759 
Q 1497 1759 1228 1600 
Q 959 1441 959 1056 
Q 959 750 1161 570 
Q 1363 391 1709 391 
Q 2188 391 2477 730 
Q 2766 1069 2766 1631 
L 2766 1759 
L 2194 1759 
z
M 3341 1997 
L 3341 0 
L 2766 0 
L 2766 531 
Q 2569 213 2275 61 
Q 1981 -91 1556 -91 
Q 1019 -91 701 211 
Q 384 513 384 1019 
Q 384 1609 779 1909 
Q 1175 2209 1959 2209 
L 2766 2209 
L 2766 2266 
Q 2766 2663 2505 2880 
Q 2244 3097 1772 3097 
Q 1472 3097 1187 3025 
Q 903 2953 641 2809 
L 641 3341 
Q 956 3463 1253 3523 
Q 1550 3584 1831 3584 
Q 2591 3584 2966 3190 
Q 3341 2797 3341 1997 
z
" transform="scale(0.015625)"/>
       <path id="DejaVuSans-4d" d="M 628 4666 
L 1569 4666 
L 2759 1491 
L 3956 4666 
L 4897 4666 
L 4897 0 
L 4281 0 
L 4281 4097 
L 3078 897 
L 2444 897 
L 1241 4097 
L 1241 0 
L 628 0 
L 628 4666 
z
" transform="scale(0.015625)"/>
      </defs>
      <use xlink:href="#DejaVuSans-64"/>
      <use xlink:href="#DejaVuSans-69" x="63.476562"/>
      <use xlink:href="#DejaVuSans-73" x="91.259766"/>
      <use xlink:href="#DejaVuSans-6b" x="143.359375"/>
      <use xlink:href="#DejaVuSans-4c" x="201.269531"/>
      <use xlink:href="#DejaVuSans-6f" x="255.232422"/>
      <use xlink:href="#DejaVuSans-61" x="316.414062"/>
      <use xlink:href="#DejaVuSans-64" x="377.693359"/>
      <use xlink:href="#DejaVuSans-4d" x="441.169922"/>
      <use xlink:href="#DejaVuSans-65" x="527.449219"/>
      <use xlink:href="#DejaVuSans-61" x="588.972656"/>
      <use xlink:href="#DejaVuSans-6e" x="650.251953"/>
     </g>
    </g>
   </g>
   <g id="line2d_37">
    <path d="M 73.832727 295.488 
L 73.838307 295.380867 
L 73.949197 148.11036 
L 74.313018 97.959013 
L 74.317037 97.874606 
L 74.426845 95.997538 
L 74.46621 95.237498 
L 74.620421 90.99766 
L 74.624715 90.925154 
L 74.624715 90.914069 
L 74.773414 88.711684 
L 74.787618 88.605751 
L 74.787618 88.605751 
L 74.897594 87.859608 
L 74.915317 87.728617 
L 75.0251 86.695251 
L 75.094822 86.0182 
L 75.094822 86.0182 
L 75.205726 84.862912 
L 75.217542 84.755349 
L 75.329492 83.694106 
L 75.342458 83.583835 
L 75.54731 81.861645 
L 75.54731 81.861645 
L 75.658043 80.893038 
L 75.67036 80.786489 
L 75.787148 79.738454 
L 75.800844 79.631292 
L 75.911835 78.631521 
L 76.049795 77.412859 
L 76.070409 77.267404 
L 76.070409 77.267404 
L 76.180386 76.428798 
L 76.195401 76.324905 
L 76.195401 76.324905 
L 76.30547 75.54452 
L 76.32364 75.435058 
L 76.32364 75.435058 
L 76.43445 74.744395 
L 76.454099 74.636405 
L 76.564696 73.996799 
L 76.583801 73.88845 
L 76.693823 73.222814 
L 76.714037 73.115453 
L 76.714037 73.112027 
L 76.993646 71.686702 
L 77.021708 71.577146 
L 77.173829 70.951266 
L 77.214817 70.787129 
L 77.214817 70.787129 
L 77.32589 70.356802 
L 77.354437 70.252051 
L 77.488744 69.766823 
L 77.529017 69.65586 
L 78.275889 68.067552 
L 78.355572 67.956944 
L 78.355572 67.956944 
L 78.466109 67.780141 
L 78.532928 67.669427 
L 78.645092 67.491655 
L 78.737853 67.380731 
L 78.737853 67.380731 
L 78.848235 67.254323 
L 78.957806 67.129021 
L 79.083304 66.985518 
L 79.179127 66.874728 
L 79.291442 66.734019 
L 79.462371 66.512401 
L 79.574262 66.370868 
L 79.700454 66.237834 
L 79.811648 66.127446 
L 79.811648 66.127446 
L 79.922668 66.021117 
L 80.057221 65.910028 
L 80.167958 65.825899 
L 80.332925 65.715321 
L 80.443954 65.63229 
L 80.57036 65.52167 
L 81.054264 65.053079 
L 81.44669 64.783251 
L 81.44669 64.783251 
L 81.557256 64.715539 
L 81.73227 64.604465 
L 81.849751 64.526225 
L 82.023358 64.416356 
L 82.023358 64.415387 
L 82.578928 64.150142 
L 82.763922 64.074661 
L 83.018834 63.963577 
L 83.130983 63.914932 
L 83.409004 63.803833 
L 83.562838 63.736643 
L 83.804088 63.625648 
L 83.804088 63.625648 
L 83.915091 63.580155 
L 84.201246 63.469099 
L 84.312984 63.42515 
L 84.617754 63.314184 
L 84.617754 63.314184 
L 84.728479 63.27596 
L 85.282288 63.066657 
L 86.921244 62.506063 
L 87.331055 62.388589 
L 87.331055 62.388589 
L 87.441971 62.357159 
L 87.8221 62.24645 
L 87.933492 62.213982 
L 88.305415 62.103154 
L 88.305415 62.103112 
L 88.441374 62.066641 
L 88.849627 61.955746 
L 88.849627 61.955746 
L 88.960585 61.922477 
L 89.313071 61.811547 
L 89.313071 61.811547 
L 89.424055 61.777995 
L 89.950206 61.642391 
L 89.950206 61.642391 
L 90.061117 61.619148 
L 90.632387 61.508162 
L 90.632387 61.508162 
L 90.741932 61.483549 
L 91.227316 61.372498 
L 91.227316 61.372498 
L 91.338105 61.347536 
L 91.837676 61.236432 
L 91.966717 61.208441 
L 92.569463 61.097441 
L 92.680552 61.08083 
L 93.655013 60.969775 
L 104.743804 60.200745 
L 106.761229 60.089676 
L 106.761229 60.089659 
L 110.721244 59.908724 
L 114.893015 59.797618 
L 114.893015 59.797618 
L 115.003828 59.794182 
L 118.346245 59.683142 
L 118.456878 59.678494 
L 126.226876 59.425482 
L 133.857309 59.314383 
L 133.857309 59.314383 
L 133.968087 59.31256 
L 147.140816 59.166214 
L 169.256164 58.749073 
L 169.783122 58.738773 
L 176.685563 58.627673 
L 176.857409 58.625392 
L 187.456567 58.511482 
L 221.233691 58.436204 
L 267.871821 58.325094 
L 273.628418 58.304592 
L 305.519042 58.193482 
L 305.86208 58.192512 
L 335.839562 58.081404 
L 335.839562 58.081404 
L 335.950565 58.081009 
L 366.885654 57.969899 
L 367.137883 57.968879 
L 398.487273 57.861887 
L 398.487273 57.861887 
" clip-path="url(#pdfa85a9bc8)" style="fill: none; stroke: #1f77b4; stroke-width: 1.5; stroke-linecap: square"/>
   </g>
   <g id="line2d_38">
    <path d="M 73.832727 295.488 
L 73.84206 295.488 
L 73.84206 295.488 
L 73.953143 112.370058 
L 74.162252 94.586652 
L 74.162252 94.586652 
L 74.273049 84.69865 
L 74.471858 76.909256 
L 74.476355 76.805638 
L 74.476355 76.805638 
L 74.587339 74.375392 
L 74.609463 74.067444 
L 74.609463 74.067444 
L 74.720503 72.584119 
L 74.728199 72.476708 
L 74.937949 69.889645 
L 75.048766 68.497799 
L 75.058952 68.398876 
L 75.169996 67.231863 
L 75.181667 67.130018 
L 75.181667 67.12692 
L 75.323549 65.954653 
L 75.874211 63.351051 
L 75.924721 63.240497 
L 75.924721 63.240497 
L 76.0352 63.131286 
L 76.637743 63.020617 
L 76.637743 63.020317 
L 76.778332 62.974371 
L 76.946977 62.85038 
L 76.946977 62.85038 
L 77.057359 62.738895 
L 77.157596 62.62856 
L 77.157596 62.62856 
L 77.268032 62.531386 
L 77.377144 62.420617 
L 77.377144 62.420617 
L 77.487933 62.305716 
L 77.585527 62.184034 
L 77.721982 62.020902 
L 77.833962 61.905748 
L 77.935956 61.796439 
L 77.935956 61.796386 
L 78.048773 61.659666 
L 78.147727 61.549214 
L 78.259335 61.430181 
L 78.380327 61.319073 
L 78.380327 61.319073 
L 78.490823 61.221159 
L 78.63821 61.110637 
L 78.750144 61.040672 
L 79.06129 60.91685 
L 79.791357 60.694711 
L 82.548132 60.199991 
L 83.764318 59.894876 
L 84.222081 59.783996 
L 84.222081 59.783996 
L 84.332774 59.752803 
L 84.831711 59.627949 
L 85.281705 59.517005 
L 85.396856 59.490402 
L 85.897299 59.379698 
L 85.897299 59.379698 
L 86.007851 59.354368 
L 86.941064 59.199031 
L 87.261254 59.168636 
L 90.071952 59.029639 
L 90.071952 59.029639 
L 90.183031 59.02424 
L 92.209169 58.913144 
L 92.321199 58.907053 
L 93.910125 58.795973 
L 94.021781 58.788241 
L 141.416153 58.325062 
L 142.249415 58.315288 
L 302.684886 58.095952 
L 302.79545 58.095622 
L 368.93007 57.984511 
L 398.486542 57.94252 
L 398.486542 57.94252 
" clip-path="url(#pdfa85a9bc8)" style="fill: none; stroke: #ff7f0e; stroke-width: 1.5; stroke-linecap: square"/>
   </g>
   <g id="line2d_39">
    <path d="M 73.832727 295.488 
L 73.841822 295.488 
L 73.95277 139.08927 
L 74.102432 106.734988 
L 74.103977 106.659565 
L 74.216226 95.77463 
L 74.21884 95.680162 
L 74.329233 90.307434 
L 74.456064 86.408676 
L 75.279469 70.732399 
L 75.290427 70.625273 
L 75.290427 70.625273 
L 75.401312 69.557394 
L 75.414201 69.44759 
L 75.414201 69.44759 
L 75.525067 68.522798 
L 75.697868 67.434513 
L 75.722409 67.324361 
L 75.840478 66.829996 
L 76.132499 66.087211 
L 76.199892 65.97622 
L 76.311557 65.773123 
L 76.457154 65.464527 
L 76.633279 65.064797 
L 76.766388 64.802355 
L 76.923616 64.509831 
L 76.988776 64.373911 
L 77.103833 64.119368 
L 77.158933 64.008566 
L 77.271465 63.783411 
L 77.329302 63.673474 
L 77.44077 63.469362 
L 77.500849 63.35877 
L 77.612925 63.162897 
L 78.370181 62.13111 
L 78.472108 62.01944 
L 78.593995 61.881378 
L 78.716087 61.753031 
L 79.335299 61.238572 
L 79.501884 61.12852 
L 79.612797 61.051517 
L 79.76782 60.93795 
L 79.76782 60.93795 
L 79.877887 60.860882 
L 80.048646 60.749795 
L 80.048646 60.749795 
L 80.159712 60.680023 
L 80.280797 60.602576 
L 80.458117 60.491875 
L 80.458117 60.491704 
L 80.742634 60.332319 
L 80.965389 60.221344 
L 80.965389 60.221344 
L 81.076266 60.173265 
L 81.327785 60.062377 
L 81.327785 60.062377 
L 81.438013 60.019823 
L 81.758654 59.90889 
L 82.583865 59.693571 
L 83.088003 59.582493 
L 83.199953 59.557472 
L 84.93786 59.29673 
L 85.048938 59.284018 
L 86.388931 59.144787 
L 86.502248 59.13149 
L 87.850404 59.005514 
L 101.51464 57.274789 
L 102.937586 57.140735 
L 108.706643 56.750458 
L 111.752388 56.622578 
L 111.752388 56.622578 
L 111.862767 56.618702 
L 115.755379 56.503642 
L 144.969831 56.078895 
L 162.365406 56.19 
L 162.534864 56.191879 
L 181.080354 56.302985 
L 181.080354 56.302987 
L 194.515992 56.352576 
L 214.376121 56.463682 
L 214.376121 56.463683 
L 218.601095 56.480582 
L 274.028593 56.591693 
L 327.746478 56.632138 
L 398.486542 56.635064 
L 398.486542 56.635064 
" clip-path="url(#pdfa85a9bc8)" style="fill: none; stroke: #2ca02c; stroke-width: 1.5; stroke-linecap: square"/>
   </g>
   <g id="line2d_40">
    <path d="M 73.832727 295.488 
L 73.837534 295.488 
L 73.837534 295.488 
L 73.948395 90.35528 
L 74.107487 71.050364 
L 74.222447 68.991055 
L 74.333227 67.588502 
L 74.346899 67.486116 
L 74.346899 67.486116 
L 74.457791 66.47668 
L 74.468645 66.371372 
L 74.468645 66.371372 
L 74.579286 65.300642 
L 74.699562 64.426218 
L 74.85823 63.832955 
L 74.900435 63.870458 
L 74.954146 63.98112 
L 74.993976 63.977466 
L 75.037196 63.906518 
L 75.110621 63.856471 
L 75.147743 63.916171 
L 75.209263 64.023535 
L 75.209263 64.023535 
L 75.319645 64.252893 
L 75.430013 64.362561 
L 75.483007 64.395444 
L 75.540123 64.339329 
L 75.645197 64.228369 
L 75.669867 64.223367 
L 75.755771 64.22974 
L 75.904839 64.339153 
L 76.016194 64.50657 
L 76.095923 64.617592 
L 76.206837 64.750104 
L 76.284681 64.860938 
L 76.284681 64.860938 
L 76.395592 65.032847 
L 76.486373 65.161124 
L 76.660158 65.412454 
L 76.756262 65.523281 
L 76.867436 65.614724 
L 76.973761 65.724243 
L 76.973761 65.724243 
L 77.084661 65.875209 
L 77.18243 65.98609 
L 77.294412 66.081157 
L 77.49145 66.250436 
L 77.677825 66.371957 
L 77.880765 66.48283 
L 77.880765 66.48283 
L 77.991635 66.499445 
L 79.737501 66.388405 
L 79.849087 66.329699 
L 80.284832 66.129247 
L 80.585138 66.018389 
L 80.585138 66.018389 
L 80.695926 65.983069 
L 82.162474 65.343511 
L 82.273636 65.296471 
L 82.598906 65.185473 
L 83.121502 64.953191 
L 83.356816 64.842198 
L 83.468238 64.787516 
L 83.693066 64.676414 
L 83.806074 64.623047 
L 84.066959 64.51267 
L 84.177847 64.465238 
L 84.471176 64.341488 
L 84.599229 64.284298 
L 84.849373 64.173438 
L 84.961204 64.123028 
L 85.212844 64.011941 
L 85.323901 63.963396 
L 85.612178 63.852287 
L 85.612178 63.852287 
L 85.723203 63.812153 
L 86.046829 63.701109 
L 86.159353 63.668469 
L 86.657397 63.557385 
L 86.657397 63.557385 
L 86.767779 63.530974 
L 87.257196 63.419958 
L 87.257196 63.419958 
L 87.367984 63.397734 
L 88.208407 63.280628 
L 89.229094 63.169617 
L 89.338312 63.155425 
L 90.389154 63.041454 
L 90.526357 63.029221 
L 92.163716 62.918178 
L 92.347059 62.907017 
L 94.001703 62.795977 
L 94.112925 62.787231 
L 95.549354 62.676229 
L 98.607528 62.281997 
L 98.743883 62.263394 
L 99.700396 62.128635 
L 99.700396 62.128635 
L 99.810043 62.11132 
L 100.542063 62.000231 
L 100.542063 62.000231 
L 100.652376 61.984173 
L 101.51147 61.873074 
L 101.622797 61.860416 
L 102.677073 61.749325 
L 102.677073 61.749325 
L 102.78815 61.738693 
L 104.174543 61.6276 
L 104.174543 61.6276 
L 104.28545 61.619791 
L 108.316451 61.330015 
L 108.427605 61.321512 
L 111.431873 61.115463 
L 111.543391 61.108507 
L 115.321588 60.906453 
L 118.007265 60.795354 
L 118.007265 60.795345 
L 122.208169 60.630172 
L 122.510412 60.617244 
L 125.008848 60.506137 
L 125.008848 60.506137 
L 125.118419 60.501251 
L 127.75392 60.390154 
L 127.866087 60.385758 
L 147.474457 59.84163 
L 154.832027 59.730525 
L 154.832027 59.73052 
L 161.648417 59.642844 
L 171.784121 59.510286 
L 186.045281 59.35877 
L 199.296604 59.247659 
L 225.490672 59.084173 
L 229.338641 59.064887 
L 282.911149 58.829312 
L 316.542507 58.712085 
L 359.245131 58.574263 
L 359.245131 58.574263 
L 359.354849 58.57389 
L 391.99049 58.462781 
L 398.487198 58.439528 
L 398.487198 58.439528 
" clip-path="url(#pdfa85a9bc8)" style="fill: none; stroke: #d62728; stroke-width: 1.5; stroke-linecap: square"/>
   </g>
   <g id="line2d_41">
    <path d="M 73.832727 295.488 
L 73.838587 295.488 
L 73.838587 295.488 
L 73.949569 65.873064 
L 74.148411 53.979438 
L 74.155353 53.881136 
L 74.155353 53.881136 
L 74.204593 53.568 
L 74.26604 53.906176 
L 74.303239 54.39445 
L 74.635864 58.778209 
L 74.645175 58.882377 
L 74.645175 58.888784 
L 74.778522 60.198421 
L 74.889243 61.515395 
L 74.90136 61.619614 
L 75.075416 62.911442 
L 75.093075 63.021003 
L 75.204393 63.627368 
L 75.979506 64.939645 
L 76.053993 65.050192 
L 76.31877 65.269817 
L 77.088325 65.158746 
L 77.201831 65.095472 
L 77.387898 64.984758 
L 77.500513 64.878913 
L 77.638827 64.76781 
L 77.638827 64.76781 
L 77.74988 64.655323 
L 77.862909 64.563482 
L 77.991959 64.4534 
L 77.991959 64.452564 
L 78.330296 64.106197 
L 78.47082 63.9797 
L 78.576337 63.86969 
L 78.576337 63.86969 
L 78.687126 63.756945 
L 79.097667 63.453335 
L 79.275156 63.343048 
L 79.275156 63.343048 
L 79.38593 63.276838 
L 79.566534 63.166439 
L 79.566534 63.166439 
L 79.674887 63.094287 
L 79.926354 62.959462 
L 80.542351 62.670884 
L 80.855318 62.545839 
L 81.126093 62.449748 
L 81.404891 62.338947 
L 81.404891 62.338813 
L 81.95717 62.122303 
L 82.274559 62.011287 
L 82.274559 62.011255 
L 82.399922 61.965437 
L 82.744091 61.854794 
L 82.744091 61.854794 
L 82.855202 61.824749 
L 82.965262 61.794119 
L 83.501161 61.683015 
L 83.611325 61.666191 
L 84.393742 61.555335 
L 84.393742 61.555121 
L 91.780041 60.624494 
L 93.0466 60.510764 
L 93.0466 60.510764 
L 93.157388 60.501214 
L 94.678801 60.39019 
L 94.678801 60.39019 
L 94.789709 60.383514 
L 95.333138 60.351766 
L 96.889843 60.240701 
L 97.118986 60.218855 
L 98.291395 60.107839 
L 98.291395 60.107839 
L 98.402475 60.097779 
L 100.017406 59.98667 
L 105.151347 59.847528 
L 105.151347 59.847528 
L 105.261924 59.844665 
L 108.997703 59.733574 
L 113.135416 59.557404 
L 113.135416 59.557404 
L 113.245459 59.552655 
L 124.739384 59.170284 
L 124.739384 59.170284 
L 124.850173 59.167388 
L 130.004876 59.056279 
L 139.802249 58.898864 
L 148.096517 58.787756 
L 154.97844 58.710045 
L 164.036798 58.590585 
L 164.036798 58.590585 
L 164.147586 58.588907 
L 172.498515 58.477802 
L 172.498515 58.477797 
L 177.235631 58.420724 
L 215.734523 58.014105 
L 247.223421 57.902994 
L 255.478647 57.883507 
L 296.233774 57.772396 
L 296.88825 57.770957 
L 398.485022 57.674142 
L 398.485022 57.674142 
" clip-path="url(#pdfa85a9bc8)" style="fill: none; stroke: #9467bd; stroke-width: 1.5; stroke-linecap: square"/>
   </g>
   <g id="patch_3">
    <path d="M 57.6 307.584 
L 57.6 41.472 
" style="fill: none; stroke: #000000; stroke-width: 0.8; stroke-linejoin: miter; stroke-linecap: square"/>
   </g>
   <g id="patch_4">
    <path d="M 414.72 307.584 
L 414.72 41.472 
" style="fill: none; stroke: #000000; stroke-width: 0.8; stroke-linejoin: miter; stroke-linecap: square"/>
   </g>
   <g id="patch_5">
    <path d="M 57.6 307.584 
L 414.72 307.584 
" style="fill: none; stroke: #000000; stroke-width: 0.8; stroke-linejoin: miter; stroke-linecap: square"/>
   </g>
   <g id="patch_6">
    <path d="M 57.6 41.472 
L 414.72 41.472 
" style="fill: none; stroke: #000000; stroke-width: 0.8; stroke-linejoin: miter; stroke-linecap: square"/>
   </g>
   <g id="text_21">
    <!-- diskLoadMean vs. TimePoint for Each Run -->
    <g transform="translate(111.325312 35.472) scale(0.12 -0.12)">
     <defs>
      <path id="DejaVuSans-20" transform="scale(0.015625)"/>
      <path id="DejaVuSans-76" d="M 191 3500 
L 800 3500 
L 1894 563 
L 2988 3500 
L 3597 3500 
L 2284 0 
L 1503 0 
L 191 3500 
z
" transform="scale(0.015625)"/>
      <path id="DejaVuSans-66" d="M 2375 4863 
L 2375 4384 
L 1825 4384 
Q 1516 4384 1395 4259 
Q 1275 4134 1275 3809 
L 1275 3500 
L 2222 3500 
L 2222 3053 
L 1275 3053 
L 1275 0 
L 697 0 
L 697 3053 
L 147 3053 
L 147 3500 
L 697 3500 
L 697 3744 
Q 697 4328 969 4595 
Q 1241 4863 1831 4863 
L 2375 4863 
z
" transform="scale(0.015625)"/>
      <path id="DejaVuSans-72" d="M 2631 2963 
Q 2534 3019 2420 3045 
Q 2306 3072 2169 3072 
Q 1681 3072 1420 2755 
Q 1159 2438 1159 1844 
L 1159 0 
L 581 0 
L 581 3500 
L 1159 3500 
L 1159 2956 
Q 1341 3275 1631 3429 
Q 1922 3584 2338 3584 
Q 2397 3584 2469 3576 
Q 2541 3569 2628 3553 
L 2631 2963 
z
" transform="scale(0.015625)"/>
      <path id="DejaVuSans-45" d="M 628 4666 
L 3578 4666 
L 3578 4134 
L 1259 4134 
L 1259 2753 
L 3481 2753 
L 3481 2222 
L 1259 2222 
L 1259 531 
L 3634 531 
L 3634 0 
L 628 0 
L 628 4666 
z
" transform="scale(0.015625)"/>
      <path id="DejaVuSans-63" d="M 3122 3366 
L 3122 2828 
Q 2878 2963 2633 3030 
Q 2388 3097 2138 3097 
Q 1578 3097 1268 2742 
Q 959 2388 959 1747 
Q 959 1106 1268 751 
Q 1578 397 2138 397 
Q 2388 397 2633 464 
Q 2878 531 3122 666 
L 3122 134 
Q 2881 22 2623 -34 
Q 2366 -91 2075 -91 
Q 1284 -91 818 406 
Q 353 903 353 1747 
Q 353 2603 823 3093 
Q 1294 3584 2113 3584 
Q 2378 3584 2631 3529 
Q 2884 3475 3122 3366 
z
" transform="scale(0.015625)"/>
      <path id="DejaVuSans-68" d="M 3513 2113 
L 3513 0 
L 2938 0 
L 2938 2094 
Q 2938 2591 2744 2837 
Q 2550 3084 2163 3084 
Q 1697 3084 1428 2787 
Q 1159 2491 1159 1978 
L 1159 0 
L 581 0 
L 581 4863 
L 1159 4863 
L 1159 2956 
Q 1366 3272 1645 3428 
Q 1925 3584 2291 3584 
Q 2894 3584 3203 3211 
Q 3513 2838 3513 2113 
z
" transform="scale(0.015625)"/>
      <path id="DejaVuSans-52" d="M 2841 2188 
Q 3044 2119 3236 1894 
Q 3428 1669 3622 1275 
L 4263 0 
L 3584 0 
L 2988 1197 
Q 2756 1666 2539 1819 
Q 2322 1972 1947 1972 
L 1259 1972 
L 1259 0 
L 628 0 
L 628 4666 
L 2053 4666 
Q 2853 4666 3247 4331 
Q 3641 3997 3641 3322 
Q 3641 2881 3436 2590 
Q 3231 2300 2841 2188 
z
M 1259 4147 
L 1259 2491 
L 2053 2491 
Q 2509 2491 2742 2702 
Q 2975 2913 2975 3322 
Q 2975 3731 2742 3939 
Q 2509 4147 2053 4147 
L 1259 4147 
z
" transform="scale(0.015625)"/>
      <path id="DejaVuSans-75" d="M 544 1381 
L 544 3500 
L 1119 3500 
L 1119 1403 
Q 1119 906 1312 657 
Q 1506 409 1894 409 
Q 2359 409 2629 706 
Q 2900 1003 2900 1516 
L 2900 3500 
L 3475 3500 
L 3475 0 
L 2900 0 
L 2900 538 
Q 2691 219 2414 64 
Q 2138 -91 1772 -91 
Q 1169 -91 856 284 
Q 544 659 544 1381 
z
M 1991 3584 
L 1991 3584 
z
" transform="scale(0.015625)"/>
     </defs>
     <use xlink:href="#DejaVuSans-64"/>
     <use xlink:href="#DejaVuSans-69" x="63.476562"/>
     <use xlink:href="#DejaVuSans-73" x="91.259766"/>
     <use xlink:href="#DejaVuSans-6b" x="143.359375"/>
     <use xlink:href="#DejaVuSans-4c" x="201.269531"/>
     <use xlink:href="#DejaVuSans-6f" x="255.232422"/>
     <use xlink:href="#DejaVuSans-61" x="316.414062"/>
     <use xlink:href="#DejaVuSans-64" x="377.693359"/>
     <use xlink:href="#DejaVuSans-4d" x="441.169922"/>
     <use xlink:href="#DejaVuSans-65" x="527.449219"/>
     <use xlink:href="#DejaVuSans-61" x="588.972656"/>
     <use xlink:href="#DejaVuSans-6e" x="650.251953"/>
     <use xlink:href="#DejaVuSans-20" x="713.630859"/>
     <use xlink:href="#DejaVuSans-76" x="745.417969"/>
     <use xlink:href="#DejaVuSans-73" x="804.597656"/>
     <use xlink:href="#DejaVuSans-2e" x="856.697266"/>
     <use xlink:href="#DejaVuSans-20" x="888.484375"/>
     <use xlink:href="#DejaVuSans-54" x="920.271484"/>
     <use xlink:href="#DejaVuSans-69" x="978.230469"/>
     <use xlink:href="#DejaVuSans-6d" x="1006.013672"/>
     <use xlink:href="#DejaVuSans-65" x="1103.425781"/>
     <use xlink:href="#DejaVuSans-50" x="1164.949219"/>
     <use xlink:href="#DejaVuSans-6f" x="1221.626953"/>
     <use xlink:href="#DejaVuSans-69" x="1282.808594"/>
     <use xlink:href="#DejaVuSans-6e" x="1310.591797"/>
     <use xlink:href="#DejaVuSans-74" x="1373.970703"/>
     <use xlink:href="#DejaVuSans-20" x="1413.179688"/>
     <use xlink:href="#DejaVuSans-66" x="1444.966797"/>
     <use xlink:href="#DejaVuSans-6f" x="1480.171875"/>
     <use xlink:href="#DejaVuSans-72" x="1541.353516"/>
     <use xlink:href="#DejaVuSans-20" x="1582.466797"/>
     <use xlink:href="#DejaVuSans-45" x="1614.253906"/>
     <use xlink:href="#DejaVuSans-61" x="1677.4375"/>
     <use xlink:href="#DejaVuSans-63" x="1738.716797"/>
     <use xlink:href="#DejaVuSans-68" x="1793.697266"/>
     <use xlink:href="#DejaVuSans-20" x="1857.076172"/>
     <use xlink:href="#DejaVuSans-52" x="1888.863281"/>
     <use xlink:href="#DejaVuSans-75" x="1953.845703"/>
     <use xlink:href="#DejaVuSans-6e" x="2017.224609"/>
    </g>
   </g>
   <g id="legend_1">
    <g id="patch_7">
     <path d="M 341.196563 302.584 
L 407.72 302.584 
Q 409.72 302.584 409.72 300.584 
L 409.72 213.51525 
Q 409.72 211.51525 407.72 211.51525 
L 341.196563 211.51525 
Q 339.196563 211.51525 339.196563 213.51525 
L 339.196563 300.584 
Q 339.196563 302.584 341.196563 302.584 
z
" style="fill: #ffffff; opacity: 0.8; stroke: #cccccc; stroke-linejoin: miter"/>
    </g>
    <g id="text_22">
     <!-- Run Number -->
     <g transform="translate(343.196563 223.113687) scale(0.1 -0.1)">
      <defs>
       <path id="DejaVuSans-4e" d="M 628 4666 
L 1478 4666 
L 3547 763 
L 3547 4666 
L 4159 4666 
L 4159 0 
L 3309 0 
L 1241 3903 
L 1241 0 
L 628 0 
L 628 4666 
z
" transform="scale(0.015625)"/>
       <path id="DejaVuSans-62" d="M 3116 1747 
Q 3116 2381 2855 2742 
Q 2594 3103 2138 3103 
Q 1681 3103 1420 2742 
Q 1159 2381 1159 1747 
Q 1159 1113 1420 752 
Q 1681 391 2138 391 
Q 2594 391 2855 752 
Q 3116 1113 3116 1747 
z
M 1159 2969 
Q 1341 3281 1617 3432 
Q 1894 3584 2278 3584 
Q 2916 3584 3314 3078 
Q 3713 2572 3713 1747 
Q 3713 922 3314 415 
Q 2916 -91 2278 -91 
Q 1894 -91 1617 61 
Q 1341 213 1159 525 
L 1159 0 
L 581 0 
L 581 4863 
L 1159 4863 
L 1159 2969 
z
" transform="scale(0.015625)"/>
      </defs>
      <use xlink:href="#DejaVuSans-52"/>
      <use xlink:href="#DejaVuSans-75" x="64.982422"/>
      <use xlink:href="#DejaVuSans-6e" x="128.361328"/>
      <use xlink:href="#DejaVuSans-20" x="191.740234"/>
      <use xlink:href="#DejaVuSans-4e" x="223.527344"/>
      <use xlink:href="#DejaVuSans-75" x="298.332031"/>
      <use xlink:href="#DejaVuSans-6d" x="361.710938"/>
      <use xlink:href="#DejaVuSans-62" x="459.123047"/>
      <use xlink:href="#DejaVuSans-65" x="522.599609"/>
      <use xlink:href="#DejaVuSans-72" x="584.123047"/>
     </g>
    </g>
    <g id="line2d_42">
     <path d="M 346.10125 234.291812 
L 356.10125 234.291812 
L 366.10125 234.291812 
" style="fill: none; stroke: #1f77b4; stroke-width: 1.5; stroke-linecap: square"/>
    </g>
    <g id="text_23">
     <!-- Run 0 -->
     <g transform="translate(374.10125 237.791812) scale(0.1 -0.1)">
      <use xlink:href="#DejaVuSans-52"/>
      <use xlink:href="#DejaVuSans-75" x="64.982422"/>
      <use xlink:href="#DejaVuSans-6e" x="128.361328"/>
      <use xlink:href="#DejaVuSans-20" x="191.740234"/>
      <use xlink:href="#DejaVuSans-30" x="223.527344"/>
     </g>
    </g>
    <g id="line2d_43">
     <path d="M 346.10125 248.969937 
L 356.10125 248.969937 
L 366.10125 248.969937 
" style="fill: none; stroke: #ff7f0e; stroke-width: 1.5; stroke-linecap: square"/>
    </g>
    <g id="text_24">
     <!-- Run 1 -->
     <g transform="translate(374.10125 252.469937) scale(0.1 -0.1)">
      <use xlink:href="#DejaVuSans-52"/>
      <use xlink:href="#DejaVuSans-75" x="64.982422"/>
      <use xlink:href="#DejaVuSans-6e" x="128.361328"/>
      <use xlink:href="#DejaVuSans-20" x="191.740234"/>
      <use xlink:href="#DejaVuSans-31" x="223.527344"/>
     </g>
    </g>
    <g id="line2d_44">
     <path d="M 346.10125 263.648062 
L 356.10125 263.648062 
L 366.10125 263.648062 
" style="fill: none; stroke: #2ca02c; stroke-width: 1.5; stroke-linecap: square"/>
    </g>
    <g id="text_25">
     <!-- Run 2 -->
     <g transform="translate(374.10125 267.148062) scale(0.1 -0.1)">
      <use xlink:href="#DejaVuSans-52"/>
      <use xlink:href="#DejaVuSans-75" x="64.982422"/>
      <use xlink:href="#DejaVuSans-6e" x="128.361328"/>
      <use xlink:href="#DejaVuSans-20" x="191.740234"/>
      <use xlink:href="#DejaVuSans-32" x="223.527344"/>
     </g>
    </g>
    <g id="line2d_45">
     <path d="M 346.10125 278.326188 
L 356.10125 278.326188 
L 366.10125 278.326188 
" style="fill: none; stroke: #d62728; stroke-width: 1.5; stroke-linecap: square"/>
    </g>
    <g id="text_26">
     <!-- Run 3 -->
     <g transform="translate(374.10125 281.826188) scale(0.1 -0.1)">
      <use xlink:href="#DejaVuSans-52"/>
      <use xlink:href="#DejaVuSans-75" x="64.982422"/>
      <use xlink:href="#DejaVuSans-6e" x="128.361328"/>
      <use xlink:href="#DejaVuSans-20" x="191.740234"/>
      <use xlink:href="#DejaVuSans-33" x="223.527344"/>
     </g>
    </g>
    <g id="line2d_46">
     <path d="M 346.10125 293.004312 
L 356.10125 293.004312 
L 366.10125 293.004312 
" style="fill: none; stroke: #9467bd; stroke-width: 1.5; stroke-linecap: square"/>
    </g>
    <g id="text_27">
     <!-- Run 4 -->
     <g transform="translate(374.10125 296.504312) scale(0.1 -0.1)">
      <use xlink:href="#DejaVuSans-52"/>
      <use xlink:href="#DejaVuSans-75" x="64.982422"/>
      <use xlink:href="#DejaVuSans-6e" x="128.361328"/>
      <use xlink:href="#DejaVuSans-20" x="191.740234"/>
      <use xlink:href="#DejaVuSans-34" x="223.527344"/>
     </g>
    </g>
   </g>
  </g>
 </g>
 <defs>
  <clipPath id="pdfa85a9bc8">
   <rect x="57.6" y="41.472" width="357.12" height="266.112"/>
  </clipPath>
 </defs>
</svg>
