<?xml version="1.0" encoding="utf-8" standalone="no"?>
<!DOCTYPE svg PUBLIC "-//W3C//DTD SVG 1.1//EN"
  "http://www.w3.org/Graphics/SVG/1.1/DTD/svg11.dtd">
<svg xmlns:xlink="http://www.w3.org/1999/xlink" width="460.8pt" height="345.6pt" viewBox="0 0 460.8 345.6" xmlns="http://www.w3.org/2000/svg" version="1.1">
 <metadata>
  <rdf:RDF xmlns:dc="http://purl.org/dc/elements/1.1/" xmlns:cc="http://creativecommons.org/ns#" xmlns:rdf="http://www.w3.org/1999/02/22-rdf-syntax-ns#">
   <cc:Work>
    <dc:type rdf:resource="http://purl.org/dc/dcmitype/StillImage"/>
    <dc:date>2024-12-03T11:43:45.314510</dc:date>
    <dc:format>image/svg+xml</dc:format>
    <dc:creator>
     <cc:Agent>
      <dc:title>Matplotlib v3.9.2, https://matplotlib.org/</dc:title>
     </cc:Agent>
    </dc:creator>
   </cc:Work>
  </rdf:RDF>
 </metadata>
 <defs>
  <style type="text/css">*{stroke-linejoin: round; stroke-linecap: butt}</style>
 </defs>
 <g id="figure_1">
  <g id="patch_1">
   <path d="M 0 345.6 
L 460.8 345.6 
L 460.8 0 
L 0 0 
z
" style="fill: #ffffff"/>
  </g>
  <g id="axes_1">
   <g id="patch_2">
    <path d="M 57.6 307.584 
L 414.72 307.584 
L 414.72 41.472 
L 57.6 41.472 
z
" style="fill: #ffffff"/>
   </g>
   <g id="matplotlib.axis_1">
    <g id="xtick_1">
     <g id="line2d_1">
      <path d="M 73.832727 307.584 
L 73.832727 41.472 
" clip-path="url(#pd4a49dd858)" style="fill: none; stroke: #b0b0b0; stroke-width: 0.8; stroke-linecap: square"/>
     </g>
     <g id="line2d_2">
      <defs>
       <path id="m9732c9ac09" d="M 0 0 
L 0 3.5 
" style="stroke: #000000; stroke-width: 0.8"/>
      </defs>
      <g>
       <use xlink:href="#m9732c9ac09" x="73.832727" y="307.584" style="stroke: #000000; stroke-width: 0.8"/>
      </g>
     </g>
     <g id="text_1">
      <!-- 0 -->
      <g transform="translate(70.651477 322.182437) scale(0.1 -0.1)">
       <defs>
        <path id="DejaVuSans-30" d="M 2034 4250 
Q 1547 4250 1301 3770 
Q 1056 3291 1056 2328 
Q 1056 1369 1301 889 
Q 1547 409 2034 409 
Q 2525 409 2770 889 
Q 3016 1369 3016 2328 
Q 3016 3291 2770 3770 
Q 2525 4250 2034 4250 
z
M 2034 4750 
Q 2819 4750 3233 4129 
Q 3647 3509 3647 2328 
Q 3647 1150 3233 529 
Q 2819 -91 2034 -91 
Q 1250 -91 836 529 
Q 422 1150 422 2328 
Q 422 3509 836 4129 
Q 1250 4750 2034 4750 
z
" transform="scale(0.015625)"/>
       </defs>
       <use xlink:href="#DejaVuSans-30"/>
      </g>
     </g>
    </g>
    <g id="xtick_2">
     <g id="line2d_3">
      <path d="M 114.414556 307.584 
L 114.414556 41.472 
" clip-path="url(#pd4a49dd858)" style="fill: none; stroke: #b0b0b0; stroke-width: 0.8; stroke-linecap: square"/>
     </g>
     <g id="line2d_4">
      <g>
       <use xlink:href="#m9732c9ac09" x="114.414556" y="307.584" style="stroke: #000000; stroke-width: 0.8"/>
      </g>
     </g>
     <g id="text_2">
      <!-- 100000 -->
      <g transform="translate(95.327056 322.182437) scale(0.1 -0.1)">
       <defs>
        <path id="DejaVuSans-31" d="M 794 531 
L 1825 531 
L 1825 4091 
L 703 3866 
L 703 4441 
L 1819 4666 
L 2450 4666 
L 2450 531 
L 3481 531 
L 3481 0 
L 794 0 
L 794 531 
z
" transform="scale(0.015625)"/>
       </defs>
       <use xlink:href="#DejaVuSans-31"/>
       <use xlink:href="#DejaVuSans-30" x="63.623047"/>
       <use xlink:href="#DejaVuSans-30" x="127.246094"/>
       <use xlink:href="#DejaVuSans-30" x="190.869141"/>
       <use xlink:href="#DejaVuSans-30" x="254.492188"/>
       <use xlink:href="#DejaVuSans-30" x="318.115234"/>
      </g>
     </g>
    </g>
    <g id="xtick_3">
     <g id="line2d_5">
      <path d="M 154.996384 307.584 
L 154.996384 41.472 
" clip-path="url(#pd4a49dd858)" style="fill: none; stroke: #b0b0b0; stroke-width: 0.8; stroke-linecap: square"/>
     </g>
     <g id="line2d_6">
      <g>
       <use xlink:href="#m9732c9ac09" x="154.996384" y="307.584" style="stroke: #000000; stroke-width: 0.8"/>
      </g>
     </g>
     <g id="text_3">
      <!-- 200000 -->
      <g transform="translate(135.908884 322.182437) scale(0.1 -0.1)">
       <defs>
        <path id="DejaVuSans-32" d="M 1228 531 
L 3431 531 
L 3431 0 
L 469 0 
L 469 531 
Q 828 903 1448 1529 
Q 2069 2156 2228 2338 
Q 2531 2678 2651 2914 
Q 2772 3150 2772 3378 
Q 2772 3750 2511 3984 
Q 2250 4219 1831 4219 
Q 1534 4219 1204 4116 
Q 875 4013 500 3803 
L 500 4441 
Q 881 4594 1212 4672 
Q 1544 4750 1819 4750 
Q 2544 4750 2975 4387 
Q 3406 4025 3406 3419 
Q 3406 3131 3298 2873 
Q 3191 2616 2906 2266 
Q 2828 2175 2409 1742 
Q 1991 1309 1228 531 
z
" transform="scale(0.015625)"/>
       </defs>
       <use xlink:href="#DejaVuSans-32"/>
       <use xlink:href="#DejaVuSans-30" x="63.623047"/>
       <use xlink:href="#DejaVuSans-30" x="127.246094"/>
       <use xlink:href="#DejaVuSans-30" x="190.869141"/>
       <use xlink:href="#DejaVuSans-30" x="254.492188"/>
       <use xlink:href="#DejaVuSans-30" x="318.115234"/>
      </g>
     </g>
    </g>
    <g id="xtick_4">
     <g id="line2d_7">
      <path d="M 195.578212 307.584 
L 195.578212 41.472 
" clip-path="url(#pd4a49dd858)" style="fill: none; stroke: #b0b0b0; stroke-width: 0.8; stroke-linecap: square"/>
     </g>
     <g id="line2d_8">
      <g>
       <use xlink:href="#m9732c9ac09" x="195.578212" y="307.584" style="stroke: #000000; stroke-width: 0.8"/>
      </g>
     </g>
     <g id="text_4">
      <!-- 300000 -->
      <g transform="translate(176.490712 322.182437) scale(0.1 -0.1)">
       <defs>
        <path id="DejaVuSans-33" d="M 2597 2516 
Q 3050 2419 3304 2112 
Q 3559 1806 3559 1356 
Q 3559 666 3084 287 
Q 2609 -91 1734 -91 
Q 1441 -91 1130 -33 
Q 819 25 488 141 
L 488 750 
Q 750 597 1062 519 
Q 1375 441 1716 441 
Q 2309 441 2620 675 
Q 2931 909 2931 1356 
Q 2931 1769 2642 2001 
Q 2353 2234 1838 2234 
L 1294 2234 
L 1294 2753 
L 1863 2753 
Q 2328 2753 2575 2939 
Q 2822 3125 2822 3475 
Q 2822 3834 2567 4026 
Q 2313 4219 1838 4219 
Q 1578 4219 1281 4162 
Q 984 4106 628 3988 
L 628 4550 
Q 988 4650 1302 4700 
Q 1616 4750 1894 4750 
Q 2613 4750 3031 4423 
Q 3450 4097 3450 3541 
Q 3450 3153 3228 2886 
Q 3006 2619 2597 2516 
z
" transform="scale(0.015625)"/>
       </defs>
       <use xlink:href="#DejaVuSans-33"/>
       <use xlink:href="#DejaVuSans-30" x="63.623047"/>
       <use xlink:href="#DejaVuSans-30" x="127.246094"/>
       <use xlink:href="#DejaVuSans-30" x="190.869141"/>
       <use xlink:href="#DejaVuSans-30" x="254.492188"/>
       <use xlink:href="#DejaVuSans-30" x="318.115234"/>
      </g>
     </g>
    </g>
    <g id="xtick_5">
     <g id="line2d_9">
      <path d="M 236.16004 307.584 
L 236.16004 41.472 
" clip-path="url(#pd4a49dd858)" style="fill: none; stroke: #b0b0b0; stroke-width: 0.8; stroke-linecap: square"/>
     </g>
     <g id="line2d_10">
      <g>
       <use xlink:href="#m9732c9ac09" x="236.16004" y="307.584" style="stroke: #000000; stroke-width: 0.8"/>
      </g>
     </g>
     <g id="text_5">
      <!-- 400000 -->
      <g transform="translate(217.07254 322.182437) scale(0.1 -0.1)">
       <defs>
        <path id="DejaVuSans-34" d="M 2419 4116 
L 825 1625 
L 2419 1625 
L 2419 4116 
z
M 2253 4666 
L 3047 4666 
L 3047 1625 
L 3713 1625 
L 3713 1100 
L 3047 1100 
L 3047 0 
L 2419 0 
L 2419 1100 
L 313 1100 
L 313 1709 
L 2253 4666 
z
" transform="scale(0.015625)"/>
       </defs>
       <use xlink:href="#DejaVuSans-34"/>
       <use xlink:href="#DejaVuSans-30" x="63.623047"/>
       <use xlink:href="#DejaVuSans-30" x="127.246094"/>
       <use xlink:href="#DejaVuSans-30" x="190.869141"/>
       <use xlink:href="#DejaVuSans-30" x="254.492188"/>
       <use xlink:href="#DejaVuSans-30" x="318.115234"/>
      </g>
     </g>
    </g>
    <g id="xtick_6">
     <g id="line2d_11">
      <path d="M 276.741869 307.584 
L 276.741869 41.472 
" clip-path="url(#pd4a49dd858)" style="fill: none; stroke: #b0b0b0; stroke-width: 0.8; stroke-linecap: square"/>
     </g>
     <g id="line2d_12">
      <g>
       <use xlink:href="#m9732c9ac09" x="276.741869" y="307.584" style="stroke: #000000; stroke-width: 0.8"/>
      </g>
     </g>
     <g id="text_6">
      <!-- 500000 -->
      <g transform="translate(257.654369 322.182437) scale(0.1 -0.1)">
       <defs>
        <path id="DejaVuSans-35" d="M 691 4666 
L 3169 4666 
L 3169 4134 
L 1269 4134 
L 1269 2991 
Q 1406 3038 1543 3061 
Q 1681 3084 1819 3084 
Q 2600 3084 3056 2656 
Q 3513 2228 3513 1497 
Q 3513 744 3044 326 
Q 2575 -91 1722 -91 
Q 1428 -91 1123 -41 
Q 819 9 494 109 
L 494 744 
Q 775 591 1075 516 
Q 1375 441 1709 441 
Q 2250 441 2565 725 
Q 2881 1009 2881 1497 
Q 2881 1984 2565 2268 
Q 2250 2553 1709 2553 
Q 1456 2553 1204 2497 
Q 953 2441 691 2322 
L 691 4666 
z
" transform="scale(0.015625)"/>
       </defs>
       <use xlink:href="#DejaVuSans-35"/>
       <use xlink:href="#DejaVuSans-30" x="63.623047"/>
       <use xlink:href="#DejaVuSans-30" x="127.246094"/>
       <use xlink:href="#DejaVuSans-30" x="190.869141"/>
       <use xlink:href="#DejaVuSans-30" x="254.492188"/>
       <use xlink:href="#DejaVuSans-30" x="318.115234"/>
      </g>
     </g>
    </g>
    <g id="xtick_7">
     <g id="line2d_13">
      <path d="M 317.323697 307.584 
L 317.323697 41.472 
" clip-path="url(#pd4a49dd858)" style="fill: none; stroke: #b0b0b0; stroke-width: 0.8; stroke-linecap: square"/>
     </g>
     <g id="line2d_14">
      <g>
       <use xlink:href="#m9732c9ac09" x="317.323697" y="307.584" style="stroke: #000000; stroke-width: 0.8"/>
      </g>
     </g>
     <g id="text_7">
      <!-- 600000 -->
      <g transform="translate(298.236197 322.182437) scale(0.1 -0.1)">
       <defs>
        <path id="DejaVuSans-36" d="M 2113 2584 
Q 1688 2584 1439 2293 
Q 1191 2003 1191 1497 
Q 1191 994 1439 701 
Q 1688 409 2113 409 
Q 2538 409 2786 701 
Q 3034 994 3034 1497 
Q 3034 2003 2786 2293 
Q 2538 2584 2113 2584 
z
M 3366 4563 
L 3366 3988 
Q 3128 4100 2886 4159 
Q 2644 4219 2406 4219 
Q 1781 4219 1451 3797 
Q 1122 3375 1075 2522 
Q 1259 2794 1537 2939 
Q 1816 3084 2150 3084 
Q 2853 3084 3261 2657 
Q 3669 2231 3669 1497 
Q 3669 778 3244 343 
Q 2819 -91 2113 -91 
Q 1303 -91 875 529 
Q 447 1150 447 2328 
Q 447 3434 972 4092 
Q 1497 4750 2381 4750 
Q 2619 4750 2861 4703 
Q 3103 4656 3366 4563 
z
" transform="scale(0.015625)"/>
       </defs>
       <use xlink:href="#DejaVuSans-36"/>
       <use xlink:href="#DejaVuSans-30" x="63.623047"/>
       <use xlink:href="#DejaVuSans-30" x="127.246094"/>
       <use xlink:href="#DejaVuSans-30" x="190.869141"/>
       <use xlink:href="#DejaVuSans-30" x="254.492188"/>
       <use xlink:href="#DejaVuSans-30" x="318.115234"/>
      </g>
     </g>
    </g>
    <g id="xtick_8">
     <g id="line2d_15">
      <path d="M 357.905525 307.584 
L 357.905525 41.472 
" clip-path="url(#pd4a49dd858)" style="fill: none; stroke: #b0b0b0; stroke-width: 0.8; stroke-linecap: square"/>
     </g>
     <g id="line2d_16">
      <g>
       <use xlink:href="#m9732c9ac09" x="357.905525" y="307.584" style="stroke: #000000; stroke-width: 0.8"/>
      </g>
     </g>
     <g id="text_8">
      <!-- 700000 -->
      <g transform="translate(338.818025 322.182437) scale(0.1 -0.1)">
       <defs>
        <path id="DejaVuSans-37" d="M 525 4666 
L 3525 4666 
L 3525 4397 
L 1831 0 
L 1172 0 
L 2766 4134 
L 525 4134 
L 525 4666 
z
" transform="scale(0.015625)"/>
       </defs>
       <use xlink:href="#DejaVuSans-37"/>
       <use xlink:href="#DejaVuSans-30" x="63.623047"/>
       <use xlink:href="#DejaVuSans-30" x="127.246094"/>
       <use xlink:href="#DejaVuSans-30" x="190.869141"/>
       <use xlink:href="#DejaVuSans-30" x="254.492188"/>
       <use xlink:href="#DejaVuSans-30" x="318.115234"/>
      </g>
     </g>
    </g>
    <g id="xtick_9">
     <g id="line2d_17">
      <path d="M 398.487353 307.584 
L 398.487353 41.472 
" clip-path="url(#pd4a49dd858)" style="fill: none; stroke: #b0b0b0; stroke-width: 0.8; stroke-linecap: square"/>
     </g>
     <g id="line2d_18">
      <g>
       <use xlink:href="#m9732c9ac09" x="398.487353" y="307.584" style="stroke: #000000; stroke-width: 0.8"/>
      </g>
     </g>
     <g id="text_9">
      <!-- 800000 -->
      <g transform="translate(379.399853 322.182437) scale(0.1 -0.1)">
       <defs>
        <path id="DejaVuSans-38" d="M 2034 2216 
Q 1584 2216 1326 1975 
Q 1069 1734 1069 1313 
Q 1069 891 1326 650 
Q 1584 409 2034 409 
Q 2484 409 2743 651 
Q 3003 894 3003 1313 
Q 3003 1734 2745 1975 
Q 2488 2216 2034 2216 
z
M 1403 2484 
Q 997 2584 770 2862 
Q 544 3141 544 3541 
Q 544 4100 942 4425 
Q 1341 4750 2034 4750 
Q 2731 4750 3128 4425 
Q 3525 4100 3525 3541 
Q 3525 3141 3298 2862 
Q 3072 2584 2669 2484 
Q 3125 2378 3379 2068 
Q 3634 1759 3634 1313 
Q 3634 634 3220 271 
Q 2806 -91 2034 -91 
Q 1263 -91 848 271 
Q 434 634 434 1313 
Q 434 1759 690 2068 
Q 947 2378 1403 2484 
z
M 1172 3481 
Q 1172 3119 1398 2916 
Q 1625 2713 2034 2713 
Q 2441 2713 2670 2916 
Q 2900 3119 2900 3481 
Q 2900 3844 2670 4047 
Q 2441 4250 2034 4250 
Q 1625 4250 1398 4047 
Q 1172 3844 1172 3481 
z
" transform="scale(0.015625)"/>
       </defs>
       <use xlink:href="#DejaVuSans-38"/>
       <use xlink:href="#DejaVuSans-30" x="63.623047"/>
       <use xlink:href="#DejaVuSans-30" x="127.246094"/>
       <use xlink:href="#DejaVuSans-30" x="190.869141"/>
       <use xlink:href="#DejaVuSans-30" x="254.492188"/>
       <use xlink:href="#DejaVuSans-30" x="318.115234"/>
      </g>
     </g>
    </g>
    <g id="text_10">
     <!-- TimePoint -->
     <g transform="translate(211.515469 335.860562) scale(0.1 -0.1)">
      <defs>
       <path id="DejaVuSans-54" d="M -19 4666 
L 3928 4666 
L 3928 4134 
L 2272 4134 
L 2272 0 
L 1638 0 
L 1638 4134 
L -19 4134 
L -19 4666 
z
" transform="scale(0.015625)"/>
       <path id="DejaVuSans-69" d="M 603 3500 
L 1178 3500 
L 1178 0 
L 603 0 
L 603 3500 
z
M 603 4863 
L 1178 4863 
L 1178 4134 
L 603 4134 
L 603 4863 
z
" transform="scale(0.015625)"/>
       <path id="DejaVuSans-6d" d="M 3328 2828 
Q 3544 3216 3844 3400 
Q 4144 3584 4550 3584 
Q 5097 3584 5394 3201 
Q 5691 2819 5691 2113 
L 5691 0 
L 5113 0 
L 5113 2094 
Q 5113 2597 4934 2840 
Q 4756 3084 4391 3084 
Q 3944 3084 3684 2787 
Q 3425 2491 3425 1978 
L 3425 0 
L 2847 0 
L 2847 2094 
Q 2847 2600 2669 2842 
Q 2491 3084 2119 3084 
Q 1678 3084 1418 2786 
Q 1159 2488 1159 1978 
L 1159 0 
L 581 0 
L 581 3500 
L 1159 3500 
L 1159 2956 
Q 1356 3278 1631 3431 
Q 1906 3584 2284 3584 
Q 2666 3584 2933 3390 
Q 3200 3197 3328 2828 
z
" transform="scale(0.015625)"/>
       <path id="DejaVuSans-65" d="M 3597 1894 
L 3597 1613 
L 953 1613 
Q 991 1019 1311 708 
Q 1631 397 2203 397 
Q 2534 397 2845 478 
Q 3156 559 3463 722 
L 3463 178 
Q 3153 47 2828 -22 
Q 2503 -91 2169 -91 
Q 1331 -91 842 396 
Q 353 884 353 1716 
Q 353 2575 817 3079 
Q 1281 3584 2069 3584 
Q 2775 3584 3186 3129 
Q 3597 2675 3597 1894 
z
M 3022 2063 
Q 3016 2534 2758 2815 
Q 2500 3097 2075 3097 
Q 1594 3097 1305 2825 
Q 1016 2553 972 2059 
L 3022 2063 
z
" transform="scale(0.015625)"/>
       <path id="DejaVuSans-50" d="M 1259 4147 
L 1259 2394 
L 2053 2394 
Q 2494 2394 2734 2622 
Q 2975 2850 2975 3272 
Q 2975 3691 2734 3919 
Q 2494 4147 2053 4147 
L 1259 4147 
z
M 628 4666 
L 2053 4666 
Q 2838 4666 3239 4311 
Q 3641 3956 3641 3272 
Q 3641 2581 3239 2228 
Q 2838 1875 2053 1875 
L 1259 1875 
L 1259 0 
L 628 0 
L 628 4666 
z
" transform="scale(0.015625)"/>
       <path id="DejaVuSans-6f" d="M 1959 3097 
Q 1497 3097 1228 2736 
Q 959 2375 959 1747 
Q 959 1119 1226 758 
Q 1494 397 1959 397 
Q 2419 397 2687 759 
Q 2956 1122 2956 1747 
Q 2956 2369 2687 2733 
Q 2419 3097 1959 3097 
z
M 1959 3584 
Q 2709 3584 3137 3096 
Q 3566 2609 3566 1747 
Q 3566 888 3137 398 
Q 2709 -91 1959 -91 
Q 1206 -91 779 398 
Q 353 888 353 1747 
Q 353 2609 779 3096 
Q 1206 3584 1959 3584 
z
" transform="scale(0.015625)"/>
       <path id="DejaVuSans-6e" d="M 3513 2113 
L 3513 0 
L 2938 0 
L 2938 2094 
Q 2938 2591 2744 2837 
Q 2550 3084 2163 3084 
Q 1697 3084 1428 2787 
Q 1159 2491 1159 1978 
L 1159 0 
L 581 0 
L 581 3500 
L 1159 3500 
L 1159 2956 
Q 1366 3272 1645 3428 
Q 1925 3584 2291 3584 
Q 2894 3584 3203 3211 
Q 3513 2838 3513 2113 
z
" transform="scale(0.015625)"/>
       <path id="DejaVuSans-74" d="M 1172 4494 
L 1172 3500 
L 2356 3500 
L 2356 3053 
L 1172 3053 
L 1172 1153 
Q 1172 725 1289 603 
Q 1406 481 1766 481 
L 2356 481 
L 2356 0 
L 1766 0 
Q 1100 0 847 248 
Q 594 497 594 1153 
L 594 3053 
L 172 3053 
L 172 3500 
L 594 3500 
L 594 4494 
L 1172 4494 
z
" transform="scale(0.015625)"/>
      </defs>
      <use xlink:href="#DejaVuSans-54"/>
      <use xlink:href="#DejaVuSans-69" x="57.958984"/>
      <use xlink:href="#DejaVuSans-6d" x="85.742188"/>
      <use xlink:href="#DejaVuSans-65" x="183.154297"/>
      <use xlink:href="#DejaVuSans-50" x="244.677734"/>
      <use xlink:href="#DejaVuSans-6f" x="301.355469"/>
      <use xlink:href="#DejaVuSans-69" x="362.537109"/>
      <use xlink:href="#DejaVuSans-6e" x="390.320312"/>
      <use xlink:href="#DejaVuSans-74" x="453.699219"/>
     </g>
    </g>
   </g>
   <g id="matplotlib.axis_2">
    <g id="ytick_1">
     <g id="line2d_19">
      <path d="M 57.6 295.488 
L 414.72 295.488 
" clip-path="url(#pd4a49dd858)" style="fill: none; stroke: #b0b0b0; stroke-width: 0.8; stroke-linecap: square"/>
     </g>
     <g id="line2d_20">
      <defs>
       <path id="mb5bb950a29" d="M 0 0 
L -3.5 0 
" style="stroke: #000000; stroke-width: 0.8"/>
      </defs>
      <g>
       <use xlink:href="#mb5bb950a29" x="57.6" y="295.488" style="stroke: #000000; stroke-width: 0.8"/>
      </g>
     </g>
     <g id="text_11">
      <!-- 0.0000 -->
      <g transform="translate(15.609375 299.287219) scale(0.1 -0.1)">
       <defs>
        <path id="DejaVuSans-2e" d="M 684 794 
L 1344 794 
L 1344 0 
L 684 0 
L 684 794 
z
" transform="scale(0.015625)"/>
       </defs>
       <use xlink:href="#DejaVuSans-30"/>
       <use xlink:href="#DejaVuSans-2e" x="63.623047"/>
       <use xlink:href="#DejaVuSans-30" x="95.410156"/>
       <use xlink:href="#DejaVuSans-30" x="159.033203"/>
       <use xlink:href="#DejaVuSans-30" x="222.65625"/>
       <use xlink:href="#DejaVuSans-30" x="286.279297"/>
      </g>
     </g>
    </g>
    <g id="ytick_2">
     <g id="line2d_21">
      <path d="M 57.6 254.398477 
L 414.72 254.398477 
" clip-path="url(#pd4a49dd858)" style="fill: none; stroke: #b0b0b0; stroke-width: 0.8; stroke-linecap: square"/>
     </g>
     <g id="line2d_22">
      <g>
       <use xlink:href="#mb5bb950a29" x="57.6" y="254.398477" style="stroke: #000000; stroke-width: 0.8"/>
      </g>
     </g>
     <g id="text_12">
      <!-- 0.0001 -->
      <g transform="translate(15.609375 258.197696) scale(0.1 -0.1)">
       <use xlink:href="#DejaVuSans-30"/>
       <use xlink:href="#DejaVuSans-2e" x="63.623047"/>
       <use xlink:href="#DejaVuSans-30" x="95.410156"/>
       <use xlink:href="#DejaVuSans-30" x="159.033203"/>
       <use xlink:href="#DejaVuSans-30" x="222.65625"/>
       <use xlink:href="#DejaVuSans-31" x="286.279297"/>
      </g>
     </g>
    </g>
    <g id="ytick_3">
     <g id="line2d_23">
      <path d="M 57.6 213.308954 
L 414.72 213.308954 
" clip-path="url(#pd4a49dd858)" style="fill: none; stroke: #b0b0b0; stroke-width: 0.8; stroke-linecap: square"/>
     </g>
     <g id="line2d_24">
      <g>
       <use xlink:href="#mb5bb950a29" x="57.6" y="213.308954" style="stroke: #000000; stroke-width: 0.8"/>
      </g>
     </g>
     <g id="text_13">
      <!-- 0.0002 -->
      <g transform="translate(15.609375 217.108173) scale(0.1 -0.1)">
       <use xlink:href="#DejaVuSans-30"/>
       <use xlink:href="#DejaVuSans-2e" x="63.623047"/>
       <use xlink:href="#DejaVuSans-30" x="95.410156"/>
       <use xlink:href="#DejaVuSans-30" x="159.033203"/>
       <use xlink:href="#DejaVuSans-30" x="222.65625"/>
       <use xlink:href="#DejaVuSans-32" x="286.279297"/>
      </g>
     </g>
    </g>
    <g id="ytick_4">
     <g id="line2d_25">
      <path d="M 57.6 172.219431 
L 414.72 172.219431 
" clip-path="url(#pd4a49dd858)" style="fill: none; stroke: #b0b0b0; stroke-width: 0.8; stroke-linecap: square"/>
     </g>
     <g id="line2d_26">
      <g>
       <use xlink:href="#mb5bb950a29" x="57.6" y="172.219431" style="stroke: #000000; stroke-width: 0.8"/>
      </g>
     </g>
     <g id="text_14">
      <!-- 0.0003 -->
      <g transform="translate(15.609375 176.01865) scale(0.1 -0.1)">
       <use xlink:href="#DejaVuSans-30"/>
       <use xlink:href="#DejaVuSans-2e" x="63.623047"/>
       <use xlink:href="#DejaVuSans-30" x="95.410156"/>
       <use xlink:href="#DejaVuSans-30" x="159.033203"/>
       <use xlink:href="#DejaVuSans-30" x="222.65625"/>
       <use xlink:href="#DejaVuSans-33" x="286.279297"/>
      </g>
     </g>
    </g>
    <g id="ytick_5">
     <g id="line2d_27">
      <path d="M 57.6 131.129908 
L 414.72 131.129908 
" clip-path="url(#pd4a49dd858)" style="fill: none; stroke: #b0b0b0; stroke-width: 0.8; stroke-linecap: square"/>
     </g>
     <g id="line2d_28">
      <g>
       <use xlink:href="#mb5bb950a29" x="57.6" y="131.129908" style="stroke: #000000; stroke-width: 0.8"/>
      </g>
     </g>
     <g id="text_15">
      <!-- 0.0004 -->
      <g transform="translate(15.609375 134.929127) scale(0.1 -0.1)">
       <use xlink:href="#DejaVuSans-30"/>
       <use xlink:href="#DejaVuSans-2e" x="63.623047"/>
       <use xlink:href="#DejaVuSans-30" x="95.410156"/>
       <use xlink:href="#DejaVuSans-30" x="159.033203"/>
       <use xlink:href="#DejaVuSans-30" x="222.65625"/>
       <use xlink:href="#DejaVuSans-34" x="286.279297"/>
      </g>
     </g>
    </g>
    <g id="ytick_6">
     <g id="line2d_29">
      <path d="M 57.6 90.040385 
L 414.72 90.040385 
" clip-path="url(#pd4a49dd858)" style="fill: none; stroke: #b0b0b0; stroke-width: 0.8; stroke-linecap: square"/>
     </g>
     <g id="line2d_30">
      <g>
       <use xlink:href="#mb5bb950a29" x="57.6" y="90.040385" style="stroke: #000000; stroke-width: 0.8"/>
      </g>
     </g>
     <g id="text_16">
      <!-- 0.0005 -->
      <g transform="translate(15.609375 93.839604) scale(0.1 -0.1)">
       <use xlink:href="#DejaVuSans-30"/>
       <use xlink:href="#DejaVuSans-2e" x="63.623047"/>
       <use xlink:href="#DejaVuSans-30" x="95.410156"/>
       <use xlink:href="#DejaVuSans-30" x="159.033203"/>
       <use xlink:href="#DejaVuSans-30" x="222.65625"/>
       <use xlink:href="#DejaVuSans-35" x="286.279297"/>
      </g>
     </g>
    </g>
    <g id="ytick_7">
     <g id="line2d_31">
      <path d="M 57.6 48.950862 
L 414.72 48.950862 
" clip-path="url(#pd4a49dd858)" style="fill: none; stroke: #b0b0b0; stroke-width: 0.8; stroke-linecap: square"/>
     </g>
     <g id="line2d_32">
      <g>
       <use xlink:href="#mb5bb950a29" x="57.6" y="48.950862" style="stroke: #000000; stroke-width: 0.8"/>
      </g>
     </g>
     <g id="text_17">
      <!-- 0.0006 -->
      <g transform="translate(15.609375 52.750081) scale(0.1 -0.1)">
       <use xlink:href="#DejaVuSans-30"/>
       <use xlink:href="#DejaVuSans-2e" x="63.623047"/>
       <use xlink:href="#DejaVuSans-30" x="95.410156"/>
       <use xlink:href="#DejaVuSans-30" x="159.033203"/>
       <use xlink:href="#DejaVuSans-30" x="222.65625"/>
       <use xlink:href="#DejaVuSans-36" x="286.279297"/>
      </g>
     </g>
    </g>
    <g id="text_18">
     <!-- diskLoadStdDev -->
     <g transform="translate(9.529687 214.781906) rotate(-90) scale(0.1 -0.1)">
      <defs>
       <path id="DejaVuSans-64" d="M 2906 2969 
L 2906 4863 
L 3481 4863 
L 3481 0 
L 2906 0 
L 2906 525 
Q 2725 213 2448 61 
Q 2172 -91 1784 -91 
Q 1150 -91 751 415 
Q 353 922 353 1747 
Q 353 2572 751 3078 
Q 1150 3584 1784 3584 
Q 2172 3584 2448 3432 
Q 2725 3281 2906 2969 
z
M 947 1747 
Q 947 1113 1208 752 
Q 1469 391 1925 391 
Q 2381 391 2643 752 
Q 2906 1113 2906 1747 
Q 2906 2381 2643 2742 
Q 2381 3103 1925 3103 
Q 1469 3103 1208 2742 
Q 947 2381 947 1747 
z
" transform="scale(0.015625)"/>
       <path id="DejaVuSans-73" d="M 2834 3397 
L 2834 2853 
Q 2591 2978 2328 3040 
Q 2066 3103 1784 3103 
Q 1356 3103 1142 2972 
Q 928 2841 928 2578 
Q 928 2378 1081 2264 
Q 1234 2150 1697 2047 
L 1894 2003 
Q 2506 1872 2764 1633 
Q 3022 1394 3022 966 
Q 3022 478 2636 193 
Q 2250 -91 1575 -91 
Q 1294 -91 989 -36 
Q 684 19 347 128 
L 347 722 
Q 666 556 975 473 
Q 1284 391 1588 391 
Q 1994 391 2212 530 
Q 2431 669 2431 922 
Q 2431 1156 2273 1281 
Q 2116 1406 1581 1522 
L 1381 1569 
Q 847 1681 609 1914 
Q 372 2147 372 2553 
Q 372 3047 722 3315 
Q 1072 3584 1716 3584 
Q 2034 3584 2315 3537 
Q 2597 3491 2834 3397 
z
" transform="scale(0.015625)"/>
       <path id="DejaVuSans-6b" d="M 581 4863 
L 1159 4863 
L 1159 1991 
L 2875 3500 
L 3609 3500 
L 1753 1863 
L 3688 0 
L 2938 0 
L 1159 1709 
L 1159 0 
L 581 0 
L 581 4863 
z
" transform="scale(0.015625)"/>
       <path id="DejaVuSans-4c" d="M 628 4666 
L 1259 4666 
L 1259 531 
L 3531 531 
L 3531 0 
L 628 0 
L 628 4666 
z
" transform="scale(0.015625)"/>
       <path id="DejaVuSans-61" d="M 2194 1759 
Q 1497 1759 1228 1600 
Q 959 1441 959 1056 
Q 959 750 1161 570 
Q 1363 391 1709 391 
Q 2188 391 2477 730 
Q 2766 1069 2766 1631 
L 2766 1759 
L 2194 1759 
z
M 3341 1997 
L 3341 0 
L 2766 0 
L 2766 531 
Q 2569 213 2275 61 
Q 1981 -91 1556 -91 
Q 1019 -91 701 211 
Q 384 513 384 1019 
Q 384 1609 779 1909 
Q 1175 2209 1959 2209 
L 2766 2209 
L 2766 2266 
Q 2766 2663 2505 2880 
Q 2244 3097 1772 3097 
Q 1472 3097 1187 3025 
Q 903 2953 641 2809 
L 641 3341 
Q 956 3463 1253 3523 
Q 1550 3584 1831 3584 
Q 2591 3584 2966 3190 
Q 3341 2797 3341 1997 
z
" transform="scale(0.015625)"/>
       <path id="DejaVuSans-53" d="M 3425 4513 
L 3425 3897 
Q 3066 4069 2747 4153 
Q 2428 4238 2131 4238 
Q 1616 4238 1336 4038 
Q 1056 3838 1056 3469 
Q 1056 3159 1242 3001 
Q 1428 2844 1947 2747 
L 2328 2669 
Q 3034 2534 3370 2195 
Q 3706 1856 3706 1288 
Q 3706 609 3251 259 
Q 2797 -91 1919 -91 
Q 1588 -91 1214 -16 
Q 841 59 441 206 
L 441 856 
Q 825 641 1194 531 
Q 1563 422 1919 422 
Q 2459 422 2753 634 
Q 3047 847 3047 1241 
Q 3047 1584 2836 1778 
Q 2625 1972 2144 2069 
L 1759 2144 
Q 1053 2284 737 2584 
Q 422 2884 422 3419 
Q 422 4038 858 4394 
Q 1294 4750 2059 4750 
Q 2388 4750 2728 4690 
Q 3069 4631 3425 4513 
z
" transform="scale(0.015625)"/>
       <path id="DejaVuSans-44" d="M 1259 4147 
L 1259 519 
L 2022 519 
Q 2988 519 3436 956 
Q 3884 1394 3884 2338 
Q 3884 3275 3436 3711 
Q 2988 4147 2022 4147 
L 1259 4147 
z
M 628 4666 
L 1925 4666 
Q 3281 4666 3915 4102 
Q 4550 3538 4550 2338 
Q 4550 1131 3912 565 
Q 3275 0 1925 0 
L 628 0 
L 628 4666 
z
" transform="scale(0.015625)"/>
       <path id="DejaVuSans-76" d="M 191 3500 
L 800 3500 
L 1894 563 
L 2988 3500 
L 3597 3500 
L 2284 0 
L 1503 0 
L 191 3500 
z
" transform="scale(0.015625)"/>
      </defs>
      <use xlink:href="#DejaVuSans-64"/>
      <use xlink:href="#DejaVuSans-69" x="63.476562"/>
      <use xlink:href="#DejaVuSans-73" x="91.259766"/>
      <use xlink:href="#DejaVuSans-6b" x="143.359375"/>
      <use xlink:href="#DejaVuSans-4c" x="201.269531"/>
      <use xlink:href="#DejaVuSans-6f" x="255.232422"/>
      <use xlink:href="#DejaVuSans-61" x="316.414062"/>
      <use xlink:href="#DejaVuSans-64" x="377.693359"/>
      <use xlink:href="#DejaVuSans-53" x="441.169922"/>
      <use xlink:href="#DejaVuSans-74" x="504.646484"/>
      <use xlink:href="#DejaVuSans-64" x="543.855469"/>
      <use xlink:href="#DejaVuSans-44" x="607.332031"/>
      <use xlink:href="#DejaVuSans-65" x="684.333984"/>
      <use xlink:href="#DejaVuSans-76" x="745.857422"/>
     </g>
    </g>
   </g>
   <g id="line2d_33">
    <path d="M 73.832727 295.488 
L 73.8383 295.488 
L 73.8383 295.488 
L 73.845724 155.9111 
L 73.949197 177.864975 
L 74.000408 184.9749 
L 74.093831 183.783347 
L 74.140943 183.679897 
L 74.1935 186.484893 
L 74.314028 195.820736 
L 74.534793 210.426657 
L 74.538464 210.527013 
L 74.675169 215.251997 
L 74.677641 215.33034 
L 74.677641 215.33034 
L 74.788589 219.53042 
L 74.792488 219.64055 
L 74.792488 219.64055 
L 74.902187 223.4364 
L 74.906748 223.52754 
L 75.017639 226.471103 
L 75.023178 226.569324 
L 75.023178 226.570203 
L 75.136643 228.892852 
L 75.446006 233.654425 
L 75.454224 233.745648 
L 75.568969 234.881785 
L 75.578558 234.958449 
L 75.578558 234.963288 
L 75.705579 236.008893 
L 75.723734 236.116429 
L 75.834082 236.791459 
L 76.524955 239.741425 
L 76.636204 240.174686 
L 76.670939 240.285772 
L 76.670939 240.285772 
L 76.781809 240.611044 
L 76.812736 240.719573 
L 76.971113 241.386028 
L 76.99474 241.490725 
L 76.99474 241.49515 
L 77.115337 242.073015 
L 77.226217 242.522424 
L 77.254993 242.630773 
L 77.254993 242.630773 
L 77.365552 243.11313 
L 77.393853 243.222372 
L 77.504651 243.695725 
L 77.52733 243.800807 
L 77.655859 244.395233 
L 77.679096 244.505367 
L 77.790512 245.065735 
L 79.889971 253.304627 
L 79.9269 253.414749 
L 79.9269 253.414779 
L 80.038107 253.755249 
L 80.07543 253.866167 
L 80.07543 253.866167 
L 80.185606 254.1981 
L 80.222336 254.304099 
L 80.222336 254.304245 
L 80.336371 254.637973 
L 80.374924 254.747535 
L 80.374924 254.748806 
L 80.697144 255.564976 
L 80.745436 255.674545 
L 80.745436 255.674545 
L 80.856035 255.926141 
L 80.906952 256.032454 
L 80.906952 256.033358 
L 81.049937 256.341377 
L 81.135021 256.529041 
L 81.413819 257.170735 
L 81.462517 257.276913 
L 81.462517 257.279939 
L 81.767692 257.929308 
L 81.907835 258.212727 
L 81.964825 258.322995 
L 82.091101 258.575241 
L 82.147234 258.686015 
L 82.257066 258.905846 
L 82.409291 259.20155 
L 82.409291 259.20155 
L 82.519123 259.416272 
L 82.578058 259.527121 
L 85.401362 263.761854 
L 85.495105 263.872669 
L 85.608922 264.003992 
L 85.704945 264.113673 
L 85.816135 264.242617 
L 85.911583 264.352446 
L 86.045982 264.501808 
L 86.148751 264.61147 
L 86.260162 264.73369 
L 86.366652 264.84462 
L 86.921567 265.41487 
L 87.031967 265.525921 
L 87.031967 265.525921 
L 87.142726 265.636754 
L 87.255979 265.747344 
L 87.255979 265.747344 
L 87.36708 265.855839 
L 87.526785 266.007018 
L 87.637413 266.111204 
L 87.760219 266.22165 
L 87.96332 266.403836 
L 88.094861 266.514779 
L 88.205403 266.609476 
L 88.334644 266.719622 
L 88.334644 266.719622 
L 88.445026 266.815163 
L 88.575294 266.924561 
L 88.575294 266.925377 
L 89.030045 267.284503 
L 89.184427 267.395026 
L 89.184427 267.395162 
L 89.314512 267.488848 
L 90.668099 268.487276 
L 90.829209 268.5972 
L 90.829209 268.597429 
L 90.980363 268.698936 
L 91.152851 268.809469 
L 91.152851 268.809808 
L 98.065517 272.705092 
L 98.315428 272.816164 
L 98.529346 272.909511 
L 99.053447 273.13467 
L 99.16462 273.181198 
L 100.033167 273.524178 
L 100.033167 273.524178 
L 100.143247 273.567312 
L 100.444887 273.678387 
L 100.554238 273.718938 
L 100.861442 273.829802 
L 100.861442 273.829802 
L 100.971825 273.869527 
L 101.290798 273.98054 
L 101.290798 273.98054 
L 101.401586 274.020026 
L 102.80166 274.512285 
L 102.80166 274.512285 
L 102.912448 274.550543 
L 103.294729 274.681255 
L 103.294729 274.681255 
L 103.405782 274.719276 
L 103.740324 274.830348 
L 103.854992 274.868492 
L 104.194298 274.979567 
L 104.846172 275.182862 
L 104.846172 275.182862 
L 104.956798 275.217233 
L 105.322649 275.328277 
L 105.44516 275.365411 
L 106.071743 275.551077 
L 106.071743 275.551077 
L 106.182853 275.583534 
L 106.569682 275.694639 
L 106.569682 275.694639 
L 106.680555 275.726554 
L 107.0728 275.837167 
L 107.18424 275.868576 
L 107.588286 275.979541 
L 107.588286 275.979682 
L 108.224203 276.150871 
L 108.224203 276.150871 
L 108.334992 276.180639 
L 108.941443 276.339261 
L 109.052302 276.368233 
L 110.395044 276.706884 
L 110.853357 276.817849 
L 110.964439 276.844694 
L 111.427398 276.95577 
L 111.538256 276.982763 
L 112.006444 277.093816 
L 112.197777 277.139072 
L 113.029286 277.332195 
L 113.14032 277.357669 
L 113.636602 277.468723 
L 113.636602 277.468723 
L 113.747686 277.493204 
L 114.295473 277.612218 
L 115.025282 277.765618 
L 115.443711 277.85214 
L 115.991311 277.963035 
L 116.652238 278.095031 
L 117.233369 278.20599 
L 117.233369 278.206024 
L 117.431814 278.242924 
L 125.02224 279.47192 
L 125.75598 279.582977 
L 126.058935 279.628262 
L 126.808732 279.739286 
L 126.919516 279.755758 
L 127.68848 279.866817 
L 127.801498 279.883115 
L 128.586136 279.994172 
L 128.586136 279.994172 
L 128.696518 280.009807 
L 129.501115 280.120914 
L 129.611968 280.136102 
L 130.452307 280.247158 
L 130.563282 280.261618 
L 132.03478 280.44811 
L 132.03478 280.44811 
L 132.144775 280.4622 
L 133.396303 280.615787 
L 133.551668 280.634592 
L 134.564947 280.754358 
L 134.67477 280.767295 
L 135.63804 280.878364 
L 135.63804 280.878364 
L 135.748771 280.89114 
L 136.727888 281.002249 
L 140.782598 281.43494 
L 141.860452 281.545956 
L 141.860452 281.546032 
L 147.780876 282.106116 
L 149.101945 282.217214 
L 149.218343 282.226859 
L 151.413795 282.402476 
L 152.871113 282.513499 
L 152.871113 282.513499 
L 152.981734 282.521883 
L 154.496908 282.632972 
L 154.608016 282.641049 
L 156.240217 282.75206 
L 156.240217 282.752086 
L 156.79255 282.78983 
L 162.249801 283.136204 
L 186.543885 284.382734 
L 188.937105 284.493831 
L 189.047515 284.499066 
L 192.159592 284.641488 
L 193.547092 284.703472 
L 196.070263 284.814531 
L 196.46098 284.831472 
L 199.06622 284.942575 
L 199.06622 284.942582 
L 200.168029 284.988674 
L 202.886593 285.099782 
L 202.886593 285.099783 
L 203.24705 285.114255 
L 207.226316 285.27003 
L 207.339334 285.274379 
L 210.304952 285.385658 
L 212.172912 285.454042 
L 215.308095 285.565131 
L 215.421103 285.569054 
L 218.674954 285.680126 
L 218.674954 285.680126 
L 218.785902 285.683837 
L 222.17584 285.794937 
L 226.528349 285.933912 
L 230.718017 286.061537 
L 238.148956 286.274409 
L 240.068606 286.326837 
L 245.772008 286.478111 
L 245.986164 286.483645 
L 250.388983 286.594752 
L 250.50167 286.597553 
L 255.108102 286.708649 
L 255.108102 286.708658 
L 356.17552 288.327355 
L 366.918343 288.438466 
L 366.918343 288.438466 
L 367.029385 288.439533 
L 378.568206 288.550635 
L 378.70777 288.552011 
L 398.487273 288.731703 
L 398.487273 288.731703 
" clip-path="url(#pd4a49dd858)" style="fill: none; stroke: #1f77b4; stroke-width: 1.5; stroke-linecap: square"/>
   </g>
   <g id="line2d_34">
    <path d="M 73.832727 295.488 
L 73.84206 295.488 
L 73.84206 295.488 
L 73.868379 106.61861 
L 73.953143 135.172397 
L 74.014128 163.162999 
L 74.014128 163.162999 
L 74.124511 183.005973 
L 74.283562 190.41499 
L 74.284809 190.500768 
L 74.284809 190.500768 
L 74.395199 197.973176 
L 74.396815 198.028547 
L 74.396815 198.028547 
L 74.507603 204.189006 
L 74.545789 206.100577 
L 74.65706 211.622463 
L 74.659379 211.713464 
L 74.659379 211.713464 
L 74.769947 216.122973 
L 74.773295 216.208583 
L 74.88457 219.789441 
L 74.889541 219.895266 
L 75.058021 223.855734 
L 75.741257 235.755638 
L 75.749813 235.866595 
L 75.749813 235.866595 
L 75.860601 237.346365 
L 75.867906 237.431543 
L 75.867906 237.450855 
L 76.827557 247.560604 
L 76.84187 247.669604 
L 76.84187 247.669604 
L 76.952812 248.511421 
L 76.967674 248.617298 
L 76.967674 248.6193 
L 77.157596 249.938916 
L 77.178699 250.059842 
L 77.178699 250.059842 
L 77.289487 250.77267 
L 77.347114 251.12121 
L 77.347114 251.12121 
L 77.457996 251.774013 
L 77.476975 251.879749 
L 77.476975 251.883335 
L 77.754847 253.327889 
L 77.776323 253.435054 
L 77.886709 253.978228 
L 77.915042 254.108955 
L 78.174171 255.229718 
L 78.174171 255.229718 
L 78.284931 255.689869 
L 78.312141 255.799979 
L 78.424155 256.249265 
L 78.452277 256.358025 
L 78.564709 256.796934 
L 80.266299 262.204554 
L 80.309587 262.31272 
L 80.309587 262.312886 
L 80.42544 262.602049 
L 80.469949 262.712811 
L 80.794631 263.484282 
L 80.91273 263.754036 
L 80.96336 263.863763 
L 80.96336 263.864129 
L 81.117165 264.199457 
L 81.171524 264.309927 
L 82.390335 266.562946 
L 82.464073 266.677174 
L 82.574865 266.851977 
L 82.647046 266.962443 
L 82.772904 267.150858 
L 82.772904 267.150858 
L 82.883779 267.316697 
L 82.958922 267.427679 
L 83.045614 267.551513 
L 84.06006 268.903201 
L 84.211936 269.083535 
L 84.741529 269.681465 
L 84.843389 269.79096 
L 84.843389 269.792348 
L 85.034308 269.991445 
L 85.146129 270.107836 
L 87.518543 272.285807 
L 87.652057 272.396053 
L 87.652057 272.396053 
L 87.763021 272.489956 
L 87.900615 272.600837 
L 88.062348 272.732556 
L 88.203812 272.842489 
L 88.314886 272.929577 
L 88.460041 273.040523 
L 88.460041 273.040544 
L 88.579758 273.131615 
L 88.729911 273.242432 
L 88.729911 273.242432 
L 88.839482 273.324097 
L 89.065522 273.486018 
L 89.065522 273.486018 
L 89.176319 273.565032 
L 89.794372 273.990122 
L 89.998233 274.123912 
L 90.110763 274.197769 
L 90.283789 274.308166 
L 90.283789 274.308359 
L 90.469678 274.425687 
L 90.649686 274.536435 
L 90.761385 274.604939 
L 90.934564 274.710647 
L 92.102393 275.373275 
L 92.213861 275.433462 
L 92.423395 275.544477 
L 92.535269 275.603215 
L 92.750014 275.713678 
L 92.860735 275.770355 
L 93.08637 275.881324 
L 93.08637 275.881324 
L 93.197223 275.935603 
L 93.430098 276.04669 
L 93.430098 276.04669 
L 93.540491 276.099252 
L 93.779507 276.21033 
L 93.779507 276.21033 
L 93.890359 276.261724 
L 94.133028 276.372513 
L 94.244169 276.423672 
L 94.487992 276.534471 
L 94.59927 276.585357 
L 94.852897 276.698607 
L 95.355706 276.918115 
L 95.355706 276.918115 
L 95.466494 276.966025 
L 95.841876 277.123717 
L 95.841876 277.123717 
L 95.952609 277.170424 
L 96.224157 277.281133 
L 96.224157 277.281133 
L 96.334539 277.326143 
L 96.946919 277.567612 
L 96.946919 277.567612 
L 97.057932 277.610958 
L 97.540363 277.79252 
L 97.779473 277.880737 
L 102.513152 279.396646 
L 102.919753 279.508914 
L 102.919753 279.508914 
L 103.030338 279.539188 
L 103.443664 279.650224 
L 103.443664 279.650224 
L 103.554452 279.67994 
L 103.978127 279.790773 
L 103.978127 279.790851 
L 104.218777 279.853216 
L 104.658278 279.964317 
L 104.658278 279.964317 
L 104.768734 279.992261 
L 105.218713 280.1031 
L 105.218713 280.103321 
L 105.934171 280.274845 
L 105.934171 280.274845 
L 106.044221 280.301093 
L 107.580981 280.648853 
L 107.580981 280.648853 
L 107.691992 280.673165 
L 108.483478 280.841528 
L 108.595121 280.865267 
L 109.280954 281.006142 
L 109.280954 281.006142 
L 109.391188 281.02865 
L 109.949337 281.139729 
L 109.949337 281.139729 
L 110.060075 281.161798 
L 120.063779 282.796236 
L 120.890633 282.907266 
L 121.287239 282.959814 
L 122.143771 283.070775 
L 122.143771 283.070838 
L 122.595551 283.12853 
L 123.489711 283.239628 
L 126.956551 283.643337 
L 127.068098 283.655807 
L 128.094402 283.766875 
L 128.340923 283.793147 
L 129.406295 283.904228 
L 129.406295 283.904237 
L 129.530995 283.917123 
L 130.639088 284.028191 
L 130.751678 284.039283 
L 138.534166 284.72688 
L 139.970713 284.837899 
L 140.082613 284.846463 
L 141.72572 284.970393 
L 141.72572 284.970393 
L 141.836731 284.978731 
L 143.355539 285.089807 
L 143.468208 285.097958 
L 144.817289 285.19332 
L 146.397921 285.304427 
L 148.129533 285.421362 
L 148.129533 285.421362 
L 148.240154 285.42881 
L 149.920003 285.539828 
L 149.920003 285.539828 
L 150.030437 285.547054 
L 151.768424 285.658165 
L 154.169459 285.806065 
L 154.717554 285.838988 
L 156.614787 285.950055 
L 156.614787 285.950077 
L 157.340561 285.991604 
L 159.330394 286.102713 
L 159.494354 286.111816 
L 161.568611 286.222872 
L 161.568611 286.222925 
L 165.806571 286.431377 
L 165.806571 286.431377 
L 165.917327 286.4367 
L 168.247568 286.547793 
L 168.247568 286.547811 
L 170.057963 286.631757 
L 172.528951 286.742846 
L 172.528951 286.742846 
L 172.63938 286.747722 
L 177.207763 286.940474 
L 177.376191 286.947387 
L 180.127446 287.058477 
L 181.152419 287.098777 
L 184.055814 287.209884 
L 184.055814 287.209884 
L 184.166897 287.214046 
L 184.953889 287.243421 
L 188.011324 287.354479 
L 188.011324 287.354482 
L 188.190332 287.360859 
L 191.384486 287.471949 
L 191.384486 287.471949 
L 191.495274 287.475765 
L 194.831607 287.586864 
L 195.705322 287.615262 
L 199.222866 287.726363 
L 199.222866 287.726363 
L 199.333953 287.7298 
L 199.700538 287.741103 
L 201.34749 287.791275 
L 205.117622 287.902374 
L 206.517093 287.942436 
L 210.52281 288.053538 
L 210.641781 288.056821 
L 214.837536 288.167904 
L 214.837536 288.167918 
L 220.698546 288.314897 
L 231.086094 288.555215 
L 234.272778 288.623023 
L 239.637617 288.734121 
L 239.637617 288.734131 
L 245.122748 288.843125 
L 251.022378 288.954232 
L 268.275774 289.240951 
L 293.876145 289.572877 
L 304.15327 289.683982 
L 304.15327 289.683983 
L 304.393094 289.686777 
L 314.288787 289.797882 
L 329.398966 289.957654 
L 371.444831 290.35126 
L 385.54662 290.462368 
L 385.54662 290.462368 
L 385.657302 290.463205 
L 398.486542 290.55743 
L 398.486542 290.55743 
" clip-path="url(#pd4a49dd858)" style="fill: none; stroke: #ff7f0e; stroke-width: 1.5; stroke-linecap: square"/>
   </g>
   <g id="line2d_35">
    <path d="M 73.832727 295.488 
L 73.841822 295.488 
L 73.874261 137.223378 
L 73.95277 156.790196 
L 73.964618 155.298566 
L 74.040506 162.960249 
L 74.051463 165.084361 
L 74.051463 165.084361 
L 74.162062 180.801221 
L 74.195123 182.262228 
L 74.195123 182.262228 
L 74.305911 191.623604 
L 74.306669 191.732273 
L 74.341218 194.483987 
L 74.341218 194.483987 
L 74.451865 202.014236 
L 74.454998 202.116082 
L 74.565685 207.528346 
L 74.56895 207.599224 
L 74.679257 211.474653 
L 74.683322 211.564812 
L 74.683322 211.564812 
L 74.794363 214.768378 
L 74.985657 218.652295 
L 74.992962 218.753373 
L 74.992962 218.761838 
L 75.050979 219.765009 
L 75.184508 221.901725 
L 75.367018 224.900847 
L 75.375243 225.007884 
L 75.375243 225.007884 
L 75.486031 226.758139 
L 75.493365 226.861566 
L 75.972225 233.863545 
L 75.987562 234.060311 
L 76.098377 235.521875 
L 76.199892 236.768307 
L 76.311557 238.056525 
L 76.436457 239.360333 
L 76.567942 240.62005 
L 76.599338 240.90122 
L 76.875757 243.226732 
L 76.999929 244.157183 
L 77.015212 244.262099 
L 77.354548 246.460732 
L 77.372059 246.56569 
L 77.483531 247.224683 
L 77.519181 247.417917 
L 77.519181 247.417917 
L 77.629511 248.036283 
L 77.650666 248.146519 
L 77.650666 248.147262 
L 77.782754 248.843188 
L 77.803664 248.953938 
L 77.95376 249.705167 
L 77.976538 249.814084 
L 77.976538 249.815265 
L 78.145883 250.638047 
L 78.17 250.747618 
L 78.301314 251.346084 
L 78.559293 252.443683 
L 78.559293 252.443683 
L 78.669822 252.888113 
L 78.851888 253.591557 
L 78.891159 253.732245 
L 79.005287 254.158827 
L 79.038158 254.273753 
L 79.038158 254.273753 
L 79.148971 254.680081 
L 79.333368 255.331146 
L 79.366297 255.44103 
L 79.478471 255.818958 
L 79.513123 255.929196 
L 79.624902 256.285536 
L 79.685856 256.473308 
L 79.977816 257.334439 
L 80.016842 257.44276 
L 80.127375 257.752815 
L 80.302031 258.220592 
L 80.412665 258.512092 
L 80.457711 258.62264 
L 80.457711 258.62264 
L 80.568626 258.907673 
L 80.641998 259.085759 
L 80.917158 259.749593 
L 80.963766 259.857675 
L 80.963766 259.860114 
L 81.160396 260.310817 
L 81.384397 260.806793 
L 81.435834 260.917296 
L 81.548663 261.16072 
L 81.600901 261.270318 
L 81.600901 261.270796 
L 81.753164 261.586343 
L 81.807057 261.69597 
L 81.807057 261.69597 
L 81.91677 261.920812 
L 81.971774 262.029611 
L 82.263196 262.596982 
L 82.338273 262.733825 
L 82.338273 262.733825 
L 82.449001 262.940065 
L 82.532254 263.090711 
L 82.532254 263.090711 
L 82.642762 263.29104 
L 82.705538 263.400736 
L 82.705538 263.400736 
L 82.816466 263.594582 
L 82.880852 263.704443 
L 82.880852 263.704443 
L 82.991421 263.891994 
L 83.056571 263.999418 
L 83.056571 264.001943 
L 83.261509 264.333435 
L 83.261509 264.333435 
L 83.37188 264.510571 
L 83.442098 264.619478 
L 83.442098 264.620124 
L 83.592614 264.855718 
L 83.666017 264.966669 
L 83.8349 265.222745 
L 83.910399 265.333799 
L 84.35316 265.964116 
L 84.487999 266.148818 
L 84.62666 266.333328 
L 84.737894 266.47975 
L 84.889246 266.675581 
L 84.976903 266.786464 
L 84.976903 266.786464 
L 85.08704 266.926727 
L 85.176807 267.037196 
L 85.28738 267.175217 
L 85.378663 267.283924 
L 85.378663 267.284666 
L 85.581751 267.525684 
L 85.677192 267.636508 
L 86.668381 268.714546 
L 86.776572 268.824053 
L 86.887901 268.937052 
L 87.094463 269.142296 
L 87.300673 269.34064 
L 87.418587 269.454245 
L 87.538022 269.565226 
L 87.538022 269.565226 
L 87.648944 269.66814 
L 87.768527 269.777106 
L 87.768527 269.777644 
L 87.923683 269.918189 
L 88.065954 270.041404 
L 88.177058 270.13812 
L 88.307162 270.249208 
L 88.418141 270.343813 
L 88.552483 270.454097 
L 88.664168 270.545612 
L 89.160645 270.93278 
L 89.308837 271.043785 
L 89.421831 271.127827 
L 89.666539 271.305309 
L 89.826432 271.415655 
L 89.826432 271.415655 
L 89.936751 271.492383 
L 90.104011 271.6033 
L 90.104011 271.603473 
L 90.414462 271.806428 
L 92.464966 273.008296 
L 92.67 273.118391 
L 92.67 273.118641 
L 92.849372 273.215066 
L 93.061419 273.325401 
L 93.175356 273.384042 
L 93.394792 273.495145 
L 93.394792 273.495145 
L 93.505695 273.55156 
L 93.735455 273.662309 
L 93.847026 273.715122 
L 93.962532 273.769674 
L 94.200985 273.880685 
L 94.96435 274.230214 
L 95.213263 274.340486 
L 95.213263 274.340486 
L 95.324069 274.390064 
L 95.577282 274.501018 
L 95.577282 274.501127 
L 96.31019 274.810179 
L 96.31019 274.810179 
L 96.421197 274.855823 
L 96.697923 274.966923 
L 96.938628 275.062437 
L 100.995384 276.439772 
L 101.402398 276.560138 
L 101.402398 276.560138 
L 101.513376 276.593473 
L 101.894091 276.704571 
L 102.020869 276.740626 
L 102.419785 276.851687 
L 102.419785 276.851687 
L 102.530722 276.882048 
L 102.937586 276.993004 
L 107.1279 278.049447 
L 107.593657 278.160499 
L 107.707207 278.187541 
L 108.175077 278.298548 
L 108.286749 278.32529 
L 108.758666 278.436147 
L 108.758666 278.436147 
L 108.868643 278.461575 
L 109.365645 278.572549 
L 109.477155 278.597036 
L 109.601145 278.624027 
L 110.113754 278.735088 
L 110.223915 278.759174 
L 110.745958 278.870185 
L 110.745958 278.870185 
L 110.856658 278.894048 
L 111.381963 279.005133 
L 111.572292 279.044929 
L 112.111639 279.155924 
L 112.230631 279.180486 
L 112.781543 279.291327 
L 112.781543 279.291327 
L 112.892331 279.31379 
L 113.643907 279.459979 
L 113.643907 279.459979 
L 113.754974 279.481382 
L 114.340244 279.592148 
L 114.451181 279.61324 
L 115.04682 279.724314 
L 115.04682 279.724314 
L 115.157366 279.744765 
L 115.766742 279.855856 
L 115.878217 279.876292 
L 116.497215 279.987367 
L 116.497215 279.987367 
L 116.608259 280.007267 
L 117.244732 280.118254 
L 117.244732 280.118254 
L 117.355115 280.137666 
L 118.0097 280.248735 
L 118.0097 280.248735 
L 118.120509 280.267227 
L 120.417825 280.635914 
L 121.143428 280.747375 
L 121.143428 280.747375 
L 121.253811 280.764066 
L 127.651795 281.64853 
L 128.555294 281.759526 
L 128.555294 281.759558 
L 128.763895 281.784693 
L 129.909321 281.918977 
L 130.161428 281.948349 
L 131.132645 282.059424 
L 131.132645 282.059424 
L 131.242644 282.071979 
L 132.240735 282.183073 
L 132.352247 282.195263 
L 134.36894 282.412342 
L 134.952613 282.473769 
L 136.028437 282.584874 
L 136.028437 282.584874 
L 136.138414 282.59625 
L 137.243133 282.707326 
L 151.125732 283.892778 
L 152.653052 284.003869 
L 156.56045 284.27306 
L 158.317422 284.384159 
L 162.146482 284.612455 
L 164.060335 284.723517 
L 164.060335 284.723517 
L 164.170919 284.730098 
L 167.632211 284.929747 
L 167.744273 284.936065 
L 169.794547 285.047152 
L 169.794547 285.047152 
L 169.905396 285.053029 
L 172.06 285.16414 
L 172.06 285.16414 
L 176.687715 285.38877 
L 176.798631 285.393964 
L 179.340995 285.511958 
L 179.452618 285.517239 
L 183.474215 285.697932 
L 183.584729 285.702818 
L 191.471737 286.032624 
L 217.979381 286.906978 
L 221.89879 287.018069 
L 222.287997 287.028919 
L 226.482492 287.143748 
L 226.482492 287.143748 
L 226.59328 287.146762 
L 231.114436 287.266329 
L 231.233789 287.269455 
L 235.910462 287.386894 
L 235.910462 287.386894 
L 236.02125 287.389638 
L 240.718891 287.500736 
L 243.880354 287.573403 
L 248.846324 287.684497 
L 248.959654 287.686986 
L 254.13403 287.798097 
L 278.226758 288.262429 
L 278.47656 288.26674 
L 282.980207 288.342913 
L 290.90655 288.471863 
L 297.654988 288.577829 
L 305.035113 288.688912 
L 305.035113 288.688922 
L 309.66274 288.75552 
L 317.658903 288.866615 
L 317.658903 288.866615 
L 317.76999 288.868124 
L 326.183116 288.979229 
L 326.183116 288.979231 
L 327.892173 289.001129 
L 336.826296 289.112228 
L 336.936489 289.113576 
L 346.374604 289.224681 
L 346.374604 289.224681 
L 346.485232 289.225956 
L 356.442516 289.337057 
L 356.579717 289.338552 
L 398.486542 289.748319 
L 398.486542 289.748319 
" clip-path="url(#pd4a49dd858)" style="fill: none; stroke: #2ca02c; stroke-width: 1.5; stroke-linecap: square"/>
   </g>
   <g id="line2d_36">
    <path d="M 73.832727 295.488 
L 73.837534 295.488 
L 73.837534 295.488 
L 73.854451 76.317829 
L 73.948395 170.431233 
L 74.101379 201.618302 
L 74.103002 201.618302 
L 74.103002 201.618302 
L 74.211921 215.896266 
L 74.215008 215.937803 
L 74.215008 215.979786 
L 74.679016 240.646955 
L 74.684134 240.715569 
L 74.684134 240.7441 
L 74.951568 247.470159 
L 75.103344 250.43071 
L 75.111055 250.538105 
L 75.111055 250.538105 
L 75.221699 252.343868 
L 75.229148 252.435907 
L 75.229148 252.435907 
L 75.339973 254.005221 
L 75.501046 256.032079 
L 75.615488 257.310601 
L 75.627256 257.413322 
L 75.627256 257.413322 
L 75.73813 258.548035 
L 75.749407 258.6459 
L 75.749407 258.650058 
L 75.918926 260.153068 
L 75.933489 260.26132 
L 76.092135 261.453281 
L 76.108615 261.561142 
L 76.299728 262.819881 
L 76.31893 262.926147 
L 76.450914 263.678474 
L 76.524926 264.075352 
L 76.727023 265.067659 
L 76.750561 265.178213 
L 76.750561 265.178213 
L 76.861512 265.715555 
L 76.884516 265.818882 
L 76.995675 266.296419 
L 77.02984 266.424458 
L 77.141161 266.8378 
L 77.170177 266.948441 
L 77.170177 266.948441 
L 77.281179 267.377401 
L 77.309372 267.48123 
L 77.309372 267.48123 
L 77.420278 267.879388 
L 77.527123 268.250527 
L 77.650063 268.672936 
L 77.686378 268.782602 
L 77.686378 268.782602 
L 77.797166 269.139212 
L 77.834858 269.255653 
L 78.017999 269.835743 
L 78.057372 269.946753 
L 78.170752 270.280995 
L 78.43696 271.01357 
L 78.479008 271.123241 
L 79.45217 273.313607 
L 79.513503 273.424648 
L 79.625783 273.622306 
L 79.988991 274.175932 
L 79.988991 274.175932 
L 80.099917 274.341169 
L 80.182566 274.46045 
L 80.302491 274.636147 
L 80.379086 274.746288 
L 80.490309 274.903829 
L 80.574992 275.02023 
L 80.748682 275.255784 
L 80.748682 275.255784 
L 80.859429 275.398893 
L 80.949157 275.509669 
L 80.949157 275.509669 
L 81.059945 275.643756 
L 81.157341 275.754544 
L 81.157341 275.754544 
L 81.268191 275.87757 
L 81.442518 276.048912 
L 81.561377 276.159916 
L 81.672325 276.260931 
L 81.810497 276.373295 
L 81.923698 276.4642 
L 82.053214 276.575126 
L 82.205976 276.704734 
L 82.338529 276.819021 
L 83.753318 277.693819 
L 83.968851 277.80462 
L 83.968851 277.80462 
L 84.079639 277.856899 
L 87.586466 279.363612 
L 87.699702 279.421956 
L 87.922111 279.532475 
L 88.033121 279.58986 
L 88.268089 279.709139 
L 88.488215 279.820065 
L 90.418926 280.674016 
L 90.691636 280.7851 
L 90.691636 280.7851 
L 90.802197 280.829891 
L 91.077975 280.940961 
L 91.077975 280.940961 
L 91.189069 280.985885 
L 91.709857 281.193115 
L 91.845217 281.243955 
L 92.151948 281.354897 
L 94.714871 282.19105 
L 95.10838 282.302152 
L 95.221818 282.331309 
L 95.664939 282.442375 
L 95.664939 282.4424 
L 95.837656 282.481418 
L 107.517124 283.973894 
L 108.580106 284.084989 
L 108.580106 284.084989 
L 108.690914 284.096033 
L 109.833527 284.207092 
L 109.945388 284.217997 
L 111.002334 284.329103 
L 111.115659 284.341562 
L 112.773998 284.513207 
L 113.890102 284.62428 
L 125.703758 285.614437 
L 127.597129 285.72552 
L 132.80313 286.040478 
L 134.639727 286.151578 
L 134.639727 286.151578 
L 134.750515 286.158366 
L 136.005904 286.230595 
L 138.217918 286.341664 
L 138.332461 286.347492 
L 148.685664 286.851193 
L 149.505101 286.89023 
L 151.83494 287.001312 
L 151.947349 287.006574 
L 154.326498 287.11768 
L 154.451471 287.12362 
L 156.907382 287.234708 
L 156.907382 287.234722 
L 158.634545 287.307107 
L 161.911527 287.440963 
L 161.911527 287.440963 
L 162.022468 287.445374 
L 164.97018 287.556462 
L 164.97018 287.556471 
L 166.189992 287.600805 
L 170.733611 287.753778 
L 170.733611 287.753778 
L 170.844717 287.757233 
L 174.374613 287.868343 
L 174.374613 287.868343 
L 174.48556 287.871848 
L 178.086632 287.982955 
L 178.086632 287.982955 
L 178.196764 287.986296 
L 182.071768 288.100719 
L 182.071768 288.100719 
L 182.182287 288.103972 
L 201.853584 288.615383 
L 206.422082 288.726475 
L 206.422082 288.726478 
L 207.132026 288.743198 
L 212.489419 288.854305 
L 212.801546 288.860481 
L 220.390753 289.00851 
L 220.390753 289.00851 
L 220.501621 289.010667 
L 231.04206 289.207307 
L 231.154139 289.209352 
L 238.147332 289.327171 
L 239.395182 289.347285 
L 246.3266 289.458371 
L 246.3266 289.458392 
L 324.121082 290.343881 
L 337.862972 290.454992 
L 337.862972 290.454992 
L 337.972013 290.455869 
L 353.812849 290.566975 
L 353.952692 290.567863 
L 373.010082 290.678974 
L 373.010082 290.678974 
L 373.12087 290.679578 
L 395.962758 290.790684 
L 395.962758 290.790684 
L 396.073234 290.79114 
L 398.487198 290.801282 
L 398.487198 290.801282 
" clip-path="url(#pd4a49dd858)" style="fill: none; stroke: #d62728; stroke-width: 1.5; stroke-linecap: square"/>
   </g>
   <g id="line2d_37">
    <path d="M 73.832727 295.488 
L 73.838587 295.488 
L 73.838587 295.488 
L 73.857888 53.568 
L 73.949569 135.099428 
L 74.122387 190.41328 
L 74.778526 234.792813 
L 74.784433 234.902052 
L 74.982005 239.091865 
L 74.982005 239.091865 
L 75.093082 241.266788 
L 75.100098 241.362809 
L 75.100098 241.362809 
L 75.210886 243.314884 
L 75.21535 243.388174 
L 75.21535 243.388174 
L 75.325163 245.278916 
L 75.416636 246.646716 
L 75.693561 250.37401 
L 75.70388 250.476422 
L 75.8334 251.931798 
L 75.906748 252.685209 
L 76.019682 253.782557 
L 76.24502 255.699574 
L 76.361787 256.639979 
L 76.406833 256.968386 
L 76.406833 256.968386 
L 76.517769 257.778332 
L 76.55214 258.011294 
L 76.662904 258.764892 
L 76.684349 258.89064 
L 76.818332 259.72027 
L 76.836594 259.82584 
L 76.836594 259.828315 
L 77.019618 260.864068 
L 77.334367 262.421706 
L 77.359288 262.532059 
L 77.359288 262.532059 
L 77.470077 263.001545 
L 77.679487 263.832773 
L 77.789934 264.238297 
L 77.820704 264.344235 
L 77.820704 264.344327 
L 77.932709 264.742383 
L 77.966392 264.852752 
L 77.966392 264.852752 
L 78.077141 265.190378 
L 78.116602 265.30087 
L 78.256958 265.715618 
L 79.414609 268.544862 
L 79.467514 268.655308 
L 79.467514 268.655308 
L 79.57861 268.881027 
L 79.66393 269.047709 
L 79.66393 269.047709 
L 79.773501 269.267933 
L 79.836403 269.385125 
L 79.836403 269.385125 
L 79.947191 269.60104 
L 80.046527 269.788811 
L 80.157906 269.998674 
L 80.220307 270.106292 
L 80.220307 270.107671 
L 80.50925 270.60434 
L 80.589196 270.735545 
L 80.589196 270.735545 
L 80.699173 270.916886 
L 80.794881 271.071333 
L 81.181691 271.667271 
L 81.181691 271.667271 
L 81.291667 271.825934 
L 81.371347 271.935413 
L 81.512207 272.124054 
L 81.598095 272.23468 
L 81.709445 272.377106 
L 81.929711 272.657045 
L 82.041914 272.796881 
L 82.134928 272.907977 
L 82.431611 273.2509 
L 82.530631 273.359474 
L 82.530631 273.360344 
L 82.774527 273.633472 
L 82.876376 273.74422 
L 83.014426 273.893772 
L 84.629033 275.49708 
L 84.761414 275.607945 
L 84.761414 275.607945 
L 84.872202 275.698896 
L 85.477945 276.191382 
L 85.589078 276.279977 
L 86.045423 276.625375 
L 86.045423 276.625375 
L 86.156148 276.706691 
L 86.446371 276.911279 
L 86.446371 276.911279 
L 86.55716 276.98955 
L 86.722763 277.100532 
L 86.834989 277.174428 
L 87.005341 277.285359 
L 87.365616 277.514707 
L 87.479584 277.586893 
L 87.716506 277.731288 
L 87.90818 277.84206 
L 88.020053 277.905289 
L 88.226696 278.016303 
L 88.226696 278.016303 
L 88.336355 278.074735 
L 88.55257 278.185789 
L 88.837589 278.33024 
L 89.05731 278.440857 
L 89.168843 278.497063 
L 89.392253 278.607524 
L 89.518834 278.669557 
L 89.750189 278.780526 
L 89.862024 278.8333 
L 90.10604 278.946731 
L 90.10604 278.946731 
L 90.216936 278.998309 
L 91.036218 279.377719 
L 91.290941 279.488484 
L 91.407976 279.538385 
L 91.67328 279.649194 
L 91.784911 279.695703 
L 92.06249 279.80628 
L 92.06249 279.80628 
L 92.173576 279.85018 
L 94.593255 280.719917 
L 94.928945 280.830956 
L 95.043799 280.868631 
L 95.38736 280.979662 
L 95.38736 280.979732 
L 95.581659 281.04077 
L 95.944142 281.151639 
L 95.944142 281.151832 
L 96.178349 281.221023 
L 96.571141 281.332064 
L 97.169603 281.485392 
L 97.28101 281.512003 
L 97.749717 281.623043 
L 97.861302 281.649465 
L 98.470294 281.790017 
L 99.3605 281.997549 
L 99.471787 282.023205 
L 100.140982 282.181189 
L 100.252003 282.207698 
L 100.727928 282.318377 
L 100.727928 282.318546 
L 101.138895 282.413508 
L 110.789832 284.167401 
L 111.679746 284.278412 
L 111.679746 284.278412 
L 111.790539 284.292065 
L 114.182243 284.57532 
L 114.293756 284.588059 
L 115.29069 284.699093 
L 115.402615 284.711561 
L 116.405906 284.822595 
L 116.405906 284.822595 
L 116.516323 284.834827 
L 117.564517 284.946992 
L 117.564517 284.946992 
L 117.675305 284.958474 
L 118.769958 285.069583 
L 120.097384 285.196253 
L 120.208995 285.206805 
L 121.432371 285.317731 
L 121.432371 285.317903 
L 123.114894 285.464057 
L 123.265241 285.476956 
L 124.553925 285.587947 
L 124.553925 285.588063 
L 128.813817 285.936186 
L 130.228078 286.047285 
L 130.483742 286.067047 
L 137.397443 286.555479 
L 139.255989 286.666588 
L 139.367104 286.67344 
L 141.924571 286.826053 
L 141.924571 286.826053 
L 142.034693 286.832513 
L 143.971924 286.943604 
L 143.971924 286.943604 
L 144.082307 286.949937 
L 146.137371 287.061024 
L 146.137371 287.061024 
L 146.24643 287.066766 
L 148.780059 287.196883 
L 159.903538 287.695702 
L 162.957321 287.806765 
L 162.957321 287.806812 
L 167.24195 287.948632 
L 167.24195 287.948632 
L 167.352244 287.952089 
L 175.167987 288.191829 
L 175.167987 288.191829 
L 175.277981 288.194947 
L 179.345887 288.306037 
L 179.345887 288.306037 
L 179.455881 288.308908 
L 190.367099 288.54677 
L 190.367099 288.54677 
L 190.47819 288.549043 
L 195.952572 288.660121 
L 196.0656 288.662442 
L 201.753955 288.773541 
L 201.753955 288.773541 
L 201.864477 288.775698 
L 207.584346 288.886804 
L 207.584346 288.886804 
L 207.69437 288.88902 
L 213.263029 289.000097 
L 213.376238 289.002378 
L 218.808029 289.113489 
L 219.415569 289.125467 
L 232.50155 289.371474 
L 238.693272 289.482576 
L 248.328907 289.646429 
L 255.45539 289.75753 
L 257.367252 289.785972 
L 265.085956 289.897069 
L 265.085956 289.897069 
L 265.197059 289.898586 
L 282.258932 290.110552 
L 282.385333 290.112051 
L 292.017638 290.22316 
L 298.305483 290.292718 
L 310.102051 290.41884 
L 310.219848 290.420075 
L 321.291697 290.531184 
L 321.414654 290.532406 
L 334.848148 290.659986 
L 334.848148 290.659986 
L 334.95853 290.660998 
L 347.655999 290.772106 
L 353.742429 290.822441 
L 367.934325 290.933551 
L 391.749147 291.105377 
L 398.485022 291.150522 
L 398.485022 291.150522 
" clip-path="url(#pd4a49dd858)" style="fill: none; stroke: #9467bd; stroke-width: 1.5; stroke-linecap: square"/>
   </g>
   <g id="patch_3">
    <path d="M 57.6 307.584 
L 57.6 41.472 
" style="fill: none; stroke: #000000; stroke-width: 0.8; stroke-linejoin: miter; stroke-linecap: square"/>
   </g>
   <g id="patch_4">
    <path d="M 414.72 307.584 
L 414.72 41.472 
" style="fill: none; stroke: #000000; stroke-width: 0.8; stroke-linejoin: miter; stroke-linecap: square"/>
   </g>
   <g id="patch_5">
    <path d="M 57.6 307.584 
L 414.72 307.584 
" style="fill: none; stroke: #000000; stroke-width: 0.8; stroke-linejoin: miter; stroke-linecap: square"/>
   </g>
   <g id="patch_6">
    <path d="M 57.6 41.472 
L 414.72 41.472 
" style="fill: none; stroke: #000000; stroke-width: 0.8; stroke-linejoin: miter; stroke-linecap: square"/>
   </g>
   <g id="text_19">
    <!-- diskLoadStdDev vs. TimePoint for Each Run -->
    <g transform="translate(105.84 35.472) scale(0.12 -0.12)">
     <defs>
      <path id="DejaVuSans-20" transform="scale(0.015625)"/>
      <path id="DejaVuSans-66" d="M 2375 4863 
L 2375 4384 
L 1825 4384 
Q 1516 4384 1395 4259 
Q 1275 4134 1275 3809 
L 1275 3500 
L 2222 3500 
L 2222 3053 
L 1275 3053 
L 1275 0 
L 697 0 
L 697 3053 
L 147 3053 
L 147 3500 
L 697 3500 
L 697 3744 
Q 697 4328 969 4595 
Q 1241 4863 1831 4863 
L 2375 4863 
z
" transform="scale(0.015625)"/>
      <path id="DejaVuSans-72" d="M 2631 2963 
Q 2534 3019 2420 3045 
Q 2306 3072 2169 3072 
Q 1681 3072 1420 2755 
Q 1159 2438 1159 1844 
L 1159 0 
L 581 0 
L 581 3500 
L 1159 3500 
L 1159 2956 
Q 1341 3275 1631 3429 
Q 1922 3584 2338 3584 
Q 2397 3584 2469 3576 
Q 2541 3569 2628 3553 
L 2631 2963 
z
" transform="scale(0.015625)"/>
      <path id="DejaVuSans-45" d="M 628 4666 
L 3578 4666 
L 3578 4134 
L 1259 4134 
L 1259 2753 
L 3481 2753 
L 3481 2222 
L 1259 2222 
L 1259 531 
L 3634 531 
L 3634 0 
L 628 0 
L 628 4666 
z
" transform="scale(0.015625)"/>
      <path id="DejaVuSans-63" d="M 3122 3366 
L 3122 2828 
Q 2878 2963 2633 3030 
Q 2388 3097 2138 3097 
Q 1578 3097 1268 2742 
Q 959 2388 959 1747 
Q 959 1106 1268 751 
Q 1578 397 2138 397 
Q 2388 397 2633 464 
Q 2878 531 3122 666 
L 3122 134 
Q 2881 22 2623 -34 
Q 2366 -91 2075 -91 
Q 1284 -91 818 406 
Q 353 903 353 1747 
Q 353 2603 823 3093 
Q 1294 3584 2113 3584 
Q 2378 3584 2631 3529 
Q 2884 3475 3122 3366 
z
" transform="scale(0.015625)"/>
      <path id="DejaVuSans-68" d="M 3513 2113 
L 3513 0 
L 2938 0 
L 2938 2094 
Q 2938 2591 2744 2837 
Q 2550 3084 2163 3084 
Q 1697 3084 1428 2787 
Q 1159 2491 1159 1978 
L 1159 0 
L 581 0 
L 581 4863 
L 1159 4863 
L 1159 2956 
Q 1366 3272 1645 3428 
Q 1925 3584 2291 3584 
Q 2894 3584 3203 3211 
Q 3513 2838 3513 2113 
z
" transform="scale(0.015625)"/>
      <path id="DejaVuSans-52" d="M 2841 2188 
Q 3044 2119 3236 1894 
Q 3428 1669 3622 1275 
L 4263 0 
L 3584 0 
L 2988 1197 
Q 2756 1666 2539 1819 
Q 2322 1972 1947 1972 
L 1259 1972 
L 1259 0 
L 628 0 
L 628 4666 
L 2053 4666 
Q 2853 4666 3247 4331 
Q 3641 3997 3641 3322 
Q 3641 2881 3436 2590 
Q 3231 2300 2841 2188 
z
M 1259 4147 
L 1259 2491 
L 2053 2491 
Q 2509 2491 2742 2702 
Q 2975 2913 2975 3322 
Q 2975 3731 2742 3939 
Q 2509 4147 2053 4147 
L 1259 4147 
z
" transform="scale(0.015625)"/>
      <path id="DejaVuSans-75" d="M 544 1381 
L 544 3500 
L 1119 3500 
L 1119 1403 
Q 1119 906 1312 657 
Q 1506 409 1894 409 
Q 2359 409 2629 706 
Q 2900 1003 2900 1516 
L 2900 3500 
L 3475 3500 
L 3475 0 
L 2900 0 
L 2900 538 
Q 2691 219 2414 64 
Q 2138 -91 1772 -91 
Q 1169 -91 856 284 
Q 544 659 544 1381 
z
M 1991 3584 
L 1991 3584 
z
" transform="scale(0.015625)"/>
     </defs>
     <use xlink:href="#DejaVuSans-64"/>
     <use xlink:href="#DejaVuSans-69" x="63.476562"/>
     <use xlink:href="#DejaVuSans-73" x="91.259766"/>
     <use xlink:href="#DejaVuSans-6b" x="143.359375"/>
     <use xlink:href="#DejaVuSans-4c" x="201.269531"/>
     <use xlink:href="#DejaVuSans-6f" x="255.232422"/>
     <use xlink:href="#DejaVuSans-61" x="316.414062"/>
     <use xlink:href="#DejaVuSans-64" x="377.693359"/>
     <use xlink:href="#DejaVuSans-53" x="441.169922"/>
     <use xlink:href="#DejaVuSans-74" x="504.646484"/>
     <use xlink:href="#DejaVuSans-64" x="543.855469"/>
     <use xlink:href="#DejaVuSans-44" x="607.332031"/>
     <use xlink:href="#DejaVuSans-65" x="684.333984"/>
     <use xlink:href="#DejaVuSans-76" x="745.857422"/>
     <use xlink:href="#DejaVuSans-20" x="805.037109"/>
     <use xlink:href="#DejaVuSans-76" x="836.824219"/>
     <use xlink:href="#DejaVuSans-73" x="896.003906"/>
     <use xlink:href="#DejaVuSans-2e" x="948.103516"/>
     <use xlink:href="#DejaVuSans-20" x="979.890625"/>
     <use xlink:href="#DejaVuSans-54" x="1011.677734"/>
     <use xlink:href="#DejaVuSans-69" x="1069.636719"/>
     <use xlink:href="#DejaVuSans-6d" x="1097.419922"/>
     <use xlink:href="#DejaVuSans-65" x="1194.832031"/>
     <use xlink:href="#DejaVuSans-50" x="1256.355469"/>
     <use xlink:href="#DejaVuSans-6f" x="1313.033203"/>
     <use xlink:href="#DejaVuSans-69" x="1374.214844"/>
     <use xlink:href="#DejaVuSans-6e" x="1401.998047"/>
     <use xlink:href="#DejaVuSans-74" x="1465.376953"/>
     <use xlink:href="#DejaVuSans-20" x="1504.585938"/>
     <use xlink:href="#DejaVuSans-66" x="1536.373047"/>
     <use xlink:href="#DejaVuSans-6f" x="1571.578125"/>
     <use xlink:href="#DejaVuSans-72" x="1632.759766"/>
     <use xlink:href="#DejaVuSans-20" x="1673.873047"/>
     <use xlink:href="#DejaVuSans-45" x="1705.660156"/>
     <use xlink:href="#DejaVuSans-61" x="1768.84375"/>
     <use xlink:href="#DejaVuSans-63" x="1830.123047"/>
     <use xlink:href="#DejaVuSans-68" x="1885.103516"/>
     <use xlink:href="#DejaVuSans-20" x="1948.482422"/>
     <use xlink:href="#DejaVuSans-52" x="1980.269531"/>
     <use xlink:href="#DejaVuSans-75" x="2045.251953"/>
     <use xlink:href="#DejaVuSans-6e" x="2108.630859"/>
    </g>
   </g>
   <g id="legend_1">
    <g id="patch_7">
     <path d="M 341.196563 137.54075 
L 407.72 137.54075 
Q 409.72 137.54075 409.72 135.54075 
L 409.72 48.472 
Q 409.72 46.472 407.72 46.472 
L 341.196563 46.472 
Q 339.196563 46.472 339.196563 48.472 
L 339.196563 135.54075 
Q 339.196563 137.54075 341.196563 137.54075 
z
" style="fill: #ffffff; opacity: 0.8; stroke: #cccccc; stroke-linejoin: miter"/>
    </g>
    <g id="text_20">
     <!-- Run Number -->
     <g transform="translate(343.196563 58.070438) scale(0.1 -0.1)">
      <defs>
       <path id="DejaVuSans-4e" d="M 628 4666 
L 1478 4666 
L 3547 763 
L 3547 4666 
L 4159 4666 
L 4159 0 
L 3309 0 
L 1241 3903 
L 1241 0 
L 628 0 
L 628 4666 
z
" transform="scale(0.015625)"/>
       <path id="DejaVuSans-62" d="M 3116 1747 
Q 3116 2381 2855 2742 
Q 2594 3103 2138 3103 
Q 1681 3103 1420 2742 
Q 1159 2381 1159 1747 
Q 1159 1113 1420 752 
Q 1681 391 2138 391 
Q 2594 391 2855 752 
Q 3116 1113 3116 1747 
z
M 1159 2969 
Q 1341 3281 1617 3432 
Q 1894 3584 2278 3584 
Q 2916 3584 3314 3078 
Q 3713 2572 3713 1747 
Q 3713 922 3314 415 
Q 2916 -91 2278 -91 
Q 1894 -91 1617 61 
Q 1341 213 1159 525 
L 1159 0 
L 581 0 
L 581 4863 
L 1159 4863 
L 1159 2969 
z
" transform="scale(0.015625)"/>
      </defs>
      <use xlink:href="#DejaVuSans-52"/>
      <use xlink:href="#DejaVuSans-75" x="64.982422"/>
      <use xlink:href="#DejaVuSans-6e" x="128.361328"/>
      <use xlink:href="#DejaVuSans-20" x="191.740234"/>
      <use xlink:href="#DejaVuSans-4e" x="223.527344"/>
      <use xlink:href="#DejaVuSans-75" x="298.332031"/>
      <use xlink:href="#DejaVuSans-6d" x="361.710938"/>
      <use xlink:href="#DejaVuSans-62" x="459.123047"/>
      <use xlink:href="#DejaVuSans-65" x="522.599609"/>
      <use xlink:href="#DejaVuSans-72" x="584.123047"/>
     </g>
    </g>
    <g id="line2d_38">
     <path d="M 346.10125 69.248563 
L 356.10125 69.248563 
L 366.10125 69.248563 
" style="fill: none; stroke: #1f77b4; stroke-width: 1.5; stroke-linecap: square"/>
    </g>
    <g id="text_21">
     <!-- Run 0 -->
     <g transform="translate(374.10125 72.748563) scale(0.1 -0.1)">
      <use xlink:href="#DejaVuSans-52"/>
      <use xlink:href="#DejaVuSans-75" x="64.982422"/>
      <use xlink:href="#DejaVuSans-6e" x="128.361328"/>
      <use xlink:href="#DejaVuSans-20" x="191.740234"/>
      <use xlink:href="#DejaVuSans-30" x="223.527344"/>
     </g>
    </g>
    <g id="line2d_39">
     <path d="M 346.10125 83.926688 
L 356.10125 83.926688 
L 366.10125 83.926688 
" style="fill: none; stroke: #ff7f0e; stroke-width: 1.5; stroke-linecap: square"/>
    </g>
    <g id="text_22">
     <!-- Run 1 -->
     <g transform="translate(374.10125 87.426688) scale(0.1 -0.1)">
      <use xlink:href="#DejaVuSans-52"/>
      <use xlink:href="#DejaVuSans-75" x="64.982422"/>
      <use xlink:href="#DejaVuSans-6e" x="128.361328"/>
      <use xlink:href="#DejaVuSans-20" x="191.740234"/>
      <use xlink:href="#DejaVuSans-31" x="223.527344"/>
     </g>
    </g>
    <g id="line2d_40">
     <path d="M 346.10125 98.604813 
L 356.10125 98.604813 
L 366.10125 98.604813 
" style="fill: none; stroke: #2ca02c; stroke-width: 1.5; stroke-linecap: square"/>
    </g>
    <g id="text_23">
     <!-- Run 2 -->
     <g transform="translate(374.10125 102.104813) scale(0.1 -0.1)">
      <use xlink:href="#DejaVuSans-52"/>
      <use xlink:href="#DejaVuSans-75" x="64.982422"/>
      <use xlink:href="#DejaVuSans-6e" x="128.361328"/>
      <use xlink:href="#DejaVuSans-20" x="191.740234"/>
      <use xlink:href="#DejaVuSans-32" x="223.527344"/>
     </g>
    </g>
    <g id="line2d_41">
     <path d="M 346.10125 113.282938 
L 356.10125 113.282938 
L 366.10125 113.282938 
" style="fill: none; stroke: #d62728; stroke-width: 1.5; stroke-linecap: square"/>
    </g>
    <g id="text_24">
     <!-- Run 3 -->
     <g transform="translate(374.10125 116.782938) scale(0.1 -0.1)">
      <use xlink:href="#DejaVuSans-52"/>
      <use xlink:href="#DejaVuSans-75" x="64.982422"/>
      <use xlink:href="#DejaVuSans-6e" x="128.361328"/>
      <use xlink:href="#DejaVuSans-20" x="191.740234"/>
      <use xlink:href="#DejaVuSans-33" x="223.527344"/>
     </g>
    </g>
    <g id="line2d_42">
     <path d="M 346.10125 127.961063 
L 356.10125 127.961063 
L 366.10125 127.961063 
" style="fill: none; stroke: #9467bd; stroke-width: 1.5; stroke-linecap: square"/>
    </g>
    <g id="text_25">
     <!-- Run 4 -->
     <g transform="translate(374.10125 131.461063) scale(0.1 -0.1)">
      <use xlink:href="#DejaVuSans-52"/>
      <use xlink:href="#DejaVuSans-75" x="64.982422"/>
      <use xlink:href="#DejaVuSans-6e" x="128.361328"/>
      <use xlink:href="#DejaVuSans-20" x="191.740234"/>
      <use xlink:href="#DejaVuSans-34" x="223.527344"/>
     </g>
    </g>
   </g>
  </g>
 </g>
 <defs>
  <clipPath id="pd4a49dd858">
   <rect x="57.6" y="41.472" width="357.12" height="266.112"/>
  </clipPath>
 </defs>
</svg>
