<?xml version="1.0" encoding="utf-8" standalone="no"?>
<!DOCTYPE svg PUBLIC "-//W3C//DTD SVG 1.1//EN"
  "http://www.w3.org/Graphics/SVG/1.1/DTD/svg11.dtd">
<svg xmlns:xlink="http://www.w3.org/1999/xlink" width="460.8pt" height="345.6pt" viewBox="0 0 460.8 345.6" xmlns="http://www.w3.org/2000/svg" version="1.1">
 <metadata>
  <rdf:RDF xmlns:dc="http://purl.org/dc/elements/1.1/" xmlns:cc="http://creativecommons.org/ns#" xmlns:rdf="http://www.w3.org/1999/02/22-rdf-syntax-ns#">
   <cc:Work>
    <dc:type rdf:resource="http://purl.org/dc/dcmitype/StillImage"/>
    <dc:date>2024-12-03T22:17:17.052059</dc:date>
    <dc:format>image/svg+xml</dc:format>
    <dc:creator>
     <cc:Agent>
      <dc:title>Matplotlib v3.9.2, https://matplotlib.org/</dc:title>
     </cc:Agent>
    </dc:creator>
   </cc:Work>
  </rdf:RDF>
 </metadata>
 <defs>
  <style type="text/css">*{stroke-linejoin: round; stroke-linecap: butt}</style>
 </defs>
 <g id="figure_1">
  <g id="patch_1">
   <path d="M 0 345.6 
L 460.8 345.6 
L 460.8 0 
L 0 0 
z
" style="fill: #ffffff"/>
  </g>
  <g id="axes_1">
   <g id="patch_2">
    <path d="M 57.6 307.584 
L 414.72 307.584 
L 414.72 41.472 
L 57.6 41.472 
z
" style="fill: #ffffff"/>
   </g>
   <g id="matplotlib.axis_1">
    <g id="xtick_1">
     <g id="line2d_1">
      <path d="M 73.832727 307.584 
L 73.832727 41.472 
" clip-path="url(#pf3989a0502)" style="fill: none; stroke: #b0b0b0; stroke-width: 0.8; stroke-linecap: square"/>
     </g>
     <g id="line2d_2">
      <defs>
       <path id="m80dbd9fd85" d="M 0 0 
L 0 3.5 
" style="stroke: #000000; stroke-width: 0.8"/>
      </defs>
      <g>
       <use xlink:href="#m80dbd9fd85" x="73.832727" y="307.584" style="stroke: #000000; stroke-width: 0.8"/>
      </g>
     </g>
     <g id="text_1">
      <!-- 0 -->
      <g transform="translate(70.651477 322.182437) scale(0.1 -0.1)">
       <defs>
        <path id="DejaVuSans-30" d="M 2034 4250 
Q 1547 4250 1301 3770 
Q 1056 3291 1056 2328 
Q 1056 1369 1301 889 
Q 1547 409 2034 409 
Q 2525 409 2770 889 
Q 3016 1369 3016 2328 
Q 3016 3291 2770 3770 
Q 2525 4250 2034 4250 
z
M 2034 4750 
Q 2819 4750 3233 4129 
Q 3647 3509 3647 2328 
Q 3647 1150 3233 529 
Q 2819 -91 2034 -91 
Q 1250 -91 836 529 
Q 422 1150 422 2328 
Q 422 3509 836 4129 
Q 1250 4750 2034 4750 
z
" transform="scale(0.015625)"/>
       </defs>
       <use xlink:href="#DejaVuSans-30"/>
      </g>
     </g>
    </g>
    <g id="xtick_2">
     <g id="line2d_3">
      <path d="M 114.414549 307.584 
L 114.414549 41.472 
" clip-path="url(#pf3989a0502)" style="fill: none; stroke: #b0b0b0; stroke-width: 0.8; stroke-linecap: square"/>
     </g>
     <g id="line2d_4">
      <g>
       <use xlink:href="#m80dbd9fd85" x="114.414549" y="307.584" style="stroke: #000000; stroke-width: 0.8"/>
      </g>
     </g>
     <g id="text_2">
      <!-- 100000 -->
      <g transform="translate(95.327049 322.182437) scale(0.1 -0.1)">
       <defs>
        <path id="DejaVuSans-31" d="M 794 531 
L 1825 531 
L 1825 4091 
L 703 3866 
L 703 4441 
L 1819 4666 
L 2450 4666 
L 2450 531 
L 3481 531 
L 3481 0 
L 794 0 
L 794 531 
z
" transform="scale(0.015625)"/>
       </defs>
       <use xlink:href="#DejaVuSans-31"/>
       <use xlink:href="#DejaVuSans-30" x="63.623047"/>
       <use xlink:href="#DejaVuSans-30" x="127.246094"/>
       <use xlink:href="#DejaVuSans-30" x="190.869141"/>
       <use xlink:href="#DejaVuSans-30" x="254.492188"/>
       <use xlink:href="#DejaVuSans-30" x="318.115234"/>
      </g>
     </g>
    </g>
    <g id="xtick_3">
     <g id="line2d_5">
      <path d="M 154.99637 307.584 
L 154.99637 41.472 
" clip-path="url(#pf3989a0502)" style="fill: none; stroke: #b0b0b0; stroke-width: 0.8; stroke-linecap: square"/>
     </g>
     <g id="line2d_6">
      <g>
       <use xlink:href="#m80dbd9fd85" x="154.99637" y="307.584" style="stroke: #000000; stroke-width: 0.8"/>
      </g>
     </g>
     <g id="text_3">
      <!-- 200000 -->
      <g transform="translate(135.90887 322.182437) scale(0.1 -0.1)">
       <defs>
        <path id="DejaVuSans-32" d="M 1228 531 
L 3431 531 
L 3431 0 
L 469 0 
L 469 531 
Q 828 903 1448 1529 
Q 2069 2156 2228 2338 
Q 2531 2678 2651 2914 
Q 2772 3150 2772 3378 
Q 2772 3750 2511 3984 
Q 2250 4219 1831 4219 
Q 1534 4219 1204 4116 
Q 875 4013 500 3803 
L 500 4441 
Q 881 4594 1212 4672 
Q 1544 4750 1819 4750 
Q 2544 4750 2975 4387 
Q 3406 4025 3406 3419 
Q 3406 3131 3298 2873 
Q 3191 2616 2906 2266 
Q 2828 2175 2409 1742 
Q 1991 1309 1228 531 
z
" transform="scale(0.015625)"/>
       </defs>
       <use xlink:href="#DejaVuSans-32"/>
       <use xlink:href="#DejaVuSans-30" x="63.623047"/>
       <use xlink:href="#DejaVuSans-30" x="127.246094"/>
       <use xlink:href="#DejaVuSans-30" x="190.869141"/>
       <use xlink:href="#DejaVuSans-30" x="254.492188"/>
       <use xlink:href="#DejaVuSans-30" x="318.115234"/>
      </g>
     </g>
    </g>
    <g id="xtick_4">
     <g id="line2d_7">
      <path d="M 195.578191 307.584 
L 195.578191 41.472 
" clip-path="url(#pf3989a0502)" style="fill: none; stroke: #b0b0b0; stroke-width: 0.8; stroke-linecap: square"/>
     </g>
     <g id="line2d_8">
      <g>
       <use xlink:href="#m80dbd9fd85" x="195.578191" y="307.584" style="stroke: #000000; stroke-width: 0.8"/>
      </g>
     </g>
     <g id="text_4">
      <!-- 300000 -->
      <g transform="translate(176.490691 322.182437) scale(0.1 -0.1)">
       <defs>
        <path id="DejaVuSans-33" d="M 2597 2516 
Q 3050 2419 3304 2112 
Q 3559 1806 3559 1356 
Q 3559 666 3084 287 
Q 2609 -91 1734 -91 
Q 1441 -91 1130 -33 
Q 819 25 488 141 
L 488 750 
Q 750 597 1062 519 
Q 1375 441 1716 441 
Q 2309 441 2620 675 
Q 2931 909 2931 1356 
Q 2931 1769 2642 2001 
Q 2353 2234 1838 2234 
L 1294 2234 
L 1294 2753 
L 1863 2753 
Q 2328 2753 2575 2939 
Q 2822 3125 2822 3475 
Q 2822 3834 2567 4026 
Q 2313 4219 1838 4219 
Q 1578 4219 1281 4162 
Q 984 4106 628 3988 
L 628 4550 
Q 988 4650 1302 4700 
Q 1616 4750 1894 4750 
Q 2613 4750 3031 4423 
Q 3450 4097 3450 3541 
Q 3450 3153 3228 2886 
Q 3006 2619 2597 2516 
z
" transform="scale(0.015625)"/>
       </defs>
       <use xlink:href="#DejaVuSans-33"/>
       <use xlink:href="#DejaVuSans-30" x="63.623047"/>
       <use xlink:href="#DejaVuSans-30" x="127.246094"/>
       <use xlink:href="#DejaVuSans-30" x="190.869141"/>
       <use xlink:href="#DejaVuSans-30" x="254.492188"/>
       <use xlink:href="#DejaVuSans-30" x="318.115234"/>
      </g>
     </g>
    </g>
    <g id="xtick_5">
     <g id="line2d_9">
      <path d="M 236.160012 307.584 
L 236.160012 41.472 
" clip-path="url(#pf3989a0502)" style="fill: none; stroke: #b0b0b0; stroke-width: 0.8; stroke-linecap: square"/>
     </g>
     <g id="line2d_10">
      <g>
       <use xlink:href="#m80dbd9fd85" x="236.160012" y="307.584" style="stroke: #000000; stroke-width: 0.8"/>
      </g>
     </g>
     <g id="text_5">
      <!-- 400000 -->
      <g transform="translate(217.072512 322.182437) scale(0.1 -0.1)">
       <defs>
        <path id="DejaVuSans-34" d="M 2419 4116 
L 825 1625 
L 2419 1625 
L 2419 4116 
z
M 2253 4666 
L 3047 4666 
L 3047 1625 
L 3713 1625 
L 3713 1100 
L 3047 1100 
L 3047 0 
L 2419 0 
L 2419 1100 
L 313 1100 
L 313 1709 
L 2253 4666 
z
" transform="scale(0.015625)"/>
       </defs>
       <use xlink:href="#DejaVuSans-34"/>
       <use xlink:href="#DejaVuSans-30" x="63.623047"/>
       <use xlink:href="#DejaVuSans-30" x="127.246094"/>
       <use xlink:href="#DejaVuSans-30" x="190.869141"/>
       <use xlink:href="#DejaVuSans-30" x="254.492188"/>
       <use xlink:href="#DejaVuSans-30" x="318.115234"/>
      </g>
     </g>
    </g>
    <g id="xtick_6">
     <g id="line2d_11">
      <path d="M 276.741834 307.584 
L 276.741834 41.472 
" clip-path="url(#pf3989a0502)" style="fill: none; stroke: #b0b0b0; stroke-width: 0.8; stroke-linecap: square"/>
     </g>
     <g id="line2d_12">
      <g>
       <use xlink:href="#m80dbd9fd85" x="276.741834" y="307.584" style="stroke: #000000; stroke-width: 0.8"/>
      </g>
     </g>
     <g id="text_6">
      <!-- 500000 -->
      <g transform="translate(257.654334 322.182437) scale(0.1 -0.1)">
       <defs>
        <path id="DejaVuSans-35" d="M 691 4666 
L 3169 4666 
L 3169 4134 
L 1269 4134 
L 1269 2991 
Q 1406 3038 1543 3061 
Q 1681 3084 1819 3084 
Q 2600 3084 3056 2656 
Q 3513 2228 3513 1497 
Q 3513 744 3044 326 
Q 2575 -91 1722 -91 
Q 1428 -91 1123 -41 
Q 819 9 494 109 
L 494 744 
Q 775 591 1075 516 
Q 1375 441 1709 441 
Q 2250 441 2565 725 
Q 2881 1009 2881 1497 
Q 2881 1984 2565 2268 
Q 2250 2553 1709 2553 
Q 1456 2553 1204 2497 
Q 953 2441 691 2322 
L 691 4666 
z
" transform="scale(0.015625)"/>
       </defs>
       <use xlink:href="#DejaVuSans-35"/>
       <use xlink:href="#DejaVuSans-30" x="63.623047"/>
       <use xlink:href="#DejaVuSans-30" x="127.246094"/>
       <use xlink:href="#DejaVuSans-30" x="190.869141"/>
       <use xlink:href="#DejaVuSans-30" x="254.492188"/>
       <use xlink:href="#DejaVuSans-30" x="318.115234"/>
      </g>
     </g>
    </g>
    <g id="xtick_7">
     <g id="line2d_13">
      <path d="M 317.323655 307.584 
L 317.323655 41.472 
" clip-path="url(#pf3989a0502)" style="fill: none; stroke: #b0b0b0; stroke-width: 0.8; stroke-linecap: square"/>
     </g>
     <g id="line2d_14">
      <g>
       <use xlink:href="#m80dbd9fd85" x="317.323655" y="307.584" style="stroke: #000000; stroke-width: 0.8"/>
      </g>
     </g>
     <g id="text_7">
      <!-- 600000 -->
      <g transform="translate(298.236155 322.182437) scale(0.1 -0.1)">
       <defs>
        <path id="DejaVuSans-36" d="M 2113 2584 
Q 1688 2584 1439 2293 
Q 1191 2003 1191 1497 
Q 1191 994 1439 701 
Q 1688 409 2113 409 
Q 2538 409 2786 701 
Q 3034 994 3034 1497 
Q 3034 2003 2786 2293 
Q 2538 2584 2113 2584 
z
M 3366 4563 
L 3366 3988 
Q 3128 4100 2886 4159 
Q 2644 4219 2406 4219 
Q 1781 4219 1451 3797 
Q 1122 3375 1075 2522 
Q 1259 2794 1537 2939 
Q 1816 3084 2150 3084 
Q 2853 3084 3261 2657 
Q 3669 2231 3669 1497 
Q 3669 778 3244 343 
Q 2819 -91 2113 -91 
Q 1303 -91 875 529 
Q 447 1150 447 2328 
Q 447 3434 972 4092 
Q 1497 4750 2381 4750 
Q 2619 4750 2861 4703 
Q 3103 4656 3366 4563 
z
" transform="scale(0.015625)"/>
       </defs>
       <use xlink:href="#DejaVuSans-36"/>
       <use xlink:href="#DejaVuSans-30" x="63.623047"/>
       <use xlink:href="#DejaVuSans-30" x="127.246094"/>
       <use xlink:href="#DejaVuSans-30" x="190.869141"/>
       <use xlink:href="#DejaVuSans-30" x="254.492188"/>
       <use xlink:href="#DejaVuSans-30" x="318.115234"/>
      </g>
     </g>
    </g>
    <g id="xtick_8">
     <g id="line2d_15">
      <path d="M 357.905476 307.584 
L 357.905476 41.472 
" clip-path="url(#pf3989a0502)" style="fill: none; stroke: #b0b0b0; stroke-width: 0.8; stroke-linecap: square"/>
     </g>
     <g id="line2d_16">
      <g>
       <use xlink:href="#m80dbd9fd85" x="357.905476" y="307.584" style="stroke: #000000; stroke-width: 0.8"/>
      </g>
     </g>
     <g id="text_8">
      <!-- 700000 -->
      <g transform="translate(338.817976 322.182437) scale(0.1 -0.1)">
       <defs>
        <path id="DejaVuSans-37" d="M 525 4666 
L 3525 4666 
L 3525 4397 
L 1831 0 
L 1172 0 
L 2766 4134 
L 525 4134 
L 525 4666 
z
" transform="scale(0.015625)"/>
       </defs>
       <use xlink:href="#DejaVuSans-37"/>
       <use xlink:href="#DejaVuSans-30" x="63.623047"/>
       <use xlink:href="#DejaVuSans-30" x="127.246094"/>
       <use xlink:href="#DejaVuSans-30" x="190.869141"/>
       <use xlink:href="#DejaVuSans-30" x="254.492188"/>
       <use xlink:href="#DejaVuSans-30" x="318.115234"/>
      </g>
     </g>
    </g>
    <g id="xtick_9">
     <g id="line2d_17">
      <path d="M 398.487298 307.584 
L 398.487298 41.472 
" clip-path="url(#pf3989a0502)" style="fill: none; stroke: #b0b0b0; stroke-width: 0.8; stroke-linecap: square"/>
     </g>
     <g id="line2d_18">
      <g>
       <use xlink:href="#m80dbd9fd85" x="398.487298" y="307.584" style="stroke: #000000; stroke-width: 0.8"/>
      </g>
     </g>
     <g id="text_9">
      <!-- 800000 -->
      <g transform="translate(379.399798 322.182437) scale(0.1 -0.1)">
       <defs>
        <path id="DejaVuSans-38" d="M 2034 2216 
Q 1584 2216 1326 1975 
Q 1069 1734 1069 1313 
Q 1069 891 1326 650 
Q 1584 409 2034 409 
Q 2484 409 2743 651 
Q 3003 894 3003 1313 
Q 3003 1734 2745 1975 
Q 2488 2216 2034 2216 
z
M 1403 2484 
Q 997 2584 770 2862 
Q 544 3141 544 3541 
Q 544 4100 942 4425 
Q 1341 4750 2034 4750 
Q 2731 4750 3128 4425 
Q 3525 4100 3525 3541 
Q 3525 3141 3298 2862 
Q 3072 2584 2669 2484 
Q 3125 2378 3379 2068 
Q 3634 1759 3634 1313 
Q 3634 634 3220 271 
Q 2806 -91 2034 -91 
Q 1263 -91 848 271 
Q 434 634 434 1313 
Q 434 1759 690 2068 
Q 947 2378 1403 2484 
z
M 1172 3481 
Q 1172 3119 1398 2916 
Q 1625 2713 2034 2713 
Q 2441 2713 2670 2916 
Q 2900 3119 2900 3481 
Q 2900 3844 2670 4047 
Q 2441 4250 2034 4250 
Q 1625 4250 1398 4047 
Q 1172 3844 1172 3481 
z
" transform="scale(0.015625)"/>
       </defs>
       <use xlink:href="#DejaVuSans-38"/>
       <use xlink:href="#DejaVuSans-30" x="63.623047"/>
       <use xlink:href="#DejaVuSans-30" x="127.246094"/>
       <use xlink:href="#DejaVuSans-30" x="190.869141"/>
       <use xlink:href="#DejaVuSans-30" x="254.492188"/>
       <use xlink:href="#DejaVuSans-30" x="318.115234"/>
      </g>
     </g>
    </g>
    <g id="text_10">
     <!-- TimePoint -->
     <g transform="translate(211.515469 335.860562) scale(0.1 -0.1)">
      <defs>
       <path id="DejaVuSans-54" d="M -19 4666 
L 3928 4666 
L 3928 4134 
L 2272 4134 
L 2272 0 
L 1638 0 
L 1638 4134 
L -19 4134 
L -19 4666 
z
" transform="scale(0.015625)"/>
       <path id="DejaVuSans-69" d="M 603 3500 
L 1178 3500 
L 1178 0 
L 603 0 
L 603 3500 
z
M 603 4863 
L 1178 4863 
L 1178 4134 
L 603 4134 
L 603 4863 
z
" transform="scale(0.015625)"/>
       <path id="DejaVuSans-6d" d="M 3328 2828 
Q 3544 3216 3844 3400 
Q 4144 3584 4550 3584 
Q 5097 3584 5394 3201 
Q 5691 2819 5691 2113 
L 5691 0 
L 5113 0 
L 5113 2094 
Q 5113 2597 4934 2840 
Q 4756 3084 4391 3084 
Q 3944 3084 3684 2787 
Q 3425 2491 3425 1978 
L 3425 0 
L 2847 0 
L 2847 2094 
Q 2847 2600 2669 2842 
Q 2491 3084 2119 3084 
Q 1678 3084 1418 2786 
Q 1159 2488 1159 1978 
L 1159 0 
L 581 0 
L 581 3500 
L 1159 3500 
L 1159 2956 
Q 1356 3278 1631 3431 
Q 1906 3584 2284 3584 
Q 2666 3584 2933 3390 
Q 3200 3197 3328 2828 
z
" transform="scale(0.015625)"/>
       <path id="DejaVuSans-65" d="M 3597 1894 
L 3597 1613 
L 953 1613 
Q 991 1019 1311 708 
Q 1631 397 2203 397 
Q 2534 397 2845 478 
Q 3156 559 3463 722 
L 3463 178 
Q 3153 47 2828 -22 
Q 2503 -91 2169 -91 
Q 1331 -91 842 396 
Q 353 884 353 1716 
Q 353 2575 817 3079 
Q 1281 3584 2069 3584 
Q 2775 3584 3186 3129 
Q 3597 2675 3597 1894 
z
M 3022 2063 
Q 3016 2534 2758 2815 
Q 2500 3097 2075 3097 
Q 1594 3097 1305 2825 
Q 1016 2553 972 2059 
L 3022 2063 
z
" transform="scale(0.015625)"/>
       <path id="DejaVuSans-50" d="M 1259 4147 
L 1259 2394 
L 2053 2394 
Q 2494 2394 2734 2622 
Q 2975 2850 2975 3272 
Q 2975 3691 2734 3919 
Q 2494 4147 2053 4147 
L 1259 4147 
z
M 628 4666 
L 2053 4666 
Q 2838 4666 3239 4311 
Q 3641 3956 3641 3272 
Q 3641 2581 3239 2228 
Q 2838 1875 2053 1875 
L 1259 1875 
L 1259 0 
L 628 0 
L 628 4666 
z
" transform="scale(0.015625)"/>
       <path id="DejaVuSans-6f" d="M 1959 3097 
Q 1497 3097 1228 2736 
Q 959 2375 959 1747 
Q 959 1119 1226 758 
Q 1494 397 1959 397 
Q 2419 397 2687 759 
Q 2956 1122 2956 1747 
Q 2956 2369 2687 2733 
Q 2419 3097 1959 3097 
z
M 1959 3584 
Q 2709 3584 3137 3096 
Q 3566 2609 3566 1747 
Q 3566 888 3137 398 
Q 2709 -91 1959 -91 
Q 1206 -91 779 398 
Q 353 888 353 1747 
Q 353 2609 779 3096 
Q 1206 3584 1959 3584 
z
" transform="scale(0.015625)"/>
       <path id="DejaVuSans-6e" d="M 3513 2113 
L 3513 0 
L 2938 0 
L 2938 2094 
Q 2938 2591 2744 2837 
Q 2550 3084 2163 3084 
Q 1697 3084 1428 2787 
Q 1159 2491 1159 1978 
L 1159 0 
L 581 0 
L 581 3500 
L 1159 3500 
L 1159 2956 
Q 1366 3272 1645 3428 
Q 1925 3584 2291 3584 
Q 2894 3584 3203 3211 
Q 3513 2838 3513 2113 
z
" transform="scale(0.015625)"/>
       <path id="DejaVuSans-74" d="M 1172 4494 
L 1172 3500 
L 2356 3500 
L 2356 3053 
L 1172 3053 
L 1172 1153 
Q 1172 725 1289 603 
Q 1406 481 1766 481 
L 2356 481 
L 2356 0 
L 1766 0 
Q 1100 0 847 248 
Q 594 497 594 1153 
L 594 3053 
L 172 3053 
L 172 3500 
L 594 3500 
L 594 4494 
L 1172 4494 
z
" transform="scale(0.015625)"/>
      </defs>
      <use xlink:href="#DejaVuSans-54"/>
      <use xlink:href="#DejaVuSans-69" x="57.958984"/>
      <use xlink:href="#DejaVuSans-6d" x="85.742188"/>
      <use xlink:href="#DejaVuSans-65" x="183.154297"/>
      <use xlink:href="#DejaVuSans-50" x="244.677734"/>
      <use xlink:href="#DejaVuSans-6f" x="301.355469"/>
      <use xlink:href="#DejaVuSans-69" x="362.537109"/>
      <use xlink:href="#DejaVuSans-6e" x="390.320312"/>
      <use xlink:href="#DejaVuSans-74" x="453.699219"/>
     </g>
    </g>
   </g>
   <g id="matplotlib.axis_2">
    <g id="ytick_1">
     <g id="line2d_19">
      <path d="M 57.6 295.488 
L 414.72 295.488 
" clip-path="url(#pf3989a0502)" style="fill: none; stroke: #b0b0b0; stroke-width: 0.8; stroke-linecap: square"/>
     </g>
     <g id="line2d_20">
      <defs>
       <path id="maa7c36394f" d="M 0 0 
L -3.5 0 
" style="stroke: #000000; stroke-width: 0.8"/>
      </defs>
      <g>
       <use xlink:href="#maa7c36394f" x="57.6" y="295.488" style="stroke: #000000; stroke-width: 0.8"/>
      </g>
     </g>
     <g id="text_11">
      <!-- 0.0000 -->
      <g transform="translate(15.609375 299.287219) scale(0.1 -0.1)">
       <defs>
        <path id="DejaVuSans-2e" d="M 684 794 
L 1344 794 
L 1344 0 
L 684 0 
L 684 794 
z
" transform="scale(0.015625)"/>
       </defs>
       <use xlink:href="#DejaVuSans-30"/>
       <use xlink:href="#DejaVuSans-2e" x="63.623047"/>
       <use xlink:href="#DejaVuSans-30" x="95.410156"/>
       <use xlink:href="#DejaVuSans-30" x="159.033203"/>
       <use xlink:href="#DejaVuSans-30" x="222.65625"/>
       <use xlink:href="#DejaVuSans-30" x="286.279297"/>
      </g>
     </g>
    </g>
    <g id="ytick_2">
     <g id="line2d_21">
      <path d="M 57.6 260.249694 
L 414.72 260.249694 
" clip-path="url(#pf3989a0502)" style="fill: none; stroke: #b0b0b0; stroke-width: 0.8; stroke-linecap: square"/>
     </g>
     <g id="line2d_22">
      <g>
       <use xlink:href="#maa7c36394f" x="57.6" y="260.249694" style="stroke: #000000; stroke-width: 0.8"/>
      </g>
     </g>
     <g id="text_12">
      <!-- 0.0002 -->
      <g transform="translate(15.609375 264.048913) scale(0.1 -0.1)">
       <use xlink:href="#DejaVuSans-30"/>
       <use xlink:href="#DejaVuSans-2e" x="63.623047"/>
       <use xlink:href="#DejaVuSans-30" x="95.410156"/>
       <use xlink:href="#DejaVuSans-30" x="159.033203"/>
       <use xlink:href="#DejaVuSans-30" x="222.65625"/>
       <use xlink:href="#DejaVuSans-32" x="286.279297"/>
      </g>
     </g>
    </g>
    <g id="ytick_3">
     <g id="line2d_23">
      <path d="M 57.6 225.011388 
L 414.72 225.011388 
" clip-path="url(#pf3989a0502)" style="fill: none; stroke: #b0b0b0; stroke-width: 0.8; stroke-linecap: square"/>
     </g>
     <g id="line2d_24">
      <g>
       <use xlink:href="#maa7c36394f" x="57.6" y="225.011388" style="stroke: #000000; stroke-width: 0.8"/>
      </g>
     </g>
     <g id="text_13">
      <!-- 0.0004 -->
      <g transform="translate(15.609375 228.810606) scale(0.1 -0.1)">
       <use xlink:href="#DejaVuSans-30"/>
       <use xlink:href="#DejaVuSans-2e" x="63.623047"/>
       <use xlink:href="#DejaVuSans-30" x="95.410156"/>
       <use xlink:href="#DejaVuSans-30" x="159.033203"/>
       <use xlink:href="#DejaVuSans-30" x="222.65625"/>
       <use xlink:href="#DejaVuSans-34" x="286.279297"/>
      </g>
     </g>
    </g>
    <g id="ytick_4">
     <g id="line2d_25">
      <path d="M 57.6 189.773081 
L 414.72 189.773081 
" clip-path="url(#pf3989a0502)" style="fill: none; stroke: #b0b0b0; stroke-width: 0.8; stroke-linecap: square"/>
     </g>
     <g id="line2d_26">
      <g>
       <use xlink:href="#maa7c36394f" x="57.6" y="189.773081" style="stroke: #000000; stroke-width: 0.8"/>
      </g>
     </g>
     <g id="text_14">
      <!-- 0.0006 -->
      <g transform="translate(15.609375 193.5723) scale(0.1 -0.1)">
       <use xlink:href="#DejaVuSans-30"/>
       <use xlink:href="#DejaVuSans-2e" x="63.623047"/>
       <use xlink:href="#DejaVuSans-30" x="95.410156"/>
       <use xlink:href="#DejaVuSans-30" x="159.033203"/>
       <use xlink:href="#DejaVuSans-30" x="222.65625"/>
       <use xlink:href="#DejaVuSans-36" x="286.279297"/>
      </g>
     </g>
    </g>
    <g id="ytick_5">
     <g id="line2d_27">
      <path d="M 57.6 154.534775 
L 414.72 154.534775 
" clip-path="url(#pf3989a0502)" style="fill: none; stroke: #b0b0b0; stroke-width: 0.8; stroke-linecap: square"/>
     </g>
     <g id="line2d_28">
      <g>
       <use xlink:href="#maa7c36394f" x="57.6" y="154.534775" style="stroke: #000000; stroke-width: 0.8"/>
      </g>
     </g>
     <g id="text_15">
      <!-- 0.0008 -->
      <g transform="translate(15.609375 158.333994) scale(0.1 -0.1)">
       <use xlink:href="#DejaVuSans-30"/>
       <use xlink:href="#DejaVuSans-2e" x="63.623047"/>
       <use xlink:href="#DejaVuSans-30" x="95.410156"/>
       <use xlink:href="#DejaVuSans-30" x="159.033203"/>
       <use xlink:href="#DejaVuSans-30" x="222.65625"/>
       <use xlink:href="#DejaVuSans-38" x="286.279297"/>
      </g>
     </g>
    </g>
    <g id="ytick_6">
     <g id="line2d_29">
      <path d="M 57.6 119.296469 
L 414.72 119.296469 
" clip-path="url(#pf3989a0502)" style="fill: none; stroke: #b0b0b0; stroke-width: 0.8; stroke-linecap: square"/>
     </g>
     <g id="line2d_30">
      <g>
       <use xlink:href="#maa7c36394f" x="57.6" y="119.296469" style="stroke: #000000; stroke-width: 0.8"/>
      </g>
     </g>
     <g id="text_16">
      <!-- 0.0010 -->
      <g transform="translate(15.609375 123.095688) scale(0.1 -0.1)">
       <use xlink:href="#DejaVuSans-30"/>
       <use xlink:href="#DejaVuSans-2e" x="63.623047"/>
       <use xlink:href="#DejaVuSans-30" x="95.410156"/>
       <use xlink:href="#DejaVuSans-30" x="159.033203"/>
       <use xlink:href="#DejaVuSans-31" x="222.65625"/>
       <use xlink:href="#DejaVuSans-30" x="286.279297"/>
      </g>
     </g>
    </g>
    <g id="ytick_7">
     <g id="line2d_31">
      <path d="M 57.6 84.058163 
L 414.72 84.058163 
" clip-path="url(#pf3989a0502)" style="fill: none; stroke: #b0b0b0; stroke-width: 0.8; stroke-linecap: square"/>
     </g>
     <g id="line2d_32">
      <g>
       <use xlink:href="#maa7c36394f" x="57.6" y="84.058163" style="stroke: #000000; stroke-width: 0.8"/>
      </g>
     </g>
     <g id="text_17">
      <!-- 0.0012 -->
      <g transform="translate(15.609375 87.857381) scale(0.1 -0.1)">
       <use xlink:href="#DejaVuSans-30"/>
       <use xlink:href="#DejaVuSans-2e" x="63.623047"/>
       <use xlink:href="#DejaVuSans-30" x="95.410156"/>
       <use xlink:href="#DejaVuSans-30" x="159.033203"/>
       <use xlink:href="#DejaVuSans-31" x="222.65625"/>
       <use xlink:href="#DejaVuSans-32" x="286.279297"/>
      </g>
     </g>
    </g>
    <g id="ytick_8">
     <g id="line2d_33">
      <path d="M 57.6 48.819856 
L 414.72 48.819856 
" clip-path="url(#pf3989a0502)" style="fill: none; stroke: #b0b0b0; stroke-width: 0.8; stroke-linecap: square"/>
     </g>
     <g id="line2d_34">
      <g>
       <use xlink:href="#maa7c36394f" x="57.6" y="48.819856" style="stroke: #000000; stroke-width: 0.8"/>
      </g>
     </g>
     <g id="text_18">
      <!-- 0.0014 -->
      <g transform="translate(15.609375 52.619075) scale(0.1 -0.1)">
       <use xlink:href="#DejaVuSans-30"/>
       <use xlink:href="#DejaVuSans-2e" x="63.623047"/>
       <use xlink:href="#DejaVuSans-30" x="95.410156"/>
       <use xlink:href="#DejaVuSans-30" x="159.033203"/>
       <use xlink:href="#DejaVuSans-31" x="222.65625"/>
       <use xlink:href="#DejaVuSans-34" x="286.279297"/>
      </g>
     </g>
    </g>
    <g id="text_19">
     <!-- diskLoadMean -->
     <g transform="translate(9.529687 210.210813) rotate(-90) scale(0.1 -0.1)">
      <defs>
       <path id="DejaVuSans-64" d="M 2906 2969 
L 2906 4863 
L 3481 4863 
L 3481 0 
L 2906 0 
L 2906 525 
Q 2725 213 2448 61 
Q 2172 -91 1784 -91 
Q 1150 -91 751 415 
Q 353 922 353 1747 
Q 353 2572 751 3078 
Q 1150 3584 1784 3584 
Q 2172 3584 2448 3432 
Q 2725 3281 2906 2969 
z
M 947 1747 
Q 947 1113 1208 752 
Q 1469 391 1925 391 
Q 2381 391 2643 752 
Q 2906 1113 2906 1747 
Q 2906 2381 2643 2742 
Q 2381 3103 1925 3103 
Q 1469 3103 1208 2742 
Q 947 2381 947 1747 
z
" transform="scale(0.015625)"/>
       <path id="DejaVuSans-73" d="M 2834 3397 
L 2834 2853 
Q 2591 2978 2328 3040 
Q 2066 3103 1784 3103 
Q 1356 3103 1142 2972 
Q 928 2841 928 2578 
Q 928 2378 1081 2264 
Q 1234 2150 1697 2047 
L 1894 2003 
Q 2506 1872 2764 1633 
Q 3022 1394 3022 966 
Q 3022 478 2636 193 
Q 2250 -91 1575 -91 
Q 1294 -91 989 -36 
Q 684 19 347 128 
L 347 722 
Q 666 556 975 473 
Q 1284 391 1588 391 
Q 1994 391 2212 530 
Q 2431 669 2431 922 
Q 2431 1156 2273 1281 
Q 2116 1406 1581 1522 
L 1381 1569 
Q 847 1681 609 1914 
Q 372 2147 372 2553 
Q 372 3047 722 3315 
Q 1072 3584 1716 3584 
Q 2034 3584 2315 3537 
Q 2597 3491 2834 3397 
z
" transform="scale(0.015625)"/>
       <path id="DejaVuSans-6b" d="M 581 4863 
L 1159 4863 
L 1159 1991 
L 2875 3500 
L 3609 3500 
L 1753 1863 
L 3688 0 
L 2938 0 
L 1159 1709 
L 1159 0 
L 581 0 
L 581 4863 
z
" transform="scale(0.015625)"/>
       <path id="DejaVuSans-4c" d="M 628 4666 
L 1259 4666 
L 1259 531 
L 3531 531 
L 3531 0 
L 628 0 
L 628 4666 
z
" transform="scale(0.015625)"/>
       <path id="DejaVuSans-61" d="M 2194 1759 
Q 1497 1759 1228 1600 
Q 959 1441 959 1056 
Q 959 750 1161 570 
Q 1363 391 1709 391 
Q 2188 391 2477 730 
Q 2766 1069 2766 1631 
L 2766 1759 
L 2194 1759 
z
M 3341 1997 
L 3341 0 
L 2766 0 
L 2766 531 
Q 2569 213 2275 61 
Q 1981 -91 1556 -91 
Q 1019 -91 701 211 
Q 384 513 384 1019 
Q 384 1609 779 1909 
Q 1175 2209 1959 2209 
L 2766 2209 
L 2766 2266 
Q 2766 2663 2505 2880 
Q 2244 3097 1772 3097 
Q 1472 3097 1187 3025 
Q 903 2953 641 2809 
L 641 3341 
Q 956 3463 1253 3523 
Q 1550 3584 1831 3584 
Q 2591 3584 2966 3190 
Q 3341 2797 3341 1997 
z
" transform="scale(0.015625)"/>
       <path id="DejaVuSans-4d" d="M 628 4666 
L 1569 4666 
L 2759 1491 
L 3956 4666 
L 4897 4666 
L 4897 0 
L 4281 0 
L 4281 4097 
L 3078 897 
L 2444 897 
L 1241 4097 
L 1241 0 
L 628 0 
L 628 4666 
z
" transform="scale(0.015625)"/>
      </defs>
      <use xlink:href="#DejaVuSans-64"/>
      <use xlink:href="#DejaVuSans-69" x="63.476562"/>
      <use xlink:href="#DejaVuSans-73" x="91.259766"/>
      <use xlink:href="#DejaVuSans-6b" x="143.359375"/>
      <use xlink:href="#DejaVuSans-4c" x="201.269531"/>
      <use xlink:href="#DejaVuSans-6f" x="255.232422"/>
      <use xlink:href="#DejaVuSans-61" x="316.414062"/>
      <use xlink:href="#DejaVuSans-64" x="377.693359"/>
      <use xlink:href="#DejaVuSans-4d" x="441.169922"/>
      <use xlink:href="#DejaVuSans-65" x="527.449219"/>
      <use xlink:href="#DejaVuSans-61" x="588.972656"/>
      <use xlink:href="#DejaVuSans-6e" x="650.251953"/>
     </g>
    </g>
   </g>
   <g id="line2d_35">
    <path d="M 73.832727 295.488 
L 73.84724 295.464704 
L 73.959443 131.197942 
L 73.960973 131.190998 
L 74.072133 108.4256 
L 74.074595 108.338062 
L 74.074595 108.338062 
L 74.184977 96.568879 
L 74.82302 78.798311 
L 74.855358 78.491686 
L 74.96675 77.598776 
L 74.981599 77.495372 
L 74.981599 77.488575 
L 75.596384 73.205168 
L 75.622429 73.095188 
L 75.734306 72.667971 
L 76.561051 70.399061 
L 76.617858 70.288961 
L 76.617858 70.288961 
L 76.728755 70.074234 
L 76.781402 69.967217 
L 76.781402 69.96419 
L 76.989869 69.614608 
L 77.101685 69.471991 
L 77.183568 69.361067 
L 77.183568 69.361067 
L 77.293411 69.181953 
L 77.371402 69.072155 
L 77.482781 68.893293 
L 77.658042 68.602827 
L 77.769405 68.404979 
L 77.829225 68.294377 
L 77.829225 68.294196 
L 77.951376 68.080526 
L 78.020162 67.967885 
L 78.153068 67.746884 
L 78.153068 67.746884 
L 78.263999 67.559219 
L 78.887193 66.702126 
L 78.887193 66.702126 
L 78.997756 66.580596 
L 80.997536 64.768133 
L 81.165976 64.657164 
L 81.466005 64.459356 
L 81.663218 64.33411 
L 81.77346 64.265039 
L 82.266441 63.977425 
L 82.532252 63.846054 
L 82.788324 63.721603 
L 82.788324 63.721603 
L 82.898319 63.674544 
L 87.969794 62.219029 
L 88.516814 62.107919 
L 88.516814 62.107919 
L 88.627783 62.083982 
L 96.35158 60.891519 
L 97.644923 60.780513 
L 97.644923 60.780478 
L 98.366293 60.72565 
L 100.409375 60.614596 
L 101.771594 60.560266 
L 108.245334 60.423717 
L 108.358669 60.422427 
L 117.726997 60.311319 
L 117.851687 60.308892 
L 125.283784 60.197782 
L 141.087325 60.135317 
L 159.023162 60.011174 
L 240.422236 59.661686 
L 299.451501 59.550575 
L 311.795346 59.537921 
L 398.486035 59.430679 
L 398.486035 59.430679 
" clip-path="url(#pf3989a0502)" style="fill: none; stroke: #1f77b4; stroke-width: 1.5; stroke-linecap: square"/>
   </g>
   <g id="line2d_36">
    <path d="M 73.832727 295.488 
L 73.840207 295.488 
L 73.95082 107.393091 
L 73.951426 107.365531 
L 74.068102 79.905011 
L 74.091233 78.497016 
L 74.091233 78.497016 
L 74.200615 73.370326 
L 74.230686 72.471612 
L 74.477035 65.83321 
L 74.481424 65.739121 
L 74.744217 63.641901 
L 74.780741 63.483799 
L 74.891097 62.89761 
L 74.910829 62.790174 
L 75.022565 62.196292 
L 75.038174 62.089631 
L 75.26264 60.973325 
L 75.483712 60.164712 
L 75.600355 59.844456 
L 75.645299 59.733558 
L 75.789583 59.462144 
L 75.903517 59.238077 
L 76.00913 59.109352 
L 76.00913 59.109352 
L 76.120059 59.010377 
L 76.451542 58.899357 
L 80.352498 58.24983 
L 80.352505 58.249867 
L 82.565021 58.209206 
L 85.686677 58.320162 
L 85.686677 58.320162 
L 85.797735 58.336329 
L 86.633451 58.447429 
L 86.633451 58.447429 
L 86.744507 58.464164 
L 87.542078 58.575111 
L 87.542078 58.575168 
L 87.956622 58.634053 
L 88.912706 58.745104 
L 89.040449 58.76142 
L 90.297178 58.917862 
L 90.433822 58.934601 
L 104.259858 59.482901 
L 121.582335 59.767946 
L 145.143915 59.715268 
L 212.428169 59.606377 
L 212.428169 59.606377 
L 217.865595 59.600706 
L 398.486486 59.62583 
L 398.486486 59.62583 
" clip-path="url(#pf3989a0502)" style="fill: none; stroke: #ff7f0e; stroke-width: 1.5; stroke-linecap: square"/>
   </g>
   <g id="line2d_37">
    <path d="M 73.832727 295.488 
L 73.840505 295.488 
L 73.840505 295.417298 
L 73.988118 120.847787 
L 73.988805 120.843233 
L 74.099052 102.501763 
L 74.117383 101.169694 
L 74.254757 93.196166 
L 74.502959 84.247477 
L 74.543335 83.376783 
L 74.656913 81.106617 
L 74.684134 80.661509 
L 74.684134 80.661509 
L 74.794111 79.066493 
L 74.802194 78.95873 
L 75.000203 76.396442 
L 75.012035 76.29223 
L 75.012035 76.29223 
L 75.122823 75.149399 
L 75.881298 69.916772 
L 75.912055 69.802974 
L 76.061075 69.333434 
L 76.102804 69.212744 
L 77.471298 66.321128 
L 77.54605 66.211431 
L 77.657276 66.019894 
L 77.720466 65.909706 
L 77.720466 65.909706 
L 77.830438 65.722368 
L 78.596458 64.774388 
L 78.716749 64.664426 
L 78.716749 64.664159 
L 78.873836 64.540243 
L 81.495387 63.059895 
L 81.776619 62.944832 
L 81.897774 62.902588 
L 82.250859 62.791675 
L 82.36262 62.757503 
L 82.764911 62.64664 
L 87.20588 61.477578 
L 87.91164 61.366532 
L 88.039533 61.350566 
L 88.888256 61.239274 
L 89.00184 61.224781 
L 89.934522 61.113698 
L 90.349918 61.064019 
L 91.569824 60.952912 
L 91.569824 60.952912 
L 91.680233 60.94462 
L 94.036793 60.780457 
L 94.036793 60.780457 
L 94.147357 60.77289 
L 95.949414 60.661855 
L 95.949414 60.661855 
L 96.060322 60.656926 
L 104.127463 60.469543 
L 104.127463 60.469543 
L 104.237452 60.467249 
L 109.059031 60.35614 
L 109.177441 60.353478 
L 117.277596 60.242387 
L 117.277596 60.242384 
L 119.100126 60.227909 
L 178.621397 59.976747 
L 186.980932 59.979393 
L 186.980932 59.97939 
L 257.107259 59.844087 
L 257.593059 59.843529 
L 320.193196 59.732421 
L 320.193196 59.732421 
L 320.303984 59.732208 
L 398.485315 59.612052 
L 398.485315 59.612052 
" clip-path="url(#pf3989a0502)" style="fill: none; stroke: #2ca02c; stroke-width: 1.5; stroke-linecap: square"/>
   </g>
   <g id="line2d_38">
    <path d="M 73.832727 295.488 
L 73.841253 295.451969 
L 73.952038 125.742759 
L 73.952516 125.716807 
L 74.065667 97.791214 
L 74.067166 97.77642 
L 74.185693 83.636119 
L 74.192512 83.090479 
L 74.304053 77.233286 
L 74.307535 77.173276 
L 74.41779 74.39934 
L 74.426177 74.290144 
L 74.551193 72.784406 
L 74.648016 72.180588 
L 74.648016 72.180588 
L 74.758561 71.389568 
L 74.779095 71.290718 
L 74.779095 71.280708 
L 74.840184 70.994133 
L 75.020557 70.276101 
L 75.424162 69.731262 
L 75.571603 69.413846 
L 75.62483 69.303913 
L 75.746941 69.074101 
L 76.22015 68.388984 
L 76.331166 68.096141 
L 76.367948 67.986551 
L 76.489191 67.618012 
L 76.52342 67.507058 
L 77.078867 66.164555 
L 77.153346 66.046423 
L 77.394274 65.698064 
L 77.505443 65.53241 
L 77.784463 65.131829 
L 77.860672 65.021072 
L 77.959898 64.87042 
L 77.959898 64.87042 
L 78.070687 64.699789 
L 78.154769 64.589421 
L 78.265831 64.453168 
L 78.945318 63.871289 
L 79.111611 63.760815 
L 79.111611 63.760815 
L 79.222399 63.698142 
L 79.487713 63.557763 
L 79.599258 63.495237 
L 79.834779 63.383415 
L 79.834779 63.383415 
L 79.945819 63.331131 
L 80.158972 63.221347 
L 80.269181 63.164928 
L 80.549524 63.053957 
L 80.661289 63.016429 
L 81.076582 62.905339 
L 81.076582 62.905339 
L 81.186467 62.877552 
L 81.59603 62.767029 
L 81.59603 62.767029 
L 81.706774 62.732373 
L 81.980745 62.621722 
L 81.980745 62.621722 
L 82.090962 62.5709 
L 87.408609 60.71144 
L 87.883777 60.600413 
L 87.883777 60.600413 
L 87.994421 60.578239 
L 88.563943 60.46721 
L 88.753358 60.431756 
L 89.403882 60.320695 
L 90.793007 60.155377 
L 92.329988 60.044295 
L 93.366612 59.986132 
L 98.416202 59.852921 
L 107.401578 59.534392 
L 111.101854 59.423284 
L 111.101854 59.423284 
L 111.212503 59.420284 
L 129.075047 59.303376 
L 163.940197 59.414483 
L 163.940197 59.414483 
L 164.051244 59.415299 
L 177.376838 59.526408 
L 177.376838 59.526408 
L 177.485711 59.527339 
L 203.786676 59.694791 
L 227.437777 59.785143 
L 309.136225 59.896253 
L 398.486922 59.950646 
L 398.486922 59.950645 
" clip-path="url(#pf3989a0502)" style="fill: none; stroke: #d62728; stroke-width: 1.5; stroke-linecap: square"/>
   </g>
   <g id="line2d_39">
    <path d="M 73.832727 295.488 
L 73.845564 295.460879 
L 73.956594 130.214273 
L 73.957719 130.214273 
L 73.957719 130.214273 
L 74.066479 102.129712 
L 74.069164 102.120185 
L 74.180356 93.468931 
L 74.72766 76.578219 
L 74.735257 76.47095 
L 74.845954 75.112475 
L 74.857418 75.002409 
L 74.857418 75.002409 
L 74.968207 73.836251 
L 74.980399 73.730415 
L 75.068868 72.983834 
L 75.179901 72.067712 
L 75.415029 70.707842 
L 75.443309 70.600502 
L 75.749407 69.349434 
L 75.777534 69.240689 
L 76.350948 67.53642 
L 76.40318 67.426137 
L 76.40318 67.426137 
L 76.514158 67.207012 
L 76.571628 67.095975 
L 76.686874 66.871448 
L 77.299226 66.098597 
L 77.45222 65.97923 
L 77.45222 65.97923 
L 77.561385 65.908294 
L 77.730611 65.797568 
L 77.730611 65.797568 
L 77.841282 65.719018 
L 78.03277 65.565598 
L 78.143951 65.466425 
L 79.850606 64.58022 
L 80.702655 64.435648 
L 80.81307 64.419795 
L 82.478855 64.308687 
L 82.668409 64.290023 
L 83.526646 64.163511 
L 83.664361 64.143068 
L 84.415143 64.031991 
L 84.52704 64.014405 
L 85.22445 63.903498 
L 85.22445 63.903323 
L 86.58597 63.697672 
L 87.251223 63.586703 
L 87.38665 63.561542 
L 87.936128 63.450836 
L 87.936128 63.450541 
L 88.733257 63.275016 
L 89.040071 63.205772 
L 89.547763 63.088357 
L 89.818442 63.021331 
L 90.344289 62.890077 
L 90.456091 62.862727 
L 90.926243 62.751643 
L 91.771916 62.552404 
L 92.221974 62.441371 
L 92.221974 62.441371 
L 92.331545 62.412543 
L 93.465401 62.116004 
L 93.465401 62.116004 
L 93.576417 62.088327 
L 94.306142 61.916143 
L 94.470225 61.880668 
L 95.001829 61.770034 
L 95.001829 61.769647 
L 95.881059 61.60172 
L 96.142921 61.551632 
L 96.740354 61.440639 
L 96.740354 61.440639 
L 96.851243 61.419303 
L 97.463109 61.30835 
L 97.573787 61.289039 
L 98.269071 61.177975 
L 98.269071 61.177975 
L 98.379071 61.160842 
L 99.837332 60.984315 
L 99.94881 60.972052 
L 101.219369 60.855265 
L 103.172305 60.712103 
L 104.720756 60.601005 
L 108.491262 60.371994 
L 140.539769 59.897163 
L 189.413659 59.786053 
L 214.819066 59.655674 
L 260.046472 59.477437 
L 295.443528 59.418138 
L 398.485448 59.376802 
L 398.485448 59.376802 
" clip-path="url(#pf3989a0502)" style="fill: none; stroke: #9467bd; stroke-width: 1.5; stroke-linecap: square"/>
   </g>
   <g id="line2d_40">
    <path d="M 73.832727 295.488 
L 73.839632 295.460282 
L 73.950716 129.77257 
L 73.950964 129.766904 
L 74.061638 105.848249 
L 74.444617 86.521035 
L 74.452909 86.411716 
L 74.563559 84.145504 
L 74.667725 82.319135 
L 74.802751 80.003472 
L 74.810749 79.900349 
L 74.810749 79.900349 
L 74.920959 78.302051 
L 75.156506 76.260639 
L 75.171217 76.164824 
L 75.290832 75.377591 
L 75.442687 74.587288 
L 75.581395 73.863146 
L 75.605035 73.752469 
L 75.861674 72.713682 
L 75.900371 72.574248 
L 76.183049 71.654099 
L 76.220665 71.547272 
L 76.330944 71.224578 
L 76.538317 70.660277 
L 76.688853 70.30802 
L 76.762329 70.142325 
L 76.762329 70.142325 
L 76.872475 69.886913 
L 76.920192 69.779445 
L 76.920192 69.779445 
L 77.030981 69.514721 
L 78.799681 66.920472 
L 78.900872 66.810353 
L 79.011399 66.687942 
L 79.129322 66.557715 
L 79.250332 66.421425 
L 79.354805 66.310935 
L 79.466593 66.192375 
L 80.630435 65.331823 
L 80.834715 65.221154 
L 80.834715 65.221154 
L 80.944942 65.161852 
L 81.245664 65.011817 
L 82.884194 64.333944 
L 83.237159 64.223374 
L 83.237159 64.223374 
L 83.347589 64.192207 
L 83.739619 64.081511 
L 83.85066 64.052994 
L 84.134017 63.97824 
L 84.884375 63.791228 
L 84.884375 63.791228 
L 84.994209 63.761219 
L 85.509741 63.633818 
L 88.849517 62.878499 
L 89.928439 62.740415 
L 98.515205 62.021928 
L 100.158611 61.910849 
L 100.270161 61.903126 
L 102.005595 61.792015 
L 108.365292 61.450775 
L 108.950668 61.417223 
L 110.896105 61.306241 
L 110.896105 61.306241 
L 111.006487 61.300229 
L 129.950305 60.618461 
L 134.022467 60.507391 
L 134.022467 60.507391 
L 134.133256 60.504319 
L 139.522089 60.370746 
L 139.64102 60.368009 
L 145.574083 60.256915 
L 145.574083 60.256915 
L 145.683248 60.255026 
L 153.694633 60.143923 
L 190.657645 59.925275 
L 238.350736 59.761319 
L 398.486997 59.572842 
L 398.486997 59.572842 
" clip-path="url(#pf3989a0502)" style="fill: none; stroke: #8c564b; stroke-width: 1.5; stroke-linecap: square"/>
   </g>
   <g id="line2d_41">
    <path d="M 73.832727 295.488 
L 73.840241 295.384307 
L 73.951226 85.725414 
L 73.951616 85.723155 
L 74.06234 73.013343 
L 74.090828 71.543638 
L 74.262369 67.561799 
L 74.269793 67.460079 
L 74.269793 67.460079 
L 74.379554 65.717474 
L 74.389916 65.615748 
L 74.389916 65.615748 
L 74.500959 64.592089 
L 74.623638 64.339487 
L 74.649639 64.234334 
L 74.649639 64.230923 
L 74.823735 63.716503 
L 74.907493 63.594114 
L 75.019722 63.256985 
L 75.067082 63.147246 
L 75.183696 62.981132 
L 75.58612 62.746124 
L 75.586125 62.746477 
L 75.722232 62.682329 
L 75.833464 62.515269 
L 75.905891 62.405189 
L 76.139576 62.150453 
L 76.26797 62.039481 
L 76.378986 61.941146 
L 76.524519 61.817537 
L 76.524519 61.817537 
L 76.633354 61.686377 
L 76.755836 61.575705 
L 76.755836 61.575705 
L 76.866495 61.493671 
L 77.043967 61.384047 
L 77.043967 61.384047 
L 77.155049 61.310622 
L 77.322764 61.199765 
L 77.322764 61.199765 
L 77.433581 61.152519 
L 77.650915 61.041696 
L 77.800818 60.90479 
L 77.800818 60.90479 
L 77.911606 60.787495 
L 78.092601 60.625943 
L 78.239682 60.511543 
L 78.373021 60.402911 
L 78.373021 60.401312 
L 79.266227 60.027365 
L 80.374581 59.9156 
L 81.675378 59.695569 
L 82.847956 59.583442 
L 87.106031 59.428115 
L 87.218641 59.418434 
L 95.794581 59.032368 
L 103.78743 59.166128 
L 122.424399 59.124866 
L 138.137684 58.991807 
L 138.303849 58.990633 
L 165.423227 58.947537 
L 185.404772 59.00479 
L 221.194248 59.11806 
L 221.194248 59.11806 
L 221.303502 59.118552 
L 254.056194 59.229663 
L 264.571751 59.253313 
L 398.486892 59.342503 
L 398.486892 59.342503 
" clip-path="url(#pf3989a0502)" style="fill: none; stroke: #e377c2; stroke-width: 1.5; stroke-linecap: square"/>
   </g>
   <g id="line2d_42">
    <path d="M 73.832727 295.488 
L 73.841791 295.488 
L 73.841791 295.488 
L 73.952662 139.776944 
L 73.953661 139.776944 
L 73.953661 139.776944 
L 74.064332 117.613794 
L 74.065261 117.567722 
L 74.065261 117.567722 
L 74.176252 105.100175 
L 74.176519 105.095876 
L 74.288474 96.038979 
L 74.291856 95.940639 
L 74.403377 91.360493 
L 74.607702 87.543639 
L 74.654103 86.893977 
L 74.654103 86.893977 
L 74.765201 85.38672 
L 74.806691 84.778544 
L 74.806691 84.778544 
L 74.916855 83.140665 
L 74.926594 83.024842 
L 75.070879 81.04253 
L 75.099692 80.689467 
L 75.222425 79.299051 
L 75.234018 79.197258 
L 75.234018 79.197258 
L 75.344597 78.23707 
L 75.358953 78.126584 
L 75.47088 77.26321 
L 75.526861 76.839592 
L 75.882515 74.195319 
L 75.899559 74.084403 
L 75.899559 74.084403 
L 76.009803 73.308159 
L 76.307407 71.685895 
L 76.466689 70.902628 
L 76.498404 70.755657 
L 76.608969 70.240343 
L 76.641725 70.110995 
L 76.831203 69.394101 
L 76.862153 69.287766 
L 76.975983 68.878887 
L 77.009658 68.769243 
L 77.163683 68.279177 
L 77.203048 68.169469 
L 77.203048 68.169469 
L 77.313835 67.846247 
L 77.352389 67.739482 
L 77.352389 67.735634 
L 77.444509 67.471884 
L 77.599132 67.031255 
L 77.641446 66.920301 
L 77.753764 66.61407 
L 78.247762 65.362836 
L 78.293075 65.257322 
L 78.293075 65.256061 
L 78.438764 64.896952 
L 78.486713 64.788255 
L 78.826246 64.117503 
L 78.89044 64.007733 
L 78.89044 64.007733 
L 79.000011 63.822586 
L 79.419627 63.21289 
L 79.610643 62.970872 
L 79.72494 62.829665 
L 79.891777 62.636172 
L 80.004411 62.525399 
L 80.004411 62.525399 
L 80.115289 62.41757 
L 80.253606 62.306595 
L 80.365165 62.229252 
L 80.578576 62.090015 
L 80.688873 62.022601 
L 80.906732 61.902918 
L 81.055964 61.814235 
L 81.231581 61.703248 
L 83.316214 60.687641 
L 83.663268 60.576593 
L 83.663268 60.576593 
L 83.771429 60.547608 
L 84.228572 60.436971 
L 84.228572 60.436539 
L 85.653492 60.095601 
L 85.763749 60.073699 
L 86.371528 59.962592 
L 86.56796 59.932577 
L 87.2944 59.821571 
L 87.75329 59.755941 
L 89.586996 59.550579 
L 89.732279 59.538222 
L 100.089977 59.150492 
L 125.023448 59.240667 
L 125.023448 59.240673 
L 133.537062 59.358649 
L 144.842961 59.431321 
L 157.291445 59.542427 
L 160.081085 59.56321 
L 187.215901 59.674318 
L 187.215901 59.674319 
L 197.870418 59.704524 
L 252.175628 59.828183 
L 252.175628 59.828183 
L 252.286011 59.828482 
L 286.656351 59.870682 
L 398.486892 59.905231 
L 398.486892 59.905231 
" clip-path="url(#pf3989a0502)" style="fill: none; stroke: #7f7f7f; stroke-width: 1.5; stroke-linecap: square"/>
   </g>
   <g id="line2d_43">
    <path d="M 73.832727 295.488 
L 73.840739 295.418058 
L 73.951226 76.397607 
L 73.98288 70.757314 
L 74.13912 57.582269 
L 74.185246 56.855084 
L 74.22353 56.559416 
L 74.291161 56.952972 
L 74.314921 56.847833 
L 74.53601 55.725544 
L 74.615551 55.762869 
L 74.819701 55.6922 
L 74.972539 55.045099 
L 75.319667 54.852849 
L 75.436464 54.741963 
L 75.548909 54.555236 
L 75.772944 54.200705 
L 75.918148 54.006933 
L 76.625044 53.568417 
L 76.927903 53.679317 
L 76.927903 53.679331 
L 77.045814 53.744227 
L 77.409138 53.862787 
L 78.872989 54.263981 
L 78.872989 54.263981 
L 78.983778 54.298236 
L 79.29513 54.409174 
L 82.579733 55.278993 
L 82.579733 55.278993 
L 82.689393 55.310192 
L 83.061033 55.42119 
L 83.061033 55.42119 
L 83.171863 55.453955 
L 83.777303 55.621745 
L 83.927953 55.667857 
L 85.101859 55.965857 
L 85.525936 56.076868 
L 88.348115 56.745721 
L 88.895482 56.85667 
L 88.895482 56.8567 
L 89.016316 56.883247 
L 91.460253 57.285258 
L 92.279823 57.396309 
L 95.468096 57.706923 
L 97.165914 57.818028 
L 97.679823 57.849806 
L 99.618011 57.960863 
L 99.618011 57.960863 
L 99.729078 57.967475 
L 100.304655 58.001029 
L 102.461102 58.112114 
L 102.573043 58.116886 
L 104.917681 58.227995 
L 109.76694 58.417178 
L 109.9078 58.422937 
L 113.489689 58.534044 
L 113.489689 58.534044 
L 113.600418 58.537163 
L 118.53249 58.648264 
L 123.282561 58.738569 
L 144.984835 58.961971 
L 161.482908 59.030828 
L 264.052304 59.132022 
L 264.052304 59.132022 
L 264.162322 59.131939 
L 398.485674 59.067666 
L 398.485674 59.067666 
" clip-path="url(#pf3989a0502)" style="fill: none; stroke: #bcbd22; stroke-width: 1.5; stroke-linecap: square"/>
   </g>
   <g id="line2d_44">
    <path d="M 73.832727 295.488 
L 73.840743 295.411155 
L 73.951823 139.878021 
L 73.952576 139.822124 
L 74.076595 115.064418 
L 74.079779 114.889884 
L 74.190508 104.147027 
L 74.368407 93.249244 
L 74.407309 91.804818 
L 74.530176 87.667479 
L 74.627685 85.067339 
L 74.749133 82.470582 
L 74.760933 82.267016 
L 74.905883 79.841875 
L 74.911656 79.737309 
L 75.119624 76.969488 
L 75.179638 76.490301 
L 75.179638 76.490301 
L 75.290426 75.641783 
L 75.569223 73.729008 
L 75.691781 73.074081 
L 75.691781 73.074081 
L 75.802611 72.521095 
L 75.832852 72.398518 
L 75.944934 71.929042 
L 76.081692 71.401088 
L 76.121679 71.27561 
L 76.232499 70.856581 
L 76.264925 70.745878 
L 76.378579 70.320097 
L 76.411305 70.211531 
L 76.757559 69.164053 
L 76.800882 69.053775 
L 76.800882 69.053775 
L 76.911724 68.77715 
L 76.957933 68.666088 
L 76.957933 68.666088 
L 77.069039 68.414168 
L 77.13 68.303161 
L 77.13 68.303161 
L 77.24016 68.070325 
L 77.337597 67.872513 
L 77.474279 67.597339 
L 77.950565 66.811244 
L 78.038627 66.702373 
L 78.038627 66.700759 
L 78.249629 66.464726 
L 78.359836 66.351985 
L 78.516534 66.200345 
L 78.931644 65.856533 
L 79.235281 65.590275 
L 79.37222 65.479484 
L 79.489833 65.389641 
L 79.663105 65.270979 
L 79.83559 65.158232 
L 80.455837 64.822837 
L 80.714773 64.711785 
L 80.828668 64.680072 
L 81.30508 64.595333 
L 82.700667 64.432191 
L 82.700667 64.432191 
L 82.810485 64.420563 
L 83.664608 64.281323 
L 83.777002 64.259956 
L 87.612285 63.788104 
L 87.734058 63.768482 
L 88.362198 63.65763 
L 88.576472 63.612359 
L 92.61683 62.957077 
L 100.717797 62.100618 
L 102.450214 61.989513 
L 102.6306 61.978162 
L 104.408289 61.864619 
L 104.408289 61.864619 
L 104.518668 61.857621 
L 106.706843 61.746585 
L 106.706843 61.746553 
L 108.727917 61.668216 
L 115.290382 61.444545 
L 115.466429 61.438772 
L 120.19474 61.317695 
L 120.3052 61.314941 
L 160.015414 60.612665 
L 266.086158 60.167722 
L 312.498476 60.056611 
L 312.498476 60.056611 
L 312.609402 60.056334 
L 362.903128 59.945225 
L 362.903128 59.945223 
L 398.486022 59.889751 
L 398.486022 59.889751 
" clip-path="url(#pf3989a0502)" style="fill: none; stroke: #17becf; stroke-width: 1.5; stroke-linecap: square"/>
   </g>
   <g id="line2d_45">
    <path d="M 73.832727 295.488 
L 73.839392 295.488 
L 73.839392 295.488 
L 73.950415 91.174426 
L 74.083165 83.533306 
L 74.140198 80.908374 
L 74.292775 75.668391 
L 74.84613 69.078568 
L 74.892332 68.968254 
L 75.047523 68.497609 
L 75.191407 67.93733 
L 75.52783 66.814408 
L 75.59247 66.703528 
L 75.728611 66.492204 
L 76.02374 66.021362 
L 76.163846 65.828699 
L 76.233955 65.701932 
L 76.345185 65.498068 
L 76.43037 65.325268 
L 76.43037 65.325268 
L 76.541358 65.110406 
L 76.630032 64.944922 
L 76.630032 64.944922 
L 76.739661 64.713969 
L 76.790816 64.60363 
L 77.050361 64.117104 
L 77.118232 64.007563 
L 77.118232 64.006862 
L 77.361951 63.603982 
L 77.440379 63.493296 
L 77.658285 63.168112 
L 78.503553 62.295597 
L 78.730953 62.184622 
L 78.730953 62.184622 
L 78.840749 62.120746 
L 79.126674 61.961966 
L 79.236882 61.898992 
L 79.430091 61.787936 
L 79.627937 61.66854 
L 79.739006 61.604456 
L 80.521255 61.248426 
L 80.94388 61.137668 
L 80.94388 61.137485 
L 85.165855 60.086948 
L 85.723201 59.975842 
L 85.723201 59.975842 
L 85.83395 59.949621 
L 86.38712 59.838919 
L 86.38712 59.83872 
L 87.549623 59.651692 
L 88.225814 59.540629 
L 90.043651 59.32243 
L 92.138251 59.132779 
L 94.063857 59.02167 
L 94.197172 59.015235 
L 104.567775 58.749532 
L 104.567775 58.749532 
L 104.678701 58.745251 
L 107.817416 58.63414 
L 107.817416 58.63414 
L 107.928356 58.631227 
L 115.601567 58.520118 
L 115.601567 58.520116 
L 118.104943 58.502087 
L 146.572648 58.504619 
L 219.532843 58.705778 
L 398.487076 58.787843 
L 398.487076 58.787843 
" clip-path="url(#pf3989a0502)" style="fill: none; stroke: #1f77b4; stroke-width: 1.5; stroke-linecap: square"/>
   </g>
   <g id="line2d_46">
    <path d="M 73.832727 295.488 
L 73.840478 295.488 
L 73.840478 295.488 
L 73.951284 84.942859 
L 73.954372 84.622981 
L 74.064449 69.536219 
L 74.277504 64.584879 
L 74.277504 64.584879 
L 74.38847 61.349811 
L 74.39409 61.238911 
L 74.39409 61.238911 
L 74.504893 58.860374 
L 74.750352 56.581132 
L 74.770565 56.47004 
L 74.770565 56.47004 
L 74.881119 56.059197 
L 74.942718 55.950288 
L 75.242985 55.40299 
L 75.84212 55.292013 
L 75.953127 55.237806 
L 76.506209 55.127732 
L 76.63386 55.06841 
L 77.610574 55.179464 
L 77.724118 55.25068 
L 77.857632 55.364232 
L 77.99464 55.494332 
L 78.407516 55.816921 
L 78.407516 55.816921 
L 78.518474 55.919371 
L 78.79552 56.139889 
L 78.950517 56.253296 
L 79.592992 56.617327 
L 79.833967 56.727938 
L 79.833967 56.727938 
L 79.944535 56.769936 
L 80.267286 56.882186 
L 81.161754 57.297634 
L 81.272998 57.355411 
L 81.523845 57.495871 
L 81.72115 57.60697 
L 82.593738 58.100332 
L 82.785235 58.203343 
L 82.992391 58.314067 
L 84.88194 59.153256 
L 85.254342 59.277336 
L 85.909516 59.46044 
L 86.3997 59.571088 
L 86.3997 59.571443 
L 87.406535 59.788427 
L 87.555177 59.819688 
L 88.332387 59.956746 
L 90.246124 60.181063 
L 95.50018 60.292174 
L 95.618191 60.294281 
L 100.2553 60.405364 
L 100.366349 60.408291 
L 126.481976 60.765529 
L 194.67768 60.654427 
L 194.67768 60.654425 
L 238.508507 60.452098 
L 274.094276 60.340987 
L 274.094276 60.340987 
L 280.209421 60.326528 
L 327.246391 60.206226 
L 340.799954 60.181444 
L 398.485674 60.122255 
L 398.485674 60.122255 
" clip-path="url(#pf3989a0502)" style="fill: none; stroke: #ff7f0e; stroke-width: 1.5; stroke-linecap: square"/>
   </g>
   <g id="line2d_47">
    <path d="M 73.832727 295.488 
L 73.840813 295.488 
L 73.840813 295.488 
L 73.951226 97.486818 
L 74.186762 76.638503 
L 74.190411 76.527902 
L 74.303071 71.838947 
L 74.96579 60.916319 
L 75.056069 60.542588 
L 75.166857 60.241901 
L 75.209263 60.133028 
L 75.332631 59.852683 
L 75.617922 59.501665 
L 75.658503 59.53926 
L 75.908136 59.772505 
L 76.516135 59.661465 
L 76.63177 59.561258 
L 76.727525 59.450375 
L 78.358293 58.768003 
L 79.363218 58.879027 
L 79.363218 58.87911 
L 80.359502 58.913226 
L 80.359502 58.913213 
L 82.666629 58.80884 
L 82.885856 58.784765 
L 87.400448 58.800588 
L 87.400448 58.800588 
L 87.510865 58.80794 
L 95.931928 59.190946 
L 104.418505 59.302044 
L 104.534546 59.3035 
L 110.075595 59.414608 
L 134.337445 59.75383 
L 175.728254 59.864941 
L 177.934091 59.87284 
L 398.486798 59.837961 
L 398.486798 59.837961 
" clip-path="url(#pf3989a0502)" style="fill: none; stroke: #2ca02c; stroke-width: 1.5; stroke-linecap: square"/>
   </g>
   <g id="line2d_48">
    <path d="M 73.832727 295.488 
L 73.840499 295.429642 
L 73.95162 105.187496 
L 73.969105 101.935242 
L 74.080276 90.001799 
L 74.085146 89.883092 
L 74.085146 89.883092 
L 74.196177 86.171557 
L 74.256863 85.79908 
L 74.368959 83.930896 
L 74.37328 83.833186 
L 74.969126 74.324518 
L 74.980381 74.21675 
L 74.980381 74.21675 
L 75.090764 72.879348 
L 75.118361 72.551758 
L 75.254296 71.149377 
L 75.392878 70.102444 
L 75.409852 69.99765 
L 75.520931 69.375244 
L 75.603312 68.994895 
L 75.603312 68.994895 
L 75.714101 68.467173 
L 75.740059 68.357506 
L 75.95325 67.612744 
L 75.989353 67.502471 
L 76.112223 67.098769 
L 76.142829 66.993429 
L 76.253949 66.663329 
L 76.294106 66.544499 
L 76.582957 65.679295 
L 76.623539 65.573044 
L 76.623539 65.573044 
L 76.734459 65.291872 
L 76.796903 65.170364 
L 77.496677 64.133516 
L 77.59101 64.022462 
L 77.59101 64.022462 
L 77.701642 63.920561 
L 78.029621 63.638346 
L 78.275251 63.38962 
L 78.366757 63.27853 
L 78.366757 63.278513 
L 78.775999 62.812342 
L 78.991094 62.589926 
L 79.109176 62.47933 
L 79.109176 62.47933 
L 79.219185 62.383493 
L 80.647262 61.313486 
L 80.859875 61.203406 
L 80.859875 61.202723 
L 84.213963 60.14525 
L 84.898975 60.03009 
L 85.010178 60.016839 
L 91.810236 59.977756 
L 95.772665 59.991293 
L 101.625188 60.05666 
L 101.625188 60.05666 
L 101.73571 60.057683 
L 123.920613 59.986535 
L 131.191523 59.875441 
L 142.562118 59.734059 
L 160.257803 59.622952 
L 160.257803 59.622952 
L 160.368708 59.622658 
L 237.705528 59.511548 
L 238.522447 59.510075 
L 374.577401 59.393988 
L 376.392687 59.391916 
L 398.486892 59.377509 
L 398.486892 59.377509 
" clip-path="url(#pf3989a0502)" style="fill: none; stroke: #d62728; stroke-width: 1.5; stroke-linecap: square"/>
   </g>
   <g id="line2d_49">
    <path d="M 73.832727 295.488 
L 73.840291 295.431872 
L 73.951302 93.2404 
L 74.077122 83.86767 
L 74.082305 83.781905 
L 74.082305 83.757142 
L 74.431394 76.479321 
L 74.448505 76.369641 
L 74.559326 75.328884 
L 75.091335 70.307219 
L 75.107402 70.200344 
L 75.107402 70.196654 
L 76.195501 67.068292 
L 76.463647 66.715978 
L 76.463647 66.715978 
L 76.574268 66.587497 
L 76.699427 66.476717 
L 76.699427 66.476717 
L 76.810216 66.426413 
L 77.23876 66.31555 
L 77.23876 66.31555 
L 77.349358 66.268378 
L 77.645389 66.113917 
L 77.645389 66.113917 
L 77.754412 66.072354 
L 78.202172 65.961845 
L 78.202172 65.961845 
L 78.313006 65.929568 
L 78.756904 65.818502 
L 79.599224 65.616945 
L 79.709381 65.550161 
L 80.278899 65.291902 
L 80.460145 65.228574 
L 80.836744 65.117738 
L 80.836744 65.11765 
L 81.059853 65.046911 
L 81.428929 64.935826 
L 81.543435 64.895213 
L 81.888353 64.790338 
L 82.470974 64.617275 
L 82.634481 64.565614 
L 85.027162 63.89389 
L 85.632682 63.782818 
L 87.085963 63.611021 
L 87.870868 63.499974 
L 90.954266 63.159918 
L 91.066452 63.149172 
L 96.046405 62.763926 
L 96.164095 62.75617 
L 98.726756 62.614729 
L 98.838215 62.606912 
L 105.304427 62.315247 
L 108.293025 62.204145 
L 108.406417 62.200509 
L 125.814509 61.651938 
L 126.010713 61.644459 
L 131.202258 61.464088 
L 159.903215 60.871272 
L 175.380619 60.68508 
L 180.969901 60.627986 
L 192.515852 60.516881 
L 202.301793 60.427318 
L 217.834074 60.316214 
L 217.834074 60.316214 
L 217.945039 60.315511 
L 236.061804 60.204401 
L 236.061804 60.204401 
L 236.172386 60.20374 
L 278.915396 60.092629 
L 278.915396 60.092629 
L 279.02618 60.092416 
L 337.404758 59.981304 
L 337.404758 59.981304 
L 337.514734 59.981196 
L 398.485268 59.921475 
L 398.485268 59.921474 
" clip-path="url(#pf3989a0502)" style="fill: none; stroke: #9467bd; stroke-width: 1.5; stroke-linecap: square"/>
   </g>
   <g id="line2d_50">
    <path d="M 73.832727 295.488 
L 73.840844 295.385126 
L 73.840844 295.385126 
L 73.95186 115.135346 
L 73.952368 115.026566 
L 73.952368 115.026566 
L 74.063232 90.897759 
L 74.065667 90.82209 
L 74.065667 90.82209 
L 74.174908 80.551391 
L 74.177921 80.508697 
L 74.28941 75.182042 
L 74.291878 75.125902 
L 74.409802 71.23305 
L 74.413323 71.139861 
L 74.525053 68.379238 
L 74.530329 68.27265 
L 74.530329 68.27265 
L 74.641283 65.967184 
L 74.647796 65.860247 
L 74.76053 64.395164 
L 74.771234 64.291297 
L 74.888478 63.061868 
L 74.899337 62.953041 
L 75.264454 60.544869 
L 75.297456 60.435746 
L 75.407302 60.111703 
L 75.866688 59.767993 
L 75.866688 59.767993 
L 75.97578 59.64079 
L 76.089888 59.521206 
L 76.089888 59.521206 
L 76.200105 59.439348 
L 76.42915 59.297556 
L 76.540346 59.268963 
L 76.655149 59.21713 
L 77.081302 59.232187 
L 77.081302 59.232187 
L 77.192307 59.2943 
L 77.320735 59.371475 
L 78.963959 59.982079 
L 79.506472 60.09277 
L 79.506472 60.092926 
L 79.718784 60.137623 
L 81.580203 60.248329 
L 81.580203 60.248439 
L 81.850219 60.303962 
L 82.612604 60.414988 
L 82.612604 60.414993 
L 82.728262 60.431707 
L 83.464901 60.542675 
L 83.575974 60.559861 
L 86.115627 60.776517 
L 91.62215 60.725082 
L 98.245873 60.568165 
L 98.891889 60.553893 
L 101.775667 60.442389 
L 107.095798 60.211786 
L 110.753505 60.100682 
L 142.7086 59.592367 
L 302.715275 59.027141 
L 398.485268 59.12125 
L 398.485268 59.12125 
" clip-path="url(#pf3989a0502)" style="fill: none; stroke: #8c564b; stroke-width: 1.5; stroke-linecap: square"/>
   </g>
   <g id="line2d_51">
    <path d="M 73.832727 295.488 
L 73.840587 295.488 
L 73.951312 122.160215 
L 74.323767 82.437322 
L 74.326889 82.344254 
L 74.571152 73.015152 
L 74.576592 72.907299 
L 74.576592 72.905667 
L 74.691891 70.074454 
L 74.705436 69.871261 
L 74.834089 67.936126 
L 74.843901 67.827695 
L 74.969563 66.234683 
L 75.024171 65.633549 
L 75.135373 64.553446 
L 75.232682 63.567162 
L 75.41741 61.825586 
L 75.43208 61.705802 
L 75.871566 59.221257 
L 75.928021 59.000863 
L 76.038784 58.590989 
L 76.104903 58.360357 
L 76.104903 58.360357 
L 76.21572 58.026841 
L 76.35413 57.611813 
L 76.399729 57.504211 
L 76.510974 57.255666 
L 76.565405 57.146201 
L 76.693233 56.945672 
L 76.88435 56.753459 
L 77.033576 56.642595 
L 77.14978 56.544592 
L 77.30085 56.434144 
L 77.30085 56.433933 
L 77.468495 56.353326 
L 78.010659 56.242267 
L 78.12182 56.220533 
L 78.633151 56.109477 
L 78.633151 56.109477 
L 78.743981 56.100043 
L 79.276004 55.988969 
L 81.731659 55.69869 
L 81.842767 55.71773 
L 88.67782 56.337941 
L 90.023374 56.464831 
L 90.135257 56.475057 
L 90.447737 56.50244 
L 91.883677 56.613512 
L 92.222785 56.643235 
L 93.824821 56.791796 
L 93.945078 56.804051 
L 95.062959 56.915148 
L 95.179489 56.927521 
L 96.276353 57.038631 
L 96.276353 57.038631 
L 96.387027 57.049514 
L 97.59242 57.164898 
L 97.704578 57.174101 
L 99.114673 57.295469 
L 99.226616 57.30536 
L 100.426012 57.416454 
L 105.310677 57.772259 
L 108.185645 57.883367 
L 108.185645 57.883367 
L 108.296746 57.888274 
L 110.760561 57.999365 
L 110.760561 57.99938 
L 112.748364 58.095464 
L 115.132847 58.206549 
L 115.132847 58.206549 
L 115.243708 58.210911 
L 116.9449 58.271079 
L 120.554578 58.382164 
L 120.554578 58.382171 
L 121.529353 58.410755 
L 125.868362 58.52186 
L 125.868362 58.52186 
L 125.977933 58.524381 
L 131.167536 58.639442 
L 138.112743 58.744197 
L 150.142378 58.855299 
L 150.142378 58.855302 
L 154.95944 58.886802 
L 177.044786 58.999701 
L 197.579403 59.114849 
L 235.28162 59.36685 
L 235.400343 59.367552 
L 256.718934 59.478661 
L 257.190807 59.480971 
L 308.915102 59.592082 
L 308.915102 59.592082 
L 317.952605 59.593264 
L 398.486243 59.590008 
L 398.486243 59.590008 
" clip-path="url(#pf3989a0502)" style="fill: none; stroke: #e377c2; stroke-width: 1.5; stroke-linecap: square"/>
   </g>
   <g id="line2d_52">
    <path d="M 73.832727 295.488 
L 73.840193 295.396299 
L 73.951384 98.161907 
L 73.956172 97.086116 
L 74.067347 83.355535 
L 74.344584 75.815581 
L 74.455765 73.695428 
L 74.549402 72.64649 
L 74.549402 72.64649 
L 74.659 71.501258 
L 74.672365 71.413966 
L 74.672365 71.412094 
L 74.791676 70.356346 
L 74.806318 70.246043 
L 74.927219 69.405684 
L 75.270748 68.404887 
L 75.44079 68.258291 
L 75.552719 68.076059 
L 75.600066 67.967921 
L 75.600066 67.967921 
L 75.711029 67.693131 
L 75.767263 67.582686 
L 75.767263 67.582027 
L 76.227299 67.168355 
L 76.338687 67.02559 
L 77.934332 65.820965 
L 78.068856 65.686926 
L 78.194867 65.575941 
L 78.194867 65.575941 
L 78.304623 65.488973 
L 78.49477 65.343061 
L 79.155882 64.856497 
L 79.266206 64.782093 
L 79.464672 64.671269 
L 79.464672 64.671269 
L 79.5747 64.597157 
L 79.766195 64.472551 
L 79.893417 64.39791 
L 80.075835 64.287769 
L 80.075835 64.287673 
L 80.200529 64.207801 
L 80.400083 64.096883 
L 80.400083 64.096883 
L 80.510872 64.035171 
L 81.121289 63.765005 
L 81.518012 63.621906 
L 81.672324 63.565688 
L 82.65594 63.205863 
L 82.986996 63.095058 
L 83.098456 63.05952 
L 83.449164 62.939134 
L 83.560575 62.905238 
L 86.196341 62.392734 
L 89.272624 61.871919 
L 90.03015 61.760923 
L 90.03015 61.760863 
L 91.314158 61.619509 
L 92.34694 61.508406 
L 92.735495 61.465391 
L 94.325688 61.30192 
L 94.44237 61.288612 
L 95.417533 61.177625 
L 95.528863 61.164487 
L 96.475846 61.053382 
L 97.433933 60.934337 
L 98.385947 60.823319 
L 98.385947 60.823319 
L 98.496329 60.812071 
L 99.710897 60.70099 
L 100.25574 60.654767 
L 102.007468 60.543774 
L 102.007468 60.543691 
L 109.395345 60.238152 
L 115.605219 60.127045 
L 115.605219 60.127043 
L 119.128722 60.113667 
L 138.59685 60.002557 
L 138.59685 60.002557 
L 138.707053 60.001864 
L 156.946707 59.890753 
L 160.071222 59.878726 
L 187.924577 59.767617 
L 188.247624 59.766709 
L 240.212919 59.655601 
L 240.212919 59.6556 
L 268.004573 59.592522 
L 398.486219 59.423107 
L 398.486219 59.423107 
" clip-path="url(#pf3989a0502)" style="fill: none; stroke: #7f7f7f; stroke-width: 1.5; stroke-linecap: square"/>
   </g>
   <g id="line2d_53">
    <path d="M 73.832727 295.488 
L 73.841352 295.417701 
L 73.841352 295.417701 
L 73.951984 111.659989 
L 73.953255 111.659989 
L 73.953255 111.619105 
L 74.082335 92.805492 
L 74.253866 84.826725 
L 74.258531 84.740069 
L 74.370186 80.990297 
L 74.521213 77.157615 
L 74.528186 77.049286 
L 74.639494 74.621626 
L 74.968278 70.282642 
L 74.980658 70.172533 
L 75.141718 68.999646 
L 75.161795 68.890645 
L 75.29002 68.287886 
L 75.329385 68.170824 
L 75.449964 67.794895 
L 75.484481 67.684899 
L 75.595111 67.315564 
L 75.6284 67.204978 
L 75.740925 66.777523 
L 75.768824 66.669698 
L 75.944554 65.994087 
L 76.05627 65.597903 
L 76.172452 65.191263 
L 76.203944 65.081916 
L 76.315117 64.685418 
L 76.427581 64.294568 
L 76.538772 63.89964 
L 76.572406 63.788909 
L 76.572406 63.788551 
L 76.733232 63.264651 
L 76.768416 63.158482 
L 76.768416 63.156999 
L 76.937852 62.645729 
L 76.979389 62.535944 
L 77.161654 62.060945 
L 77.208729 61.953115 
L 77.208729 61.951713 
L 77.40364 61.592583 
L 77.488903 61.473489 
L 77.605151 61.323802 
L 77.743122 61.147454 
L 78.00576 60.800335 
L 78.095848 60.690314 
L 78.095848 60.690314 
L 78.206768 60.564353 
L 78.306248 60.455016 
L 78.417256 60.325427 
L 78.514652 60.216563 
L 78.514652 60.214483 
L 78.88155 59.875195 
L 78.992903 59.776737 
L 79.125814 59.666015 
L 79.125814 59.666015 
L 79.235773 59.577294 
L 79.39893 59.466491 
L 79.39893 59.466488 
L 79.510531 59.395197 
L 79.692588 59.270728 
L 79.837619 59.191349 
L 80.046292 59.080741 
L 80.15781 59.033413 
L 88.861804 58.529843 
L 94.921102 58.418735 
L 100.670297 58.267842 
L 104.373859 58.199702 
L 117.833973 58.240998 
L 117.833973 58.241003 
L 210.012223 59.105299 
L 269.760315 59.216408 
L 269.944133 59.216806 
L 375.589086 59.327917 
L 398.487273 59.353731 
L 398.487273 59.353731 
" clip-path="url(#pf3989a0502)" style="fill: none; stroke: #bcbd22; stroke-width: 1.5; stroke-linecap: square"/>
   </g>
   <g id="line2d_54">
    <path d="M 73.832727 295.488 
L 73.83657 295.488 
L 73.83657 295.488 
L 73.947109 139.760321 
L 73.95958 132.108694 
L 74.090194 93.067356 
L 74.260877 80.479436 
L 74.263087 80.385048 
L 74.378308 76.064417 
L 74.382826 75.954196 
L 74.810872 67.865207 
L 74.873399 67.533719 
L 75.06977 66.413503 
L 75.116223 66.188194 
L 75.852079 63.388691 
L 75.904023 63.277582 
L 75.904023 63.277582 
L 76.015088 63.105123 
L 76.087306 62.991769 
L 76.33719 62.611433 
L 76.501283 62.5004 
L 76.614467 62.461886 
L 77.616982 62.371934 
L 77.616982 62.371484 
L 77.975146 62.242066 
L 79.148134 61.851704 
L 79.293665 61.784326 
L 79.646447 61.673319 
L 80.15781 61.525227 
L 80.15781 61.525227 
L 80.268426 61.490239 
L 81.369893 61.196911 
L 81.946251 61.085938 
L 81.946251 61.085829 
L 83.215993 61.023948 
L 86.771835 60.912861 
L 86.771835 60.912861 
L 86.880594 60.908228 
L 89.812631 60.79714 
L 89.812631 60.79714 
L 89.922268 60.796042 
L 97.963749 60.684931 
L 147.135097 60.704859 
L 176.61924 60.594264 
L 177.071663 60.591161 
L 198.020512 60.480052 
L 217.312597 60.419352 
L 275.227207 60.291196 
L 299.144888 60.232314 
L 363.827976 60.114145 
L 371.295448 60.10707 
L 398.487009 60.08535 
L 398.487009 60.08535 
" clip-path="url(#pf3989a0502)" style="fill: none; stroke: #17becf; stroke-width: 1.5; stroke-linecap: square"/>
   </g>
   <g id="patch_3">
    <path d="M 57.6 307.584 
L 57.6 41.472 
" style="fill: none; stroke: #000000; stroke-width: 0.8; stroke-linejoin: miter; stroke-linecap: square"/>
   </g>
   <g id="patch_4">
    <path d="M 414.72 307.584 
L 414.72 41.472 
" style="fill: none; stroke: #000000; stroke-width: 0.8; stroke-linejoin: miter; stroke-linecap: square"/>
   </g>
   <g id="patch_5">
    <path d="M 57.6 307.584 
L 414.72 307.584 
" style="fill: none; stroke: #000000; stroke-width: 0.8; stroke-linejoin: miter; stroke-linecap: square"/>
   </g>
   <g id="patch_6">
    <path d="M 57.6 41.472 
L 414.72 41.472 
" style="fill: none; stroke: #000000; stroke-width: 0.8; stroke-linejoin: miter; stroke-linecap: square"/>
   </g>
   <g id="text_20">
    <!-- diskLoadMean vs. TimePoint for Each Run -->
    <g transform="translate(111.325312 35.472) scale(0.12 -0.12)">
     <defs>
      <path id="DejaVuSans-20" transform="scale(0.015625)"/>
      <path id="DejaVuSans-76" d="M 191 3500 
L 800 3500 
L 1894 563 
L 2988 3500 
L 3597 3500 
L 2284 0 
L 1503 0 
L 191 3500 
z
" transform="scale(0.015625)"/>
      <path id="DejaVuSans-66" d="M 2375 4863 
L 2375 4384 
L 1825 4384 
Q 1516 4384 1395 4259 
Q 1275 4134 1275 3809 
L 1275 3500 
L 2222 3500 
L 2222 3053 
L 1275 3053 
L 1275 0 
L 697 0 
L 697 3053 
L 147 3053 
L 147 3500 
L 697 3500 
L 697 3744 
Q 697 4328 969 4595 
Q 1241 4863 1831 4863 
L 2375 4863 
z
" transform="scale(0.015625)"/>
      <path id="DejaVuSans-72" d="M 2631 2963 
Q 2534 3019 2420 3045 
Q 2306 3072 2169 3072 
Q 1681 3072 1420 2755 
Q 1159 2438 1159 1844 
L 1159 0 
L 581 0 
L 581 3500 
L 1159 3500 
L 1159 2956 
Q 1341 3275 1631 3429 
Q 1922 3584 2338 3584 
Q 2397 3584 2469 3576 
Q 2541 3569 2628 3553 
L 2631 2963 
z
" transform="scale(0.015625)"/>
      <path id="DejaVuSans-45" d="M 628 4666 
L 3578 4666 
L 3578 4134 
L 1259 4134 
L 1259 2753 
L 3481 2753 
L 3481 2222 
L 1259 2222 
L 1259 531 
L 3634 531 
L 3634 0 
L 628 0 
L 628 4666 
z
" transform="scale(0.015625)"/>
      <path id="DejaVuSans-63" d="M 3122 3366 
L 3122 2828 
Q 2878 2963 2633 3030 
Q 2388 3097 2138 3097 
Q 1578 3097 1268 2742 
Q 959 2388 959 1747 
Q 959 1106 1268 751 
Q 1578 397 2138 397 
Q 2388 397 2633 464 
Q 2878 531 3122 666 
L 3122 134 
Q 2881 22 2623 -34 
Q 2366 -91 2075 -91 
Q 1284 -91 818 406 
Q 353 903 353 1747 
Q 353 2603 823 3093 
Q 1294 3584 2113 3584 
Q 2378 3584 2631 3529 
Q 2884 3475 3122 3366 
z
" transform="scale(0.015625)"/>
      <path id="DejaVuSans-68" d="M 3513 2113 
L 3513 0 
L 2938 0 
L 2938 2094 
Q 2938 2591 2744 2837 
Q 2550 3084 2163 3084 
Q 1697 3084 1428 2787 
Q 1159 2491 1159 1978 
L 1159 0 
L 581 0 
L 581 4863 
L 1159 4863 
L 1159 2956 
Q 1366 3272 1645 3428 
Q 1925 3584 2291 3584 
Q 2894 3584 3203 3211 
Q 3513 2838 3513 2113 
z
" transform="scale(0.015625)"/>
      <path id="DejaVuSans-52" d="M 2841 2188 
Q 3044 2119 3236 1894 
Q 3428 1669 3622 1275 
L 4263 0 
L 3584 0 
L 2988 1197 
Q 2756 1666 2539 1819 
Q 2322 1972 1947 1972 
L 1259 1972 
L 1259 0 
L 628 0 
L 628 4666 
L 2053 4666 
Q 2853 4666 3247 4331 
Q 3641 3997 3641 3322 
Q 3641 2881 3436 2590 
Q 3231 2300 2841 2188 
z
M 1259 4147 
L 1259 2491 
L 2053 2491 
Q 2509 2491 2742 2702 
Q 2975 2913 2975 3322 
Q 2975 3731 2742 3939 
Q 2509 4147 2053 4147 
L 1259 4147 
z
" transform="scale(0.015625)"/>
      <path id="DejaVuSans-75" d="M 544 1381 
L 544 3500 
L 1119 3500 
L 1119 1403 
Q 1119 906 1312 657 
Q 1506 409 1894 409 
Q 2359 409 2629 706 
Q 2900 1003 2900 1516 
L 2900 3500 
L 3475 3500 
L 3475 0 
L 2900 0 
L 2900 538 
Q 2691 219 2414 64 
Q 2138 -91 1772 -91 
Q 1169 -91 856 284 
Q 544 659 544 1381 
z
M 1991 3584 
L 1991 3584 
z
" transform="scale(0.015625)"/>
     </defs>
     <use xlink:href="#DejaVuSans-64"/>
     <use xlink:href="#DejaVuSans-69" x="63.476562"/>
     <use xlink:href="#DejaVuSans-73" x="91.259766"/>
     <use xlink:href="#DejaVuSans-6b" x="143.359375"/>
     <use xlink:href="#DejaVuSans-4c" x="201.269531"/>
     <use xlink:href="#DejaVuSans-6f" x="255.232422"/>
     <use xlink:href="#DejaVuSans-61" x="316.414062"/>
     <use xlink:href="#DejaVuSans-64" x="377.693359"/>
     <use xlink:href="#DejaVuSans-4d" x="441.169922"/>
     <use xlink:href="#DejaVuSans-65" x="527.449219"/>
     <use xlink:href="#DejaVuSans-61" x="588.972656"/>
     <use xlink:href="#DejaVuSans-6e" x="650.251953"/>
     <use xlink:href="#DejaVuSans-20" x="713.630859"/>
     <use xlink:href="#DejaVuSans-76" x="745.417969"/>
     <use xlink:href="#DejaVuSans-73" x="804.597656"/>
     <use xlink:href="#DejaVuSans-2e" x="856.697266"/>
     <use xlink:href="#DejaVuSans-20" x="888.484375"/>
     <use xlink:href="#DejaVuSans-54" x="920.271484"/>
     <use xlink:href="#DejaVuSans-69" x="978.230469"/>
     <use xlink:href="#DejaVuSans-6d" x="1006.013672"/>
     <use xlink:href="#DejaVuSans-65" x="1103.425781"/>
     <use xlink:href="#DejaVuSans-50" x="1164.949219"/>
     <use xlink:href="#DejaVuSans-6f" x="1221.626953"/>
     <use xlink:href="#DejaVuSans-69" x="1282.808594"/>
     <use xlink:href="#DejaVuSans-6e" x="1310.591797"/>
     <use xlink:href="#DejaVuSans-74" x="1373.970703"/>
     <use xlink:href="#DejaVuSans-20" x="1413.179688"/>
     <use xlink:href="#DejaVuSans-66" x="1444.966797"/>
     <use xlink:href="#DejaVuSans-6f" x="1480.171875"/>
     <use xlink:href="#DejaVuSans-72" x="1541.353516"/>
     <use xlink:href="#DejaVuSans-20" x="1582.466797"/>
     <use xlink:href="#DejaVuSans-45" x="1614.253906"/>
     <use xlink:href="#DejaVuSans-61" x="1677.4375"/>
     <use xlink:href="#DejaVuSans-63" x="1738.716797"/>
     <use xlink:href="#DejaVuSans-68" x="1793.697266"/>
     <use xlink:href="#DejaVuSans-20" x="1857.076172"/>
     <use xlink:href="#DejaVuSans-52" x="1888.863281"/>
     <use xlink:href="#DejaVuSans-75" x="1953.845703"/>
     <use xlink:href="#DejaVuSans-6e" x="2017.224609"/>
    </g>
   </g>
   <g id="legend_1">
    <g id="patch_7">
     <path d="M 340.643438 357.712625 
L 407.72 357.712625 
Q 409.72 357.712625 409.72 355.712625 
L 409.72 48.472 
Q 409.72 46.472 407.72 46.472 
L 340.643438 46.472 
Q 338.643438 46.472 338.643438 48.472 
L 338.643438 355.712625 
Q 338.643438 357.712625 340.643438 357.712625 
z
" style="fill: #ffffff; opacity: 0.8; stroke: #cccccc; stroke-linejoin: miter"/>
    </g>
    <g id="text_21">
     <!-- Run Number -->
     <g transform="translate(342.92 58.070437) scale(0.1 -0.1)">
      <defs>
       <path id="DejaVuSans-4e" d="M 628 4666 
L 1478 4666 
L 3547 763 
L 3547 4666 
L 4159 4666 
L 4159 0 
L 3309 0 
L 1241 3903 
L 1241 0 
L 628 0 
L 628 4666 
z
" transform="scale(0.015625)"/>
       <path id="DejaVuSans-62" d="M 3116 1747 
Q 3116 2381 2855 2742 
Q 2594 3103 2138 3103 
Q 1681 3103 1420 2742 
Q 1159 2381 1159 1747 
Q 1159 1113 1420 752 
Q 1681 391 2138 391 
Q 2594 391 2855 752 
Q 3116 1113 3116 1747 
z
M 1159 2969 
Q 1341 3281 1617 3432 
Q 1894 3584 2278 3584 
Q 2916 3584 3314 3078 
Q 3713 2572 3713 1747 
Q 3713 922 3314 415 
Q 2916 -91 2278 -91 
Q 1894 -91 1617 61 
Q 1341 213 1159 525 
L 1159 0 
L 581 0 
L 581 4863 
L 1159 4863 
L 1159 2969 
z
" transform="scale(0.015625)"/>
      </defs>
      <use xlink:href="#DejaVuSans-52"/>
      <use xlink:href="#DejaVuSans-75" x="64.982422"/>
      <use xlink:href="#DejaVuSans-6e" x="128.361328"/>
      <use xlink:href="#DejaVuSans-20" x="191.740234"/>
      <use xlink:href="#DejaVuSans-4e" x="223.527344"/>
      <use xlink:href="#DejaVuSans-75" x="298.332031"/>
      <use xlink:href="#DejaVuSans-6d" x="361.710938"/>
      <use xlink:href="#DejaVuSans-62" x="459.123047"/>
      <use xlink:href="#DejaVuSans-65" x="522.599609"/>
      <use xlink:href="#DejaVuSans-72" x="584.123047"/>
     </g>
    </g>
    <g id="line2d_55">
     <path d="M 342.643438 69.248562 
L 352.643438 69.248562 
L 362.643438 69.248562 
" style="fill: none; stroke: #1f77b4; stroke-width: 1.5; stroke-linecap: square"/>
    </g>
    <g id="text_22">
     <!-- Run 0 -->
     <g transform="translate(370.643438 72.748562) scale(0.1 -0.1)">
      <use xlink:href="#DejaVuSans-52"/>
      <use xlink:href="#DejaVuSans-75" x="64.982422"/>
      <use xlink:href="#DejaVuSans-6e" x="128.361328"/>
      <use xlink:href="#DejaVuSans-20" x="191.740234"/>
      <use xlink:href="#DejaVuSans-30" x="223.527344"/>
     </g>
    </g>
    <g id="line2d_56">
     <path d="M 342.643438 83.926688 
L 352.643438 83.926688 
L 362.643438 83.926688 
" style="fill: none; stroke: #ff7f0e; stroke-width: 1.5; stroke-linecap: square"/>
    </g>
    <g id="text_23">
     <!-- Run 1 -->
     <g transform="translate(370.643438 87.426688) scale(0.1 -0.1)">
      <use xlink:href="#DejaVuSans-52"/>
      <use xlink:href="#DejaVuSans-75" x="64.982422"/>
      <use xlink:href="#DejaVuSans-6e" x="128.361328"/>
      <use xlink:href="#DejaVuSans-20" x="191.740234"/>
      <use xlink:href="#DejaVuSans-31" x="223.527344"/>
     </g>
    </g>
    <g id="line2d_57">
     <path d="M 342.643438 98.604813 
L 352.643438 98.604813 
L 362.643438 98.604813 
" style="fill: none; stroke: #2ca02c; stroke-width: 1.5; stroke-linecap: square"/>
    </g>
    <g id="text_24">
     <!-- Run 2 -->
     <g transform="translate(370.643438 102.104813) scale(0.1 -0.1)">
      <use xlink:href="#DejaVuSans-52"/>
      <use xlink:href="#DejaVuSans-75" x="64.982422"/>
      <use xlink:href="#DejaVuSans-6e" x="128.361328"/>
      <use xlink:href="#DejaVuSans-20" x="191.740234"/>
      <use xlink:href="#DejaVuSans-32" x="223.527344"/>
     </g>
    </g>
    <g id="line2d_58">
     <path d="M 342.643438 113.282938 
L 352.643438 113.282938 
L 362.643438 113.282938 
" style="fill: none; stroke: #d62728; stroke-width: 1.5; stroke-linecap: square"/>
    </g>
    <g id="text_25">
     <!-- Run 3 -->
     <g transform="translate(370.643438 116.782938) scale(0.1 -0.1)">
      <use xlink:href="#DejaVuSans-52"/>
      <use xlink:href="#DejaVuSans-75" x="64.982422"/>
      <use xlink:href="#DejaVuSans-6e" x="128.361328"/>
      <use xlink:href="#DejaVuSans-20" x="191.740234"/>
      <use xlink:href="#DejaVuSans-33" x="223.527344"/>
     </g>
    </g>
    <g id="line2d_59">
     <path d="M 342.643438 127.961063 
L 352.643438 127.961063 
L 362.643438 127.961063 
" style="fill: none; stroke: #9467bd; stroke-width: 1.5; stroke-linecap: square"/>
    </g>
    <g id="text_26">
     <!-- Run 4 -->
     <g transform="translate(370.643438 131.461063) scale(0.1 -0.1)">
      <use xlink:href="#DejaVuSans-52"/>
      <use xlink:href="#DejaVuSans-75" x="64.982422"/>
      <use xlink:href="#DejaVuSans-6e" x="128.361328"/>
      <use xlink:href="#DejaVuSans-20" x="191.740234"/>
      <use xlink:href="#DejaVuSans-34" x="223.527344"/>
     </g>
    </g>
    <g id="line2d_60">
     <path d="M 342.643438 142.639187 
L 352.643438 142.639187 
L 362.643438 142.639187 
" style="fill: none; stroke: #8c564b; stroke-width: 1.5; stroke-linecap: square"/>
    </g>
    <g id="text_27">
     <!-- Run 5 -->
     <g transform="translate(370.643438 146.139187) scale(0.1 -0.1)">
      <use xlink:href="#DejaVuSans-52"/>
      <use xlink:href="#DejaVuSans-75" x="64.982422"/>
      <use xlink:href="#DejaVuSans-6e" x="128.361328"/>
      <use xlink:href="#DejaVuSans-20" x="191.740234"/>
      <use xlink:href="#DejaVuSans-35" x="223.527344"/>
     </g>
    </g>
    <g id="line2d_61">
     <path d="M 342.643438 157.317313 
L 352.643438 157.317313 
L 362.643438 157.317313 
" style="fill: none; stroke: #e377c2; stroke-width: 1.5; stroke-linecap: square"/>
    </g>
    <g id="text_28">
     <!-- Run 6 -->
     <g transform="translate(370.643438 160.817313) scale(0.1 -0.1)">
      <use xlink:href="#DejaVuSans-52"/>
      <use xlink:href="#DejaVuSans-75" x="64.982422"/>
      <use xlink:href="#DejaVuSans-6e" x="128.361328"/>
      <use xlink:href="#DejaVuSans-20" x="191.740234"/>
      <use xlink:href="#DejaVuSans-36" x="223.527344"/>
     </g>
    </g>
    <g id="line2d_62">
     <path d="M 342.643438 171.995437 
L 352.643438 171.995437 
L 362.643438 171.995437 
" style="fill: none; stroke: #7f7f7f; stroke-width: 1.5; stroke-linecap: square"/>
    </g>
    <g id="text_29">
     <!-- Run 7 -->
     <g transform="translate(370.643438 175.495437) scale(0.1 -0.1)">
      <use xlink:href="#DejaVuSans-52"/>
      <use xlink:href="#DejaVuSans-75" x="64.982422"/>
      <use xlink:href="#DejaVuSans-6e" x="128.361328"/>
      <use xlink:href="#DejaVuSans-20" x="191.740234"/>
      <use xlink:href="#DejaVuSans-37" x="223.527344"/>
     </g>
    </g>
    <g id="line2d_63">
     <path d="M 342.643438 186.673563 
L 352.643438 186.673563 
L 362.643438 186.673563 
" style="fill: none; stroke: #bcbd22; stroke-width: 1.5; stroke-linecap: square"/>
    </g>
    <g id="text_30">
     <!-- Run 8 -->
     <g transform="translate(370.643438 190.173563) scale(0.1 -0.1)">
      <use xlink:href="#DejaVuSans-52"/>
      <use xlink:href="#DejaVuSans-75" x="64.982422"/>
      <use xlink:href="#DejaVuSans-6e" x="128.361328"/>
      <use xlink:href="#DejaVuSans-20" x="191.740234"/>
      <use xlink:href="#DejaVuSans-38" x="223.527344"/>
     </g>
    </g>
    <g id="line2d_64">
     <path d="M 342.643438 201.351687 
L 352.643438 201.351687 
L 362.643438 201.351687 
" style="fill: none; stroke: #17becf; stroke-width: 1.5; stroke-linecap: square"/>
    </g>
    <g id="text_31">
     <!-- Run 9 -->
     <g transform="translate(370.643438 204.851687) scale(0.1 -0.1)">
      <defs>
       <path id="DejaVuSans-39" d="M 703 97 
L 703 672 
Q 941 559 1184 500 
Q 1428 441 1663 441 
Q 2288 441 2617 861 
Q 2947 1281 2994 2138 
Q 2813 1869 2534 1725 
Q 2256 1581 1919 1581 
Q 1219 1581 811 2004 
Q 403 2428 403 3163 
Q 403 3881 828 4315 
Q 1253 4750 1959 4750 
Q 2769 4750 3195 4129 
Q 3622 3509 3622 2328 
Q 3622 1225 3098 567 
Q 2575 -91 1691 -91 
Q 1453 -91 1209 -44 
Q 966 3 703 97 
z
M 1959 2075 
Q 2384 2075 2632 2365 
Q 2881 2656 2881 3163 
Q 2881 3666 2632 3958 
Q 2384 4250 1959 4250 
Q 1534 4250 1286 3958 
Q 1038 3666 1038 3163 
Q 1038 2656 1286 2365 
Q 1534 2075 1959 2075 
z
" transform="scale(0.015625)"/>
      </defs>
      <use xlink:href="#DejaVuSans-52"/>
      <use xlink:href="#DejaVuSans-75" x="64.982422"/>
      <use xlink:href="#DejaVuSans-6e" x="128.361328"/>
      <use xlink:href="#DejaVuSans-20" x="191.740234"/>
      <use xlink:href="#DejaVuSans-39" x="223.527344"/>
     </g>
    </g>
    <g id="line2d_65">
     <path d="M 342.643438 216.029812 
L 352.643438 216.029812 
L 362.643438 216.029812 
" style="fill: none; stroke: #1f77b4; stroke-width: 1.5; stroke-linecap: square"/>
    </g>
    <g id="text_32">
     <!-- Run 10 -->
     <g transform="translate(370.643438 219.529812) scale(0.1 -0.1)">
      <use xlink:href="#DejaVuSans-52"/>
      <use xlink:href="#DejaVuSans-75" x="64.982422"/>
      <use xlink:href="#DejaVuSans-6e" x="128.361328"/>
      <use xlink:href="#DejaVuSans-20" x="191.740234"/>
      <use xlink:href="#DejaVuSans-31" x="223.527344"/>
      <use xlink:href="#DejaVuSans-30" x="287.150391"/>
     </g>
    </g>
    <g id="line2d_66">
     <path d="M 342.643438 230.707937 
L 352.643438 230.707937 
L 362.643438 230.707937 
" style="fill: none; stroke: #ff7f0e; stroke-width: 1.5; stroke-linecap: square"/>
    </g>
    <g id="text_33">
     <!-- Run 11 -->
     <g transform="translate(370.643438 234.207937) scale(0.1 -0.1)">
      <use xlink:href="#DejaVuSans-52"/>
      <use xlink:href="#DejaVuSans-75" x="64.982422"/>
      <use xlink:href="#DejaVuSans-6e" x="128.361328"/>
      <use xlink:href="#DejaVuSans-20" x="191.740234"/>
      <use xlink:href="#DejaVuSans-31" x="223.527344"/>
      <use xlink:href="#DejaVuSans-31" x="287.150391"/>
     </g>
    </g>
    <g id="line2d_67">
     <path d="M 342.643438 245.386062 
L 352.643438 245.386062 
L 362.643438 245.386062 
" style="fill: none; stroke: #2ca02c; stroke-width: 1.5; stroke-linecap: square"/>
    </g>
    <g id="text_34">
     <!-- Run 12 -->
     <g transform="translate(370.643438 248.886062) scale(0.1 -0.1)">
      <use xlink:href="#DejaVuSans-52"/>
      <use xlink:href="#DejaVuSans-75" x="64.982422"/>
      <use xlink:href="#DejaVuSans-6e" x="128.361328"/>
      <use xlink:href="#DejaVuSans-20" x="191.740234"/>
      <use xlink:href="#DejaVuSans-31" x="223.527344"/>
      <use xlink:href="#DejaVuSans-32" x="287.150391"/>
     </g>
    </g>
    <g id="line2d_68">
     <path d="M 342.643438 260.064187 
L 352.643438 260.064187 
L 362.643438 260.064187 
" style="fill: none; stroke: #d62728; stroke-width: 1.5; stroke-linecap: square"/>
    </g>
    <g id="text_35">
     <!-- Run 13 -->
     <g transform="translate(370.643438 263.564187) scale(0.1 -0.1)">
      <use xlink:href="#DejaVuSans-52"/>
      <use xlink:href="#DejaVuSans-75" x="64.982422"/>
      <use xlink:href="#DejaVuSans-6e" x="128.361328"/>
      <use xlink:href="#DejaVuSans-20" x="191.740234"/>
      <use xlink:href="#DejaVuSans-31" x="223.527344"/>
      <use xlink:href="#DejaVuSans-33" x="287.150391"/>
     </g>
    </g>
    <g id="line2d_69">
     <path d="M 342.643438 274.742312 
L 352.643438 274.742312 
L 362.643438 274.742312 
" style="fill: none; stroke: #9467bd; stroke-width: 1.5; stroke-linecap: square"/>
    </g>
    <g id="text_36">
     <!-- Run 14 -->
     <g transform="translate(370.643438 278.242312) scale(0.1 -0.1)">
      <use xlink:href="#DejaVuSans-52"/>
      <use xlink:href="#DejaVuSans-75" x="64.982422"/>
      <use xlink:href="#DejaVuSans-6e" x="128.361328"/>
      <use xlink:href="#DejaVuSans-20" x="191.740234"/>
      <use xlink:href="#DejaVuSans-31" x="223.527344"/>
      <use xlink:href="#DejaVuSans-34" x="287.150391"/>
     </g>
    </g>
    <g id="line2d_70">
     <path d="M 342.643438 289.420437 
L 352.643438 289.420437 
L 362.643438 289.420437 
" style="fill: none; stroke: #8c564b; stroke-width: 1.5; stroke-linecap: square"/>
    </g>
    <g id="text_37">
     <!-- Run 15 -->
     <g transform="translate(370.643438 292.920437) scale(0.1 -0.1)">
      <use xlink:href="#DejaVuSans-52"/>
      <use xlink:href="#DejaVuSans-75" x="64.982422"/>
      <use xlink:href="#DejaVuSans-6e" x="128.361328"/>
      <use xlink:href="#DejaVuSans-20" x="191.740234"/>
      <use xlink:href="#DejaVuSans-31" x="223.527344"/>
      <use xlink:href="#DejaVuSans-35" x="287.150391"/>
     </g>
    </g>
    <g id="line2d_71">
     <path d="M 342.643438 304.098562 
L 352.643438 304.098562 
L 362.643438 304.098562 
" style="fill: none; stroke: #e377c2; stroke-width: 1.5; stroke-linecap: square"/>
    </g>
    <g id="text_38">
     <!-- Run 16 -->
     <g transform="translate(370.643438 307.598562) scale(0.1 -0.1)">
      <use xlink:href="#DejaVuSans-52"/>
      <use xlink:href="#DejaVuSans-75" x="64.982422"/>
      <use xlink:href="#DejaVuSans-6e" x="128.361328"/>
      <use xlink:href="#DejaVuSans-20" x="191.740234"/>
      <use xlink:href="#DejaVuSans-31" x="223.527344"/>
      <use xlink:href="#DejaVuSans-36" x="287.150391"/>
     </g>
    </g>
    <g id="line2d_72">
     <path d="M 342.643438 318.776687 
L 352.643438 318.776687 
L 362.643438 318.776687 
" style="fill: none; stroke: #7f7f7f; stroke-width: 1.5; stroke-linecap: square"/>
    </g>
    <g id="text_39">
     <!-- Run 17 -->
     <g transform="translate(370.643438 322.276687) scale(0.1 -0.1)">
      <use xlink:href="#DejaVuSans-52"/>
      <use xlink:href="#DejaVuSans-75" x="64.982422"/>
      <use xlink:href="#DejaVuSans-6e" x="128.361328"/>
      <use xlink:href="#DejaVuSans-20" x="191.740234"/>
      <use xlink:href="#DejaVuSans-31" x="223.527344"/>
      <use xlink:href="#DejaVuSans-37" x="287.150391"/>
     </g>
    </g>
    <g id="line2d_73">
     <path d="M 342.643438 333.454812 
L 352.643438 333.454812 
L 362.643438 333.454812 
" style="fill: none; stroke: #bcbd22; stroke-width: 1.5; stroke-linecap: square"/>
    </g>
    <g id="text_40">
     <!-- Run 18 -->
     <g transform="translate(370.643438 336.954812) scale(0.1 -0.1)">
      <use xlink:href="#DejaVuSans-52"/>
      <use xlink:href="#DejaVuSans-75" x="64.982422"/>
      <use xlink:href="#DejaVuSans-6e" x="128.361328"/>
      <use xlink:href="#DejaVuSans-20" x="191.740234"/>
      <use xlink:href="#DejaVuSans-31" x="223.527344"/>
      <use xlink:href="#DejaVuSans-38" x="287.150391"/>
     </g>
    </g>
    <g id="line2d_74">
     <path style="fill: none; stroke: #17becf; stroke-width: 1.5; stroke-linecap: square"/>
    </g>
    <g id="text_41">
     <!-- Run 19 -->
     <g transform="translate(370.643438 351.632937) scale(0.1 -0.1)">
      <use xlink:href="#DejaVuSans-52"/>
      <use xlink:href="#DejaVuSans-75" x="64.982422"/>
      <use xlink:href="#DejaVuSans-6e" x="128.361328"/>
      <use xlink:href="#DejaVuSans-20" x="191.740234"/>
      <use xlink:href="#DejaVuSans-31" x="223.527344"/>
      <use xlink:href="#DejaVuSans-39" x="287.150391"/>
     </g>
    </g>
   </g>
  </g>
 </g>
 <defs>
  <clipPath id="pf3989a0502">
   <rect x="57.6" y="41.472" width="357.12" height="266.112"/>
  </clipPath>
 </defs>
</svg>
