<?xml version="1.0" encoding="utf-8" standalone="no"?>
<!DOCTYPE svg PUBLIC "-//W3C//DTD SVG 1.1//EN"
  "http://www.w3.org/Graphics/SVG/1.1/DTD/svg11.dtd">
<svg xmlns:xlink="http://www.w3.org/1999/xlink" width="460.8pt" height="345.6pt" viewBox="0 0 460.8 345.6" xmlns="http://www.w3.org/2000/svg" version="1.1">
 <metadata>
  <rdf:RDF xmlns:dc="http://purl.org/dc/elements/1.1/" xmlns:cc="http://creativecommons.org/ns#" xmlns:rdf="http://www.w3.org/1999/02/22-rdf-syntax-ns#">
   <cc:Work>
    <dc:type rdf:resource="http://purl.org/dc/dcmitype/StillImage"/>
    <dc:date>2024-12-03T12:48:23.571296</dc:date>
    <dc:format>image/svg+xml</dc:format>
    <dc:creator>
     <cc:Agent>
      <dc:title>Matplotlib v3.9.2, https://matplotlib.org/</dc:title>
     </cc:Agent>
    </dc:creator>
   </cc:Work>
  </rdf:RDF>
 </metadata>
 <defs>
  <style type="text/css">*{stroke-linejoin: round; stroke-linecap: butt}</style>
 </defs>
 <g id="figure_1">
  <g id="patch_1">
   <path d="M 0 345.6 
L 460.8 345.6 
L 460.8 0 
L 0 0 
z
" style="fill: #ffffff"/>
  </g>
  <g id="axes_1">
   <g id="patch_2">
    <path d="M 57.6 307.584 
L 414.72 307.584 
L 414.72 41.472 
L 57.6 41.472 
z
" style="fill: #ffffff"/>
   </g>
   <g id="matplotlib.axis_1">
    <g id="xtick_1">
     <g id="line2d_1">
      <path d="M 73.832727 307.584 
L 73.832727 41.472 
" clip-path="url(#pe08d549d63)" style="fill: none; stroke: #b0b0b0; stroke-width: 0.8; stroke-linecap: square"/>
     </g>
     <g id="line2d_2">
      <defs>
       <path id="m7270c5077f" d="M 0 0 
L 0 3.5 
" style="stroke: #000000; stroke-width: 0.8"/>
      </defs>
      <g>
       <use xlink:href="#m7270c5077f" x="73.832727" y="307.584" style="stroke: #000000; stroke-width: 0.8"/>
      </g>
     </g>
     <g id="text_1">
      <!-- 0 -->
      <g transform="translate(70.651477 322.182437) scale(0.1 -0.1)">
       <defs>
        <path id="DejaVuSans-30" d="M 2034 4250 
Q 1547 4250 1301 3770 
Q 1056 3291 1056 2328 
Q 1056 1369 1301 889 
Q 1547 409 2034 409 
Q 2525 409 2770 889 
Q 3016 1369 3016 2328 
Q 3016 3291 2770 3770 
Q 2525 4250 2034 4250 
z
M 2034 4750 
Q 2819 4750 3233 4129 
Q 3647 3509 3647 2328 
Q 3647 1150 3233 529 
Q 2819 -91 2034 -91 
Q 1250 -91 836 529 
Q 422 1150 422 2328 
Q 422 3509 836 4129 
Q 1250 4750 2034 4750 
z
" transform="scale(0.015625)"/>
       </defs>
       <use xlink:href="#DejaVuSans-30"/>
      </g>
     </g>
    </g>
    <g id="xtick_2">
     <g id="line2d_3">
      <path d="M 114.41458 307.584 
L 114.41458 41.472 
" clip-path="url(#pe08d549d63)" style="fill: none; stroke: #b0b0b0; stroke-width: 0.8; stroke-linecap: square"/>
     </g>
     <g id="line2d_4">
      <g>
       <use xlink:href="#m7270c5077f" x="114.41458" y="307.584" style="stroke: #000000; stroke-width: 0.8"/>
      </g>
     </g>
     <g id="text_2">
      <!-- 100000 -->
      <g transform="translate(95.32708 322.182437) scale(0.1 -0.1)">
       <defs>
        <path id="DejaVuSans-31" d="M 794 531 
L 1825 531 
L 1825 4091 
L 703 3866 
L 703 4441 
L 1819 4666 
L 2450 4666 
L 2450 531 
L 3481 531 
L 3481 0 
L 794 0 
L 794 531 
z
" transform="scale(0.015625)"/>
       </defs>
       <use xlink:href="#DejaVuSans-31"/>
       <use xlink:href="#DejaVuSans-30" x="63.623047"/>
       <use xlink:href="#DejaVuSans-30" x="127.246094"/>
       <use xlink:href="#DejaVuSans-30" x="190.869141"/>
       <use xlink:href="#DejaVuSans-30" x="254.492188"/>
       <use xlink:href="#DejaVuSans-30" x="318.115234"/>
      </g>
     </g>
    </g>
    <g id="xtick_3">
     <g id="line2d_5">
      <path d="M 154.996433 307.584 
L 154.996433 41.472 
" clip-path="url(#pe08d549d63)" style="fill: none; stroke: #b0b0b0; stroke-width: 0.8; stroke-linecap: square"/>
     </g>
     <g id="line2d_6">
      <g>
       <use xlink:href="#m7270c5077f" x="154.996433" y="307.584" style="stroke: #000000; stroke-width: 0.8"/>
      </g>
     </g>
     <g id="text_3">
      <!-- 200000 -->
      <g transform="translate(135.908933 322.182437) scale(0.1 -0.1)">
       <defs>
        <path id="DejaVuSans-32" d="M 1228 531 
L 3431 531 
L 3431 0 
L 469 0 
L 469 531 
Q 828 903 1448 1529 
Q 2069 2156 2228 2338 
Q 2531 2678 2651 2914 
Q 2772 3150 2772 3378 
Q 2772 3750 2511 3984 
Q 2250 4219 1831 4219 
Q 1534 4219 1204 4116 
Q 875 4013 500 3803 
L 500 4441 
Q 881 4594 1212 4672 
Q 1544 4750 1819 4750 
Q 2544 4750 2975 4387 
Q 3406 4025 3406 3419 
Q 3406 3131 3298 2873 
Q 3191 2616 2906 2266 
Q 2828 2175 2409 1742 
Q 1991 1309 1228 531 
z
" transform="scale(0.015625)"/>
       </defs>
       <use xlink:href="#DejaVuSans-32"/>
       <use xlink:href="#DejaVuSans-30" x="63.623047"/>
       <use xlink:href="#DejaVuSans-30" x="127.246094"/>
       <use xlink:href="#DejaVuSans-30" x="190.869141"/>
       <use xlink:href="#DejaVuSans-30" x="254.492188"/>
       <use xlink:href="#DejaVuSans-30" x="318.115234"/>
      </g>
     </g>
    </g>
    <g id="xtick_4">
     <g id="line2d_7">
      <path d="M 195.578286 307.584 
L 195.578286 41.472 
" clip-path="url(#pe08d549d63)" style="fill: none; stroke: #b0b0b0; stroke-width: 0.8; stroke-linecap: square"/>
     </g>
     <g id="line2d_8">
      <g>
       <use xlink:href="#m7270c5077f" x="195.578286" y="307.584" style="stroke: #000000; stroke-width: 0.8"/>
      </g>
     </g>
     <g id="text_4">
      <!-- 300000 -->
      <g transform="translate(176.490786 322.182437) scale(0.1 -0.1)">
       <defs>
        <path id="DejaVuSans-33" d="M 2597 2516 
Q 3050 2419 3304 2112 
Q 3559 1806 3559 1356 
Q 3559 666 3084 287 
Q 2609 -91 1734 -91 
Q 1441 -91 1130 -33 
Q 819 25 488 141 
L 488 750 
Q 750 597 1062 519 
Q 1375 441 1716 441 
Q 2309 441 2620 675 
Q 2931 909 2931 1356 
Q 2931 1769 2642 2001 
Q 2353 2234 1838 2234 
L 1294 2234 
L 1294 2753 
L 1863 2753 
Q 2328 2753 2575 2939 
Q 2822 3125 2822 3475 
Q 2822 3834 2567 4026 
Q 2313 4219 1838 4219 
Q 1578 4219 1281 4162 
Q 984 4106 628 3988 
L 628 4550 
Q 988 4650 1302 4700 
Q 1616 4750 1894 4750 
Q 2613 4750 3031 4423 
Q 3450 4097 3450 3541 
Q 3450 3153 3228 2886 
Q 3006 2619 2597 2516 
z
" transform="scale(0.015625)"/>
       </defs>
       <use xlink:href="#DejaVuSans-33"/>
       <use xlink:href="#DejaVuSans-30" x="63.623047"/>
       <use xlink:href="#DejaVuSans-30" x="127.246094"/>
       <use xlink:href="#DejaVuSans-30" x="190.869141"/>
       <use xlink:href="#DejaVuSans-30" x="254.492188"/>
       <use xlink:href="#DejaVuSans-30" x="318.115234"/>
      </g>
     </g>
    </g>
    <g id="xtick_5">
     <g id="line2d_9">
      <path d="M 236.160139 307.584 
L 236.160139 41.472 
" clip-path="url(#pe08d549d63)" style="fill: none; stroke: #b0b0b0; stroke-width: 0.8; stroke-linecap: square"/>
     </g>
     <g id="line2d_10">
      <g>
       <use xlink:href="#m7270c5077f" x="236.160139" y="307.584" style="stroke: #000000; stroke-width: 0.8"/>
      </g>
     </g>
     <g id="text_5">
      <!-- 400000 -->
      <g transform="translate(217.072639 322.182437) scale(0.1 -0.1)">
       <defs>
        <path id="DejaVuSans-34" d="M 2419 4116 
L 825 1625 
L 2419 1625 
L 2419 4116 
z
M 2253 4666 
L 3047 4666 
L 3047 1625 
L 3713 1625 
L 3713 1100 
L 3047 1100 
L 3047 0 
L 2419 0 
L 2419 1100 
L 313 1100 
L 313 1709 
L 2253 4666 
z
" transform="scale(0.015625)"/>
       </defs>
       <use xlink:href="#DejaVuSans-34"/>
       <use xlink:href="#DejaVuSans-30" x="63.623047"/>
       <use xlink:href="#DejaVuSans-30" x="127.246094"/>
       <use xlink:href="#DejaVuSans-30" x="190.869141"/>
       <use xlink:href="#DejaVuSans-30" x="254.492188"/>
       <use xlink:href="#DejaVuSans-30" x="318.115234"/>
      </g>
     </g>
    </g>
    <g id="xtick_6">
     <g id="line2d_11">
      <path d="M 276.741992 307.584 
L 276.741992 41.472 
" clip-path="url(#pe08d549d63)" style="fill: none; stroke: #b0b0b0; stroke-width: 0.8; stroke-linecap: square"/>
     </g>
     <g id="line2d_12">
      <g>
       <use xlink:href="#m7270c5077f" x="276.741992" y="307.584" style="stroke: #000000; stroke-width: 0.8"/>
      </g>
     </g>
     <g id="text_6">
      <!-- 500000 -->
      <g transform="translate(257.654492 322.182437) scale(0.1 -0.1)">
       <defs>
        <path id="DejaVuSans-35" d="M 691 4666 
L 3169 4666 
L 3169 4134 
L 1269 4134 
L 1269 2991 
Q 1406 3038 1543 3061 
Q 1681 3084 1819 3084 
Q 2600 3084 3056 2656 
Q 3513 2228 3513 1497 
Q 3513 744 3044 326 
Q 2575 -91 1722 -91 
Q 1428 -91 1123 -41 
Q 819 9 494 109 
L 494 744 
Q 775 591 1075 516 
Q 1375 441 1709 441 
Q 2250 441 2565 725 
Q 2881 1009 2881 1497 
Q 2881 1984 2565 2268 
Q 2250 2553 1709 2553 
Q 1456 2553 1204 2497 
Q 953 2441 691 2322 
L 691 4666 
z
" transform="scale(0.015625)"/>
       </defs>
       <use xlink:href="#DejaVuSans-35"/>
       <use xlink:href="#DejaVuSans-30" x="63.623047"/>
       <use xlink:href="#DejaVuSans-30" x="127.246094"/>
       <use xlink:href="#DejaVuSans-30" x="190.869141"/>
       <use xlink:href="#DejaVuSans-30" x="254.492188"/>
       <use xlink:href="#DejaVuSans-30" x="318.115234"/>
      </g>
     </g>
    </g>
    <g id="xtick_7">
     <g id="line2d_13">
      <path d="M 317.323845 307.584 
L 317.323845 41.472 
" clip-path="url(#pe08d549d63)" style="fill: none; stroke: #b0b0b0; stroke-width: 0.8; stroke-linecap: square"/>
     </g>
     <g id="line2d_14">
      <g>
       <use xlink:href="#m7270c5077f" x="317.323845" y="307.584" style="stroke: #000000; stroke-width: 0.8"/>
      </g>
     </g>
     <g id="text_7">
      <!-- 600000 -->
      <g transform="translate(298.236345 322.182437) scale(0.1 -0.1)">
       <defs>
        <path id="DejaVuSans-36" d="M 2113 2584 
Q 1688 2584 1439 2293 
Q 1191 2003 1191 1497 
Q 1191 994 1439 701 
Q 1688 409 2113 409 
Q 2538 409 2786 701 
Q 3034 994 3034 1497 
Q 3034 2003 2786 2293 
Q 2538 2584 2113 2584 
z
M 3366 4563 
L 3366 3988 
Q 3128 4100 2886 4159 
Q 2644 4219 2406 4219 
Q 1781 4219 1451 3797 
Q 1122 3375 1075 2522 
Q 1259 2794 1537 2939 
Q 1816 3084 2150 3084 
Q 2853 3084 3261 2657 
Q 3669 2231 3669 1497 
Q 3669 778 3244 343 
Q 2819 -91 2113 -91 
Q 1303 -91 875 529 
Q 447 1150 447 2328 
Q 447 3434 972 4092 
Q 1497 4750 2381 4750 
Q 2619 4750 2861 4703 
Q 3103 4656 3366 4563 
z
" transform="scale(0.015625)"/>
       </defs>
       <use xlink:href="#DejaVuSans-36"/>
       <use xlink:href="#DejaVuSans-30" x="63.623047"/>
       <use xlink:href="#DejaVuSans-30" x="127.246094"/>
       <use xlink:href="#DejaVuSans-30" x="190.869141"/>
       <use xlink:href="#DejaVuSans-30" x="254.492188"/>
       <use xlink:href="#DejaVuSans-30" x="318.115234"/>
      </g>
     </g>
    </g>
    <g id="xtick_8">
     <g id="line2d_15">
      <path d="M 357.905698 307.584 
L 357.905698 41.472 
" clip-path="url(#pe08d549d63)" style="fill: none; stroke: #b0b0b0; stroke-width: 0.8; stroke-linecap: square"/>
     </g>
     <g id="line2d_16">
      <g>
       <use xlink:href="#m7270c5077f" x="357.905698" y="307.584" style="stroke: #000000; stroke-width: 0.8"/>
      </g>
     </g>
     <g id="text_8">
      <!-- 700000 -->
      <g transform="translate(338.818198 322.182437) scale(0.1 -0.1)">
       <defs>
        <path id="DejaVuSans-37" d="M 525 4666 
L 3525 4666 
L 3525 4397 
L 1831 0 
L 1172 0 
L 2766 4134 
L 525 4134 
L 525 4666 
z
" transform="scale(0.015625)"/>
       </defs>
       <use xlink:href="#DejaVuSans-37"/>
       <use xlink:href="#DejaVuSans-30" x="63.623047"/>
       <use xlink:href="#DejaVuSans-30" x="127.246094"/>
       <use xlink:href="#DejaVuSans-30" x="190.869141"/>
       <use xlink:href="#DejaVuSans-30" x="254.492188"/>
       <use xlink:href="#DejaVuSans-30" x="318.115234"/>
      </g>
     </g>
    </g>
    <g id="xtick_9">
     <g id="line2d_17">
      <path d="M 398.487551 307.584 
L 398.487551 41.472 
" clip-path="url(#pe08d549d63)" style="fill: none; stroke: #b0b0b0; stroke-width: 0.8; stroke-linecap: square"/>
     </g>
     <g id="line2d_18">
      <g>
       <use xlink:href="#m7270c5077f" x="398.487551" y="307.584" style="stroke: #000000; stroke-width: 0.8"/>
      </g>
     </g>
     <g id="text_9">
      <!-- 800000 -->
      <g transform="translate(379.400051 322.182437) scale(0.1 -0.1)">
       <defs>
        <path id="DejaVuSans-38" d="M 2034 2216 
Q 1584 2216 1326 1975 
Q 1069 1734 1069 1313 
Q 1069 891 1326 650 
Q 1584 409 2034 409 
Q 2484 409 2743 651 
Q 3003 894 3003 1313 
Q 3003 1734 2745 1975 
Q 2488 2216 2034 2216 
z
M 1403 2484 
Q 997 2584 770 2862 
Q 544 3141 544 3541 
Q 544 4100 942 4425 
Q 1341 4750 2034 4750 
Q 2731 4750 3128 4425 
Q 3525 4100 3525 3541 
Q 3525 3141 3298 2862 
Q 3072 2584 2669 2484 
Q 3125 2378 3379 2068 
Q 3634 1759 3634 1313 
Q 3634 634 3220 271 
Q 2806 -91 2034 -91 
Q 1263 -91 848 271 
Q 434 634 434 1313 
Q 434 1759 690 2068 
Q 947 2378 1403 2484 
z
M 1172 3481 
Q 1172 3119 1398 2916 
Q 1625 2713 2034 2713 
Q 2441 2713 2670 2916 
Q 2900 3119 2900 3481 
Q 2900 3844 2670 4047 
Q 2441 4250 2034 4250 
Q 1625 4250 1398 4047 
Q 1172 3844 1172 3481 
z
" transform="scale(0.015625)"/>
       </defs>
       <use xlink:href="#DejaVuSans-38"/>
       <use xlink:href="#DejaVuSans-30" x="63.623047"/>
       <use xlink:href="#DejaVuSans-30" x="127.246094"/>
       <use xlink:href="#DejaVuSans-30" x="190.869141"/>
       <use xlink:href="#DejaVuSans-30" x="254.492188"/>
       <use xlink:href="#DejaVuSans-30" x="318.115234"/>
      </g>
     </g>
    </g>
    <g id="text_10">
     <!-- TimePoint -->
     <g transform="translate(211.515469 335.860562) scale(0.1 -0.1)">
      <defs>
       <path id="DejaVuSans-54" d="M -19 4666 
L 3928 4666 
L 3928 4134 
L 2272 4134 
L 2272 0 
L 1638 0 
L 1638 4134 
L -19 4134 
L -19 4666 
z
" transform="scale(0.015625)"/>
       <path id="DejaVuSans-69" d="M 603 3500 
L 1178 3500 
L 1178 0 
L 603 0 
L 603 3500 
z
M 603 4863 
L 1178 4863 
L 1178 4134 
L 603 4134 
L 603 4863 
z
" transform="scale(0.015625)"/>
       <path id="DejaVuSans-6d" d="M 3328 2828 
Q 3544 3216 3844 3400 
Q 4144 3584 4550 3584 
Q 5097 3584 5394 3201 
Q 5691 2819 5691 2113 
L 5691 0 
L 5113 0 
L 5113 2094 
Q 5113 2597 4934 2840 
Q 4756 3084 4391 3084 
Q 3944 3084 3684 2787 
Q 3425 2491 3425 1978 
L 3425 0 
L 2847 0 
L 2847 2094 
Q 2847 2600 2669 2842 
Q 2491 3084 2119 3084 
Q 1678 3084 1418 2786 
Q 1159 2488 1159 1978 
L 1159 0 
L 581 0 
L 581 3500 
L 1159 3500 
L 1159 2956 
Q 1356 3278 1631 3431 
Q 1906 3584 2284 3584 
Q 2666 3584 2933 3390 
Q 3200 3197 3328 2828 
z
" transform="scale(0.015625)"/>
       <path id="DejaVuSans-65" d="M 3597 1894 
L 3597 1613 
L 953 1613 
Q 991 1019 1311 708 
Q 1631 397 2203 397 
Q 2534 397 2845 478 
Q 3156 559 3463 722 
L 3463 178 
Q 3153 47 2828 -22 
Q 2503 -91 2169 -91 
Q 1331 -91 842 396 
Q 353 884 353 1716 
Q 353 2575 817 3079 
Q 1281 3584 2069 3584 
Q 2775 3584 3186 3129 
Q 3597 2675 3597 1894 
z
M 3022 2063 
Q 3016 2534 2758 2815 
Q 2500 3097 2075 3097 
Q 1594 3097 1305 2825 
Q 1016 2553 972 2059 
L 3022 2063 
z
" transform="scale(0.015625)"/>
       <path id="DejaVuSans-50" d="M 1259 4147 
L 1259 2394 
L 2053 2394 
Q 2494 2394 2734 2622 
Q 2975 2850 2975 3272 
Q 2975 3691 2734 3919 
Q 2494 4147 2053 4147 
L 1259 4147 
z
M 628 4666 
L 2053 4666 
Q 2838 4666 3239 4311 
Q 3641 3956 3641 3272 
Q 3641 2581 3239 2228 
Q 2838 1875 2053 1875 
L 1259 1875 
L 1259 0 
L 628 0 
L 628 4666 
z
" transform="scale(0.015625)"/>
       <path id="DejaVuSans-6f" d="M 1959 3097 
Q 1497 3097 1228 2736 
Q 959 2375 959 1747 
Q 959 1119 1226 758 
Q 1494 397 1959 397 
Q 2419 397 2687 759 
Q 2956 1122 2956 1747 
Q 2956 2369 2687 2733 
Q 2419 3097 1959 3097 
z
M 1959 3584 
Q 2709 3584 3137 3096 
Q 3566 2609 3566 1747 
Q 3566 888 3137 398 
Q 2709 -91 1959 -91 
Q 1206 -91 779 398 
Q 353 888 353 1747 
Q 353 2609 779 3096 
Q 1206 3584 1959 3584 
z
" transform="scale(0.015625)"/>
       <path id="DejaVuSans-6e" d="M 3513 2113 
L 3513 0 
L 2938 0 
L 2938 2094 
Q 2938 2591 2744 2837 
Q 2550 3084 2163 3084 
Q 1697 3084 1428 2787 
Q 1159 2491 1159 1978 
L 1159 0 
L 581 0 
L 581 3500 
L 1159 3500 
L 1159 2956 
Q 1366 3272 1645 3428 
Q 1925 3584 2291 3584 
Q 2894 3584 3203 3211 
Q 3513 2838 3513 2113 
z
" transform="scale(0.015625)"/>
       <path id="DejaVuSans-74" d="M 1172 4494 
L 1172 3500 
L 2356 3500 
L 2356 3053 
L 1172 3053 
L 1172 1153 
Q 1172 725 1289 603 
Q 1406 481 1766 481 
L 2356 481 
L 2356 0 
L 1766 0 
Q 1100 0 847 248 
Q 594 497 594 1153 
L 594 3053 
L 172 3053 
L 172 3500 
L 594 3500 
L 594 4494 
L 1172 4494 
z
" transform="scale(0.015625)"/>
      </defs>
      <use xlink:href="#DejaVuSans-54"/>
      <use xlink:href="#DejaVuSans-69" x="57.958984"/>
      <use xlink:href="#DejaVuSans-6d" x="85.742188"/>
      <use xlink:href="#DejaVuSans-65" x="183.154297"/>
      <use xlink:href="#DejaVuSans-50" x="244.677734"/>
      <use xlink:href="#DejaVuSans-6f" x="301.355469"/>
      <use xlink:href="#DejaVuSans-69" x="362.537109"/>
      <use xlink:href="#DejaVuSans-6e" x="390.320312"/>
      <use xlink:href="#DejaVuSans-74" x="453.699219"/>
     </g>
    </g>
   </g>
   <g id="matplotlib.axis_2">
    <g id="ytick_1">
     <g id="line2d_19">
      <path d="M 57.6 295.488 
L 414.72 295.488 
" clip-path="url(#pe08d549d63)" style="fill: none; stroke: #b0b0b0; stroke-width: 0.8; stroke-linecap: square"/>
     </g>
     <g id="line2d_20">
      <defs>
       <path id="m2a5306ff40" d="M 0 0 
L -3.5 0 
" style="stroke: #000000; stroke-width: 0.8"/>
      </defs>
      <g>
       <use xlink:href="#m2a5306ff40" x="57.6" y="295.488" style="stroke: #000000; stroke-width: 0.8"/>
      </g>
     </g>
     <g id="text_11">
      <!-- 0.0000 -->
      <g transform="translate(15.609375 299.287219) scale(0.1 -0.1)">
       <defs>
        <path id="DejaVuSans-2e" d="M 684 794 
L 1344 794 
L 1344 0 
L 684 0 
L 684 794 
z
" transform="scale(0.015625)"/>
       </defs>
       <use xlink:href="#DejaVuSans-30"/>
       <use xlink:href="#DejaVuSans-2e" x="63.623047"/>
       <use xlink:href="#DejaVuSans-30" x="95.410156"/>
       <use xlink:href="#DejaVuSans-30" x="159.033203"/>
       <use xlink:href="#DejaVuSans-30" x="222.65625"/>
       <use xlink:href="#DejaVuSans-30" x="286.279297"/>
      </g>
     </g>
    </g>
    <g id="ytick_2">
     <g id="line2d_21">
      <path d="M 57.6 247.822687 
L 414.72 247.822687 
" clip-path="url(#pe08d549d63)" style="fill: none; stroke: #b0b0b0; stroke-width: 0.8; stroke-linecap: square"/>
     </g>
     <g id="line2d_22">
      <g>
       <use xlink:href="#m2a5306ff40" x="57.6" y="247.822687" style="stroke: #000000; stroke-width: 0.8"/>
      </g>
     </g>
     <g id="text_12">
      <!-- 0.0001 -->
      <g transform="translate(15.609375 251.621906) scale(0.1 -0.1)">
       <use xlink:href="#DejaVuSans-30"/>
       <use xlink:href="#DejaVuSans-2e" x="63.623047"/>
       <use xlink:href="#DejaVuSans-30" x="95.410156"/>
       <use xlink:href="#DejaVuSans-30" x="159.033203"/>
       <use xlink:href="#DejaVuSans-30" x="222.65625"/>
       <use xlink:href="#DejaVuSans-31" x="286.279297"/>
      </g>
     </g>
    </g>
    <g id="ytick_3">
     <g id="line2d_23">
      <path d="M 57.6 200.157374 
L 414.72 200.157374 
" clip-path="url(#pe08d549d63)" style="fill: none; stroke: #b0b0b0; stroke-width: 0.8; stroke-linecap: square"/>
     </g>
     <g id="line2d_24">
      <g>
       <use xlink:href="#m2a5306ff40" x="57.6" y="200.157374" style="stroke: #000000; stroke-width: 0.8"/>
      </g>
     </g>
     <g id="text_13">
      <!-- 0.0002 -->
      <g transform="translate(15.609375 203.956592) scale(0.1 -0.1)">
       <use xlink:href="#DejaVuSans-30"/>
       <use xlink:href="#DejaVuSans-2e" x="63.623047"/>
       <use xlink:href="#DejaVuSans-30" x="95.410156"/>
       <use xlink:href="#DejaVuSans-30" x="159.033203"/>
       <use xlink:href="#DejaVuSans-30" x="222.65625"/>
       <use xlink:href="#DejaVuSans-32" x="286.279297"/>
      </g>
     </g>
    </g>
    <g id="ytick_4">
     <g id="line2d_25">
      <path d="M 57.6 152.49206 
L 414.72 152.49206 
" clip-path="url(#pe08d549d63)" style="fill: none; stroke: #b0b0b0; stroke-width: 0.8; stroke-linecap: square"/>
     </g>
     <g id="line2d_26">
      <g>
       <use xlink:href="#m2a5306ff40" x="57.6" y="152.49206" style="stroke: #000000; stroke-width: 0.8"/>
      </g>
     </g>
     <g id="text_14">
      <!-- 0.0003 -->
      <g transform="translate(15.609375 156.291279) scale(0.1 -0.1)">
       <use xlink:href="#DejaVuSans-30"/>
       <use xlink:href="#DejaVuSans-2e" x="63.623047"/>
       <use xlink:href="#DejaVuSans-30" x="95.410156"/>
       <use xlink:href="#DejaVuSans-30" x="159.033203"/>
       <use xlink:href="#DejaVuSans-30" x="222.65625"/>
       <use xlink:href="#DejaVuSans-33" x="286.279297"/>
      </g>
     </g>
    </g>
    <g id="ytick_5">
     <g id="line2d_27">
      <path d="M 57.6 104.826747 
L 414.72 104.826747 
" clip-path="url(#pe08d549d63)" style="fill: none; stroke: #b0b0b0; stroke-width: 0.8; stroke-linecap: square"/>
     </g>
     <g id="line2d_28">
      <g>
       <use xlink:href="#m2a5306ff40" x="57.6" y="104.826747" style="stroke: #000000; stroke-width: 0.8"/>
      </g>
     </g>
     <g id="text_15">
      <!-- 0.0004 -->
      <g transform="translate(15.609375 108.625966) scale(0.1 -0.1)">
       <use xlink:href="#DejaVuSans-30"/>
       <use xlink:href="#DejaVuSans-2e" x="63.623047"/>
       <use xlink:href="#DejaVuSans-30" x="95.410156"/>
       <use xlink:href="#DejaVuSans-30" x="159.033203"/>
       <use xlink:href="#DejaVuSans-30" x="222.65625"/>
       <use xlink:href="#DejaVuSans-34" x="286.279297"/>
      </g>
     </g>
    </g>
    <g id="ytick_6">
     <g id="line2d_29">
      <path d="M 57.6 57.161434 
L 414.72 57.161434 
" clip-path="url(#pe08d549d63)" style="fill: none; stroke: #b0b0b0; stroke-width: 0.8; stroke-linecap: square"/>
     </g>
     <g id="line2d_30">
      <g>
       <use xlink:href="#m2a5306ff40" x="57.6" y="57.161434" style="stroke: #000000; stroke-width: 0.8"/>
      </g>
     </g>
     <g id="text_16">
      <!-- 0.0005 -->
      <g transform="translate(15.609375 60.960653) scale(0.1 -0.1)">
       <use xlink:href="#DejaVuSans-30"/>
       <use xlink:href="#DejaVuSans-2e" x="63.623047"/>
       <use xlink:href="#DejaVuSans-30" x="95.410156"/>
       <use xlink:href="#DejaVuSans-30" x="159.033203"/>
       <use xlink:href="#DejaVuSans-30" x="222.65625"/>
       <use xlink:href="#DejaVuSans-35" x="286.279297"/>
      </g>
     </g>
    </g>
    <g id="text_17">
     <!-- diskLoadStdDev -->
     <g transform="translate(9.529687 214.781906) rotate(-90) scale(0.1 -0.1)">
      <defs>
       <path id="DejaVuSans-64" d="M 2906 2969 
L 2906 4863 
L 3481 4863 
L 3481 0 
L 2906 0 
L 2906 525 
Q 2725 213 2448 61 
Q 2172 -91 1784 -91 
Q 1150 -91 751 415 
Q 353 922 353 1747 
Q 353 2572 751 3078 
Q 1150 3584 1784 3584 
Q 2172 3584 2448 3432 
Q 2725 3281 2906 2969 
z
M 947 1747 
Q 947 1113 1208 752 
Q 1469 391 1925 391 
Q 2381 391 2643 752 
Q 2906 1113 2906 1747 
Q 2906 2381 2643 2742 
Q 2381 3103 1925 3103 
Q 1469 3103 1208 2742 
Q 947 2381 947 1747 
z
" transform="scale(0.015625)"/>
       <path id="DejaVuSans-73" d="M 2834 3397 
L 2834 2853 
Q 2591 2978 2328 3040 
Q 2066 3103 1784 3103 
Q 1356 3103 1142 2972 
Q 928 2841 928 2578 
Q 928 2378 1081 2264 
Q 1234 2150 1697 2047 
L 1894 2003 
Q 2506 1872 2764 1633 
Q 3022 1394 3022 966 
Q 3022 478 2636 193 
Q 2250 -91 1575 -91 
Q 1294 -91 989 -36 
Q 684 19 347 128 
L 347 722 
Q 666 556 975 473 
Q 1284 391 1588 391 
Q 1994 391 2212 530 
Q 2431 669 2431 922 
Q 2431 1156 2273 1281 
Q 2116 1406 1581 1522 
L 1381 1569 
Q 847 1681 609 1914 
Q 372 2147 372 2553 
Q 372 3047 722 3315 
Q 1072 3584 1716 3584 
Q 2034 3584 2315 3537 
Q 2597 3491 2834 3397 
z
" transform="scale(0.015625)"/>
       <path id="DejaVuSans-6b" d="M 581 4863 
L 1159 4863 
L 1159 1991 
L 2875 3500 
L 3609 3500 
L 1753 1863 
L 3688 0 
L 2938 0 
L 1159 1709 
L 1159 0 
L 581 0 
L 581 4863 
z
" transform="scale(0.015625)"/>
       <path id="DejaVuSans-4c" d="M 628 4666 
L 1259 4666 
L 1259 531 
L 3531 531 
L 3531 0 
L 628 0 
L 628 4666 
z
" transform="scale(0.015625)"/>
       <path id="DejaVuSans-61" d="M 2194 1759 
Q 1497 1759 1228 1600 
Q 959 1441 959 1056 
Q 959 750 1161 570 
Q 1363 391 1709 391 
Q 2188 391 2477 730 
Q 2766 1069 2766 1631 
L 2766 1759 
L 2194 1759 
z
M 3341 1997 
L 3341 0 
L 2766 0 
L 2766 531 
Q 2569 213 2275 61 
Q 1981 -91 1556 -91 
Q 1019 -91 701 211 
Q 384 513 384 1019 
Q 384 1609 779 1909 
Q 1175 2209 1959 2209 
L 2766 2209 
L 2766 2266 
Q 2766 2663 2505 2880 
Q 2244 3097 1772 3097 
Q 1472 3097 1187 3025 
Q 903 2953 641 2809 
L 641 3341 
Q 956 3463 1253 3523 
Q 1550 3584 1831 3584 
Q 2591 3584 2966 3190 
Q 3341 2797 3341 1997 
z
" transform="scale(0.015625)"/>
       <path id="DejaVuSans-53" d="M 3425 4513 
L 3425 3897 
Q 3066 4069 2747 4153 
Q 2428 4238 2131 4238 
Q 1616 4238 1336 4038 
Q 1056 3838 1056 3469 
Q 1056 3159 1242 3001 
Q 1428 2844 1947 2747 
L 2328 2669 
Q 3034 2534 3370 2195 
Q 3706 1856 3706 1288 
Q 3706 609 3251 259 
Q 2797 -91 1919 -91 
Q 1588 -91 1214 -16 
Q 841 59 441 206 
L 441 856 
Q 825 641 1194 531 
Q 1563 422 1919 422 
Q 2459 422 2753 634 
Q 3047 847 3047 1241 
Q 3047 1584 2836 1778 
Q 2625 1972 2144 2069 
L 1759 2144 
Q 1053 2284 737 2584 
Q 422 2884 422 3419 
Q 422 4038 858 4394 
Q 1294 4750 2059 4750 
Q 2388 4750 2728 4690 
Q 3069 4631 3425 4513 
z
" transform="scale(0.015625)"/>
       <path id="DejaVuSans-44" d="M 1259 4147 
L 1259 519 
L 2022 519 
Q 2988 519 3436 956 
Q 3884 1394 3884 2338 
Q 3884 3275 3436 3711 
Q 2988 4147 2022 4147 
L 1259 4147 
z
M 628 4666 
L 1925 4666 
Q 3281 4666 3915 4102 
Q 4550 3538 4550 2338 
Q 4550 1131 3912 565 
Q 3275 0 1925 0 
L 628 0 
L 628 4666 
z
" transform="scale(0.015625)"/>
       <path id="DejaVuSans-76" d="M 191 3500 
L 800 3500 
L 1894 563 
L 2988 3500 
L 3597 3500 
L 2284 0 
L 1503 0 
L 191 3500 
z
" transform="scale(0.015625)"/>
      </defs>
      <use xlink:href="#DejaVuSans-64"/>
      <use xlink:href="#DejaVuSans-69" x="63.476562"/>
      <use xlink:href="#DejaVuSans-73" x="91.259766"/>
      <use xlink:href="#DejaVuSans-6b" x="143.359375"/>
      <use xlink:href="#DejaVuSans-4c" x="201.269531"/>
      <use xlink:href="#DejaVuSans-6f" x="255.232422"/>
      <use xlink:href="#DejaVuSans-61" x="316.414062"/>
      <use xlink:href="#DejaVuSans-64" x="377.693359"/>
      <use xlink:href="#DejaVuSans-53" x="441.169922"/>
      <use xlink:href="#DejaVuSans-74" x="504.646484"/>
      <use xlink:href="#DejaVuSans-64" x="543.855469"/>
      <use xlink:href="#DejaVuSans-44" x="607.332031"/>
      <use xlink:href="#DejaVuSans-65" x="684.333984"/>
      <use xlink:href="#DejaVuSans-76" x="745.857422"/>
     </g>
    </g>
   </g>
   <g id="line2d_31">
    <path d="M 73.832727 295.488 
L 73.841061 295.488 
L 73.891593 86.170482 
L 73.951898 117.82932 
L 73.953165 117.82932 
L 74.063969 143.804692 
L 74.112753 154.437363 
L 74.853188 217.008123 
L 74.857844 217.09863 
L 74.968882 220.891766 
L 74.97326 220.993008 
L 75.085489 224.310141 
L 75.090359 224.403432 
L 75.090359 224.412346 
L 75.237473 228.063595 
L 75.264866 228.621209 
L 75.419198 231.730706 
L 75.471017 232.663243 
L 75.471017 232.663243 
L 75.581399 234.584424 
L 75.599385 234.881428 
L 75.647954 235.641196 
L 75.647954 235.641196 
L 75.758884 237.360222 
L 75.76718 237.470696 
L 76.114139 241.9953 
L 76.1241 242.097094 
L 76.23542 243.342859 
L 76.570346 246.616172 
L 76.58354 246.725837 
L 76.694518 247.697461 
L 76.708837 247.799356 
L 76.819851 248.701642 
L 78.484391 257.959451 
L 78.511003 258.065565 
L 78.511003 258.066158 
L 78.632175 258.54196 
L 78.661562 258.651593 
L 78.661562 258.651805 
L 78.778509 259.087477 
L 78.860413 259.376969 
L 78.860413 259.376969 
L 78.970796 259.765949 
L 79.146854 260.348783 
L 79.257953 260.702632 
L 79.484169 261.400815 
L 79.521645 261.511922 
L 79.596267 261.72943 
L 79.845271 262.434221 
L 79.900932 262.580297 
L 79.900932 262.580297 
L 80.011853 262.874002 
L 80.495251 264.067843 
L 80.780746 264.711814 
L 80.780746 264.711814 
L 80.891322 264.95553 
L 80.944196 265.064334 
L 81.055416 265.298564 
L 81.113518 265.418267 
L 81.503269 266.187643 
L 81.562958 266.298728 
L 81.562958 266.298753 
L 81.665431 266.490343 
L 81.784966 266.711284 
L 81.876862 266.873707 
L 81.995767 267.083518 
L 82.060164 267.193427 
L 82.174466 267.388759 
L 82.240874 267.499526 
L 82.524999 267.960469 
L 82.595567 268.070317 
L 82.595567 268.070919 
L 82.873657 268.496153 
L 82.94742 268.60634 
L 84.190509 270.257686 
L 84.284243 270.368699 
L 84.401133 270.507453 
L 84.521916 270.648984 
L 85.142691 271.328179 
L 85.251538 271.43929 
L 85.251538 271.43929 
L 85.361295 271.553684 
L 85.491143 271.681865 
L 85.639158 271.827963 
L 86.056887 272.224186 
L 86.179756 272.334929 
L 86.179756 272.334929 
L 86.290549 272.434469 
L 86.445286 272.570917 
L 86.576181 272.683088 
L 86.689409 272.781134 
L 86.820543 272.890545 
L 86.820543 272.891592 
L 87.835715 273.695411 
L 87.98221 273.805391 
L 88.093267 273.88884 
L 88.342769 274.068211 
L 88.488863 274.170644 
L 88.648641 274.281265 
L 88.759139 274.357447 
L 88.923901 274.467938 
L 88.923901 274.468327 
L 89.137513 274.608583 
L 89.311052 274.719276 
L 89.311052 274.719276 
L 89.421581 274.789605 
L 89.96997 275.129484 
L 90.154136 275.240104 
L 90.284029 275.317337 
L 90.475751 275.428123 
L 90.475751 275.428123 
L 90.586849 275.49356 
L 90.789447 275.6079 
L 90.901455 275.672044 
L 91.130459 275.797348 
L 91.241406 275.858626 
L 91.985602 276.243968 
L 92.285702 276.39046 
L 92.564499 276.518797 
L 92.564499 276.518797 
L 92.675584 276.569469 
L 92.925816 276.680534 
L 93.374193 276.869004 
L 93.658161 276.981892 
L 93.946819 277.092785 
L 94.34209 277.23804 
L 94.656088 277.348938 
L 94.656088 277.348938 
L 94.765987 277.387554 
L 95.081385 277.498605 
L 95.081385 277.498605 
L 95.191688 277.538347 
L 95.504674 277.648936 
L 95.616007 277.688471 
L 95.931981 277.798678 
L 95.931981 277.798678 
L 96.042887 277.835965 
L 97.203976 278.221302 
L 97.548762 278.332152 
L 97.548762 278.33222 
L 97.685304 278.37616 
L 100.704127 279.252966 
L 100.816092 279.283358 
L 101.778059 279.536398 
L 102.231531 279.647431 
L 103.354947 279.910319 
L 103.84664 280.021418 
L 103.958064 280.046089 
L 106.180337 280.497085 
L 106.303089 280.521227 
L 106.96697 280.652117 
L 108.236805 280.897161 
L 108.45637 280.938025 
L 109.066298 281.049064 
L 109.066298 281.049085 
L 109.434223 281.113448 
L 110.142579 281.23283 
L 110.259244 281.25279 
L 110.925913 281.363899 
L 111.154138 281.402088 
L 111.828299 281.51295 
L 111.828299 281.51295 
L 111.939337 281.531304 
L 112.61199 281.642351 
L 112.724054 281.661089 
L 113.402469 281.77212 
L 113.402469 281.772183 
L 115.976233 282.181052 
L 116.715571 282.292076 
L 116.715571 282.292159 
L 119.119047 282.629693 
L 119.383855 282.665033 
L 121.058778 282.883988 
L 121.927093 282.995031 
L 121.927093 282.995083 
L 126.94777 283.593071 
L 127.974601 283.704093 
L 127.974601 283.704093 
L 128.084995 283.715931 
L 129.140517 283.826858 
L 129.140517 283.826901 
L 129.54185 283.868386 
L 130.642822 283.979471 
L 131.297086 284.043941 
L 132.457059 284.15505 
L 132.580643 284.166833 
L 133.785516 284.27791 
L 133.785516 284.27791 
L 133.8953 284.287924 
L 142.481801 284.994691 
L 143.992107 285.105786 
L 145.090719 285.184614 
L 146.67736 285.29567 
L 146.880352 285.309737 
L 148.518758 285.420843 
L 148.518758 285.420843 
L 148.62914 285.428304 
L 150.319375 285.539354 
L 150.319375 285.539413 
L 152.986506 285.705449 
L 153.302361 285.724345 
L 155.203974 285.835424 
L 163.912673 286.290375 
L 166.222968 286.401465 
L 167.000545 286.437751 
L 169.43962 286.548859 
L 172.901147 286.697812 
L 176.73601 286.853963 
L 176.854892 286.858702 
L 180.778135 287.009228 
L 181.012475 287.017894 
L 194.310221 287.47084 
L 198.994061 287.612942 
L 204.736799 287.779501 
L 204.736799 287.779501 
L 204.847503 287.782655 
L 211.477983 287.963641 
L 211.589316 287.966619 
L 216.540332 288.095395 
L 216.950719 288.105861 
L 221.440974 288.216959 
L 221.555246 288.219735 
L 226.403217 288.33429 
L 229.492393 288.404919 
L 235.198349 288.530779 
L 235.198349 288.530779 
L 235.308937 288.533178 
L 240.597359 288.644288 
L 240.597359 288.644288 
L 240.707742 288.646569 
L 247.3656 288.778978 
L 247.3656 288.778978 
L 247.476377 288.781122 
L 341.162522 290.069149 
L 352.897116 290.180256 
L 353.023322 290.181425 
L 365.501403 290.292534 
L 365.501403 290.292534 
L 365.612379 290.293501 
L 378.93075 290.404602 
L 378.93075 290.404602 
L 379.040666 290.405508 
L 398.487273 290.555579 
L 398.487273 290.555579 
" clip-path="url(#pe08d549d63)" style="fill: none; stroke: #1f77b4; stroke-width: 1.5; stroke-linecap: square"/>
   </g>
   <g id="line2d_32">
    <path d="M 73.832727 295.488 
L 73.840159 295.488 
L 73.840159 295.488 
L 73.849939 89.527614 
L 73.951222 144.383863 
L 73.989373 147.514539 
L 74.391357 191.38474 
L 74.394161 191.488741 
L 74.506754 198.980449 
L 74.508151 199.061643 
L 74.646393 207.08506 
L 75.077316 223.816399 
L 75.081467 223.916933 
L 75.429623 232.18532 
L 75.484815 233.219823 
L 75.609494 235.451234 
L 75.615894 235.546767 
L 75.615894 235.554674 
L 75.821295 238.751193 
L 75.831936 238.860847 
L 75.947853 240.435222 
L 76.382505 245.261914 
L 76.493168 246.325265 
L 76.506016 246.428868 
L 76.644544 247.641724 
L 76.659518 247.763275 
L 76.770611 248.672937 
L 76.785163 248.782956 
L 76.896416 249.642468 
L 76.910319 249.740099 
L 77.027796 250.592879 
L 77.068724 250.867646 
L 77.441607 253.218648 
L 77.459857 253.323067 
L 77.583446 254.023336 
L 77.604405 254.130859 
L 77.604405 254.130859 
L 77.715193 254.725357 
L 77.747083 254.890196 
L 77.89892 255.641973 
L 77.923378 255.753063 
L 77.923378 255.753063 
L 78.033355 256.272366 
L 78.059867 256.377609 
L 78.191163 256.944632 
L 78.217191 257.05319 
L 78.217191 257.05319 
L 78.328022 257.523148 
L 78.354468 257.629741 
L 78.865617 259.535369 
L 78.975885 259.900254 
L 79.010695 260.011278 
L 79.285711 260.846327 
L 79.437081 261.276539 
L 79.527985 261.527513 
L 79.527985 261.527513 
L 79.638099 261.826417 
L 79.687877 261.954139 
L 79.687877 261.954139 
L 79.796231 262.241029 
L 79.843062 262.351283 
L 80.346027 263.507186 
L 80.400089 263.616647 
L 80.400089 263.616835 
L 80.518728 263.864447 
L 80.572561 263.975159 
L 80.572561 263.97528 
L 80.711351 264.26016 
L 80.766916 264.371002 
L 80.878109 264.594257 
L 80.988055 264.808507 
L 81.099603 265.028183 
L 81.158563 265.138899 
L 81.158563 265.138899 
L 81.269336 265.354779 
L 81.326711 265.460845 
L 81.444704 265.681067 
L 81.505946 265.792025 
L 81.67695 266.107244 
L 82.032394 266.742367 
L 82.171499 266.984217 
L 82.249814 267.113871 
L 82.359521 267.295387 
L 82.475694 267.488499 
L 82.546954 267.598774 
L 82.703553 267.845328 
L 82.776156 267.955952 
L 82.776156 267.955952 
L 82.886636 268.125052 
L 85.17438 271.006866 
L 85.299839 271.1398 
L 85.411136 271.258565 
L 85.541809 271.39238 
L 85.541809 271.39238 
L 85.652856 271.507047 
L 85.764488 271.618125 
L 86.003347 271.853356 
L 86.114844 271.961502 
L 86.334929 272.168664 
L 86.446779 272.272838 
L 86.567602 272.383427 
L 86.844225 272.630035 
L 86.972216 272.741058 
L 87.084731 272.838064 
L 87.214995 272.948612 
L 88.140028 273.686869 
L 88.501982 273.955888 
L 88.61306 274.036733 
L 93.368794 276.822655 
L 93.602583 276.932798 
L 93.602583 276.932897 
L 93.730188 276.992943 
L 94.038543 277.134018 
L 94.148815 277.184944 
L 94.468196 277.325842 
L 94.578554 277.374744 
L 95.029035 277.5672 
L 95.029035 277.5672 
L 95.139977 277.614279 
L 95.407918 277.725101 
L 95.519431 277.77106 
L 95.794402 277.882149 
L 95.968819 277.95207 
L 96.295595 278.0795 
L 96.295595 278.0795 
L 96.406122 278.122697 
L 96.698096 278.233327 
L 96.809343 278.275284 
L 97.109072 278.386279 
L 97.220604 278.427558 
L 97.553632 278.54707 
L 97.553632 278.54707 
L 97.664015 278.586606 
L 97.981771 278.697548 
L 97.981771 278.697548 
L 98.091946 278.736549 
L 98.417648 278.847502 
L 98.856715 278.992968 
L 98.856715 278.992968 
L 98.967163 279.029461 
L 99.367491 279.158837 
L 100.240175 279.430835 
L 100.612692 279.541756 
L 100.612692 279.541756 
L 100.722764 279.574664 
L 101.30243 279.742401 
L 101.414589 279.774559 
L 103.166303 280.250614 
L 103.596676 280.360969 
L 103.596676 280.361707 
L 104.205988 280.51333 
L 104.316192 280.541191 
L 104.855931 280.670913 
L 104.855931 280.670913 
L 104.966368 280.697447 
L 105.586466 280.842657 
L 108.717902 281.51257 
L 109.288823 281.623443 
L 109.400158 281.644844 
L 109.661337 281.694767 
L 110.702277 281.88523 
L 110.813752 281.90492 
L 111.729833 282.064102 
L 113.423166 282.344694 
L 113.423166 282.344694 
L 113.534114 282.363115 
L 114.23451 282.474191 
L 114.345619 282.491725 
L 115.063934 282.602767 
L 116.369321 282.800049 
L 117.131129 282.910832 
L 117.131129 282.910875 
L 117.297876 282.934924 
L 119.404951 283.227783 
L 120.243769 283.338856 
L 120.655005 283.392398 
L 126.596221 284.085973 
L 126.707229 284.097877 
L 128.264761 284.259751 
L 129.536705 284.386076 
L 133.511233 284.75711 
L 134.842436 284.872893 
L 134.955085 284.882468 
L 135.285443 284.910454 
L 136.622593 285.021423 
L 136.622593 285.021509 
L 143.043454 285.510406 
L 143.043454 285.510406 
L 143.153431 285.5184 
L 144.974745 285.645977 
L 146.825966 285.770261 
L 148.528458 285.881335 
L 148.640098 285.888654 
L 150.858843 286.027479 
L 150.970921 286.034485 
L 152.820028 286.145575 
L 152.820028 286.145575 
L 152.930411 286.152163 
L 159.13466 286.497886 
L 161.287838 286.608958 
L 161.287838 286.608958 
L 161.398739 286.614627 
L 163.63631 286.725701 
L 163.63631 286.72573 
L 169.445121 286.993013 
L 173.694787 287.171557 
L 174.25653 287.194502 
L 177.131805 287.307966 
L 177.131805 287.307966 
L 177.242593 287.312299 
L 180.178115 287.423398 
L 180.295566 287.427837 
L 183.327031 287.538923 
L 183.327031 287.538923 
L 183.437727 287.542949 
L 189.839606 287.762905 
L 190.918356 287.798444 
L 194.399436 287.909548 
L 202.908586 288.16347 
L 230.988224 288.849519 
L 236.420262 288.960623 
L 236.535461 288.962934 
L 247.606873 289.17122 
L 247.723126 289.17331 
L 253.426305 289.272663 
L 260.221931 289.383766 
L 260.221931 289.383773 
L 292.857451 289.849175 
L 301.868313 289.960286 
L 318.909486 290.150178 
L 329.671893 290.261286 
L 355.449395 290.500451 
L 363.959631 290.572411 
L 383.546065 290.724318 
L 385.318342 290.737182 
L 398.486467 290.828653 
L 398.486467 290.828653 
" clip-path="url(#pe08d549d63)" style="fill: none; stroke: #ff7f0e; stroke-width: 1.5; stroke-linecap: square"/>
   </g>
   <g id="line2d_33">
    <path d="M 73.832727 295.488 
L 73.840566 295.488 
L 73.840566 295.488 
L 73.851743 99.464301 
L 73.950359 166.731829 
L 74.181731 187.792226 
L 74.183354 187.818251 
L 74.183354 187.818251 
L 74.293756 195.157554 
L 74.295251 195.204127 
L 74.407072 203.097942 
L 74.408696 203.16281 
L 74.524372 209.46386 
L 74.52716 209.564299 
L 74.696309 216.889509 
L 74.699961 216.981159 
L 74.699961 216.981159 
L 74.811056 221.079463 
L 74.92607 224.926763 
L 74.95441 225.735265 
L 75.080509 229.106444 
L 75.086121 229.21279 
L 75.196003 231.690348 
L 75.202771 231.793876 
L 75.202771 231.793876 
L 75.313372 233.993749 
L 75.320458 234.144286 
L 75.384511 235.316237 
L 75.995211 244.104768 
L 76.005074 244.21167 
L 76.005074 244.21167 
L 76.1159 245.425706 
L 76.823777 251.555039 
L 76.839259 251.665839 
L 77.210931 254.090649 
L 77.231863 254.196281 
L 77.231863 254.196281 
L 77.342664 254.818488 
L 77.363754 254.927429 
L 77.363754 254.928557 
L 77.500507 255.656412 
L 77.523241 255.763966 
L 77.523241 255.764067 
L 77.635424 256.337681 
L 79.669844 263.628712 
L 79.711414 263.736621 
L 79.711414 263.736621 
L 79.822203 264.025901 
L 79.866646 264.135493 
L 79.978432 264.417711 
L 80.067317 264.633371 
L 80.196466 264.945243 
L 80.260448 265.089665 
L 80.405144 265.416845 
L 82.905141 269.614424 
L 82.997125 269.725523 
L 83.430723 270.215403 
L 83.53179 270.326063 
L 83.53179 270.326063 
L 83.642274 270.448899 
L 84.176636 270.999203 
L 84.366926 271.184307 
L 85.828191 272.404076 
L 85.972388 272.514886 
L 86.288395 272.758099 
L 86.401931 272.847122 
L 86.575369 272.977502 
L 86.70133 273.072711 
L 86.85248 273.183494 
L 86.969179 273.269061 
L 87.126981 273.381002 
L 87.301438 273.504877 
L 87.486898 273.62868 
L 87.486898 273.62868 
L 87.597631 273.703267 
L 87.815234 273.846612 
L 87.926678 273.919955 
L 88.197116 274.090009 
L 88.314426 274.162946 
L 88.494545 274.273972 
L 88.494545 274.273972 
L 88.604635 274.344999 
L 88.782454 274.455532 
L 88.893959 274.525966 
L 89.55183 274.938423 
L 89.730262 275.049001 
L 89.730262 275.049103 
L 89.85079 275.122372 
L 90.038279 275.233432 
L 90.038279 275.233432 
L 90.149387 275.299222 
L 90.329168 275.403253 
L 90.656746 275.588384 
L 90.860467 275.699244 
L 90.860467 275.699244 
L 90.970897 275.759508 
L 91.177533 275.870433 
L 94.803563 277.485901 
L 95.104975 277.596571 
L 95.300178 277.667998 
L 96.893191 278.198761 
L 97.003993 278.233363 
L 97.365857 278.344166 
L 97.477693 278.378321 
L 97.888432 278.503106 
L 97.888432 278.503106 
L 97.998406 278.53588 
L 109.384601 281.205866 
L 109.99197 281.316903 
L 109.99197 281.316953 
L 110.426454 281.394363 
L 111.071041 281.505386 
L 111.071041 281.505386 
L 111.1819 281.524349 
L 111.844228 281.635425 
L 111.95967 281.654737 
L 113.610688 281.918108 
L 113.721541 281.935154 
L 114.457191 282.046242 
L 114.457191 282.046242 
L 114.566949 282.063364 
L 115.309004 282.174406 
L 115.309004 282.174406 
L 115.41944 282.190901 
L 116.16934 282.30195 
L 116.16934 282.30195 
L 116.27941 282.318453 
L 117.105697 282.437995 
L 117.217163 282.453763 
L 118.2938 282.602868 
L 118.604198 282.645181 
L 119.43699 282.756226 
L 119.43699 282.756226 
L 119.547124 282.770929 
L 120.755295 282.92775 
L 121.056414 282.965941 
L 121.938545 283.077009 
L 122.04951 283.090885 
L 122.963348 283.201949 
L 123.356635 283.248877 
L 124.306439 283.359871 
L 124.430227 283.37425 
L 125.796411 283.527473 
L 125.907506 283.539814 
L 130.059695 283.964772 
L 131.234541 284.075861 
L 131.234541 284.075861 
L 131.345612 284.086298 
L 132.787914 284.215725 
L 134.944656 284.403433 
L 136.270184 284.514535 
L 138.019015 284.654399 
L 139.06278 284.735557 
L 140.531047 284.84666 
L 140.642632 284.855005 
L 158.10063 285.923253 
L 160.15114 286.034312 
L 160.15114 286.034339 
L 160.904673 286.074617 
L 163.021007 286.185711 
L 163.132248 286.191514 
L 165.320808 286.30262 
L 165.532387 286.313197 
L 167.817186 286.424227 
L 169.41937 286.499611 
L 172.151681 286.623931 
L 172.264012 286.628913 
L 200.920634 287.686722 
L 204.654823 287.797773 
L 204.654823 287.797773 
L 204.765426 287.801007 
L 211.687725 287.993022 
L 214.068293 288.05518 
L 218.502761 288.166287 
L 237.155794 288.579604 
L 243.366259 288.701029 
L 243.62906 288.706057 
L 249.581537 288.817158 
L 249.703348 288.819399 
L 256.46848 288.93805 
L 257.012026 288.947306 
L 263.756936 289.058415 
L 324.625188 289.874349 
L 335.036634 289.985448 
L 335.162935 289.986758 
L 346.194181 290.097857 
L 346.194181 290.097857 
L 346.304926 290.098942 
L 358.161949 290.210042 
L 358.277023 290.21109 
L 370.833879 290.322201 
L 388.137819 290.465054 
L 398.487145 290.54513 
L 398.487145 290.54513 
" clip-path="url(#pe08d549d63)" style="fill: none; stroke: #2ca02c; stroke-width: 1.5; stroke-linecap: square"/>
   </g>
   <g id="line2d_34">
    <path d="M 73.832727 295.488 
L 73.841432 295.488 
L 73.841432 295.488 
L 73.896193 85.556154 
L 73.952506 99.653856 
L 73.954473 99.61191 
L 73.969932 103.346678 
L 73.971111 103.346678 
L 74.082174 131.860768 
L 74.131004 143.092235 
L 74.131004 143.092235 
L 74.242076 163.216228 
L 74.243892 163.261123 
L 74.365063 177.84823 
L 74.368889 178.076932 
L 74.454949 185.375366 
L 74.566447 193.72423 
L 74.568261 193.780466 
L 74.707672 202.078745 
L 74.710063 202.171514 
L 74.841061 208.407079 
L 74.844313 208.481493 
L 74.955191 212.868917 
L 74.958062 212.943243 
L 74.958062 212.974519 
L 75.243147 221.75351 
L 75.249289 221.85667 
L 75.360634 224.517931 
L 75.365504 224.61757 
L 75.365504 224.61757 
L 75.475578 226.989827 
L 75.481969 227.096587 
L 75.593288 229.269905 
L 75.600879 229.380922 
L 75.600879 229.380922 
L 75.711936 231.353887 
L 75.775563 232.396353 
L 75.885763 234.130119 
L 75.893628 234.229873 
L 76.005485 235.834875 
L 76.355295 240.142652 
L 76.367876 240.252096 
L 76.367876 240.252538 
L 76.483509 241.482262 
L 76.560001 242.219684 
L 76.671404 243.276236 
L 76.683689 243.383485 
L 76.838612 244.71878 
L 76.853308 244.827666 
L 76.964634 245.724291 
L 77.013127 246.095174 
L 77.243656 247.793543 
L 77.261894 247.902906 
L 77.261894 247.90308 
L 77.379082 248.692712 
L 77.485533 249.377162 
L 77.596872 250.074768 
L 77.614746 250.185213 
L 77.655944 250.414892 
L 77.655944 250.414892 
L 77.766772 251.057052 
L 77.786617 251.16422 
L 77.786617 251.16547 
L 77.912773 251.855398 
L 77.933916 251.965574 
L 78.045961 252.562442 
L 78.07069 252.673542 
L 78.07069 252.673542 
L 78.180541 253.226129 
L 78.20523 253.338316 
L 78.328385 253.920982 
L 78.352637 254.029079 
L 78.4785 254.595573 
L 78.504704 254.70536 
L 79.660388 258.921763 
L 79.696399 259.030762 
L 79.696399 259.031429 
L 79.861253 259.524958 
L 79.898091 259.630039 
L 79.898091 259.635079 
L 80.027953 259.996818 
L 80.027953 259.996818 
L 80.138365 260.30273 
L 80.180018 260.41378 
L 80.262643 260.631064 
L 80.397248 260.976326 
L 80.441529 261.085028 
L 80.626535 261.538012 
L 81.444842 263.350305 
L 81.558295 263.573359 
L 81.61795 263.688665 
L 81.61795 263.688665 
L 81.728333 263.904869 
L 81.788649 264.015062 
L 81.899994 264.222292 
L 82.121882 264.613561 
L 82.233982 264.810169 
L 82.299119 264.920254 
L 82.410218 265.108802 
L 82.475039 265.215109 
L 82.475039 265.219049 
L 82.879234 265.864585 
L 82.879234 265.864585 
L 82.990223 266.037875 
L 83.06307 266.148318 
L 83.06307 266.148318 
L 83.173902 266.315236 
L 83.501111 266.79246 
L 83.612545 266.953516 
L 83.690465 267.063843 
L 83.690465 267.063843 
L 83.80114 267.22089 
L 83.898244 267.352719 
L 83.898244 267.352719 
L 84.008399 267.50326 
L 84.097907 267.620752 
L 84.097907 267.620752 
L 84.208695 267.766779 
L 84.345456 267.940188 
L 84.345456 267.940188 
L 84.456048 268.081069 
L 84.546334 268.190676 
L 84.657111 268.329111 
L 84.751796 268.439757 
L 84.866851 268.576508 
L 84.96373 268.687192 
L 85.076065 268.815619 
L 85.242315 268.998511 
L 85.242315 268.998511 
L 85.352874 269.119985 
L 85.513416 269.289893 
L 85.680632 269.460901 
L 85.795852 269.571967 
L 85.795852 269.571967 
L 85.906234 269.677276 
L 86.026834 269.787964 
L 86.137439 269.892855 
L 86.256985 270.003403 
L 86.368867 270.107717 
L 86.678808 270.382798 
L 86.883851 270.56145 
L 87.015336 270.671264 
L 87.015336 270.672137 
L 87.375666 270.973649 
L 87.512941 271.084079 
L 87.675142 271.215098 
L 87.812407 271.325471 
L 88.292041 271.699091 
L 88.292041 271.699091 
L 88.402424 271.785426 
L 88.549736 271.895475 
L 88.549736 271.896221 
L 90.232717 273.041926 
L 90.408519 273.152749 
L 94.028396 275.191804 
L 94.255733 275.302908 
L 94.255733 275.302908 
L 94.365489 275.356899 
L 94.8004 275.561969 
L 94.911926 275.613647 
L 95.476026 275.868887 
L 95.638584 275.940564 
L 95.989049 276.091182 
L 97.319674 276.634357 
L 97.610486 276.745136 
L 97.721848 276.787409 
L 97.881128 276.847117 
L 98.177781 276.958196 
L 98.177781 276.958196 
L 98.288449 276.999518 
L 98.59131 277.110215 
L 98.59131 277.110215 
L 98.700881 277.150416 
L 99.038116 277.270193 
L 99.038116 277.270193 
L 99.148905 277.309441 
L 99.617625 277.472877 
L 99.617625 277.472877 
L 99.728134 277.51102 
L 100.468284 277.756824 
L 101.37766 278.043802 
L 101.37766 278.043802 
L 101.487586 278.077972 
L 102.210129 278.296608 
L 102.787217 278.465926 
L 103.17396 278.576926 
L 103.540314 278.680797 
L 105.259343 279.144747 
L 105.371287 279.173934 
L 105.808387 279.285016 
L 105.808387 279.285016 
L 105.917552 279.312822 
L 106.369636 279.423929 
L 106.479643 279.451339 
L 106.946138 279.562391 
L 107.058308 279.589027 
L 107.82287 279.764557 
L 107.82287 279.764557 
L 107.933797 279.789981 
L 108.434027 279.900879 
L 108.545293 279.925355 
L 109.060267 280.036439 
L 109.170608 280.060054 
L 109.712326 280.17103 
L 109.823755 280.193588 
L 110.376686 280.304575 
L 110.376686 280.304575 
L 110.487069 280.326877 
L 111.341459 280.495857 
L 111.79746 280.583985 
L 121.051155 282.060687 
L 121.902865 282.171768 
L 122.20798 282.21089 
L 123.462306 282.364377 
L 124.499577 282.485582 
L 124.499577 282.485582 
L 124.610024 282.498345 
L 125.591625 282.609451 
L 125.704046 282.622244 
L 126.985485 282.763206 
L 128.924809 282.968988 
L 130.254895 283.106076 
L 130.381224 283.118966 
L 131.497917 283.230038 
L 131.497917 283.230038 
L 131.608992 283.240947 
L 145.17806 284.356162 
L 146.719747 284.467185 
L 148.25907 284.574604 
L 149.894749 284.685712 
L 150.227463 284.70812 
L 151.9108 284.819161 
L 161.221718 285.387721 
L 163.19077 285.498754 
L 163.388154 285.509772 
L 165.421466 285.620845 
L 165.541628 285.627401 
L 167.649855 285.73845 
L 167.649855 285.73845 
L 167.760487 285.744251 
L 170.700799 285.892986 
L 205.056786 287.20012 
L 208.820716 287.311201 
L 209.017124 287.316904 
L 212.956801 287.428012 
L 213.141495 287.433101 
L 217.256538 287.54419 
L 218.136115 287.567428 
L 222.445082 287.678525 
L 258.416227 288.442549 
L 267.127745 288.598236 
L 268.069569 288.614535 
L 274.781077 288.725633 
L 274.781077 288.725633 
L 274.89216 288.727406 
L 280.27353 288.811088 
L 287.822867 288.922196 
L 287.822867 288.922196 
L 287.933655 288.923796 
L 295.947576 289.0349 
L 312.505806 289.24 
L 322.553175 289.351095 
L 323.812789 289.364827 
L 334.457121 289.475934 
L 370.824525 289.811558 
L 384.04566 289.922668 
L 384.177172 289.92377 
L 398.487242 290.038687 
L 398.487242 290.038687 
" clip-path="url(#pe08d549d63)" style="fill: none; stroke: #d62728; stroke-width: 1.5; stroke-linecap: square"/>
   </g>
   <g id="line2d_35">
    <path d="M 73.832727 295.488 
L 73.838336 295.488 
L 73.838336 295.488 
L 73.850258 53.568 
L 73.948967 159.40558 
L 73.978416 170.611128 
L 73.978416 170.611128 
L 74.088456 200.443552 
L 74.090828 200.482472 
L 74.090828 200.482472 
L 74.201525 214.847699 
L 74.565011 236.482083 
L 74.56771 236.584429 
L 74.638277 238.834654 
L 74.751348 242.181819 
L 74.828782 244.054446 
L 74.980788 247.083673 
L 75.048081 248.144673 
L 75.165108 249.893411 
L 75.171269 249.987162 
L 75.309109 252.006671 
L 75.32411 252.185903 
L 75.480756 254.289101 
L 75.490902 254.389894 
L 75.490902 254.389894 
L 75.60169 255.699892 
L 75.612817 255.804106 
L 75.72361 256.985835 
L 75.768076 257.404467 
L 75.920621 258.808503 
L 75.935077 258.915694 
L 76.046423 259.815044 
L 76.087179 260.114966 
L 76.93055 265.25546 
L 76.953472 265.361671 
L 76.953472 265.361671 
L 77.064338 265.883346 
L 77.226159 266.602648 
L 77.282512 266.831576 
L 77.420006 267.384834 
L 77.468861 267.57199 
L 77.936856 269.21123 
L 77.981811 269.349083 
L 78.092734 269.695828 
L 78.129642 269.800773 
L 78.266575 270.197262 
L 78.517902 270.878911 
L 78.561499 270.987244 
L 78.672783 271.265598 
L 78.717053 271.371875 
L 78.855949 271.701469 
L 78.930797 271.873904 
L 79.058647 272.164631 
L 79.10952 272.275696 
L 79.580741 273.24951 
L 79.640741 273.359768 
L 79.7524 273.570671 
L 79.816661 273.688907 
L 80.024804 274.057857 
L 80.089091 274.165401 
L 80.200626 274.35381 
L 80.268981 274.464903 
L 80.38283 274.649636 
L 80.48051 274.79871 
L 80.660218 275.071599 
L 80.812021 275.291816 
L 80.923608 275.451624 
L 82.520402 277.361272 
L 82.649135 277.491528 
L 82.649135 277.491528 
L 82.759517 277.602735 
L 82.92054 277.757798 
L 83.031041 277.864921 
L 83.148744 277.975811 
L 83.259572 278.080762 
L 83.382777 278.191615 
L 83.49509 278.293506 
L 83.623099 278.404356 
L 83.623099 278.404356 
L 83.733482 278.49978 
L 83.867034 278.610575 
L 83.995594 278.715751 
L 84.13353 278.82667 
L 84.774101 279.315821 
L 84.926183 279.425686 
L 84.926183 279.426182 
L 85.103373 279.55342 
L 85.262606 279.663272 
L 85.262606 279.663272 
L 85.372343 279.740129 
L 85.54952 279.858342 
L 85.883103 280.077804 
L 86.062069 280.188759 
L 86.062069 280.188759 
L 86.172566 280.257669 
L 86.354664 280.368361 
L 86.354664 280.368392 
L 86.470854 280.438901 
L 86.694506 280.569241 
L 86.806746 280.633857 
L 87.002979 280.744548 
L 87.114674 280.807139 
L 87.318889 280.918114 
L 87.318889 280.918168 
L 87.448836 280.988193 
L 92.664097 283.098492 
L 93.036806 283.2096 
L 93.178622 283.250955 
L 93.610244 283.370033 
L 94.257574 283.535223 
L 95.08869 283.732124 
L 95.242141 283.767003 
L 95.721361 283.878047 
L 95.721361 283.878047 
L 95.831175 283.904323 
L 96.299197 284.015118 
L 96.573811 284.079582 
L 97.073549 284.190532 
L 97.073549 284.190532 
L 97.184514 284.215145 
L 102.940593 285.366368 
L 103.637663 285.481468 
L 103.637663 285.481468 
L 103.748366 285.499476 
L 104.444027 285.610454 
L 104.590525 285.633578 
L 105.140184 285.719356 
L 105.868486 285.830428 
L 105.980564 285.84746 
L 106.887458 285.979983 
L 106.887458 285.979983 
L 106.998247 285.996142 
L 107.826522 286.112137 
L 107.826522 286.112137 
L 107.937628 286.127595 
L 108.765992 286.238683 
L 108.765992 286.238683 
L 108.876606 286.253294 
L 110.914122 286.509507 
L 111.851836 286.6206 
L 111.851836 286.6206 
L 111.962846 286.633521 
L 112.937807 286.744499 
L 112.937807 286.744572 
L 119.009856 287.351845 
L 120.27163 287.462903 
L 120.559498 287.487685 
L 122.461993 287.645502 
L 122.605487 287.657127 
L 124.036943 287.76914 
L 124.036943 287.76914 
L 124.147977 287.777703 
L 126.730767 287.968166 
L 126.730767 287.968166 
L 126.84163 287.976132 
L 128.52976 288.092716 
L 129.097799 288.130492 
L 136.247897 288.561101 
L 138.301465 288.672184 
L 138.301465 288.672185 
L 138.42595 288.67872 
L 140.909378 288.805436 
L 143.520291 288.93179 
L 145.961766 289.042883 
L 150.242915 289.217564 
L 153.275763 289.328638 
L 153.275763 289.328638 
L 153.3866 289.332594 
L 156.605098 289.44366 
L 156.605098 289.44367 
L 157.918534 289.48776 
L 161.346178 289.59887 
L 161.460897 289.602595 
L 165.398311 289.725465 
L 165.53085 289.729537 
L 169.293014 289.840636 
L 169.293014 289.840636 
L 169.403904 289.843904 
L 170.982261 289.889447 
L 175.07674 290.000555 
L 175.07674 290.000555 
L 175.187818 290.003451 
L 179.668171 290.114536 
L 179.668171 290.114549 
L 184.375865 290.224705 
L 189.392219 290.335811 
L 196.907342 290.493041 
L 225.251135 290.982778 
L 227.19155 291.010813 
L 307.450538 291.786579 
L 324.45912 291.907998 
L 324.59816 291.908953 
L 343.382817 292.03096 
L 352.600548 292.083172 
L 373.357238 292.194283 
L 373.357238 292.194283 
L 373.468036 292.194868 
L 395.354698 292.305979 
L 395.500593 292.306688 
L 398.487255 292.320844 
L 398.487255 292.320844 
" clip-path="url(#pe08d549d63)" style="fill: none; stroke: #9467bd; stroke-width: 1.5; stroke-linecap: square"/>
   </g>
   <g id="patch_3">
    <path d="M 57.6 307.584 
L 57.6 41.472 
" style="fill: none; stroke: #000000; stroke-width: 0.8; stroke-linejoin: miter; stroke-linecap: square"/>
   </g>
   <g id="patch_4">
    <path d="M 414.72 307.584 
L 414.72 41.472 
" style="fill: none; stroke: #000000; stroke-width: 0.8; stroke-linejoin: miter; stroke-linecap: square"/>
   </g>
   <g id="patch_5">
    <path d="M 57.6 307.584 
L 414.72 307.584 
" style="fill: none; stroke: #000000; stroke-width: 0.8; stroke-linejoin: miter; stroke-linecap: square"/>
   </g>
   <g id="patch_6">
    <path d="M 57.6 41.472 
L 414.72 41.472 
" style="fill: none; stroke: #000000; stroke-width: 0.8; stroke-linejoin: miter; stroke-linecap: square"/>
   </g>
   <g id="text_18">
    <!-- diskLoadStdDev vs. TimePoint for Each Run -->
    <g transform="translate(105.84 35.472) scale(0.12 -0.12)">
     <defs>
      <path id="DejaVuSans-20" transform="scale(0.015625)"/>
      <path id="DejaVuSans-66" d="M 2375 4863 
L 2375 4384 
L 1825 4384 
Q 1516 4384 1395 4259 
Q 1275 4134 1275 3809 
L 1275 3500 
L 2222 3500 
L 2222 3053 
L 1275 3053 
L 1275 0 
L 697 0 
L 697 3053 
L 147 3053 
L 147 3500 
L 697 3500 
L 697 3744 
Q 697 4328 969 4595 
Q 1241 4863 1831 4863 
L 2375 4863 
z
" transform="scale(0.015625)"/>
      <path id="DejaVuSans-72" d="M 2631 2963 
Q 2534 3019 2420 3045 
Q 2306 3072 2169 3072 
Q 1681 3072 1420 2755 
Q 1159 2438 1159 1844 
L 1159 0 
L 581 0 
L 581 3500 
L 1159 3500 
L 1159 2956 
Q 1341 3275 1631 3429 
Q 1922 3584 2338 3584 
Q 2397 3584 2469 3576 
Q 2541 3569 2628 3553 
L 2631 2963 
z
" transform="scale(0.015625)"/>
      <path id="DejaVuSans-45" d="M 628 4666 
L 3578 4666 
L 3578 4134 
L 1259 4134 
L 1259 2753 
L 3481 2753 
L 3481 2222 
L 1259 2222 
L 1259 531 
L 3634 531 
L 3634 0 
L 628 0 
L 628 4666 
z
" transform="scale(0.015625)"/>
      <path id="DejaVuSans-63" d="M 3122 3366 
L 3122 2828 
Q 2878 2963 2633 3030 
Q 2388 3097 2138 3097 
Q 1578 3097 1268 2742 
Q 959 2388 959 1747 
Q 959 1106 1268 751 
Q 1578 397 2138 397 
Q 2388 397 2633 464 
Q 2878 531 3122 666 
L 3122 134 
Q 2881 22 2623 -34 
Q 2366 -91 2075 -91 
Q 1284 -91 818 406 
Q 353 903 353 1747 
Q 353 2603 823 3093 
Q 1294 3584 2113 3584 
Q 2378 3584 2631 3529 
Q 2884 3475 3122 3366 
z
" transform="scale(0.015625)"/>
      <path id="DejaVuSans-68" d="M 3513 2113 
L 3513 0 
L 2938 0 
L 2938 2094 
Q 2938 2591 2744 2837 
Q 2550 3084 2163 3084 
Q 1697 3084 1428 2787 
Q 1159 2491 1159 1978 
L 1159 0 
L 581 0 
L 581 4863 
L 1159 4863 
L 1159 2956 
Q 1366 3272 1645 3428 
Q 1925 3584 2291 3584 
Q 2894 3584 3203 3211 
Q 3513 2838 3513 2113 
z
" transform="scale(0.015625)"/>
      <path id="DejaVuSans-52" d="M 2841 2188 
Q 3044 2119 3236 1894 
Q 3428 1669 3622 1275 
L 4263 0 
L 3584 0 
L 2988 1197 
Q 2756 1666 2539 1819 
Q 2322 1972 1947 1972 
L 1259 1972 
L 1259 0 
L 628 0 
L 628 4666 
L 2053 4666 
Q 2853 4666 3247 4331 
Q 3641 3997 3641 3322 
Q 3641 2881 3436 2590 
Q 3231 2300 2841 2188 
z
M 1259 4147 
L 1259 2491 
L 2053 2491 
Q 2509 2491 2742 2702 
Q 2975 2913 2975 3322 
Q 2975 3731 2742 3939 
Q 2509 4147 2053 4147 
L 1259 4147 
z
" transform="scale(0.015625)"/>
      <path id="DejaVuSans-75" d="M 544 1381 
L 544 3500 
L 1119 3500 
L 1119 1403 
Q 1119 906 1312 657 
Q 1506 409 1894 409 
Q 2359 409 2629 706 
Q 2900 1003 2900 1516 
L 2900 3500 
L 3475 3500 
L 3475 0 
L 2900 0 
L 2900 538 
Q 2691 219 2414 64 
Q 2138 -91 1772 -91 
Q 1169 -91 856 284 
Q 544 659 544 1381 
z
M 1991 3584 
L 1991 3584 
z
" transform="scale(0.015625)"/>
     </defs>
     <use xlink:href="#DejaVuSans-64"/>
     <use xlink:href="#DejaVuSans-69" x="63.476562"/>
     <use xlink:href="#DejaVuSans-73" x="91.259766"/>
     <use xlink:href="#DejaVuSans-6b" x="143.359375"/>
     <use xlink:href="#DejaVuSans-4c" x="201.269531"/>
     <use xlink:href="#DejaVuSans-6f" x="255.232422"/>
     <use xlink:href="#DejaVuSans-61" x="316.414062"/>
     <use xlink:href="#DejaVuSans-64" x="377.693359"/>
     <use xlink:href="#DejaVuSans-53" x="441.169922"/>
     <use xlink:href="#DejaVuSans-74" x="504.646484"/>
     <use xlink:href="#DejaVuSans-64" x="543.855469"/>
     <use xlink:href="#DejaVuSans-44" x="607.332031"/>
     <use xlink:href="#DejaVuSans-65" x="684.333984"/>
     <use xlink:href="#DejaVuSans-76" x="745.857422"/>
     <use xlink:href="#DejaVuSans-20" x="805.037109"/>
     <use xlink:href="#DejaVuSans-76" x="836.824219"/>
     <use xlink:href="#DejaVuSans-73" x="896.003906"/>
     <use xlink:href="#DejaVuSans-2e" x="948.103516"/>
     <use xlink:href="#DejaVuSans-20" x="979.890625"/>
     <use xlink:href="#DejaVuSans-54" x="1011.677734"/>
     <use xlink:href="#DejaVuSans-69" x="1069.636719"/>
     <use xlink:href="#DejaVuSans-6d" x="1097.419922"/>
     <use xlink:href="#DejaVuSans-65" x="1194.832031"/>
     <use xlink:href="#DejaVuSans-50" x="1256.355469"/>
     <use xlink:href="#DejaVuSans-6f" x="1313.033203"/>
     <use xlink:href="#DejaVuSans-69" x="1374.214844"/>
     <use xlink:href="#DejaVuSans-6e" x="1401.998047"/>
     <use xlink:href="#DejaVuSans-74" x="1465.376953"/>
     <use xlink:href="#DejaVuSans-20" x="1504.585938"/>
     <use xlink:href="#DejaVuSans-66" x="1536.373047"/>
     <use xlink:href="#DejaVuSans-6f" x="1571.578125"/>
     <use xlink:href="#DejaVuSans-72" x="1632.759766"/>
     <use xlink:href="#DejaVuSans-20" x="1673.873047"/>
     <use xlink:href="#DejaVuSans-45" x="1705.660156"/>
     <use xlink:href="#DejaVuSans-61" x="1768.84375"/>
     <use xlink:href="#DejaVuSans-63" x="1830.123047"/>
     <use xlink:href="#DejaVuSans-68" x="1885.103516"/>
     <use xlink:href="#DejaVuSans-20" x="1948.482422"/>
     <use xlink:href="#DejaVuSans-52" x="1980.269531"/>
     <use xlink:href="#DejaVuSans-75" x="2045.251953"/>
     <use xlink:href="#DejaVuSans-6e" x="2108.630859"/>
    </g>
   </g>
   <g id="legend_1">
    <g id="patch_7">
     <path d="M 341.196563 137.54075 
L 407.72 137.54075 
Q 409.72 137.54075 409.72 135.54075 
L 409.72 48.472 
Q 409.72 46.472 407.72 46.472 
L 341.196563 46.472 
Q 339.196563 46.472 339.196563 48.472 
L 339.196563 135.54075 
Q 339.196563 137.54075 341.196563 137.54075 
z
" style="fill: #ffffff; opacity: 0.8; stroke: #cccccc; stroke-linejoin: miter"/>
    </g>
    <g id="text_19">
     <!-- Run Number -->
     <g transform="translate(343.196563 58.070438) scale(0.1 -0.1)">
      <defs>
       <path id="DejaVuSans-4e" d="M 628 4666 
L 1478 4666 
L 3547 763 
L 3547 4666 
L 4159 4666 
L 4159 0 
L 3309 0 
L 1241 3903 
L 1241 0 
L 628 0 
L 628 4666 
z
" transform="scale(0.015625)"/>
       <path id="DejaVuSans-62" d="M 3116 1747 
Q 3116 2381 2855 2742 
Q 2594 3103 2138 3103 
Q 1681 3103 1420 2742 
Q 1159 2381 1159 1747 
Q 1159 1113 1420 752 
Q 1681 391 2138 391 
Q 2594 391 2855 752 
Q 3116 1113 3116 1747 
z
M 1159 2969 
Q 1341 3281 1617 3432 
Q 1894 3584 2278 3584 
Q 2916 3584 3314 3078 
Q 3713 2572 3713 1747 
Q 3713 922 3314 415 
Q 2916 -91 2278 -91 
Q 1894 -91 1617 61 
Q 1341 213 1159 525 
L 1159 0 
L 581 0 
L 581 4863 
L 1159 4863 
L 1159 2969 
z
" transform="scale(0.015625)"/>
      </defs>
      <use xlink:href="#DejaVuSans-52"/>
      <use xlink:href="#DejaVuSans-75" x="64.982422"/>
      <use xlink:href="#DejaVuSans-6e" x="128.361328"/>
      <use xlink:href="#DejaVuSans-20" x="191.740234"/>
      <use xlink:href="#DejaVuSans-4e" x="223.527344"/>
      <use xlink:href="#DejaVuSans-75" x="298.332031"/>
      <use xlink:href="#DejaVuSans-6d" x="361.710938"/>
      <use xlink:href="#DejaVuSans-62" x="459.123047"/>
      <use xlink:href="#DejaVuSans-65" x="522.599609"/>
      <use xlink:href="#DejaVuSans-72" x="584.123047"/>
     </g>
    </g>
    <g id="line2d_36">
     <path d="M 346.10125 69.248563 
L 356.10125 69.248563 
L 366.10125 69.248563 
" style="fill: none; stroke: #1f77b4; stroke-width: 1.5; stroke-linecap: square"/>
    </g>
    <g id="text_20">
     <!-- Run 0 -->
     <g transform="translate(374.10125 72.748563) scale(0.1 -0.1)">
      <use xlink:href="#DejaVuSans-52"/>
      <use xlink:href="#DejaVuSans-75" x="64.982422"/>
      <use xlink:href="#DejaVuSans-6e" x="128.361328"/>
      <use xlink:href="#DejaVuSans-20" x="191.740234"/>
      <use xlink:href="#DejaVuSans-30" x="223.527344"/>
     </g>
    </g>
    <g id="line2d_37">
     <path d="M 346.10125 83.926688 
L 356.10125 83.926688 
L 366.10125 83.926688 
" style="fill: none; stroke: #ff7f0e; stroke-width: 1.5; stroke-linecap: square"/>
    </g>
    <g id="text_21">
     <!-- Run 1 -->
     <g transform="translate(374.10125 87.426688) scale(0.1 -0.1)">
      <use xlink:href="#DejaVuSans-52"/>
      <use xlink:href="#DejaVuSans-75" x="64.982422"/>
      <use xlink:href="#DejaVuSans-6e" x="128.361328"/>
      <use xlink:href="#DejaVuSans-20" x="191.740234"/>
      <use xlink:href="#DejaVuSans-31" x="223.527344"/>
     </g>
    </g>
    <g id="line2d_38">
     <path d="M 346.10125 98.604813 
L 356.10125 98.604813 
L 366.10125 98.604813 
" style="fill: none; stroke: #2ca02c; stroke-width: 1.5; stroke-linecap: square"/>
    </g>
    <g id="text_22">
     <!-- Run 2 -->
     <g transform="translate(374.10125 102.104813) scale(0.1 -0.1)">
      <use xlink:href="#DejaVuSans-52"/>
      <use xlink:href="#DejaVuSans-75" x="64.982422"/>
      <use xlink:href="#DejaVuSans-6e" x="128.361328"/>
      <use xlink:href="#DejaVuSans-20" x="191.740234"/>
      <use xlink:href="#DejaVuSans-32" x="223.527344"/>
     </g>
    </g>
    <g id="line2d_39">
     <path d="M 346.10125 113.282938 
L 356.10125 113.282938 
L 366.10125 113.282938 
" style="fill: none; stroke: #d62728; stroke-width: 1.5; stroke-linecap: square"/>
    </g>
    <g id="text_23">
     <!-- Run 3 -->
     <g transform="translate(374.10125 116.782938) scale(0.1 -0.1)">
      <use xlink:href="#DejaVuSans-52"/>
      <use xlink:href="#DejaVuSans-75" x="64.982422"/>
      <use xlink:href="#DejaVuSans-6e" x="128.361328"/>
      <use xlink:href="#DejaVuSans-20" x="191.740234"/>
      <use xlink:href="#DejaVuSans-33" x="223.527344"/>
     </g>
    </g>
    <g id="line2d_40">
     <path d="M 346.10125 127.961063 
L 356.10125 127.961063 
L 366.10125 127.961063 
" style="fill: none; stroke: #9467bd; stroke-width: 1.5; stroke-linecap: square"/>
    </g>
    <g id="text_24">
     <!-- Run 4 -->
     <g transform="translate(374.10125 131.461063) scale(0.1 -0.1)">
      <use xlink:href="#DejaVuSans-52"/>
      <use xlink:href="#DejaVuSans-75" x="64.982422"/>
      <use xlink:href="#DejaVuSans-6e" x="128.361328"/>
      <use xlink:href="#DejaVuSans-20" x="191.740234"/>
      <use xlink:href="#DejaVuSans-34" x="223.527344"/>
     </g>
    </g>
   </g>
  </g>
 </g>
 <defs>
  <clipPath id="pe08d549d63">
   <rect x="57.6" y="41.472" width="357.12" height="266.112"/>
  </clipPath>
 </defs>
</svg>
