<?xml version="1.0" encoding="utf-8" standalone="no"?>
<!DOCTYPE svg PUBLIC "-//W3C//DTD SVG 1.1//EN"
  "http://www.w3.org/Graphics/SVG/1.1/DTD/svg11.dtd">
<svg xmlns:xlink="http://www.w3.org/1999/xlink" width="460.8pt" height="345.6pt" viewBox="0 0 460.8 345.6" xmlns="http://www.w3.org/2000/svg" version="1.1">
 <metadata>
  <rdf:RDF xmlns:dc="http://purl.org/dc/elements/1.1/" xmlns:cc="http://creativecommons.org/ns#" xmlns:rdf="http://www.w3.org/1999/02/22-rdf-syntax-ns#">
   <cc:Work>
    <dc:type rdf:resource="http://purl.org/dc/dcmitype/StillImage"/>
    <dc:date>2024-12-04T00:26:25.469290</dc:date>
    <dc:format>image/svg+xml</dc:format>
    <dc:creator>
     <cc:Agent>
      <dc:title>Matplotlib v3.9.2, https://matplotlib.org/</dc:title>
     </cc:Agent>
    </dc:creator>
   </cc:Work>
  </rdf:RDF>
 </metadata>
 <defs>
  <style type="text/css">*{stroke-linejoin: round; stroke-linecap: butt}</style>
 </defs>
 <g id="figure_1">
  <g id="patch_1">
   <path d="M 0 345.6 
L 460.8 345.6 
L 460.8 0 
L 0 0 
z
" style="fill: #ffffff"/>
  </g>
  <g id="axes_1">
   <g id="patch_2">
    <path d="M 57.6 307.584 
L 414.72 307.584 
L 414.72 41.472 
L 57.6 41.472 
z
" style="fill: #ffffff"/>
   </g>
   <g id="patch_3">
    <path d="M 73.832727 307.584 
L 75.456 307.584 
L 75.456 306.535795 
L 73.832727 306.535795 
z
" clip-path="url(#p4ef945b010)" style="fill: #1f77b4; opacity: 0.6"/>
   </g>
   <g id="patch_4">
    <path d="M 75.456 307.584 
L 77.079273 307.584 
L 77.079273 305.531265 
L 75.456 305.531265 
z
" clip-path="url(#p4ef945b010)" style="fill: #1f77b4; opacity: 0.6"/>
   </g>
   <g id="patch_5">
    <path d="M 77.079273 307.584 
L 78.702545 307.584 
L 78.702545 304.66504 
L 77.079273 304.66504 
z
" clip-path="url(#p4ef945b010)" style="fill: #1f77b4; opacity: 0.6"/>
   </g>
   <g id="patch_6">
    <path d="M 78.702545 307.584 
L 80.325818 307.584 
L 80.325818 302.160994 
L 78.702545 302.160994 
z
" clip-path="url(#p4ef945b010)" style="fill: #1f77b4; opacity: 0.6"/>
   </g>
   <g id="patch_7">
    <path d="M 80.325818 307.584 
L 81.949091 307.584 
L 81.949091 300.144655 
L 80.325818 300.144655 
z
" clip-path="url(#p4ef945b010)" style="fill: #1f77b4; opacity: 0.6"/>
   </g>
   <g id="patch_8">
    <path d="M 81.949091 307.584 
L 83.572364 307.584 
L 83.572364 295.937276 
L 81.949091 295.937276 
z
" clip-path="url(#p4ef945b010)" style="fill: #1f77b4; opacity: 0.6"/>
   </g>
   <g id="patch_9">
    <path d="M 83.572364 307.584 
L 85.195636 307.584 
L 85.195636 290.485153 
L 83.572364 290.485153 
z
" clip-path="url(#p4ef945b010)" style="fill: #1f77b4; opacity: 0.6"/>
   </g>
   <g id="patch_10">
    <path d="M 85.195636 307.584 
L 86.818909 307.584 
L 86.818909 282.099511 
L 85.195636 282.099511 
z
" clip-path="url(#p4ef945b010)" style="fill: #1f77b4; opacity: 0.6"/>
   </g>
   <g id="patch_11">
    <path d="M 86.818909 307.584 
L 88.442182 307.584 
L 88.442182 270.831306 
L 86.818909 270.831306 
z
" clip-path="url(#p4ef945b010)" style="fill: #1f77b4; opacity: 0.6"/>
   </g>
   <g id="patch_12">
    <path d="M 88.442182 307.584 
L 90.065455 307.584 
L 90.065455 258.369311 
L 88.442182 258.369311 
z
" clip-path="url(#p4ef945b010)" style="fill: #1f77b4; opacity: 0.6"/>
   </g>
   <g id="patch_13">
    <path d="M 90.065455 307.584 
L 91.688727 307.584 
L 91.688727 241.925592 
L 90.065455 241.925592 
z
" clip-path="url(#p4ef945b010)" style="fill: #1f77b4; opacity: 0.6"/>
   </g>
   <g id="patch_14">
    <path d="M 91.688727 307.584 
L 93.312 307.584 
L 93.312 221.434636 
L 91.688727 221.434636 
z
" clip-path="url(#p4ef945b010)" style="fill: #1f77b4; opacity: 0.6"/>
   </g>
   <g id="patch_15">
    <path d="M 93.312 307.584 
L 94.935273 307.584 
L 94.935273 200.259436 
L 93.312 200.259436 
z
" clip-path="url(#p4ef945b010)" style="fill: #1f77b4; opacity: 0.6"/>
   </g>
   <g id="patch_16">
    <path d="M 94.935273 307.584 
L 96.558545 307.584 
L 96.558545 177.315389 
L 94.935273 177.315389 
z
" clip-path="url(#p4ef945b010)" style="fill: #1f77b4; opacity: 0.6"/>
   </g>
   <g id="patch_17">
    <path d="M 96.558545 307.584 
L 98.181818 307.584 
L 98.181818 151.503336 
L 96.558545 151.503336 
z
" clip-path="url(#p4ef945b010)" style="fill: #1f77b4; opacity: 0.6"/>
   </g>
   <g id="patch_18">
    <path d="M 98.181818 307.584 
L 99.805091 307.584 
L 99.805091 126.280899 
L 98.181818 126.280899 
z
" clip-path="url(#p4ef945b010)" style="fill: #1f77b4; opacity: 0.6"/>
   </g>
   <g id="patch_19">
    <path d="M 99.805091 307.584 
L 101.428364 307.584 
L 101.428364 102.914658 
L 99.805091 102.914658 
z
" clip-path="url(#p4ef945b010)" style="fill: #1f77b4; opacity: 0.6"/>
   </g>
   <g id="patch_20">
    <path d="M 101.428364 307.584 
L 103.051636 307.584 
L 103.051636 83.661167 
L 101.428364 83.661167 
z
" clip-path="url(#p4ef945b010)" style="fill: #1f77b4; opacity: 0.6"/>
   </g>
   <g id="patch_21">
    <path d="M 103.051636 307.584 
L 104.674909 307.584 
L 104.674909 70.536764 
L 103.051636 70.536764 
z
" clip-path="url(#p4ef945b010)" style="fill: #1f77b4; opacity: 0.6"/>
   </g>
   <g id="patch_22">
    <path d="M 104.674909 307.584 
L 106.298182 307.584 
L 106.298182 56.022034 
L 104.674909 56.022034 
z
" clip-path="url(#p4ef945b010)" style="fill: #1f77b4; opacity: 0.6"/>
   </g>
   <g id="patch_23">
    <path d="M 106.298182 307.584 
L 107.921455 307.584 
L 107.921455 54.144 
L 106.298182 54.144 
z
" clip-path="url(#p4ef945b010)" style="fill: #1f77b4; opacity: 0.6"/>
   </g>
   <g id="patch_24">
    <path d="M 107.921455 307.584 
L 109.544727 307.584 
L 109.544727 54.930154 
L 107.921455 54.930154 
z
" clip-path="url(#p4ef945b010)" style="fill: #1f77b4; opacity: 0.6"/>
   </g>
   <g id="patch_25">
    <path d="M 109.544727 307.584 
L 111.168 307.584 
L 111.168 60.265809 
L 109.544727 60.265809 
z
" clip-path="url(#p4ef945b010)" style="fill: #1f77b4; opacity: 0.6"/>
   </g>
   <g id="patch_26">
    <path d="M 111.168 307.584 
L 112.791273 307.584 
L 112.791273 75.166337 
L 111.168 75.166337 
z
" clip-path="url(#p4ef945b010)" style="fill: #1f77b4; opacity: 0.6"/>
   </g>
   <g id="patch_27">
    <path d="M 112.791273 307.584 
L 114.414545 307.584 
L 114.414545 94.987606 
L 112.791273 94.987606 
z
" clip-path="url(#p4ef945b010)" style="fill: #1f77b4; opacity: 0.6"/>
   </g>
   <g id="patch_28">
    <path d="M 114.414545 307.584 
L 116.037818 307.584 
L 116.037818 114.517707 
L 114.414545 114.517707 
z
" clip-path="url(#p4ef945b010)" style="fill: #1f77b4; opacity: 0.6"/>
   </g>
   <g id="patch_29">
    <path d="M 116.037818 307.584 
L 117.661091 307.584 
L 117.661091 138.116882 
L 116.037818 138.116882 
z
" clip-path="url(#p4ef945b010)" style="fill: #1f77b4; opacity: 0.6"/>
   </g>
   <g id="patch_30">
    <path d="M 117.661091 307.584 
L 119.284364 307.584 
L 119.284364 160.638735 
L 117.661091 160.638735 
z
" clip-path="url(#p4ef945b010)" style="fill: #1f77b4; opacity: 0.6"/>
   </g>
   <g id="patch_31">
    <path d="M 119.284364 307.584 
L 120.907636 307.584 
L 120.907636 182.1415 
L 119.284364 182.1415 
z
" clip-path="url(#p4ef945b010)" style="fill: #1f77b4; opacity: 0.6"/>
   </g>
   <g id="patch_32">
    <path d="M 120.907636 307.584 
L 122.530909 307.584 
L 122.530909 203.04737 
L 120.907636 203.04737 
z
" clip-path="url(#p4ef945b010)" style="fill: #1f77b4; opacity: 0.6"/>
   </g>
   <g id="patch_33">
    <path d="M 122.530909 307.584 
L 124.154182 307.584 
L 124.154182 222.868639 
L 122.530909 222.868639 
z
" clip-path="url(#p4ef945b010)" style="fill: #1f77b4; opacity: 0.6"/>
   </g>
   <g id="patch_34">
    <path d="M 124.154182 307.584 
L 125.777455 307.584 
L 125.777455 239.20317 
L 124.154182 239.20317 
z
" clip-path="url(#p4ef945b010)" style="fill: #1f77b4; opacity: 0.6"/>
   </g>
   <g id="patch_35">
    <path d="M 125.777455 307.584 
L 127.400727 307.584 
L 127.400727 252.931746 
L 125.777455 252.931746 
z
" clip-path="url(#p4ef945b010)" style="fill: #1f77b4; opacity: 0.6"/>
   </g>
   <g id="patch_36">
    <path d="M 127.400727 307.584 
L 129.024 307.584 
L 129.024 263.996134 
L 127.400727 263.996134 
z
" clip-path="url(#p4ef945b010)" style="fill: #1f77b4; opacity: 0.6"/>
   </g>
   <g id="patch_37">
    <path d="M 129.024 307.584 
L 130.647273 307.584 
L 130.647273 273.699311 
L 129.024 273.699311 
z
" clip-path="url(#p4ef945b010)" style="fill: #1f77b4; opacity: 0.6"/>
   </g>
   <g id="patch_38">
    <path d="M 130.647273 307.584 
L 132.270545 307.584 
L 132.270545 281.051306 
L 130.647273 281.051306 
z
" clip-path="url(#p4ef945b010)" style="fill: #1f77b4; opacity: 0.6"/>
   </g>
   <g id="patch_39">
    <path d="M 132.270545 307.584 
L 133.893818 307.584 
L 133.893818 286.76548 
L 132.270545 286.76548 
z
" clip-path="url(#p4ef945b010)" style="fill: #1f77b4; opacity: 0.6"/>
   </g>
   <g id="patch_40">
    <path d="M 133.893818 307.584 
L 135.517091 307.584 
L 135.517091 290.769042 
L 133.893818 290.769042 
z
" clip-path="url(#p4ef945b010)" style="fill: #1f77b4; opacity: 0.6"/>
   </g>
   <g id="patch_41">
    <path d="M 135.517091 307.584 
L 137.140364 307.584 
L 137.140364 294.481435 
L 135.517091 294.481435 
z
" clip-path="url(#p4ef945b010)" style="fill: #1f77b4; opacity: 0.6"/>
   </g>
   <g id="patch_42">
    <path d="M 137.140364 307.584 
L 138.763636 307.584 
L 138.763636 297.655168 
L 137.140364 297.655168 
z
" clip-path="url(#p4ef945b010)" style="fill: #1f77b4; opacity: 0.6"/>
   </g>
   <g id="patch_43">
    <path d="M 138.763636 307.584 
L 140.386909 307.584 
L 140.386909 299.744299 
L 138.763636 299.744299 
z
" clip-path="url(#p4ef945b010)" style="fill: #1f77b4; opacity: 0.6"/>
   </g>
   <g id="patch_44">
    <path d="M 140.386909 307.584 
L 142.010182 307.584 
L 142.010182 301.01088 
L 140.386909 301.01088 
z
" clip-path="url(#p4ef945b010)" style="fill: #1f77b4; opacity: 0.6"/>
   </g>
   <g id="patch_45">
    <path d="M 142.010182 307.584 
L 143.633455 307.584 
L 143.633455 302.670538 
L 142.010182 302.670538 
z
" clip-path="url(#p4ef945b010)" style="fill: #1f77b4; opacity: 0.6"/>
   </g>
   <g id="patch_46">
    <path d="M 143.633455 307.584 
L 145.256727 307.584 
L 145.256727 303.536763 
L 143.633455 303.536763 
z
" clip-path="url(#p4ef945b010)" style="fill: #1f77b4; opacity: 0.6"/>
   </g>
   <g id="patch_47">
    <path d="M 145.256727 307.584 
L 146.88 307.584 
L 146.88 304.170054 
L 145.256727 304.170054 
z
" clip-path="url(#p4ef945b010)" style="fill: #1f77b4; opacity: 0.6"/>
   </g>
   <g id="patch_48">
    <path d="M 146.88 307.584 
L 148.503273 307.584 
L 148.503273 304.999883 
L 146.88 304.999883 
z
" clip-path="url(#p4ef945b010)" style="fill: #1f77b4; opacity: 0.6"/>
   </g>
   <g id="patch_49">
    <path d="M 148.503273 307.584 
L 150.126545 307.584 
L 150.126545 305.66957 
L 148.503273 305.66957 
z
" clip-path="url(#p4ef945b010)" style="fill: #1f77b4; opacity: 0.6"/>
   </g>
   <g id="patch_50">
    <path d="M 150.126545 307.584 
L 151.749818 307.584 
L 151.749818 305.902504 
L 150.126545 305.902504 
z
" clip-path="url(#p4ef945b010)" style="fill: #1f77b4; opacity: 0.6"/>
   </g>
   <g id="patch_51">
    <path d="M 151.749818 307.584 
L 153.373091 307.584 
L 153.373091 306.361094 
L 151.749818 306.361094 
z
" clip-path="url(#p4ef945b010)" style="fill: #1f77b4; opacity: 0.6"/>
   </g>
   <g id="patch_52">
    <path d="M 153.373091 307.584 
L 154.996364 307.584 
L 154.996364 306.521236 
L 153.373091 306.521236 
z
" clip-path="url(#p4ef945b010)" style="fill: #1f77b4; opacity: 0.6"/>
   </g>
   <g id="patch_53">
    <path d="M 154.996364 307.584 
L 156.619636 307.584 
L 156.619636 306.695937 
L 154.996364 306.695937 
z
" clip-path="url(#p4ef945b010)" style="fill: #1f77b4; opacity: 0.6"/>
   </g>
   <g id="patch_54">
    <path d="M 156.619636 307.584 
L 158.242909 307.584 
L 158.242909 306.85608 
L 156.619636 306.85608 
z
" clip-path="url(#p4ef945b010)" style="fill: #1f77b4; opacity: 0.6"/>
   </g>
   <g id="patch_55">
    <path d="M 158.242909 307.584 
L 159.866182 307.584 
L 159.866182 306.892476 
L 158.242909 306.892476 
z
" clip-path="url(#p4ef945b010)" style="fill: #1f77b4; opacity: 0.6"/>
   </g>
   <g id="patch_56">
    <path d="M 159.866182 307.584 
L 161.489455 307.584 
L 161.489455 306.972547 
L 159.866182 306.972547 
z
" clip-path="url(#p4ef945b010)" style="fill: #1f77b4; opacity: 0.6"/>
   </g>
   <g id="patch_57">
    <path d="M 161.489455 307.584 
L 163.112727 307.584 
L 163.112727 307.169085 
L 161.489455 307.169085 
z
" clip-path="url(#p4ef945b010)" style="fill: #1f77b4; opacity: 0.6"/>
   </g>
   <g id="patch_58">
    <path d="M 163.112727 307.584 
L 164.736 307.584 
L 164.736 307.147248 
L 163.112727 307.147248 
z
" clip-path="url(#p4ef945b010)" style="fill: #1f77b4; opacity: 0.6"/>
   </g>
   <g id="patch_59">
    <path d="M 164.736 307.584 
L 166.359273 307.584 
L 166.359273 307.321949 
L 164.736 307.321949 
z
" clip-path="url(#p4ef945b010)" style="fill: #1f77b4; opacity: 0.6"/>
   </g>
   <g id="patch_60">
    <path d="M 166.359273 307.584 
L 167.982545 307.584 
L 167.982545 307.31467 
L 166.359273 307.31467 
z
" clip-path="url(#p4ef945b010)" style="fill: #1f77b4; opacity: 0.6"/>
   </g>
   <g id="patch_61">
    <path d="M 167.982545 307.584 
L 169.605818 307.584 
L 169.605818 307.358345 
L 167.982545 307.358345 
z
" clip-path="url(#p4ef945b010)" style="fill: #1f77b4; opacity: 0.6"/>
   </g>
   <g id="patch_62">
    <path d="M 169.605818 307.584 
L 171.229091 307.584 
L 171.229091 307.321949 
L 169.605818 307.321949 
z
" clip-path="url(#p4ef945b010)" style="fill: #1f77b4; opacity: 0.6"/>
   </g>
   <g id="patch_63">
    <path d="M 171.229091 307.584 
L 172.852364 307.584 
L 172.852364 307.31467 
L 171.229091 307.31467 
z
" clip-path="url(#p4ef945b010)" style="fill: #1f77b4; opacity: 0.6"/>
   </g>
   <g id="patch_64">
    <path d="M 172.852364 307.584 
L 174.475636 307.584 
L 174.475636 307.329228 
L 172.852364 307.329228 
z
" clip-path="url(#p4ef945b010)" style="fill: #1f77b4; opacity: 0.6"/>
   </g>
   <g id="patch_65">
    <path d="M 174.475636 307.584 
L 176.098909 307.584 
L 176.098909 307.40202 
L 174.475636 307.40202 
z
" clip-path="url(#p4ef945b010)" style="fill: #1f77b4; opacity: 0.6"/>
   </g>
   <g id="patch_66">
    <path d="M 176.098909 307.584 
L 177.722182 307.584 
L 177.722182 307.431137 
L 176.098909 307.431137 
z
" clip-path="url(#p4ef945b010)" style="fill: #1f77b4; opacity: 0.6"/>
   </g>
   <g id="patch_67">
    <path d="M 177.722182 307.584 
L 179.345455 307.584 
L 179.345455 307.423858 
L 177.722182 307.423858 
z
" clip-path="url(#p4ef945b010)" style="fill: #1f77b4; opacity: 0.6"/>
   </g>
   <g id="patch_68">
    <path d="M 179.345455 307.584 
L 180.968727 307.584 
L 180.968727 307.431137 
L 179.345455 307.431137 
z
" clip-path="url(#p4ef945b010)" style="fill: #1f77b4; opacity: 0.6"/>
   </g>
   <g id="patch_69">
    <path d="M 180.968727 307.584 
L 182.592 307.584 
L 182.592 307.48937 
L 180.968727 307.48937 
z
" clip-path="url(#p4ef945b010)" style="fill: #1f77b4; opacity: 0.6"/>
   </g>
   <g id="patch_70">
    <path d="M 182.592 307.584 
L 184.215273 307.584 
L 184.215273 307.438416 
L 182.592 307.438416 
z
" clip-path="url(#p4ef945b010)" style="fill: #1f77b4; opacity: 0.6"/>
   </g>
   <g id="patch_71">
    <path d="M 184.215273 307.584 
L 185.838545 307.584 
L 185.838545 307.533046 
L 184.215273 307.533046 
z
" clip-path="url(#p4ef945b010)" style="fill: #1f77b4; opacity: 0.6"/>
   </g>
   <g id="patch_72">
    <path d="M 185.838545 307.584 
L 187.461818 307.584 
L 187.461818 307.525766 
L 185.838545 307.525766 
z
" clip-path="url(#p4ef945b010)" style="fill: #1f77b4; opacity: 0.6"/>
   </g>
   <g id="patch_73">
    <path d="M 187.461818 307.584 
L 189.085091 307.584 
L 189.085091 307.554883 
L 187.461818 307.554883 
z
" clip-path="url(#p4ef945b010)" style="fill: #1f77b4; opacity: 0.6"/>
   </g>
   <g id="patch_74">
    <path d="M 189.085091 307.584 
L 190.708364 307.584 
L 190.708364 307.525766 
L 189.085091 307.525766 
z
" clip-path="url(#p4ef945b010)" style="fill: #1f77b4; opacity: 0.6"/>
   </g>
   <g id="patch_75">
    <path d="M 190.708364 307.584 
L 192.331636 307.584 
L 192.331636 307.554883 
L 190.708364 307.554883 
z
" clip-path="url(#p4ef945b010)" style="fill: #1f77b4; opacity: 0.6"/>
   </g>
   <g id="patch_76">
    <path d="M 192.331636 307.584 
L 193.954909 307.584 
L 193.954909 307.576721 
L 192.331636 307.576721 
z
" clip-path="url(#p4ef945b010)" style="fill: #1f77b4; opacity: 0.6"/>
   </g>
   <g id="patch_77">
    <path d="M 193.954909 307.584 
L 195.578182 307.584 
L 195.578182 307.518487 
L 193.954909 307.518487 
z
" clip-path="url(#p4ef945b010)" style="fill: #1f77b4; opacity: 0.6"/>
   </g>
   <g id="patch_78">
    <path d="M 195.578182 307.584 
L 197.201455 307.584 
L 197.201455 307.49665 
L 195.578182 307.49665 
z
" clip-path="url(#p4ef945b010)" style="fill: #1f77b4; opacity: 0.6"/>
   </g>
   <g id="patch_79">
    <path d="M 197.201455 307.584 
L 198.824727 307.584 
L 198.824727 307.547604 
L 197.201455 307.547604 
z
" clip-path="url(#p4ef945b010)" style="fill: #1f77b4; opacity: 0.6"/>
   </g>
   <g id="patch_80">
    <path d="M 198.824727 307.584 
L 200.448 307.584 
L 200.448 307.547604 
L 198.824727 307.547604 
z
" clip-path="url(#p4ef945b010)" style="fill: #1f77b4; opacity: 0.6"/>
   </g>
   <g id="patch_81">
    <path d="M 200.448 307.584 
L 202.071273 307.584 
L 202.071273 307.482091 
L 200.448 307.482091 
z
" clip-path="url(#p4ef945b010)" style="fill: #1f77b4; opacity: 0.6"/>
   </g>
   <g id="patch_82">
    <path d="M 202.071273 307.584 
L 203.694545 307.584 
L 203.694545 307.569442 
L 202.071273 307.569442 
z
" clip-path="url(#p4ef945b010)" style="fill: #1f77b4; opacity: 0.6"/>
   </g>
   <g id="patch_83">
    <path d="M 203.694545 307.584 
L 205.317818 307.584 
L 205.317818 307.49665 
L 203.694545 307.49665 
z
" clip-path="url(#p4ef945b010)" style="fill: #1f77b4; opacity: 0.6"/>
   </g>
   <g id="patch_84">
    <path d="M 205.317818 307.584 
L 206.941091 307.584 
L 206.941091 307.554883 
L 205.317818 307.554883 
z
" clip-path="url(#p4ef945b010)" style="fill: #1f77b4; opacity: 0.6"/>
   </g>
   <g id="patch_85">
    <path d="M 206.941091 307.584 
L 208.564364 307.584 
L 208.564364 307.554883 
L 206.941091 307.554883 
z
" clip-path="url(#p4ef945b010)" style="fill: #1f77b4; opacity: 0.6"/>
   </g>
   <g id="patch_86">
    <path d="M 208.564364 307.584 
L 210.187636 307.584 
L 210.187636 307.562162 
L 208.564364 307.562162 
z
" clip-path="url(#p4ef945b010)" style="fill: #1f77b4; opacity: 0.6"/>
   </g>
   <g id="patch_87">
    <path d="M 210.187636 307.584 
L 211.810909 307.584 
L 211.810909 307.554883 
L 210.187636 307.554883 
z
" clip-path="url(#p4ef945b010)" style="fill: #1f77b4; opacity: 0.6"/>
   </g>
   <g id="patch_88">
    <path d="M 211.810909 307.584 
L 213.434182 307.584 
L 213.434182 307.547604 
L 211.810909 307.547604 
z
" clip-path="url(#p4ef945b010)" style="fill: #1f77b4; opacity: 0.6"/>
   </g>
   <g id="patch_89">
    <path d="M 213.434182 307.584 
L 215.057455 307.584 
L 215.057455 307.554883 
L 213.434182 307.554883 
z
" clip-path="url(#p4ef945b010)" style="fill: #1f77b4; opacity: 0.6"/>
   </g>
   <g id="patch_90">
    <path d="M 215.057455 307.584 
L 216.680727 307.584 
L 216.680727 307.569442 
L 215.057455 307.569442 
z
" clip-path="url(#p4ef945b010)" style="fill: #1f77b4; opacity: 0.6"/>
   </g>
   <g id="patch_91">
    <path d="M 216.680727 307.584 
L 218.304 307.584 
L 218.304 307.584 
L 216.680727 307.584 
z
" clip-path="url(#p4ef945b010)" style="fill: #1f77b4; opacity: 0.6"/>
   </g>
   <g id="patch_92">
    <path d="M 218.304 307.584 
L 219.927273 307.584 
L 219.927273 307.576721 
L 218.304 307.576721 
z
" clip-path="url(#p4ef945b010)" style="fill: #1f77b4; opacity: 0.6"/>
   </g>
   <g id="patch_93">
    <path d="M 219.927273 307.584 
L 221.550545 307.584 
L 221.550545 307.576721 
L 219.927273 307.576721 
z
" clip-path="url(#p4ef945b010)" style="fill: #1f77b4; opacity: 0.6"/>
   </g>
   <g id="patch_94">
    <path d="M 221.550545 307.584 
L 223.173818 307.584 
L 223.173818 307.576721 
L 221.550545 307.576721 
z
" clip-path="url(#p4ef945b010)" style="fill: #1f77b4; opacity: 0.6"/>
   </g>
   <g id="patch_95">
    <path d="M 223.173818 307.584 
L 224.797091 307.584 
L 224.797091 307.562162 
L 223.173818 307.562162 
z
" clip-path="url(#p4ef945b010)" style="fill: #1f77b4; opacity: 0.6"/>
   </g>
   <g id="patch_96">
    <path d="M 224.797091 307.584 
L 226.420364 307.584 
L 226.420364 307.569442 
L 224.797091 307.569442 
z
" clip-path="url(#p4ef945b010)" style="fill: #1f77b4; opacity: 0.6"/>
   </g>
   <g id="patch_97">
    <path d="M 226.420364 307.584 
L 228.043636 307.584 
L 228.043636 307.554883 
L 226.420364 307.554883 
z
" clip-path="url(#p4ef945b010)" style="fill: #1f77b4; opacity: 0.6"/>
   </g>
   <g id="patch_98">
    <path d="M 228.043636 307.584 
L 229.666909 307.584 
L 229.666909 307.576721 
L 228.043636 307.576721 
z
" clip-path="url(#p4ef945b010)" style="fill: #1f77b4; opacity: 0.6"/>
   </g>
   <g id="patch_99">
    <path d="M 229.666909 307.584 
L 231.290182 307.584 
L 231.290182 307.562162 
L 229.666909 307.562162 
z
" clip-path="url(#p4ef945b010)" style="fill: #1f77b4; opacity: 0.6"/>
   </g>
   <g id="patch_100">
    <path d="M 231.290182 307.584 
L 232.913455 307.584 
L 232.913455 307.584 
L 231.290182 307.584 
z
" clip-path="url(#p4ef945b010)" style="fill: #1f77b4; opacity: 0.6"/>
   </g>
   <g id="patch_101">
    <path d="M 232.913455 307.584 
L 234.536727 307.584 
L 234.536727 307.584 
L 232.913455 307.584 
z
" clip-path="url(#p4ef945b010)" style="fill: #1f77b4; opacity: 0.6"/>
   </g>
   <g id="patch_102">
    <path d="M 234.536727 307.584 
L 236.16 307.584 
L 236.16 307.576721 
L 234.536727 307.576721 
z
" clip-path="url(#p4ef945b010)" style="fill: #1f77b4; opacity: 0.6"/>
   </g>
   <g id="patch_103">
    <path d="M 236.16 307.584 
L 237.783273 307.584 
L 237.783273 307.584 
L 236.16 307.584 
z
" clip-path="url(#p4ef945b010)" style="fill: #1f77b4; opacity: 0.6"/>
   </g>
   <g id="patch_104">
    <path d="M 237.783273 307.584 
L 239.406545 307.584 
L 239.406545 307.576721 
L 237.783273 307.576721 
z
" clip-path="url(#p4ef945b010)" style="fill: #1f77b4; opacity: 0.6"/>
   </g>
   <g id="patch_105">
    <path d="M 239.406545 307.584 
L 241.029818 307.584 
L 241.029818 307.569442 
L 239.406545 307.569442 
z
" clip-path="url(#p4ef945b010)" style="fill: #1f77b4; opacity: 0.6"/>
   </g>
   <g id="patch_106">
    <path d="M 241.029818 307.584 
L 242.653091 307.584 
L 242.653091 307.576721 
L 241.029818 307.576721 
z
" clip-path="url(#p4ef945b010)" style="fill: #1f77b4; opacity: 0.6"/>
   </g>
   <g id="patch_107">
    <path d="M 242.653091 307.584 
L 244.276364 307.584 
L 244.276364 307.576721 
L 242.653091 307.576721 
z
" clip-path="url(#p4ef945b010)" style="fill: #1f77b4; opacity: 0.6"/>
   </g>
   <g id="patch_108">
    <path d="M 244.276364 307.584 
L 245.899636 307.584 
L 245.899636 307.576721 
L 244.276364 307.576721 
z
" clip-path="url(#p4ef945b010)" style="fill: #1f77b4; opacity: 0.6"/>
   </g>
   <g id="patch_109">
    <path d="M 245.899636 307.584 
L 247.522909 307.584 
L 247.522909 307.584 
L 245.899636 307.584 
z
" clip-path="url(#p4ef945b010)" style="fill: #1f77b4; opacity: 0.6"/>
   </g>
   <g id="patch_110">
    <path d="M 247.522909 307.584 
L 249.146182 307.584 
L 249.146182 307.584 
L 247.522909 307.584 
z
" clip-path="url(#p4ef945b010)" style="fill: #1f77b4; opacity: 0.6"/>
   </g>
   <g id="patch_111">
    <path d="M 249.146182 307.584 
L 250.769455 307.584 
L 250.769455 307.569442 
L 249.146182 307.569442 
z
" clip-path="url(#p4ef945b010)" style="fill: #1f77b4; opacity: 0.6"/>
   </g>
   <g id="patch_112">
    <path d="M 250.769455 307.584 
L 252.392727 307.584 
L 252.392727 307.576721 
L 250.769455 307.576721 
z
" clip-path="url(#p4ef945b010)" style="fill: #1f77b4; opacity: 0.6"/>
   </g>
   <g id="patch_113">
    <path d="M 252.392727 307.584 
L 254.016 307.584 
L 254.016 307.576721 
L 252.392727 307.576721 
z
" clip-path="url(#p4ef945b010)" style="fill: #1f77b4; opacity: 0.6"/>
   </g>
   <g id="patch_114">
    <path d="M 254.016 307.584 
L 255.639273 307.584 
L 255.639273 307.584 
L 254.016 307.584 
z
" clip-path="url(#p4ef945b010)" style="fill: #1f77b4; opacity: 0.6"/>
   </g>
   <g id="patch_115">
    <path d="M 255.639273 307.584 
L 257.262545 307.584 
L 257.262545 307.584 
L 255.639273 307.584 
z
" clip-path="url(#p4ef945b010)" style="fill: #1f77b4; opacity: 0.6"/>
   </g>
   <g id="patch_116">
    <path d="M 257.262545 307.584 
L 258.885818 307.584 
L 258.885818 307.584 
L 257.262545 307.584 
z
" clip-path="url(#p4ef945b010)" style="fill: #1f77b4; opacity: 0.6"/>
   </g>
   <g id="patch_117">
    <path d="M 258.885818 307.584 
L 260.509091 307.584 
L 260.509091 307.584 
L 258.885818 307.584 
z
" clip-path="url(#p4ef945b010)" style="fill: #1f77b4; opacity: 0.6"/>
   </g>
   <g id="patch_118">
    <path d="M 260.509091 307.584 
L 262.132364 307.584 
L 262.132364 307.569442 
L 260.509091 307.569442 
z
" clip-path="url(#p4ef945b010)" style="fill: #1f77b4; opacity: 0.6"/>
   </g>
   <g id="patch_119">
    <path d="M 262.132364 307.584 
L 263.755636 307.584 
L 263.755636 307.584 
L 262.132364 307.584 
z
" clip-path="url(#p4ef945b010)" style="fill: #1f77b4; opacity: 0.6"/>
   </g>
   <g id="patch_120">
    <path d="M 263.755636 307.584 
L 265.378909 307.584 
L 265.378909 307.584 
L 263.755636 307.584 
z
" clip-path="url(#p4ef945b010)" style="fill: #1f77b4; opacity: 0.6"/>
   </g>
   <g id="patch_121">
    <path d="M 265.378909 307.584 
L 267.002182 307.584 
L 267.002182 307.569442 
L 265.378909 307.569442 
z
" clip-path="url(#p4ef945b010)" style="fill: #1f77b4; opacity: 0.6"/>
   </g>
   <g id="patch_122">
    <path d="M 267.002182 307.584 
L 268.625455 307.584 
L 268.625455 307.584 
L 267.002182 307.584 
z
" clip-path="url(#p4ef945b010)" style="fill: #1f77b4; opacity: 0.6"/>
   </g>
   <g id="patch_123">
    <path d="M 268.625455 307.584 
L 270.248727 307.584 
L 270.248727 307.584 
L 268.625455 307.584 
z
" clip-path="url(#p4ef945b010)" style="fill: #1f77b4; opacity: 0.6"/>
   </g>
   <g id="patch_124">
    <path d="M 270.248727 307.584 
L 271.872 307.584 
L 271.872 307.584 
L 270.248727 307.584 
z
" clip-path="url(#p4ef945b010)" style="fill: #1f77b4; opacity: 0.6"/>
   </g>
   <g id="patch_125">
    <path d="M 271.872 307.584 
L 273.495273 307.584 
L 273.495273 307.576721 
L 271.872 307.576721 
z
" clip-path="url(#p4ef945b010)" style="fill: #1f77b4; opacity: 0.6"/>
   </g>
   <g id="patch_126">
    <path d="M 273.495273 307.584 
L 275.118545 307.584 
L 275.118545 307.576721 
L 273.495273 307.576721 
z
" clip-path="url(#p4ef945b010)" style="fill: #1f77b4; opacity: 0.6"/>
   </g>
   <g id="patch_127">
    <path d="M 275.118545 307.584 
L 276.741818 307.584 
L 276.741818 307.584 
L 275.118545 307.584 
z
" clip-path="url(#p4ef945b010)" style="fill: #1f77b4; opacity: 0.6"/>
   </g>
   <g id="patch_128">
    <path d="M 276.741818 307.584 
L 278.365091 307.584 
L 278.365091 307.584 
L 276.741818 307.584 
z
" clip-path="url(#p4ef945b010)" style="fill: #1f77b4; opacity: 0.6"/>
   </g>
   <g id="patch_129">
    <path d="M 278.365091 307.584 
L 279.988364 307.584 
L 279.988364 307.576721 
L 278.365091 307.576721 
z
" clip-path="url(#p4ef945b010)" style="fill: #1f77b4; opacity: 0.6"/>
   </g>
   <g id="patch_130">
    <path d="M 279.988364 307.584 
L 281.611636 307.584 
L 281.611636 307.584 
L 279.988364 307.584 
z
" clip-path="url(#p4ef945b010)" style="fill: #1f77b4; opacity: 0.6"/>
   </g>
   <g id="patch_131">
    <path d="M 281.611636 307.584 
L 283.234909 307.584 
L 283.234909 307.584 
L 281.611636 307.584 
z
" clip-path="url(#p4ef945b010)" style="fill: #1f77b4; opacity: 0.6"/>
   </g>
   <g id="patch_132">
    <path d="M 283.234909 307.584 
L 284.858182 307.584 
L 284.858182 307.584 
L 283.234909 307.584 
z
" clip-path="url(#p4ef945b010)" style="fill: #1f77b4; opacity: 0.6"/>
   </g>
   <g id="patch_133">
    <path d="M 284.858182 307.584 
L 286.481455 307.584 
L 286.481455 307.584 
L 284.858182 307.584 
z
" clip-path="url(#p4ef945b010)" style="fill: #1f77b4; opacity: 0.6"/>
   </g>
   <g id="patch_134">
    <path d="M 286.481455 307.584 
L 288.104727 307.584 
L 288.104727 307.584 
L 286.481455 307.584 
z
" clip-path="url(#p4ef945b010)" style="fill: #1f77b4; opacity: 0.6"/>
   </g>
   <g id="patch_135">
    <path d="M 288.104727 307.584 
L 289.728 307.584 
L 289.728 307.584 
L 288.104727 307.584 
z
" clip-path="url(#p4ef945b010)" style="fill: #1f77b4; opacity: 0.6"/>
   </g>
   <g id="patch_136">
    <path d="M 289.728 307.584 
L 291.351273 307.584 
L 291.351273 307.584 
L 289.728 307.584 
z
" clip-path="url(#p4ef945b010)" style="fill: #1f77b4; opacity: 0.6"/>
   </g>
   <g id="patch_137">
    <path d="M 291.351273 307.584 
L 292.974545 307.584 
L 292.974545 307.584 
L 291.351273 307.584 
z
" clip-path="url(#p4ef945b010)" style="fill: #1f77b4; opacity: 0.6"/>
   </g>
   <g id="patch_138">
    <path d="M 292.974545 307.584 
L 294.597818 307.584 
L 294.597818 307.584 
L 292.974545 307.584 
z
" clip-path="url(#p4ef945b010)" style="fill: #1f77b4; opacity: 0.6"/>
   </g>
   <g id="patch_139">
    <path d="M 294.597818 307.584 
L 296.221091 307.584 
L 296.221091 307.584 
L 294.597818 307.584 
z
" clip-path="url(#p4ef945b010)" style="fill: #1f77b4; opacity: 0.6"/>
   </g>
   <g id="patch_140">
    <path d="M 296.221091 307.584 
L 297.844364 307.584 
L 297.844364 307.584 
L 296.221091 307.584 
z
" clip-path="url(#p4ef945b010)" style="fill: #1f77b4; opacity: 0.6"/>
   </g>
   <g id="patch_141">
    <path d="M 297.844364 307.584 
L 299.467636 307.584 
L 299.467636 307.584 
L 297.844364 307.584 
z
" clip-path="url(#p4ef945b010)" style="fill: #1f77b4; opacity: 0.6"/>
   </g>
   <g id="patch_142">
    <path d="M 299.467636 307.584 
L 301.090909 307.584 
L 301.090909 307.584 
L 299.467636 307.584 
z
" clip-path="url(#p4ef945b010)" style="fill: #1f77b4; opacity: 0.6"/>
   </g>
   <g id="patch_143">
    <path d="M 301.090909 307.584 
L 302.714182 307.584 
L 302.714182 307.584 
L 301.090909 307.584 
z
" clip-path="url(#p4ef945b010)" style="fill: #1f77b4; opacity: 0.6"/>
   </g>
   <g id="patch_144">
    <path d="M 302.714182 307.584 
L 304.337455 307.584 
L 304.337455 307.584 
L 302.714182 307.584 
z
" clip-path="url(#p4ef945b010)" style="fill: #1f77b4; opacity: 0.6"/>
   </g>
   <g id="patch_145">
    <path d="M 304.337455 307.584 
L 305.960727 307.584 
L 305.960727 307.584 
L 304.337455 307.584 
z
" clip-path="url(#p4ef945b010)" style="fill: #1f77b4; opacity: 0.6"/>
   </g>
   <g id="patch_146">
    <path d="M 305.960727 307.584 
L 307.584 307.584 
L 307.584 307.584 
L 305.960727 307.584 
z
" clip-path="url(#p4ef945b010)" style="fill: #1f77b4; opacity: 0.6"/>
   </g>
   <g id="patch_147">
    <path d="M 307.584 307.584 
L 309.207273 307.584 
L 309.207273 307.576721 
L 307.584 307.576721 
z
" clip-path="url(#p4ef945b010)" style="fill: #1f77b4; opacity: 0.6"/>
   </g>
   <g id="patch_148">
    <path d="M 309.207273 307.584 
L 310.830545 307.584 
L 310.830545 307.584 
L 309.207273 307.584 
z
" clip-path="url(#p4ef945b010)" style="fill: #1f77b4; opacity: 0.6"/>
   </g>
   <g id="patch_149">
    <path d="M 310.830545 307.584 
L 312.453818 307.584 
L 312.453818 307.584 
L 310.830545 307.584 
z
" clip-path="url(#p4ef945b010)" style="fill: #1f77b4; opacity: 0.6"/>
   </g>
   <g id="patch_150">
    <path d="M 312.453818 307.584 
L 314.077091 307.584 
L 314.077091 307.584 
L 312.453818 307.584 
z
" clip-path="url(#p4ef945b010)" style="fill: #1f77b4; opacity: 0.6"/>
   </g>
   <g id="patch_151">
    <path d="M 314.077091 307.584 
L 315.700364 307.584 
L 315.700364 307.584 
L 314.077091 307.584 
z
" clip-path="url(#p4ef945b010)" style="fill: #1f77b4; opacity: 0.6"/>
   </g>
   <g id="patch_152">
    <path d="M 315.700364 307.584 
L 317.323636 307.584 
L 317.323636 307.584 
L 315.700364 307.584 
z
" clip-path="url(#p4ef945b010)" style="fill: #1f77b4; opacity: 0.6"/>
   </g>
   <g id="patch_153">
    <path d="M 317.323636 307.584 
L 318.946909 307.584 
L 318.946909 307.584 
L 317.323636 307.584 
z
" clip-path="url(#p4ef945b010)" style="fill: #1f77b4; opacity: 0.6"/>
   </g>
   <g id="patch_154">
    <path d="M 318.946909 307.584 
L 320.570182 307.584 
L 320.570182 307.584 
L 318.946909 307.584 
z
" clip-path="url(#p4ef945b010)" style="fill: #1f77b4; opacity: 0.6"/>
   </g>
   <g id="patch_155">
    <path d="M 320.570182 307.584 
L 322.193455 307.584 
L 322.193455 307.584 
L 320.570182 307.584 
z
" clip-path="url(#p4ef945b010)" style="fill: #1f77b4; opacity: 0.6"/>
   </g>
   <g id="patch_156">
    <path d="M 322.193455 307.584 
L 323.816727 307.584 
L 323.816727 307.576721 
L 322.193455 307.576721 
z
" clip-path="url(#p4ef945b010)" style="fill: #1f77b4; opacity: 0.6"/>
   </g>
   <g id="patch_157">
    <path d="M 323.816727 307.584 
L 325.44 307.584 
L 325.44 307.584 
L 323.816727 307.584 
z
" clip-path="url(#p4ef945b010)" style="fill: #1f77b4; opacity: 0.6"/>
   </g>
   <g id="patch_158">
    <path d="M 325.44 307.584 
L 327.063273 307.584 
L 327.063273 307.584 
L 325.44 307.584 
z
" clip-path="url(#p4ef945b010)" style="fill: #1f77b4; opacity: 0.6"/>
   </g>
   <g id="patch_159">
    <path d="M 327.063273 307.584 
L 328.686545 307.584 
L 328.686545 307.584 
L 327.063273 307.584 
z
" clip-path="url(#p4ef945b010)" style="fill: #1f77b4; opacity: 0.6"/>
   </g>
   <g id="patch_160">
    <path d="M 328.686545 307.584 
L 330.309818 307.584 
L 330.309818 307.584 
L 328.686545 307.584 
z
" clip-path="url(#p4ef945b010)" style="fill: #1f77b4; opacity: 0.6"/>
   </g>
   <g id="patch_161">
    <path d="M 330.309818 307.584 
L 331.933091 307.584 
L 331.933091 307.584 
L 330.309818 307.584 
z
" clip-path="url(#p4ef945b010)" style="fill: #1f77b4; opacity: 0.6"/>
   </g>
   <g id="patch_162">
    <path d="M 331.933091 307.584 
L 333.556364 307.584 
L 333.556364 307.584 
L 331.933091 307.584 
z
" clip-path="url(#p4ef945b010)" style="fill: #1f77b4; opacity: 0.6"/>
   </g>
   <g id="patch_163">
    <path d="M 333.556364 307.584 
L 335.179636 307.584 
L 335.179636 307.584 
L 333.556364 307.584 
z
" clip-path="url(#p4ef945b010)" style="fill: #1f77b4; opacity: 0.6"/>
   </g>
   <g id="patch_164">
    <path d="M 335.179636 307.584 
L 336.802909 307.584 
L 336.802909 307.584 
L 335.179636 307.584 
z
" clip-path="url(#p4ef945b010)" style="fill: #1f77b4; opacity: 0.6"/>
   </g>
   <g id="patch_165">
    <path d="M 336.802909 307.584 
L 338.426182 307.584 
L 338.426182 307.584 
L 336.802909 307.584 
z
" clip-path="url(#p4ef945b010)" style="fill: #1f77b4; opacity: 0.6"/>
   </g>
   <g id="patch_166">
    <path d="M 338.426182 307.584 
L 340.049455 307.584 
L 340.049455 307.584 
L 338.426182 307.584 
z
" clip-path="url(#p4ef945b010)" style="fill: #1f77b4; opacity: 0.6"/>
   </g>
   <g id="patch_167">
    <path d="M 340.049455 307.584 
L 341.672727 307.584 
L 341.672727 307.584 
L 340.049455 307.584 
z
" clip-path="url(#p4ef945b010)" style="fill: #1f77b4; opacity: 0.6"/>
   </g>
   <g id="patch_168">
    <path d="M 341.672727 307.584 
L 343.296 307.584 
L 343.296 307.584 
L 341.672727 307.584 
z
" clip-path="url(#p4ef945b010)" style="fill: #1f77b4; opacity: 0.6"/>
   </g>
   <g id="patch_169">
    <path d="M 343.296 307.584 
L 344.919273 307.584 
L 344.919273 307.584 
L 343.296 307.584 
z
" clip-path="url(#p4ef945b010)" style="fill: #1f77b4; opacity: 0.6"/>
   </g>
   <g id="patch_170">
    <path d="M 344.919273 307.584 
L 346.542545 307.584 
L 346.542545 307.584 
L 344.919273 307.584 
z
" clip-path="url(#p4ef945b010)" style="fill: #1f77b4; opacity: 0.6"/>
   </g>
   <g id="patch_171">
    <path d="M 346.542545 307.584 
L 348.165818 307.584 
L 348.165818 307.584 
L 346.542545 307.584 
z
" clip-path="url(#p4ef945b010)" style="fill: #1f77b4; opacity: 0.6"/>
   </g>
   <g id="patch_172">
    <path d="M 348.165818 307.584 
L 349.789091 307.584 
L 349.789091 307.584 
L 348.165818 307.584 
z
" clip-path="url(#p4ef945b010)" style="fill: #1f77b4; opacity: 0.6"/>
   </g>
   <g id="patch_173">
    <path d="M 349.789091 307.584 
L 351.412364 307.584 
L 351.412364 307.584 
L 349.789091 307.584 
z
" clip-path="url(#p4ef945b010)" style="fill: #1f77b4; opacity: 0.6"/>
   </g>
   <g id="patch_174">
    <path d="M 351.412364 307.584 
L 353.035636 307.584 
L 353.035636 307.584 
L 351.412364 307.584 
z
" clip-path="url(#p4ef945b010)" style="fill: #1f77b4; opacity: 0.6"/>
   </g>
   <g id="patch_175">
    <path d="M 353.035636 307.584 
L 354.658909 307.584 
L 354.658909 307.584 
L 353.035636 307.584 
z
" clip-path="url(#p4ef945b010)" style="fill: #1f77b4; opacity: 0.6"/>
   </g>
   <g id="patch_176">
    <path d="M 354.658909 307.584 
L 356.282182 307.584 
L 356.282182 307.584 
L 354.658909 307.584 
z
" clip-path="url(#p4ef945b010)" style="fill: #1f77b4; opacity: 0.6"/>
   </g>
   <g id="patch_177">
    <path d="M 356.282182 307.584 
L 357.905455 307.584 
L 357.905455 307.584 
L 356.282182 307.584 
z
" clip-path="url(#p4ef945b010)" style="fill: #1f77b4; opacity: 0.6"/>
   </g>
   <g id="patch_178">
    <path d="M 357.905455 307.584 
L 359.528727 307.584 
L 359.528727 307.584 
L 357.905455 307.584 
z
" clip-path="url(#p4ef945b010)" style="fill: #1f77b4; opacity: 0.6"/>
   </g>
   <g id="patch_179">
    <path d="M 359.528727 307.584 
L 361.152 307.584 
L 361.152 307.584 
L 359.528727 307.584 
z
" clip-path="url(#p4ef945b010)" style="fill: #1f77b4; opacity: 0.6"/>
   </g>
   <g id="patch_180">
    <path d="M 361.152 307.584 
L 362.775273 307.584 
L 362.775273 307.584 
L 361.152 307.584 
z
" clip-path="url(#p4ef945b010)" style="fill: #1f77b4; opacity: 0.6"/>
   </g>
   <g id="patch_181">
    <path d="M 362.775273 307.584 
L 364.398545 307.584 
L 364.398545 307.576721 
L 362.775273 307.576721 
z
" clip-path="url(#p4ef945b010)" style="fill: #1f77b4; opacity: 0.6"/>
   </g>
   <g id="patch_182">
    <path d="M 364.398545 307.584 
L 366.021818 307.584 
L 366.021818 307.584 
L 364.398545 307.584 
z
" clip-path="url(#p4ef945b010)" style="fill: #1f77b4; opacity: 0.6"/>
   </g>
   <g id="patch_183">
    <path d="M 366.021818 307.584 
L 367.645091 307.584 
L 367.645091 307.584 
L 366.021818 307.584 
z
" clip-path="url(#p4ef945b010)" style="fill: #1f77b4; opacity: 0.6"/>
   </g>
   <g id="patch_184">
    <path d="M 367.645091 307.584 
L 369.268364 307.584 
L 369.268364 307.584 
L 367.645091 307.584 
z
" clip-path="url(#p4ef945b010)" style="fill: #1f77b4; opacity: 0.6"/>
   </g>
   <g id="patch_185">
    <path d="M 369.268364 307.584 
L 370.891636 307.584 
L 370.891636 307.584 
L 369.268364 307.584 
z
" clip-path="url(#p4ef945b010)" style="fill: #1f77b4; opacity: 0.6"/>
   </g>
   <g id="patch_186">
    <path d="M 370.891636 307.584 
L 372.514909 307.584 
L 372.514909 307.584 
L 370.891636 307.584 
z
" clip-path="url(#p4ef945b010)" style="fill: #1f77b4; opacity: 0.6"/>
   </g>
   <g id="patch_187">
    <path d="M 372.514909 307.584 
L 374.138182 307.584 
L 374.138182 307.576721 
L 372.514909 307.576721 
z
" clip-path="url(#p4ef945b010)" style="fill: #1f77b4; opacity: 0.6"/>
   </g>
   <g id="patch_188">
    <path d="M 374.138182 307.584 
L 375.761455 307.584 
L 375.761455 307.584 
L 374.138182 307.584 
z
" clip-path="url(#p4ef945b010)" style="fill: #1f77b4; opacity: 0.6"/>
   </g>
   <g id="patch_189">
    <path d="M 375.761455 307.584 
L 377.384727 307.584 
L 377.384727 307.584 
L 375.761455 307.584 
z
" clip-path="url(#p4ef945b010)" style="fill: #1f77b4; opacity: 0.6"/>
   </g>
   <g id="patch_190">
    <path d="M 377.384727 307.584 
L 379.008 307.584 
L 379.008 307.576721 
L 377.384727 307.576721 
z
" clip-path="url(#p4ef945b010)" style="fill: #1f77b4; opacity: 0.6"/>
   </g>
   <g id="patch_191">
    <path d="M 379.008 307.584 
L 380.631273 307.584 
L 380.631273 307.584 
L 379.008 307.584 
z
" clip-path="url(#p4ef945b010)" style="fill: #1f77b4; opacity: 0.6"/>
   </g>
   <g id="patch_192">
    <path d="M 380.631273 307.584 
L 382.254545 307.584 
L 382.254545 307.584 
L 380.631273 307.584 
z
" clip-path="url(#p4ef945b010)" style="fill: #1f77b4; opacity: 0.6"/>
   </g>
   <g id="patch_193">
    <path d="M 382.254545 307.584 
L 383.877818 307.584 
L 383.877818 307.584 
L 382.254545 307.584 
z
" clip-path="url(#p4ef945b010)" style="fill: #1f77b4; opacity: 0.6"/>
   </g>
   <g id="patch_194">
    <path d="M 383.877818 307.584 
L 385.501091 307.584 
L 385.501091 307.584 
L 383.877818 307.584 
z
" clip-path="url(#p4ef945b010)" style="fill: #1f77b4; opacity: 0.6"/>
   </g>
   <g id="patch_195">
    <path d="M 385.501091 307.584 
L 387.124364 307.584 
L 387.124364 307.584 
L 385.501091 307.584 
z
" clip-path="url(#p4ef945b010)" style="fill: #1f77b4; opacity: 0.6"/>
   </g>
   <g id="patch_196">
    <path d="M 387.124364 307.584 
L 388.747636 307.584 
L 388.747636 307.584 
L 387.124364 307.584 
z
" clip-path="url(#p4ef945b010)" style="fill: #1f77b4; opacity: 0.6"/>
   </g>
   <g id="patch_197">
    <path d="M 388.747636 307.584 
L 390.370909 307.584 
L 390.370909 307.584 
L 388.747636 307.584 
z
" clip-path="url(#p4ef945b010)" style="fill: #1f77b4; opacity: 0.6"/>
   </g>
   <g id="patch_198">
    <path d="M 390.370909 307.584 
L 391.994182 307.584 
L 391.994182 307.584 
L 390.370909 307.584 
z
" clip-path="url(#p4ef945b010)" style="fill: #1f77b4; opacity: 0.6"/>
   </g>
   <g id="patch_199">
    <path d="M 391.994182 307.584 
L 393.617455 307.584 
L 393.617455 307.584 
L 391.994182 307.584 
z
" clip-path="url(#p4ef945b010)" style="fill: #1f77b4; opacity: 0.6"/>
   </g>
   <g id="patch_200">
    <path d="M 393.617455 307.584 
L 395.240727 307.584 
L 395.240727 307.584 
L 393.617455 307.584 
z
" clip-path="url(#p4ef945b010)" style="fill: #1f77b4; opacity: 0.6"/>
   </g>
   <g id="patch_201">
    <path d="M 395.240727 307.584 
L 396.864 307.584 
L 396.864 307.584 
L 395.240727 307.584 
z
" clip-path="url(#p4ef945b010)" style="fill: #1f77b4; opacity: 0.6"/>
   </g>
   <g id="patch_202">
    <path d="M 396.864 307.584 
L 398.487273 307.584 
L 398.487273 307.576721 
L 396.864 307.576721 
z
" clip-path="url(#p4ef945b010)" style="fill: #1f77b4; opacity: 0.6"/>
   </g>
   <g id="matplotlib.axis_1">
    <g id="xtick_1">
     <g id="line2d_1">
      <path d="M 73.668251 307.584 
L 73.668251 41.472 
" clip-path="url(#p4ef945b010)" style="fill: none; stroke: #b0b0b0; stroke-width: 0.8; stroke-linecap: square"/>
     </g>
     <g id="line2d_2">
      <defs>
       <path id="maa81e395c6" d="M 0 0 
L 0 3.5 
" style="stroke: #000000; stroke-width: 0.8"/>
      </defs>
      <g>
       <use xlink:href="#maa81e395c6" x="73.668251" y="307.584" style="stroke: #000000; stroke-width: 0.8"/>
      </g>
     </g>
     <g id="text_1">
      <!-- 0 -->
      <g transform="translate(70.487001 322.182437) scale(0.1 -0.1)">
       <defs>
        <path id="DejaVuSans-30" d="M 2034 4250 
Q 1547 4250 1301 3770 
Q 1056 3291 1056 2328 
Q 1056 1369 1301 889 
Q 1547 409 2034 409 
Q 2525 409 2770 889 
Q 3016 1369 3016 2328 
Q 3016 3291 2770 3770 
Q 2525 4250 2034 4250 
z
M 2034 4750 
Q 2819 4750 3233 4129 
Q 3647 3509 3647 2328 
Q 3647 1150 3233 529 
Q 2819 -91 2034 -91 
Q 1250 -91 836 529 
Q 422 1150 422 2328 
Q 422 3509 836 4129 
Q 1250 4750 2034 4750 
z
" transform="scale(0.015625)"/>
       </defs>
       <use xlink:href="#DejaVuSans-30"/>
      </g>
     </g>
    </g>
    <g id="xtick_2">
     <g id="line2d_3">
      <path d="M 138.725794 307.584 
L 138.725794 41.472 
" clip-path="url(#p4ef945b010)" style="fill: none; stroke: #b0b0b0; stroke-width: 0.8; stroke-linecap: square"/>
     </g>
     <g id="line2d_4">
      <g>
       <use xlink:href="#maa81e395c6" x="138.725794" y="307.584" style="stroke: #000000; stroke-width: 0.8"/>
      </g>
     </g>
     <g id="text_2">
      <!-- 20 -->
      <g transform="translate(132.363294 322.182437) scale(0.1 -0.1)">
       <defs>
        <path id="DejaVuSans-32" d="M 1228 531 
L 3431 531 
L 3431 0 
L 469 0 
L 469 531 
Q 828 903 1448 1529 
Q 2069 2156 2228 2338 
Q 2531 2678 2651 2914 
Q 2772 3150 2772 3378 
Q 2772 3750 2511 3984 
Q 2250 4219 1831 4219 
Q 1534 4219 1204 4116 
Q 875 4013 500 3803 
L 500 4441 
Q 881 4594 1212 4672 
Q 1544 4750 1819 4750 
Q 2544 4750 2975 4387 
Q 3406 4025 3406 3419 
Q 3406 3131 3298 2873 
Q 3191 2616 2906 2266 
Q 2828 2175 2409 1742 
Q 1991 1309 1228 531 
z
" transform="scale(0.015625)"/>
       </defs>
       <use xlink:href="#DejaVuSans-32"/>
       <use xlink:href="#DejaVuSans-30" x="63.623047"/>
      </g>
     </g>
    </g>
    <g id="xtick_3">
     <g id="line2d_5">
      <path d="M 203.783337 307.584 
L 203.783337 41.472 
" clip-path="url(#p4ef945b010)" style="fill: none; stroke: #b0b0b0; stroke-width: 0.8; stroke-linecap: square"/>
     </g>
     <g id="line2d_6">
      <g>
       <use xlink:href="#maa81e395c6" x="203.783337" y="307.584" style="stroke: #000000; stroke-width: 0.8"/>
      </g>
     </g>
     <g id="text_3">
      <!-- 40 -->
      <g transform="translate(197.420837 322.182437) scale(0.1 -0.1)">
       <defs>
        <path id="DejaVuSans-34" d="M 2419 4116 
L 825 1625 
L 2419 1625 
L 2419 4116 
z
M 2253 4666 
L 3047 4666 
L 3047 1625 
L 3713 1625 
L 3713 1100 
L 3047 1100 
L 3047 0 
L 2419 0 
L 2419 1100 
L 313 1100 
L 313 1709 
L 2253 4666 
z
" transform="scale(0.015625)"/>
       </defs>
       <use xlink:href="#DejaVuSans-34"/>
       <use xlink:href="#DejaVuSans-30" x="63.623047"/>
      </g>
     </g>
    </g>
    <g id="xtick_4">
     <g id="line2d_7">
      <path d="M 268.84088 307.584 
L 268.84088 41.472 
" clip-path="url(#p4ef945b010)" style="fill: none; stroke: #b0b0b0; stroke-width: 0.8; stroke-linecap: square"/>
     </g>
     <g id="line2d_8">
      <g>
       <use xlink:href="#maa81e395c6" x="268.84088" y="307.584" style="stroke: #000000; stroke-width: 0.8"/>
      </g>
     </g>
     <g id="text_4">
      <!-- 60 -->
      <g transform="translate(262.47838 322.182437) scale(0.1 -0.1)">
       <defs>
        <path id="DejaVuSans-36" d="M 2113 2584 
Q 1688 2584 1439 2293 
Q 1191 2003 1191 1497 
Q 1191 994 1439 701 
Q 1688 409 2113 409 
Q 2538 409 2786 701 
Q 3034 994 3034 1497 
Q 3034 2003 2786 2293 
Q 2538 2584 2113 2584 
z
M 3366 4563 
L 3366 3988 
Q 3128 4100 2886 4159 
Q 2644 4219 2406 4219 
Q 1781 4219 1451 3797 
Q 1122 3375 1075 2522 
Q 1259 2794 1537 2939 
Q 1816 3084 2150 3084 
Q 2853 3084 3261 2657 
Q 3669 2231 3669 1497 
Q 3669 778 3244 343 
Q 2819 -91 2113 -91 
Q 1303 -91 875 529 
Q 447 1150 447 2328 
Q 447 3434 972 4092 
Q 1497 4750 2381 4750 
Q 2619 4750 2861 4703 
Q 3103 4656 3366 4563 
z
" transform="scale(0.015625)"/>
       </defs>
       <use xlink:href="#DejaVuSans-36"/>
       <use xlink:href="#DejaVuSans-30" x="63.623047"/>
      </g>
     </g>
    </g>
    <g id="xtick_5">
     <g id="line2d_9">
      <path d="M 333.898423 307.584 
L 333.898423 41.472 
" clip-path="url(#p4ef945b010)" style="fill: none; stroke: #b0b0b0; stroke-width: 0.8; stroke-linecap: square"/>
     </g>
     <g id="line2d_10">
      <g>
       <use xlink:href="#maa81e395c6" x="333.898423" y="307.584" style="stroke: #000000; stroke-width: 0.8"/>
      </g>
     </g>
     <g id="text_5">
      <!-- 80 -->
      <g transform="translate(327.535923 322.182437) scale(0.1 -0.1)">
       <defs>
        <path id="DejaVuSans-38" d="M 2034 2216 
Q 1584 2216 1326 1975 
Q 1069 1734 1069 1313 
Q 1069 891 1326 650 
Q 1584 409 2034 409 
Q 2484 409 2743 651 
Q 3003 894 3003 1313 
Q 3003 1734 2745 1975 
Q 2488 2216 2034 2216 
z
M 1403 2484 
Q 997 2584 770 2862 
Q 544 3141 544 3541 
Q 544 4100 942 4425 
Q 1341 4750 2034 4750 
Q 2731 4750 3128 4425 
Q 3525 4100 3525 3541 
Q 3525 3141 3298 2862 
Q 3072 2584 2669 2484 
Q 3125 2378 3379 2068 
Q 3634 1759 3634 1313 
Q 3634 634 3220 271 
Q 2806 -91 2034 -91 
Q 1263 -91 848 271 
Q 434 634 434 1313 
Q 434 1759 690 2068 
Q 947 2378 1403 2484 
z
M 1172 3481 
Q 1172 3119 1398 2916 
Q 1625 2713 2034 2713 
Q 2441 2713 2670 2916 
Q 2900 3119 2900 3481 
Q 2900 3844 2670 4047 
Q 2441 4250 2034 4250 
Q 1625 4250 1398 4047 
Q 1172 3844 1172 3481 
z
" transform="scale(0.015625)"/>
       </defs>
       <use xlink:href="#DejaVuSans-38"/>
       <use xlink:href="#DejaVuSans-30" x="63.623047"/>
      </g>
     </g>
    </g>
    <g id="xtick_6">
     <g id="line2d_11">
      <path d="M 398.955966 307.584 
L 398.955966 41.472 
" clip-path="url(#p4ef945b010)" style="fill: none; stroke: #b0b0b0; stroke-width: 0.8; stroke-linecap: square"/>
     </g>
     <g id="line2d_12">
      <g>
       <use xlink:href="#maa81e395c6" x="398.955966" y="307.584" style="stroke: #000000; stroke-width: 0.8"/>
      </g>
     </g>
     <g id="text_6">
      <!-- 100 -->
      <g transform="translate(389.412216 322.182437) scale(0.1 -0.1)">
       <defs>
        <path id="DejaVuSans-31" d="M 794 531 
L 1825 531 
L 1825 4091 
L 703 3866 
L 703 4441 
L 1819 4666 
L 2450 4666 
L 2450 531 
L 3481 531 
L 3481 0 
L 794 0 
L 794 531 
z
" transform="scale(0.015625)"/>
       </defs>
       <use xlink:href="#DejaVuSans-31"/>
       <use xlink:href="#DejaVuSans-30" x="63.623047"/>
       <use xlink:href="#DejaVuSans-30" x="127.246094"/>
      </g>
     </g>
    </g>
    <g id="text_7">
     <!-- Value -->
     <g transform="translate(222.42875 335.860562) scale(0.1 -0.1)">
      <defs>
       <path id="DejaVuSans-56" d="M 1831 0 
L 50 4666 
L 709 4666 
L 2188 738 
L 3669 4666 
L 4325 4666 
L 2547 0 
L 1831 0 
z
" transform="scale(0.015625)"/>
       <path id="DejaVuSans-61" d="M 2194 1759 
Q 1497 1759 1228 1600 
Q 959 1441 959 1056 
Q 959 750 1161 570 
Q 1363 391 1709 391 
Q 2188 391 2477 730 
Q 2766 1069 2766 1631 
L 2766 1759 
L 2194 1759 
z
M 3341 1997 
L 3341 0 
L 2766 0 
L 2766 531 
Q 2569 213 2275 61 
Q 1981 -91 1556 -91 
Q 1019 -91 701 211 
Q 384 513 384 1019 
Q 384 1609 779 1909 
Q 1175 2209 1959 2209 
L 2766 2209 
L 2766 2266 
Q 2766 2663 2505 2880 
Q 2244 3097 1772 3097 
Q 1472 3097 1187 3025 
Q 903 2953 641 2809 
L 641 3341 
Q 956 3463 1253 3523 
Q 1550 3584 1831 3584 
Q 2591 3584 2966 3190 
Q 3341 2797 3341 1997 
z
" transform="scale(0.015625)"/>
       <path id="DejaVuSans-6c" d="M 603 4863 
L 1178 4863 
L 1178 0 
L 603 0 
L 603 4863 
z
" transform="scale(0.015625)"/>
       <path id="DejaVuSans-75" d="M 544 1381 
L 544 3500 
L 1119 3500 
L 1119 1403 
Q 1119 906 1312 657 
Q 1506 409 1894 409 
Q 2359 409 2629 706 
Q 2900 1003 2900 1516 
L 2900 3500 
L 3475 3500 
L 3475 0 
L 2900 0 
L 2900 538 
Q 2691 219 2414 64 
Q 2138 -91 1772 -91 
Q 1169 -91 856 284 
Q 544 659 544 1381 
z
M 1991 3584 
L 1991 3584 
z
" transform="scale(0.015625)"/>
       <path id="DejaVuSans-65" d="M 3597 1894 
L 3597 1613 
L 953 1613 
Q 991 1019 1311 708 
Q 1631 397 2203 397 
Q 2534 397 2845 478 
Q 3156 559 3463 722 
L 3463 178 
Q 3153 47 2828 -22 
Q 2503 -91 2169 -91 
Q 1331 -91 842 396 
Q 353 884 353 1716 
Q 353 2575 817 3079 
Q 1281 3584 2069 3584 
Q 2775 3584 3186 3129 
Q 3597 2675 3597 1894 
z
M 3022 2063 
Q 3016 2534 2758 2815 
Q 2500 3097 2075 3097 
Q 1594 3097 1305 2825 
Q 1016 2553 972 2059 
L 3022 2063 
z
" transform="scale(0.015625)"/>
      </defs>
      <use xlink:href="#DejaVuSans-56"/>
      <use xlink:href="#DejaVuSans-61" x="60.658203"/>
      <use xlink:href="#DejaVuSans-6c" x="121.9375"/>
      <use xlink:href="#DejaVuSans-75" x="149.720703"/>
      <use xlink:href="#DejaVuSans-65" x="213.099609"/>
     </g>
    </g>
   </g>
   <g id="matplotlib.axis_2">
    <g id="ytick_1">
     <g id="line2d_13">
      <path d="M 57.6 307.584 
L 414.72 307.584 
" clip-path="url(#p4ef945b010)" style="fill: none; stroke: #b0b0b0; stroke-width: 0.8; stroke-linecap: square"/>
     </g>
     <g id="line2d_14">
      <defs>
       <path id="mf24f369f69" d="M 0 0 
L -3.5 0 
" style="stroke: #000000; stroke-width: 0.8"/>
      </defs>
      <g>
       <use xlink:href="#mf24f369f69" x="57.6" y="307.584" style="stroke: #000000; stroke-width: 0.8"/>
      </g>
     </g>
     <g id="text_8">
      <!-- 0.00 -->
      <g transform="translate(28.334375 311.383219) scale(0.1 -0.1)">
       <defs>
        <path id="DejaVuSans-2e" d="M 684 794 
L 1344 794 
L 1344 0 
L 684 0 
L 684 794 
z
" transform="scale(0.015625)"/>
       </defs>
       <use xlink:href="#DejaVuSans-30"/>
       <use xlink:href="#DejaVuSans-2e" x="63.623047"/>
       <use xlink:href="#DejaVuSans-30" x="95.410156"/>
       <use xlink:href="#DejaVuSans-30" x="159.033203"/>
      </g>
     </g>
    </g>
    <g id="ytick_2">
     <g id="line2d_15">
      <path d="M 57.6 266.105234 
L 414.72 266.105234 
" clip-path="url(#p4ef945b010)" style="fill: none; stroke: #b0b0b0; stroke-width: 0.8; stroke-linecap: square"/>
     </g>
     <g id="line2d_16">
      <g>
       <use xlink:href="#mf24f369f69" x="57.6" y="266.105234" style="stroke: #000000; stroke-width: 0.8"/>
      </g>
     </g>
     <g id="text_9">
      <!-- 0.02 -->
      <g transform="translate(28.334375 269.904453) scale(0.1 -0.1)">
       <use xlink:href="#DejaVuSans-30"/>
       <use xlink:href="#DejaVuSans-2e" x="63.623047"/>
       <use xlink:href="#DejaVuSans-30" x="95.410156"/>
       <use xlink:href="#DejaVuSans-32" x="159.033203"/>
      </g>
     </g>
    </g>
    <g id="ytick_3">
     <g id="line2d_17">
      <path d="M 57.6 224.626468 
L 414.72 224.626468 
" clip-path="url(#p4ef945b010)" style="fill: none; stroke: #b0b0b0; stroke-width: 0.8; stroke-linecap: square"/>
     </g>
     <g id="line2d_18">
      <g>
       <use xlink:href="#mf24f369f69" x="57.6" y="224.626468" style="stroke: #000000; stroke-width: 0.8"/>
      </g>
     </g>
     <g id="text_10">
      <!-- 0.04 -->
      <g transform="translate(28.334375 228.425687) scale(0.1 -0.1)">
       <use xlink:href="#DejaVuSans-30"/>
       <use xlink:href="#DejaVuSans-2e" x="63.623047"/>
       <use xlink:href="#DejaVuSans-30" x="95.410156"/>
       <use xlink:href="#DejaVuSans-34" x="159.033203"/>
      </g>
     </g>
    </g>
    <g id="ytick_4">
     <g id="line2d_19">
      <path d="M 57.6 183.147702 
L 414.72 183.147702 
" clip-path="url(#p4ef945b010)" style="fill: none; stroke: #b0b0b0; stroke-width: 0.8; stroke-linecap: square"/>
     </g>
     <g id="line2d_20">
      <g>
       <use xlink:href="#mf24f369f69" x="57.6" y="183.147702" style="stroke: #000000; stroke-width: 0.8"/>
      </g>
     </g>
     <g id="text_11">
      <!-- 0.06 -->
      <g transform="translate(28.334375 186.946921) scale(0.1 -0.1)">
       <use xlink:href="#DejaVuSans-30"/>
       <use xlink:href="#DejaVuSans-2e" x="63.623047"/>
       <use xlink:href="#DejaVuSans-30" x="95.410156"/>
       <use xlink:href="#DejaVuSans-36" x="159.033203"/>
      </g>
     </g>
    </g>
    <g id="ytick_5">
     <g id="line2d_21">
      <path d="M 57.6 141.668936 
L 414.72 141.668936 
" clip-path="url(#p4ef945b010)" style="fill: none; stroke: #b0b0b0; stroke-width: 0.8; stroke-linecap: square"/>
     </g>
     <g id="line2d_22">
      <g>
       <use xlink:href="#mf24f369f69" x="57.6" y="141.668936" style="stroke: #000000; stroke-width: 0.8"/>
      </g>
     </g>
     <g id="text_12">
      <!-- 0.08 -->
      <g transform="translate(28.334375 145.468155) scale(0.1 -0.1)">
       <use xlink:href="#DejaVuSans-30"/>
       <use xlink:href="#DejaVuSans-2e" x="63.623047"/>
       <use xlink:href="#DejaVuSans-30" x="95.410156"/>
       <use xlink:href="#DejaVuSans-38" x="159.033203"/>
      </g>
     </g>
    </g>
    <g id="ytick_6">
     <g id="line2d_23">
      <path d="M 57.6 100.19017 
L 414.72 100.19017 
" clip-path="url(#p4ef945b010)" style="fill: none; stroke: #b0b0b0; stroke-width: 0.8; stroke-linecap: square"/>
     </g>
     <g id="line2d_24">
      <g>
       <use xlink:href="#mf24f369f69" x="57.6" y="100.19017" style="stroke: #000000; stroke-width: 0.8"/>
      </g>
     </g>
     <g id="text_13">
      <!-- 0.10 -->
      <g transform="translate(28.334375 103.989389) scale(0.1 -0.1)">
       <use xlink:href="#DejaVuSans-30"/>
       <use xlink:href="#DejaVuSans-2e" x="63.623047"/>
       <use xlink:href="#DejaVuSans-31" x="95.410156"/>
       <use xlink:href="#DejaVuSans-30" x="159.033203"/>
      </g>
     </g>
    </g>
    <g id="ytick_7">
     <g id="line2d_25">
      <path d="M 57.6 58.711404 
L 414.72 58.711404 
" clip-path="url(#p4ef945b010)" style="fill: none; stroke: #b0b0b0; stroke-width: 0.8; stroke-linecap: square"/>
     </g>
     <g id="line2d_26">
      <g>
       <use xlink:href="#mf24f369f69" x="57.6" y="58.711404" style="stroke: #000000; stroke-width: 0.8"/>
      </g>
     </g>
     <g id="text_14">
      <!-- 0.12 -->
      <g transform="translate(28.334375 62.510623) scale(0.1 -0.1)">
       <use xlink:href="#DejaVuSans-30"/>
       <use xlink:href="#DejaVuSans-2e" x="63.623047"/>
       <use xlink:href="#DejaVuSans-31" x="95.410156"/>
       <use xlink:href="#DejaVuSans-32" x="159.033203"/>
      </g>
     </g>
    </g>
    <g id="text_15">
     <!-- Density -->
     <g transform="translate(22.254687 193.536594) rotate(-90) scale(0.1 -0.1)">
      <defs>
       <path id="DejaVuSans-44" d="M 1259 4147 
L 1259 519 
L 2022 519 
Q 2988 519 3436 956 
Q 3884 1394 3884 2338 
Q 3884 3275 3436 3711 
Q 2988 4147 2022 4147 
L 1259 4147 
z
M 628 4666 
L 1925 4666 
Q 3281 4666 3915 4102 
Q 4550 3538 4550 2338 
Q 4550 1131 3912 565 
Q 3275 0 1925 0 
L 628 0 
L 628 4666 
z
" transform="scale(0.015625)"/>
       <path id="DejaVuSans-6e" d="M 3513 2113 
L 3513 0 
L 2938 0 
L 2938 2094 
Q 2938 2591 2744 2837 
Q 2550 3084 2163 3084 
Q 1697 3084 1428 2787 
Q 1159 2491 1159 1978 
L 1159 0 
L 581 0 
L 581 3500 
L 1159 3500 
L 1159 2956 
Q 1366 3272 1645 3428 
Q 1925 3584 2291 3584 
Q 2894 3584 3203 3211 
Q 3513 2838 3513 2113 
z
" transform="scale(0.015625)"/>
       <path id="DejaVuSans-73" d="M 2834 3397 
L 2834 2853 
Q 2591 2978 2328 3040 
Q 2066 3103 1784 3103 
Q 1356 3103 1142 2972 
Q 928 2841 928 2578 
Q 928 2378 1081 2264 
Q 1234 2150 1697 2047 
L 1894 2003 
Q 2506 1872 2764 1633 
Q 3022 1394 3022 966 
Q 3022 478 2636 193 
Q 2250 -91 1575 -91 
Q 1294 -91 989 -36 
Q 684 19 347 128 
L 347 722 
Q 666 556 975 473 
Q 1284 391 1588 391 
Q 1994 391 2212 530 
Q 2431 669 2431 922 
Q 2431 1156 2273 1281 
Q 2116 1406 1581 1522 
L 1381 1569 
Q 847 1681 609 1914 
Q 372 2147 372 2553 
Q 372 3047 722 3315 
Q 1072 3584 1716 3584 
Q 2034 3584 2315 3537 
Q 2597 3491 2834 3397 
z
" transform="scale(0.015625)"/>
       <path id="DejaVuSans-69" d="M 603 3500 
L 1178 3500 
L 1178 0 
L 603 0 
L 603 3500 
z
M 603 4863 
L 1178 4863 
L 1178 4134 
L 603 4134 
L 603 4863 
z
" transform="scale(0.015625)"/>
       <path id="DejaVuSans-74" d="M 1172 4494 
L 1172 3500 
L 2356 3500 
L 2356 3053 
L 1172 3053 
L 1172 1153 
Q 1172 725 1289 603 
Q 1406 481 1766 481 
L 2356 481 
L 2356 0 
L 1766 0 
Q 1100 0 847 248 
Q 594 497 594 1153 
L 594 3053 
L 172 3053 
L 172 3500 
L 594 3500 
L 594 4494 
L 1172 4494 
z
" transform="scale(0.015625)"/>
       <path id="DejaVuSans-79" d="M 2059 -325 
Q 1816 -950 1584 -1140 
Q 1353 -1331 966 -1331 
L 506 -1331 
L 506 -850 
L 844 -850 
Q 1081 -850 1212 -737 
Q 1344 -625 1503 -206 
L 1606 56 
L 191 3500 
L 800 3500 
L 1894 763 
L 2988 3500 
L 3597 3500 
L 2059 -325 
z
" transform="scale(0.015625)"/>
      </defs>
      <use xlink:href="#DejaVuSans-44"/>
      <use xlink:href="#DejaVuSans-65" x="77.001953"/>
      <use xlink:href="#DejaVuSans-6e" x="138.525391"/>
      <use xlink:href="#DejaVuSans-73" x="201.904297"/>
      <use xlink:href="#DejaVuSans-69" x="254.003906"/>
      <use xlink:href="#DejaVuSans-74" x="281.787109"/>
      <use xlink:href="#DejaVuSans-79" x="320.996094"/>
     </g>
    </g>
   </g>
   <g id="line2d_27">
    <path d="M 73.832727 305.443614 
L 75.132645 304.558685 
L 76.432563 303.363956 
L 77.732482 301.774597 
L 78.70742 300.264511 
L 79.682359 298.430108 
L 80.657297 296.220645 
L 81.632236 293.582223 
L 82.932154 289.300061 
L 84.232072 284.021334 
L 85.53199 277.616735 
L 86.831908 269.971014 
L 88.131826 260.993587 
L 89.431744 250.630117 
L 91.056642 235.722509 
L 92.68154 218.763562 
L 94.631417 196.126127 
L 97.881212 155.255683 
L 100.806028 119.542659 
L 102.430925 102.215978 
L 103.730844 90.459944 
L 104.705782 83.155669 
L 105.680721 77.321517 
L 106.655659 73.083131 
L 107.305618 71.191298 
L 107.955577 70.069198 
L 108.280557 69.800555 
L 108.605536 69.727895 
L 108.930516 69.851398 
L 109.255495 70.17076 
L 109.905455 71.393419 
L 110.555414 73.383822 
L 111.205373 76.12244 
L 112.180311 81.573041 
L 113.15525 88.527629 
L 114.455168 99.881239 
L 115.755086 113.228569 
L 117.704963 135.958878 
L 124.854513 223.215088 
L 126.47941 239.677686 
L 128.104308 254.043593 
L 129.729206 266.231957 
L 131.029124 274.447949 
L 132.329042 281.3797 
L 133.62896 287.133101 
L 134.928878 291.832559 
L 136.228796 295.611187 
L 137.528714 298.602681 
L 138.828632 300.935065 
L 140.12855 302.726284 
L 141.428468 304.081484 
L 142.728387 305.091724 
L 144.028305 305.83383 
L 145.653202 306.479604 
L 147.603079 306.965477 
L 149.877936 307.281082 
L 153.127731 307.482147 
L 158.977363 307.572368 
L 187.250581 307.584 
L 398.487273 307.584 
L 398.487273 307.584 
" clip-path="url(#p4ef945b010)" style="fill: none; stroke: #ff0000; stroke-width: 2; stroke-linecap: square"/>
   </g>
   <g id="patch_203">
    <path d="M 57.6 307.584 
L 57.6 41.472 
" style="fill: none; stroke: #000000; stroke-width: 0.8; stroke-linejoin: miter; stroke-linecap: square"/>
   </g>
   <g id="patch_204">
    <path d="M 414.72 307.584 
L 414.72 41.472 
" style="fill: none; stroke: #000000; stroke-width: 0.8; stroke-linejoin: miter; stroke-linecap: square"/>
   </g>
   <g id="patch_205">
    <path d="M 57.6 307.584 
L 414.72 307.584 
" style="fill: none; stroke: #000000; stroke-width: 0.8; stroke-linejoin: miter; stroke-linecap: square"/>
   </g>
   <g id="patch_206">
    <path d="M 57.6 41.472 
L 414.72 41.472 
" style="fill: none; stroke: #000000; stroke-width: 0.8; stroke-linejoin: miter; stroke-linecap: square"/>
   </g>
   <g id="text_16">
    <!-- Histogram with Normal Distribution Overlay -->
    <g transform="translate(104.639062 35.472) scale(0.12 -0.12)">
     <defs>
      <path id="DejaVuSans-48" d="M 628 4666 
L 1259 4666 
L 1259 2753 
L 3553 2753 
L 3553 4666 
L 4184 4666 
L 4184 0 
L 3553 0 
L 3553 2222 
L 1259 2222 
L 1259 0 
L 628 0 
L 628 4666 
z
" transform="scale(0.015625)"/>
      <path id="DejaVuSans-6f" d="M 1959 3097 
Q 1497 3097 1228 2736 
Q 959 2375 959 1747 
Q 959 1119 1226 758 
Q 1494 397 1959 397 
Q 2419 397 2687 759 
Q 2956 1122 2956 1747 
Q 2956 2369 2687 2733 
Q 2419 3097 1959 3097 
z
M 1959 3584 
Q 2709 3584 3137 3096 
Q 3566 2609 3566 1747 
Q 3566 888 3137 398 
Q 2709 -91 1959 -91 
Q 1206 -91 779 398 
Q 353 888 353 1747 
Q 353 2609 779 3096 
Q 1206 3584 1959 3584 
z
" transform="scale(0.015625)"/>
      <path id="DejaVuSans-67" d="M 2906 1791 
Q 2906 2416 2648 2759 
Q 2391 3103 1925 3103 
Q 1463 3103 1205 2759 
Q 947 2416 947 1791 
Q 947 1169 1205 825 
Q 1463 481 1925 481 
Q 2391 481 2648 825 
Q 2906 1169 2906 1791 
z
M 3481 434 
Q 3481 -459 3084 -895 
Q 2688 -1331 1869 -1331 
Q 1566 -1331 1297 -1286 
Q 1028 -1241 775 -1147 
L 775 -588 
Q 1028 -725 1275 -790 
Q 1522 -856 1778 -856 
Q 2344 -856 2625 -561 
Q 2906 -266 2906 331 
L 2906 616 
Q 2728 306 2450 153 
Q 2172 0 1784 0 
Q 1141 0 747 490 
Q 353 981 353 1791 
Q 353 2603 747 3093 
Q 1141 3584 1784 3584 
Q 2172 3584 2450 3431 
Q 2728 3278 2906 2969 
L 2906 3500 
L 3481 3500 
L 3481 434 
z
" transform="scale(0.015625)"/>
      <path id="DejaVuSans-72" d="M 2631 2963 
Q 2534 3019 2420 3045 
Q 2306 3072 2169 3072 
Q 1681 3072 1420 2755 
Q 1159 2438 1159 1844 
L 1159 0 
L 581 0 
L 581 3500 
L 1159 3500 
L 1159 2956 
Q 1341 3275 1631 3429 
Q 1922 3584 2338 3584 
Q 2397 3584 2469 3576 
Q 2541 3569 2628 3553 
L 2631 2963 
z
" transform="scale(0.015625)"/>
      <path id="DejaVuSans-6d" d="M 3328 2828 
Q 3544 3216 3844 3400 
Q 4144 3584 4550 3584 
Q 5097 3584 5394 3201 
Q 5691 2819 5691 2113 
L 5691 0 
L 5113 0 
L 5113 2094 
Q 5113 2597 4934 2840 
Q 4756 3084 4391 3084 
Q 3944 3084 3684 2787 
Q 3425 2491 3425 1978 
L 3425 0 
L 2847 0 
L 2847 2094 
Q 2847 2600 2669 2842 
Q 2491 3084 2119 3084 
Q 1678 3084 1418 2786 
Q 1159 2488 1159 1978 
L 1159 0 
L 581 0 
L 581 3500 
L 1159 3500 
L 1159 2956 
Q 1356 3278 1631 3431 
Q 1906 3584 2284 3584 
Q 2666 3584 2933 3390 
Q 3200 3197 3328 2828 
z
" transform="scale(0.015625)"/>
      <path id="DejaVuSans-20" transform="scale(0.015625)"/>
      <path id="DejaVuSans-77" d="M 269 3500 
L 844 3500 
L 1563 769 
L 2278 3500 
L 2956 3500 
L 3675 769 
L 4391 3500 
L 4966 3500 
L 4050 0 
L 3372 0 
L 2619 2869 
L 1863 0 
L 1184 0 
L 269 3500 
z
" transform="scale(0.015625)"/>
      <path id="DejaVuSans-68" d="M 3513 2113 
L 3513 0 
L 2938 0 
L 2938 2094 
Q 2938 2591 2744 2837 
Q 2550 3084 2163 3084 
Q 1697 3084 1428 2787 
Q 1159 2491 1159 1978 
L 1159 0 
L 581 0 
L 581 4863 
L 1159 4863 
L 1159 2956 
Q 1366 3272 1645 3428 
Q 1925 3584 2291 3584 
Q 2894 3584 3203 3211 
Q 3513 2838 3513 2113 
z
" transform="scale(0.015625)"/>
      <path id="DejaVuSans-4e" d="M 628 4666 
L 1478 4666 
L 3547 763 
L 3547 4666 
L 4159 4666 
L 4159 0 
L 3309 0 
L 1241 3903 
L 1241 0 
L 628 0 
L 628 4666 
z
" transform="scale(0.015625)"/>
      <path id="DejaVuSans-62" d="M 3116 1747 
Q 3116 2381 2855 2742 
Q 2594 3103 2138 3103 
Q 1681 3103 1420 2742 
Q 1159 2381 1159 1747 
Q 1159 1113 1420 752 
Q 1681 391 2138 391 
Q 2594 391 2855 752 
Q 3116 1113 3116 1747 
z
M 1159 2969 
Q 1341 3281 1617 3432 
Q 1894 3584 2278 3584 
Q 2916 3584 3314 3078 
Q 3713 2572 3713 1747 
Q 3713 922 3314 415 
Q 2916 -91 2278 -91 
Q 1894 -91 1617 61 
Q 1341 213 1159 525 
L 1159 0 
L 581 0 
L 581 4863 
L 1159 4863 
L 1159 2969 
z
" transform="scale(0.015625)"/>
      <path id="DejaVuSans-4f" d="M 2522 4238 
Q 1834 4238 1429 3725 
Q 1025 3213 1025 2328 
Q 1025 1447 1429 934 
Q 1834 422 2522 422 
Q 3209 422 3611 934 
Q 4013 1447 4013 2328 
Q 4013 3213 3611 3725 
Q 3209 4238 2522 4238 
z
M 2522 4750 
Q 3503 4750 4090 4092 
Q 4678 3434 4678 2328 
Q 4678 1225 4090 567 
Q 3503 -91 2522 -91 
Q 1538 -91 948 565 
Q 359 1222 359 2328 
Q 359 3434 948 4092 
Q 1538 4750 2522 4750 
z
" transform="scale(0.015625)"/>
      <path id="DejaVuSans-76" d="M 191 3500 
L 800 3500 
L 1894 563 
L 2988 3500 
L 3597 3500 
L 2284 0 
L 1503 0 
L 191 3500 
z
" transform="scale(0.015625)"/>
     </defs>
     <use xlink:href="#DejaVuSans-48"/>
     <use xlink:href="#DejaVuSans-69" x="75.195312"/>
     <use xlink:href="#DejaVuSans-73" x="102.978516"/>
     <use xlink:href="#DejaVuSans-74" x="155.078125"/>
     <use xlink:href="#DejaVuSans-6f" x="194.287109"/>
     <use xlink:href="#DejaVuSans-67" x="255.46875"/>
     <use xlink:href="#DejaVuSans-72" x="318.945312"/>
     <use xlink:href="#DejaVuSans-61" x="360.058594"/>
     <use xlink:href="#DejaVuSans-6d" x="421.337891"/>
     <use xlink:href="#DejaVuSans-20" x="518.75"/>
     <use xlink:href="#DejaVuSans-77" x="550.537109"/>
     <use xlink:href="#DejaVuSans-69" x="632.324219"/>
     <use xlink:href="#DejaVuSans-74" x="660.107422"/>
     <use xlink:href="#DejaVuSans-68" x="699.316406"/>
     <use xlink:href="#DejaVuSans-20" x="762.695312"/>
     <use xlink:href="#DejaVuSans-4e" x="794.482422"/>
     <use xlink:href="#DejaVuSans-6f" x="869.287109"/>
     <use xlink:href="#DejaVuSans-72" x="930.46875"/>
     <use xlink:href="#DejaVuSans-6d" x="969.832031"/>
     <use xlink:href="#DejaVuSans-61" x="1067.244141"/>
     <use xlink:href="#DejaVuSans-6c" x="1128.523438"/>
     <use xlink:href="#DejaVuSans-20" x="1156.306641"/>
     <use xlink:href="#DejaVuSans-44" x="1188.09375"/>
     <use xlink:href="#DejaVuSans-69" x="1265.095703"/>
     <use xlink:href="#DejaVuSans-73" x="1292.878906"/>
     <use xlink:href="#DejaVuSans-74" x="1344.978516"/>
     <use xlink:href="#DejaVuSans-72" x="1384.1875"/>
     <use xlink:href="#DejaVuSans-69" x="1425.300781"/>
     <use xlink:href="#DejaVuSans-62" x="1453.083984"/>
     <use xlink:href="#DejaVuSans-75" x="1516.560547"/>
     <use xlink:href="#DejaVuSans-74" x="1579.939453"/>
     <use xlink:href="#DejaVuSans-69" x="1619.148438"/>
     <use xlink:href="#DejaVuSans-6f" x="1646.931641"/>
     <use xlink:href="#DejaVuSans-6e" x="1708.113281"/>
     <use xlink:href="#DejaVuSans-20" x="1771.492188"/>
     <use xlink:href="#DejaVuSans-4f" x="1803.279297"/>
     <use xlink:href="#DejaVuSans-76" x="1881.990234"/>
     <use xlink:href="#DejaVuSans-65" x="1941.169922"/>
     <use xlink:href="#DejaVuSans-72" x="2002.693359"/>
     <use xlink:href="#DejaVuSans-6c" x="2043.806641"/>
     <use xlink:href="#DejaVuSans-61" x="2071.589844"/>
     <use xlink:href="#DejaVuSans-79" x="2132.869141"/>
    </g>
   </g>
   <g id="legend_1">
    <g id="patch_207">
     <path d="M 278.021563 78.82825 
L 407.72 78.82825 
Q 409.72 78.82825 409.72 76.82825 
L 409.72 48.472 
Q 409.72 46.472 407.72 46.472 
L 278.021563 46.472 
Q 276.021563 46.472 276.021563 48.472 
L 276.021563 76.82825 
Q 276.021563 78.82825 278.021563 78.82825 
z
" style="fill: #ffffff; opacity: 0.8; stroke: #cccccc; stroke-linejoin: miter"/>
    </g>
    <g id="patch_208">
     <path d="M 280.021563 58.070437 
L 300.021563 58.070437 
L 300.021563 51.070437 
L 280.021563 51.070437 
z
" style="fill: #1f77b4; opacity: 0.6"/>
    </g>
    <g id="text_17">
     <!-- Histogram -->
     <g transform="translate(308.021563 58.070437) scale(0.1 -0.1)">
      <use xlink:href="#DejaVuSans-48"/>
      <use xlink:href="#DejaVuSans-69" x="75.195312"/>
      <use xlink:href="#DejaVuSans-73" x="102.978516"/>
      <use xlink:href="#DejaVuSans-74" x="155.078125"/>
      <use xlink:href="#DejaVuSans-6f" x="194.287109"/>
      <use xlink:href="#DejaVuSans-67" x="255.46875"/>
      <use xlink:href="#DejaVuSans-72" x="318.945312"/>
      <use xlink:href="#DejaVuSans-61" x="360.058594"/>
      <use xlink:href="#DejaVuSans-6d" x="421.337891"/>
     </g>
    </g>
    <g id="line2d_28">
     <path d="M 280.021563 69.248562 
L 290.021563 69.248562 
L 300.021563 69.248562 
" style="fill: none; stroke: #ff0000; stroke-width: 2; stroke-linecap: square"/>
    </g>
    <g id="text_18">
     <!-- Normal Distribution -->
     <g transform="translate(308.021563 72.748562) scale(0.1 -0.1)">
      <use xlink:href="#DejaVuSans-4e"/>
      <use xlink:href="#DejaVuSans-6f" x="74.804688"/>
      <use xlink:href="#DejaVuSans-72" x="135.986328"/>
      <use xlink:href="#DejaVuSans-6d" x="175.349609"/>
      <use xlink:href="#DejaVuSans-61" x="272.761719"/>
      <use xlink:href="#DejaVuSans-6c" x="334.041016"/>
      <use xlink:href="#DejaVuSans-20" x="361.824219"/>
      <use xlink:href="#DejaVuSans-44" x="393.611328"/>
      <use xlink:href="#DejaVuSans-69" x="470.613281"/>
      <use xlink:href="#DejaVuSans-73" x="498.396484"/>
      <use xlink:href="#DejaVuSans-74" x="550.496094"/>
      <use xlink:href="#DejaVuSans-72" x="589.705078"/>
      <use xlink:href="#DejaVuSans-69" x="630.818359"/>
      <use xlink:href="#DejaVuSans-62" x="658.601562"/>
      <use xlink:href="#DejaVuSans-75" x="722.078125"/>
      <use xlink:href="#DejaVuSans-74" x="785.457031"/>
      <use xlink:href="#DejaVuSans-69" x="824.666016"/>
      <use xlink:href="#DejaVuSans-6f" x="852.449219"/>
      <use xlink:href="#DejaVuSans-6e" x="913.630859"/>
     </g>
    </g>
   </g>
  </g>
 </g>
 <defs>
  <clipPath id="p4ef945b010">
   <rect x="57.6" y="41.472" width="357.12" height="266.112"/>
  </clipPath>
 </defs>
</svg>
