<?xml version="1.0" encoding="utf-8" standalone="no"?>
<!DOCTYPE svg PUBLIC "-//W3C//DTD SVG 1.1//EN"
  "http://www.w3.org/Graphics/SVG/1.1/DTD/svg11.dtd">
<svg xmlns:xlink="http://www.w3.org/1999/xlink" width="460.8pt" height="345.6pt" viewBox="0 0 460.8 345.6" xmlns="http://www.w3.org/2000/svg" version="1.1">
 <metadata>
  <rdf:RDF xmlns:dc="http://purl.org/dc/elements/1.1/" xmlns:cc="http://creativecommons.org/ns#" xmlns:rdf="http://www.w3.org/1999/02/22-rdf-syntax-ns#">
   <cc:Work>
    <dc:type rdf:resource="http://purl.org/dc/dcmitype/StillImage"/>
    <dc:date>2024-12-03T11:43:52.648402</dc:date>
    <dc:format>image/svg+xml</dc:format>
    <dc:creator>
     <cc:Agent>
      <dc:title>Matplotlib v3.9.2, https://matplotlib.org/</dc:title>
     </cc:Agent>
    </dc:creator>
   </cc:Work>
  </rdf:RDF>
 </metadata>
 <defs>
  <style type="text/css">*{stroke-linejoin: round; stroke-linecap: butt}</style>
 </defs>
 <g id="figure_1">
  <g id="patch_1">
   <path d="M 0 345.6 
L 460.8 345.6 
L 460.8 0 
L 0 0 
z
" style="fill: #ffffff"/>
  </g>
  <g id="axes_1">
   <g id="patch_2">
    <path d="M 57.6 307.584 
L 414.72 307.584 
L 414.72 41.472 
L 57.6 41.472 
z
" style="fill: #ffffff"/>
   </g>
   <g id="matplotlib.axis_1">
    <g id="xtick_1">
     <g id="line2d_1">
      <path d="M 73.832727 307.584 
L 73.832727 41.472 
" clip-path="url(#p22785b1ad2)" style="fill: none; stroke: #b0b0b0; stroke-width: 0.8; stroke-linecap: square"/>
     </g>
     <g id="line2d_2">
      <defs>
       <path id="madf4f3d64d" d="M 0 0 
L 0 3.5 
" style="stroke: #000000; stroke-width: 0.8"/>
      </defs>
      <g>
       <use xlink:href="#madf4f3d64d" x="73.832727" y="307.584" style="stroke: #000000; stroke-width: 0.8"/>
      </g>
     </g>
     <g id="text_1">
      <!-- 0 -->
      <g transform="translate(70.651477 322.182437) scale(0.1 -0.1)">
       <defs>
        <path id="DejaVuSans-30" d="M 2034 4250 
Q 1547 4250 1301 3770 
Q 1056 3291 1056 2328 
Q 1056 1369 1301 889 
Q 1547 409 2034 409 
Q 2525 409 2770 889 
Q 3016 1369 3016 2328 
Q 3016 3291 2770 3770 
Q 2525 4250 2034 4250 
z
M 2034 4750 
Q 2819 4750 3233 4129 
Q 3647 3509 3647 2328 
Q 3647 1150 3233 529 
Q 2819 -91 2034 -91 
Q 1250 -91 836 529 
Q 422 1150 422 2328 
Q 422 3509 836 4129 
Q 1250 4750 2034 4750 
z
" transform="scale(0.015625)"/>
       </defs>
       <use xlink:href="#DejaVuSans-30"/>
      </g>
     </g>
    </g>
    <g id="xtick_2">
     <g id="line2d_3">
      <path d="M 114.414556 307.584 
L 114.414556 41.472 
" clip-path="url(#p22785b1ad2)" style="fill: none; stroke: #b0b0b0; stroke-width: 0.8; stroke-linecap: square"/>
     </g>
     <g id="line2d_4">
      <g>
       <use xlink:href="#madf4f3d64d" x="114.414556" y="307.584" style="stroke: #000000; stroke-width: 0.8"/>
      </g>
     </g>
     <g id="text_2">
      <!-- 100000 -->
      <g transform="translate(95.327056 322.182437) scale(0.1 -0.1)">
       <defs>
        <path id="DejaVuSans-31" d="M 794 531 
L 1825 531 
L 1825 4091 
L 703 3866 
L 703 4441 
L 1819 4666 
L 2450 4666 
L 2450 531 
L 3481 531 
L 3481 0 
L 794 0 
L 794 531 
z
" transform="scale(0.015625)"/>
       </defs>
       <use xlink:href="#DejaVuSans-31"/>
       <use xlink:href="#DejaVuSans-30" x="63.623047"/>
       <use xlink:href="#DejaVuSans-30" x="127.246094"/>
       <use xlink:href="#DejaVuSans-30" x="190.869141"/>
       <use xlink:href="#DejaVuSans-30" x="254.492188"/>
       <use xlink:href="#DejaVuSans-30" x="318.115234"/>
      </g>
     </g>
    </g>
    <g id="xtick_3">
     <g id="line2d_5">
      <path d="M 154.996384 307.584 
L 154.996384 41.472 
" clip-path="url(#p22785b1ad2)" style="fill: none; stroke: #b0b0b0; stroke-width: 0.8; stroke-linecap: square"/>
     </g>
     <g id="line2d_6">
      <g>
       <use xlink:href="#madf4f3d64d" x="154.996384" y="307.584" style="stroke: #000000; stroke-width: 0.8"/>
      </g>
     </g>
     <g id="text_3">
      <!-- 200000 -->
      <g transform="translate(135.908884 322.182437) scale(0.1 -0.1)">
       <defs>
        <path id="DejaVuSans-32" d="M 1228 531 
L 3431 531 
L 3431 0 
L 469 0 
L 469 531 
Q 828 903 1448 1529 
Q 2069 2156 2228 2338 
Q 2531 2678 2651 2914 
Q 2772 3150 2772 3378 
Q 2772 3750 2511 3984 
Q 2250 4219 1831 4219 
Q 1534 4219 1204 4116 
Q 875 4013 500 3803 
L 500 4441 
Q 881 4594 1212 4672 
Q 1544 4750 1819 4750 
Q 2544 4750 2975 4387 
Q 3406 4025 3406 3419 
Q 3406 3131 3298 2873 
Q 3191 2616 2906 2266 
Q 2828 2175 2409 1742 
Q 1991 1309 1228 531 
z
" transform="scale(0.015625)"/>
       </defs>
       <use xlink:href="#DejaVuSans-32"/>
       <use xlink:href="#DejaVuSans-30" x="63.623047"/>
       <use xlink:href="#DejaVuSans-30" x="127.246094"/>
       <use xlink:href="#DejaVuSans-30" x="190.869141"/>
       <use xlink:href="#DejaVuSans-30" x="254.492188"/>
       <use xlink:href="#DejaVuSans-30" x="318.115234"/>
      </g>
     </g>
    </g>
    <g id="xtick_4">
     <g id="line2d_7">
      <path d="M 195.578212 307.584 
L 195.578212 41.472 
" clip-path="url(#p22785b1ad2)" style="fill: none; stroke: #b0b0b0; stroke-width: 0.8; stroke-linecap: square"/>
     </g>
     <g id="line2d_8">
      <g>
       <use xlink:href="#madf4f3d64d" x="195.578212" y="307.584" style="stroke: #000000; stroke-width: 0.8"/>
      </g>
     </g>
     <g id="text_4">
      <!-- 300000 -->
      <g transform="translate(176.490712 322.182437) scale(0.1 -0.1)">
       <defs>
        <path id="DejaVuSans-33" d="M 2597 2516 
Q 3050 2419 3304 2112 
Q 3559 1806 3559 1356 
Q 3559 666 3084 287 
Q 2609 -91 1734 -91 
Q 1441 -91 1130 -33 
Q 819 25 488 141 
L 488 750 
Q 750 597 1062 519 
Q 1375 441 1716 441 
Q 2309 441 2620 675 
Q 2931 909 2931 1356 
Q 2931 1769 2642 2001 
Q 2353 2234 1838 2234 
L 1294 2234 
L 1294 2753 
L 1863 2753 
Q 2328 2753 2575 2939 
Q 2822 3125 2822 3475 
Q 2822 3834 2567 4026 
Q 2313 4219 1838 4219 
Q 1578 4219 1281 4162 
Q 984 4106 628 3988 
L 628 4550 
Q 988 4650 1302 4700 
Q 1616 4750 1894 4750 
Q 2613 4750 3031 4423 
Q 3450 4097 3450 3541 
Q 3450 3153 3228 2886 
Q 3006 2619 2597 2516 
z
" transform="scale(0.015625)"/>
       </defs>
       <use xlink:href="#DejaVuSans-33"/>
       <use xlink:href="#DejaVuSans-30" x="63.623047"/>
       <use xlink:href="#DejaVuSans-30" x="127.246094"/>
       <use xlink:href="#DejaVuSans-30" x="190.869141"/>
       <use xlink:href="#DejaVuSans-30" x="254.492188"/>
       <use xlink:href="#DejaVuSans-30" x="318.115234"/>
      </g>
     </g>
    </g>
    <g id="xtick_5">
     <g id="line2d_9">
      <path d="M 236.16004 307.584 
L 236.16004 41.472 
" clip-path="url(#p22785b1ad2)" style="fill: none; stroke: #b0b0b0; stroke-width: 0.8; stroke-linecap: square"/>
     </g>
     <g id="line2d_10">
      <g>
       <use xlink:href="#madf4f3d64d" x="236.16004" y="307.584" style="stroke: #000000; stroke-width: 0.8"/>
      </g>
     </g>
     <g id="text_5">
      <!-- 400000 -->
      <g transform="translate(217.07254 322.182437) scale(0.1 -0.1)">
       <defs>
        <path id="DejaVuSans-34" d="M 2419 4116 
L 825 1625 
L 2419 1625 
L 2419 4116 
z
M 2253 4666 
L 3047 4666 
L 3047 1625 
L 3713 1625 
L 3713 1100 
L 3047 1100 
L 3047 0 
L 2419 0 
L 2419 1100 
L 313 1100 
L 313 1709 
L 2253 4666 
z
" transform="scale(0.015625)"/>
       </defs>
       <use xlink:href="#DejaVuSans-34"/>
       <use xlink:href="#DejaVuSans-30" x="63.623047"/>
       <use xlink:href="#DejaVuSans-30" x="127.246094"/>
       <use xlink:href="#DejaVuSans-30" x="190.869141"/>
       <use xlink:href="#DejaVuSans-30" x="254.492188"/>
       <use xlink:href="#DejaVuSans-30" x="318.115234"/>
      </g>
     </g>
    </g>
    <g id="xtick_6">
     <g id="line2d_11">
      <path d="M 276.741869 307.584 
L 276.741869 41.472 
" clip-path="url(#p22785b1ad2)" style="fill: none; stroke: #b0b0b0; stroke-width: 0.8; stroke-linecap: square"/>
     </g>
     <g id="line2d_12">
      <g>
       <use xlink:href="#madf4f3d64d" x="276.741869" y="307.584" style="stroke: #000000; stroke-width: 0.8"/>
      </g>
     </g>
     <g id="text_6">
      <!-- 500000 -->
      <g transform="translate(257.654369 322.182437) scale(0.1 -0.1)">
       <defs>
        <path id="DejaVuSans-35" d="M 691 4666 
L 3169 4666 
L 3169 4134 
L 1269 4134 
L 1269 2991 
Q 1406 3038 1543 3061 
Q 1681 3084 1819 3084 
Q 2600 3084 3056 2656 
Q 3513 2228 3513 1497 
Q 3513 744 3044 326 
Q 2575 -91 1722 -91 
Q 1428 -91 1123 -41 
Q 819 9 494 109 
L 494 744 
Q 775 591 1075 516 
Q 1375 441 1709 441 
Q 2250 441 2565 725 
Q 2881 1009 2881 1497 
Q 2881 1984 2565 2268 
Q 2250 2553 1709 2553 
Q 1456 2553 1204 2497 
Q 953 2441 691 2322 
L 691 4666 
z
" transform="scale(0.015625)"/>
       </defs>
       <use xlink:href="#DejaVuSans-35"/>
       <use xlink:href="#DejaVuSans-30" x="63.623047"/>
       <use xlink:href="#DejaVuSans-30" x="127.246094"/>
       <use xlink:href="#DejaVuSans-30" x="190.869141"/>
       <use xlink:href="#DejaVuSans-30" x="254.492188"/>
       <use xlink:href="#DejaVuSans-30" x="318.115234"/>
      </g>
     </g>
    </g>
    <g id="xtick_7">
     <g id="line2d_13">
      <path d="M 317.323697 307.584 
L 317.323697 41.472 
" clip-path="url(#p22785b1ad2)" style="fill: none; stroke: #b0b0b0; stroke-width: 0.8; stroke-linecap: square"/>
     </g>
     <g id="line2d_14">
      <g>
       <use xlink:href="#madf4f3d64d" x="317.323697" y="307.584" style="stroke: #000000; stroke-width: 0.8"/>
      </g>
     </g>
     <g id="text_7">
      <!-- 600000 -->
      <g transform="translate(298.236197 322.182437) scale(0.1 -0.1)">
       <defs>
        <path id="DejaVuSans-36" d="M 2113 2584 
Q 1688 2584 1439 2293 
Q 1191 2003 1191 1497 
Q 1191 994 1439 701 
Q 1688 409 2113 409 
Q 2538 409 2786 701 
Q 3034 994 3034 1497 
Q 3034 2003 2786 2293 
Q 2538 2584 2113 2584 
z
M 3366 4563 
L 3366 3988 
Q 3128 4100 2886 4159 
Q 2644 4219 2406 4219 
Q 1781 4219 1451 3797 
Q 1122 3375 1075 2522 
Q 1259 2794 1537 2939 
Q 1816 3084 2150 3084 
Q 2853 3084 3261 2657 
Q 3669 2231 3669 1497 
Q 3669 778 3244 343 
Q 2819 -91 2113 -91 
Q 1303 -91 875 529 
Q 447 1150 447 2328 
Q 447 3434 972 4092 
Q 1497 4750 2381 4750 
Q 2619 4750 2861 4703 
Q 3103 4656 3366 4563 
z
" transform="scale(0.015625)"/>
       </defs>
       <use xlink:href="#DejaVuSans-36"/>
       <use xlink:href="#DejaVuSans-30" x="63.623047"/>
       <use xlink:href="#DejaVuSans-30" x="127.246094"/>
       <use xlink:href="#DejaVuSans-30" x="190.869141"/>
       <use xlink:href="#DejaVuSans-30" x="254.492188"/>
       <use xlink:href="#DejaVuSans-30" x="318.115234"/>
      </g>
     </g>
    </g>
    <g id="xtick_8">
     <g id="line2d_15">
      <path d="M 357.905525 307.584 
L 357.905525 41.472 
" clip-path="url(#p22785b1ad2)" style="fill: none; stroke: #b0b0b0; stroke-width: 0.8; stroke-linecap: square"/>
     </g>
     <g id="line2d_16">
      <g>
       <use xlink:href="#madf4f3d64d" x="357.905525" y="307.584" style="stroke: #000000; stroke-width: 0.8"/>
      </g>
     </g>
     <g id="text_8">
      <!-- 700000 -->
      <g transform="translate(338.818025 322.182437) scale(0.1 -0.1)">
       <defs>
        <path id="DejaVuSans-37" d="M 525 4666 
L 3525 4666 
L 3525 4397 
L 1831 0 
L 1172 0 
L 2766 4134 
L 525 4134 
L 525 4666 
z
" transform="scale(0.015625)"/>
       </defs>
       <use xlink:href="#DejaVuSans-37"/>
       <use xlink:href="#DejaVuSans-30" x="63.623047"/>
       <use xlink:href="#DejaVuSans-30" x="127.246094"/>
       <use xlink:href="#DejaVuSans-30" x="190.869141"/>
       <use xlink:href="#DejaVuSans-30" x="254.492188"/>
       <use xlink:href="#DejaVuSans-30" x="318.115234"/>
      </g>
     </g>
    </g>
    <g id="xtick_9">
     <g id="line2d_17">
      <path d="M 398.487353 307.584 
L 398.487353 41.472 
" clip-path="url(#p22785b1ad2)" style="fill: none; stroke: #b0b0b0; stroke-width: 0.8; stroke-linecap: square"/>
     </g>
     <g id="line2d_18">
      <g>
       <use xlink:href="#madf4f3d64d" x="398.487353" y="307.584" style="stroke: #000000; stroke-width: 0.8"/>
      </g>
     </g>
     <g id="text_9">
      <!-- 800000 -->
      <g transform="translate(379.399853 322.182437) scale(0.1 -0.1)">
       <defs>
        <path id="DejaVuSans-38" d="M 2034 2216 
Q 1584 2216 1326 1975 
Q 1069 1734 1069 1313 
Q 1069 891 1326 650 
Q 1584 409 2034 409 
Q 2484 409 2743 651 
Q 3003 894 3003 1313 
Q 3003 1734 2745 1975 
Q 2488 2216 2034 2216 
z
M 1403 2484 
Q 997 2584 770 2862 
Q 544 3141 544 3541 
Q 544 4100 942 4425 
Q 1341 4750 2034 4750 
Q 2731 4750 3128 4425 
Q 3525 4100 3525 3541 
Q 3525 3141 3298 2862 
Q 3072 2584 2669 2484 
Q 3125 2378 3379 2068 
Q 3634 1759 3634 1313 
Q 3634 634 3220 271 
Q 2806 -91 2034 -91 
Q 1263 -91 848 271 
Q 434 634 434 1313 
Q 434 1759 690 2068 
Q 947 2378 1403 2484 
z
M 1172 3481 
Q 1172 3119 1398 2916 
Q 1625 2713 2034 2713 
Q 2441 2713 2670 2916 
Q 2900 3119 2900 3481 
Q 2900 3844 2670 4047 
Q 2441 4250 2034 4250 
Q 1625 4250 1398 4047 
Q 1172 3844 1172 3481 
z
" transform="scale(0.015625)"/>
       </defs>
       <use xlink:href="#DejaVuSans-38"/>
       <use xlink:href="#DejaVuSans-30" x="63.623047"/>
       <use xlink:href="#DejaVuSans-30" x="127.246094"/>
       <use xlink:href="#DejaVuSans-30" x="190.869141"/>
       <use xlink:href="#DejaVuSans-30" x="254.492188"/>
       <use xlink:href="#DejaVuSans-30" x="318.115234"/>
      </g>
     </g>
    </g>
    <g id="text_10">
     <!-- TimePoint -->
     <g transform="translate(211.515469 335.860562) scale(0.1 -0.1)">
      <defs>
       <path id="DejaVuSans-54" d="M -19 4666 
L 3928 4666 
L 3928 4134 
L 2272 4134 
L 2272 0 
L 1638 0 
L 1638 4134 
L -19 4134 
L -19 4666 
z
" transform="scale(0.015625)"/>
       <path id="DejaVuSans-69" d="M 603 3500 
L 1178 3500 
L 1178 0 
L 603 0 
L 603 3500 
z
M 603 4863 
L 1178 4863 
L 1178 4134 
L 603 4134 
L 603 4863 
z
" transform="scale(0.015625)"/>
       <path id="DejaVuSans-6d" d="M 3328 2828 
Q 3544 3216 3844 3400 
Q 4144 3584 4550 3584 
Q 5097 3584 5394 3201 
Q 5691 2819 5691 2113 
L 5691 0 
L 5113 0 
L 5113 2094 
Q 5113 2597 4934 2840 
Q 4756 3084 4391 3084 
Q 3944 3084 3684 2787 
Q 3425 2491 3425 1978 
L 3425 0 
L 2847 0 
L 2847 2094 
Q 2847 2600 2669 2842 
Q 2491 3084 2119 3084 
Q 1678 3084 1418 2786 
Q 1159 2488 1159 1978 
L 1159 0 
L 581 0 
L 581 3500 
L 1159 3500 
L 1159 2956 
Q 1356 3278 1631 3431 
Q 1906 3584 2284 3584 
Q 2666 3584 2933 3390 
Q 3200 3197 3328 2828 
z
" transform="scale(0.015625)"/>
       <path id="DejaVuSans-65" d="M 3597 1894 
L 3597 1613 
L 953 1613 
Q 991 1019 1311 708 
Q 1631 397 2203 397 
Q 2534 397 2845 478 
Q 3156 559 3463 722 
L 3463 178 
Q 3153 47 2828 -22 
Q 2503 -91 2169 -91 
Q 1331 -91 842 396 
Q 353 884 353 1716 
Q 353 2575 817 3079 
Q 1281 3584 2069 3584 
Q 2775 3584 3186 3129 
Q 3597 2675 3597 1894 
z
M 3022 2063 
Q 3016 2534 2758 2815 
Q 2500 3097 2075 3097 
Q 1594 3097 1305 2825 
Q 1016 2553 972 2059 
L 3022 2063 
z
" transform="scale(0.015625)"/>
       <path id="DejaVuSans-50" d="M 1259 4147 
L 1259 2394 
L 2053 2394 
Q 2494 2394 2734 2622 
Q 2975 2850 2975 3272 
Q 2975 3691 2734 3919 
Q 2494 4147 2053 4147 
L 1259 4147 
z
M 628 4666 
L 2053 4666 
Q 2838 4666 3239 4311 
Q 3641 3956 3641 3272 
Q 3641 2581 3239 2228 
Q 2838 1875 2053 1875 
L 1259 1875 
L 1259 0 
L 628 0 
L 628 4666 
z
" transform="scale(0.015625)"/>
       <path id="DejaVuSans-6f" d="M 1959 3097 
Q 1497 3097 1228 2736 
Q 959 2375 959 1747 
Q 959 1119 1226 758 
Q 1494 397 1959 397 
Q 2419 397 2687 759 
Q 2956 1122 2956 1747 
Q 2956 2369 2687 2733 
Q 2419 3097 1959 3097 
z
M 1959 3584 
Q 2709 3584 3137 3096 
Q 3566 2609 3566 1747 
Q 3566 888 3137 398 
Q 2709 -91 1959 -91 
Q 1206 -91 779 398 
Q 353 888 353 1747 
Q 353 2609 779 3096 
Q 1206 3584 1959 3584 
z
" transform="scale(0.015625)"/>
       <path id="DejaVuSans-6e" d="M 3513 2113 
L 3513 0 
L 2938 0 
L 2938 2094 
Q 2938 2591 2744 2837 
Q 2550 3084 2163 3084 
Q 1697 3084 1428 2787 
Q 1159 2491 1159 1978 
L 1159 0 
L 581 0 
L 581 3500 
L 1159 3500 
L 1159 2956 
Q 1366 3272 1645 3428 
Q 1925 3584 2291 3584 
Q 2894 3584 3203 3211 
Q 3513 2838 3513 2113 
z
" transform="scale(0.015625)"/>
       <path id="DejaVuSans-74" d="M 1172 4494 
L 1172 3500 
L 2356 3500 
L 2356 3053 
L 1172 3053 
L 1172 1153 
Q 1172 725 1289 603 
Q 1406 481 1766 481 
L 2356 481 
L 2356 0 
L 1766 0 
Q 1100 0 847 248 
Q 594 497 594 1153 
L 594 3053 
L 172 3053 
L 172 3500 
L 594 3500 
L 594 4494 
L 1172 4494 
z
" transform="scale(0.015625)"/>
      </defs>
      <use xlink:href="#DejaVuSans-54"/>
      <use xlink:href="#DejaVuSans-69" x="57.958984"/>
      <use xlink:href="#DejaVuSans-6d" x="85.742188"/>
      <use xlink:href="#DejaVuSans-65" x="183.154297"/>
      <use xlink:href="#DejaVuSans-50" x="244.677734"/>
      <use xlink:href="#DejaVuSans-6f" x="301.355469"/>
      <use xlink:href="#DejaVuSans-69" x="362.537109"/>
      <use xlink:href="#DejaVuSans-6e" x="390.320312"/>
      <use xlink:href="#DejaVuSans-74" x="453.699219"/>
     </g>
    </g>
   </g>
   <g id="matplotlib.axis_2">
    <g id="ytick_1">
     <g id="line2d_19">
      <path d="M 57.6 295.488 
L 414.72 295.488 
" clip-path="url(#p22785b1ad2)" style="fill: none; stroke: #b0b0b0; stroke-width: 0.8; stroke-linecap: square"/>
     </g>
     <g id="line2d_20">
      <defs>
       <path id="mbad8b53621" d="M 0 0 
L -3.5 0 
" style="stroke: #000000; stroke-width: 0.8"/>
      </defs>
      <g>
       <use xlink:href="#mbad8b53621" x="57.6" y="295.488" style="stroke: #000000; stroke-width: 0.8"/>
      </g>
     </g>
     <g id="text_11">
      <!-- 0.0000 -->
      <g transform="translate(15.609375 299.287219) scale(0.1 -0.1)">
       <defs>
        <path id="DejaVuSans-2e" d="M 684 794 
L 1344 794 
L 1344 0 
L 684 0 
L 684 794 
z
" transform="scale(0.015625)"/>
       </defs>
       <use xlink:href="#DejaVuSans-30"/>
       <use xlink:href="#DejaVuSans-2e" x="63.623047"/>
       <use xlink:href="#DejaVuSans-30" x="95.410156"/>
       <use xlink:href="#DejaVuSans-30" x="159.033203"/>
       <use xlink:href="#DejaVuSans-30" x="222.65625"/>
       <use xlink:href="#DejaVuSans-30" x="286.279297"/>
      </g>
     </g>
    </g>
    <g id="ytick_2">
     <g id="line2d_21">
      <path d="M 57.6 247.174285 
L 414.72 247.174285 
" clip-path="url(#p22785b1ad2)" style="fill: none; stroke: #b0b0b0; stroke-width: 0.8; stroke-linecap: square"/>
     </g>
     <g id="line2d_22">
      <g>
       <use xlink:href="#mbad8b53621" x="57.6" y="247.174285" style="stroke: #000000; stroke-width: 0.8"/>
      </g>
     </g>
     <g id="text_12">
      <!-- 0.0005 -->
      <g transform="translate(15.609375 250.973504) scale(0.1 -0.1)">
       <use xlink:href="#DejaVuSans-30"/>
       <use xlink:href="#DejaVuSans-2e" x="63.623047"/>
       <use xlink:href="#DejaVuSans-30" x="95.410156"/>
       <use xlink:href="#DejaVuSans-30" x="159.033203"/>
       <use xlink:href="#DejaVuSans-30" x="222.65625"/>
       <use xlink:href="#DejaVuSans-35" x="286.279297"/>
      </g>
     </g>
    </g>
    <g id="ytick_3">
     <g id="line2d_23">
      <path d="M 57.6 198.86057 
L 414.72 198.86057 
" clip-path="url(#p22785b1ad2)" style="fill: none; stroke: #b0b0b0; stroke-width: 0.8; stroke-linecap: square"/>
     </g>
     <g id="line2d_24">
      <g>
       <use xlink:href="#mbad8b53621" x="57.6" y="198.86057" style="stroke: #000000; stroke-width: 0.8"/>
      </g>
     </g>
     <g id="text_13">
      <!-- 0.0010 -->
      <g transform="translate(15.609375 202.659788) scale(0.1 -0.1)">
       <use xlink:href="#DejaVuSans-30"/>
       <use xlink:href="#DejaVuSans-2e" x="63.623047"/>
       <use xlink:href="#DejaVuSans-30" x="95.410156"/>
       <use xlink:href="#DejaVuSans-30" x="159.033203"/>
       <use xlink:href="#DejaVuSans-31" x="222.65625"/>
       <use xlink:href="#DejaVuSans-30" x="286.279297"/>
      </g>
     </g>
    </g>
    <g id="ytick_4">
     <g id="line2d_25">
      <path d="M 57.6 150.546854 
L 414.72 150.546854 
" clip-path="url(#p22785b1ad2)" style="fill: none; stroke: #b0b0b0; stroke-width: 0.8; stroke-linecap: square"/>
     </g>
     <g id="line2d_26">
      <g>
       <use xlink:href="#mbad8b53621" x="57.6" y="150.546854" style="stroke: #000000; stroke-width: 0.8"/>
      </g>
     </g>
     <g id="text_14">
      <!-- 0.0015 -->
      <g transform="translate(15.609375 154.346073) scale(0.1 -0.1)">
       <use xlink:href="#DejaVuSans-30"/>
       <use xlink:href="#DejaVuSans-2e" x="63.623047"/>
       <use xlink:href="#DejaVuSans-30" x="95.410156"/>
       <use xlink:href="#DejaVuSans-30" x="159.033203"/>
       <use xlink:href="#DejaVuSans-31" x="222.65625"/>
       <use xlink:href="#DejaVuSans-35" x="286.279297"/>
      </g>
     </g>
    </g>
    <g id="ytick_5">
     <g id="line2d_27">
      <path d="M 57.6 102.233139 
L 414.72 102.233139 
" clip-path="url(#p22785b1ad2)" style="fill: none; stroke: #b0b0b0; stroke-width: 0.8; stroke-linecap: square"/>
     </g>
     <g id="line2d_28">
      <g>
       <use xlink:href="#mbad8b53621" x="57.6" y="102.233139" style="stroke: #000000; stroke-width: 0.8"/>
      </g>
     </g>
     <g id="text_15">
      <!-- 0.0020 -->
      <g transform="translate(15.609375 106.032358) scale(0.1 -0.1)">
       <use xlink:href="#DejaVuSans-30"/>
       <use xlink:href="#DejaVuSans-2e" x="63.623047"/>
       <use xlink:href="#DejaVuSans-30" x="95.410156"/>
       <use xlink:href="#DejaVuSans-30" x="159.033203"/>
       <use xlink:href="#DejaVuSans-32" x="222.65625"/>
       <use xlink:href="#DejaVuSans-30" x="286.279297"/>
      </g>
     </g>
    </g>
    <g id="ytick_6">
     <g id="line2d_29">
      <path d="M 57.6 53.919424 
L 414.72 53.919424 
" clip-path="url(#p22785b1ad2)" style="fill: none; stroke: #b0b0b0; stroke-width: 0.8; stroke-linecap: square"/>
     </g>
     <g id="line2d_30">
      <g>
       <use xlink:href="#mbad8b53621" x="57.6" y="53.919424" style="stroke: #000000; stroke-width: 0.8"/>
      </g>
     </g>
     <g id="text_16">
      <!-- 0.0025 -->
      <g transform="translate(15.609375 57.718643) scale(0.1 -0.1)">
       <use xlink:href="#DejaVuSans-30"/>
       <use xlink:href="#DejaVuSans-2e" x="63.623047"/>
       <use xlink:href="#DejaVuSans-30" x="95.410156"/>
       <use xlink:href="#DejaVuSans-30" x="159.033203"/>
       <use xlink:href="#DejaVuSans-32" x="222.65625"/>
       <use xlink:href="#DejaVuSans-35" x="286.279297"/>
      </g>
     </g>
    </g>
    <g id="text_17">
     <!-- ioChannelLoadMean -->
     <g transform="translate(9.529687 225.123312) rotate(-90) scale(0.1 -0.1)">
      <defs>
       <path id="DejaVuSans-43" d="M 4122 4306 
L 4122 3641 
Q 3803 3938 3442 4084 
Q 3081 4231 2675 4231 
Q 1875 4231 1450 3742 
Q 1025 3253 1025 2328 
Q 1025 1406 1450 917 
Q 1875 428 2675 428 
Q 3081 428 3442 575 
Q 3803 722 4122 1019 
L 4122 359 
Q 3791 134 3420 21 
Q 3050 -91 2638 -91 
Q 1578 -91 968 557 
Q 359 1206 359 2328 
Q 359 3453 968 4101 
Q 1578 4750 2638 4750 
Q 3056 4750 3426 4639 
Q 3797 4528 4122 4306 
z
" transform="scale(0.015625)"/>
       <path id="DejaVuSans-68" d="M 3513 2113 
L 3513 0 
L 2938 0 
L 2938 2094 
Q 2938 2591 2744 2837 
Q 2550 3084 2163 3084 
Q 1697 3084 1428 2787 
Q 1159 2491 1159 1978 
L 1159 0 
L 581 0 
L 581 4863 
L 1159 4863 
L 1159 2956 
Q 1366 3272 1645 3428 
Q 1925 3584 2291 3584 
Q 2894 3584 3203 3211 
Q 3513 2838 3513 2113 
z
" transform="scale(0.015625)"/>
       <path id="DejaVuSans-61" d="M 2194 1759 
Q 1497 1759 1228 1600 
Q 959 1441 959 1056 
Q 959 750 1161 570 
Q 1363 391 1709 391 
Q 2188 391 2477 730 
Q 2766 1069 2766 1631 
L 2766 1759 
L 2194 1759 
z
M 3341 1997 
L 3341 0 
L 2766 0 
L 2766 531 
Q 2569 213 2275 61 
Q 1981 -91 1556 -91 
Q 1019 -91 701 211 
Q 384 513 384 1019 
Q 384 1609 779 1909 
Q 1175 2209 1959 2209 
L 2766 2209 
L 2766 2266 
Q 2766 2663 2505 2880 
Q 2244 3097 1772 3097 
Q 1472 3097 1187 3025 
Q 903 2953 641 2809 
L 641 3341 
Q 956 3463 1253 3523 
Q 1550 3584 1831 3584 
Q 2591 3584 2966 3190 
Q 3341 2797 3341 1997 
z
" transform="scale(0.015625)"/>
       <path id="DejaVuSans-6c" d="M 603 4863 
L 1178 4863 
L 1178 0 
L 603 0 
L 603 4863 
z
" transform="scale(0.015625)"/>
       <path id="DejaVuSans-4c" d="M 628 4666 
L 1259 4666 
L 1259 531 
L 3531 531 
L 3531 0 
L 628 0 
L 628 4666 
z
" transform="scale(0.015625)"/>
       <path id="DejaVuSans-64" d="M 2906 2969 
L 2906 4863 
L 3481 4863 
L 3481 0 
L 2906 0 
L 2906 525 
Q 2725 213 2448 61 
Q 2172 -91 1784 -91 
Q 1150 -91 751 415 
Q 353 922 353 1747 
Q 353 2572 751 3078 
Q 1150 3584 1784 3584 
Q 2172 3584 2448 3432 
Q 2725 3281 2906 2969 
z
M 947 1747 
Q 947 1113 1208 752 
Q 1469 391 1925 391 
Q 2381 391 2643 752 
Q 2906 1113 2906 1747 
Q 2906 2381 2643 2742 
Q 2381 3103 1925 3103 
Q 1469 3103 1208 2742 
Q 947 2381 947 1747 
z
" transform="scale(0.015625)"/>
       <path id="DejaVuSans-4d" d="M 628 4666 
L 1569 4666 
L 2759 1491 
L 3956 4666 
L 4897 4666 
L 4897 0 
L 4281 0 
L 4281 4097 
L 3078 897 
L 2444 897 
L 1241 4097 
L 1241 0 
L 628 0 
L 628 4666 
z
" transform="scale(0.015625)"/>
      </defs>
      <use xlink:href="#DejaVuSans-69"/>
      <use xlink:href="#DejaVuSans-6f" x="27.783203"/>
      <use xlink:href="#DejaVuSans-43" x="88.964844"/>
      <use xlink:href="#DejaVuSans-68" x="158.789062"/>
      <use xlink:href="#DejaVuSans-61" x="222.167969"/>
      <use xlink:href="#DejaVuSans-6e" x="283.447266"/>
      <use xlink:href="#DejaVuSans-6e" x="346.826172"/>
      <use xlink:href="#DejaVuSans-65" x="410.205078"/>
      <use xlink:href="#DejaVuSans-6c" x="471.728516"/>
      <use xlink:href="#DejaVuSans-4c" x="499.511719"/>
      <use xlink:href="#DejaVuSans-6f" x="553.474609"/>
      <use xlink:href="#DejaVuSans-61" x="614.65625"/>
      <use xlink:href="#DejaVuSans-64" x="675.935547"/>
      <use xlink:href="#DejaVuSans-4d" x="739.412109"/>
      <use xlink:href="#DejaVuSans-65" x="825.691406"/>
      <use xlink:href="#DejaVuSans-61" x="887.214844"/>
      <use xlink:href="#DejaVuSans-6e" x="948.494141"/>
     </g>
    </g>
   </g>
   <g id="line2d_31">
    <path d="M 73.832727 295.488 
L 73.8383 295.488 
L 73.8383 295.488 
L 73.956464 137.429478 
L 74.082318 112.632527 
L 74.19837 100.664179 
L 74.200804 100.57772 
L 74.200804 100.57772 
L 74.311628 96.364221 
L 74.34487 96.093528 
L 74.34487 96.093528 
L 74.454847 94.711708 
L 74.461637 94.603554 
L 74.574471 91.738278 
L 74.579944 91.636389 
L 74.690428 89.698619 
L 74.702802 89.577815 
L 74.702802 89.577815 
L 74.81359 88.685961 
L 74.832253 88.580653 
L 74.943874 87.849522 
L 74.959657 87.742774 
L 75.071766 86.983802 
L 75.089577 86.874586 
L 75.201552 85.911806 
L 75.216452 85.803764 
L 75.32695 84.875142 
L 75.444637 84.058944 
L 75.620763 82.558924 
L 75.634297 82.455755 
L 75.762393 81.286204 
L 75.776768 81.175643 
L 75.889173 80.116082 
L 75.901995 80.006318 
L 75.901995 80.005241 
L 76.030639 78.779396 
L 76.110991 78.122147 
L 76.110991 78.122147 
L 76.221959 77.209859 
L 76.235577 77.101903 
L 76.235577 77.099554 
L 76.391817 75.982349 
L 76.452959 75.594251 
L 76.879376 73.106861 
L 76.900308 73.002363 
L 76.900308 72.99634 
L 77.171855 71.808355 
L 77.198991 71.702171 
L 77.309849 71.264921 
L 77.342134 71.154384 
L 77.458714 70.743193 
L 77.494226 70.627174 
L 77.605214 70.294927 
L 77.774512 69.822196 
L 77.820825 69.711674 
L 77.94529 69.428483 
L 77.94529 69.428483 
L 78.056078 69.1872 
L 78.122227 69.078179 
L 78.122227 69.078179 
L 78.23326 68.912432 
L 78.32844 68.781711 
L 78.439582 68.625302 
L 78.653102 68.314103 
L 78.752843 68.204065 
L 79.531262 67.209948 
L 79.627977 67.09894 
L 79.738931 66.981458 
L 80.450812 66.313637 
L 80.578645 66.165887 
L 80.673269 66.056179 
L 80.784225 65.922707 
L 80.877891 65.808012 
L 81.059053 65.583323 
L 81.160182 65.472881 
L 81.160182 65.472344 
L 81.68153 65.002611 
L 81.880104 64.81543 
L 82.00297 64.705393 
L 82.114344 64.612343 
L 82.63452 64.253179 
L 82.808854 64.143253 
L 82.91993 64.070586 
L 83.100805 63.960242 
L 83.100805 63.960126 
L 83.240892 63.877902 
L 83.432069 63.767628 
L 83.541593 63.697018 
L 83.886988 63.484358 
L 83.998773 63.423462 
L 84.210312 63.312455 
L 84.210312 63.312455 
L 84.319883 63.254047 
L 84.57352 63.128885 
L 84.57352 63.128885 
L 84.684289 63.077396 
L 85.281673 62.787594 
L 85.281673 62.787594 
L 85.392769 62.733323 
L 85.733754 62.558245 
L 85.878736 62.490196 
L 86.114388 62.37915 
L 86.712261 62.103103 
L 86.953395 61.992072 
L 87.064281 61.942042 
L 87.321424 61.831634 
L 87.457689 61.774724 
L 87.96332 61.564958 
L 87.96332 61.564958 
L 88.074368 61.517173 
L 88.354935 61.406599 
L 88.354935 61.406381 
L 88.712788 61.273505 
L 88.990167 61.162597 
L 89.102376 61.115417 
L 89.369074 61.004308 
L 89.369074 61.004308 
L 89.478552 60.960424 
L 89.877178 60.81573 
L 90.044367 60.761655 
L 90.440029 60.650572 
L 90.440029 60.650572 
L 90.550679 60.618662 
L 91.179287 60.434145 
L 91.291022 60.402898 
L 91.711052 60.291842 
L 91.711052 60.291842 
L 91.821897 60.264709 
L 92.490629 60.104353 
L 93.299424 59.955117 
L 104.451017 58.902953 
L 106.048212 58.791904 
L 106.241232 58.778936 
L 107.891027 58.667849 
L 107.891027 58.667849 
L 108.00194 58.660603 
L 117.88349 58.205168 
L 117.88349 58.205168 
L 117.993708 58.19794 
L 119.715354 58.086901 
L 119.715354 58.086901 
L 119.826246 58.079017 
L 121.602931 57.967918 
L 137.089246 57.365291 
L 140.718073 57.254199 
L 140.718073 57.254184 
L 149.403396 57.060072 
L 149.403396 57.060072 
L 149.514282 57.057058 
L 159.220626 56.807983 
L 163.948577 56.696876 
L 164.074128 56.693815 
L 175.871557 56.441857 
L 177.027294 56.423849 
L 185.054484 56.31275 
L 185.171125 56.311276 
L 207.008634 56.200166 
L 207.17731 56.199403 
L 240.385014 56.088295 
L 240.385014 56.088295 
L 240.495397 56.087846 
L 277.377818 55.947182 
L 398.487273 55.47652 
L 398.487273 55.47652 
" clip-path="url(#p22785b1ad2)" style="fill: none; stroke: #1f77b4; stroke-width: 1.5; stroke-linecap: square"/>
   </g>
   <g id="line2d_32">
    <path d="M 73.832727 295.488 
L 73.842081 295.448746 
L 73.957001 90.277079 
L 73.958531 90.277079 
L 73.958531 90.277079 
L 73.972735 89.29313 
L 74.021038 91.612914 
L 74.069319 89.4698 
L 74.219462 78.68539 
L 74.552558 66.243224 
L 74.673045 64.788112 
L 74.784312 63.592932 
L 74.795861 63.485535 
L 74.930386 62.433834 
L 74.945457 62.32537 
L 75.238076 60.100131 
L 75.264548 59.994507 
L 75.390665 59.554642 
L 75.43084 59.444007 
L 75.43084 59.443675 
L 75.600091 59.03774 
L 76.024958 58.379643 
L 76.045456 58.392181 
L 76.155631 58.500992 
L 76.155631 58.501535 
L 76.309494 58.728772 
L 76.403087 58.852337 
L 76.563073 58.961464 
L 77.357789 58.850748 
L 77.588513 58.68397 
L 77.738728 58.573049 
L 77.738728 58.573049 
L 77.849285 58.50028 
L 78.046972 58.346381 
L 78.63721 58.036571 
L 79.149353 57.925697 
L 79.149353 57.925648 
L 79.290426 57.902894 
L 80.77222 58.013842 
L 80.77222 58.013937 
L 81.495618 58.014596 
L 81.495625 58.014516 
L 84.799606 57.473506 
L 88.480778 56.852978 
L 89.494066 56.74187 
L 89.494066 56.74187 
L 89.604855 56.732142 
L 91.065801 56.585068 
L 91.065801 56.585068 
L 91.175372 56.574737 
L 92.353056 56.463626 
L 92.353056 56.463626 
L 92.464016 56.45387 
L 93.591208 56.342945 
L 93.591208 56.342945 
L 93.702145 56.331968 
L 104.487023 55.988306 
L 110.635576 55.852939 
L 110.635576 55.852939 
L 110.746147 55.851082 
L 118.960938 55.739179 
L 181.955684 55.16556 
L 271.523045 55.05445 
L 271.523045 55.05445 
L 271.633428 55.054096 
L 301.983904 54.94299 
L 301.983904 54.942987 
L 354.900263 54.894853 
L 398.486542 54.878745 
L 398.486542 54.878745 
" clip-path="url(#p22785b1ad2)" style="fill: none; stroke: #ff7f0e; stroke-width: 1.5; stroke-linecap: square"/>
   </g>
   <g id="line2d_33">
    <path d="M 73.832727 295.488 
L 73.841843 295.397623 
L 73.953098 119.257554 
L 73.953716 119.234771 
L 74.065261 96.288714 
L 74.335126 83.58142 
L 75.357428 71.583725 
L 75.375888 71.480058 
L 75.487379 70.761752 
L 75.572064 70.217614 
L 75.572064 70.217614 
L 75.682806 69.598926 
L 75.703955 69.491908 
L 75.703955 69.491188 
L 75.825064 68.925635 
L 75.851432 68.816594 
L 75.963081 68.400094 
L 76.251588 67.462787 
L 76.290804 67.348947 
L 76.401963 66.998881 
L 76.440036 66.888448 
L 76.582368 66.435798 
L 76.618034 66.325181 
L 76.729864 65.994564 
L 76.991351 65.339331 
L 77.291862 64.553027 
L 77.334533 64.444125 
L 77.334533 64.442922 
L 77.499432 64.034941 
L 77.624867 63.769023 
L 77.735899 63.542841 
L 77.791485 63.431839 
L 77.791485 63.431839 
L 77.901461 63.208523 
L 77.962034 63.097841 
L 78.073911 62.920986 
L 78.216753 62.706301 
L 78.550334 62.22524 
L 78.736967 61.970845 
L 78.825104 61.860223 
L 78.825104 61.860223 
L 78.936074 61.730859 
L 79.043028 61.620469 
L 79.043028 61.620126 
L 80.61598 60.118922 
L 80.744218 60.008145 
L 80.744218 60.008145 
L 80.854914 59.905133 
L 81.076989 59.719947 
L 81.076989 59.719947 
L 81.187999 59.628621 
L 81.90613 59.134705 
L 82.083825 59.02369 
L 82.083825 59.02369 
L 82.193392 58.957917 
L 82.372399 58.847323 
L 82.483361 58.783049 
L 82.834074 58.600803 
L 82.971755 58.536234 
L 83.247711 58.425537 
L 83.247711 58.425537 
L 83.35867 58.387436 
L 83.740781 58.276407 
L 83.740781 58.276407 
L 83.851455 58.249619 
L 84.589347 58.073315 
L 84.589347 58.073315 
L 84.700168 58.047351 
L 85.812748 57.810978 
L 88.287163 57.382605 
L 88.287163 57.382605 
L 88.398122 57.36275 
L 88.996861 57.251707 
L 89.1104 57.230361 
L 89.709962 57.119372 
L 89.709962 57.119372 
L 89.820818 57.097685 
L 90.379562 56.986923 
L 90.379562 56.986923 
L 90.489913 56.963474 
L 91.054844 56.852559 
L 91.054844 56.852559 
L 91.165632 56.828857 
L 91.950618 56.664045 
L 92.224211 56.607237 
L 92.830704 56.496318 
L 92.830704 56.496213 
L 99.325661 55.49487 
L 100.279929 55.383797 
L 102.116799 55.1868 
L 103.196927 55.075949 
L 103.196927 55.075949 
L 103.306946 55.065545 
L 104.593753 54.954557 
L 104.593753 54.954487 
L 109.908879 54.624504 
L 112.785195 54.499091 
L 112.785195 54.499091 
L 112.896239 54.494301 
L 122.778236 54.11176 
L 127.199793 54.00068 
L 127.310893 53.997759 
L 131.381818 53.886652 
L 131.381818 53.886652 
L 131.492224 53.883812 
L 136.548696 53.772704 
L 136.548696 53.772704 
L 136.659546 53.770637 
L 144.366489 53.629274 
L 218.959027 53.740385 
L 218.959027 53.740385 
L 219.069355 53.740733 
L 398.486542 53.778673 
L 398.486542 53.778673 
" clip-path="url(#p22785b1ad2)" style="fill: none; stroke: #2ca02c; stroke-width: 1.5; stroke-linecap: square"/>
   </g>
   <g id="line2d_34">
    <path d="M 73.832727 295.488 
L 73.837553 295.423896 
L 73.950009 88.242435 
L 73.950781 88.161838 
L 74.061725 68.813156 
L 74.062468 68.780877 
L 74.187181 63.171504 
L 74.21866 62.04398 
L 74.21866 62.04398 
L 74.329472 59.265001 
L 74.337509 59.157907 
L 74.466647 57.015093 
L 74.804662 54.373962 
L 74.876399 54.472278 
L 74.930253 54.680595 
L 75.30141 55.862378 
L 75.347647 55.994792 
L 75.514844 56.407454 
L 75.700863 56.560851 
L 75.82181 56.696498 
L 75.900371 56.806614 
L 75.900371 56.806614 
L 76.010754 56.963345 
L 77.317841 58.420674 
L 77.464967 58.531779 
L 77.587595 58.609488 
L 77.736649 58.720111 
L 77.846792 58.780243 
L 78.330873 58.890983 
L 78.442492 58.937646 
L 79.741847 58.826993 
L 79.741847 58.826915 
L 79.873172 58.768193 
L 80.216868 58.657841 
L 80.326226 58.628199 
L 81.171996 58.412987 
L 81.284331 58.383774 
L 84.575641 57.571875 
L 85.075923 57.46084 
L 85.075923 57.46084 
L 85.18486 57.43514 
L 85.778394 57.322502 
L 85.920836 57.297059 
L 87.130581 57.186025 
L 87.130581 57.186025 
L 87.240485 57.172085 
L 89.251387 57.061041 
L 89.251387 57.061041 
L 89.36177 57.052243 
L 93.002365 56.983118 
L 96.882394 56.872082 
L 96.882394 56.872062 
L 97.47067 56.847125 
L 100.063052 56.736032 
L 100.18332 56.727029 
L 102.065996 56.610197 
L 102.18501 56.603581 
L 105.393621 56.492499 
L 105.393621 56.492499 
L 105.504606 56.489737 
L 109.103617 56.378628 
L 117.534081 56.193968 
L 117.534081 56.193968 
L 117.643652 56.192084 
L 123.095102 56.077324 
L 123.214103 56.074621 
L 129.048129 55.959718 
L 129.27024 55.956256 
L 138.898384 55.807889 
L 138.898384 55.807889 
L 139.008767 55.8061 
L 169.945106 55.625424 
L 169.945106 55.625424 
L 170.055301 55.625066 
L 212.932219 55.513956 
L 212.932219 55.513956 
L 213.043274 55.513637 
L 251.216226 55.402528 
L 369.452123 55.063222 
L 398.487198 54.988952 
L 398.487198 54.988952 
" clip-path="url(#p22785b1ad2)" style="fill: none; stroke: #d62728; stroke-width: 1.5; stroke-linecap: square"/>
   </g>
   <g id="line2d_35">
    <path d="M 73.832727 295.488 
L 73.838601 295.387924 
L 73.945545 60.94976 
L 73.949755 61.013868 
L 73.952849 61.113683 
L 73.952849 61.113683 
L 73.971363 61.615563 
L 74.063725 59.619975 
L 74.250314 56.544018 
L 74.369219 55.821296 
L 74.390322 55.710204 
L 74.390322 55.710204 
L 74.449571 55.464195 
L 74.500665 55.581544 
L 74.540474 55.690009 
L 74.540474 55.691491 
L 74.9874 58.226701 
L 75.03529 58.452639 
L 75.443384 59.604433 
L 75.710043 59.714758 
L 75.710043 59.715242 
L 75.860462 59.875733 
L 75.998244 60.039228 
L 76.075279 60.148035 
L 76.075279 60.150228 
L 76.28387 60.34613 
L 76.28387 60.34613 
L 76.394658 60.391602 
L 77.286764 60.468694 
L 77.515643 60.297271 
L 77.667508 60.186845 
L 77.778929 60.094468 
L 80.157906 58.673355 
L 80.393591 58.562245 
L 80.393591 58.562245 
L 80.504119 58.516135 
L 80.786829 58.405231 
L 80.786829 58.405213 
L 80.905587 58.365328 
L 81.282739 58.239824 
L 81.282739 58.239824 
L 81.393822 58.204925 
L 81.729763 58.093854 
L 81.842363 58.061763 
L 82.244934 57.95089 
L 82.244934 57.95089 
L 82.355723 57.919351 
L 82.875904 57.791547 
L 82.988128 57.766563 
L 83.62651 57.655618 
L 83.738346 57.637587 
L 84.992806 57.405143 
L 85.29103 57.354886 
L 85.977651 57.243911 
L 85.977651 57.24385 
L 86.652581 57.142069 
L 87.365144 57.031022 
L 87.365144 57.031022 
L 87.476219 57.015356 
L 88.171905 56.90427 
L 89.407379 56.685394 
L 89.519036 56.666706 
L 90.155144 56.55585 
L 90.155144 56.55572 
L 92.029406 56.292433 
L 93.117096 56.181386 
L 93.229919 56.171048 
L 95.259777 56.020435 
L 95.37275 56.013663 
L 97.245707 55.883342 
L 97.371936 55.872914 
L 100.487234 55.660075 
L 104.577248 55.548984 
L 105.77439 55.519458 
L 111.504838 55.372757 
L 112.267856 55.352202 
L 116.250072 55.241096 
L 116.250072 55.241096 
L 116.360145 55.23843 
L 123.504885 55.12733 
L 123.504885 55.12733 
L 123.615559 55.12586 
L 138.081382 55.01475 
L 169.758408 54.811807 
L 185.94243 54.700696 
L 186.07273 54.699611 
L 231.119625 54.518636 
L 398.485022 54.468506 
L 398.485022 54.468506 
" clip-path="url(#p22785b1ad2)" style="fill: none; stroke: #9467bd; stroke-width: 1.5; stroke-linecap: square"/>
   </g>
   <g id="patch_3">
    <path d="M 57.6 307.584 
L 57.6 41.472 
" style="fill: none; stroke: #000000; stroke-width: 0.8; stroke-linejoin: miter; stroke-linecap: square"/>
   </g>
   <g id="patch_4">
    <path d="M 414.72 307.584 
L 414.72 41.472 
" style="fill: none; stroke: #000000; stroke-width: 0.8; stroke-linejoin: miter; stroke-linecap: square"/>
   </g>
   <g id="patch_5">
    <path d="M 57.6 307.584 
L 414.72 307.584 
" style="fill: none; stroke: #000000; stroke-width: 0.8; stroke-linejoin: miter; stroke-linecap: square"/>
   </g>
   <g id="patch_6">
    <path d="M 57.6 41.472 
L 414.72 41.472 
" style="fill: none; stroke: #000000; stroke-width: 0.8; stroke-linejoin: miter; stroke-linecap: square"/>
   </g>
   <g id="text_18">
    <!-- ioChannelLoadMean vs. TimePoint for Each Run -->
    <g transform="translate(93.430313 35.472) scale(0.12 -0.12)">
     <defs>
      <path id="DejaVuSans-20" transform="scale(0.015625)"/>
      <path id="DejaVuSans-76" d="M 191 3500 
L 800 3500 
L 1894 563 
L 2988 3500 
L 3597 3500 
L 2284 0 
L 1503 0 
L 191 3500 
z
" transform="scale(0.015625)"/>
      <path id="DejaVuSans-73" d="M 2834 3397 
L 2834 2853 
Q 2591 2978 2328 3040 
Q 2066 3103 1784 3103 
Q 1356 3103 1142 2972 
Q 928 2841 928 2578 
Q 928 2378 1081 2264 
Q 1234 2150 1697 2047 
L 1894 2003 
Q 2506 1872 2764 1633 
Q 3022 1394 3022 966 
Q 3022 478 2636 193 
Q 2250 -91 1575 -91 
Q 1294 -91 989 -36 
Q 684 19 347 128 
L 347 722 
Q 666 556 975 473 
Q 1284 391 1588 391 
Q 1994 391 2212 530 
Q 2431 669 2431 922 
Q 2431 1156 2273 1281 
Q 2116 1406 1581 1522 
L 1381 1569 
Q 847 1681 609 1914 
Q 372 2147 372 2553 
Q 372 3047 722 3315 
Q 1072 3584 1716 3584 
Q 2034 3584 2315 3537 
Q 2597 3491 2834 3397 
z
" transform="scale(0.015625)"/>
      <path id="DejaVuSans-66" d="M 2375 4863 
L 2375 4384 
L 1825 4384 
Q 1516 4384 1395 4259 
Q 1275 4134 1275 3809 
L 1275 3500 
L 2222 3500 
L 2222 3053 
L 1275 3053 
L 1275 0 
L 697 0 
L 697 3053 
L 147 3053 
L 147 3500 
L 697 3500 
L 697 3744 
Q 697 4328 969 4595 
Q 1241 4863 1831 4863 
L 2375 4863 
z
" transform="scale(0.015625)"/>
      <path id="DejaVuSans-72" d="M 2631 2963 
Q 2534 3019 2420 3045 
Q 2306 3072 2169 3072 
Q 1681 3072 1420 2755 
Q 1159 2438 1159 1844 
L 1159 0 
L 581 0 
L 581 3500 
L 1159 3500 
L 1159 2956 
Q 1341 3275 1631 3429 
Q 1922 3584 2338 3584 
Q 2397 3584 2469 3576 
Q 2541 3569 2628 3553 
L 2631 2963 
z
" transform="scale(0.015625)"/>
      <path id="DejaVuSans-45" d="M 628 4666 
L 3578 4666 
L 3578 4134 
L 1259 4134 
L 1259 2753 
L 3481 2753 
L 3481 2222 
L 1259 2222 
L 1259 531 
L 3634 531 
L 3634 0 
L 628 0 
L 628 4666 
z
" transform="scale(0.015625)"/>
      <path id="DejaVuSans-63" d="M 3122 3366 
L 3122 2828 
Q 2878 2963 2633 3030 
Q 2388 3097 2138 3097 
Q 1578 3097 1268 2742 
Q 959 2388 959 1747 
Q 959 1106 1268 751 
Q 1578 397 2138 397 
Q 2388 397 2633 464 
Q 2878 531 3122 666 
L 3122 134 
Q 2881 22 2623 -34 
Q 2366 -91 2075 -91 
Q 1284 -91 818 406 
Q 353 903 353 1747 
Q 353 2603 823 3093 
Q 1294 3584 2113 3584 
Q 2378 3584 2631 3529 
Q 2884 3475 3122 3366 
z
" transform="scale(0.015625)"/>
      <path id="DejaVuSans-52" d="M 2841 2188 
Q 3044 2119 3236 1894 
Q 3428 1669 3622 1275 
L 4263 0 
L 3584 0 
L 2988 1197 
Q 2756 1666 2539 1819 
Q 2322 1972 1947 1972 
L 1259 1972 
L 1259 0 
L 628 0 
L 628 4666 
L 2053 4666 
Q 2853 4666 3247 4331 
Q 3641 3997 3641 3322 
Q 3641 2881 3436 2590 
Q 3231 2300 2841 2188 
z
M 1259 4147 
L 1259 2491 
L 2053 2491 
Q 2509 2491 2742 2702 
Q 2975 2913 2975 3322 
Q 2975 3731 2742 3939 
Q 2509 4147 2053 4147 
L 1259 4147 
z
" transform="scale(0.015625)"/>
      <path id="DejaVuSans-75" d="M 544 1381 
L 544 3500 
L 1119 3500 
L 1119 1403 
Q 1119 906 1312 657 
Q 1506 409 1894 409 
Q 2359 409 2629 706 
Q 2900 1003 2900 1516 
L 2900 3500 
L 3475 3500 
L 3475 0 
L 2900 0 
L 2900 538 
Q 2691 219 2414 64 
Q 2138 -91 1772 -91 
Q 1169 -91 856 284 
Q 544 659 544 1381 
z
M 1991 3584 
L 1991 3584 
z
" transform="scale(0.015625)"/>
     </defs>
     <use xlink:href="#DejaVuSans-69"/>
     <use xlink:href="#DejaVuSans-6f" x="27.783203"/>
     <use xlink:href="#DejaVuSans-43" x="88.964844"/>
     <use xlink:href="#DejaVuSans-68" x="158.789062"/>
     <use xlink:href="#DejaVuSans-61" x="222.167969"/>
     <use xlink:href="#DejaVuSans-6e" x="283.447266"/>
     <use xlink:href="#DejaVuSans-6e" x="346.826172"/>
     <use xlink:href="#DejaVuSans-65" x="410.205078"/>
     <use xlink:href="#DejaVuSans-6c" x="471.728516"/>
     <use xlink:href="#DejaVuSans-4c" x="499.511719"/>
     <use xlink:href="#DejaVuSans-6f" x="553.474609"/>
     <use xlink:href="#DejaVuSans-61" x="614.65625"/>
     <use xlink:href="#DejaVuSans-64" x="675.935547"/>
     <use xlink:href="#DejaVuSans-4d" x="739.412109"/>
     <use xlink:href="#DejaVuSans-65" x="825.691406"/>
     <use xlink:href="#DejaVuSans-61" x="887.214844"/>
     <use xlink:href="#DejaVuSans-6e" x="948.494141"/>
     <use xlink:href="#DejaVuSans-20" x="1011.873047"/>
     <use xlink:href="#DejaVuSans-76" x="1043.660156"/>
     <use xlink:href="#DejaVuSans-73" x="1102.839844"/>
     <use xlink:href="#DejaVuSans-2e" x="1154.939453"/>
     <use xlink:href="#DejaVuSans-20" x="1186.726562"/>
     <use xlink:href="#DejaVuSans-54" x="1218.513672"/>
     <use xlink:href="#DejaVuSans-69" x="1276.472656"/>
     <use xlink:href="#DejaVuSans-6d" x="1304.255859"/>
     <use xlink:href="#DejaVuSans-65" x="1401.667969"/>
     <use xlink:href="#DejaVuSans-50" x="1463.191406"/>
     <use xlink:href="#DejaVuSans-6f" x="1519.869141"/>
     <use xlink:href="#DejaVuSans-69" x="1581.050781"/>
     <use xlink:href="#DejaVuSans-6e" x="1608.833984"/>
     <use xlink:href="#DejaVuSans-74" x="1672.212891"/>
     <use xlink:href="#DejaVuSans-20" x="1711.421875"/>
     <use xlink:href="#DejaVuSans-66" x="1743.208984"/>
     <use xlink:href="#DejaVuSans-6f" x="1778.414062"/>
     <use xlink:href="#DejaVuSans-72" x="1839.595703"/>
     <use xlink:href="#DejaVuSans-20" x="1880.708984"/>
     <use xlink:href="#DejaVuSans-45" x="1912.496094"/>
     <use xlink:href="#DejaVuSans-61" x="1975.679688"/>
     <use xlink:href="#DejaVuSans-63" x="2036.958984"/>
     <use xlink:href="#DejaVuSans-68" x="2091.939453"/>
     <use xlink:href="#DejaVuSans-20" x="2155.318359"/>
     <use xlink:href="#DejaVuSans-52" x="2187.105469"/>
     <use xlink:href="#DejaVuSans-75" x="2252.087891"/>
     <use xlink:href="#DejaVuSans-6e" x="2315.466797"/>
    </g>
   </g>
   <g id="legend_1">
    <g id="patch_7">
     <path d="M 341.196563 302.584 
L 407.72 302.584 
Q 409.72 302.584 409.72 300.584 
L 409.72 213.51525 
Q 409.72 211.51525 407.72 211.51525 
L 341.196563 211.51525 
Q 339.196563 211.51525 339.196563 213.51525 
L 339.196563 300.584 
Q 339.196563 302.584 341.196563 302.584 
z
" style="fill: #ffffff; opacity: 0.8; stroke: #cccccc; stroke-linejoin: miter"/>
    </g>
    <g id="text_19">
     <!-- Run Number -->
     <g transform="translate(343.196563 223.113687) scale(0.1 -0.1)">
      <defs>
       <path id="DejaVuSans-4e" d="M 628 4666 
L 1478 4666 
L 3547 763 
L 3547 4666 
L 4159 4666 
L 4159 0 
L 3309 0 
L 1241 3903 
L 1241 0 
L 628 0 
L 628 4666 
z
" transform="scale(0.015625)"/>
       <path id="DejaVuSans-62" d="M 3116 1747 
Q 3116 2381 2855 2742 
Q 2594 3103 2138 3103 
Q 1681 3103 1420 2742 
Q 1159 2381 1159 1747 
Q 1159 1113 1420 752 
Q 1681 391 2138 391 
Q 2594 391 2855 752 
Q 3116 1113 3116 1747 
z
M 1159 2969 
Q 1341 3281 1617 3432 
Q 1894 3584 2278 3584 
Q 2916 3584 3314 3078 
Q 3713 2572 3713 1747 
Q 3713 922 3314 415 
Q 2916 -91 2278 -91 
Q 1894 -91 1617 61 
Q 1341 213 1159 525 
L 1159 0 
L 581 0 
L 581 4863 
L 1159 4863 
L 1159 2969 
z
" transform="scale(0.015625)"/>
      </defs>
      <use xlink:href="#DejaVuSans-52"/>
      <use xlink:href="#DejaVuSans-75" x="64.982422"/>
      <use xlink:href="#DejaVuSans-6e" x="128.361328"/>
      <use xlink:href="#DejaVuSans-20" x="191.740234"/>
      <use xlink:href="#DejaVuSans-4e" x="223.527344"/>
      <use xlink:href="#DejaVuSans-75" x="298.332031"/>
      <use xlink:href="#DejaVuSans-6d" x="361.710938"/>
      <use xlink:href="#DejaVuSans-62" x="459.123047"/>
      <use xlink:href="#DejaVuSans-65" x="522.599609"/>
      <use xlink:href="#DejaVuSans-72" x="584.123047"/>
     </g>
    </g>
    <g id="line2d_36">
     <path d="M 346.10125 234.291812 
L 356.10125 234.291812 
L 366.10125 234.291812 
" style="fill: none; stroke: #1f77b4; stroke-width: 1.5; stroke-linecap: square"/>
    </g>
    <g id="text_20">
     <!-- Run 0 -->
     <g transform="translate(374.10125 237.791812) scale(0.1 -0.1)">
      <use xlink:href="#DejaVuSans-52"/>
      <use xlink:href="#DejaVuSans-75" x="64.982422"/>
      <use xlink:href="#DejaVuSans-6e" x="128.361328"/>
      <use xlink:href="#DejaVuSans-20" x="191.740234"/>
      <use xlink:href="#DejaVuSans-30" x="223.527344"/>
     </g>
    </g>
    <g id="line2d_37">
     <path d="M 346.10125 248.969937 
L 356.10125 248.969937 
L 366.10125 248.969937 
" style="fill: none; stroke: #ff7f0e; stroke-width: 1.5; stroke-linecap: square"/>
    </g>
    <g id="text_21">
     <!-- Run 1 -->
     <g transform="translate(374.10125 252.469937) scale(0.1 -0.1)">
      <use xlink:href="#DejaVuSans-52"/>
      <use xlink:href="#DejaVuSans-75" x="64.982422"/>
      <use xlink:href="#DejaVuSans-6e" x="128.361328"/>
      <use xlink:href="#DejaVuSans-20" x="191.740234"/>
      <use xlink:href="#DejaVuSans-31" x="223.527344"/>
     </g>
    </g>
    <g id="line2d_38">
     <path d="M 346.10125 263.648062 
L 356.10125 263.648062 
L 366.10125 263.648062 
" style="fill: none; stroke: #2ca02c; stroke-width: 1.5; stroke-linecap: square"/>
    </g>
    <g id="text_22">
     <!-- Run 2 -->
     <g transform="translate(374.10125 267.148062) scale(0.1 -0.1)">
      <use xlink:href="#DejaVuSans-52"/>
      <use xlink:href="#DejaVuSans-75" x="64.982422"/>
      <use xlink:href="#DejaVuSans-6e" x="128.361328"/>
      <use xlink:href="#DejaVuSans-20" x="191.740234"/>
      <use xlink:href="#DejaVuSans-32" x="223.527344"/>
     </g>
    </g>
    <g id="line2d_39">
     <path d="M 346.10125 278.326188 
L 356.10125 278.326188 
L 366.10125 278.326188 
" style="fill: none; stroke: #d62728; stroke-width: 1.5; stroke-linecap: square"/>
    </g>
    <g id="text_23">
     <!-- Run 3 -->
     <g transform="translate(374.10125 281.826188) scale(0.1 -0.1)">
      <use xlink:href="#DejaVuSans-52"/>
      <use xlink:href="#DejaVuSans-75" x="64.982422"/>
      <use xlink:href="#DejaVuSans-6e" x="128.361328"/>
      <use xlink:href="#DejaVuSans-20" x="191.740234"/>
      <use xlink:href="#DejaVuSans-33" x="223.527344"/>
     </g>
    </g>
    <g id="line2d_40">
     <path d="M 346.10125 293.004312 
L 356.10125 293.004312 
L 366.10125 293.004312 
" style="fill: none; stroke: #9467bd; stroke-width: 1.5; stroke-linecap: square"/>
    </g>
    <g id="text_24">
     <!-- Run 4 -->
     <g transform="translate(374.10125 296.504312) scale(0.1 -0.1)">
      <use xlink:href="#DejaVuSans-52"/>
      <use xlink:href="#DejaVuSans-75" x="64.982422"/>
      <use xlink:href="#DejaVuSans-6e" x="128.361328"/>
      <use xlink:href="#DejaVuSans-20" x="191.740234"/>
      <use xlink:href="#DejaVuSans-34" x="223.527344"/>
     </g>
    </g>
   </g>
  </g>
 </g>
 <defs>
  <clipPath id="p22785b1ad2">
   <rect x="57.6" y="41.472" width="357.12" height="266.112"/>
  </clipPath>
 </defs>
</svg>
