<?xml version="1.0" encoding="utf-8" standalone="no"?>
<!DOCTYPE svg PUBLIC "-//W3C//DTD SVG 1.1//EN"
  "http://www.w3.org/Graphics/SVG/1.1/DTD/svg11.dtd">
<svg xmlns:xlink="http://www.w3.org/1999/xlink" width="460.8pt" height="345.6pt" viewBox="0 0 460.8 345.6" xmlns="http://www.w3.org/2000/svg" version="1.1">
 <metadata>
  <rdf:RDF xmlns:dc="http://purl.org/dc/elements/1.1/" xmlns:cc="http://creativecommons.org/ns#" xmlns:rdf="http://www.w3.org/1999/02/22-rdf-syntax-ns#">
   <cc:Work>
    <dc:type rdf:resource="http://purl.org/dc/dcmitype/StillImage"/>
    <dc:date>2024-12-03T11:44:09.666235</dc:date>
    <dc:format>image/svg+xml</dc:format>
    <dc:creator>
     <cc:Agent>
      <dc:title>Matplotlib v3.9.2, https://matplotlib.org/</dc:title>
     </cc:Agent>
    </dc:creator>
   </cc:Work>
  </rdf:RDF>
 </metadata>
 <defs>
  <style type="text/css">*{stroke-linejoin: round; stroke-linecap: butt}</style>
 </defs>
 <g id="figure_1">
  <g id="patch_1">
   <path d="M 0 345.6 
L 460.8 345.6 
L 460.8 0 
L 0 0 
z
" style="fill: #ffffff"/>
  </g>
  <g id="axes_1">
   <g id="patch_2">
    <path d="M 57.6 307.584 
L 414.72 307.584 
L 414.72 41.472 
L 57.6 41.472 
z
" style="fill: #ffffff"/>
   </g>
   <g id="matplotlib.axis_1">
    <g id="xtick_1">
     <g id="line2d_1">
      <path d="M 73.832727 307.584 
L 73.832727 41.472 
" clip-path="url(#p73c591ad02)" style="fill: none; stroke: #b0b0b0; stroke-width: 0.8; stroke-linecap: square"/>
     </g>
     <g id="line2d_2">
      <defs>
       <path id="me425920375" d="M 0 0 
L 0 3.5 
" style="stroke: #000000; stroke-width: 0.8"/>
      </defs>
      <g>
       <use xlink:href="#me425920375" x="73.832727" y="307.584" style="stroke: #000000; stroke-width: 0.8"/>
      </g>
     </g>
     <g id="text_1">
      <!-- 0 -->
      <g transform="translate(70.651477 322.182437) scale(0.1 -0.1)">
       <defs>
        <path id="DejaVuSans-30" d="M 2034 4250 
Q 1547 4250 1301 3770 
Q 1056 3291 1056 2328 
Q 1056 1369 1301 889 
Q 1547 409 2034 409 
Q 2525 409 2770 889 
Q 3016 1369 3016 2328 
Q 3016 3291 2770 3770 
Q 2525 4250 2034 4250 
z
M 2034 4750 
Q 2819 4750 3233 4129 
Q 3647 3509 3647 2328 
Q 3647 1150 3233 529 
Q 2819 -91 2034 -91 
Q 1250 -91 836 529 
Q 422 1150 422 2328 
Q 422 3509 836 4129 
Q 1250 4750 2034 4750 
z
" transform="scale(0.015625)"/>
       </defs>
       <use xlink:href="#DejaVuSans-30"/>
      </g>
     </g>
    </g>
    <g id="xtick_2">
     <g id="line2d_3">
      <path d="M 114.414556 307.584 
L 114.414556 41.472 
" clip-path="url(#p73c591ad02)" style="fill: none; stroke: #b0b0b0; stroke-width: 0.8; stroke-linecap: square"/>
     </g>
     <g id="line2d_4">
      <g>
       <use xlink:href="#me425920375" x="114.414556" y="307.584" style="stroke: #000000; stroke-width: 0.8"/>
      </g>
     </g>
     <g id="text_2">
      <!-- 100000 -->
      <g transform="translate(95.327056 322.182437) scale(0.1 -0.1)">
       <defs>
        <path id="DejaVuSans-31" d="M 794 531 
L 1825 531 
L 1825 4091 
L 703 3866 
L 703 4441 
L 1819 4666 
L 2450 4666 
L 2450 531 
L 3481 531 
L 3481 0 
L 794 0 
L 794 531 
z
" transform="scale(0.015625)"/>
       </defs>
       <use xlink:href="#DejaVuSans-31"/>
       <use xlink:href="#DejaVuSans-30" x="63.623047"/>
       <use xlink:href="#DejaVuSans-30" x="127.246094"/>
       <use xlink:href="#DejaVuSans-30" x="190.869141"/>
       <use xlink:href="#DejaVuSans-30" x="254.492188"/>
       <use xlink:href="#DejaVuSans-30" x="318.115234"/>
      </g>
     </g>
    </g>
    <g id="xtick_3">
     <g id="line2d_5">
      <path d="M 154.996384 307.584 
L 154.996384 41.472 
" clip-path="url(#p73c591ad02)" style="fill: none; stroke: #b0b0b0; stroke-width: 0.8; stroke-linecap: square"/>
     </g>
     <g id="line2d_6">
      <g>
       <use xlink:href="#me425920375" x="154.996384" y="307.584" style="stroke: #000000; stroke-width: 0.8"/>
      </g>
     </g>
     <g id="text_3">
      <!-- 200000 -->
      <g transform="translate(135.908884 322.182437) scale(0.1 -0.1)">
       <defs>
        <path id="DejaVuSans-32" d="M 1228 531 
L 3431 531 
L 3431 0 
L 469 0 
L 469 531 
Q 828 903 1448 1529 
Q 2069 2156 2228 2338 
Q 2531 2678 2651 2914 
Q 2772 3150 2772 3378 
Q 2772 3750 2511 3984 
Q 2250 4219 1831 4219 
Q 1534 4219 1204 4116 
Q 875 4013 500 3803 
L 500 4441 
Q 881 4594 1212 4672 
Q 1544 4750 1819 4750 
Q 2544 4750 2975 4387 
Q 3406 4025 3406 3419 
Q 3406 3131 3298 2873 
Q 3191 2616 2906 2266 
Q 2828 2175 2409 1742 
Q 1991 1309 1228 531 
z
" transform="scale(0.015625)"/>
       </defs>
       <use xlink:href="#DejaVuSans-32"/>
       <use xlink:href="#DejaVuSans-30" x="63.623047"/>
       <use xlink:href="#DejaVuSans-30" x="127.246094"/>
       <use xlink:href="#DejaVuSans-30" x="190.869141"/>
       <use xlink:href="#DejaVuSans-30" x="254.492188"/>
       <use xlink:href="#DejaVuSans-30" x="318.115234"/>
      </g>
     </g>
    </g>
    <g id="xtick_4">
     <g id="line2d_7">
      <path d="M 195.578212 307.584 
L 195.578212 41.472 
" clip-path="url(#p73c591ad02)" style="fill: none; stroke: #b0b0b0; stroke-width: 0.8; stroke-linecap: square"/>
     </g>
     <g id="line2d_8">
      <g>
       <use xlink:href="#me425920375" x="195.578212" y="307.584" style="stroke: #000000; stroke-width: 0.8"/>
      </g>
     </g>
     <g id="text_4">
      <!-- 300000 -->
      <g transform="translate(176.490712 322.182437) scale(0.1 -0.1)">
       <defs>
        <path id="DejaVuSans-33" d="M 2597 2516 
Q 3050 2419 3304 2112 
Q 3559 1806 3559 1356 
Q 3559 666 3084 287 
Q 2609 -91 1734 -91 
Q 1441 -91 1130 -33 
Q 819 25 488 141 
L 488 750 
Q 750 597 1062 519 
Q 1375 441 1716 441 
Q 2309 441 2620 675 
Q 2931 909 2931 1356 
Q 2931 1769 2642 2001 
Q 2353 2234 1838 2234 
L 1294 2234 
L 1294 2753 
L 1863 2753 
Q 2328 2753 2575 2939 
Q 2822 3125 2822 3475 
Q 2822 3834 2567 4026 
Q 2313 4219 1838 4219 
Q 1578 4219 1281 4162 
Q 984 4106 628 3988 
L 628 4550 
Q 988 4650 1302 4700 
Q 1616 4750 1894 4750 
Q 2613 4750 3031 4423 
Q 3450 4097 3450 3541 
Q 3450 3153 3228 2886 
Q 3006 2619 2597 2516 
z
" transform="scale(0.015625)"/>
       </defs>
       <use xlink:href="#DejaVuSans-33"/>
       <use xlink:href="#DejaVuSans-30" x="63.623047"/>
       <use xlink:href="#DejaVuSans-30" x="127.246094"/>
       <use xlink:href="#DejaVuSans-30" x="190.869141"/>
       <use xlink:href="#DejaVuSans-30" x="254.492188"/>
       <use xlink:href="#DejaVuSans-30" x="318.115234"/>
      </g>
     </g>
    </g>
    <g id="xtick_5">
     <g id="line2d_9">
      <path d="M 236.16004 307.584 
L 236.16004 41.472 
" clip-path="url(#p73c591ad02)" style="fill: none; stroke: #b0b0b0; stroke-width: 0.8; stroke-linecap: square"/>
     </g>
     <g id="line2d_10">
      <g>
       <use xlink:href="#me425920375" x="236.16004" y="307.584" style="stroke: #000000; stroke-width: 0.8"/>
      </g>
     </g>
     <g id="text_5">
      <!-- 400000 -->
      <g transform="translate(217.07254 322.182437) scale(0.1 -0.1)">
       <defs>
        <path id="DejaVuSans-34" d="M 2419 4116 
L 825 1625 
L 2419 1625 
L 2419 4116 
z
M 2253 4666 
L 3047 4666 
L 3047 1625 
L 3713 1625 
L 3713 1100 
L 3047 1100 
L 3047 0 
L 2419 0 
L 2419 1100 
L 313 1100 
L 313 1709 
L 2253 4666 
z
" transform="scale(0.015625)"/>
       </defs>
       <use xlink:href="#DejaVuSans-34"/>
       <use xlink:href="#DejaVuSans-30" x="63.623047"/>
       <use xlink:href="#DejaVuSans-30" x="127.246094"/>
       <use xlink:href="#DejaVuSans-30" x="190.869141"/>
       <use xlink:href="#DejaVuSans-30" x="254.492188"/>
       <use xlink:href="#DejaVuSans-30" x="318.115234"/>
      </g>
     </g>
    </g>
    <g id="xtick_6">
     <g id="line2d_11">
      <path d="M 276.741869 307.584 
L 276.741869 41.472 
" clip-path="url(#p73c591ad02)" style="fill: none; stroke: #b0b0b0; stroke-width: 0.8; stroke-linecap: square"/>
     </g>
     <g id="line2d_12">
      <g>
       <use xlink:href="#me425920375" x="276.741869" y="307.584" style="stroke: #000000; stroke-width: 0.8"/>
      </g>
     </g>
     <g id="text_6">
      <!-- 500000 -->
      <g transform="translate(257.654369 322.182437) scale(0.1 -0.1)">
       <defs>
        <path id="DejaVuSans-35" d="M 691 4666 
L 3169 4666 
L 3169 4134 
L 1269 4134 
L 1269 2991 
Q 1406 3038 1543 3061 
Q 1681 3084 1819 3084 
Q 2600 3084 3056 2656 
Q 3513 2228 3513 1497 
Q 3513 744 3044 326 
Q 2575 -91 1722 -91 
Q 1428 -91 1123 -41 
Q 819 9 494 109 
L 494 744 
Q 775 591 1075 516 
Q 1375 441 1709 441 
Q 2250 441 2565 725 
Q 2881 1009 2881 1497 
Q 2881 1984 2565 2268 
Q 2250 2553 1709 2553 
Q 1456 2553 1204 2497 
Q 953 2441 691 2322 
L 691 4666 
z
" transform="scale(0.015625)"/>
       </defs>
       <use xlink:href="#DejaVuSans-35"/>
       <use xlink:href="#DejaVuSans-30" x="63.623047"/>
       <use xlink:href="#DejaVuSans-30" x="127.246094"/>
       <use xlink:href="#DejaVuSans-30" x="190.869141"/>
       <use xlink:href="#DejaVuSans-30" x="254.492188"/>
       <use xlink:href="#DejaVuSans-30" x="318.115234"/>
      </g>
     </g>
    </g>
    <g id="xtick_7">
     <g id="line2d_13">
      <path d="M 317.323697 307.584 
L 317.323697 41.472 
" clip-path="url(#p73c591ad02)" style="fill: none; stroke: #b0b0b0; stroke-width: 0.8; stroke-linecap: square"/>
     </g>
     <g id="line2d_14">
      <g>
       <use xlink:href="#me425920375" x="317.323697" y="307.584" style="stroke: #000000; stroke-width: 0.8"/>
      </g>
     </g>
     <g id="text_7">
      <!-- 600000 -->
      <g transform="translate(298.236197 322.182437) scale(0.1 -0.1)">
       <defs>
        <path id="DejaVuSans-36" d="M 2113 2584 
Q 1688 2584 1439 2293 
Q 1191 2003 1191 1497 
Q 1191 994 1439 701 
Q 1688 409 2113 409 
Q 2538 409 2786 701 
Q 3034 994 3034 1497 
Q 3034 2003 2786 2293 
Q 2538 2584 2113 2584 
z
M 3366 4563 
L 3366 3988 
Q 3128 4100 2886 4159 
Q 2644 4219 2406 4219 
Q 1781 4219 1451 3797 
Q 1122 3375 1075 2522 
Q 1259 2794 1537 2939 
Q 1816 3084 2150 3084 
Q 2853 3084 3261 2657 
Q 3669 2231 3669 1497 
Q 3669 778 3244 343 
Q 2819 -91 2113 -91 
Q 1303 -91 875 529 
Q 447 1150 447 2328 
Q 447 3434 972 4092 
Q 1497 4750 2381 4750 
Q 2619 4750 2861 4703 
Q 3103 4656 3366 4563 
z
" transform="scale(0.015625)"/>
       </defs>
       <use xlink:href="#DejaVuSans-36"/>
       <use xlink:href="#DejaVuSans-30" x="63.623047"/>
       <use xlink:href="#DejaVuSans-30" x="127.246094"/>
       <use xlink:href="#DejaVuSans-30" x="190.869141"/>
       <use xlink:href="#DejaVuSans-30" x="254.492188"/>
       <use xlink:href="#DejaVuSans-30" x="318.115234"/>
      </g>
     </g>
    </g>
    <g id="xtick_8">
     <g id="line2d_15">
      <path d="M 357.905525 307.584 
L 357.905525 41.472 
" clip-path="url(#p73c591ad02)" style="fill: none; stroke: #b0b0b0; stroke-width: 0.8; stroke-linecap: square"/>
     </g>
     <g id="line2d_16">
      <g>
       <use xlink:href="#me425920375" x="357.905525" y="307.584" style="stroke: #000000; stroke-width: 0.8"/>
      </g>
     </g>
     <g id="text_8">
      <!-- 700000 -->
      <g transform="translate(338.818025 322.182437) scale(0.1 -0.1)">
       <defs>
        <path id="DejaVuSans-37" d="M 525 4666 
L 3525 4666 
L 3525 4397 
L 1831 0 
L 1172 0 
L 2766 4134 
L 525 4134 
L 525 4666 
z
" transform="scale(0.015625)"/>
       </defs>
       <use xlink:href="#DejaVuSans-37"/>
       <use xlink:href="#DejaVuSans-30" x="63.623047"/>
       <use xlink:href="#DejaVuSans-30" x="127.246094"/>
       <use xlink:href="#DejaVuSans-30" x="190.869141"/>
       <use xlink:href="#DejaVuSans-30" x="254.492188"/>
       <use xlink:href="#DejaVuSans-30" x="318.115234"/>
      </g>
     </g>
    </g>
    <g id="xtick_9">
     <g id="line2d_17">
      <path d="M 398.487353 307.584 
L 398.487353 41.472 
" clip-path="url(#p73c591ad02)" style="fill: none; stroke: #b0b0b0; stroke-width: 0.8; stroke-linecap: square"/>
     </g>
     <g id="line2d_18">
      <g>
       <use xlink:href="#me425920375" x="398.487353" y="307.584" style="stroke: #000000; stroke-width: 0.8"/>
      </g>
     </g>
     <g id="text_9">
      <!-- 800000 -->
      <g transform="translate(379.399853 322.182437) scale(0.1 -0.1)">
       <defs>
        <path id="DejaVuSans-38" d="M 2034 2216 
Q 1584 2216 1326 1975 
Q 1069 1734 1069 1313 
Q 1069 891 1326 650 
Q 1584 409 2034 409 
Q 2484 409 2743 651 
Q 3003 894 3003 1313 
Q 3003 1734 2745 1975 
Q 2488 2216 2034 2216 
z
M 1403 2484 
Q 997 2584 770 2862 
Q 544 3141 544 3541 
Q 544 4100 942 4425 
Q 1341 4750 2034 4750 
Q 2731 4750 3128 4425 
Q 3525 4100 3525 3541 
Q 3525 3141 3298 2862 
Q 3072 2584 2669 2484 
Q 3125 2378 3379 2068 
Q 3634 1759 3634 1313 
Q 3634 634 3220 271 
Q 2806 -91 2034 -91 
Q 1263 -91 848 271 
Q 434 634 434 1313 
Q 434 1759 690 2068 
Q 947 2378 1403 2484 
z
M 1172 3481 
Q 1172 3119 1398 2916 
Q 1625 2713 2034 2713 
Q 2441 2713 2670 2916 
Q 2900 3119 2900 3481 
Q 2900 3844 2670 4047 
Q 2441 4250 2034 4250 
Q 1625 4250 1398 4047 
Q 1172 3844 1172 3481 
z
" transform="scale(0.015625)"/>
       </defs>
       <use xlink:href="#DejaVuSans-38"/>
       <use xlink:href="#DejaVuSans-30" x="63.623047"/>
       <use xlink:href="#DejaVuSans-30" x="127.246094"/>
       <use xlink:href="#DejaVuSans-30" x="190.869141"/>
       <use xlink:href="#DejaVuSans-30" x="254.492188"/>
       <use xlink:href="#DejaVuSans-30" x="318.115234"/>
      </g>
     </g>
    </g>
    <g id="text_10">
     <!-- TimePoint -->
     <g transform="translate(211.515469 335.860562) scale(0.1 -0.1)">
      <defs>
       <path id="DejaVuSans-54" d="M -19 4666 
L 3928 4666 
L 3928 4134 
L 2272 4134 
L 2272 0 
L 1638 0 
L 1638 4134 
L -19 4134 
L -19 4666 
z
" transform="scale(0.015625)"/>
       <path id="DejaVuSans-69" d="M 603 3500 
L 1178 3500 
L 1178 0 
L 603 0 
L 603 3500 
z
M 603 4863 
L 1178 4863 
L 1178 4134 
L 603 4134 
L 603 4863 
z
" transform="scale(0.015625)"/>
       <path id="DejaVuSans-6d" d="M 3328 2828 
Q 3544 3216 3844 3400 
Q 4144 3584 4550 3584 
Q 5097 3584 5394 3201 
Q 5691 2819 5691 2113 
L 5691 0 
L 5113 0 
L 5113 2094 
Q 5113 2597 4934 2840 
Q 4756 3084 4391 3084 
Q 3944 3084 3684 2787 
Q 3425 2491 3425 1978 
L 3425 0 
L 2847 0 
L 2847 2094 
Q 2847 2600 2669 2842 
Q 2491 3084 2119 3084 
Q 1678 3084 1418 2786 
Q 1159 2488 1159 1978 
L 1159 0 
L 581 0 
L 581 3500 
L 1159 3500 
L 1159 2956 
Q 1356 3278 1631 3431 
Q 1906 3584 2284 3584 
Q 2666 3584 2933 3390 
Q 3200 3197 3328 2828 
z
" transform="scale(0.015625)"/>
       <path id="DejaVuSans-65" d="M 3597 1894 
L 3597 1613 
L 953 1613 
Q 991 1019 1311 708 
Q 1631 397 2203 397 
Q 2534 397 2845 478 
Q 3156 559 3463 722 
L 3463 178 
Q 3153 47 2828 -22 
Q 2503 -91 2169 -91 
Q 1331 -91 842 396 
Q 353 884 353 1716 
Q 353 2575 817 3079 
Q 1281 3584 2069 3584 
Q 2775 3584 3186 3129 
Q 3597 2675 3597 1894 
z
M 3022 2063 
Q 3016 2534 2758 2815 
Q 2500 3097 2075 3097 
Q 1594 3097 1305 2825 
Q 1016 2553 972 2059 
L 3022 2063 
z
" transform="scale(0.015625)"/>
       <path id="DejaVuSans-50" d="M 1259 4147 
L 1259 2394 
L 2053 2394 
Q 2494 2394 2734 2622 
Q 2975 2850 2975 3272 
Q 2975 3691 2734 3919 
Q 2494 4147 2053 4147 
L 1259 4147 
z
M 628 4666 
L 2053 4666 
Q 2838 4666 3239 4311 
Q 3641 3956 3641 3272 
Q 3641 2581 3239 2228 
Q 2838 1875 2053 1875 
L 1259 1875 
L 1259 0 
L 628 0 
L 628 4666 
z
" transform="scale(0.015625)"/>
       <path id="DejaVuSans-6f" d="M 1959 3097 
Q 1497 3097 1228 2736 
Q 959 2375 959 1747 
Q 959 1119 1226 758 
Q 1494 397 1959 397 
Q 2419 397 2687 759 
Q 2956 1122 2956 1747 
Q 2956 2369 2687 2733 
Q 2419 3097 1959 3097 
z
M 1959 3584 
Q 2709 3584 3137 3096 
Q 3566 2609 3566 1747 
Q 3566 888 3137 398 
Q 2709 -91 1959 -91 
Q 1206 -91 779 398 
Q 353 888 353 1747 
Q 353 2609 779 3096 
Q 1206 3584 1959 3584 
z
" transform="scale(0.015625)"/>
       <path id="DejaVuSans-6e" d="M 3513 2113 
L 3513 0 
L 2938 0 
L 2938 2094 
Q 2938 2591 2744 2837 
Q 2550 3084 2163 3084 
Q 1697 3084 1428 2787 
Q 1159 2491 1159 1978 
L 1159 0 
L 581 0 
L 581 3500 
L 1159 3500 
L 1159 2956 
Q 1366 3272 1645 3428 
Q 1925 3584 2291 3584 
Q 2894 3584 3203 3211 
Q 3513 2838 3513 2113 
z
" transform="scale(0.015625)"/>
       <path id="DejaVuSans-74" d="M 1172 4494 
L 1172 3500 
L 2356 3500 
L 2356 3053 
L 1172 3053 
L 1172 1153 
Q 1172 725 1289 603 
Q 1406 481 1766 481 
L 2356 481 
L 2356 0 
L 1766 0 
Q 1100 0 847 248 
Q 594 497 594 1153 
L 594 3053 
L 172 3053 
L 172 3500 
L 594 3500 
L 594 4494 
L 1172 4494 
z
" transform="scale(0.015625)"/>
      </defs>
      <use xlink:href="#DejaVuSans-54"/>
      <use xlink:href="#DejaVuSans-69" x="57.958984"/>
      <use xlink:href="#DejaVuSans-6d" x="85.742188"/>
      <use xlink:href="#DejaVuSans-65" x="183.154297"/>
      <use xlink:href="#DejaVuSans-50" x="244.677734"/>
      <use xlink:href="#DejaVuSans-6f" x="301.355469"/>
      <use xlink:href="#DejaVuSans-69" x="362.537109"/>
      <use xlink:href="#DejaVuSans-6e" x="390.320312"/>
      <use xlink:href="#DejaVuSans-74" x="453.699219"/>
     </g>
    </g>
   </g>
   <g id="matplotlib.axis_2">
    <g id="ytick_1">
     <g id="line2d_19">
      <path d="M 57.6 295.488 
L 414.72 295.488 
" clip-path="url(#p73c591ad02)" style="fill: none; stroke: #b0b0b0; stroke-width: 0.8; stroke-linecap: square"/>
     </g>
     <g id="line2d_20">
      <defs>
       <path id="m4d4813c7fb" d="M 0 0 
L -3.5 0 
" style="stroke: #000000; stroke-width: 0.8"/>
      </defs>
      <g>
       <use xlink:href="#m4d4813c7fb" x="57.6" y="295.488" style="stroke: #000000; stroke-width: 0.8"/>
      </g>
     </g>
     <g id="text_11">
      <!-- 0.0000 -->
      <g transform="translate(15.609375 299.287219) scale(0.1 -0.1)">
       <defs>
        <path id="DejaVuSans-2e" d="M 684 794 
L 1344 794 
L 1344 0 
L 684 0 
L 684 794 
z
" transform="scale(0.015625)"/>
       </defs>
       <use xlink:href="#DejaVuSans-30"/>
       <use xlink:href="#DejaVuSans-2e" x="63.623047"/>
       <use xlink:href="#DejaVuSans-30" x="95.410156"/>
       <use xlink:href="#DejaVuSans-30" x="159.033203"/>
       <use xlink:href="#DejaVuSans-30" x="222.65625"/>
       <use xlink:href="#DejaVuSans-30" x="286.279297"/>
      </g>
     </g>
    </g>
    <g id="ytick_2">
     <g id="line2d_21">
      <path d="M 57.6 249.534402 
L 414.72 249.534402 
" clip-path="url(#p73c591ad02)" style="fill: none; stroke: #b0b0b0; stroke-width: 0.8; stroke-linecap: square"/>
     </g>
     <g id="line2d_22">
      <g>
       <use xlink:href="#m4d4813c7fb" x="57.6" y="249.534402" style="stroke: #000000; stroke-width: 0.8"/>
      </g>
     </g>
     <g id="text_12">
      <!-- 0.0002 -->
      <g transform="translate(15.609375 253.333621) scale(0.1 -0.1)">
       <use xlink:href="#DejaVuSans-30"/>
       <use xlink:href="#DejaVuSans-2e" x="63.623047"/>
       <use xlink:href="#DejaVuSans-30" x="95.410156"/>
       <use xlink:href="#DejaVuSans-30" x="159.033203"/>
       <use xlink:href="#DejaVuSans-30" x="222.65625"/>
       <use xlink:href="#DejaVuSans-32" x="286.279297"/>
      </g>
     </g>
    </g>
    <g id="ytick_3">
     <g id="line2d_23">
      <path d="M 57.6 203.580804 
L 414.72 203.580804 
" clip-path="url(#p73c591ad02)" style="fill: none; stroke: #b0b0b0; stroke-width: 0.8; stroke-linecap: square"/>
     </g>
     <g id="line2d_24">
      <g>
       <use xlink:href="#m4d4813c7fb" x="57.6" y="203.580804" style="stroke: #000000; stroke-width: 0.8"/>
      </g>
     </g>
     <g id="text_13">
      <!-- 0.0004 -->
      <g transform="translate(15.609375 207.380023) scale(0.1 -0.1)">
       <use xlink:href="#DejaVuSans-30"/>
       <use xlink:href="#DejaVuSans-2e" x="63.623047"/>
       <use xlink:href="#DejaVuSans-30" x="95.410156"/>
       <use xlink:href="#DejaVuSans-30" x="159.033203"/>
       <use xlink:href="#DejaVuSans-30" x="222.65625"/>
       <use xlink:href="#DejaVuSans-34" x="286.279297"/>
      </g>
     </g>
    </g>
    <g id="ytick_4">
     <g id="line2d_25">
      <path d="M 57.6 157.627206 
L 414.72 157.627206 
" clip-path="url(#p73c591ad02)" style="fill: none; stroke: #b0b0b0; stroke-width: 0.8; stroke-linecap: square"/>
     </g>
     <g id="line2d_26">
      <g>
       <use xlink:href="#m4d4813c7fb" x="57.6" y="157.627206" style="stroke: #000000; stroke-width: 0.8"/>
      </g>
     </g>
     <g id="text_14">
      <!-- 0.0006 -->
      <g transform="translate(15.609375 161.426425) scale(0.1 -0.1)">
       <use xlink:href="#DejaVuSans-30"/>
       <use xlink:href="#DejaVuSans-2e" x="63.623047"/>
       <use xlink:href="#DejaVuSans-30" x="95.410156"/>
       <use xlink:href="#DejaVuSans-30" x="159.033203"/>
       <use xlink:href="#DejaVuSans-30" x="222.65625"/>
       <use xlink:href="#DejaVuSans-36" x="286.279297"/>
      </g>
     </g>
    </g>
    <g id="ytick_5">
     <g id="line2d_27">
      <path d="M 57.6 111.673608 
L 414.72 111.673608 
" clip-path="url(#p73c591ad02)" style="fill: none; stroke: #b0b0b0; stroke-width: 0.8; stroke-linecap: square"/>
     </g>
     <g id="line2d_28">
      <g>
       <use xlink:href="#m4d4813c7fb" x="57.6" y="111.673608" style="stroke: #000000; stroke-width: 0.8"/>
      </g>
     </g>
     <g id="text_15">
      <!-- 0.0008 -->
      <g transform="translate(15.609375 115.472827) scale(0.1 -0.1)">
       <use xlink:href="#DejaVuSans-30"/>
       <use xlink:href="#DejaVuSans-2e" x="63.623047"/>
       <use xlink:href="#DejaVuSans-30" x="95.410156"/>
       <use xlink:href="#DejaVuSans-30" x="159.033203"/>
       <use xlink:href="#DejaVuSans-30" x="222.65625"/>
       <use xlink:href="#DejaVuSans-38" x="286.279297"/>
      </g>
     </g>
    </g>
    <g id="ytick_6">
     <g id="line2d_29">
      <path d="M 57.6 65.72001 
L 414.72 65.72001 
" clip-path="url(#p73c591ad02)" style="fill: none; stroke: #b0b0b0; stroke-width: 0.8; stroke-linecap: square"/>
     </g>
     <g id="line2d_30">
      <g>
       <use xlink:href="#m4d4813c7fb" x="57.6" y="65.72001" style="stroke: #000000; stroke-width: 0.8"/>
      </g>
     </g>
     <g id="text_16">
      <!-- 0.0010 -->
      <g transform="translate(15.609375 69.519229) scale(0.1 -0.1)">
       <use xlink:href="#DejaVuSans-30"/>
       <use xlink:href="#DejaVuSans-2e" x="63.623047"/>
       <use xlink:href="#DejaVuSans-30" x="95.410156"/>
       <use xlink:href="#DejaVuSans-30" x="159.033203"/>
       <use xlink:href="#DejaVuSans-31" x="222.65625"/>
       <use xlink:href="#DejaVuSans-30" x="286.279297"/>
      </g>
     </g>
    </g>
    <g id="text_17">
     <!-- ioChannelLoadStdDev -->
     <g transform="translate(9.529687 229.694406) rotate(-90) scale(0.1 -0.1)">
      <defs>
       <path id="DejaVuSans-43" d="M 4122 4306 
L 4122 3641 
Q 3803 3938 3442 4084 
Q 3081 4231 2675 4231 
Q 1875 4231 1450 3742 
Q 1025 3253 1025 2328 
Q 1025 1406 1450 917 
Q 1875 428 2675 428 
Q 3081 428 3442 575 
Q 3803 722 4122 1019 
L 4122 359 
Q 3791 134 3420 21 
Q 3050 -91 2638 -91 
Q 1578 -91 968 557 
Q 359 1206 359 2328 
Q 359 3453 968 4101 
Q 1578 4750 2638 4750 
Q 3056 4750 3426 4639 
Q 3797 4528 4122 4306 
z
" transform="scale(0.015625)"/>
       <path id="DejaVuSans-68" d="M 3513 2113 
L 3513 0 
L 2938 0 
L 2938 2094 
Q 2938 2591 2744 2837 
Q 2550 3084 2163 3084 
Q 1697 3084 1428 2787 
Q 1159 2491 1159 1978 
L 1159 0 
L 581 0 
L 581 4863 
L 1159 4863 
L 1159 2956 
Q 1366 3272 1645 3428 
Q 1925 3584 2291 3584 
Q 2894 3584 3203 3211 
Q 3513 2838 3513 2113 
z
" transform="scale(0.015625)"/>
       <path id="DejaVuSans-61" d="M 2194 1759 
Q 1497 1759 1228 1600 
Q 959 1441 959 1056 
Q 959 750 1161 570 
Q 1363 391 1709 391 
Q 2188 391 2477 730 
Q 2766 1069 2766 1631 
L 2766 1759 
L 2194 1759 
z
M 3341 1997 
L 3341 0 
L 2766 0 
L 2766 531 
Q 2569 213 2275 61 
Q 1981 -91 1556 -91 
Q 1019 -91 701 211 
Q 384 513 384 1019 
Q 384 1609 779 1909 
Q 1175 2209 1959 2209 
L 2766 2209 
L 2766 2266 
Q 2766 2663 2505 2880 
Q 2244 3097 1772 3097 
Q 1472 3097 1187 3025 
Q 903 2953 641 2809 
L 641 3341 
Q 956 3463 1253 3523 
Q 1550 3584 1831 3584 
Q 2591 3584 2966 3190 
Q 3341 2797 3341 1997 
z
" transform="scale(0.015625)"/>
       <path id="DejaVuSans-6c" d="M 603 4863 
L 1178 4863 
L 1178 0 
L 603 0 
L 603 4863 
z
" transform="scale(0.015625)"/>
       <path id="DejaVuSans-4c" d="M 628 4666 
L 1259 4666 
L 1259 531 
L 3531 531 
L 3531 0 
L 628 0 
L 628 4666 
z
" transform="scale(0.015625)"/>
       <path id="DejaVuSans-64" d="M 2906 2969 
L 2906 4863 
L 3481 4863 
L 3481 0 
L 2906 0 
L 2906 525 
Q 2725 213 2448 61 
Q 2172 -91 1784 -91 
Q 1150 -91 751 415 
Q 353 922 353 1747 
Q 353 2572 751 3078 
Q 1150 3584 1784 3584 
Q 2172 3584 2448 3432 
Q 2725 3281 2906 2969 
z
M 947 1747 
Q 947 1113 1208 752 
Q 1469 391 1925 391 
Q 2381 391 2643 752 
Q 2906 1113 2906 1747 
Q 2906 2381 2643 2742 
Q 2381 3103 1925 3103 
Q 1469 3103 1208 2742 
Q 947 2381 947 1747 
z
" transform="scale(0.015625)"/>
       <path id="DejaVuSans-53" d="M 3425 4513 
L 3425 3897 
Q 3066 4069 2747 4153 
Q 2428 4238 2131 4238 
Q 1616 4238 1336 4038 
Q 1056 3838 1056 3469 
Q 1056 3159 1242 3001 
Q 1428 2844 1947 2747 
L 2328 2669 
Q 3034 2534 3370 2195 
Q 3706 1856 3706 1288 
Q 3706 609 3251 259 
Q 2797 -91 1919 -91 
Q 1588 -91 1214 -16 
Q 841 59 441 206 
L 441 856 
Q 825 641 1194 531 
Q 1563 422 1919 422 
Q 2459 422 2753 634 
Q 3047 847 3047 1241 
Q 3047 1584 2836 1778 
Q 2625 1972 2144 2069 
L 1759 2144 
Q 1053 2284 737 2584 
Q 422 2884 422 3419 
Q 422 4038 858 4394 
Q 1294 4750 2059 4750 
Q 2388 4750 2728 4690 
Q 3069 4631 3425 4513 
z
" transform="scale(0.015625)"/>
       <path id="DejaVuSans-44" d="M 1259 4147 
L 1259 519 
L 2022 519 
Q 2988 519 3436 956 
Q 3884 1394 3884 2338 
Q 3884 3275 3436 3711 
Q 2988 4147 2022 4147 
L 1259 4147 
z
M 628 4666 
L 1925 4666 
Q 3281 4666 3915 4102 
Q 4550 3538 4550 2338 
Q 4550 1131 3912 565 
Q 3275 0 1925 0 
L 628 0 
L 628 4666 
z
" transform="scale(0.015625)"/>
       <path id="DejaVuSans-76" d="M 191 3500 
L 800 3500 
L 1894 563 
L 2988 3500 
L 3597 3500 
L 2284 0 
L 1503 0 
L 191 3500 
z
" transform="scale(0.015625)"/>
      </defs>
      <use xlink:href="#DejaVuSans-69"/>
      <use xlink:href="#DejaVuSans-6f" x="27.783203"/>
      <use xlink:href="#DejaVuSans-43" x="88.964844"/>
      <use xlink:href="#DejaVuSans-68" x="158.789062"/>
      <use xlink:href="#DejaVuSans-61" x="222.167969"/>
      <use xlink:href="#DejaVuSans-6e" x="283.447266"/>
      <use xlink:href="#DejaVuSans-6e" x="346.826172"/>
      <use xlink:href="#DejaVuSans-65" x="410.205078"/>
      <use xlink:href="#DejaVuSans-6c" x="471.728516"/>
      <use xlink:href="#DejaVuSans-4c" x="499.511719"/>
      <use xlink:href="#DejaVuSans-6f" x="553.474609"/>
      <use xlink:href="#DejaVuSans-61" x="614.65625"/>
      <use xlink:href="#DejaVuSans-64" x="675.935547"/>
      <use xlink:href="#DejaVuSans-53" x="739.412109"/>
      <use xlink:href="#DejaVuSans-74" x="802.888672"/>
      <use xlink:href="#DejaVuSans-64" x="842.097656"/>
      <use xlink:href="#DejaVuSans-44" x="905.574219"/>
      <use xlink:href="#DejaVuSans-65" x="982.576172"/>
      <use xlink:href="#DejaVuSans-76" x="1044.099609"/>
     </g>
    </g>
   </g>
   <g id="line2d_31">
    <path d="M 73.832727 295.488 
L 73.8383 295.488 
L 73.8383 295.488 
L 73.846931 152.981812 
L 73.949197 198.208151 
L 74.122068 205.806832 
L 74.131004 205.908453 
L 74.131004 205.908453 
L 74.241445 213.030163 
L 74.242761 213.069792 
L 74.353796 221.379061 
L 74.451702 227.041132 
L 74.562389 230.528053 
L 74.56807 230.634383 
L 74.56807 230.634383 
L 74.678588 233.772568 
L 74.681475 233.876018 
L 74.747227 235.851556 
L 74.949289 241.088437 
L 74.956032 241.198301 
L 74.956032 241.198301 
L 75.067017 243.387644 
L 75.072908 243.490282 
L 75.072908 243.491807 
L 75.193547 245.282225 
L 75.203581 245.392676 
L 75.203581 245.392676 
L 75.314308 246.687419 
L 75.337096 246.930435 
L 75.337096 246.930435 
L 75.447478 248.1418 
L 75.762393 249.694275 
L 75.837064 249.805111 
L 75.837064 249.805111 
L 75.8659 249.811045 
L 75.948085 249.737804 
L 76.04606 249.647464 
L 76.1074 249.706822 
L 76.188352 249.730011 
L 76.217695 249.726053 
L 76.32787 249.836965 
L 77.137354 251.649531 
L 77.24835 251.95693 
L 77.283527 252.065799 
L 77.52985 252.87371 
L 77.560574 252.981554 
L 77.560574 252.982921 
L 77.733594 253.559296 
L 77.801689 253.809412 
L 77.913443 254.226682 
L 78.016075 254.585741 
L 78.127502 255.022409 
L 78.492284 256.398676 
L 78.648992 256.932491 
L 78.683067 257.041729 
L 78.683067 257.041729 
L 78.793918 257.430852 
L 80.324493 261.395107 
L 80.387504 261.530152 
L 80.630995 261.97119 
L 80.745436 262.159035 
L 80.832565 262.29152 
L 84.083291 266.707715 
L 84.190021 266.824133 
L 84.190021 266.824133 
L 84.30081 266.944541 
L 84.829788 267.510158 
L 84.94322 267.620491 
L 84.94322 267.620799 
L 85.129927 267.797595 
L 85.245149 267.908107 
L 85.245149 267.908107 
L 85.355767 268.011078 
L 85.480525 268.122143 
L 85.683671 268.289401 
L 86.322476 268.815792 
L 86.437938 268.905047 
L 86.584349 269.015547 
L 86.584349 269.015547 
L 86.695119 269.099167 
L 86.86366 269.221462 
L 87.19009 269.450123 
L 87.381782 269.586165 
L 87.381782 269.586165 
L 87.49232 269.663275 
L 87.656549 269.774304 
L 87.876949 269.919038 
L 88.135387 270.080029 
L 88.264454 270.161005 
L 88.441374 270.272103 
L 88.441374 270.272103 
L 88.551865 270.342835 
L 88.729911 270.452888 
L 88.729911 270.453692 
L 89.086133 270.646865 
L 89.197236 270.702205 
L 89.4192 270.813102 
L 89.530314 270.871747 
L 89.772852 270.998881 
L 89.884058 271.06054 
L 90.08124 271.171543 
L 90.194262 271.239363 
L 90.384549 271.350093 
L 90.494814 271.414019 
L 90.69901 271.525004 
L 90.808973 271.584435 
L 91.022301 271.695509 
L 91.481072 271.931955 
L 91.695591 272.043023 
L 93.160635 272.794809 
L 93.382211 272.907955 
L 93.499087 272.970003 
L 93.712637 273.081113 
L 94.147632 273.297462 
L 94.372627 273.408532 
L 94.483975 273.463699 
L 94.712791 273.574751 
L 95.379936 273.892849 
L 95.55618 273.976986 
L 95.790171 274.087768 
L 95.901125 274.140411 
L 96.140972 274.251458 
L 97.164844 274.711467 
L 97.164844 274.711467 
L 97.275932 274.760276 
L 97.535762 274.871022 
L 97.535762 274.871022 
L 97.646831 274.918238 
L 97.938181 275.036197 
L 98.903753 275.402582 
L 99.211791 275.513666 
L 99.211791 275.513666 
L 99.322579 275.552374 
L 99.653727 275.663938 
L 99.653727 275.663938 
L 99.764151 275.702162 
L 100.087218 275.813136 
L 100.200561 275.851295 
L 100.549053 275.962302 
L 100.659345 275.997489 
L 101.017534 276.108486 
L 102.216188 276.472933 
L 102.572778 276.579985 
L 102.944102 276.690862 
L 102.944102 276.690862 
L 103.054464 276.723653 
L 103.433519 276.834392 
L 103.433519 276.834392 
L 103.54309 276.866669 
L 103.928478 276.977645 
L 104.040652 277.010059 
L 104.736949 277.204436 
L 105.144547 277.315441 
L 105.372924 277.37585 
L 105.807556 277.48687 
L 105.807556 277.48687 
L 105.917538 277.515527 
L 106.458488 277.652757 
L 106.458488 277.652757 
L 106.568239 277.680371 
L 107.019735 277.791243 
L 107.019735 277.79143 
L 107.284242 277.854236 
L 107.876056 277.993853 
L 110.705376 278.628551 
L 111.226352 278.739502 
L 112.453642 278.997452 
L 112.995003 279.108485 
L 112.995003 279.108485 
L 113.106065 279.13103 
L 113.66732 279.241966 
L 113.777827 279.263578 
L 114.367145 279.374625 
L 114.481134 279.395855 
L 115.095113 279.506892 
L 115.095113 279.506892 
L 115.206173 279.52672 
L 115.689231 279.612914 
L 116.331135 279.724001 
L 118.350392 280.033069 
L 118.461399 280.048701 
L 121.664499 280.465616 
L 121.664499 280.465616 
L 121.775288 280.479819 
L 122.027752 280.512134 
L 122.924971 280.623242 
L 122.924971 280.623242 
L 123.035592 280.636663 
L 123.941546 280.747592 
L 123.941546 280.747618 
L 124.142628 280.773157 
L 125.022715 280.884228 
L 125.133799 280.89842 
L 126.008484 281.00953 
L 128.520799 281.315744 
L 128.520799 281.315744 
L 128.631101 281.329046 
L 129.59378 281.440099 
L 132.651306 281.757722 
L 133.951865 281.884073 
L 133.951865 281.884073 
L 134.06234 281.894649 
L 135.229787 282.005665 
L 135.229787 282.005665 
L 135.340575 282.016459 
L 137.416344 282.211229 
L 140.284024 282.461964 
L 141.527445 282.572996 
L 141.638469 282.583072 
L 142.894477 282.694098 
L 142.894477 282.694098 
L 143.005399 282.703779 
L 144.302849 282.814877 
L 144.4179 282.824497 
L 145.778221 282.935599 
L 145.778221 282.935603 
L 145.927466 282.947559 
L 147.451816 283.062658 
L 147.451816 283.062658 
L 147.562278 283.070761 
L 150.622677 283.282013 
L 150.738267 283.289806 
L 153.223364 283.44962 
L 153.223364 283.44962 
L 153.333336 283.456785 
L 155.119347 283.567829 
L 155.119347 283.567829 
L 155.229847 283.574497 
L 157.126524 283.685568 
L 157.126524 283.685568 
L 157.23743 283.69202 
L 159.136827 283.803105 
L 159.248708 283.809648 
L 161.504086 283.937474 
L 161.504086 283.937474 
L 161.615022 283.943449 
L 166.142422 284.170987 
L 169.524272 284.333709 
L 171.981096 284.444818 
L 171.981096 284.444818 
L 172.109335 284.450802 
L 174.828317 284.57428 
L 174.828317 284.57428 
L 174.939106 284.57941 
L 177.350199 284.690462 
L 177.984772 284.720043 
L 180.405072 284.831151 
L 180.405072 284.831151 
L 180.516104 284.836145 
L 183.086719 284.947204 
L 183.086719 284.947231 
L 198.851699 285.603487 
L 201.718717 285.71458 
L 218.205016 286.281721 
L 218.205016 286.281721 
L 218.315726 286.285191 
L 222.239473 286.404403 
L 222.351038 286.407753 
L 226.083572 286.518842 
L 226.083572 286.518856 
L 228.988438 286.602302 
L 234.32006 286.747673 
L 243.700749 286.985932 
L 246.011205 287.041766 
L 250.792224 287.152876 
L 250.792224 287.152876 
L 250.902607 287.155399 
L 262.183416 287.401163 
L 262.296226 287.403499 
L 267.881232 287.514597 
L 267.881232 287.514597 
L 267.990912 287.516707 
L 273.965978 287.627805 
L 273.965978 287.627817 
L 279.341313 287.720849 
L 285.934058 287.831928 
L 285.934058 287.831954 
L 296.16352 287.991757 
L 296.16352 287.991757 
L 296.273817 287.993463 
L 303.549048 288.10457 
L 306.550439 288.149651 
L 314.411951 288.260745 
L 314.411951 288.260758 
L 382.004677 288.996391 
L 398.487273 289.136335 
L 398.487273 289.136335 
" clip-path="url(#p73c591ad02)" style="fill: none; stroke: #1f77b4; stroke-width: 1.5; stroke-linecap: square"/>
   </g>
   <g id="line2d_32">
    <path d="M 73.832727 295.488 
L 73.84206 295.488 
L 73.84206 295.488 
L 73.873309 95.176574 
L 73.953143 138.251943 
L 74.019662 167.619132 
L 74.132627 191.621674 
L 74.133064 191.707421 
L 74.477573 215.298094 
L 74.480413 215.384278 
L 74.480413 215.400932 
L 74.680928 224.209014 
L 74.684946 224.314962 
L 74.684946 224.314962 
L 74.795977 228.11304 
L 74.799652 228.211281 
L 74.911255 231.514235 
L 74.94647 232.421387 
L 75.058494 234.948237 
L 75.063732 235.049064 
L 75.199179 237.685684 
L 75.205686 237.794143 
L 75.414568 241.54893 
L 75.422172 241.64036 
L 75.533918 243.39831 
L 75.563053 243.801899 
L 75.674736 245.357357 
L 75.682821 245.46278 
L 75.920141 248.271164 
L 76.031504 249.484237 
L 76.041345 249.588807 
L 76.509626 253.700248 
L 76.525332 253.804826 
L 76.525332 253.804826 
L 76.636159 254.64233 
L 76.651947 254.749649 
L 76.651947 254.749649 
L 76.762872 255.529362 
L 76.789707 255.700919 
L 76.901142 256.431415 
L 76.918975 256.54173 
L 76.918975 256.54173 
L 77.02953 257.221621 
L 77.07765 257.499026 
L 77.07765 257.499026 
L 77.188609 258.128404 
L 77.207938 258.231097 
L 77.319112 258.823311 
L 77.584227 260.107597 
L 77.754961 260.852192 
L 77.754961 260.852192 
L 77.866035 261.316738 
L 77.892939 261.423637 
L 77.892939 261.423637 
L 78.00251 261.85856 
L 78.032946 261.966841 
L 78.032946 261.966987 
L 78.149156 262.403011 
L 78.179983 262.513908 
L 78.312141 262.987294 
L 78.424155 263.375562 
L 78.455809 263.481322 
L 78.455809 263.484761 
L 78.634331 264.07069 
L 78.744752 264.424933 
L 78.798726 264.589019 
L 78.798726 264.589019 
L 78.909703 264.927654 
L 78.947091 265.038664 
L 79.066971 265.390256 
L 79.107147 265.501187 
L 79.107147 265.501187 
L 79.217548 265.809393 
L 79.258716 265.920286 
L 79.573642 266.743966 
L 79.617667 266.851014 
L 79.617667 266.851694 
L 79.745601 267.164299 
L 79.793072 267.275125 
L 80.051555 267.864911 
L 81.411892 270.459277 
L 81.478968 270.569485 
L 81.899989 271.221822 
L 81.99327 271.356659 
L 82.107201 271.518772 
L 82.187466 271.629731 
L 82.299314 271.786525 
L 82.382652 271.896975 
L 82.494919 272.047892 
L 82.579735 272.158531 
L 82.579735 272.158888 
L 82.908279 272.575477 
L 82.998539 272.685061 
L 82.998539 272.686516 
L 83.414058 273.175098 
L 83.544559 273.323043 
L 83.928675 273.739431 
L 83.928675 273.739431 
L 84.03974 273.855256 
L 84.230096 274.046733 
L 84.342119 274.155802 
L 85.069463 274.806741 
L 85.207408 274.917182 
L 85.207408 274.917482 
L 85.374993 275.050753 
L 90.244424 278.163323 
L 90.515511 278.296408 
L 90.515511 278.296408 
L 90.625488 278.350352 
L 90.858867 278.461408 
L 91.409935 278.714847 
L 91.597017 278.797071 
L 91.853088 278.908181 
L 91.853088 278.908181 
L 91.963796 278.956202 
L 92.521643 279.192623 
L 93.847077 279.69739 
L 94.152454 279.808058 
L 94.152454 279.808347 
L 94.843285 280.059318 
L 94.95529 280.099098 
L 95.269672 280.210039 
L 95.269672 280.210039 
L 95.38066 280.24884 
L 95.703492 280.359576 
L 95.703492 280.359576 
L 95.813063 280.397606 
L 96.188445 280.52319 
L 96.188445 280.52319 
L 96.299367 280.559877 
L 96.65302 280.674395 
L 97.640868 280.977155 
L 97.640868 280.977155 
L 97.751198 281.01007 
L 98.251625 281.155485 
L 98.251625 281.155485 
L 98.362158 281.187336 
L 98.751658 281.298393 
L 99.896812 281.610029 
L 100.042062 281.647691 
L 100.476228 281.7588 
L 100.587478 281.787668 
L 101.029171 281.898677 
L 101.141055 281.926878 
L 101.598003 282.037971 
L 101.598003 282.037971 
L 101.707982 282.064713 
L 102.176699 282.175511 
L 102.176699 282.175623 
L 102.777018 282.31289 
L 103.283772 282.423943 
L 103.283772 282.423943 
L 103.394873 282.448046 
L 103.917144 282.55906 
L 104.028572 282.582774 
L 104.565346 282.693699 
L 104.565346 282.693825 
L 110.728411 283.788519 
L 111.44466 283.899382 
L 111.555516 283.916468 
L 112.295778 284.027569 
L 112.295778 284.027569 
L 112.406212 284.044066 
L 113.174375 284.155121 
L 113.174375 284.155121 
L 113.285413 284.171043 
L 114.078944 284.281907 
L 114.078944 284.281907 
L 114.189847 284.297256 
L 115.013529 284.408317 
L 115.124653 284.423159 
L 115.98629 284.534252 
L 115.98629 284.534252 
L 116.097053 284.548243 
L 137.209192 286.48716 
L 138.977539 286.598236 
L 139.088713 286.605123 
L 143.984628 286.898458 
L 144.359593 286.91942 
L 146.339615 287.030504 
L 146.452286 287.036568 
L 148.546976 287.147677 
L 148.671706 287.154386 
L 150.799047 287.265489 
L 154.761821 287.463464 
L 154.761821 287.463464 
L 154.871798 287.468877 
L 157.214992 287.579973 
L 157.214992 287.579979 
L 157.596974 287.597895 
L 160.3333 287.722334 
L 160.3333 287.722334 
L 160.443997 287.727303 
L 162.986969 287.838388 
L 163.578942 287.863522 
L 166.256218 287.974609 
L 166.256218 287.974609 
L 166.36715 287.979124 
L 169.174457 288.090201 
L 169.174457 288.090201 
L 169.284434 288.09452 
L 172.264763 288.205624 
L 172.264763 288.205624 
L 172.375681 288.209519 
L 175.657947 288.320621 
L 182.068927 288.528795 
L 182.326622 288.537032 
L 185.906345 288.648139 
L 185.906345 288.648139 
L 186.016727 288.651526 
L 189.787591 288.762616 
L 189.787591 288.762625 
L 194.507146 288.894384 
L 201.730417 289.081697 
L 201.730417 289.081697 
L 201.841021 289.084469 
L 210.039547 289.279259 
L 227.751485 289.646523 
L 233.796534 289.757628 
L 233.98246 289.760968 
L 240.395972 289.872079 
L 240.395972 289.872079 
L 240.50682 289.873953 
L 311.431736 290.721096 
L 323.337924 290.832202 
L 323.337924 290.832202 
L 323.448884 290.833216 
L 338.316677 290.964357 
L 338.316677 290.964357 
L 338.427059 290.965307 
L 351.930257 291.076417 
L 351.930257 291.076417 
L 352.040639 291.077304 
L 398.486542 291.402488 
L 398.486542 291.402488 
" clip-path="url(#p73c591ad02)" style="fill: none; stroke: #ff7f0e; stroke-width: 1.5; stroke-linecap: square"/>
   </g>
   <g id="line2d_33">
    <path d="M 73.832727 295.488 
L 73.841822 295.488 
L 73.841822 295.488 
L 73.861135 118.957675 
L 73.953098 166.659348 
L 73.953724 166.73163 
L 74.058768 185.226165 
L 74.058768 185.226165 
L 74.16758 201.812773 
L 74.180514 202.781071 
L 74.180514 202.781071 
L 74.291302 212.822628 
L 74.292109 212.925329 
L 74.351769 217.177701 
L 74.351769 217.177701 
L 74.462333 223.869987 
L 74.471079 224.361036 
L 74.929654 238.339363 
L 74.936959 238.441609 
L 74.936959 238.441609 
L 75.046684 240.344101 
L 75.053834 240.432078 
L 75.053834 240.439776 
L 75.209387 242.958673 
L 75.216973 243.059537 
L 75.216973 243.059537 
L 75.327426 244.708942 
L 75.335878 244.814363 
L 75.335878 244.814363 
L 75.446667 246.218283 
L 75.488273 246.663929 
L 75.59966 247.79118 
L 76.002416 251.553328 
L 76.016921 251.657731 
L 76.128035 252.562989 
L 76.144268 252.702371 
L 76.171932 252.889811 
L 76.283552 253.706458 
L 76.669327 255.983454 
L 76.689852 256.091681 
L 76.802019 256.674228 
L 76.82442 256.78032 
L 76.82442 256.781451 
L 76.96321 257.472181 
L 76.988776 257.582437 
L 76.988776 257.58276 
L 77.103833 258.089882 
L 77.133247 258.197063 
L 77.133247 258.199906 
L 77.286157 258.751362 
L 77.396843 259.137838 
L 77.469798 259.373604 
L 77.581271 259.756728 
L 78.051208 261.261508 
L 78.051208 261.261508 
L 78.161997 261.615379 
L 78.3645 262.235761 
L 78.404676 262.344211 
L 78.404676 262.344211 
L 78.515046 262.640753 
L 78.558708 262.751218 
L 78.670477 263.04494 
L 78.713804 263.155488 
L 79.150164 264.277815 
L 79.150164 264.277815 
L 79.260114 264.558955 
L 79.306919 264.669741 
L 79.584513 265.283337 
L 79.641138 265.39366 
L 79.753486 265.607266 
L 79.812063 265.717444 
L 79.923427 265.935943 
L 79.990208 266.061862 
L 79.990208 266.061862 
L 80.100996 266.268028 
L 80.165927 266.38212 
L 80.165927 266.38212 
L 80.276247 266.57151 
L 80.344487 266.682159 
L 80.344487 266.682159 
L 80.454924 266.86242 
L 80.523859 266.971879 
L 80.523859 266.972798 
L 80.773243 267.35672 
L 81.087947 267.807952 
L 81.087947 267.807952 
L 81.198669 267.962089 
L 81.278919 268.072471 
L 81.410978 268.26193 
L 81.503574 268.392896 
L 83.973283 271.392286 
L 84.072334 271.502634 
L 84.072334 271.502634 
L 84.182816 271.624923 
L 84.285795 271.735328 
L 84.285795 271.735328 
L 84.3966 271.852907 
L 84.504699 271.963985 
L 84.776429 272.237161 
L 84.776429 272.237161 
L 84.887267 272.345941 
L 85.002875 272.456533 
L 85.002875 272.45693 
L 85.202746 272.649935 
L 85.322017 272.760648 
L 85.432637 272.865005 
L 85.561687 272.981115 
L 85.771901 273.166651 
L 85.898922 273.2771 
L 85.898922 273.2771 
L 86.009648 273.373744 
L 86.140384 273.484175 
L 86.140384 273.484432 
L 86.366295 273.671372 
L 86.87248 274.06488 
L 86.87248 274.06488 
L 86.983387 274.151184 
L 87.127921 274.262134 
L 87.241351 274.348835 
L 87.389899 274.459043 
L 87.389899 274.459043 
L 87.500833 274.540426 
L 87.922844 274.835086 
L 88.24281 275.044294 
L 88.429607 275.163549 
L 88.623978 275.283307 
L 88.945244 275.477184 
L 89.13656 275.587487 
L 89.247735 275.651263 
L 90.207447 276.16206 
L 90.437594 276.272758 
L 90.437594 276.272943 
L 90.604883 276.352712 
L 90.843737 276.464042 
L 91.162385 276.607048 
L 91.513824 276.754135 
L 92.668337 277.210222 
L 92.779707 277.254256 
L 93.017702 277.346278 
L 93.313142 277.457144 
L 93.907783 277.674131 
L 94.095156 277.741629 
L 94.408754 277.852621 
L 94.521004 277.89097 
L 94.883819 278.010296 
L 102.434104 279.973934 
L 102.961552 280.084717 
L 102.961552 280.08482 
L 103.256986 280.147675 
L 103.780535 280.258764 
L 103.891282 280.282797 
L 104.464703 280.402726 
L 104.580767 280.426184 
L 106.007218 280.705258 
L 106.349382 280.773251 
L 106.911582 280.884214 
L 107.312883 280.963159 
L 108.849164 281.260563 
L 108.849164 281.260563 
L 108.959546 281.281248 
L 109.57639 281.392355 
L 109.57639 281.392355 
L 109.687097 281.412103 
L 110.313762 281.523069 
L 110.313762 281.523069 
L 110.424808 281.542216 
L 110.838666 281.61365 
L 111.481301 281.724552 
L 111.481301 281.724552 
L 111.591204 281.743259 
L 112.262501 281.854326 
L 112.262501 281.854326 
L 112.373501 281.872508 
L 113.07084 281.983565 
L 113.182772 282.00118 
L 113.933255 282.112279 
L 113.933255 282.112279 
L 114.044043 282.128606 
L 115.223351 282.297993 
L 115.223351 282.297993 
L 115.334271 282.313738 
L 116.156328 282.429842 
L 116.156328 282.429842 
L 116.266431 282.445656 
L 117.050987 282.556538 
L 117.050987 282.556611 
L 117.363637 282.600005 
L 118.194753 282.710868 
L 118.194753 282.710868 
L 118.305429 282.725268 
L 119.207325 282.836375 
L 119.321304 282.850329 
L 120.231348 282.963393 
L 120.674708 283.018212 
L 121.612888 283.129309 
L 144.044005 285.135564 
L 146.600078 285.303473 
L 155.476467 285.869483 
L 155.476467 285.869483 
L 155.586444 285.87604 
L 157.531531 285.98714 
L 157.531531 285.98714 
L 157.642214 285.993364 
L 163.249104 286.289345 
L 163.78519 286.316765 
L 171.900386 286.702776 
L 172.011474 286.707809 
L 174.572428 286.818891 
L 175.908606 286.874836 
L 178.632718 286.985919 
L 178.744464 286.990541 
L 181.55638 287.101629 
L 181.55638 287.10164 
L 182.622008 287.142483 
L 187.755332 287.331871 
L 187.866879 287.33591 
L 191.042465 287.446944 
L 191.042465 287.446996 
L 198.762262 287.699138 
L 199.421311 287.719483 
L 211.853616 288.067841 
L 211.969767 288.070865 
L 212.903 288.094937 
L 217.274273 288.206048 
L 224.768315 288.386107 
L 224.960591 288.390618 
L 229.824799 288.501723 
L 229.944527 288.504409 
L 235.055762 288.615506 
L 235.172279 288.618005 
L 240.626882 288.729113 
L 240.626882 288.729113 
L 240.737265 288.731302 
L 246.467641 288.842409 
L 260.144712 289.088274 
L 260.467744 289.093819 
L 269.785203 289.247628 
L 278.327588 289.378955 
L 278.446871 289.380736 
L 286.138591 289.491846 
L 286.138591 289.491846 
L 286.249311 289.493414 
L 325.761101 289.980378 
L 336.383764 290.091484 
L 336.383764 290.091484 
L 336.494552 290.092621 
L 351.380897 290.23784 
L 388.301314 290.555034 
L 388.301314 290.555034 
L 388.412398 290.55591 
L 398.486542 290.633005 
L 398.486542 290.633005 
" clip-path="url(#p73c591ad02)" style="fill: none; stroke: #2ca02c; stroke-width: 1.5; stroke-linecap: square"/>
   </g>
   <g id="line2d_34">
    <path d="M 73.832727 295.488 
L 73.837534 295.488 
L 73.837534 295.488 
L 73.855453 100.430003 
L 73.948746 169.741914 
L 73.949424 169.752861 
L 74.061083 193.210535 
L 74.061725 193.227001 
L 74.172793 209.504274 
L 74.811445 242.076604 
L 74.873519 243.644689 
L 74.989298 246.249768 
L 75.009194 246.636285 
L 75.009194 246.636285 
L 75.12019 248.772639 
L 75.12704 248.871573 
L 75.238146 250.576515 
L 75.352533 252.19471 
L 75.361542 252.295521 
L 75.472639 253.697079 
L 75.573962 254.917454 
L 75.707293 256.376028 
L 75.718971 256.484078 
L 75.718971 256.484078 
L 75.828947 257.569114 
L 75.842339 257.678657 
L 75.842339 257.678657 
L 75.953132 258.640799 
L 75.986655 258.916475 
L 76.09776 259.78594 
L 76.141219 260.107365 
L 76.252804 260.917328 
L 76.268704 261.024124 
L 76.995675 265.008552 
L 77.025706 265.133606 
L 77.025706 265.133606 
L 77.135631 265.597684 
L 77.166619 265.724467 
L 77.277864 266.201598 
L 77.32804 266.400373 
L 77.32804 266.400373 
L 77.438965 266.833542 
L 77.470904 266.950636 
L 77.734703 267.881662 
L 77.767136 267.987858 
L 77.767136 267.990237 
L 78.031323 268.859312 
L 78.067035 268.967747 
L 78.067035 268.967747 
L 78.176606 269.306089 
L 78.215159 269.415609 
L 78.215159 269.417061 
L 78.437953 270.041841 
L 78.480327 270.152895 
L 78.590148 270.450053 
L 78.632578 270.556689 
L 78.743534 270.841936 
L 78.787852 270.950361 
L 78.898859 271.222397 
L 78.945632 271.331425 
L 78.945632 271.331425 
L 79.05642 271.593479 
L 79.107333 271.703363 
L 79.390457 272.313208 
L 79.446512 272.4227 
L 79.558446 272.640122 
L 79.636949 272.78021 
L 79.749152 272.976857 
L 79.831533 273.116583 
L 79.831533 273.116583 
L 79.94234 273.308154 
L 80.363155 274.004841 
L 80.363155 274.004841 
L 80.474079 274.178053 
L 80.547802 274.288353 
L 80.547802 274.288353 
L 80.658673 274.456369 
L 80.734073 274.566834 
L 80.734073 274.566865 
L 80.850668 274.736971 
L 80.928035 274.847245 
L 81.119059 275.105244 
L 81.259202 275.287884 
L 81.259202 275.287884 
L 81.368773 275.428915 
L 81.46992 275.546895 
L 81.582233 275.67976 
L 81.683189 275.795135 
L 82.174084 276.334 
L 82.278042 276.443689 
L 82.389 276.564539 
L 82.549292 276.734371 
L 82.700686 276.888907 
L 82.831187 277.008148 
L 82.942233 277.109695 
L 83.063243 277.219927 
L 83.173853 277.32132 
L 83.303309 277.431721 
L 83.303309 277.431721 
L 83.413411 277.526041 
L 83.554727 277.636968 
L 83.666338 277.724671 
L 84.22797 278.165361 
L 84.404699 278.303555 
L 84.554852 278.414456 
L 84.554852 278.414456 
L 84.665818 278.49639 
L 86.471691 279.643027 
L 86.654556 279.754083 
L 86.654556 279.754083 
L 86.764533 279.820403 
L 86.957296 279.931042 
L 86.957296 279.931042 
L 87.06754 279.99415 
L 87.272964 280.105186 
L 87.384686 280.167774 
L 87.584479 280.278819 
L 91.407963 282.010121 
L 91.700975 282.120951 
L 91.866169 282.182147 
L 92.172061 282.292976 
L 92.172061 282.292976 
L 92.282972 282.332751 
L 92.59923 282.44372 
L 92.710736 282.482253 
L 93.038077 282.593121 
L 93.038077 282.593121 
L 93.148824 282.630372 
L 94.77013 283.137292 
L 95.604648 283.372609 
L 96.028968 283.483581 
L 96.140964 283.512439 
L 96.591619 283.623282 
L 97.367808 283.808617 
L 97.905056 283.935112 
L 97.905056 283.935112 
L 98.015845 283.961334 
L 98.497711 284.072297 
L 98.607671 284.097478 
L 99.123836 284.208517 
L 99.234923 284.23191 
L 99.806534 284.342982 
L 101.592649 284.654957 
L 102.246094 284.766027 
L 102.246094 284.766027 
L 102.35672 284.78466 
L 103.032976 284.895666 
L 103.032976 284.895699 
L 103.404706 284.95837 
L 104.06416 285.069404 
L 104.06416 285.069436 
L 104.911103 285.207368 
L 105.616651 285.318394 
L 108.369081 285.707455 
L 108.369081 285.707455 
L 108.479869 285.72206 
L 109.345177 285.833141 
L 109.45655 285.847289 
L 110.367628 285.958314 
L 110.558607 285.981587 
L 111.479096 286.092679 
L 111.953675 286.148554 
L 112.915094 286.259599 
L 116.695816 286.657462 
L 117.841918 286.768553 
L 117.954866 286.77921 
L 119.160379 286.890305 
L 119.275939 286.900758 
L 122.995757 287.202616 
L 124.470713 287.313682 
L 133.786006 287.918358 
L 135.677557 288.029469 
L 135.834614 288.038067 
L 140.844816 288.290759 
L 141.727749 288.334769 
L 144.195374 288.451966 
L 144.307942 288.457413 
L 146.809406 288.573555 
L 148.152664 288.634671 
L 150.670272 288.74575 
L 150.783413 288.750688 
L 152.839106 288.838324 
L 155.556693 288.949401 
L 159.298058 289.092192 
L 162.420423 289.203291 
L 162.420423 289.203291 
L 162.531056 289.207122 
L 172.090381 289.514113 
L 172.20876 289.51769 
L 199.897336 290.199559 
L 205.392521 290.310649 
L 205.392521 290.310649 
L 205.50238 290.312835 
L 211.430225 290.423934 
L 213.466857 290.459955 
L 220.095775 290.57106 
L 220.213817 290.573016 
L 227.231632 290.684118 
L 227.231632 290.684118 
L 227.342742 290.685813 
L 241.925095 290.885037 
L 241.925095 290.885037 
L 242.035072 290.886411 
L 254.063386 291.027141 
L 254.180029 291.028427 
L 264.713591 291.139537 
L 264.836305 291.140793 
L 276.67808 291.2519 
L 286.340972 291.336931 
L 300.739933 291.448037 
L 300.739933 291.448038 
L 301.498813 291.453652 
L 316.812772 291.564761 
L 316.812772 291.564761 
L 316.92356 291.565544 
L 334.275324 291.676652 
L 334.446794 291.677702 
L 364.721041 291.843849 
L 371.42866 291.874459 
L 388.118527 291.94541 
L 398.487198 291.985668 
L 398.487198 291.985668 
" clip-path="url(#p73c591ad02)" style="fill: none; stroke: #d62728; stroke-width: 1.5; stroke-linecap: square"/>
   </g>
   <g id="line2d_35">
    <path d="M 73.832727 295.488 
L 73.838587 295.488 
L 73.838587 295.488 
L 73.854916 53.568 
L 73.949755 152.233062 
L 73.950009 152.233062 
L 73.950009 152.233062 
L 74.060589 192.636944 
L 74.294477 222.610646 
L 74.296983 222.70592 
L 74.296983 222.70592 
L 74.407011 230.071826 
L 74.40931 230.146159 
L 74.54098 236.536858 
L 74.544127 236.61631 
L 74.544127 236.617885 
L 74.659711 240.839337 
L 74.672001 241.202278 
L 74.810055 244.933947 
L 74.945989 247.768206 
L 74.952786 247.878568 
L 74.952786 247.878568 
L 75.063572 249.874844 
L 75.421822 255.100709 
L 75.430434 255.201475 
L 75.430434 255.201475 
L 75.540692 256.529411 
L 75.551368 256.639729 
L 75.551368 256.639729 
L 75.662156 257.835313 
L 75.805816 259.219197 
L 75.936083 260.337141 
L 75.949475 260.436524 
L 75.949475 260.447111 
L 76.452767 263.898912 
L 76.47136 264.007691 
L 76.647433 265.002856 
L 76.667641 265.109833 
L 76.807046 265.829212 
L 76.933205 266.437608 
L 77.095944 267.171232 
L 78.029022 270.358111 
L 78.149899 270.671588 
L 78.260797 270.968117 
L 78.305287 271.078949 
L 78.460762 271.46318 
L 78.514519 271.585878 
L 78.625776 271.838658 
L 78.689155 271.975037 
L 78.861921 272.351886 
L 78.916257 272.462906 
L 79.037753 272.714405 
L 79.092538 272.823619 
L 79.092538 272.825444 
L 79.161589 272.960246 
L 79.292201 273.207195 
L 79.360618 273.33 
L 79.472193 273.524595 
L 79.540943 273.635274 
L 79.698425 273.88042 
L 79.769705 273.990723 
L 79.969823 274.292795 
L 80.044388 274.402988 
L 80.157906 274.572208 
L 80.236946 274.683183 
L 80.236946 274.683183 
L 80.347604 274.842239 
L 80.444725 274.973585 
L 80.444725 274.973585 
L 80.555486 275.129491 
L 80.639596 275.240524 
L 80.760506 275.403008 
L 80.846485 275.513627 
L 80.846485 275.513627 
L 80.957213 275.658485 
L 81.044282 275.769349 
L 81.158178 275.908703 
L 81.250827 276.019711 
L 81.36208 276.152423 
L 81.566982 276.384087 
L 81.667049 276.493612 
L 81.667049 276.493612 
L 81.777432 276.615784 
L 81.880504 276.726642 
L 82.548568 277.39811 
L 82.666985 277.508204 
L 82.666985 277.508204 
L 82.777795 277.612678 
L 83.144333 277.940035 
L 83.314693 278.08858 
L 83.439784 278.198218 
L 83.55109 278.294839 
L 83.815632 278.51489 
L 83.953835 278.625217 
L 83.953835 278.625758 
L 85.401795 279.623816 
L 85.401795 279.623816 
L 85.511366 279.692784 
L 85.693095 279.803689 
L 85.831904 279.887257 
L 86.081485 280.034124 
L 86.27471 280.144365 
L 86.27471 280.144792 
L 87.258414 280.661619 
L 87.526659 280.791924 
L 87.526659 280.791924 
L 87.637581 280.844085 
L 87.92829 280.977417 
L 88.069043 281.039226 
L 88.405536 281.177058 
L 89.320782 281.520413 
L 89.63448 281.631222 
L 89.63448 281.631222 
L 89.745312 281.668856 
L 90.085749 281.779768 
L 90.085749 281.779768 
L 90.196341 281.814945 
L 90.563813 281.936621 
L 90.674479 281.97437 
L 91.01832 282.085194 
L 91.01832 282.085368 
L 91.382745 282.199022 
L 91.748793 282.3096 
L 91.748793 282.309867 
L 92.563884 282.557942 
L 92.936483 282.668936 
L 93.047716 282.702425 
L 93.437868 282.815267 
L 93.613934 282.864427 
L 94.010132 282.97549 
L 94.719276 283.175305 
L 95.12544 283.28613 
L 95.236508 283.316356 
L 95.83376 283.470634 
L 95.83376 283.470634 
L 95.944787 283.499423 
L 96.423819 283.615863 
L 96.423819 283.615863 
L 96.534202 283.642318 
L 97.030451 283.753912 
L 97.142848 283.777868 
L 97.765049 283.906682 
L 97.765049 283.906682 
L 97.875206 283.929079 
L 98.441954 284.039995 
L 98.441954 284.04003 
L 98.616861 284.074293 
L 99.183233 284.185344 
L 99.295371 284.2067 
L 99.871459 284.317513 
L 99.98237 284.339704 
L 100.548454 284.450645 
L 100.662163 284.472883 
L 101.238448 284.583862 
L 101.238448 284.583862 
L 101.349501 284.605176 
L 101.934529 284.716176 
L 102.046026 284.737278 
L 102.349132 284.79414 
L 102.963664 284.905159 
L 103.076236 284.92512 
L 103.724644 285.036109 
L 103.859057 285.058743 
L 104.534504 285.169791 
L 104.534504 285.169817 
L 105.22738 285.280263 
L 105.980028 285.397243 
L 105.980028 285.397243 
L 106.090118 285.414282 
L 106.843011 285.525374 
L 108.694299 285.78268 
L 109.550012 285.893786 
L 109.550012 285.893786 
L 109.6608 285.907892 
L 110.554625 286.019003 
L 111.844601 286.168345 
L 111.956942 286.181329 
L 112.970248 286.292419 
L 112.970248 286.292419 
L 113.081037 286.304004 
L 116.183432 286.617674 
L 117.332795 286.728782 
L 117.332795 286.728782 
L 117.443583 286.739477 
L 118.620862 286.850487 
L 118.620862 286.850487 
L 118.731842 286.860786 
L 119.96615 286.971864 
L 119.96615 286.971864 
L 120.076532 286.981726 
L 121.353642 287.092823 
L 121.353642 287.092827 
L 121.509475 287.106172 
L 122.915231 287.222956 
L 123.317777 287.255703 
L 124.736118 287.367514 
L 130.418413 287.781286 
L 132.108233 287.892327 
L 132.108233 287.892327 
L 132.219249 287.899466 
L 134.177094 288.020815 
L 139.72955 288.332291 
L 141.99764 288.450813 
L 142.684263 288.485728 
L 146.310655 288.657624 
L 146.310655 288.657624 
L 146.421092 288.662588 
L 149.602186 288.802969 
L 149.713441 288.807787 
L 152.334216 288.918892 
L 152.334216 288.918892 
L 152.445004 288.923532 
L 155.66206 289.051769 
L 185.935599 289.920768 
L 191.121921 290.03187 
L 191.121921 290.03187 
L 191.232304 290.034248 
L 196.81665 290.150787 
L 197.45899 290.163703 
L 203.228016 290.2748 
L 206.162359 290.327494 
L 212.446499 290.438599 
L 220.04662 290.566653 
L 227.446767 290.682872 
L 227.559467 290.684555 
L 228.138603 290.693232 
L 235.804138 290.804331 
L 235.804138 290.804332 
L 236.142184 290.809145 
L 244.216345 290.920246 
L 244.216345 290.920253 
L 250.558473 291.002401 
L 259.72896 291.113504 
L 259.863221 291.115095 
L 269.832812 291.22619 
L 269.832812 291.22619 
L 269.943897 291.227377 
L 374.762811 292.043365 
L 395.343479 292.154474 
L 395.343479 292.154475 
L 398.485022 292.170474 
L 398.485022 292.170474 
" clip-path="url(#p73c591ad02)" style="fill: none; stroke: #9467bd; stroke-width: 1.5; stroke-linecap: square"/>
   </g>
   <g id="patch_3">
    <path d="M 57.6 307.584 
L 57.6 41.472 
" style="fill: none; stroke: #000000; stroke-width: 0.8; stroke-linejoin: miter; stroke-linecap: square"/>
   </g>
   <g id="patch_4">
    <path d="M 414.72 307.584 
L 414.72 41.472 
" style="fill: none; stroke: #000000; stroke-width: 0.8; stroke-linejoin: miter; stroke-linecap: square"/>
   </g>
   <g id="patch_5">
    <path d="M 57.6 307.584 
L 414.72 307.584 
" style="fill: none; stroke: #000000; stroke-width: 0.8; stroke-linejoin: miter; stroke-linecap: square"/>
   </g>
   <g id="patch_6">
    <path d="M 57.6 41.472 
L 414.72 41.472 
" style="fill: none; stroke: #000000; stroke-width: 0.8; stroke-linejoin: miter; stroke-linecap: square"/>
   </g>
   <g id="text_18">
    <!-- ioChannelLoadStdDev vs. TimePoint for Each Run -->
    <g transform="translate(87.945 35.472) scale(0.12 -0.12)">
     <defs>
      <path id="DejaVuSans-20" transform="scale(0.015625)"/>
      <path id="DejaVuSans-73" d="M 2834 3397 
L 2834 2853 
Q 2591 2978 2328 3040 
Q 2066 3103 1784 3103 
Q 1356 3103 1142 2972 
Q 928 2841 928 2578 
Q 928 2378 1081 2264 
Q 1234 2150 1697 2047 
L 1894 2003 
Q 2506 1872 2764 1633 
Q 3022 1394 3022 966 
Q 3022 478 2636 193 
Q 2250 -91 1575 -91 
Q 1294 -91 989 -36 
Q 684 19 347 128 
L 347 722 
Q 666 556 975 473 
Q 1284 391 1588 391 
Q 1994 391 2212 530 
Q 2431 669 2431 922 
Q 2431 1156 2273 1281 
Q 2116 1406 1581 1522 
L 1381 1569 
Q 847 1681 609 1914 
Q 372 2147 372 2553 
Q 372 3047 722 3315 
Q 1072 3584 1716 3584 
Q 2034 3584 2315 3537 
Q 2597 3491 2834 3397 
z
" transform="scale(0.015625)"/>
      <path id="DejaVuSans-66" d="M 2375 4863 
L 2375 4384 
L 1825 4384 
Q 1516 4384 1395 4259 
Q 1275 4134 1275 3809 
L 1275 3500 
L 2222 3500 
L 2222 3053 
L 1275 3053 
L 1275 0 
L 697 0 
L 697 3053 
L 147 3053 
L 147 3500 
L 697 3500 
L 697 3744 
Q 697 4328 969 4595 
Q 1241 4863 1831 4863 
L 2375 4863 
z
" transform="scale(0.015625)"/>
      <path id="DejaVuSans-72" d="M 2631 2963 
Q 2534 3019 2420 3045 
Q 2306 3072 2169 3072 
Q 1681 3072 1420 2755 
Q 1159 2438 1159 1844 
L 1159 0 
L 581 0 
L 581 3500 
L 1159 3500 
L 1159 2956 
Q 1341 3275 1631 3429 
Q 1922 3584 2338 3584 
Q 2397 3584 2469 3576 
Q 2541 3569 2628 3553 
L 2631 2963 
z
" transform="scale(0.015625)"/>
      <path id="DejaVuSans-45" d="M 628 4666 
L 3578 4666 
L 3578 4134 
L 1259 4134 
L 1259 2753 
L 3481 2753 
L 3481 2222 
L 1259 2222 
L 1259 531 
L 3634 531 
L 3634 0 
L 628 0 
L 628 4666 
z
" transform="scale(0.015625)"/>
      <path id="DejaVuSans-63" d="M 3122 3366 
L 3122 2828 
Q 2878 2963 2633 3030 
Q 2388 3097 2138 3097 
Q 1578 3097 1268 2742 
Q 959 2388 959 1747 
Q 959 1106 1268 751 
Q 1578 397 2138 397 
Q 2388 397 2633 464 
Q 2878 531 3122 666 
L 3122 134 
Q 2881 22 2623 -34 
Q 2366 -91 2075 -91 
Q 1284 -91 818 406 
Q 353 903 353 1747 
Q 353 2603 823 3093 
Q 1294 3584 2113 3584 
Q 2378 3584 2631 3529 
Q 2884 3475 3122 3366 
z
" transform="scale(0.015625)"/>
      <path id="DejaVuSans-52" d="M 2841 2188 
Q 3044 2119 3236 1894 
Q 3428 1669 3622 1275 
L 4263 0 
L 3584 0 
L 2988 1197 
Q 2756 1666 2539 1819 
Q 2322 1972 1947 1972 
L 1259 1972 
L 1259 0 
L 628 0 
L 628 4666 
L 2053 4666 
Q 2853 4666 3247 4331 
Q 3641 3997 3641 3322 
Q 3641 2881 3436 2590 
Q 3231 2300 2841 2188 
z
M 1259 4147 
L 1259 2491 
L 2053 2491 
Q 2509 2491 2742 2702 
Q 2975 2913 2975 3322 
Q 2975 3731 2742 3939 
Q 2509 4147 2053 4147 
L 1259 4147 
z
" transform="scale(0.015625)"/>
      <path id="DejaVuSans-75" d="M 544 1381 
L 544 3500 
L 1119 3500 
L 1119 1403 
Q 1119 906 1312 657 
Q 1506 409 1894 409 
Q 2359 409 2629 706 
Q 2900 1003 2900 1516 
L 2900 3500 
L 3475 3500 
L 3475 0 
L 2900 0 
L 2900 538 
Q 2691 219 2414 64 
Q 2138 -91 1772 -91 
Q 1169 -91 856 284 
Q 544 659 544 1381 
z
M 1991 3584 
L 1991 3584 
z
" transform="scale(0.015625)"/>
     </defs>
     <use xlink:href="#DejaVuSans-69"/>
     <use xlink:href="#DejaVuSans-6f" x="27.783203"/>
     <use xlink:href="#DejaVuSans-43" x="88.964844"/>
     <use xlink:href="#DejaVuSans-68" x="158.789062"/>
     <use xlink:href="#DejaVuSans-61" x="222.167969"/>
     <use xlink:href="#DejaVuSans-6e" x="283.447266"/>
     <use xlink:href="#DejaVuSans-6e" x="346.826172"/>
     <use xlink:href="#DejaVuSans-65" x="410.205078"/>
     <use xlink:href="#DejaVuSans-6c" x="471.728516"/>
     <use xlink:href="#DejaVuSans-4c" x="499.511719"/>
     <use xlink:href="#DejaVuSans-6f" x="553.474609"/>
     <use xlink:href="#DejaVuSans-61" x="614.65625"/>
     <use xlink:href="#DejaVuSans-64" x="675.935547"/>
     <use xlink:href="#DejaVuSans-53" x="739.412109"/>
     <use xlink:href="#DejaVuSans-74" x="802.888672"/>
     <use xlink:href="#DejaVuSans-64" x="842.097656"/>
     <use xlink:href="#DejaVuSans-44" x="905.574219"/>
     <use xlink:href="#DejaVuSans-65" x="982.576172"/>
     <use xlink:href="#DejaVuSans-76" x="1044.099609"/>
     <use xlink:href="#DejaVuSans-20" x="1103.279297"/>
     <use xlink:href="#DejaVuSans-76" x="1135.066406"/>
     <use xlink:href="#DejaVuSans-73" x="1194.246094"/>
     <use xlink:href="#DejaVuSans-2e" x="1246.345703"/>
     <use xlink:href="#DejaVuSans-20" x="1278.132812"/>
     <use xlink:href="#DejaVuSans-54" x="1309.919922"/>
     <use xlink:href="#DejaVuSans-69" x="1367.878906"/>
     <use xlink:href="#DejaVuSans-6d" x="1395.662109"/>
     <use xlink:href="#DejaVuSans-65" x="1493.074219"/>
     <use xlink:href="#DejaVuSans-50" x="1554.597656"/>
     <use xlink:href="#DejaVuSans-6f" x="1611.275391"/>
     <use xlink:href="#DejaVuSans-69" x="1672.457031"/>
     <use xlink:href="#DejaVuSans-6e" x="1700.240234"/>
     <use xlink:href="#DejaVuSans-74" x="1763.619141"/>
     <use xlink:href="#DejaVuSans-20" x="1802.828125"/>
     <use xlink:href="#DejaVuSans-66" x="1834.615234"/>
     <use xlink:href="#DejaVuSans-6f" x="1869.820312"/>
     <use xlink:href="#DejaVuSans-72" x="1931.001953"/>
     <use xlink:href="#DejaVuSans-20" x="1972.115234"/>
     <use xlink:href="#DejaVuSans-45" x="2003.902344"/>
     <use xlink:href="#DejaVuSans-61" x="2067.085938"/>
     <use xlink:href="#DejaVuSans-63" x="2128.365234"/>
     <use xlink:href="#DejaVuSans-68" x="2183.345703"/>
     <use xlink:href="#DejaVuSans-20" x="2246.724609"/>
     <use xlink:href="#DejaVuSans-52" x="2278.511719"/>
     <use xlink:href="#DejaVuSans-75" x="2343.494141"/>
     <use xlink:href="#DejaVuSans-6e" x="2406.873047"/>
    </g>
   </g>
   <g id="legend_1">
    <g id="patch_7">
     <path d="M 341.196563 137.54075 
L 407.72 137.54075 
Q 409.72 137.54075 409.72 135.54075 
L 409.72 48.472 
Q 409.72 46.472 407.72 46.472 
L 341.196563 46.472 
Q 339.196563 46.472 339.196563 48.472 
L 339.196563 135.54075 
Q 339.196563 137.54075 341.196563 137.54075 
z
" style="fill: #ffffff; opacity: 0.8; stroke: #cccccc; stroke-linejoin: miter"/>
    </g>
    <g id="text_19">
     <!-- Run Number -->
     <g transform="translate(343.196563 58.070438) scale(0.1 -0.1)">
      <defs>
       <path id="DejaVuSans-4e" d="M 628 4666 
L 1478 4666 
L 3547 763 
L 3547 4666 
L 4159 4666 
L 4159 0 
L 3309 0 
L 1241 3903 
L 1241 0 
L 628 0 
L 628 4666 
z
" transform="scale(0.015625)"/>
       <path id="DejaVuSans-62" d="M 3116 1747 
Q 3116 2381 2855 2742 
Q 2594 3103 2138 3103 
Q 1681 3103 1420 2742 
Q 1159 2381 1159 1747 
Q 1159 1113 1420 752 
Q 1681 391 2138 391 
Q 2594 391 2855 752 
Q 3116 1113 3116 1747 
z
M 1159 2969 
Q 1341 3281 1617 3432 
Q 1894 3584 2278 3584 
Q 2916 3584 3314 3078 
Q 3713 2572 3713 1747 
Q 3713 922 3314 415 
Q 2916 -91 2278 -91 
Q 1894 -91 1617 61 
Q 1341 213 1159 525 
L 1159 0 
L 581 0 
L 581 4863 
L 1159 4863 
L 1159 2969 
z
" transform="scale(0.015625)"/>
      </defs>
      <use xlink:href="#DejaVuSans-52"/>
      <use xlink:href="#DejaVuSans-75" x="64.982422"/>
      <use xlink:href="#DejaVuSans-6e" x="128.361328"/>
      <use xlink:href="#DejaVuSans-20" x="191.740234"/>
      <use xlink:href="#DejaVuSans-4e" x="223.527344"/>
      <use xlink:href="#DejaVuSans-75" x="298.332031"/>
      <use xlink:href="#DejaVuSans-6d" x="361.710938"/>
      <use xlink:href="#DejaVuSans-62" x="459.123047"/>
      <use xlink:href="#DejaVuSans-65" x="522.599609"/>
      <use xlink:href="#DejaVuSans-72" x="584.123047"/>
     </g>
    </g>
    <g id="line2d_36">
     <path d="M 346.10125 69.248563 
L 356.10125 69.248563 
L 366.10125 69.248563 
" style="fill: none; stroke: #1f77b4; stroke-width: 1.5; stroke-linecap: square"/>
    </g>
    <g id="text_20">
     <!-- Run 0 -->
     <g transform="translate(374.10125 72.748563) scale(0.1 -0.1)">
      <use xlink:href="#DejaVuSans-52"/>
      <use xlink:href="#DejaVuSans-75" x="64.982422"/>
      <use xlink:href="#DejaVuSans-6e" x="128.361328"/>
      <use xlink:href="#DejaVuSans-20" x="191.740234"/>
      <use xlink:href="#DejaVuSans-30" x="223.527344"/>
     </g>
    </g>
    <g id="line2d_37">
     <path d="M 346.10125 83.926688 
L 356.10125 83.926688 
L 366.10125 83.926688 
" style="fill: none; stroke: #ff7f0e; stroke-width: 1.5; stroke-linecap: square"/>
    </g>
    <g id="text_21">
     <!-- Run 1 -->
     <g transform="translate(374.10125 87.426688) scale(0.1 -0.1)">
      <use xlink:href="#DejaVuSans-52"/>
      <use xlink:href="#DejaVuSans-75" x="64.982422"/>
      <use xlink:href="#DejaVuSans-6e" x="128.361328"/>
      <use xlink:href="#DejaVuSans-20" x="191.740234"/>
      <use xlink:href="#DejaVuSans-31" x="223.527344"/>
     </g>
    </g>
    <g id="line2d_38">
     <path d="M 346.10125 98.604813 
L 356.10125 98.604813 
L 366.10125 98.604813 
" style="fill: none; stroke: #2ca02c; stroke-width: 1.5; stroke-linecap: square"/>
    </g>
    <g id="text_22">
     <!-- Run 2 -->
     <g transform="translate(374.10125 102.104813) scale(0.1 -0.1)">
      <use xlink:href="#DejaVuSans-52"/>
      <use xlink:href="#DejaVuSans-75" x="64.982422"/>
      <use xlink:href="#DejaVuSans-6e" x="128.361328"/>
      <use xlink:href="#DejaVuSans-20" x="191.740234"/>
      <use xlink:href="#DejaVuSans-32" x="223.527344"/>
     </g>
    </g>
    <g id="line2d_39">
     <path d="M 346.10125 113.282938 
L 356.10125 113.282938 
L 366.10125 113.282938 
" style="fill: none; stroke: #d62728; stroke-width: 1.5; stroke-linecap: square"/>
    </g>
    <g id="text_23">
     <!-- Run 3 -->
     <g transform="translate(374.10125 116.782938) scale(0.1 -0.1)">
      <use xlink:href="#DejaVuSans-52"/>
      <use xlink:href="#DejaVuSans-75" x="64.982422"/>
      <use xlink:href="#DejaVuSans-6e" x="128.361328"/>
      <use xlink:href="#DejaVuSans-20" x="191.740234"/>
      <use xlink:href="#DejaVuSans-33" x="223.527344"/>
     </g>
    </g>
    <g id="line2d_40">
     <path d="M 346.10125 127.961063 
L 356.10125 127.961063 
L 366.10125 127.961063 
" style="fill: none; stroke: #9467bd; stroke-width: 1.5; stroke-linecap: square"/>
    </g>
    <g id="text_24">
     <!-- Run 4 -->
     <g transform="translate(374.10125 131.461063) scale(0.1 -0.1)">
      <use xlink:href="#DejaVuSans-52"/>
      <use xlink:href="#DejaVuSans-75" x="64.982422"/>
      <use xlink:href="#DejaVuSans-6e" x="128.361328"/>
      <use xlink:href="#DejaVuSans-20" x="191.740234"/>
      <use xlink:href="#DejaVuSans-34" x="223.527344"/>
     </g>
    </g>
   </g>
  </g>
 </g>
 <defs>
  <clipPath id="p73c591ad02">
   <rect x="57.6" y="41.472" width="357.12" height="266.112"/>
  </clipPath>
 </defs>
</svg>
