<?xml version="1.0" encoding="utf-8" standalone="no"?>
<!DOCTYPE svg PUBLIC "-//W3C//DTD SVG 1.1//EN"
  "http://www.w3.org/Graphics/SVG/1.1/DTD/svg11.dtd">
<svg xmlns:xlink="http://www.w3.org/1999/xlink" width="460.8pt" height="345.6pt" viewBox="0 0 460.8 345.6" xmlns="http://www.w3.org/2000/svg" version="1.1">
 <metadata>
  <rdf:RDF xmlns:dc="http://purl.org/dc/elements/1.1/" xmlns:cc="http://creativecommons.org/ns#" xmlns:rdf="http://www.w3.org/1999/02/22-rdf-syntax-ns#">
   <cc:Work>
    <dc:type rdf:resource="http://purl.org/dc/dcmitype/StillImage"/>
    <dc:date>2024-12-03T12:48:42.257439</dc:date>
    <dc:format>image/svg+xml</dc:format>
    <dc:creator>
     <cc:Agent>
      <dc:title>Matplotlib v3.9.2, https://matplotlib.org/</dc:title>
     </cc:Agent>
    </dc:creator>
   </cc:Work>
  </rdf:RDF>
 </metadata>
 <defs>
  <style type="text/css">*{stroke-linejoin: round; stroke-linecap: butt}</style>
 </defs>
 <g id="figure_1">
  <g id="patch_1">
   <path d="M 0 345.6 
L 460.8 345.6 
L 460.8 0 
L 0 0 
z
" style="fill: #ffffff"/>
  </g>
  <g id="axes_1">
   <g id="patch_2">
    <path d="M 57.6 307.584 
L 414.72 307.584 
L 414.72 41.472 
L 57.6 41.472 
z
" style="fill: #ffffff"/>
   </g>
   <g id="matplotlib.axis_1">
    <g id="xtick_1">
     <g id="line2d_1">
      <path d="M 73.832727 307.584 
L 73.832727 41.472 
" clip-path="url(#pd48a75deae)" style="fill: none; stroke: #b0b0b0; stroke-width: 0.8; stroke-linecap: square"/>
     </g>
     <g id="line2d_2">
      <defs>
       <path id="m5fc31f88fa" d="M 0 0 
L 0 3.5 
" style="stroke: #000000; stroke-width: 0.8"/>
      </defs>
      <g>
       <use xlink:href="#m5fc31f88fa" x="73.832727" y="307.584" style="stroke: #000000; stroke-width: 0.8"/>
      </g>
     </g>
     <g id="text_1">
      <!-- 0 -->
      <g transform="translate(70.651477 322.182437) scale(0.1 -0.1)">
       <defs>
        <path id="DejaVuSans-30" d="M 2034 4250 
Q 1547 4250 1301 3770 
Q 1056 3291 1056 2328 
Q 1056 1369 1301 889 
Q 1547 409 2034 409 
Q 2525 409 2770 889 
Q 3016 1369 3016 2328 
Q 3016 3291 2770 3770 
Q 2525 4250 2034 4250 
z
M 2034 4750 
Q 2819 4750 3233 4129 
Q 3647 3509 3647 2328 
Q 3647 1150 3233 529 
Q 2819 -91 2034 -91 
Q 1250 -91 836 529 
Q 422 1150 422 2328 
Q 422 3509 836 4129 
Q 1250 4750 2034 4750 
z
" transform="scale(0.015625)"/>
       </defs>
       <use xlink:href="#DejaVuSans-30"/>
      </g>
     </g>
    </g>
    <g id="xtick_2">
     <g id="line2d_3">
      <path d="M 114.41458 307.584 
L 114.41458 41.472 
" clip-path="url(#pd48a75deae)" style="fill: none; stroke: #b0b0b0; stroke-width: 0.8; stroke-linecap: square"/>
     </g>
     <g id="line2d_4">
      <g>
       <use xlink:href="#m5fc31f88fa" x="114.41458" y="307.584" style="stroke: #000000; stroke-width: 0.8"/>
      </g>
     </g>
     <g id="text_2">
      <!-- 100000 -->
      <g transform="translate(95.32708 322.182437) scale(0.1 -0.1)">
       <defs>
        <path id="DejaVuSans-31" d="M 794 531 
L 1825 531 
L 1825 4091 
L 703 3866 
L 703 4441 
L 1819 4666 
L 2450 4666 
L 2450 531 
L 3481 531 
L 3481 0 
L 794 0 
L 794 531 
z
" transform="scale(0.015625)"/>
       </defs>
       <use xlink:href="#DejaVuSans-31"/>
       <use xlink:href="#DejaVuSans-30" x="63.623047"/>
       <use xlink:href="#DejaVuSans-30" x="127.246094"/>
       <use xlink:href="#DejaVuSans-30" x="190.869141"/>
       <use xlink:href="#DejaVuSans-30" x="254.492188"/>
       <use xlink:href="#DejaVuSans-30" x="318.115234"/>
      </g>
     </g>
    </g>
    <g id="xtick_3">
     <g id="line2d_5">
      <path d="M 154.996433 307.584 
L 154.996433 41.472 
" clip-path="url(#pd48a75deae)" style="fill: none; stroke: #b0b0b0; stroke-width: 0.8; stroke-linecap: square"/>
     </g>
     <g id="line2d_6">
      <g>
       <use xlink:href="#m5fc31f88fa" x="154.996433" y="307.584" style="stroke: #000000; stroke-width: 0.8"/>
      </g>
     </g>
     <g id="text_3">
      <!-- 200000 -->
      <g transform="translate(135.908933 322.182437) scale(0.1 -0.1)">
       <defs>
        <path id="DejaVuSans-32" d="M 1228 531 
L 3431 531 
L 3431 0 
L 469 0 
L 469 531 
Q 828 903 1448 1529 
Q 2069 2156 2228 2338 
Q 2531 2678 2651 2914 
Q 2772 3150 2772 3378 
Q 2772 3750 2511 3984 
Q 2250 4219 1831 4219 
Q 1534 4219 1204 4116 
Q 875 4013 500 3803 
L 500 4441 
Q 881 4594 1212 4672 
Q 1544 4750 1819 4750 
Q 2544 4750 2975 4387 
Q 3406 4025 3406 3419 
Q 3406 3131 3298 2873 
Q 3191 2616 2906 2266 
Q 2828 2175 2409 1742 
Q 1991 1309 1228 531 
z
" transform="scale(0.015625)"/>
       </defs>
       <use xlink:href="#DejaVuSans-32"/>
       <use xlink:href="#DejaVuSans-30" x="63.623047"/>
       <use xlink:href="#DejaVuSans-30" x="127.246094"/>
       <use xlink:href="#DejaVuSans-30" x="190.869141"/>
       <use xlink:href="#DejaVuSans-30" x="254.492188"/>
       <use xlink:href="#DejaVuSans-30" x="318.115234"/>
      </g>
     </g>
    </g>
    <g id="xtick_4">
     <g id="line2d_7">
      <path d="M 195.578286 307.584 
L 195.578286 41.472 
" clip-path="url(#pd48a75deae)" style="fill: none; stroke: #b0b0b0; stroke-width: 0.8; stroke-linecap: square"/>
     </g>
     <g id="line2d_8">
      <g>
       <use xlink:href="#m5fc31f88fa" x="195.578286" y="307.584" style="stroke: #000000; stroke-width: 0.8"/>
      </g>
     </g>
     <g id="text_4">
      <!-- 300000 -->
      <g transform="translate(176.490786 322.182437) scale(0.1 -0.1)">
       <defs>
        <path id="DejaVuSans-33" d="M 2597 2516 
Q 3050 2419 3304 2112 
Q 3559 1806 3559 1356 
Q 3559 666 3084 287 
Q 2609 -91 1734 -91 
Q 1441 -91 1130 -33 
Q 819 25 488 141 
L 488 750 
Q 750 597 1062 519 
Q 1375 441 1716 441 
Q 2309 441 2620 675 
Q 2931 909 2931 1356 
Q 2931 1769 2642 2001 
Q 2353 2234 1838 2234 
L 1294 2234 
L 1294 2753 
L 1863 2753 
Q 2328 2753 2575 2939 
Q 2822 3125 2822 3475 
Q 2822 3834 2567 4026 
Q 2313 4219 1838 4219 
Q 1578 4219 1281 4162 
Q 984 4106 628 3988 
L 628 4550 
Q 988 4650 1302 4700 
Q 1616 4750 1894 4750 
Q 2613 4750 3031 4423 
Q 3450 4097 3450 3541 
Q 3450 3153 3228 2886 
Q 3006 2619 2597 2516 
z
" transform="scale(0.015625)"/>
       </defs>
       <use xlink:href="#DejaVuSans-33"/>
       <use xlink:href="#DejaVuSans-30" x="63.623047"/>
       <use xlink:href="#DejaVuSans-30" x="127.246094"/>
       <use xlink:href="#DejaVuSans-30" x="190.869141"/>
       <use xlink:href="#DejaVuSans-30" x="254.492188"/>
       <use xlink:href="#DejaVuSans-30" x="318.115234"/>
      </g>
     </g>
    </g>
    <g id="xtick_5">
     <g id="line2d_9">
      <path d="M 236.160139 307.584 
L 236.160139 41.472 
" clip-path="url(#pd48a75deae)" style="fill: none; stroke: #b0b0b0; stroke-width: 0.8; stroke-linecap: square"/>
     </g>
     <g id="line2d_10">
      <g>
       <use xlink:href="#m5fc31f88fa" x="236.160139" y="307.584" style="stroke: #000000; stroke-width: 0.8"/>
      </g>
     </g>
     <g id="text_5">
      <!-- 400000 -->
      <g transform="translate(217.072639 322.182437) scale(0.1 -0.1)">
       <defs>
        <path id="DejaVuSans-34" d="M 2419 4116 
L 825 1625 
L 2419 1625 
L 2419 4116 
z
M 2253 4666 
L 3047 4666 
L 3047 1625 
L 3713 1625 
L 3713 1100 
L 3047 1100 
L 3047 0 
L 2419 0 
L 2419 1100 
L 313 1100 
L 313 1709 
L 2253 4666 
z
" transform="scale(0.015625)"/>
       </defs>
       <use xlink:href="#DejaVuSans-34"/>
       <use xlink:href="#DejaVuSans-30" x="63.623047"/>
       <use xlink:href="#DejaVuSans-30" x="127.246094"/>
       <use xlink:href="#DejaVuSans-30" x="190.869141"/>
       <use xlink:href="#DejaVuSans-30" x="254.492188"/>
       <use xlink:href="#DejaVuSans-30" x="318.115234"/>
      </g>
     </g>
    </g>
    <g id="xtick_6">
     <g id="line2d_11">
      <path d="M 276.741992 307.584 
L 276.741992 41.472 
" clip-path="url(#pd48a75deae)" style="fill: none; stroke: #b0b0b0; stroke-width: 0.8; stroke-linecap: square"/>
     </g>
     <g id="line2d_12">
      <g>
       <use xlink:href="#m5fc31f88fa" x="276.741992" y="307.584" style="stroke: #000000; stroke-width: 0.8"/>
      </g>
     </g>
     <g id="text_6">
      <!-- 500000 -->
      <g transform="translate(257.654492 322.182437) scale(0.1 -0.1)">
       <defs>
        <path id="DejaVuSans-35" d="M 691 4666 
L 3169 4666 
L 3169 4134 
L 1269 4134 
L 1269 2991 
Q 1406 3038 1543 3061 
Q 1681 3084 1819 3084 
Q 2600 3084 3056 2656 
Q 3513 2228 3513 1497 
Q 3513 744 3044 326 
Q 2575 -91 1722 -91 
Q 1428 -91 1123 -41 
Q 819 9 494 109 
L 494 744 
Q 775 591 1075 516 
Q 1375 441 1709 441 
Q 2250 441 2565 725 
Q 2881 1009 2881 1497 
Q 2881 1984 2565 2268 
Q 2250 2553 1709 2553 
Q 1456 2553 1204 2497 
Q 953 2441 691 2322 
L 691 4666 
z
" transform="scale(0.015625)"/>
       </defs>
       <use xlink:href="#DejaVuSans-35"/>
       <use xlink:href="#DejaVuSans-30" x="63.623047"/>
       <use xlink:href="#DejaVuSans-30" x="127.246094"/>
       <use xlink:href="#DejaVuSans-30" x="190.869141"/>
       <use xlink:href="#DejaVuSans-30" x="254.492188"/>
       <use xlink:href="#DejaVuSans-30" x="318.115234"/>
      </g>
     </g>
    </g>
    <g id="xtick_7">
     <g id="line2d_13">
      <path d="M 317.323845 307.584 
L 317.323845 41.472 
" clip-path="url(#pd48a75deae)" style="fill: none; stroke: #b0b0b0; stroke-width: 0.8; stroke-linecap: square"/>
     </g>
     <g id="line2d_14">
      <g>
       <use xlink:href="#m5fc31f88fa" x="317.323845" y="307.584" style="stroke: #000000; stroke-width: 0.8"/>
      </g>
     </g>
     <g id="text_7">
      <!-- 600000 -->
      <g transform="translate(298.236345 322.182437) scale(0.1 -0.1)">
       <defs>
        <path id="DejaVuSans-36" d="M 2113 2584 
Q 1688 2584 1439 2293 
Q 1191 2003 1191 1497 
Q 1191 994 1439 701 
Q 1688 409 2113 409 
Q 2538 409 2786 701 
Q 3034 994 3034 1497 
Q 3034 2003 2786 2293 
Q 2538 2584 2113 2584 
z
M 3366 4563 
L 3366 3988 
Q 3128 4100 2886 4159 
Q 2644 4219 2406 4219 
Q 1781 4219 1451 3797 
Q 1122 3375 1075 2522 
Q 1259 2794 1537 2939 
Q 1816 3084 2150 3084 
Q 2853 3084 3261 2657 
Q 3669 2231 3669 1497 
Q 3669 778 3244 343 
Q 2819 -91 2113 -91 
Q 1303 -91 875 529 
Q 447 1150 447 2328 
Q 447 3434 972 4092 
Q 1497 4750 2381 4750 
Q 2619 4750 2861 4703 
Q 3103 4656 3366 4563 
z
" transform="scale(0.015625)"/>
       </defs>
       <use xlink:href="#DejaVuSans-36"/>
       <use xlink:href="#DejaVuSans-30" x="63.623047"/>
       <use xlink:href="#DejaVuSans-30" x="127.246094"/>
       <use xlink:href="#DejaVuSans-30" x="190.869141"/>
       <use xlink:href="#DejaVuSans-30" x="254.492188"/>
       <use xlink:href="#DejaVuSans-30" x="318.115234"/>
      </g>
     </g>
    </g>
    <g id="xtick_8">
     <g id="line2d_15">
      <path d="M 357.905698 307.584 
L 357.905698 41.472 
" clip-path="url(#pd48a75deae)" style="fill: none; stroke: #b0b0b0; stroke-width: 0.8; stroke-linecap: square"/>
     </g>
     <g id="line2d_16">
      <g>
       <use xlink:href="#m5fc31f88fa" x="357.905698" y="307.584" style="stroke: #000000; stroke-width: 0.8"/>
      </g>
     </g>
     <g id="text_8">
      <!-- 700000 -->
      <g transform="translate(338.818198 322.182437) scale(0.1 -0.1)">
       <defs>
        <path id="DejaVuSans-37" d="M 525 4666 
L 3525 4666 
L 3525 4397 
L 1831 0 
L 1172 0 
L 2766 4134 
L 525 4134 
L 525 4666 
z
" transform="scale(0.015625)"/>
       </defs>
       <use xlink:href="#DejaVuSans-37"/>
       <use xlink:href="#DejaVuSans-30" x="63.623047"/>
       <use xlink:href="#DejaVuSans-30" x="127.246094"/>
       <use xlink:href="#DejaVuSans-30" x="190.869141"/>
       <use xlink:href="#DejaVuSans-30" x="254.492188"/>
       <use xlink:href="#DejaVuSans-30" x="318.115234"/>
      </g>
     </g>
    </g>
    <g id="xtick_9">
     <g id="line2d_17">
      <path d="M 398.487551 307.584 
L 398.487551 41.472 
" clip-path="url(#pd48a75deae)" style="fill: none; stroke: #b0b0b0; stroke-width: 0.8; stroke-linecap: square"/>
     </g>
     <g id="line2d_18">
      <g>
       <use xlink:href="#m5fc31f88fa" x="398.487551" y="307.584" style="stroke: #000000; stroke-width: 0.8"/>
      </g>
     </g>
     <g id="text_9">
      <!-- 800000 -->
      <g transform="translate(379.400051 322.182437) scale(0.1 -0.1)">
       <defs>
        <path id="DejaVuSans-38" d="M 2034 2216 
Q 1584 2216 1326 1975 
Q 1069 1734 1069 1313 
Q 1069 891 1326 650 
Q 1584 409 2034 409 
Q 2484 409 2743 651 
Q 3003 894 3003 1313 
Q 3003 1734 2745 1975 
Q 2488 2216 2034 2216 
z
M 1403 2484 
Q 997 2584 770 2862 
Q 544 3141 544 3541 
Q 544 4100 942 4425 
Q 1341 4750 2034 4750 
Q 2731 4750 3128 4425 
Q 3525 4100 3525 3541 
Q 3525 3141 3298 2862 
Q 3072 2584 2669 2484 
Q 3125 2378 3379 2068 
Q 3634 1759 3634 1313 
Q 3634 634 3220 271 
Q 2806 -91 2034 -91 
Q 1263 -91 848 271 
Q 434 634 434 1313 
Q 434 1759 690 2068 
Q 947 2378 1403 2484 
z
M 1172 3481 
Q 1172 3119 1398 2916 
Q 1625 2713 2034 2713 
Q 2441 2713 2670 2916 
Q 2900 3119 2900 3481 
Q 2900 3844 2670 4047 
Q 2441 4250 2034 4250 
Q 1625 4250 1398 4047 
Q 1172 3844 1172 3481 
z
" transform="scale(0.015625)"/>
       </defs>
       <use xlink:href="#DejaVuSans-38"/>
       <use xlink:href="#DejaVuSans-30" x="63.623047"/>
       <use xlink:href="#DejaVuSans-30" x="127.246094"/>
       <use xlink:href="#DejaVuSans-30" x="190.869141"/>
       <use xlink:href="#DejaVuSans-30" x="254.492188"/>
       <use xlink:href="#DejaVuSans-30" x="318.115234"/>
      </g>
     </g>
    </g>
    <g id="text_10">
     <!-- TimePoint -->
     <g transform="translate(211.515469 335.860562) scale(0.1 -0.1)">
      <defs>
       <path id="DejaVuSans-54" d="M -19 4666 
L 3928 4666 
L 3928 4134 
L 2272 4134 
L 2272 0 
L 1638 0 
L 1638 4134 
L -19 4134 
L -19 4666 
z
" transform="scale(0.015625)"/>
       <path id="DejaVuSans-69" d="M 603 3500 
L 1178 3500 
L 1178 0 
L 603 0 
L 603 3500 
z
M 603 4863 
L 1178 4863 
L 1178 4134 
L 603 4134 
L 603 4863 
z
" transform="scale(0.015625)"/>
       <path id="DejaVuSans-6d" d="M 3328 2828 
Q 3544 3216 3844 3400 
Q 4144 3584 4550 3584 
Q 5097 3584 5394 3201 
Q 5691 2819 5691 2113 
L 5691 0 
L 5113 0 
L 5113 2094 
Q 5113 2597 4934 2840 
Q 4756 3084 4391 3084 
Q 3944 3084 3684 2787 
Q 3425 2491 3425 1978 
L 3425 0 
L 2847 0 
L 2847 2094 
Q 2847 2600 2669 2842 
Q 2491 3084 2119 3084 
Q 1678 3084 1418 2786 
Q 1159 2488 1159 1978 
L 1159 0 
L 581 0 
L 581 3500 
L 1159 3500 
L 1159 2956 
Q 1356 3278 1631 3431 
Q 1906 3584 2284 3584 
Q 2666 3584 2933 3390 
Q 3200 3197 3328 2828 
z
" transform="scale(0.015625)"/>
       <path id="DejaVuSans-65" d="M 3597 1894 
L 3597 1613 
L 953 1613 
Q 991 1019 1311 708 
Q 1631 397 2203 397 
Q 2534 397 2845 478 
Q 3156 559 3463 722 
L 3463 178 
Q 3153 47 2828 -22 
Q 2503 -91 2169 -91 
Q 1331 -91 842 396 
Q 353 884 353 1716 
Q 353 2575 817 3079 
Q 1281 3584 2069 3584 
Q 2775 3584 3186 3129 
Q 3597 2675 3597 1894 
z
M 3022 2063 
Q 3016 2534 2758 2815 
Q 2500 3097 2075 3097 
Q 1594 3097 1305 2825 
Q 1016 2553 972 2059 
L 3022 2063 
z
" transform="scale(0.015625)"/>
       <path id="DejaVuSans-50" d="M 1259 4147 
L 1259 2394 
L 2053 2394 
Q 2494 2394 2734 2622 
Q 2975 2850 2975 3272 
Q 2975 3691 2734 3919 
Q 2494 4147 2053 4147 
L 1259 4147 
z
M 628 4666 
L 2053 4666 
Q 2838 4666 3239 4311 
Q 3641 3956 3641 3272 
Q 3641 2581 3239 2228 
Q 2838 1875 2053 1875 
L 1259 1875 
L 1259 0 
L 628 0 
L 628 4666 
z
" transform="scale(0.015625)"/>
       <path id="DejaVuSans-6f" d="M 1959 3097 
Q 1497 3097 1228 2736 
Q 959 2375 959 1747 
Q 959 1119 1226 758 
Q 1494 397 1959 397 
Q 2419 397 2687 759 
Q 2956 1122 2956 1747 
Q 2956 2369 2687 2733 
Q 2419 3097 1959 3097 
z
M 1959 3584 
Q 2709 3584 3137 3096 
Q 3566 2609 3566 1747 
Q 3566 888 3137 398 
Q 2709 -91 1959 -91 
Q 1206 -91 779 398 
Q 353 888 353 1747 
Q 353 2609 779 3096 
Q 1206 3584 1959 3584 
z
" transform="scale(0.015625)"/>
       <path id="DejaVuSans-6e" d="M 3513 2113 
L 3513 0 
L 2938 0 
L 2938 2094 
Q 2938 2591 2744 2837 
Q 2550 3084 2163 3084 
Q 1697 3084 1428 2787 
Q 1159 2491 1159 1978 
L 1159 0 
L 581 0 
L 581 3500 
L 1159 3500 
L 1159 2956 
Q 1366 3272 1645 3428 
Q 1925 3584 2291 3584 
Q 2894 3584 3203 3211 
Q 3513 2838 3513 2113 
z
" transform="scale(0.015625)"/>
       <path id="DejaVuSans-74" d="M 1172 4494 
L 1172 3500 
L 2356 3500 
L 2356 3053 
L 1172 3053 
L 1172 1153 
Q 1172 725 1289 603 
Q 1406 481 1766 481 
L 2356 481 
L 2356 0 
L 1766 0 
Q 1100 0 847 248 
Q 594 497 594 1153 
L 594 3053 
L 172 3053 
L 172 3500 
L 594 3500 
L 594 4494 
L 1172 4494 
z
" transform="scale(0.015625)"/>
      </defs>
      <use xlink:href="#DejaVuSans-54"/>
      <use xlink:href="#DejaVuSans-69" x="57.958984"/>
      <use xlink:href="#DejaVuSans-6d" x="85.742188"/>
      <use xlink:href="#DejaVuSans-65" x="183.154297"/>
      <use xlink:href="#DejaVuSans-50" x="244.677734"/>
      <use xlink:href="#DejaVuSans-6f" x="301.355469"/>
      <use xlink:href="#DejaVuSans-69" x="362.537109"/>
      <use xlink:href="#DejaVuSans-6e" x="390.320312"/>
      <use xlink:href="#DejaVuSans-74" x="453.699219"/>
     </g>
    </g>
   </g>
   <g id="matplotlib.axis_2">
    <g id="ytick_1">
     <g id="line2d_19">
      <path d="M 57.6 295.488 
L 414.72 295.488 
" clip-path="url(#pd48a75deae)" style="fill: none; stroke: #b0b0b0; stroke-width: 0.8; stroke-linecap: square"/>
     </g>
     <g id="line2d_20">
      <defs>
       <path id="m2d91e205c4" d="M 0 0 
L -3.5 0 
" style="stroke: #000000; stroke-width: 0.8"/>
      </defs>
      <g>
       <use xlink:href="#m2d91e205c4" x="57.6" y="295.488" style="stroke: #000000; stroke-width: 0.8"/>
      </g>
     </g>
     <g id="text_11">
      <!-- 0.0000 -->
      <g transform="translate(15.609375 299.287219) scale(0.1 -0.1)">
       <defs>
        <path id="DejaVuSans-2e" d="M 684 794 
L 1344 794 
L 1344 0 
L 684 0 
L 684 794 
z
" transform="scale(0.015625)"/>
       </defs>
       <use xlink:href="#DejaVuSans-30"/>
       <use xlink:href="#DejaVuSans-2e" x="63.623047"/>
       <use xlink:href="#DejaVuSans-30" x="95.410156"/>
       <use xlink:href="#DejaVuSans-30" x="159.033203"/>
       <use xlink:href="#DejaVuSans-30" x="222.65625"/>
       <use xlink:href="#DejaVuSans-30" x="286.279297"/>
      </g>
     </g>
    </g>
    <g id="ytick_2">
     <g id="line2d_21">
      <path d="M 57.6 239.682281 
L 414.72 239.682281 
" clip-path="url(#pd48a75deae)" style="fill: none; stroke: #b0b0b0; stroke-width: 0.8; stroke-linecap: square"/>
     </g>
     <g id="line2d_22">
      <g>
       <use xlink:href="#m2d91e205c4" x="57.6" y="239.682281" style="stroke: #000000; stroke-width: 0.8"/>
      </g>
     </g>
     <g id="text_12">
      <!-- 0.0002 -->
      <g transform="translate(15.609375 243.4815) scale(0.1 -0.1)">
       <use xlink:href="#DejaVuSans-30"/>
       <use xlink:href="#DejaVuSans-2e" x="63.623047"/>
       <use xlink:href="#DejaVuSans-30" x="95.410156"/>
       <use xlink:href="#DejaVuSans-30" x="159.033203"/>
       <use xlink:href="#DejaVuSans-30" x="222.65625"/>
       <use xlink:href="#DejaVuSans-32" x="286.279297"/>
      </g>
     </g>
    </g>
    <g id="ytick_3">
     <g id="line2d_23">
      <path d="M 57.6 183.876562 
L 414.72 183.876562 
" clip-path="url(#pd48a75deae)" style="fill: none; stroke: #b0b0b0; stroke-width: 0.8; stroke-linecap: square"/>
     </g>
     <g id="line2d_24">
      <g>
       <use xlink:href="#m2d91e205c4" x="57.6" y="183.876562" style="stroke: #000000; stroke-width: 0.8"/>
      </g>
     </g>
     <g id="text_13">
      <!-- 0.0004 -->
      <g transform="translate(15.609375 187.675781) scale(0.1 -0.1)">
       <use xlink:href="#DejaVuSans-30"/>
       <use xlink:href="#DejaVuSans-2e" x="63.623047"/>
       <use xlink:href="#DejaVuSans-30" x="95.410156"/>
       <use xlink:href="#DejaVuSans-30" x="159.033203"/>
       <use xlink:href="#DejaVuSans-30" x="222.65625"/>
       <use xlink:href="#DejaVuSans-34" x="286.279297"/>
      </g>
     </g>
    </g>
    <g id="ytick_4">
     <g id="line2d_25">
      <path d="M 57.6 128.070843 
L 414.72 128.070843 
" clip-path="url(#pd48a75deae)" style="fill: none; stroke: #b0b0b0; stroke-width: 0.8; stroke-linecap: square"/>
     </g>
     <g id="line2d_26">
      <g>
       <use xlink:href="#m2d91e205c4" x="57.6" y="128.070843" style="stroke: #000000; stroke-width: 0.8"/>
      </g>
     </g>
     <g id="text_14">
      <!-- 0.0006 -->
      <g transform="translate(15.609375 131.870062) scale(0.1 -0.1)">
       <use xlink:href="#DejaVuSans-30"/>
       <use xlink:href="#DejaVuSans-2e" x="63.623047"/>
       <use xlink:href="#DejaVuSans-30" x="95.410156"/>
       <use xlink:href="#DejaVuSans-30" x="159.033203"/>
       <use xlink:href="#DejaVuSans-30" x="222.65625"/>
       <use xlink:href="#DejaVuSans-36" x="286.279297"/>
      </g>
     </g>
    </g>
    <g id="ytick_5">
     <g id="line2d_27">
      <path d="M 57.6 72.265124 
L 414.72 72.265124 
" clip-path="url(#pd48a75deae)" style="fill: none; stroke: #b0b0b0; stroke-width: 0.8; stroke-linecap: square"/>
     </g>
     <g id="line2d_28">
      <g>
       <use xlink:href="#m2d91e205c4" x="57.6" y="72.265124" style="stroke: #000000; stroke-width: 0.8"/>
      </g>
     </g>
     <g id="text_15">
      <!-- 0.0008 -->
      <g transform="translate(15.609375 76.064343) scale(0.1 -0.1)">
       <use xlink:href="#DejaVuSans-30"/>
       <use xlink:href="#DejaVuSans-2e" x="63.623047"/>
       <use xlink:href="#DejaVuSans-30" x="95.410156"/>
       <use xlink:href="#DejaVuSans-30" x="159.033203"/>
       <use xlink:href="#DejaVuSans-30" x="222.65625"/>
       <use xlink:href="#DejaVuSans-38" x="286.279297"/>
      </g>
     </g>
    </g>
    <g id="text_16">
     <!-- ioChannelLoadStdDev -->
     <g transform="translate(9.529687 229.694406) rotate(-90) scale(0.1 -0.1)">
      <defs>
       <path id="DejaVuSans-43" d="M 4122 4306 
L 4122 3641 
Q 3803 3938 3442 4084 
Q 3081 4231 2675 4231 
Q 1875 4231 1450 3742 
Q 1025 3253 1025 2328 
Q 1025 1406 1450 917 
Q 1875 428 2675 428 
Q 3081 428 3442 575 
Q 3803 722 4122 1019 
L 4122 359 
Q 3791 134 3420 21 
Q 3050 -91 2638 -91 
Q 1578 -91 968 557 
Q 359 1206 359 2328 
Q 359 3453 968 4101 
Q 1578 4750 2638 4750 
Q 3056 4750 3426 4639 
Q 3797 4528 4122 4306 
z
" transform="scale(0.015625)"/>
       <path id="DejaVuSans-68" d="M 3513 2113 
L 3513 0 
L 2938 0 
L 2938 2094 
Q 2938 2591 2744 2837 
Q 2550 3084 2163 3084 
Q 1697 3084 1428 2787 
Q 1159 2491 1159 1978 
L 1159 0 
L 581 0 
L 581 4863 
L 1159 4863 
L 1159 2956 
Q 1366 3272 1645 3428 
Q 1925 3584 2291 3584 
Q 2894 3584 3203 3211 
Q 3513 2838 3513 2113 
z
" transform="scale(0.015625)"/>
       <path id="DejaVuSans-61" d="M 2194 1759 
Q 1497 1759 1228 1600 
Q 959 1441 959 1056 
Q 959 750 1161 570 
Q 1363 391 1709 391 
Q 2188 391 2477 730 
Q 2766 1069 2766 1631 
L 2766 1759 
L 2194 1759 
z
M 3341 1997 
L 3341 0 
L 2766 0 
L 2766 531 
Q 2569 213 2275 61 
Q 1981 -91 1556 -91 
Q 1019 -91 701 211 
Q 384 513 384 1019 
Q 384 1609 779 1909 
Q 1175 2209 1959 2209 
L 2766 2209 
L 2766 2266 
Q 2766 2663 2505 2880 
Q 2244 3097 1772 3097 
Q 1472 3097 1187 3025 
Q 903 2953 641 2809 
L 641 3341 
Q 956 3463 1253 3523 
Q 1550 3584 1831 3584 
Q 2591 3584 2966 3190 
Q 3341 2797 3341 1997 
z
" transform="scale(0.015625)"/>
       <path id="DejaVuSans-6c" d="M 603 4863 
L 1178 4863 
L 1178 0 
L 603 0 
L 603 4863 
z
" transform="scale(0.015625)"/>
       <path id="DejaVuSans-4c" d="M 628 4666 
L 1259 4666 
L 1259 531 
L 3531 531 
L 3531 0 
L 628 0 
L 628 4666 
z
" transform="scale(0.015625)"/>
       <path id="DejaVuSans-64" d="M 2906 2969 
L 2906 4863 
L 3481 4863 
L 3481 0 
L 2906 0 
L 2906 525 
Q 2725 213 2448 61 
Q 2172 -91 1784 -91 
Q 1150 -91 751 415 
Q 353 922 353 1747 
Q 353 2572 751 3078 
Q 1150 3584 1784 3584 
Q 2172 3584 2448 3432 
Q 2725 3281 2906 2969 
z
M 947 1747 
Q 947 1113 1208 752 
Q 1469 391 1925 391 
Q 2381 391 2643 752 
Q 2906 1113 2906 1747 
Q 2906 2381 2643 2742 
Q 2381 3103 1925 3103 
Q 1469 3103 1208 2742 
Q 947 2381 947 1747 
z
" transform="scale(0.015625)"/>
       <path id="DejaVuSans-53" d="M 3425 4513 
L 3425 3897 
Q 3066 4069 2747 4153 
Q 2428 4238 2131 4238 
Q 1616 4238 1336 4038 
Q 1056 3838 1056 3469 
Q 1056 3159 1242 3001 
Q 1428 2844 1947 2747 
L 2328 2669 
Q 3034 2534 3370 2195 
Q 3706 1856 3706 1288 
Q 3706 609 3251 259 
Q 2797 -91 1919 -91 
Q 1588 -91 1214 -16 
Q 841 59 441 206 
L 441 856 
Q 825 641 1194 531 
Q 1563 422 1919 422 
Q 2459 422 2753 634 
Q 3047 847 3047 1241 
Q 3047 1584 2836 1778 
Q 2625 1972 2144 2069 
L 1759 2144 
Q 1053 2284 737 2584 
Q 422 2884 422 3419 
Q 422 4038 858 4394 
Q 1294 4750 2059 4750 
Q 2388 4750 2728 4690 
Q 3069 4631 3425 4513 
z
" transform="scale(0.015625)"/>
       <path id="DejaVuSans-44" d="M 1259 4147 
L 1259 519 
L 2022 519 
Q 2988 519 3436 956 
Q 3884 1394 3884 2338 
Q 3884 3275 3436 3711 
Q 2988 4147 2022 4147 
L 1259 4147 
z
M 628 4666 
L 1925 4666 
Q 3281 4666 3915 4102 
Q 4550 3538 4550 2338 
Q 4550 1131 3912 565 
Q 3275 0 1925 0 
L 628 0 
L 628 4666 
z
" transform="scale(0.015625)"/>
       <path id="DejaVuSans-76" d="M 191 3500 
L 800 3500 
L 1894 563 
L 2988 3500 
L 3597 3500 
L 2284 0 
L 1503 0 
L 191 3500 
z
" transform="scale(0.015625)"/>
      </defs>
      <use xlink:href="#DejaVuSans-69"/>
      <use xlink:href="#DejaVuSans-6f" x="27.783203"/>
      <use xlink:href="#DejaVuSans-43" x="88.964844"/>
      <use xlink:href="#DejaVuSans-68" x="158.789062"/>
      <use xlink:href="#DejaVuSans-61" x="222.167969"/>
      <use xlink:href="#DejaVuSans-6e" x="283.447266"/>
      <use xlink:href="#DejaVuSans-6e" x="346.826172"/>
      <use xlink:href="#DejaVuSans-65" x="410.205078"/>
      <use xlink:href="#DejaVuSans-6c" x="471.728516"/>
      <use xlink:href="#DejaVuSans-4c" x="499.511719"/>
      <use xlink:href="#DejaVuSans-6f" x="553.474609"/>
      <use xlink:href="#DejaVuSans-61" x="614.65625"/>
      <use xlink:href="#DejaVuSans-64" x="675.935547"/>
      <use xlink:href="#DejaVuSans-53" x="739.412109"/>
      <use xlink:href="#DejaVuSans-74" x="802.888672"/>
      <use xlink:href="#DejaVuSans-64" x="842.097656"/>
      <use xlink:href="#DejaVuSans-44" x="905.574219"/>
      <use xlink:href="#DejaVuSans-65" x="982.576172"/>
      <use xlink:href="#DejaVuSans-76" x="1044.099609"/>
     </g>
    </g>
   </g>
   <g id="line2d_29">
    <path d="M 73.832727 295.488 
L 73.841061 295.488 
L 73.841061 295.488 
L 73.88065 123.102172 
L 73.951898 145.699951 
L 73.953165 145.699951 
L 74.063969 163.539432 
L 74.1238 173.978352 
L 74.339008 197.272638 
L 74.339819 197.309032 
L 74.474624 206.391626 
L 74.476257 206.499644 
L 74.497052 207.668758 
L 74.755118 219.926849 
L 74.75637 219.93555 
L 74.75637 219.93555 
L 74.867159 223.786881 
L 74.89516 224.665444 
L 74.89516 224.665444 
L 75.006188 227.858119 
L 75.009687 227.94601 
L 75.124902 230.650601 
L 75.129976 230.749973 
L 75.242135 233.003806 
L 75.296515 233.965437 
L 75.296515 233.965437 
L 75.407303 235.857931 
L 75.413686 235.960482 
L 75.965804 243.907907 
L 75.975517 244.013554 
L 76.419917 248.491654 
L 76.43152 248.589421 
L 76.553151 249.62749 
L 76.566775 249.735702 
L 76.688385 250.715696 
L 76.702806 250.820705 
L 76.814295 251.661607 
L 76.939674 252.559326 
L 76.95724 252.667478 
L 77.068318 253.404209 
L 77.100378 253.596167 
L 77.218471 254.341376 
L 77.239189 254.4523 
L 78.311327 259.640653 
L 78.340154 259.749603 
L 78.340154 259.750238 
L 78.458052 260.210227 
L 78.505531 260.383822 
L 78.61691 260.7919 
L 78.648308 260.902539 
L 78.765522 261.314622 
L 78.79837 261.425409 
L 78.999359 262.08899 
L 79.033166 262.198165 
L 79.961409 264.809032 
L 80.018181 264.946983 
L 80.155047 265.279004 
L 80.837921 266.787978 
L 80.978851 267.072769 
L 81.035802 267.183452 
L 81.146389 267.401317 
L 81.205729 267.511464 
L 81.317644 267.721834 
L 81.459846 267.984048 
L 81.599282 268.228524 
L 81.599282 268.228524 
L 81.710217 268.420532 
L 81.775813 268.530064 
L 81.775813 268.531245 
L 82.020116 268.929432 
L 82.08975 269.040536 
L 82.186908 269.191906 
L 82.186908 269.191906 
L 82.297038 269.363031 
L 82.370337 269.472458 
L 82.370337 269.473872 
L 82.553375 269.744309 
L 82.648323 269.878783 
L 82.648323 269.878783 
L 82.759112 270.037809 
L 82.857979 270.174665 
L 82.969454 270.329098 
L 83.113391 270.521395 
L 83.113391 270.521395 
L 83.224129 270.668443 
L 83.408779 270.908974 
L 83.770817 271.356686 
L 83.881928 271.490384 
L 84.629608 272.327068 
L 84.734636 272.437021 
L 84.734636 272.437021 
L 84.844869 272.552721 
L 84.963112 272.671613 
L 84.963112 272.671613 
L 85.074032 272.78382 
L 85.184836 272.892166 
L 85.295883 273.000181 
L 88.429176 275.465876 
L 88.596811 275.576735 
L 88.596811 275.576735 
L 88.707847 275.649676 
L 88.840338 275.735828 
L 89.16292 275.940386 
L 89.354354 276.058972 
L 89.465542 276.127915 
L 89.648597 276.237679 
L 89.846732 276.353092 
L 90.330015 276.628675 
L 90.508116 276.728534 
L 90.709908 276.838923 
L 90.709908 276.838923 
L 90.820829 276.899443 
L 91.026347 277.009541 
L 91.202333 277.10265 
L 91.424238 277.217332 
L 91.704569 277.359987 
L 91.704569 277.359987 
L 91.815206 277.416526 
L 92.03916 277.527063 
L 92.486176 277.743399 
L 92.722768 277.854112 
L 92.722768 277.854169 
L 92.850665 277.91403 
L 93.09365 278.024685 
L 93.204235 278.075067 
L 93.455723 278.186083 
L 93.569159 278.235866 
L 93.827406 278.346348 
L 93.827406 278.346889 
L 94.199838 278.502645 
L 94.454802 278.607313 
L 94.948173 278.804034 
L 95.059471 278.848023 
L 96.481547 279.376909 
L 96.812906 279.492999 
L 97.196121 279.624435 
L 97.377845 279.686156 
L 98.075515 279.914544 
L 98.075515 279.914544 
L 98.18641 279.950098 
L 98.924081 280.180051 
L 98.924081 280.180051 
L 99.034954 280.21387 
L 99.447993 280.337383 
L 99.447993 280.337383 
L 99.559066 280.370148 
L 99.941335 280.481071 
L 100.127333 280.533977 
L 100.521383 280.644263 
L 100.521383 280.644516 
L 100.816856 280.725712 
L 101.960871 281.028336 
L 102.072489 281.056918 
L 102.513515 281.167893 
L 102.625552 281.195794 
L 103.079063 281.306662 
L 103.189372 281.333629 
L 103.657954 281.444737 
L 103.657954 281.444737 
L 103.767513 281.470813 
L 104.249638 281.581772 
L 104.249638 281.581812 
L 104.515988 281.642218 
L 105.368479 281.829116 
L 105.368479 281.829116 
L 105.478222 281.853006 
L 110.084956 282.746862 
L 110.726298 282.857913 
L 117.522947 283.880441 
L 118.371717 283.991532 
L 118.371717 283.991548 
L 118.801065 284.046743 
L 119.688244 284.157789 
L 119.929654 284.187502 
L 125.320612 284.790453 
L 125.457502 284.804488 
L 126.556265 284.9155 
L 126.556265 284.91554 
L 127.040564 284.963488 
L 128.188467 285.074535 
L 128.188467 285.074535 
L 128.298038 285.08511 
L 129.520873 285.199165 
L 130.971165 285.330062 
L 132.257687 285.441603 
L 158.403265 287.122539 
L 160.801498 287.238631 
L 160.91976 287.244268 
L 163.318004 287.355376 
L 163.430811 287.360523 
L 172.266428 287.733455 
L 175.149787 287.844541 
L 175.149787 287.844553 
L 181.823174 288.084302 
L 185.14228 288.195413 
L 186.033956 288.224433 
L 189.547823 288.335536 
L 189.547823 288.335536 
L 189.6578 288.338989 
L 193.343038 288.450009 
L 193.343038 288.450045 
L 197.210925 288.561149 
L 201.268716 288.672239 
L 201.382441 288.675283 
L 205.65963 288.786386 
L 205.65963 288.786388 
L 206.132409 288.798359 
L 264.672924 289.916772 
L 272.530302 290.027883 
L 398.487273 291.212143 
L 398.487273 291.212143 
" clip-path="url(#pd48a75deae)" style="fill: none; stroke: #1f77b4; stroke-width: 1.5; stroke-linecap: square"/>
   </g>
   <g id="line2d_30">
    <path d="M 73.832727 295.488 
L 73.840159 295.488 
L 73.840159 295.488 
L 73.852207 90.417696 
L 73.951222 146.860864 
L 74.540621 213.000652 
L 74.542261 213.091739 
L 74.737703 222.181224 
L 74.746581 222.435595 
L 74.890437 227.510624 
L 74.930691 228.752459 
L 75.072811 232.731469 
L 75.07859 232.823382 
L 75.07859 232.839941 
L 75.274958 237.229367 
L 75.293758 237.597531 
L 75.453566 240.525655 
L 75.460589 240.623836 
L 75.810547 245.695577 
L 75.830403 245.913861 
L 75.992824 247.773415 
L 76.003469 247.873644 
L 76.115051 248.997144 
L 76.134029 249.179477 
L 76.245724 250.219941 
L 76.436865 251.826054 
L 76.463243 252.022987 
L 76.609483 253.106701 
L 76.626382 253.216681 
L 76.626382 253.216681 
L 76.736969 253.975427 
L 76.754705 254.084597 
L 78.020369 260.24886 
L 78.049588 260.35521 
L 78.049588 260.35521 
L 78.160567 260.767294 
L 78.191434 260.878285 
L 78.304452 261.290401 
L 78.334678 261.395445 
L 78.448575 261.800947 
L 78.502075 261.972821 
L 78.502075 261.972821 
L 78.612797 262.34327 
L 78.648598 262.457998 
L 78.891124 263.20025 
L 78.928591 263.307802 
L 78.928591 263.308331 
L 79.051148 263.669071 
L 79.139616 263.913137 
L 79.139616 263.913137 
L 79.249995 264.220698 
L 79.303255 264.363322 
L 79.517554 264.924599 
L 79.596974 265.120095 
L 79.596974 265.120095 
L 79.707834 265.390053 
L 79.754025 265.498284 
L 79.754025 265.498284 
L 79.864503 265.756186 
L 80.009691 266.07789 
L 80.009691 266.07789 
L 80.120768 266.317972 
L 80.376551 266.841345 
L 80.433693 266.950008 
L 80.544209 267.168986 
L 80.604177 267.279261 
L 80.715815 267.489609 
L 80.783181 267.614811 
L 83.703474 271.982111 
L 83.799855 272.092783 
L 83.910345 272.22091 
L 84.013431 272.33415 
L 84.124285 272.457555 
L 84.319078 272.664449 
L 85.203846 273.548598 
L 85.32295 273.659339 
L 85.434374 273.763705 
L 86.524909 274.690578 
L 86.663172 274.800234 
L 86.806039 274.911164 
L 86.920714 274.999368 
L 87.081079 275.12122 
L 87.081079 275.12122 
L 87.19065 275.205107 
L 87.342828 275.316015 
L 87.454026 275.39775 
L 87.688837 275.564485 
L 87.801492 275.64379 
L 87.993479 275.775204 
L 88.176546 275.898408 
L 88.344352 276.008985 
L 91.886202 277.96852 
L 92.119118 278.079136 
L 92.624966 278.310007 
L 92.881037 278.421043 
L 92.881037 278.421043 
L 92.991881 278.469377 
L 93.250738 278.579874 
L 93.250738 278.580052 
L 93.398516 278.642667 
L 94.304845 279.010218 
L 94.416197 279.053864 
L 98.548704 280.446637 
L 99.076823 280.601297 
L 99.225333 280.644449 
L 99.614437 280.755489 
L 99.725611 280.786956 
L 101.098582 281.154428 
L 101.531703 281.265531 
L 101.662467 281.298872 
L 102.108539 281.409921 
L 102.108539 281.409921 
L 102.219589 281.43755 
L 102.678229 281.548531 
L 102.789318 281.57556 
L 103.260647 281.686538 
L 103.371852 281.712636 
L 105.623787 282.208078 
L 106.161855 282.318741 
L 106.161855 282.318741 
L 106.269891 282.341518 
L 106.841857 282.455141 
L 107.531086 282.588529 
L 107.531086 282.588529 
L 107.641875 282.609689 
L 107.855196 282.649881 
L 108.455157 282.760965 
L 109.554903 282.956665 
L 109.554903 282.956665 
L 109.665866 282.976137 
L 110.559304 283.127521 
L 110.908237 283.18469 
L 112.22316 283.392183 
L 112.22316 283.392183 
L 112.333099 283.40932 
L 113.966557 283.654515 
L 115.450948 283.865292 
L 118.866004 284.313289 
L 119.307689 284.367617 
L 120.22996 284.478637 
L 120.22996 284.478685 
L 124.567641 284.959767 
L 125.69866 285.074591 
L 125.864099 285.091188 
L 127.578116 285.25808 
L 127.578116 285.25808 
L 127.688283 285.268643 
L 128.879576 285.379684 
L 128.879576 285.379684 
L 128.990364 285.389888 
L 130.224059 285.500991 
L 133.359834 285.76744 
L 133.883041 285.810071 
L 135.288335 285.921119 
L 135.400281 285.929874 
L 136.859591 286.04091 
L 136.859591 286.04091 
L 136.97038 286.049204 
L 138.488918 286.160311 
L 140.623153 286.310172 
L 140.623153 286.310172 
L 140.733152 286.317876 
L 142.384905 286.428919 
L 157.301763 287.275136 
L 162.287775 287.509758 
L 163.545276 287.565871 
L 166.134123 287.676981 
L 166.134123 287.676981 
L 166.244911 287.681608 
L 175.972874 288.056797 
L 179.128461 288.167889 
L 181.712655 288.255945 
L 185.10898 288.367051 
L 185.10898 288.367051 
L 185.219239 288.37063 
L 188.784884 288.48174 
L 188.784884 288.48174 
L 188.895215 288.485127 
L 219.785441 289.269481 
L 225.997631 289.397613 
L 247.32738 289.780924 
L 255.217959 289.903812 
L 264.964327 290.043185 
L 280.565567 290.247377 
L 289.182139 290.350548 
L 299.199078 290.461655 
L 339.841946 290.844318 
L 353.709129 290.955419 
L 353.709129 290.955419 
L 353.819917 290.956267 
L 398.486467 291.260987 
L 398.486467 291.260987 
" clip-path="url(#pd48a75deae)" style="fill: none; stroke: #ff7f0e; stroke-width: 1.5; stroke-linecap: square"/>
   </g>
   <g id="line2d_31">
    <path d="M 73.832727 295.488 
L 73.840566 295.488 
L 73.840566 295.488 
L 73.850589 53.568 
L 73.951719 155.313902 
L 73.95285 155.331345 
L 73.95285 155.331345 
L 74.063232 181.185133 
L 74.064129 181.199985 
L 74.174832 195.191599 
L 74.176842 195.290408 
L 74.291708 207.237596 
L 74.340812 211.227586 
L 74.340812 211.227586 
L 74.451414 218.965788 
L 74.453163 219.054949 
L 74.730972 231.483867 
L 74.735874 231.581912 
L 74.902181 236.694296 
L 74.906523 236.774517 
L 74.906523 236.790199 
L 75.076561 240.870595 
L 75.092294 241.194242 
L 75.204612 243.422831 
L 75.379093 246.415038 
L 75.387012 246.517652 
L 75.387012 246.518378 
L 75.503231 248.23818 
L 75.511143 248.346011 
L 75.654447 250.237337 
L 75.663531 250.346915 
L 76.088474 254.800869 
L 76.239518 256.060427 
L 76.359059 257.009207 
L 76.374795 257.118632 
L 76.539195 258.293847 
L 77.695158 264.3359 
L 77.720469 264.436288 
L 77.720469 264.436811 
L 77.837215 264.891909 
L 77.889981 265.086897 
L 78.001424 265.497344 
L 78.045376 265.647565 
L 78.157196 266.040878 
L 78.202296 266.18651 
L 78.311529 266.54799 
L 78.34863 266.655483 
L 78.4599 266.998948 
L 78.687156 267.659291 
L 78.726861 267.767668 
L 78.837601 268.080121 
L 78.881962 268.193982 
L 79.481748 269.613511 
L 79.537724 269.72773 
L 79.669844 269.996334 
L 79.725634 270.106034 
L 79.906707 270.455396 
L 79.966674 270.564445 
L 79.966674 270.564619 
L 80.083956 270.777399 
L 80.16025 270.90998 
L 80.16025 270.90998 
L 80.27005 271.099155 
L 80.336023 271.207539 
L 80.449193 271.395147 
L 80.801535 271.924622 
L 80.913043 272.089235 
L 81.120011 272.384678 
L 81.1992 272.494889 
L 81.310729 272.646931 
L 81.393938 272.757128 
L 81.393938 272.757128 
L 81.504321 272.902039 
L 81.59107 273.011614 
L 81.701954 273.152288 
L 81.792261 273.262336 
L 81.903561 273.397651 
L 81.996098 273.508395 
L 82.107468 273.643762 
L 82.200642 273.753789 
L 82.366046 273.947743 
L 82.464893 274.05859 
L 82.464893 274.05859 
L 82.575992 274.184429 
L 82.674296 274.292845 
L 82.674296 274.294504 
L 83.143828 274.790959 
L 83.143828 274.790959 
L 83.254751 274.906676 
L 83.363375 275.017155 
L 83.363375 275.017155 
L 83.473431 275.128049 
L 83.588199 275.237446 
L 83.588199 275.238005 
L 83.760877 275.404043 
L 83.883229 275.515067 
L 83.883229 275.515067 
L 83.994154 275.618414 
L 84.889813 276.408813 
L 85.029666 276.52361 
L 85.029666 276.52361 
L 85.140035 276.616384 
L 85.359191 276.793508 
L 85.359191 276.793508 
L 85.46971 276.881751 
L 85.612843 276.99283 
L 85.725568 277.079942 
L 85.924902 277.229811 
L 86.075055 277.340825 
L 86.075055 277.340825 
L 86.185482 277.42217 
L 87.06109 278.025532 
L 87.231874 278.136219 
L 87.388408 278.237189 
L 87.565626 278.347931 
L 87.565626 278.347931 
L 87.676281 278.416773 
L 87.857816 278.52719 
L 87.857816 278.527694 
L 88.272945 278.772501 
L 88.386191 278.838242 
L 88.719368 279.02352 
L 88.830609 279.084547 
L 89.058227 279.205376 
L 89.448372 279.406674 
L 89.680171 279.517384 
L 89.791664 279.5702 
L 90.029756 279.680986 
L 90.029756 279.680986 
L 90.140391 279.732082 
L 90.884816 280.058627 
L 90.884816 280.058627 
L 90.995656 280.107031 
L 91.345014 280.25503 
L 91.345014 280.25503 
L 91.45507 280.301471 
L 91.744368 280.418333 
L 91.85673 280.46328 
L 92.23457 280.606826 
L 92.406373 280.670511 
L 92.703289 280.781523 
L 92.703289 280.781523 
L 92.814105 280.823054 
L 93.112459 280.934097 
L 93.24668 280.983731 
L 93.763693 281.170275 
L 93.763693 281.170275 
L 93.874731 281.210157 
L 94.201977 281.32321 
L 94.201977 281.32321 
L 94.312542 281.361467 
L 94.80356 281.527132 
L 94.914504 281.563921 
L 98.232969 282.542792 
L 98.402604 282.587797 
L 99.056378 282.755488 
L 99.183838 282.787746 
L 99.633858 282.898662 
L 99.633858 282.898689 
L 99.765885 282.931195 
L 100.232154 283.042112 
L 100.342939 283.068388 
L 100.824605 283.179439 
L 100.935744 283.205185 
L 101.435138 283.316217 
L 101.54648 283.3409 
L 102.062059 283.451763 
L 102.302331 283.502469 
L 102.838607 283.613374 
L 102.838607 283.613547 
L 114.445017 285.344943 
L 115.445644 285.455906 
L 115.662273 285.479558 
L 116.688371 285.590519 
L 124.59779 286.353217 
L 125.937052 286.464246 
L 126.048647 286.473198 
L 127.743952 286.604125 
L 128.1629 286.635665 
L 132.051859 286.912987 
L 132.051859 286.912987 
L 132.161457 286.920561 
L 133.806984 287.03165 
L 133.917973 287.039077 
L 136.690365 287.219009 
L 136.690365 287.219009 
L 136.800984 287.226041 
L 138.827 287.350773 
L 138.827 287.350773 
L 138.93713 287.357496 
L 143.584005 287.627586 
L 143.584005 287.627586 
L 143.695052 287.633704 
L 144.131195 287.657637 
L 146.284609 287.772645 
L 146.395531 287.778467 
L 148.581509 287.889532 
L 149.652615 287.941956 
L 151.984042 288.053029 
L 151.984042 288.053029 
L 152.094483 288.058279 
L 157.042575 288.277442 
L 157.153494 288.282084 
L 161.198285 288.440409 
L 161.309432 288.444491 
L 162.198214 288.476736 
L 165.406896 288.587839 
L 165.406896 288.587841 
L 165.654104 288.596021 
L 169.065269 288.707129 
L 169.181008 288.710838 
L 172.707977 288.821923 
L 172.707977 288.821923 
L 172.818675 288.825402 
L 176.554325 288.936506 
L 176.554325 288.936506 
L 176.665136 288.939701 
L 178.428395 288.988589 
L 222.325459 289.84876 
L 230.416214 289.959851 
L 230.529407 289.961326 
L 242.115499 290.10389 
L 252.222031 290.230273 
L 296.586242 290.710342 
L 309.237276 290.821441 
L 309.354005 290.822433 
L 327.13891 290.962075 
L 331.964154 290.997715 
L 368.602682 291.238292 
L 368.935268 291.240343 
L 398.487145 291.406427 
L 398.487145 291.406427 
" clip-path="url(#pd48a75deae)" style="fill: none; stroke: #2ca02c; stroke-width: 1.5; stroke-linecap: square"/>
   </g>
   <g id="line2d_32">
    <path d="M 73.832727 295.488 
L 73.841432 295.488 
L 73.841432 295.488 
L 73.88873 99.910886 
L 73.952506 118.8032 
L 74.028326 139.120808 
L 74.13958 166.95755 
L 74.565706 211.047759 
L 74.568147 211.151421 
L 74.737703 219.48499 
L 74.81075 222.328127 
L 74.81075 222.328127 
L 74.920727 226.181524 
L 74.925957 226.282383 
L 75.03657 229.574415 
L 75.09196 231.001655 
L 75.331785 236.373895 
L 75.337908 236.477579 
L 75.337908 236.477579 
L 75.44882 238.545844 
L 75.61387 241.251166 
L 75.621981 241.361976 
L 75.621981 241.361976 
L 75.732895 242.969258 
L 75.739669 243.056718 
L 75.739669 243.056718 
L 75.850093 244.517605 
L 75.871659 244.779152 
L 76.396151 250.190596 
L 76.408457 250.287887 
L 76.408457 250.300446 
L 77.889538 259.008393 
L 77.927842 259.165443 
L 77.927842 259.165443 
L 78.038492 259.623378 
L 78.066226 259.732173 
L 78.066226 259.732173 
L 78.176948 260.182076 
L 78.248845 260.457308 
L 78.248845 260.457308 
L 78.359633 260.884505 
L 78.393074 261.005973 
L 78.568109 261.642547 
L 78.603124 261.75994 
L 78.72487 262.180374 
L 78.79919 262.427679 
L 78.956815 262.937247 
L 78.991898 263.043934 
L 78.991898 263.044772 
L 79.123562 263.450694 
L 79.215279 263.716922 
L 79.334533 264.061969 
L 79.374179 264.172278 
L 79.374179 264.172278 
L 79.485075 264.486047 
L 79.526767 264.594452 
L 79.526767 264.596461 
L 79.629033 264.871313 
L 80.611629 267.164107 
L 80.66509 267.274356 
L 80.777094 267.506507 
L 80.854304 267.65655 
L 81.051616 268.040183 
L 81.110677 268.150579 
L 81.110677 268.151064 
L 81.775845 269.319182 
L 81.88748 269.501182 
L 82.076402 269.804103 
L 82.150362 269.914374 
L 82.291804 270.129158 
L 82.366279 270.239727 
L 82.366279 270.239727 
L 82.475039 270.402335 
L 82.931673 271.033428 
L 83.042726 271.1832 
L 83.129045 271.293798 
L 83.24163 271.438782 
L 83.428306 271.672479 
L 83.428306 271.672479 
L 83.539095 271.806994 
L 85.226519 273.62334 
L 85.342733 273.733984 
L 85.663143 274.028938 
L 85.788399 274.139094 
L 85.945599 274.275892 
L 86.079159 274.386805 
L 86.190713 274.481609 
L 86.32788 274.592695 
L 86.32788 274.592695 
L 86.438726 274.682743 
L 86.630258 274.833159 
L 86.740424 274.919001 
L 86.888233 275.029472 
L 86.99929 275.113046 
L 87.150674 275.22405 
L 87.313614 275.34312 
L 87.471476 275.453504 
L 87.471476 275.453504 
L 87.581045 275.531845 
L 87.742969 275.642729 
L 87.742969 275.642729 
L 87.853718 275.720043 
L 88.017302 275.830588 
L 88.017302 275.830588 
L 88.128091 275.906987 
L 88.304516 276.022967 
L 88.415177 276.096167 
L 88.587477 276.20671 
L 88.587477 276.206867 
L 88.727079 276.295956 
L 88.916331 276.412237 
L 89.026822 276.481771 
L 89.216719 276.59481 
L 89.327475 276.660996 
L 90.054287 277.074151 
L 90.420515 277.270148 
L 90.530942 277.329681 
L 90.904701 277.524435 
L 91.055252 277.59997 
L 91.324318 277.733723 
L 92.762301 278.405574 
L 93.070923 278.541998 
L 93.181908 278.591217 
L 93.457608 278.709744 
L 98.696803 280.561517 
L 99.106699 280.680571 
L 99.22305 280.714649 
L 99.721515 280.855374 
L 99.721515 280.855374 
L 99.831897 280.886378 
L 100.65368 281.108699 
L 100.65368 281.108699 
L 100.764513 281.138363 
L 101.246581 281.263747 
L 101.246581 281.263747 
L 101.357676 281.292228 
L 101.615555 281.358275 
L 102.062503 281.469186 
L 102.178372 281.498038 
L 102.639684 281.609011 
L 103.151396 281.730207 
L 103.632423 281.841126 
L 103.868066 281.894965 
L 104.367129 282.005998 
L 104.604179 282.058392 
L 105.122959 282.169385 
L 105.122959 282.169453 
L 105.359669 282.219682 
L 105.989788 282.349384 
L 105.989788 282.349384 
L 106.100481 282.372039 
L 106.657765 282.483048 
L 106.657765 282.483048 
L 106.768308 282.504916 
L 107.307898 282.609213 
L 107.976269 282.734131 
L 108.106369 282.75823 
L 108.898325 282.902342 
L 109.531366 283.01329 
L 109.531366 283.01329 
L 109.64173 283.032451 
L 110.307565 283.145332 
L 115.316424 283.905863 
L 116.147831 284.016624 
L 116.147831 284.016624 
L 116.2577 284.031137 
L 117.132698 284.142233 
L 117.244349 284.156366 
L 118.365524 284.294811 
L 120.871321 284.589887 
L 121.880424 284.700627 
L 122.971362 284.814995 
L 123.121823 284.830496 
L 124.936435 285.005915 
L 125.045808 285.016266 
L 126.260128 285.127149 
L 126.371339 285.137286 
L 127.822824 285.266075 
L 129.199767 285.382265 
L 130.541773 285.493376 
L 130.722435 285.508058 
L 132.131747 285.61914 
L 132.2422 285.627844 
L 133.909697 285.75011 
L 168.348261 287.635481 
L 171.098835 287.746575 
L 178.822857 288.032272 
L 182.097659 288.143367 
L 183.969035 288.203983 
L 255.619153 289.704163 
L 263.451435 289.815256 
L 263.451435 289.815263 
L 274.536347 289.961733 
L 283.57273 290.072833 
L 283.57273 290.072843 
L 298.616349 290.24034 
L 312.783191 290.375282 
L 312.915086 290.376475 
L 325.677619 290.48757 
L 325.677619 290.48757 
L 325.788408 290.488531 
L 339.258353 290.599641 
L 339.450647 290.601198 
L 354.901018 290.719206 
L 354.901018 290.719206 
L 355.0114 290.720038 
L 373.189897 290.848602 
L 373.307635 290.849437 
L 398.487242 291.02027 
L 398.487242 291.02027 
" clip-path="url(#pd48a75deae)" style="fill: none; stroke: #d62728; stroke-width: 1.5; stroke-linecap: square"/>
   </g>
   <g id="line2d_33">
    <path d="M 73.832727 295.488 
L 73.838336 295.488 
L 73.838336 295.488 
L 73.861394 108.984049 
L 73.949775 168.770008 
L 73.951226 168.78044 
L 73.951226 168.826299 
L 74.166058 205.337571 
L 74.166555 205.361414 
L 74.278013 214.632127 
L 74.491886 225.246019 
L 74.494704 225.347988 
L 74.742429 232.803536 
L 74.746225 232.892438 
L 74.746225 232.9026 
L 74.915451 237.116899 
L 74.920727 237.219931 
L 74.920727 237.219956 
L 75.031136 239.481588 
L 75.037967 239.590315 
L 75.150096 241.638469 
L 75.228337 243.014629 
L 75.228337 243.014629 
L 75.338314 244.843531 
L 75.345785 244.94805 
L 75.489666 247.090841 
L 75.497801 247.18642 
L 75.497801 247.200714 
L 76.095114 253.698399 
L 76.107746 253.803573 
L 76.107746 253.803573 
L 76.21831 254.77657 
L 76.234725 254.906335 
L 76.345961 255.821009 
L 76.360165 255.923025 
L 76.360165 255.930346 
L 76.585253 257.582759 
L 76.600815 257.680071 
L 76.600815 257.685979 
L 76.826159 259.138844 
L 76.84593 259.249143 
L 76.84593 259.249143 
L 76.956582 259.906141 
L 77.106871 260.721731 
L 77.106871 260.721731 
L 77.216122 261.298828 
L 77.240385 261.409235 
L 77.240385 261.409235 
L 77.351329 261.954081 
L 79.12191 267.987278 
L 79.168505 268.09813 
L 79.282058 268.37301 
L 79.329577 268.482642 
L 79.441545 268.745045 
L 79.73377 269.386472 
L 79.787708 269.496135 
L 79.787708 269.496135 
L 79.89837 269.722106 
L 79.969405 269.861899 
L 80.089091 270.092226 
L 80.200626 270.304577 
L 80.262134 270.415131 
L 80.374324 270.615992 
L 82.316005 273.590406 
L 82.401586 273.698576 
L 82.401586 273.698576 
L 82.511968 273.838992 
L 82.658874 274.018079 
L 82.658874 274.018079 
L 82.768942 274.152001 
L 82.95431 274.36855 
L 82.95431 274.36855 
L 83.064368 274.497212 
L 83.16543 274.608293 
L 83.288861 274.745969 
L 83.39219 274.856832 
L 83.504956 274.978746 
L 83.611331 275.088759 
L 83.611331 275.089212 
L 83.822359 275.30618 
L 83.936445 275.417009 
L 84.047806 275.526632 
L 84.16249 275.636974 
L 84.838456 276.251182 
L 84.967837 276.362089 
L 85.078315 276.45751 
L 85.212285 276.568174 
L 85.212285 276.568174 
L 85.323356 276.66021 
L 85.941861 277.147216 
L 86.089663 277.258282 
L 86.588675 277.619008 
L 86.750956 277.729566 
L 86.86252 277.806816 
L 87.157164 278.002088 
L 87.268427 278.075525 
L 87.489493 278.21611 
L 87.601338 278.286347 
L 87.71555 278.357199 
L 87.897801 278.468269 
L 88.00878 278.536559 
L 88.272747 278.690561 
L 88.385488 278.756208 
L 88.659713 278.911187 
L 88.659713 278.911187 
L 88.769486 278.973054 
L 88.978068 279.086295 
L 89.344384 279.280569 
L 89.561877 279.391664 
L 89.677907 279.450218 
L 90.005001 279.609313 
L 90.005001 279.609313 
L 90.11579 279.662834 
L 90.258638 279.730709 
L 90.563377 279.872585 
L 91.003791 280.067297 
L 91.262696 280.178277 
L 91.375788 280.226946 
L 91.640569 280.338044 
L 91.769579 280.392153 
L 92.062501 280.510872 
L 92.062501 280.510872 
L 92.171769 280.555373 
L 92.52318 280.691888 
L 92.634723 280.734911 
L 93.133051 280.919332 
L 93.133051 280.919332 
L 93.243839 280.958931 
L 93.56263 281.07003 
L 94.130553 281.257674 
L 94.130553 281.257674 
L 94.241335 281.293545 
L 94.588316 281.404222 
L 94.588316 281.404222 
L 94.699333 281.439068 
L 95.074743 281.55016 
L 95.917159 281.796041 
L 96.085388 281.845119 
L 96.476575 281.956125 
L 96.587976 281.98748 
L 99.063562 282.637694 
L 99.529155 282.748577 
L 99.640351 282.775052 
L 100.115564 282.886028 
L 100.115564 282.886028 
L 100.225947 282.912004 
L 101.030937 283.094301 
L 101.165467 283.1242 
L 101.684865 283.235208 
L 101.684865 283.235208 
L 101.795795 283.259004 
L 102.32971 283.370063 
L 102.32971 283.370063 
L 102.440305 283.392898 
L 102.994035 283.503905 
L 102.994035 283.503905 
L 103.105035 283.525989 
L 115.89928 285.478516 
L 116.859769 285.589618 
L 116.971907 285.602331 
L 120.364286 285.966924 
L 121.471606 286.077997 
L 123.556983 286.276945 
L 123.66846 286.287339 
L 126.304017 286.521171 
L 126.421495 286.531252 
L 127.752618 286.64235 
L 127.752618 286.64235 
L 127.863017 286.651504 
L 129.250216 286.762593 
L 129.362121 286.771483 
L 131.896835 286.963666 
L 132.031631 286.97356 
L 133.581552 287.084671 
L 137.447623 287.343868 
L 137.607921 287.354232 
L 139.47607 287.470643 
L 139.58886 287.477658 
L 141.620926 287.598443 
L 160.385116 288.489218 
L 163.232114 288.600312 
L 163.232114 288.600312 
L 163.342091 288.604567 
L 167.402711 288.752779 
L 168.094093 288.776606 
L 172.322044 288.917678 
L 172.322044 288.917678 
L 172.432981 288.921253 
L 176.031225 289.032357 
L 176.031225 289.032357 
L 176.142254 289.035734 
L 182.65743 289.223552 
L 182.810207 289.227729 
L 189.391929 289.399235 
L 190.454507 289.425828 
L 196.393303 289.567265 
L 198.145992 289.607388 
L 204.096011 289.735891 
L 204.096011 289.735891 
L 204.205176 289.738197 
L 209.891325 289.852967 
L 213.724741 289.927335 
L 219.718652 290.038442 
L 233.363743 290.262205 
L 233.476867 290.263906 
L 241.292671 290.375016 
L 251.389845 290.503352 
L 251.50904 290.504802 
L 261.137052 290.615901 
L 261.137052 290.615909 
L 391.036628 291.633578 
L 398.487255 291.673057 
L 398.487255 291.673057 
" clip-path="url(#pd48a75deae)" style="fill: none; stroke: #9467bd; stroke-width: 1.5; stroke-linecap: square"/>
   </g>
   <g id="patch_3">
    <path d="M 57.6 307.584 
L 57.6 41.472 
" style="fill: none; stroke: #000000; stroke-width: 0.8; stroke-linejoin: miter; stroke-linecap: square"/>
   </g>
   <g id="patch_4">
    <path d="M 414.72 307.584 
L 414.72 41.472 
" style="fill: none; stroke: #000000; stroke-width: 0.8; stroke-linejoin: miter; stroke-linecap: square"/>
   </g>
   <g id="patch_5">
    <path d="M 57.6 307.584 
L 414.72 307.584 
" style="fill: none; stroke: #000000; stroke-width: 0.8; stroke-linejoin: miter; stroke-linecap: square"/>
   </g>
   <g id="patch_6">
    <path d="M 57.6 41.472 
L 414.72 41.472 
" style="fill: none; stroke: #000000; stroke-width: 0.8; stroke-linejoin: miter; stroke-linecap: square"/>
   </g>
   <g id="text_17">
    <!-- ioChannelLoadStdDev vs. TimePoint for Each Run -->
    <g transform="translate(87.945 35.472) scale(0.12 -0.12)">
     <defs>
      <path id="DejaVuSans-20" transform="scale(0.015625)"/>
      <path id="DejaVuSans-73" d="M 2834 3397 
L 2834 2853 
Q 2591 2978 2328 3040 
Q 2066 3103 1784 3103 
Q 1356 3103 1142 2972 
Q 928 2841 928 2578 
Q 928 2378 1081 2264 
Q 1234 2150 1697 2047 
L 1894 2003 
Q 2506 1872 2764 1633 
Q 3022 1394 3022 966 
Q 3022 478 2636 193 
Q 2250 -91 1575 -91 
Q 1294 -91 989 -36 
Q 684 19 347 128 
L 347 722 
Q 666 556 975 473 
Q 1284 391 1588 391 
Q 1994 391 2212 530 
Q 2431 669 2431 922 
Q 2431 1156 2273 1281 
Q 2116 1406 1581 1522 
L 1381 1569 
Q 847 1681 609 1914 
Q 372 2147 372 2553 
Q 372 3047 722 3315 
Q 1072 3584 1716 3584 
Q 2034 3584 2315 3537 
Q 2597 3491 2834 3397 
z
" transform="scale(0.015625)"/>
      <path id="DejaVuSans-66" d="M 2375 4863 
L 2375 4384 
L 1825 4384 
Q 1516 4384 1395 4259 
Q 1275 4134 1275 3809 
L 1275 3500 
L 2222 3500 
L 2222 3053 
L 1275 3053 
L 1275 0 
L 697 0 
L 697 3053 
L 147 3053 
L 147 3500 
L 697 3500 
L 697 3744 
Q 697 4328 969 4595 
Q 1241 4863 1831 4863 
L 2375 4863 
z
" transform="scale(0.015625)"/>
      <path id="DejaVuSans-72" d="M 2631 2963 
Q 2534 3019 2420 3045 
Q 2306 3072 2169 3072 
Q 1681 3072 1420 2755 
Q 1159 2438 1159 1844 
L 1159 0 
L 581 0 
L 581 3500 
L 1159 3500 
L 1159 2956 
Q 1341 3275 1631 3429 
Q 1922 3584 2338 3584 
Q 2397 3584 2469 3576 
Q 2541 3569 2628 3553 
L 2631 2963 
z
" transform="scale(0.015625)"/>
      <path id="DejaVuSans-45" d="M 628 4666 
L 3578 4666 
L 3578 4134 
L 1259 4134 
L 1259 2753 
L 3481 2753 
L 3481 2222 
L 1259 2222 
L 1259 531 
L 3634 531 
L 3634 0 
L 628 0 
L 628 4666 
z
" transform="scale(0.015625)"/>
      <path id="DejaVuSans-63" d="M 3122 3366 
L 3122 2828 
Q 2878 2963 2633 3030 
Q 2388 3097 2138 3097 
Q 1578 3097 1268 2742 
Q 959 2388 959 1747 
Q 959 1106 1268 751 
Q 1578 397 2138 397 
Q 2388 397 2633 464 
Q 2878 531 3122 666 
L 3122 134 
Q 2881 22 2623 -34 
Q 2366 -91 2075 -91 
Q 1284 -91 818 406 
Q 353 903 353 1747 
Q 353 2603 823 3093 
Q 1294 3584 2113 3584 
Q 2378 3584 2631 3529 
Q 2884 3475 3122 3366 
z
" transform="scale(0.015625)"/>
      <path id="DejaVuSans-52" d="M 2841 2188 
Q 3044 2119 3236 1894 
Q 3428 1669 3622 1275 
L 4263 0 
L 3584 0 
L 2988 1197 
Q 2756 1666 2539 1819 
Q 2322 1972 1947 1972 
L 1259 1972 
L 1259 0 
L 628 0 
L 628 4666 
L 2053 4666 
Q 2853 4666 3247 4331 
Q 3641 3997 3641 3322 
Q 3641 2881 3436 2590 
Q 3231 2300 2841 2188 
z
M 1259 4147 
L 1259 2491 
L 2053 2491 
Q 2509 2491 2742 2702 
Q 2975 2913 2975 3322 
Q 2975 3731 2742 3939 
Q 2509 4147 2053 4147 
L 1259 4147 
z
" transform="scale(0.015625)"/>
      <path id="DejaVuSans-75" d="M 544 1381 
L 544 3500 
L 1119 3500 
L 1119 1403 
Q 1119 906 1312 657 
Q 1506 409 1894 409 
Q 2359 409 2629 706 
Q 2900 1003 2900 1516 
L 2900 3500 
L 3475 3500 
L 3475 0 
L 2900 0 
L 2900 538 
Q 2691 219 2414 64 
Q 2138 -91 1772 -91 
Q 1169 -91 856 284 
Q 544 659 544 1381 
z
M 1991 3584 
L 1991 3584 
z
" transform="scale(0.015625)"/>
     </defs>
     <use xlink:href="#DejaVuSans-69"/>
     <use xlink:href="#DejaVuSans-6f" x="27.783203"/>
     <use xlink:href="#DejaVuSans-43" x="88.964844"/>
     <use xlink:href="#DejaVuSans-68" x="158.789062"/>
     <use xlink:href="#DejaVuSans-61" x="222.167969"/>
     <use xlink:href="#DejaVuSans-6e" x="283.447266"/>
     <use xlink:href="#DejaVuSans-6e" x="346.826172"/>
     <use xlink:href="#DejaVuSans-65" x="410.205078"/>
     <use xlink:href="#DejaVuSans-6c" x="471.728516"/>
     <use xlink:href="#DejaVuSans-4c" x="499.511719"/>
     <use xlink:href="#DejaVuSans-6f" x="553.474609"/>
     <use xlink:href="#DejaVuSans-61" x="614.65625"/>
     <use xlink:href="#DejaVuSans-64" x="675.935547"/>
     <use xlink:href="#DejaVuSans-53" x="739.412109"/>
     <use xlink:href="#DejaVuSans-74" x="802.888672"/>
     <use xlink:href="#DejaVuSans-64" x="842.097656"/>
     <use xlink:href="#DejaVuSans-44" x="905.574219"/>
     <use xlink:href="#DejaVuSans-65" x="982.576172"/>
     <use xlink:href="#DejaVuSans-76" x="1044.099609"/>
     <use xlink:href="#DejaVuSans-20" x="1103.279297"/>
     <use xlink:href="#DejaVuSans-76" x="1135.066406"/>
     <use xlink:href="#DejaVuSans-73" x="1194.246094"/>
     <use xlink:href="#DejaVuSans-2e" x="1246.345703"/>
     <use xlink:href="#DejaVuSans-20" x="1278.132812"/>
     <use xlink:href="#DejaVuSans-54" x="1309.919922"/>
     <use xlink:href="#DejaVuSans-69" x="1367.878906"/>
     <use xlink:href="#DejaVuSans-6d" x="1395.662109"/>
     <use xlink:href="#DejaVuSans-65" x="1493.074219"/>
     <use xlink:href="#DejaVuSans-50" x="1554.597656"/>
     <use xlink:href="#DejaVuSans-6f" x="1611.275391"/>
     <use xlink:href="#DejaVuSans-69" x="1672.457031"/>
     <use xlink:href="#DejaVuSans-6e" x="1700.240234"/>
     <use xlink:href="#DejaVuSans-74" x="1763.619141"/>
     <use xlink:href="#DejaVuSans-20" x="1802.828125"/>
     <use xlink:href="#DejaVuSans-66" x="1834.615234"/>
     <use xlink:href="#DejaVuSans-6f" x="1869.820312"/>
     <use xlink:href="#DejaVuSans-72" x="1931.001953"/>
     <use xlink:href="#DejaVuSans-20" x="1972.115234"/>
     <use xlink:href="#DejaVuSans-45" x="2003.902344"/>
     <use xlink:href="#DejaVuSans-61" x="2067.085938"/>
     <use xlink:href="#DejaVuSans-63" x="2128.365234"/>
     <use xlink:href="#DejaVuSans-68" x="2183.345703"/>
     <use xlink:href="#DejaVuSans-20" x="2246.724609"/>
     <use xlink:href="#DejaVuSans-52" x="2278.511719"/>
     <use xlink:href="#DejaVuSans-75" x="2343.494141"/>
     <use xlink:href="#DejaVuSans-6e" x="2406.873047"/>
    </g>
   </g>
   <g id="legend_1">
    <g id="patch_7">
     <path d="M 341.196563 137.54075 
L 407.72 137.54075 
Q 409.72 137.54075 409.72 135.54075 
L 409.72 48.472 
Q 409.72 46.472 407.72 46.472 
L 341.196563 46.472 
Q 339.196563 46.472 339.196563 48.472 
L 339.196563 135.54075 
Q 339.196563 137.54075 341.196563 137.54075 
z
" style="fill: #ffffff; opacity: 0.8; stroke: #cccccc; stroke-linejoin: miter"/>
    </g>
    <g id="text_18">
     <!-- Run Number -->
     <g transform="translate(343.196563 58.070438) scale(0.1 -0.1)">
      <defs>
       <path id="DejaVuSans-4e" d="M 628 4666 
L 1478 4666 
L 3547 763 
L 3547 4666 
L 4159 4666 
L 4159 0 
L 3309 0 
L 1241 3903 
L 1241 0 
L 628 0 
L 628 4666 
z
" transform="scale(0.015625)"/>
       <path id="DejaVuSans-62" d="M 3116 1747 
Q 3116 2381 2855 2742 
Q 2594 3103 2138 3103 
Q 1681 3103 1420 2742 
Q 1159 2381 1159 1747 
Q 1159 1113 1420 752 
Q 1681 391 2138 391 
Q 2594 391 2855 752 
Q 3116 1113 3116 1747 
z
M 1159 2969 
Q 1341 3281 1617 3432 
Q 1894 3584 2278 3584 
Q 2916 3584 3314 3078 
Q 3713 2572 3713 1747 
Q 3713 922 3314 415 
Q 2916 -91 2278 -91 
Q 1894 -91 1617 61 
Q 1341 213 1159 525 
L 1159 0 
L 581 0 
L 581 4863 
L 1159 4863 
L 1159 2969 
z
" transform="scale(0.015625)"/>
      </defs>
      <use xlink:href="#DejaVuSans-52"/>
      <use xlink:href="#DejaVuSans-75" x="64.982422"/>
      <use xlink:href="#DejaVuSans-6e" x="128.361328"/>
      <use xlink:href="#DejaVuSans-20" x="191.740234"/>
      <use xlink:href="#DejaVuSans-4e" x="223.527344"/>
      <use xlink:href="#DejaVuSans-75" x="298.332031"/>
      <use xlink:href="#DejaVuSans-6d" x="361.710938"/>
      <use xlink:href="#DejaVuSans-62" x="459.123047"/>
      <use xlink:href="#DejaVuSans-65" x="522.599609"/>
      <use xlink:href="#DejaVuSans-72" x="584.123047"/>
     </g>
    </g>
    <g id="line2d_34">
     <path d="M 346.10125 69.248563 
L 356.10125 69.248563 
L 366.10125 69.248563 
" style="fill: none; stroke: #1f77b4; stroke-width: 1.5; stroke-linecap: square"/>
    </g>
    <g id="text_19">
     <!-- Run 0 -->
     <g transform="translate(374.10125 72.748563) scale(0.1 -0.1)">
      <use xlink:href="#DejaVuSans-52"/>
      <use xlink:href="#DejaVuSans-75" x="64.982422"/>
      <use xlink:href="#DejaVuSans-6e" x="128.361328"/>
      <use xlink:href="#DejaVuSans-20" x="191.740234"/>
      <use xlink:href="#DejaVuSans-30" x="223.527344"/>
     </g>
    </g>
    <g id="line2d_35">
     <path d="M 346.10125 83.926688 
L 356.10125 83.926688 
L 366.10125 83.926688 
" style="fill: none; stroke: #ff7f0e; stroke-width: 1.5; stroke-linecap: square"/>
    </g>
    <g id="text_20">
     <!-- Run 1 -->
     <g transform="translate(374.10125 87.426688) scale(0.1 -0.1)">
      <use xlink:href="#DejaVuSans-52"/>
      <use xlink:href="#DejaVuSans-75" x="64.982422"/>
      <use xlink:href="#DejaVuSans-6e" x="128.361328"/>
      <use xlink:href="#DejaVuSans-20" x="191.740234"/>
      <use xlink:href="#DejaVuSans-31" x="223.527344"/>
     </g>
    </g>
    <g id="line2d_36">
     <path d="M 346.10125 98.604813 
L 356.10125 98.604813 
L 366.10125 98.604813 
" style="fill: none; stroke: #2ca02c; stroke-width: 1.5; stroke-linecap: square"/>
    </g>
    <g id="text_21">
     <!-- Run 2 -->
     <g transform="translate(374.10125 102.104813) scale(0.1 -0.1)">
      <use xlink:href="#DejaVuSans-52"/>
      <use xlink:href="#DejaVuSans-75" x="64.982422"/>
      <use xlink:href="#DejaVuSans-6e" x="128.361328"/>
      <use xlink:href="#DejaVuSans-20" x="191.740234"/>
      <use xlink:href="#DejaVuSans-32" x="223.527344"/>
     </g>
    </g>
    <g id="line2d_37">
     <path d="M 346.10125 113.282938 
L 356.10125 113.282938 
L 366.10125 113.282938 
" style="fill: none; stroke: #d62728; stroke-width: 1.5; stroke-linecap: square"/>
    </g>
    <g id="text_22">
     <!-- Run 3 -->
     <g transform="translate(374.10125 116.782938) scale(0.1 -0.1)">
      <use xlink:href="#DejaVuSans-52"/>
      <use xlink:href="#DejaVuSans-75" x="64.982422"/>
      <use xlink:href="#DejaVuSans-6e" x="128.361328"/>
      <use xlink:href="#DejaVuSans-20" x="191.740234"/>
      <use xlink:href="#DejaVuSans-33" x="223.527344"/>
     </g>
    </g>
    <g id="line2d_38">
     <path d="M 346.10125 127.961063 
L 356.10125 127.961063 
L 366.10125 127.961063 
" style="fill: none; stroke: #9467bd; stroke-width: 1.5; stroke-linecap: square"/>
    </g>
    <g id="text_23">
     <!-- Run 4 -->
     <g transform="translate(374.10125 131.461063) scale(0.1 -0.1)">
      <use xlink:href="#DejaVuSans-52"/>
      <use xlink:href="#DejaVuSans-75" x="64.982422"/>
      <use xlink:href="#DejaVuSans-6e" x="128.361328"/>
      <use xlink:href="#DejaVuSans-20" x="191.740234"/>
      <use xlink:href="#DejaVuSans-34" x="223.527344"/>
     </g>
    </g>
   </g>
  </g>
 </g>
 <defs>
  <clipPath id="pd48a75deae">
   <rect x="57.6" y="41.472" width="357.12" height="266.112"/>
  </clipPath>
 </defs>
</svg>
