<?xml version="1.0" encoding="utf-8" standalone="no"?>
<!DOCTYPE svg PUBLIC "-//W3C//DTD SVG 1.1//EN"
  "http://www.w3.org/Graphics/SVG/1.1/DTD/svg11.dtd">
<svg xmlns:xlink="http://www.w3.org/1999/xlink" width="460.8pt" height="345.6pt" viewBox="0 0 460.8 345.6" xmlns="http://www.w3.org/2000/svg" version="1.1">
 <metadata>
  <rdf:RDF xmlns:dc="http://purl.org/dc/elements/1.1/" xmlns:cc="http://creativecommons.org/ns#" xmlns:rdf="http://www.w3.org/1999/02/22-rdf-syntax-ns#">
   <cc:Work>
    <dc:type rdf:resource="http://purl.org/dc/dcmitype/StillImage"/>
    <dc:date>2024-12-03T22:17:24.285084</dc:date>
    <dc:format>image/svg+xml</dc:format>
    <dc:creator>
     <cc:Agent>
      <dc:title>Matplotlib v3.9.2, https://matplotlib.org/</dc:title>
     </cc:Agent>
    </dc:creator>
   </cc:Work>
  </rdf:RDF>
 </metadata>
 <defs>
  <style type="text/css">*{stroke-linejoin: round; stroke-linecap: butt}</style>
 </defs>
 <g id="figure_1">
  <g id="patch_1">
   <path d="M 0 345.6 
L 460.8 345.6 
L 460.8 0 
L 0 0 
z
" style="fill: #ffffff"/>
  </g>
  <g id="axes_1">
   <g id="patch_2">
    <path d="M 57.6 307.584 
L 414.72 307.584 
L 414.72 41.472 
L 57.6 41.472 
z
" style="fill: #ffffff"/>
   </g>
   <g id="matplotlib.axis_1">
    <g id="xtick_1">
     <g id="line2d_1">
      <path d="M 73.832727 307.584 
L 73.832727 41.472 
" clip-path="url(#p03d897ad32)" style="fill: none; stroke: #b0b0b0; stroke-width: 0.8; stroke-linecap: square"/>
     </g>
     <g id="line2d_2">
      <defs>
       <path id="m318a904f7f" d="M 0 0 
L 0 3.5 
" style="stroke: #000000; stroke-width: 0.8"/>
      </defs>
      <g>
       <use xlink:href="#m318a904f7f" x="73.832727" y="307.584" style="stroke: #000000; stroke-width: 0.8"/>
      </g>
     </g>
     <g id="text_1">
      <!-- 0 -->
      <g transform="translate(70.651477 322.182437) scale(0.1 -0.1)">
       <defs>
        <path id="DejaVuSans-30" d="M 2034 4250 
Q 1547 4250 1301 3770 
Q 1056 3291 1056 2328 
Q 1056 1369 1301 889 
Q 1547 409 2034 409 
Q 2525 409 2770 889 
Q 3016 1369 3016 2328 
Q 3016 3291 2770 3770 
Q 2525 4250 2034 4250 
z
M 2034 4750 
Q 2819 4750 3233 4129 
Q 3647 3509 3647 2328 
Q 3647 1150 3233 529 
Q 2819 -91 2034 -91 
Q 1250 -91 836 529 
Q 422 1150 422 2328 
Q 422 3509 836 4129 
Q 1250 4750 2034 4750 
z
" transform="scale(0.015625)"/>
       </defs>
       <use xlink:href="#DejaVuSans-30"/>
      </g>
     </g>
    </g>
    <g id="xtick_2">
     <g id="line2d_3">
      <path d="M 114.414549 307.584 
L 114.414549 41.472 
" clip-path="url(#p03d897ad32)" style="fill: none; stroke: #b0b0b0; stroke-width: 0.8; stroke-linecap: square"/>
     </g>
     <g id="line2d_4">
      <g>
       <use xlink:href="#m318a904f7f" x="114.414549" y="307.584" style="stroke: #000000; stroke-width: 0.8"/>
      </g>
     </g>
     <g id="text_2">
      <!-- 100000 -->
      <g transform="translate(95.327049 322.182437) scale(0.1 -0.1)">
       <defs>
        <path id="DejaVuSans-31" d="M 794 531 
L 1825 531 
L 1825 4091 
L 703 3866 
L 703 4441 
L 1819 4666 
L 2450 4666 
L 2450 531 
L 3481 531 
L 3481 0 
L 794 0 
L 794 531 
z
" transform="scale(0.015625)"/>
       </defs>
       <use xlink:href="#DejaVuSans-31"/>
       <use xlink:href="#DejaVuSans-30" x="63.623047"/>
       <use xlink:href="#DejaVuSans-30" x="127.246094"/>
       <use xlink:href="#DejaVuSans-30" x="190.869141"/>
       <use xlink:href="#DejaVuSans-30" x="254.492188"/>
       <use xlink:href="#DejaVuSans-30" x="318.115234"/>
      </g>
     </g>
    </g>
    <g id="xtick_3">
     <g id="line2d_5">
      <path d="M 154.99637 307.584 
L 154.99637 41.472 
" clip-path="url(#p03d897ad32)" style="fill: none; stroke: #b0b0b0; stroke-width: 0.8; stroke-linecap: square"/>
     </g>
     <g id="line2d_6">
      <g>
       <use xlink:href="#m318a904f7f" x="154.99637" y="307.584" style="stroke: #000000; stroke-width: 0.8"/>
      </g>
     </g>
     <g id="text_3">
      <!-- 200000 -->
      <g transform="translate(135.90887 322.182437) scale(0.1 -0.1)">
       <defs>
        <path id="DejaVuSans-32" d="M 1228 531 
L 3431 531 
L 3431 0 
L 469 0 
L 469 531 
Q 828 903 1448 1529 
Q 2069 2156 2228 2338 
Q 2531 2678 2651 2914 
Q 2772 3150 2772 3378 
Q 2772 3750 2511 3984 
Q 2250 4219 1831 4219 
Q 1534 4219 1204 4116 
Q 875 4013 500 3803 
L 500 4441 
Q 881 4594 1212 4672 
Q 1544 4750 1819 4750 
Q 2544 4750 2975 4387 
Q 3406 4025 3406 3419 
Q 3406 3131 3298 2873 
Q 3191 2616 2906 2266 
Q 2828 2175 2409 1742 
Q 1991 1309 1228 531 
z
" transform="scale(0.015625)"/>
       </defs>
       <use xlink:href="#DejaVuSans-32"/>
       <use xlink:href="#DejaVuSans-30" x="63.623047"/>
       <use xlink:href="#DejaVuSans-30" x="127.246094"/>
       <use xlink:href="#DejaVuSans-30" x="190.869141"/>
       <use xlink:href="#DejaVuSans-30" x="254.492188"/>
       <use xlink:href="#DejaVuSans-30" x="318.115234"/>
      </g>
     </g>
    </g>
    <g id="xtick_4">
     <g id="line2d_7">
      <path d="M 195.578191 307.584 
L 195.578191 41.472 
" clip-path="url(#p03d897ad32)" style="fill: none; stroke: #b0b0b0; stroke-width: 0.8; stroke-linecap: square"/>
     </g>
     <g id="line2d_8">
      <g>
       <use xlink:href="#m318a904f7f" x="195.578191" y="307.584" style="stroke: #000000; stroke-width: 0.8"/>
      </g>
     </g>
     <g id="text_4">
      <!-- 300000 -->
      <g transform="translate(176.490691 322.182437) scale(0.1 -0.1)">
       <defs>
        <path id="DejaVuSans-33" d="M 2597 2516 
Q 3050 2419 3304 2112 
Q 3559 1806 3559 1356 
Q 3559 666 3084 287 
Q 2609 -91 1734 -91 
Q 1441 -91 1130 -33 
Q 819 25 488 141 
L 488 750 
Q 750 597 1062 519 
Q 1375 441 1716 441 
Q 2309 441 2620 675 
Q 2931 909 2931 1356 
Q 2931 1769 2642 2001 
Q 2353 2234 1838 2234 
L 1294 2234 
L 1294 2753 
L 1863 2753 
Q 2328 2753 2575 2939 
Q 2822 3125 2822 3475 
Q 2822 3834 2567 4026 
Q 2313 4219 1838 4219 
Q 1578 4219 1281 4162 
Q 984 4106 628 3988 
L 628 4550 
Q 988 4650 1302 4700 
Q 1616 4750 1894 4750 
Q 2613 4750 3031 4423 
Q 3450 4097 3450 3541 
Q 3450 3153 3228 2886 
Q 3006 2619 2597 2516 
z
" transform="scale(0.015625)"/>
       </defs>
       <use xlink:href="#DejaVuSans-33"/>
       <use xlink:href="#DejaVuSans-30" x="63.623047"/>
       <use xlink:href="#DejaVuSans-30" x="127.246094"/>
       <use xlink:href="#DejaVuSans-30" x="190.869141"/>
       <use xlink:href="#DejaVuSans-30" x="254.492188"/>
       <use xlink:href="#DejaVuSans-30" x="318.115234"/>
      </g>
     </g>
    </g>
    <g id="xtick_5">
     <g id="line2d_9">
      <path d="M 236.160012 307.584 
L 236.160012 41.472 
" clip-path="url(#p03d897ad32)" style="fill: none; stroke: #b0b0b0; stroke-width: 0.8; stroke-linecap: square"/>
     </g>
     <g id="line2d_10">
      <g>
       <use xlink:href="#m318a904f7f" x="236.160012" y="307.584" style="stroke: #000000; stroke-width: 0.8"/>
      </g>
     </g>
     <g id="text_5">
      <!-- 400000 -->
      <g transform="translate(217.072512 322.182437) scale(0.1 -0.1)">
       <defs>
        <path id="DejaVuSans-34" d="M 2419 4116 
L 825 1625 
L 2419 1625 
L 2419 4116 
z
M 2253 4666 
L 3047 4666 
L 3047 1625 
L 3713 1625 
L 3713 1100 
L 3047 1100 
L 3047 0 
L 2419 0 
L 2419 1100 
L 313 1100 
L 313 1709 
L 2253 4666 
z
" transform="scale(0.015625)"/>
       </defs>
       <use xlink:href="#DejaVuSans-34"/>
       <use xlink:href="#DejaVuSans-30" x="63.623047"/>
       <use xlink:href="#DejaVuSans-30" x="127.246094"/>
       <use xlink:href="#DejaVuSans-30" x="190.869141"/>
       <use xlink:href="#DejaVuSans-30" x="254.492188"/>
       <use xlink:href="#DejaVuSans-30" x="318.115234"/>
      </g>
     </g>
    </g>
    <g id="xtick_6">
     <g id="line2d_11">
      <path d="M 276.741834 307.584 
L 276.741834 41.472 
" clip-path="url(#p03d897ad32)" style="fill: none; stroke: #b0b0b0; stroke-width: 0.8; stroke-linecap: square"/>
     </g>
     <g id="line2d_12">
      <g>
       <use xlink:href="#m318a904f7f" x="276.741834" y="307.584" style="stroke: #000000; stroke-width: 0.8"/>
      </g>
     </g>
     <g id="text_6">
      <!-- 500000 -->
      <g transform="translate(257.654334 322.182437) scale(0.1 -0.1)">
       <defs>
        <path id="DejaVuSans-35" d="M 691 4666 
L 3169 4666 
L 3169 4134 
L 1269 4134 
L 1269 2991 
Q 1406 3038 1543 3061 
Q 1681 3084 1819 3084 
Q 2600 3084 3056 2656 
Q 3513 2228 3513 1497 
Q 3513 744 3044 326 
Q 2575 -91 1722 -91 
Q 1428 -91 1123 -41 
Q 819 9 494 109 
L 494 744 
Q 775 591 1075 516 
Q 1375 441 1709 441 
Q 2250 441 2565 725 
Q 2881 1009 2881 1497 
Q 2881 1984 2565 2268 
Q 2250 2553 1709 2553 
Q 1456 2553 1204 2497 
Q 953 2441 691 2322 
L 691 4666 
z
" transform="scale(0.015625)"/>
       </defs>
       <use xlink:href="#DejaVuSans-35"/>
       <use xlink:href="#DejaVuSans-30" x="63.623047"/>
       <use xlink:href="#DejaVuSans-30" x="127.246094"/>
       <use xlink:href="#DejaVuSans-30" x="190.869141"/>
       <use xlink:href="#DejaVuSans-30" x="254.492188"/>
       <use xlink:href="#DejaVuSans-30" x="318.115234"/>
      </g>
     </g>
    </g>
    <g id="xtick_7">
     <g id="line2d_13">
      <path d="M 317.323655 307.584 
L 317.323655 41.472 
" clip-path="url(#p03d897ad32)" style="fill: none; stroke: #b0b0b0; stroke-width: 0.8; stroke-linecap: square"/>
     </g>
     <g id="line2d_14">
      <g>
       <use xlink:href="#m318a904f7f" x="317.323655" y="307.584" style="stroke: #000000; stroke-width: 0.8"/>
      </g>
     </g>
     <g id="text_7">
      <!-- 600000 -->
      <g transform="translate(298.236155 322.182437) scale(0.1 -0.1)">
       <defs>
        <path id="DejaVuSans-36" d="M 2113 2584 
Q 1688 2584 1439 2293 
Q 1191 2003 1191 1497 
Q 1191 994 1439 701 
Q 1688 409 2113 409 
Q 2538 409 2786 701 
Q 3034 994 3034 1497 
Q 3034 2003 2786 2293 
Q 2538 2584 2113 2584 
z
M 3366 4563 
L 3366 3988 
Q 3128 4100 2886 4159 
Q 2644 4219 2406 4219 
Q 1781 4219 1451 3797 
Q 1122 3375 1075 2522 
Q 1259 2794 1537 2939 
Q 1816 3084 2150 3084 
Q 2853 3084 3261 2657 
Q 3669 2231 3669 1497 
Q 3669 778 3244 343 
Q 2819 -91 2113 -91 
Q 1303 -91 875 529 
Q 447 1150 447 2328 
Q 447 3434 972 4092 
Q 1497 4750 2381 4750 
Q 2619 4750 2861 4703 
Q 3103 4656 3366 4563 
z
" transform="scale(0.015625)"/>
       </defs>
       <use xlink:href="#DejaVuSans-36"/>
       <use xlink:href="#DejaVuSans-30" x="63.623047"/>
       <use xlink:href="#DejaVuSans-30" x="127.246094"/>
       <use xlink:href="#DejaVuSans-30" x="190.869141"/>
       <use xlink:href="#DejaVuSans-30" x="254.492188"/>
       <use xlink:href="#DejaVuSans-30" x="318.115234"/>
      </g>
     </g>
    </g>
    <g id="xtick_8">
     <g id="line2d_15">
      <path d="M 357.905476 307.584 
L 357.905476 41.472 
" clip-path="url(#p03d897ad32)" style="fill: none; stroke: #b0b0b0; stroke-width: 0.8; stroke-linecap: square"/>
     </g>
     <g id="line2d_16">
      <g>
       <use xlink:href="#m318a904f7f" x="357.905476" y="307.584" style="stroke: #000000; stroke-width: 0.8"/>
      </g>
     </g>
     <g id="text_8">
      <!-- 700000 -->
      <g transform="translate(338.817976 322.182437) scale(0.1 -0.1)">
       <defs>
        <path id="DejaVuSans-37" d="M 525 4666 
L 3525 4666 
L 3525 4397 
L 1831 0 
L 1172 0 
L 2766 4134 
L 525 4134 
L 525 4666 
z
" transform="scale(0.015625)"/>
       </defs>
       <use xlink:href="#DejaVuSans-37"/>
       <use xlink:href="#DejaVuSans-30" x="63.623047"/>
       <use xlink:href="#DejaVuSans-30" x="127.246094"/>
       <use xlink:href="#DejaVuSans-30" x="190.869141"/>
       <use xlink:href="#DejaVuSans-30" x="254.492188"/>
       <use xlink:href="#DejaVuSans-30" x="318.115234"/>
      </g>
     </g>
    </g>
    <g id="xtick_9">
     <g id="line2d_17">
      <path d="M 398.487298 307.584 
L 398.487298 41.472 
" clip-path="url(#p03d897ad32)" style="fill: none; stroke: #b0b0b0; stroke-width: 0.8; stroke-linecap: square"/>
     </g>
     <g id="line2d_18">
      <g>
       <use xlink:href="#m318a904f7f" x="398.487298" y="307.584" style="stroke: #000000; stroke-width: 0.8"/>
      </g>
     </g>
     <g id="text_9">
      <!-- 800000 -->
      <g transform="translate(379.399798 322.182437) scale(0.1 -0.1)">
       <defs>
        <path id="DejaVuSans-38" d="M 2034 2216 
Q 1584 2216 1326 1975 
Q 1069 1734 1069 1313 
Q 1069 891 1326 650 
Q 1584 409 2034 409 
Q 2484 409 2743 651 
Q 3003 894 3003 1313 
Q 3003 1734 2745 1975 
Q 2488 2216 2034 2216 
z
M 1403 2484 
Q 997 2584 770 2862 
Q 544 3141 544 3541 
Q 544 4100 942 4425 
Q 1341 4750 2034 4750 
Q 2731 4750 3128 4425 
Q 3525 4100 3525 3541 
Q 3525 3141 3298 2862 
Q 3072 2584 2669 2484 
Q 3125 2378 3379 2068 
Q 3634 1759 3634 1313 
Q 3634 634 3220 271 
Q 2806 -91 2034 -91 
Q 1263 -91 848 271 
Q 434 634 434 1313 
Q 434 1759 690 2068 
Q 947 2378 1403 2484 
z
M 1172 3481 
Q 1172 3119 1398 2916 
Q 1625 2713 2034 2713 
Q 2441 2713 2670 2916 
Q 2900 3119 2900 3481 
Q 2900 3844 2670 4047 
Q 2441 4250 2034 4250 
Q 1625 4250 1398 4047 
Q 1172 3844 1172 3481 
z
" transform="scale(0.015625)"/>
       </defs>
       <use xlink:href="#DejaVuSans-38"/>
       <use xlink:href="#DejaVuSans-30" x="63.623047"/>
       <use xlink:href="#DejaVuSans-30" x="127.246094"/>
       <use xlink:href="#DejaVuSans-30" x="190.869141"/>
       <use xlink:href="#DejaVuSans-30" x="254.492188"/>
       <use xlink:href="#DejaVuSans-30" x="318.115234"/>
      </g>
     </g>
    </g>
    <g id="text_10">
     <!-- TimePoint -->
     <g transform="translate(211.515469 335.860562) scale(0.1 -0.1)">
      <defs>
       <path id="DejaVuSans-54" d="M -19 4666 
L 3928 4666 
L 3928 4134 
L 2272 4134 
L 2272 0 
L 1638 0 
L 1638 4134 
L -19 4134 
L -19 4666 
z
" transform="scale(0.015625)"/>
       <path id="DejaVuSans-69" d="M 603 3500 
L 1178 3500 
L 1178 0 
L 603 0 
L 603 3500 
z
M 603 4863 
L 1178 4863 
L 1178 4134 
L 603 4134 
L 603 4863 
z
" transform="scale(0.015625)"/>
       <path id="DejaVuSans-6d" d="M 3328 2828 
Q 3544 3216 3844 3400 
Q 4144 3584 4550 3584 
Q 5097 3584 5394 3201 
Q 5691 2819 5691 2113 
L 5691 0 
L 5113 0 
L 5113 2094 
Q 5113 2597 4934 2840 
Q 4756 3084 4391 3084 
Q 3944 3084 3684 2787 
Q 3425 2491 3425 1978 
L 3425 0 
L 2847 0 
L 2847 2094 
Q 2847 2600 2669 2842 
Q 2491 3084 2119 3084 
Q 1678 3084 1418 2786 
Q 1159 2488 1159 1978 
L 1159 0 
L 581 0 
L 581 3500 
L 1159 3500 
L 1159 2956 
Q 1356 3278 1631 3431 
Q 1906 3584 2284 3584 
Q 2666 3584 2933 3390 
Q 3200 3197 3328 2828 
z
" transform="scale(0.015625)"/>
       <path id="DejaVuSans-65" d="M 3597 1894 
L 3597 1613 
L 953 1613 
Q 991 1019 1311 708 
Q 1631 397 2203 397 
Q 2534 397 2845 478 
Q 3156 559 3463 722 
L 3463 178 
Q 3153 47 2828 -22 
Q 2503 -91 2169 -91 
Q 1331 -91 842 396 
Q 353 884 353 1716 
Q 353 2575 817 3079 
Q 1281 3584 2069 3584 
Q 2775 3584 3186 3129 
Q 3597 2675 3597 1894 
z
M 3022 2063 
Q 3016 2534 2758 2815 
Q 2500 3097 2075 3097 
Q 1594 3097 1305 2825 
Q 1016 2553 972 2059 
L 3022 2063 
z
" transform="scale(0.015625)"/>
       <path id="DejaVuSans-50" d="M 1259 4147 
L 1259 2394 
L 2053 2394 
Q 2494 2394 2734 2622 
Q 2975 2850 2975 3272 
Q 2975 3691 2734 3919 
Q 2494 4147 2053 4147 
L 1259 4147 
z
M 628 4666 
L 2053 4666 
Q 2838 4666 3239 4311 
Q 3641 3956 3641 3272 
Q 3641 2581 3239 2228 
Q 2838 1875 2053 1875 
L 1259 1875 
L 1259 0 
L 628 0 
L 628 4666 
z
" transform="scale(0.015625)"/>
       <path id="DejaVuSans-6f" d="M 1959 3097 
Q 1497 3097 1228 2736 
Q 959 2375 959 1747 
Q 959 1119 1226 758 
Q 1494 397 1959 397 
Q 2419 397 2687 759 
Q 2956 1122 2956 1747 
Q 2956 2369 2687 2733 
Q 2419 3097 1959 3097 
z
M 1959 3584 
Q 2709 3584 3137 3096 
Q 3566 2609 3566 1747 
Q 3566 888 3137 398 
Q 2709 -91 1959 -91 
Q 1206 -91 779 398 
Q 353 888 353 1747 
Q 353 2609 779 3096 
Q 1206 3584 1959 3584 
z
" transform="scale(0.015625)"/>
       <path id="DejaVuSans-6e" d="M 3513 2113 
L 3513 0 
L 2938 0 
L 2938 2094 
Q 2938 2591 2744 2837 
Q 2550 3084 2163 3084 
Q 1697 3084 1428 2787 
Q 1159 2491 1159 1978 
L 1159 0 
L 581 0 
L 581 3500 
L 1159 3500 
L 1159 2956 
Q 1366 3272 1645 3428 
Q 1925 3584 2291 3584 
Q 2894 3584 3203 3211 
Q 3513 2838 3513 2113 
z
" transform="scale(0.015625)"/>
       <path id="DejaVuSans-74" d="M 1172 4494 
L 1172 3500 
L 2356 3500 
L 2356 3053 
L 1172 3053 
L 1172 1153 
Q 1172 725 1289 603 
Q 1406 481 1766 481 
L 2356 481 
L 2356 0 
L 1766 0 
Q 1100 0 847 248 
Q 594 497 594 1153 
L 594 3053 
L 172 3053 
L 172 3500 
L 594 3500 
L 594 4494 
L 1172 4494 
z
" transform="scale(0.015625)"/>
      </defs>
      <use xlink:href="#DejaVuSans-54"/>
      <use xlink:href="#DejaVuSans-69" x="57.958984"/>
      <use xlink:href="#DejaVuSans-6d" x="85.742188"/>
      <use xlink:href="#DejaVuSans-65" x="183.154297"/>
      <use xlink:href="#DejaVuSans-50" x="244.677734"/>
      <use xlink:href="#DejaVuSans-6f" x="301.355469"/>
      <use xlink:href="#DejaVuSans-69" x="362.537109"/>
      <use xlink:href="#DejaVuSans-6e" x="390.320312"/>
      <use xlink:href="#DejaVuSans-74" x="453.699219"/>
     </g>
    </g>
   </g>
   <g id="matplotlib.axis_2">
    <g id="ytick_1">
     <g id="line2d_19">
      <path d="M 57.6 295.488 
L 414.72 295.488 
" clip-path="url(#p03d897ad32)" style="fill: none; stroke: #b0b0b0; stroke-width: 0.8; stroke-linecap: square"/>
     </g>
     <g id="line2d_20">
      <defs>
       <path id="m8811a11843" d="M 0 0 
L -3.5 0 
" style="stroke: #000000; stroke-width: 0.8"/>
      </defs>
      <g>
       <use xlink:href="#m8811a11843" x="57.6" y="295.488" style="stroke: #000000; stroke-width: 0.8"/>
      </g>
     </g>
     <g id="text_11">
      <!-- 0.0000 -->
      <g transform="translate(15.609375 299.287219) scale(0.1 -0.1)">
       <defs>
        <path id="DejaVuSans-2e" d="M 684 794 
L 1344 794 
L 1344 0 
L 684 0 
L 684 794 
z
" transform="scale(0.015625)"/>
       </defs>
       <use xlink:href="#DejaVuSans-30"/>
       <use xlink:href="#DejaVuSans-2e" x="63.623047"/>
       <use xlink:href="#DejaVuSans-30" x="95.410156"/>
       <use xlink:href="#DejaVuSans-30" x="159.033203"/>
       <use xlink:href="#DejaVuSans-30" x="222.65625"/>
       <use xlink:href="#DejaVuSans-30" x="286.279297"/>
      </g>
     </g>
    </g>
    <g id="ytick_2">
     <g id="line2d_21">
      <path d="M 57.6 240.21914 
L 414.72 240.21914 
" clip-path="url(#p03d897ad32)" style="fill: none; stroke: #b0b0b0; stroke-width: 0.8; stroke-linecap: square"/>
     </g>
     <g id="line2d_22">
      <g>
       <use xlink:href="#m8811a11843" x="57.6" y="240.21914" style="stroke: #000000; stroke-width: 0.8"/>
      </g>
     </g>
     <g id="text_12">
      <!-- 0.0005 -->
      <g transform="translate(15.609375 244.018359) scale(0.1 -0.1)">
       <use xlink:href="#DejaVuSans-30"/>
       <use xlink:href="#DejaVuSans-2e" x="63.623047"/>
       <use xlink:href="#DejaVuSans-30" x="95.410156"/>
       <use xlink:href="#DejaVuSans-30" x="159.033203"/>
       <use xlink:href="#DejaVuSans-30" x="222.65625"/>
       <use xlink:href="#DejaVuSans-35" x="286.279297"/>
      </g>
     </g>
    </g>
    <g id="ytick_3">
     <g id="line2d_23">
      <path d="M 57.6 184.95028 
L 414.72 184.95028 
" clip-path="url(#p03d897ad32)" style="fill: none; stroke: #b0b0b0; stroke-width: 0.8; stroke-linecap: square"/>
     </g>
     <g id="line2d_24">
      <g>
       <use xlink:href="#m8811a11843" x="57.6" y="184.95028" style="stroke: #000000; stroke-width: 0.8"/>
      </g>
     </g>
     <g id="text_13">
      <!-- 0.0010 -->
      <g transform="translate(15.609375 188.749499) scale(0.1 -0.1)">
       <use xlink:href="#DejaVuSans-30"/>
       <use xlink:href="#DejaVuSans-2e" x="63.623047"/>
       <use xlink:href="#DejaVuSans-30" x="95.410156"/>
       <use xlink:href="#DejaVuSans-30" x="159.033203"/>
       <use xlink:href="#DejaVuSans-31" x="222.65625"/>
       <use xlink:href="#DejaVuSans-30" x="286.279297"/>
      </g>
     </g>
    </g>
    <g id="ytick_4">
     <g id="line2d_25">
      <path d="M 57.6 129.68142 
L 414.72 129.68142 
" clip-path="url(#p03d897ad32)" style="fill: none; stroke: #b0b0b0; stroke-width: 0.8; stroke-linecap: square"/>
     </g>
     <g id="line2d_26">
      <g>
       <use xlink:href="#m8811a11843" x="57.6" y="129.68142" style="stroke: #000000; stroke-width: 0.8"/>
      </g>
     </g>
     <g id="text_14">
      <!-- 0.0015 -->
      <g transform="translate(15.609375 133.480639) scale(0.1 -0.1)">
       <use xlink:href="#DejaVuSans-30"/>
       <use xlink:href="#DejaVuSans-2e" x="63.623047"/>
       <use xlink:href="#DejaVuSans-30" x="95.410156"/>
       <use xlink:href="#DejaVuSans-30" x="159.033203"/>
       <use xlink:href="#DejaVuSans-31" x="222.65625"/>
       <use xlink:href="#DejaVuSans-35" x="286.279297"/>
      </g>
     </g>
    </g>
    <g id="ytick_5">
     <g id="line2d_27">
      <path d="M 57.6 74.412561 
L 414.72 74.412561 
" clip-path="url(#p03d897ad32)" style="fill: none; stroke: #b0b0b0; stroke-width: 0.8; stroke-linecap: square"/>
     </g>
     <g id="line2d_28">
      <g>
       <use xlink:href="#m8811a11843" x="57.6" y="74.412561" style="stroke: #000000; stroke-width: 0.8"/>
      </g>
     </g>
     <g id="text_15">
      <!-- 0.0020 -->
      <g transform="translate(15.609375 78.211779) scale(0.1 -0.1)">
       <use xlink:href="#DejaVuSans-30"/>
       <use xlink:href="#DejaVuSans-2e" x="63.623047"/>
       <use xlink:href="#DejaVuSans-30" x="95.410156"/>
       <use xlink:href="#DejaVuSans-30" x="159.033203"/>
       <use xlink:href="#DejaVuSans-32" x="222.65625"/>
       <use xlink:href="#DejaVuSans-30" x="286.279297"/>
      </g>
     </g>
    </g>
    <g id="text_16">
     <!-- ioChannelLoadMean -->
     <g transform="translate(9.529687 225.123312) rotate(-90) scale(0.1 -0.1)">
      <defs>
       <path id="DejaVuSans-43" d="M 4122 4306 
L 4122 3641 
Q 3803 3938 3442 4084 
Q 3081 4231 2675 4231 
Q 1875 4231 1450 3742 
Q 1025 3253 1025 2328 
Q 1025 1406 1450 917 
Q 1875 428 2675 428 
Q 3081 428 3442 575 
Q 3803 722 4122 1019 
L 4122 359 
Q 3791 134 3420 21 
Q 3050 -91 2638 -91 
Q 1578 -91 968 557 
Q 359 1206 359 2328 
Q 359 3453 968 4101 
Q 1578 4750 2638 4750 
Q 3056 4750 3426 4639 
Q 3797 4528 4122 4306 
z
" transform="scale(0.015625)"/>
       <path id="DejaVuSans-68" d="M 3513 2113 
L 3513 0 
L 2938 0 
L 2938 2094 
Q 2938 2591 2744 2837 
Q 2550 3084 2163 3084 
Q 1697 3084 1428 2787 
Q 1159 2491 1159 1978 
L 1159 0 
L 581 0 
L 581 4863 
L 1159 4863 
L 1159 2956 
Q 1366 3272 1645 3428 
Q 1925 3584 2291 3584 
Q 2894 3584 3203 3211 
Q 3513 2838 3513 2113 
z
" transform="scale(0.015625)"/>
       <path id="DejaVuSans-61" d="M 2194 1759 
Q 1497 1759 1228 1600 
Q 959 1441 959 1056 
Q 959 750 1161 570 
Q 1363 391 1709 391 
Q 2188 391 2477 730 
Q 2766 1069 2766 1631 
L 2766 1759 
L 2194 1759 
z
M 3341 1997 
L 3341 0 
L 2766 0 
L 2766 531 
Q 2569 213 2275 61 
Q 1981 -91 1556 -91 
Q 1019 -91 701 211 
Q 384 513 384 1019 
Q 384 1609 779 1909 
Q 1175 2209 1959 2209 
L 2766 2209 
L 2766 2266 
Q 2766 2663 2505 2880 
Q 2244 3097 1772 3097 
Q 1472 3097 1187 3025 
Q 903 2953 641 2809 
L 641 3341 
Q 956 3463 1253 3523 
Q 1550 3584 1831 3584 
Q 2591 3584 2966 3190 
Q 3341 2797 3341 1997 
z
" transform="scale(0.015625)"/>
       <path id="DejaVuSans-6c" d="M 603 4863 
L 1178 4863 
L 1178 0 
L 603 0 
L 603 4863 
z
" transform="scale(0.015625)"/>
       <path id="DejaVuSans-4c" d="M 628 4666 
L 1259 4666 
L 1259 531 
L 3531 531 
L 3531 0 
L 628 0 
L 628 4666 
z
" transform="scale(0.015625)"/>
       <path id="DejaVuSans-64" d="M 2906 2969 
L 2906 4863 
L 3481 4863 
L 3481 0 
L 2906 0 
L 2906 525 
Q 2725 213 2448 61 
Q 2172 -91 1784 -91 
Q 1150 -91 751 415 
Q 353 922 353 1747 
Q 353 2572 751 3078 
Q 1150 3584 1784 3584 
Q 2172 3584 2448 3432 
Q 2725 3281 2906 2969 
z
M 947 1747 
Q 947 1113 1208 752 
Q 1469 391 1925 391 
Q 2381 391 2643 752 
Q 2906 1113 2906 1747 
Q 2906 2381 2643 2742 
Q 2381 3103 1925 3103 
Q 1469 3103 1208 2742 
Q 947 2381 947 1747 
z
" transform="scale(0.015625)"/>
       <path id="DejaVuSans-4d" d="M 628 4666 
L 1569 4666 
L 2759 1491 
L 3956 4666 
L 4897 4666 
L 4897 0 
L 4281 0 
L 4281 4097 
L 3078 897 
L 2444 897 
L 1241 4097 
L 1241 0 
L 628 0 
L 628 4666 
z
" transform="scale(0.015625)"/>
      </defs>
      <use xlink:href="#DejaVuSans-69"/>
      <use xlink:href="#DejaVuSans-6f" x="27.783203"/>
      <use xlink:href="#DejaVuSans-43" x="88.964844"/>
      <use xlink:href="#DejaVuSans-68" x="158.789062"/>
      <use xlink:href="#DejaVuSans-61" x="222.167969"/>
      <use xlink:href="#DejaVuSans-6e" x="283.447266"/>
      <use xlink:href="#DejaVuSans-6e" x="346.826172"/>
      <use xlink:href="#DejaVuSans-65" x="410.205078"/>
      <use xlink:href="#DejaVuSans-6c" x="471.728516"/>
      <use xlink:href="#DejaVuSans-4c" x="499.511719"/>
      <use xlink:href="#DejaVuSans-6f" x="553.474609"/>
      <use xlink:href="#DejaVuSans-61" x="614.65625"/>
      <use xlink:href="#DejaVuSans-64" x="675.935547"/>
      <use xlink:href="#DejaVuSans-4d" x="739.412109"/>
      <use xlink:href="#DejaVuSans-65" x="825.691406"/>
      <use xlink:href="#DejaVuSans-61" x="887.214844"/>
      <use xlink:href="#DejaVuSans-6e" x="948.494141"/>
     </g>
    </g>
   </g>
   <g id="line2d_29">
    <path d="M 73.832727 295.488 
L 73.84724 295.465986 
L 73.95896 113.791584 
L 74.091872 92.339331 
L 74.326816 80.531934 
L 74.332289 80.430969 
L 74.332289 80.430969 
L 74.443179 77.794374 
L 74.762782 74.101439 
L 74.788897 73.990482 
L 74.952702 73.273104 
L 74.980629 73.160907 
L 75.176797 71.97062 
L 75.303925 71.249491 
L 75.32309 71.147078 
L 75.433977 70.569683 
L 75.895934 69.082641 
L 76.00703 68.744825 
L 76.042594 68.636755 
L 76.153602 68.281863 
L 76.195535 68.17207 
L 76.305865 67.917401 
L 76.404229 67.727769 
L 76.800697 67.035369 
L 76.871736 66.924761 
L 77.162872 66.570959 
L 77.247282 66.461023 
L 77.247282 66.461023 
L 77.35807 66.331676 
L 77.726365 65.974188 
L 77.822732 65.864935 
L 77.822732 65.864935 
L 77.933618 65.744322 
L 78.03254 65.634298 
L 78.03254 65.634165 
L 78.153068 65.500368 
L 78.255543 65.390312 
L 78.40036 65.221046 
L 78.679414 64.924408 
L 78.857575 64.753745 
L 78.984552 64.642912 
L 79.117698 64.523744 
L 79.278016 64.387124 
L 80.109578 63.767016 
L 80.285842 63.656065 
L 81.450923 63.065943 
L 81.696267 62.955478 
L 81.696267 62.955159 
L 82.753463 62.529418 
L 83.109732 62.405823 
L 83.109732 62.405823 
L 83.219972 62.371146 
L 83.569929 62.260224 
L 83.569929 62.260224 
L 83.680718 62.225356 
L 83.976856 62.146311 
L 84.643551 61.977967 
L 84.849066 61.921876 
L 85.250829 61.811108 
L 85.250829 61.81085 
L 86.419991 61.533229 
L 86.419991 61.533229 
L 86.530886 61.507337 
L 87.30184 61.343795 
L 88.012827 61.23275 
L 88.012827 61.23275 
L 88.123511 61.2142 
L 88.82487 61.103108 
L 88.82487 61.103108 
L 88.935658 61.087204 
L 89.1368 61.058782 
L 91.179898 60.79667 
L 100.881878 60.013469 
L 104.624184 59.888558 
L 104.624184 59.888558 
L 104.734413 59.88471 
L 107.919834 59.755425 
L 108.567344 59.736172 
L 113.931835 59.625085 
L 114.046066 59.622785 
L 187.15705 58.842138 
L 217.131201 58.731034 
L 217.297453 58.730258 
L 246.969768 58.619149 
L 262.981208 58.575045 
L 319.787891 58.463935 
L 373.378513 58.407707 
L 398.486035 58.388335 
L 398.486035 58.388335 
" clip-path="url(#p03d897ad32)" style="fill: none; stroke: #1f77b4; stroke-width: 1.5; stroke-linecap: square"/>
   </g>
   <g id="line2d_30">
    <path d="M 73.832727 295.488 
L 73.840223 295.432538 
L 73.951455 114.008658 
L 73.951715 114.001928 
L 74.061858 85.611288 
L 74.06407 85.561032 
L 74.175777 76.628427 
L 74.351542 67.333466 
L 74.355263 67.225029 
L 74.6118 60.927479 
L 74.64734 60.483893 
L 74.774117 59.384151 
L 74.786803 59.274027 
L 74.898481 58.120111 
L 74.912027 58.009795 
L 75.054646 56.948716 
L 75.2677 55.828924 
L 75.305036 55.702749 
L 75.56756 54.994253 
L 75.624118 54.884434 
L 75.76946 54.712173 
L 75.889665 54.601134 
L 76.2372 54.529742 
L 76.2372 54.529832 
L 76.655818 54.637178 
L 76.937642 54.74785 
L 76.937642 54.74785 
L 77.048369 54.808979 
L 77.2547 54.920086 
L 77.2547 54.920086 
L 77.365792 54.992231 
L 77.569501 55.103318 
L 77.569501 55.103318 
L 77.678947 55.167729 
L 77.873678 55.278744 
L 77.985829 55.347219 
L 78.631933 55.596391 
L 78.745491 55.631861 
L 79.322636 55.742714 
L 79.322636 55.742714 
L 79.43268 55.769089 
L 80.192873 55.890065 
L 80.440055 55.929487 
L 81.149042 56.048389 
L 81.260545 56.065928 
L 81.853724 56.180283 
L 82.2085 56.235907 
L 82.880444 56.346896 
L 82.880444 56.347014 
L 84.071521 56.600147 
L 84.071521 56.600147 
L 84.18263 56.626375 
L 84.303028 56.650688 
L 84.873012 56.761251 
L 84.873012 56.761251 
L 84.983511 56.78323 
L 85.531249 56.893951 
L 85.531249 56.894192 
L 86.170801 57.010254 
L 86.886042 57.121148 
L 87.058343 57.147443 
L 89.40299 57.428615 
L 90.436374 57.539675 
L 90.436374 57.539704 
L 90.712446 57.571111 
L 93.11031 57.814118 
L 94.447378 57.920345 
L 97.146578 58.119574 
L 97.498091 58.140217 
L 99.618011 58.251302 
L 99.618011 58.251302 
L 99.728764 58.256142 
L 101.929551 58.367173 
L 101.929551 58.36725 
L 105.052788 58.496795 
L 107.981924 58.613032 
L 107.981924 58.613032 
L 108.093022 58.616739 
L 130.323948 58.970308 
L 157.471126 59.120789 
L 165.299835 59.161766 
L 398.486486 59.12151 
L 398.486486 59.12151 
" clip-path="url(#p03d897ad32)" style="fill: none; stroke: #ff7f0e; stroke-width: 1.5; stroke-linecap: square"/>
   </g>
   <g id="line2d_31">
    <path d="M 73.832727 295.488 
L 73.840515 295.410891 
L 73.951365 126.875165 
L 74.455252 88.007892 
L 74.460528 87.936484 
L 74.460528 87.899383 
L 74.499892 86.938134 
L 74.499892 86.938134 
L 74.610662 84.145011 
L 74.615956 84.034276 
L 74.615956 84.034276 
L 74.726792 81.661218 
L 74.759616 81.098465 
L 74.759616 81.098465 
L 74.86964 79.314656 
L 74.876702 79.235867 
L 74.990713 77.685918 
L 74.999049 77.583539 
L 74.999049 77.583539 
L 75.109592 76.246149 
L 75.171116 75.592437 
L 75.171116 75.592437 
L 75.281065 74.426299 
L 75.292779 74.317885 
L 75.33124 73.953853 
L 75.454865 72.845256 
L 75.471015 72.735158 
L 75.471015 72.735158 
L 75.582009 71.945874 
L 76.526541 68.448246 
L 76.601219 68.251433 
L 76.601219 68.251433 
L 76.710995 67.966007 
L 76.755024 67.857668 
L 76.755024 67.857204 
L 76.877176 67.570727 
L 76.92471 67.464815 
L 77.036065 67.20725 
L 77.219014 66.848612 
L 77.332125 66.633903 
L 77.545346 66.245601 
L 77.609272 66.135457 
L 77.609272 66.135457 
L 77.720373 65.932078 
L 77.780933 65.822676 
L 77.780933 65.822676 
L 77.890962 65.632436 
L 77.962315 65.521936 
L 78.072925 65.364625 
L 78.162402 65.253691 
L 78.162402 65.253691 
L 78.273348 65.124173 
L 78.382355 65.014636 
L 78.382355 65.014636 
L 78.492929 64.901074 
L 78.611919 64.790283 
L 78.756238 64.674938 
L 78.910705 64.564554 
L 79.021925 64.487023 
L 79.367682 64.244499 
L 79.546563 64.133515 
L 79.667987 64.052843 
L 79.843301 63.941944 
L 80.127797 63.762089 
L 80.325088 63.650996 
L 80.436883 63.594745 
L 80.682939 63.483689 
L 80.682939 63.483689 
L 80.79358 63.436685 
L 81.092003 63.293038 
L 81.092003 63.293038 
L 81.202819 63.238675 
L 81.472661 63.127638 
L 81.472661 63.127638 
L 81.583096 63.085609 
L 81.881342 62.974658 
L 81.99298 62.938271 
L 82.375794 62.827206 
L 82.487788 62.791317 
L 82.852122 62.680279 
L 82.96526 62.647832 
L 83.597119 62.46209 
L 84.593439 62.169336 
L 85.035439 62.058349 
L 86.618633 61.791181 
L 87.48364 61.680257 
L 87.48364 61.680257 
L 87.594206 61.665168 
L 88.583408 61.554079 
L 88.583408 61.554079 
L 88.694404 61.542579 
L 90.291091 61.4315 
L 90.291091 61.4315 
L 90.401643 61.4242 
L 98.572866 61.280719 
L 102.074471 61.295473 
L 118.101745 61.067532 
L 125.617566 60.932948 
L 125.732007 60.930573 
L 130.830337 60.819463 
L 136.987781 60.669134 
L 138.025864 60.644061 
L 143.221472 60.532964 
L 154.626975 60.372823 
L 165.003847 60.261712 
L 165.003847 60.261712 
L 165.113824 60.260616 
L 185.964358 60.063511 
L 185.964358 60.063511 
L 186.075363 60.062388 
L 195.726315 59.951283 
L 195.726315 59.951283 
L 195.83655 59.949934 
L 205.942646 59.838828 
L 206.571384 59.832158 
L 233.243397 59.614638 
L 233.243397 59.614638 
L 233.353779 59.613852 
L 250.891832 59.502746 
L 251.012324 59.502035 
L 274.173561 59.3498 
L 274.353999 59.348581 
L 291.300501 59.23747 
L 303.753777 59.15969 
L 324.985503 59.04858 
L 324.985503 59.04858 
L 325.096527 59.048075 
L 398.485315 58.80608 
L 398.485315 58.80608 
" clip-path="url(#p03d897ad32)" style="fill: none; stroke: #2ca02c; stroke-width: 1.5; stroke-linecap: square"/>
   </g>
   <g id="line2d_32">
    <path d="M 73.832727 295.488 
L 73.841253 295.471974 
L 73.952554 131.273446 
L 73.953661 131.273446 
L 73.953661 131.173662 
L 74.095292 90.974442 
L 74.143776 84.38467 
L 74.267345 74.420381 
L 74.269369 74.314014 
L 74.297352 73.183479 
L 74.408349 69.822868 
L 74.414565 69.711935 
L 74.526768 68.012653 
L 74.542098 67.895353 
L 74.542098 67.895353 
L 74.653174 67.399631 
L 74.68217 67.289558 
L 74.760428 66.882868 
L 74.760428 66.882868 
L 74.871216 66.426978 
L 75.070891 65.827539 
L 75.143156 65.725156 
L 75.181008 65.728308 
L 75.390449 65.664543 
L 75.58042 65.509189 
L 75.691735 65.390261 
L 75.837469 65.281285 
L 75.837469 65.281285 
L 75.948258 65.179009 
L 76.330734 64.962422 
L 76.558998 64.687661 
L 76.650773 64.578929 
L 76.761517 64.468736 
L 76.958745 64.346648 
L 77.207686 64.228935 
L 77.374096 64.105898 
L 77.485903 63.992812 
L 77.702991 63.767527 
L 77.970322 63.492588 
L 78.075304 63.381662 
L 78.188943 63.271321 
L 78.33397 63.160365 
L 78.453329 63.080357 
L 78.729992 62.940035 
L 78.839808 62.888734 
L 79.069 62.777945 
L 79.069 62.77775 
L 80.760044 62.25226 
L 81.252828 62.141224 
L 81.364722 62.120402 
L 81.869555 61.986029 
L 81.980745 61.94329 
L 82.341013 61.79819 
L 82.464481 61.751311 
L 83.560982 61.383368 
L 83.954239 61.272699 
L 83.954239 61.272259 
L 84.507491 61.103336 
L 84.756703 61.024535 
L 85.243118 60.867083 
L 85.357559 60.82621 
L 87.588747 60.252062 
L 88.229989 60.140629 
L 88.495773 60.099936 
L 99.114786 59.362564 
L 101.737349 59.251465 
L 101.849151 59.246038 
L 104.482877 59.134936 
L 105.878297 59.077857 
L 108.492041 58.966828 
L 108.603462 58.962291 
L 111.116874 58.851189 
L 111.506498 58.834137 
L 115.370987 58.736133 
L 122.215279 58.625035 
L 122.334091 58.623048 
L 128.937247 58.511937 
L 129.591486 58.499445 
L 138.577688 58.388345 
L 142.134306 58.353245 
L 398.486922 58.430066 
L 398.486922 58.430066 
" clip-path="url(#p03d897ad32)" style="fill: none; stroke: #d62728; stroke-width: 1.5; stroke-linecap: square"/>
   </g>
   <g id="line2d_33">
    <path d="M 73.832727 295.488 
L 73.845564 295.457209 
L 73.956594 133.695398 
L 73.957719 133.695398 
L 73.957719 133.695398 
L 74.066479 104.616469 
L 74.069164 104.605171 
L 74.180356 92.553693 
L 74.599917 76.948733 
L 74.606039 76.856422 
L 74.717411 75.09935 
L 74.745287 74.687084 
L 75.404113 69.536513 
L 75.428008 69.428129 
L 75.575459 68.732877 
L 75.6025 68.622614 
L 75.6025 68.622614 
L 75.713321 68.065514 
L 75.79407 67.692812 
L 75.967618 67.023412 
L 76.005478 66.914709 
L 76.005478 66.914709 
L 76.116021 66.634588 
L 76.212039 66.410183 
L 76.212039 66.410183 
L 76.323133 66.171261 
L 76.365845 66.064432 
L 76.365845 66.060964 
L 77.430728 64.354082 
L 77.541659 64.243505 
L 77.652906 64.107025 
L 77.971686 63.719117 
L 78.1144 63.559931 
L 78.225709 63.445194 
L 78.355165 63.318132 
L 78.355165 63.318132 
L 78.46545 63.206104 
L 78.745157 62.963576 
L 78.745157 62.963576 
L 78.855995 62.881457 
L 79.027616 62.770417 
L 79.1388 62.696229 
L 79.293823 62.585639 
L 79.293823 62.585639 
L 79.402176 62.508233 
L 79.596971 62.375856 
L 79.708773 62.304413 
L 80.633469 61.925869 
L 81.070089 61.782707 
L 81.205227 61.748656 
L 81.55412 61.682833 
L 82.379259 61.466332 
L 82.379259 61.466332 
L 82.490047 61.435609 
L 82.981839 61.29038 
L 83.384513 61.179374 
L 83.49743 61.149955 
L 84.536762 60.908301 
L 84.647783 60.884437 
L 85.24282 60.773388 
L 85.354163 60.753083 
L 86.039969 60.641988 
L 86.152304 60.624717 
L 92.140436 59.676707 
L 92.397693 59.631238 
L 93.184575 59.49549 
L 96.005823 59.091351 
L 96.387128 59.038211 
L 97.173535 58.927172 
L 98.625651 58.757685 
L 100.053454 58.639367 
L 100.616401 58.600087 
L 102.765556 58.489014 
L 104.387186 58.422829 
L 108.08135 58.311733 
L 108.08135 58.311733 
L 108.192356 58.310401 
L 124.18481 58.19929 
L 127.419212 58.169595 
L 398.485448 58.273744 
L 398.485448 58.273744 
" clip-path="url(#p03d897ad32)" style="fill: none; stroke: #9467bd; stroke-width: 1.5; stroke-linecap: square"/>
   </g>
   <g id="line2d_34">
    <path d="M 73.832727 295.488 
L 73.839632 295.463696 
L 73.950716 121.883594 
L 73.950964 121.879486 
L 74.061638 102.93682 
L 74.502528 79.572463 
L 74.505168 79.518685 
L 74.505168 79.504418 
L 74.649419 76.682686 
L 74.653698 76.614004 
L 74.653698 76.585945 
L 75.310179 69.048814 
L 75.329585 68.940129 
L 75.440252 68.277989 
L 75.459259 68.170692 
L 75.70691 66.88411 
L 75.729522 66.77665 
L 75.729522 66.77665 
L 75.839746 66.313015 
L 75.870341 66.202924 
L 75.870341 66.202924 
L 75.981237 65.776935 
L 76.013484 65.667745 
L 76.128441 65.24333 
L 76.15766 65.133463 
L 76.15766 65.133463 
L 76.268044 64.711334 
L 76.298203 64.60159 
L 76.349612 64.425404 
L 76.349612 64.425404 
L 76.459589 64.048321 
L 76.648294 63.547283 
L 76.648294 63.547283 
L 76.759032 63.300055 
L 76.937526 62.957945 
L 76.99324 62.847934 
L 76.99324 62.847934 
L 77.101999 62.628964 
L 77.167914 62.509812 
L 77.575089 61.924669 
L 77.734353 61.742383 
L 77.845052 61.61876 
L 78.011482 61.471358 
L 78.12129 61.376883 
L 78.274408 61.26641 
L 78.274408 61.265933 
L 78.469574 61.129446 
L 78.671298 61.018343 
L 78.671298 61.018343 
L 78.78234 60.950695 
L 78.976879 60.839684 
L 78.976879 60.839684 
L 79.087696 60.774792 
L 79.557075 60.447105 
L 79.735353 60.336176 
L 79.735353 60.336176 
L 79.846365 60.266129 
L 79.972211 60.198019 
L 82.755259 59.278285 
L 84.901521 59.039135 
L 85.012104 59.026932 
L 85.936661 58.915841 
L 85.936661 58.915841 
L 86.047617 58.899815 
L 87.031351 58.788742 
L 87.143054 58.780873 
L 99.214873 58.669769 
L 99.357476 58.665987 
L 107.522425 58.463393 
L 107.637317 58.459897 
L 121.252524 58.169576 
L 294.375852 58.280687 
L 294.375852 58.280687 
L 294.486566 58.28097 
L 346.039541 58.392081 
L 398.486997 58.497655 
L 398.486997 58.497655 
" clip-path="url(#p03d897ad32)" style="fill: none; stroke: #8c564b; stroke-width: 1.5; stroke-linecap: square"/>
   </g>
   <g id="line2d_35">
    <path d="M 73.832727 295.488 
L 73.840241 295.413428 
L 73.951226 98.117344 
L 73.951616 98.115077 
L 74.06234 85.620812 
L 74.094748 84.414824 
L 74.214602 83.272509 
L 74.388458 82.348358 
L 74.517609 81.051456 
L 74.53601 80.868134 
L 74.53601 80.868134 
L 74.646393 79.532431 
L 74.656432 79.421837 
L 74.769152 78.101497 
L 74.779907 77.996397 
L 74.779907 77.996397 
L 74.889757 76.965133 
L 74.902641 76.859544 
L 75.144332 74.536967 
L 75.203539 74.183905 
L 75.363475 73.166741 
L 75.384706 73.057527 
L 75.496383 72.560829 
L 75.525801 72.451916 
L 75.525801 72.451916 
L 75.636831 72.07244 
L 75.709155 71.823945 
L 75.837438 71.35054 
L 75.869935 71.239789 
L 75.869935 71.239789 
L 75.98068 70.857434 
L 77.926426 65.718606 
L 77.98925 65.607856 
L 78.099249 65.413382 
L 78.249788 65.158996 
L 78.318642 65.049329 
L 78.318642 65.049329 
L 78.429546 64.864401 
L 78.644514 64.556952 
L 78.739315 64.445845 
L 78.739315 64.445845 
L 78.850214 64.329541 
L 78.948501 64.22131 
L 79.059113 64.09856 
L 79.29209 63.867561 
L 79.410699 63.757034 
L 79.410699 63.756807 
L 79.54706 63.627835 
L 79.66302 63.517343 
L 79.812331 63.374507 
L 79.931769 63.263558 
L 79.931769 63.263558 
L 80.042655 63.155965 
L 81.705764 61.733297 
L 81.880508 61.606005 
L 82.022291 61.508788 
L 82.203945 61.398066 
L 82.203945 61.398066 
L 82.314571 61.332072 
L 82.750181 61.073865 
L 82.958731 60.965343 
L 83.20307 60.854271 
L 83.20307 60.854271 
L 83.313095 60.805844 
L 83.568493 60.694989 
L 83.679103 60.648648 
L 83.951084 60.537644 
L 84.062431 60.496455 
L 84.410785 60.385437 
L 84.410785 60.385437 
L 84.521871 60.350628 
L 85.045949 60.206364 
L 86.038927 59.991526 
L 86.038927 59.991526 
L 86.149885 59.967075 
L 86.453313 59.905984 
L 87.144907 59.762975 
L 87.655301 59.651872 
L 87.655301 59.651872 
L 87.766081 59.630612 
L 93.521552 59.018917 
L 94.856218 58.907835 
L 95.107662 58.886131 
L 96.827199 58.775027 
L 96.827199 58.775026 
L 96.948944 58.769368 
L 101.436076 58.658272 
L 101.436076 58.65827 
L 101.730048 58.652015 
L 163.533878 58.318594 
L 323.722942 58.500934 
L 398.486892 58.522711 
L 398.486892 58.522711 
" clip-path="url(#p03d897ad32)" style="fill: none; stroke: #e377c2; stroke-width: 1.5; stroke-linecap: square"/>
   </g>
   <g id="line2d_36">
    <path d="M 73.832727 295.488 
L 73.841809 295.461321 
L 73.952662 135.892276 
L 73.953661 135.892276 
L 73.953661 135.892276 
L 74.064332 111.319293 
L 74.065261 111.263097 
L 74.065261 111.263097 
L 74.176252 98.276763 
L 74.176537 98.169147 
L 74.239647 93.331165 
L 74.35209 87.864135 
L 74.534854 83.9557 
L 74.542701 83.850313 
L 74.902058 78.486137 
L 74.911042 78.378907 
L 75.021563 76.802569 
L 75.034468 76.661556 
L 75.183015 74.987546 
L 75.198711 74.842105 
L 75.370319 73.209233 
L 75.434898 72.70675 
L 75.434898 72.70675 
L 75.545271 71.884908 
L 75.60159 71.476562 
L 76.174938 68.137622 
L 76.201545 68.026987 
L 76.720596 66.176924 
L 76.760706 66.066998 
L 76.760706 66.066998 
L 76.869871 65.782552 
L 76.941848 65.625013 
L 77.052765 65.406917 
L 77.117598 65.297073 
L 77.769075 64.241615 
L 77.854792 64.131103 
L 77.854792 64.131103 
L 77.96558 63.9914 
L 78.236164 63.686761 
L 78.361706 63.554778 
L 78.569437 63.349308 
L 78.705762 63.23861 
L 80.330226 62.330325 
L 80.794856 62.20165 
L 80.905935 62.16496 
L 81.320885 62.006122 
L 81.320885 62.006122 
L 81.43156 61.963259 
L 81.748617 61.852237 
L 81.748617 61.852237 
L 81.859406 61.815869 
L 82.220031 61.704904 
L 82.437291 61.648553 
L 82.868622 61.537597 
L 82.980294 61.508511 
L 83.480244 61.397501 
L 83.480244 61.397501 
L 83.589609 61.375998 
L 84.250081 61.264957 
L 84.250081 61.264957 
L 84.360631 61.243939 
L 93.836815 59.946344 
L 95.215597 59.835245 
L 98.134227 59.663967 
L 100.34659 59.552884 
L 100.458691 59.548279 
L 102.806015 59.452223 
L 107.240009 59.341136 
L 107.959198 59.323846 
L 112.415952 59.212754 
L 120.836217 59.035819 
L 160.820605 58.924709 
L 161.001262 58.923672 
L 179.681811 58.812564 
L 179.85754 58.811737 
L 196.195441 58.746273 
L 398.486892 58.702684 
L 398.486892 58.702684 
" clip-path="url(#p03d897ad32)" style="fill: none; stroke: #7f7f7f; stroke-width: 1.5; stroke-linecap: square"/>
   </g>
   <g id="line2d_37">
    <path d="M 73.832727 295.488 
L 73.840739 295.450789 
L 73.951226 93.260709 
L 73.97796 89.336018 
L 74.089461 73.867973 
L 74.091851 73.845386 
L 74.202022 67.504756 
L 74.206951 67.395498 
L 74.318492 65.117361 
L 74.831721 59.651557 
L 74.86099 59.458555 
L 74.972539 58.655987 
L 75.067205 58.24415 
L 75.22708 57.859578 
L 75.308268 57.75045 
L 75.419687 57.522444 
L 76.143945 56.773087 
L 78.691763 56.152358 
L 81.545789 56.233011 
L 82.266036 56.344029 
L 82.266036 56.344029 
L 82.376509 56.359077 
L 83.414036 56.470155 
L 83.525289 56.479914 
L 84.698247 56.590956 
L 84.960926 56.622471 
L 85.669633 56.73319 
L 85.669633 56.733364 
L 87.412759 57.010867 
L 90.070642 57.44199 
L 90.396314 57.48694 
L 101.756702 58.214305 
L 108.911163 58.423351 
L 109.148246 58.429295 
L 119.841424 58.603205 
L 119.973852 58.605778 
L 138.300603 58.716886 
L 138.300603 58.716886 
L 138.411008 58.71769 
L 155.191053 58.744705 
L 330.177947 58.633597 
L 330.177947 58.633597 
L 330.287885 58.633413 
L 398.485674 58.548051 
L 398.485674 58.54805 
" clip-path="url(#p03d897ad32)" style="fill: none; stroke: #bcbd22; stroke-width: 1.5; stroke-linecap: square"/>
   </g>
   <g id="line2d_38">
    <path d="M 73.832727 295.488 
L 73.840743 295.421702 
L 73.951823 126.524373 
L 73.952576 126.490648 
L 74.076595 110.853546 
L 74.079779 110.708032 
L 74.190508 102.53188 
L 74.365269 91.821714 
L 74.368407 91.745429 
L 74.368407 91.745429 
L 74.478536 87.309307 
L 75.251309 74.154433 
L 75.262094 74.044618 
L 75.291644 73.781354 
L 75.500764 71.927879 
L 75.619801 70.893539 
L 75.632915 70.791607 
L 75.847676 69.243652 
L 75.863442 69.139872 
L 75.863442 69.139872 
L 75.974043 68.416028 
L 75.993563 68.30917 
L 76.104245 67.730877 
L 76.127224 67.622783 
L 76.272046 66.924073 
L 76.755798 65.192637 
L 76.794389 65.083648 
L 76.794389 65.083648 
L 76.905105 64.788111 
L 76.949554 64.677819 
L 77.487555 63.679092 
L 77.562197 63.568665 
L 77.562197 63.568665 
L 77.672634 63.395208 
L 77.789249 63.239729 
L 77.901624 63.093384 
L 77.990335 62.974334 
L 77.990335 62.974334 
L 78.101432 62.832212 
L 78.213652 62.695104 
L 78.339059 62.552127 
L 78.550823 62.336573 
L 78.694024 62.226652 
L 78.694024 62.226403 
L 78.826726 62.149933 
L 79.036359 62.039165 
L 79.147808 61.97474 
L 79.375798 61.83864 
L 79.375798 61.83864 
L 79.486538 61.772695 
L 79.807819 61.623796 
L 80.592694 61.427209 
L 86.093033 61.31612 
L 86.206779 61.31285 
L 87.653354 61.193724 
L 87.764223 61.180668 
L 88.582952 61.069575 
L 88.694027 61.051679 
L 90.755347 60.779531 
L 92.064895 60.660664 
L 92.751972 60.617646 
L 94.466174 60.506613 
L 95.90782 60.412324 
L 98.086453 60.301218 
L 98.086453 60.301218 
L 98.19756 60.296042 
L 99.674924 60.231944 
L 102.08498 60.120846 
L 102.08498 60.120846 
L 102.195362 60.1149 
L 105.304949 59.982106 
L 105.845697 59.965606 
L 107.630585 59.911712 
L 112.355833 59.797323 
L 152.705359 59.147925 
L 289.493454 58.932982 
L 289.493454 58.932982 
L 398.486022 58.911342 
L 398.486022 58.911342 
" clip-path="url(#p03d897ad32)" style="fill: none; stroke: #17becf; stroke-width: 1.5; stroke-linecap: square"/>
   </g>
   <g id="line2d_39">
    <path d="M 73.832727 295.488 
L 73.839406 295.45222 
L 73.950415 113.995926 
L 74.094972 95.629327 
L 74.096915 95.588124 
L 74.096915 95.588124 
L 74.207978 87.262141 
L 74.208756 87.167852 
L 74.2633 84.492267 
L 74.410942 79.584664 
L 74.486703 77.576897 
L 74.597939 74.809846 
L 75.418751 66.564238 
L 75.447877 66.456927 
L 75.558249 66.143698 
L 75.605341 66.033997 
L 75.605341 66.033997 
L 75.716302 65.749085 
L 76.244422 64.16043 
L 76.300859 64.016558 
L 76.567802 63.181545 
L 76.60406 63.072668 
L 76.60406 63.072668 
L 76.714794 62.70418 
L 76.746911 62.593396 
L 76.858508 62.218815 
L 76.894534 62.110794 
L 77.181488 61.331189 
L 77.418335 60.777349 
L 77.565037 60.465098 
L 77.648914 60.306634 
L 77.783987 60.074311 
L 77.859124 59.96531 
L 77.969723 59.812021 
L 78.060136 59.701232 
L 78.060136 59.701232 
L 78.170204 59.556542 
L 78.303221 59.395091 
L 78.303221 59.395091 
L 78.413603 59.277607 
L 78.548727 59.167623 
L 78.659434 59.073468 
L 78.792718 58.962978 
L 80.039427 58.039786 
L 80.298065 57.928783 
L 80.654245 57.830218 
L 82.56928 57.555088 
L 82.742046 57.535745 
L 85.793813 57.424644 
L 85.793813 57.424644 
L 85.903978 57.42061 
L 88.261807 57.309531 
L 90.782609 57.196184 
L 106.248481 56.905238 
L 106.364156 56.902405 
L 136.223197 57.013505 
L 136.344486 57.014644 
L 154.105063 57.192848 
L 182.858631 57.389629 
L 223.713144 57.500739 
L 223.950566 57.501527 
L 291.461883 57.658516 
L 335.747524 57.769627 
L 397.288654 57.887279 
L 398.487076 57.888954 
L 398.487076 57.888954 
" clip-path="url(#p03d897ad32)" style="fill: none; stroke: #1f77b4; stroke-width: 1.5; stroke-linecap: square"/>
   </g>
   <g id="line2d_40">
    <path d="M 73.832727 295.488 
L 73.840478 295.488 
L 73.840478 295.488 
L 73.981257 78.451206 
L 73.98288 78.451206 
L 73.98288 78.451206 
L 74.093877 75.527158 
L 74.100567 75.433067 
L 74.100567 75.433067 
L 74.154799 75.739386 
L 74.211172 75.101736 
L 74.228797 74.993786 
L 74.340198 73.552613 
L 74.346525 73.461943 
L 74.457561 71.712382 
L 74.709272 69.084155 
L 74.725933 68.979772 
L 74.725933 68.979772 
L 74.836623 68.155137 
L 74.855822 68.046345 
L 74.965369 67.51052 
L 74.988877 67.399835 
L 75.089276 66.96667 
L 75.267667 66.232077 
L 75.294477 66.121133 
L 75.607902 64.896523 
L 75.636548 64.787306 
L 75.754497 64.381205 
L 75.789989 64.271068 
L 75.789989 64.271068 
L 75.900968 63.89951 
L 75.982044 63.621992 
L 76.093541 63.241026 
L 76.587744 61.866005 
L 76.699081 61.628192 
L 76.759356 61.518434 
L 76.977439 61.154152 
L 77.039179 61.044052 
L 77.160179 60.839235 
L 77.321889 60.595948 
L 77.433065 60.44583 
L 77.538659 60.334987 
L 77.538659 60.334987 
L 77.64861 60.254858 
L 77.85698 60.143829 
L 77.969638 60.079198 
L 79.046993 59.571659 
L 79.535285 59.460665 
L 79.535285 59.460613 
L 79.969442 59.414499 
L 82.03269 59.525368 
L 82.03269 59.525368 
L 82.142261 59.551268 
L 82.578951 59.662334 
L 82.691238 59.687319 
L 83.249646 59.798116 
L 83.360158 59.820839 
L 83.930702 59.931947 
L 83.930702 59.931947 
L 84.041758 59.953887 
L 84.289217 59.99308 
L 85.023481 60.104138 
L 85.134389 60.118833 
L 88.915864 60.440789 
L 89.026985 60.449074 
L 94.673007 60.351341 
L 94.791789 60.349337 
L 98.567484 60.238247 
L 126.795107 59.608885 
L 170.082529 59.386983 
L 178.01123 59.3397 
L 209.450681 59.208105 
L 255.9166 59.076994 
L 316.215365 58.965884 
L 316.215365 58.965884 
L 316.326294 58.965698 
L 398.485674 58.941021 
L 398.485674 58.941021 
" clip-path="url(#p03d897ad32)" style="fill: none; stroke: #ff7f0e; stroke-width: 1.5; stroke-linecap: square"/>
   </g>
   <g id="line2d_41">
    <path d="M 73.832727 295.488 
L 73.840829 295.426962 
L 73.951226 91.863503 
L 74.153152 71.856579 
L 74.158193 71.732524 
L 74.158193 71.732524 
L 74.268685 69.007283 
L 74.303876 68.282563 
L 74.753737 64.13103 
L 74.767732 64.021806 
L 74.767732 64.021806 
L 74.878521 63.135634 
L 75.099027 62.039617 
L 75.149607 61.818044 
L 75.149607 61.818044 
L 75.260669 61.327028 
L 75.284906 61.217036 
L 75.398049 60.794374 
L 75.43319 60.683814 
L 75.547309 60.35697 
L 75.614299 60.245972 
L 76.266291 59.396896 
L 76.445385 59.070911 
L 76.504634 58.964649 
L 76.504634 58.964649 
L 76.615017 58.76646 
L 76.798041 58.395318 
L 76.977203 58.107776 
L 77.065069 57.998149 
L 77.065069 57.998138 
L 77.176264 57.860639 
L 77.266155 57.751698 
L 77.39269 57.613455 
L 77.519344 57.502518 
L 77.634506 57.382099 
L 77.746288 57.271034 
L 77.857039 57.165392 
L 77.981498 57.055148 
L 78.097726 56.964793 
L 78.361253 56.76038 
L 78.361253 56.76038 
L 78.471704 56.670364 
L 78.633903 56.559478 
L 78.745563 56.500479 
L 78.98743 56.389449 
L 78.98743 56.389449 
L 79.098389 56.346922 
L 79.72115 56.235952 
L 79.72115 56.235952 
L 79.832158 56.222966 
L 81.890772 56.147828 
L 86.465666 56.258917 
L 86.619653 56.271902 
L 90.66769 56.382906 
L 90.66769 56.382906 
L 90.778186 56.389956 
L 92.050973 56.501044 
L 92.162724 56.51074 
L 94.771324 56.708302 
L 94.771324 56.708302 
L 94.882155 56.716181 
L 99.831065 56.952849 
L 102.274488 57.063884 
L 102.383398 57.069344 
L 106.770302 57.19625 
L 106.884997 57.199518 
L 110.755123 57.318072 
L 111.135951 57.32745 
L 115.842271 57.438535 
L 115.955034 57.441235 
L 120.90555 57.552342 
L 121.017762 57.554328 
L 127.016233 57.66543 
L 127.430863 57.672147 
L 137.282811 57.783254 
L 137.282811 57.783254 
L 137.393188 57.783887 
L 151.919456 57.894994 
L 151.919456 57.894994 
L 152.03031 57.896476 
L 171.690915 58.126637 
L 190.108167 58.237743 
L 190.108167 58.237743 
L 190.218144 58.238232 
L 212.990069 58.34934 
L 221.556163 58.379623 
L 374.233166 58.490734 
L 374.233166 58.490734 
L 374.344277 58.490787 
L 398.486798 58.508559 
L 398.486798 58.508559 
" clip-path="url(#p03d897ad32)" style="fill: none; stroke: #2ca02c; stroke-width: 1.5; stroke-linecap: square"/>
   </g>
   <g id="line2d_42">
    <path d="M 73.832727 295.488 
L 73.840499 295.401334 
L 73.95162 64.126093 
L 73.967901 62.026098 
L 74.043459 59.275383 
L 74.089156 60.226444 
L 74.163875 60.98152 
L 74.163875 60.98152 
L 74.273627 61.911009 
L 74.328324 62.020105 
L 74.330333 62.02787 
L 74.436307 61.605657 
L 74.451746 61.502708 
L 74.565635 60.459304 
L 74.579433 60.352586 
L 74.579433 60.352181 
L 74.695497 59.391437 
L 74.812811 58.642945 
L 74.923945 57.900749 
L 74.939937 57.792297 
L 75.161417 56.589102 
L 75.18045 56.485747 
L 75.18045 56.484602 
L 75.297855 56.019704 
L 75.342371 55.910777 
L 75.342371 55.909783 
L 75.673062 55.362577 
L 75.839475 55.242314 
L 76.180272 54.91574 
L 76.300914 54.817541 
L 76.507511 54.706466 
L 76.618224 54.645356 
L 77.487526 54.756373 
L 77.487526 54.756373 
L 77.597503 54.775179 
L 78.209673 54.956801 
L 78.320351 54.970455 
L 81.027073 55.081526 
L 81.027073 55.081526 
L 81.137855 55.09456 
L 81.834032 55.226358 
L 81.948 55.252336 
L 82.405662 55.363259 
L 82.834993 55.449129 
L 83.373919 55.559843 
L 83.373919 55.559843 
L 83.484294 55.577894 
L 84.222485 55.688923 
L 84.222485 55.68895 
L 84.457144 55.720415 
L 85.422472 55.831488 
L 86.491047 56.031581 
L 88.285537 56.358022 
L 88.285537 56.358022 
L 88.396237 56.381156 
L 88.932006 56.492076 
L 88.932006 56.492076 
L 89.041606 56.514514 
L 89.645434 56.625505 
L 89.645434 56.625515 
L 89.760688 56.646479 
L 90.442327 56.760037 
L 90.55122 56.778175 
L 91.279488 56.88925 
L 91.440622 56.913496 
L 92.241859 57.027173 
L 92.55795 57.070594 
L 93.555412 57.199027 
L 93.667092 57.211801 
L 104.466588 58.021064 
L 106.668291 58.132147 
L 106.668291 58.13216 
L 107.341031 58.166716 
L 110.066206 58.299858 
L 110.066206 58.299858 
L 110.177305 58.30449 
L 110.647744 58.323528 
L 142.348671 58.752251 
L 158.132833 58.86335 
L 158.246763 58.864462 
L 270.253612 59.196924 
L 270.253612 59.196923 
L 398.486892 59.095193 
L 398.486892 59.095193 
" clip-path="url(#p03d897ad32)" style="fill: none; stroke: #d62728; stroke-width: 1.5; stroke-linecap: square"/>
   </g>
   <g id="line2d_43">
    <path d="M 73.832727 295.488 
L 73.840291 295.457636 
L 73.951302 136.461107 
L 74.086767 113.830593 
L 74.444701 95.953656 
L 74.452021 95.847874 
L 74.677634 91.28754 
L 74.683434 91.177185 
L 74.837727 87.810212 
L 74.846074 87.702523 
L 74.958188 85.636392 
L 74.97133 85.420821 
L 75.107402 83.187636 
L 75.232394 81.321441 
L 75.232394 81.321441 
L 75.343183 80.005931 
L 75.355653 79.897868 
L 75.468383 78.780387 
L 76.104577 73.876849 
L 76.120842 73.783504 
L 76.234192 73.142683 
L 76.25904 73.034225 
L 76.375844 72.461574 
L 76.419818 72.270619 
L 76.419818 72.270619 
L 76.530312 71.788221 
L 76.56916 71.635597 
L 76.691075 71.180238 
L 76.723956 71.069199 
L 77.376047 69.424425 
L 77.433424 69.3135 
L 77.596285 69.008293 
L 77.662028 68.897757 
L 77.662028 68.897395 
L 77.785418 68.710144 
L 77.861285 68.599306 
L 77.861285 68.599306 
L 77.972048 68.425763 
L 78.044309 68.314779 
L 78.044309 68.314779 
L 78.153958 68.131355 
L 78.23829 67.994744 
L 78.23829 67.994744 
L 78.349265 67.823419 
L 78.425142 67.712494 
L 78.538446 67.558716 
L 78.67989 67.388387 
L 78.774376 67.278497 
L 78.774376 67.277797 
L 81.427209 64.671911 
L 81.578124 64.5614 
L 81.688556 64.482687 
L 81.859 64.371787 
L 81.859 64.371677 
L 82.00675 64.280656 
L 82.236191 64.148604 
L 82.346793 64.08652 
L 82.538745 63.975612 
L 82.538745 63.975612 
L 82.648439 63.910888 
L 82.857494 63.799925 
L 83.259073 63.598834 
L 83.494358 63.487937 
L 83.982241 63.281329 
L 84.266456 63.170287 
L 84.377102 63.125 
L 87.837646 62.373945 
L 88.683239 62.263054 
L 88.683239 62.262868 
L 90.781168 62.060569 
L 91.430467 62.003578 
L 92.820658 61.892481 
L 92.930796 61.882219 
L 94.179235 61.770837 
L 94.179235 61.770837 
L 94.289618 61.761431 
L 95.575615 61.650342 
L 97.790169 61.495401 
L 97.904467 61.487743 
L 99.426059 61.376908 
L 99.426059 61.376745 
L 104.459481 61.109575 
L 107.862115 60.998475 
L 136.420244 60.232277 
L 140.959982 60.121171 
L 141.077712 60.118161 
L 146.816087 60.007062 
L 147.809329 59.992675 
L 155.804463 59.881565 
L 156.54903 59.871972 
L 166.52039 59.76087 
L 166.52039 59.760865 
L 186.365115 59.63511 
L 241.623853 59.372964 
L 276.620196 59.261853 
L 277.822391 59.257835 
L 321.221945 59.146725 
L 321.491814 59.146334 
L 398.485268 59.082062 
L 398.485268 59.082062 
" clip-path="url(#p03d897ad32)" style="fill: none; stroke: #9467bd; stroke-width: 1.5; stroke-linecap: square"/>
   </g>
   <g id="line2d_44">
    <path d="M 73.832727 295.488 
L 73.840855 295.468083 
L 73.952038 117.232793 
L 73.952387 117.222597 
L 74.063232 91.388073 
L 74.065667 91.304074 
L 74.065667 91.304074 
L 74.174908 79.776496 
L 74.177921 79.723232 
L 74.28941 71.925915 
L 74.291878 71.849761 
L 74.408551 66.721767 
L 74.566041 62.559359 
L 74.691435 60.14161 
L 74.699662 60.042838 
L 74.826641 58.613187 
L 74.838793 58.505085 
L 74.950756 57.544375 
L 74.967939 57.433687 
L 75.079807 56.838011 
L 75.219002 56.442839 
L 75.299767 56.290213 
L 75.412059 56.061774 
L 75.502744 55.951139 
L 75.628473 55.787115 
L 75.781135 55.676142 
L 76.240041 55.365833 
L 76.670001 55.254988 
L 76.781002 55.22435 
L 77.186409 55.334041 
L 77.186409 55.334321 
L 77.836774 55.697397 
L 78.093819 55.807696 
L 78.093819 55.808482 
L 78.738258 56.091706 
L 78.738258 56.091706 
L 78.849046 56.134503 
L 79.784369 56.420659 
L 81.57858 56.567508 
L 81.57858 56.567508 
L 81.689368 56.589754 
L 82.139014 56.70072 
L 82.139014 56.700723 
L 82.251618 56.729285 
L 83.605815 56.975659 
L 84.124646 57.025295 
L 85.577694 57.136381 
L 87.222264 57.220081 
L 104.658862 57.434258 
L 124.908272 57.830424 
L 134.622692 57.933097 
L 162.387131 58.044205 
L 162.387131 58.044206 
L 175.856893 58.072176 
L 250.43548 58.183286 
L 250.43548 58.183286 
L 250.546087 58.183499 
L 359.010519 58.364017 
L 361.017317 58.366964 
L 398.485268 58.417778 
L 398.485268 58.417778 
" clip-path="url(#p03d897ad32)" style="fill: none; stroke: #8c564b; stroke-width: 1.5; stroke-linecap: square"/>
   </g>
   <g id="line2d_45">
    <path d="M 73.832727 295.488 
L 73.840608 295.42298 
L 73.951312 106.690855 
L 74.298081 68.766195 
L 74.390727 65.549683 
L 74.390727 65.549683 
L 74.499892 63.31974 
L 74.507197 63.239317 
L 74.507197 63.239317 
L 74.617986 61.413619 
L 75.321674 56.495977 
L 75.351705 56.372704 
L 75.506727 55.782448 
L 76.74709 54.146227 
L 76.971091 54.035154 
L 77.344678 53.827923 
L 77.344678 53.827923 
L 77.454249 53.784876 
L 77.990321 53.673805 
L 78.099906 53.662869 
L 78.099906 53.662881 
L 81.523052 53.77953 
L 82.725038 53.967171 
L 84.766687 54.190738 
L 84.766687 54.190738 
L 84.877279 54.20463 
L 89.981451 54.677423 
L 91.888867 54.812555 
L 95.990808 55.222026 
L 96.132977 55.237716 
L 97.203798 55.356075 
L 97.203798 55.356075 
L 97.314054 55.366672 
L 98.536859 55.47774 
L 98.672807 55.49065 
L 99.952775 55.601735 
L 100.064808 55.612144 
L 107.020765 56.110962 
L 110.371382 56.263365 
L 110.371382 56.263365 
L 110.482185 56.268243 
L 118.899959 56.563617 
L 119.010411 56.566802 
L 122.631962 56.677875 
L 122.631962 56.677895 
L 134.711239 56.932373 
L 144.001652 57.056882 
L 144.120589 57.058295 
L 176.981572 57.343821 
L 198.732616 57.454926 
L 198.732616 57.45493 
L 216.810021 57.556314 
L 236.366168 57.667425 
L 236.366168 57.667425 
L 236.476551 57.667991 
L 260.136952 57.787185 
L 267.697401 57.82652 
L 298.206659 57.937629 
L 346.985114 58.007329 
L 398.486243 58.080107 
L 398.486243 58.080107 
" clip-path="url(#p03d897ad32)" style="fill: none; stroke: #e377c2; stroke-width: 1.5; stroke-linecap: square"/>
   </g>
   <g id="line2d_46">
    <path d="M 73.832727 295.488 
L 73.840193 295.407286 
L 73.951384 101.114925 
L 73.95618 100.407873 
L 74.139893 87.015441 
L 74.165461 85.988858 
L 74.483376 78.014257 
L 74.495489 77.907742 
L 74.649639 76.537875 
L 74.927219 74.702724 
L 74.927219 74.702724 
L 75.036822 73.772996 
L 75.122878 73.196144 
L 75.272072 72.464665 
L 75.293721 72.355949 
L 75.486693 71.474785 
L 75.511597 71.36135 
L 75.693404 70.402293 
L 75.724903 70.245301 
L 75.857781 69.603056 
L 75.883817 69.500459 
L 75.994897 69.04315 
L 76.029015 68.932996 
L 76.029015 68.932996 
L 76.139916 68.547555 
L 76.171586 68.438738 
L 76.283058 68.040256 
L 76.317416 67.930336 
L 76.442225 67.532287 
L 76.484406 67.421417 
L 76.619227 67.07988 
L 76.683499 66.945155 
L 76.794389 66.704692 
L 77.050054 66.311612 
L 77.050054 66.311612 
L 77.160806 66.163663 
L 77.236639 66.055102 
L 77.357632 65.872278 
L 77.433146 65.76156 
L 77.433146 65.76156 
L 77.543871 65.584269 
L 77.606521 65.47368 
L 77.71032 65.293184 
L 77.71032 65.293184 
L 77.820703 65.136057 
L 77.976429 64.931705 
L 78.073738 64.821698 
L 78.185039 64.684182 
L 80.451622 62.339249 
L 80.685779 62.199067 
L 82.540592 61.5478 
L 83.175117 61.409175 
L 83.534652 61.324657 
L 84.380405 61.125288 
L 84.501961 61.099569 
L 85.064021 60.988524 
L 85.174941 60.963806 
L 85.772711 60.849842 
L 87.038485 60.629279 
L 87.919489 60.508398 
L 88.035921 60.494355 
L 89.463268 60.383131 
L 89.574762 60.374319 
L 104.000036 59.191337 
L 106.389488 59.08027 
L 106.516036 59.07494 
L 118.194304 58.871826 
L 144.161835 58.743387 
L 144.161835 58.743387 
L 144.272044 58.742829 
L 163.353802 58.708013 
L 218.548719 58.819121 
L 218.548719 58.819123 
L 276.859905 58.90561 
L 378.956484 58.87403 
L 378.956484 58.87403 
L 379.067151 58.873977 
L 398.486219 58.865906 
L 398.486219 58.865906 
" clip-path="url(#p03d897ad32)" style="fill: none; stroke: #7f7f7f; stroke-width: 1.5; stroke-linecap: square"/>
   </g>
   <g id="line2d_47">
    <path d="M 73.832727 295.488 
L 73.841352 295.42815 
L 73.841352 295.42815 
L 73.951984 108.76754 
L 73.953255 108.76754 
L 73.953255 108.722609 
L 74.082335 88.130542 
L 74.25581 78.87547 
L 74.505168 72.575319 
L 74.818112 69.928442 
L 75.100098 68.980158 
L 75.100098 68.980158 
L 75.210664 68.666721 
L 75.265396 68.557634 
L 75.731639 67.391568 
L 75.790494 67.280696 
L 75.903966 67.06339 
L 76.033074 66.782818 
L 77.533429 63.53356 
L 77.614953 63.423338 
L 77.614953 63.423338 
L 77.725741 63.279366 
L 78.152874 62.795961 
L 78.276645 62.685588 
L 78.387562 62.586276 
L 80.686381 61.490714 
L 82.890996 61.359834 
L 82.890996 61.359834 
L 83.001113 61.353508 
L 84.082072 61.242417 
L 84.082072 61.242417 
L 84.192795 61.229503 
L 85.661882 61.063675 
L 86.588 60.952606 
L 86.588 60.952606 
L 86.69757 60.939097 
L 88.182622 60.812207 
L 90.987175 60.674417 
L 92.645505 60.563432 
L 93.298001 60.513169 
L 95.455088 60.392831 
L 109.811599 59.987603 
L 116.244789 59.872186 
L 116.244789 59.872186 
L 116.355383 59.869979 
L 142.868398 59.598738 
L 239.272239 59.421791 
L 378.432379 59.252381 
L 398.487273 59.25091 
L 398.487273 59.25091 
" clip-path="url(#p03d897ad32)" style="fill: none; stroke: #bcbd22; stroke-width: 1.5; stroke-linecap: square"/>
   </g>
   <g id="line2d_48">
    <path d="M 73.832727 295.488 
L 73.83657 295.488 
L 73.83657 295.488 
L 73.949169 139.829317 
L 74.136277 92.732465 
L 74.13912 92.663664 
L 74.13912 92.651897 
L 74.258597 86.277641 
L 74.27604 85.615221 
L 74.423397 80.473705 
L 74.428063 80.394239 
L 74.428063 80.394239 
L 74.538956 77.128405 
L 74.541875 77.101538 
L 74.663843 74.207043 
L 75.0751 69.151053 
L 75.089036 69.042113 
L 75.751842 64.764393 
L 75.776753 64.656625 
L 75.887385 64.188277 
L 75.968849 63.914936 
L 76.189283 63.310884 
L 76.23174 63.200687 
L 76.452912 62.756907 
L 76.533296 62.628077 
L 76.644502 62.448528 
L 77.459624 61.819377 
L 77.663757 61.708441 
L 77.881069 61.50712 
L 78.009814 61.396593 
L 78.009814 61.396593 
L 78.120704 61.320124 
L 78.319118 61.209172 
L 78.626564 61.043858 
L 78.817243 60.933284 
L 79.227514 60.67521 
L 79.436265 60.564199 
L 79.436265 60.564199 
L 79.54604 60.514656 
L 79.954495 60.35707 
L 79.954495 60.35707 
L 80.065134 60.316576 
L 80.325906 60.206133 
L 80.448224 60.146129 
L 81.088757 59.934912 
L 81.480371 59.822606 
L 81.480371 59.822606 
L 81.590772 59.777496 
L 81.962889 59.666644 
L 81.962889 59.666644 
L 82.073853 59.641918 
L 83.946439 59.482016 
L 87.368449 59.370907 
L 87.498718 59.365448 
L 92.142668 59.300384 
L 97.732276 59.411491 
L 97.873851 59.415205 
L 102.143493 59.52628 
L 102.384585 59.532385 
L 115.362134 59.643495 
L 115.362134 59.643495 
L 119.285179 59.670951 
L 151.902006 59.677129 
L 151.902006 59.677122 
L 180.606474 59.551172 
L 181.550679 59.547437 
L 209.862586 59.436326 
L 209.862586 59.436326 
L 209.973692 59.436079 
L 381.40438 59.17991 
L 383.113351 59.177727 
L 398.487009 59.158816 
L 398.487009 59.158816 
" clip-path="url(#p03d897ad32)" style="fill: none; stroke: #17becf; stroke-width: 1.5; stroke-linecap: square"/>
   </g>
   <g id="patch_3">
    <path d="M 57.6 307.584 
L 57.6 41.472 
" style="fill: none; stroke: #000000; stroke-width: 0.8; stroke-linejoin: miter; stroke-linecap: square"/>
   </g>
   <g id="patch_4">
    <path d="M 414.72 307.584 
L 414.72 41.472 
" style="fill: none; stroke: #000000; stroke-width: 0.8; stroke-linejoin: miter; stroke-linecap: square"/>
   </g>
   <g id="patch_5">
    <path d="M 57.6 307.584 
L 414.72 307.584 
" style="fill: none; stroke: #000000; stroke-width: 0.8; stroke-linejoin: miter; stroke-linecap: square"/>
   </g>
   <g id="patch_6">
    <path d="M 57.6 41.472 
L 414.72 41.472 
" style="fill: none; stroke: #000000; stroke-width: 0.8; stroke-linejoin: miter; stroke-linecap: square"/>
   </g>
   <g id="text_17">
    <!-- ioChannelLoadMean vs. TimePoint for Each Run -->
    <g transform="translate(93.430313 35.472) scale(0.12 -0.12)">
     <defs>
      <path id="DejaVuSans-20" transform="scale(0.015625)"/>
      <path id="DejaVuSans-76" d="M 191 3500 
L 800 3500 
L 1894 563 
L 2988 3500 
L 3597 3500 
L 2284 0 
L 1503 0 
L 191 3500 
z
" transform="scale(0.015625)"/>
      <path id="DejaVuSans-73" d="M 2834 3397 
L 2834 2853 
Q 2591 2978 2328 3040 
Q 2066 3103 1784 3103 
Q 1356 3103 1142 2972 
Q 928 2841 928 2578 
Q 928 2378 1081 2264 
Q 1234 2150 1697 2047 
L 1894 2003 
Q 2506 1872 2764 1633 
Q 3022 1394 3022 966 
Q 3022 478 2636 193 
Q 2250 -91 1575 -91 
Q 1294 -91 989 -36 
Q 684 19 347 128 
L 347 722 
Q 666 556 975 473 
Q 1284 391 1588 391 
Q 1994 391 2212 530 
Q 2431 669 2431 922 
Q 2431 1156 2273 1281 
Q 2116 1406 1581 1522 
L 1381 1569 
Q 847 1681 609 1914 
Q 372 2147 372 2553 
Q 372 3047 722 3315 
Q 1072 3584 1716 3584 
Q 2034 3584 2315 3537 
Q 2597 3491 2834 3397 
z
" transform="scale(0.015625)"/>
      <path id="DejaVuSans-66" d="M 2375 4863 
L 2375 4384 
L 1825 4384 
Q 1516 4384 1395 4259 
Q 1275 4134 1275 3809 
L 1275 3500 
L 2222 3500 
L 2222 3053 
L 1275 3053 
L 1275 0 
L 697 0 
L 697 3053 
L 147 3053 
L 147 3500 
L 697 3500 
L 697 3744 
Q 697 4328 969 4595 
Q 1241 4863 1831 4863 
L 2375 4863 
z
" transform="scale(0.015625)"/>
      <path id="DejaVuSans-72" d="M 2631 2963 
Q 2534 3019 2420 3045 
Q 2306 3072 2169 3072 
Q 1681 3072 1420 2755 
Q 1159 2438 1159 1844 
L 1159 0 
L 581 0 
L 581 3500 
L 1159 3500 
L 1159 2956 
Q 1341 3275 1631 3429 
Q 1922 3584 2338 3584 
Q 2397 3584 2469 3576 
Q 2541 3569 2628 3553 
L 2631 2963 
z
" transform="scale(0.015625)"/>
      <path id="DejaVuSans-45" d="M 628 4666 
L 3578 4666 
L 3578 4134 
L 1259 4134 
L 1259 2753 
L 3481 2753 
L 3481 2222 
L 1259 2222 
L 1259 531 
L 3634 531 
L 3634 0 
L 628 0 
L 628 4666 
z
" transform="scale(0.015625)"/>
      <path id="DejaVuSans-63" d="M 3122 3366 
L 3122 2828 
Q 2878 2963 2633 3030 
Q 2388 3097 2138 3097 
Q 1578 3097 1268 2742 
Q 959 2388 959 1747 
Q 959 1106 1268 751 
Q 1578 397 2138 397 
Q 2388 397 2633 464 
Q 2878 531 3122 666 
L 3122 134 
Q 2881 22 2623 -34 
Q 2366 -91 2075 -91 
Q 1284 -91 818 406 
Q 353 903 353 1747 
Q 353 2603 823 3093 
Q 1294 3584 2113 3584 
Q 2378 3584 2631 3529 
Q 2884 3475 3122 3366 
z
" transform="scale(0.015625)"/>
      <path id="DejaVuSans-52" d="M 2841 2188 
Q 3044 2119 3236 1894 
Q 3428 1669 3622 1275 
L 4263 0 
L 3584 0 
L 2988 1197 
Q 2756 1666 2539 1819 
Q 2322 1972 1947 1972 
L 1259 1972 
L 1259 0 
L 628 0 
L 628 4666 
L 2053 4666 
Q 2853 4666 3247 4331 
Q 3641 3997 3641 3322 
Q 3641 2881 3436 2590 
Q 3231 2300 2841 2188 
z
M 1259 4147 
L 1259 2491 
L 2053 2491 
Q 2509 2491 2742 2702 
Q 2975 2913 2975 3322 
Q 2975 3731 2742 3939 
Q 2509 4147 2053 4147 
L 1259 4147 
z
" transform="scale(0.015625)"/>
      <path id="DejaVuSans-75" d="M 544 1381 
L 544 3500 
L 1119 3500 
L 1119 1403 
Q 1119 906 1312 657 
Q 1506 409 1894 409 
Q 2359 409 2629 706 
Q 2900 1003 2900 1516 
L 2900 3500 
L 3475 3500 
L 3475 0 
L 2900 0 
L 2900 538 
Q 2691 219 2414 64 
Q 2138 -91 1772 -91 
Q 1169 -91 856 284 
Q 544 659 544 1381 
z
M 1991 3584 
L 1991 3584 
z
" transform="scale(0.015625)"/>
     </defs>
     <use xlink:href="#DejaVuSans-69"/>
     <use xlink:href="#DejaVuSans-6f" x="27.783203"/>
     <use xlink:href="#DejaVuSans-43" x="88.964844"/>
     <use xlink:href="#DejaVuSans-68" x="158.789062"/>
     <use xlink:href="#DejaVuSans-61" x="222.167969"/>
     <use xlink:href="#DejaVuSans-6e" x="283.447266"/>
     <use xlink:href="#DejaVuSans-6e" x="346.826172"/>
     <use xlink:href="#DejaVuSans-65" x="410.205078"/>
     <use xlink:href="#DejaVuSans-6c" x="471.728516"/>
     <use xlink:href="#DejaVuSans-4c" x="499.511719"/>
     <use xlink:href="#DejaVuSans-6f" x="553.474609"/>
     <use xlink:href="#DejaVuSans-61" x="614.65625"/>
     <use xlink:href="#DejaVuSans-64" x="675.935547"/>
     <use xlink:href="#DejaVuSans-4d" x="739.412109"/>
     <use xlink:href="#DejaVuSans-65" x="825.691406"/>
     <use xlink:href="#DejaVuSans-61" x="887.214844"/>
     <use xlink:href="#DejaVuSans-6e" x="948.494141"/>
     <use xlink:href="#DejaVuSans-20" x="1011.873047"/>
     <use xlink:href="#DejaVuSans-76" x="1043.660156"/>
     <use xlink:href="#DejaVuSans-73" x="1102.839844"/>
     <use xlink:href="#DejaVuSans-2e" x="1154.939453"/>
     <use xlink:href="#DejaVuSans-20" x="1186.726562"/>
     <use xlink:href="#DejaVuSans-54" x="1218.513672"/>
     <use xlink:href="#DejaVuSans-69" x="1276.472656"/>
     <use xlink:href="#DejaVuSans-6d" x="1304.255859"/>
     <use xlink:href="#DejaVuSans-65" x="1401.667969"/>
     <use xlink:href="#DejaVuSans-50" x="1463.191406"/>
     <use xlink:href="#DejaVuSans-6f" x="1519.869141"/>
     <use xlink:href="#DejaVuSans-69" x="1581.050781"/>
     <use xlink:href="#DejaVuSans-6e" x="1608.833984"/>
     <use xlink:href="#DejaVuSans-74" x="1672.212891"/>
     <use xlink:href="#DejaVuSans-20" x="1711.421875"/>
     <use xlink:href="#DejaVuSans-66" x="1743.208984"/>
     <use xlink:href="#DejaVuSans-6f" x="1778.414062"/>
     <use xlink:href="#DejaVuSans-72" x="1839.595703"/>
     <use xlink:href="#DejaVuSans-20" x="1880.708984"/>
     <use xlink:href="#DejaVuSans-45" x="1912.496094"/>
     <use xlink:href="#DejaVuSans-61" x="1975.679688"/>
     <use xlink:href="#DejaVuSans-63" x="2036.958984"/>
     <use xlink:href="#DejaVuSans-68" x="2091.939453"/>
     <use xlink:href="#DejaVuSans-20" x="2155.318359"/>
     <use xlink:href="#DejaVuSans-52" x="2187.105469"/>
     <use xlink:href="#DejaVuSans-75" x="2252.087891"/>
     <use xlink:href="#DejaVuSans-6e" x="2315.466797"/>
    </g>
   </g>
   <g id="legend_1">
    <g id="patch_7">
     <path d="M 340.643438 357.712625 
L 407.72 357.712625 
Q 409.72 357.712625 409.72 355.712625 
L 409.72 48.472 
Q 409.72 46.472 407.72 46.472 
L 340.643438 46.472 
Q 338.643438 46.472 338.643438 48.472 
L 338.643438 355.712625 
Q 338.643438 357.712625 340.643438 357.712625 
z
" style="fill: #ffffff; opacity: 0.8; stroke: #cccccc; stroke-linejoin: miter"/>
    </g>
    <g id="text_18">
     <!-- Run Number -->
     <g transform="translate(342.92 58.070437) scale(0.1 -0.1)">
      <defs>
       <path id="DejaVuSans-4e" d="M 628 4666 
L 1478 4666 
L 3547 763 
L 3547 4666 
L 4159 4666 
L 4159 0 
L 3309 0 
L 1241 3903 
L 1241 0 
L 628 0 
L 628 4666 
z
" transform="scale(0.015625)"/>
       <path id="DejaVuSans-62" d="M 3116 1747 
Q 3116 2381 2855 2742 
Q 2594 3103 2138 3103 
Q 1681 3103 1420 2742 
Q 1159 2381 1159 1747 
Q 1159 1113 1420 752 
Q 1681 391 2138 391 
Q 2594 391 2855 752 
Q 3116 1113 3116 1747 
z
M 1159 2969 
Q 1341 3281 1617 3432 
Q 1894 3584 2278 3584 
Q 2916 3584 3314 3078 
Q 3713 2572 3713 1747 
Q 3713 922 3314 415 
Q 2916 -91 2278 -91 
Q 1894 -91 1617 61 
Q 1341 213 1159 525 
L 1159 0 
L 581 0 
L 581 4863 
L 1159 4863 
L 1159 2969 
z
" transform="scale(0.015625)"/>
      </defs>
      <use xlink:href="#DejaVuSans-52"/>
      <use xlink:href="#DejaVuSans-75" x="64.982422"/>
      <use xlink:href="#DejaVuSans-6e" x="128.361328"/>
      <use xlink:href="#DejaVuSans-20" x="191.740234"/>
      <use xlink:href="#DejaVuSans-4e" x="223.527344"/>
      <use xlink:href="#DejaVuSans-75" x="298.332031"/>
      <use xlink:href="#DejaVuSans-6d" x="361.710938"/>
      <use xlink:href="#DejaVuSans-62" x="459.123047"/>
      <use xlink:href="#DejaVuSans-65" x="522.599609"/>
      <use xlink:href="#DejaVuSans-72" x="584.123047"/>
     </g>
    </g>
    <g id="line2d_49">
     <path d="M 342.643438 69.248562 
L 352.643438 69.248562 
L 362.643438 69.248562 
" style="fill: none; stroke: #1f77b4; stroke-width: 1.5; stroke-linecap: square"/>
    </g>
    <g id="text_19">
     <!-- Run 0 -->
     <g transform="translate(370.643438 72.748562) scale(0.1 -0.1)">
      <use xlink:href="#DejaVuSans-52"/>
      <use xlink:href="#DejaVuSans-75" x="64.982422"/>
      <use xlink:href="#DejaVuSans-6e" x="128.361328"/>
      <use xlink:href="#DejaVuSans-20" x="191.740234"/>
      <use xlink:href="#DejaVuSans-30" x="223.527344"/>
     </g>
    </g>
    <g id="line2d_50">
     <path d="M 342.643438 83.926688 
L 352.643438 83.926688 
L 362.643438 83.926688 
" style="fill: none; stroke: #ff7f0e; stroke-width: 1.5; stroke-linecap: square"/>
    </g>
    <g id="text_20">
     <!-- Run 1 -->
     <g transform="translate(370.643438 87.426688) scale(0.1 -0.1)">
      <use xlink:href="#DejaVuSans-52"/>
      <use xlink:href="#DejaVuSans-75" x="64.982422"/>
      <use xlink:href="#DejaVuSans-6e" x="128.361328"/>
      <use xlink:href="#DejaVuSans-20" x="191.740234"/>
      <use xlink:href="#DejaVuSans-31" x="223.527344"/>
     </g>
    </g>
    <g id="line2d_51">
     <path d="M 342.643438 98.604813 
L 352.643438 98.604813 
L 362.643438 98.604813 
" style="fill: none; stroke: #2ca02c; stroke-width: 1.5; stroke-linecap: square"/>
    </g>
    <g id="text_21">
     <!-- Run 2 -->
     <g transform="translate(370.643438 102.104813) scale(0.1 -0.1)">
      <use xlink:href="#DejaVuSans-52"/>
      <use xlink:href="#DejaVuSans-75" x="64.982422"/>
      <use xlink:href="#DejaVuSans-6e" x="128.361328"/>
      <use xlink:href="#DejaVuSans-20" x="191.740234"/>
      <use xlink:href="#DejaVuSans-32" x="223.527344"/>
     </g>
    </g>
    <g id="line2d_52">
     <path d="M 342.643438 113.282938 
L 352.643438 113.282938 
L 362.643438 113.282938 
" style="fill: none; stroke: #d62728; stroke-width: 1.5; stroke-linecap: square"/>
    </g>
    <g id="text_22">
     <!-- Run 3 -->
     <g transform="translate(370.643438 116.782938) scale(0.1 -0.1)">
      <use xlink:href="#DejaVuSans-52"/>
      <use xlink:href="#DejaVuSans-75" x="64.982422"/>
      <use xlink:href="#DejaVuSans-6e" x="128.361328"/>
      <use xlink:href="#DejaVuSans-20" x="191.740234"/>
      <use xlink:href="#DejaVuSans-33" x="223.527344"/>
     </g>
    </g>
    <g id="line2d_53">
     <path d="M 342.643438 127.961063 
L 352.643438 127.961063 
L 362.643438 127.961063 
" style="fill: none; stroke: #9467bd; stroke-width: 1.5; stroke-linecap: square"/>
    </g>
    <g id="text_23">
     <!-- Run 4 -->
     <g transform="translate(370.643438 131.461063) scale(0.1 -0.1)">
      <use xlink:href="#DejaVuSans-52"/>
      <use xlink:href="#DejaVuSans-75" x="64.982422"/>
      <use xlink:href="#DejaVuSans-6e" x="128.361328"/>
      <use xlink:href="#DejaVuSans-20" x="191.740234"/>
      <use xlink:href="#DejaVuSans-34" x="223.527344"/>
     </g>
    </g>
    <g id="line2d_54">
     <path d="M 342.643438 142.639187 
L 352.643438 142.639187 
L 362.643438 142.639187 
" style="fill: none; stroke: #8c564b; stroke-width: 1.5; stroke-linecap: square"/>
    </g>
    <g id="text_24">
     <!-- Run 5 -->
     <g transform="translate(370.643438 146.139187) scale(0.1 -0.1)">
      <use xlink:href="#DejaVuSans-52"/>
      <use xlink:href="#DejaVuSans-75" x="64.982422"/>
      <use xlink:href="#DejaVuSans-6e" x="128.361328"/>
      <use xlink:href="#DejaVuSans-20" x="191.740234"/>
      <use xlink:href="#DejaVuSans-35" x="223.527344"/>
     </g>
    </g>
    <g id="line2d_55">
     <path d="M 342.643438 157.317313 
L 352.643438 157.317313 
L 362.643438 157.317313 
" style="fill: none; stroke: #e377c2; stroke-width: 1.5; stroke-linecap: square"/>
    </g>
    <g id="text_25">
     <!-- Run 6 -->
     <g transform="translate(370.643438 160.817313) scale(0.1 -0.1)">
      <use xlink:href="#DejaVuSans-52"/>
      <use xlink:href="#DejaVuSans-75" x="64.982422"/>
      <use xlink:href="#DejaVuSans-6e" x="128.361328"/>
      <use xlink:href="#DejaVuSans-20" x="191.740234"/>
      <use xlink:href="#DejaVuSans-36" x="223.527344"/>
     </g>
    </g>
    <g id="line2d_56">
     <path d="M 342.643438 171.995437 
L 352.643438 171.995437 
L 362.643438 171.995437 
" style="fill: none; stroke: #7f7f7f; stroke-width: 1.5; stroke-linecap: square"/>
    </g>
    <g id="text_26">
     <!-- Run 7 -->
     <g transform="translate(370.643438 175.495437) scale(0.1 -0.1)">
      <use xlink:href="#DejaVuSans-52"/>
      <use xlink:href="#DejaVuSans-75" x="64.982422"/>
      <use xlink:href="#DejaVuSans-6e" x="128.361328"/>
      <use xlink:href="#DejaVuSans-20" x="191.740234"/>
      <use xlink:href="#DejaVuSans-37" x="223.527344"/>
     </g>
    </g>
    <g id="line2d_57">
     <path d="M 342.643438 186.673563 
L 352.643438 186.673563 
L 362.643438 186.673563 
" style="fill: none; stroke: #bcbd22; stroke-width: 1.5; stroke-linecap: square"/>
    </g>
    <g id="text_27">
     <!-- Run 8 -->
     <g transform="translate(370.643438 190.173563) scale(0.1 -0.1)">
      <use xlink:href="#DejaVuSans-52"/>
      <use xlink:href="#DejaVuSans-75" x="64.982422"/>
      <use xlink:href="#DejaVuSans-6e" x="128.361328"/>
      <use xlink:href="#DejaVuSans-20" x="191.740234"/>
      <use xlink:href="#DejaVuSans-38" x="223.527344"/>
     </g>
    </g>
    <g id="line2d_58">
     <path d="M 342.643438 201.351687 
L 352.643438 201.351687 
L 362.643438 201.351687 
" style="fill: none; stroke: #17becf; stroke-width: 1.5; stroke-linecap: square"/>
    </g>
    <g id="text_28">
     <!-- Run 9 -->
     <g transform="translate(370.643438 204.851687) scale(0.1 -0.1)">
      <defs>
       <path id="DejaVuSans-39" d="M 703 97 
L 703 672 
Q 941 559 1184 500 
Q 1428 441 1663 441 
Q 2288 441 2617 861 
Q 2947 1281 2994 2138 
Q 2813 1869 2534 1725 
Q 2256 1581 1919 1581 
Q 1219 1581 811 2004 
Q 403 2428 403 3163 
Q 403 3881 828 4315 
Q 1253 4750 1959 4750 
Q 2769 4750 3195 4129 
Q 3622 3509 3622 2328 
Q 3622 1225 3098 567 
Q 2575 -91 1691 -91 
Q 1453 -91 1209 -44 
Q 966 3 703 97 
z
M 1959 2075 
Q 2384 2075 2632 2365 
Q 2881 2656 2881 3163 
Q 2881 3666 2632 3958 
Q 2384 4250 1959 4250 
Q 1534 4250 1286 3958 
Q 1038 3666 1038 3163 
Q 1038 2656 1286 2365 
Q 1534 2075 1959 2075 
z
" transform="scale(0.015625)"/>
      </defs>
      <use xlink:href="#DejaVuSans-52"/>
      <use xlink:href="#DejaVuSans-75" x="64.982422"/>
      <use xlink:href="#DejaVuSans-6e" x="128.361328"/>
      <use xlink:href="#DejaVuSans-20" x="191.740234"/>
      <use xlink:href="#DejaVuSans-39" x="223.527344"/>
     </g>
    </g>
    <g id="line2d_59">
     <path d="M 342.643438 216.029812 
L 352.643438 216.029812 
L 362.643438 216.029812 
" style="fill: none; stroke: #1f77b4; stroke-width: 1.5; stroke-linecap: square"/>
    </g>
    <g id="text_29">
     <!-- Run 10 -->
     <g transform="translate(370.643438 219.529812) scale(0.1 -0.1)">
      <use xlink:href="#DejaVuSans-52"/>
      <use xlink:href="#DejaVuSans-75" x="64.982422"/>
      <use xlink:href="#DejaVuSans-6e" x="128.361328"/>
      <use xlink:href="#DejaVuSans-20" x="191.740234"/>
      <use xlink:href="#DejaVuSans-31" x="223.527344"/>
      <use xlink:href="#DejaVuSans-30" x="287.150391"/>
     </g>
    </g>
    <g id="line2d_60">
     <path d="M 342.643438 230.707937 
L 352.643438 230.707937 
L 362.643438 230.707937 
" style="fill: none; stroke: #ff7f0e; stroke-width: 1.5; stroke-linecap: square"/>
    </g>
    <g id="text_30">
     <!-- Run 11 -->
     <g transform="translate(370.643438 234.207937) scale(0.1 -0.1)">
      <use xlink:href="#DejaVuSans-52"/>
      <use xlink:href="#DejaVuSans-75" x="64.982422"/>
      <use xlink:href="#DejaVuSans-6e" x="128.361328"/>
      <use xlink:href="#DejaVuSans-20" x="191.740234"/>
      <use xlink:href="#DejaVuSans-31" x="223.527344"/>
      <use xlink:href="#DejaVuSans-31" x="287.150391"/>
     </g>
    </g>
    <g id="line2d_61">
     <path d="M 342.643438 245.386062 
L 352.643438 245.386062 
L 362.643438 245.386062 
" style="fill: none; stroke: #2ca02c; stroke-width: 1.5; stroke-linecap: square"/>
    </g>
    <g id="text_31">
     <!-- Run 12 -->
     <g transform="translate(370.643438 248.886062) scale(0.1 -0.1)">
      <use xlink:href="#DejaVuSans-52"/>
      <use xlink:href="#DejaVuSans-75" x="64.982422"/>
      <use xlink:href="#DejaVuSans-6e" x="128.361328"/>
      <use xlink:href="#DejaVuSans-20" x="191.740234"/>
      <use xlink:href="#DejaVuSans-31" x="223.527344"/>
      <use xlink:href="#DejaVuSans-32" x="287.150391"/>
     </g>
    </g>
    <g id="line2d_62">
     <path d="M 342.643438 260.064187 
L 352.643438 260.064187 
L 362.643438 260.064187 
" style="fill: none; stroke: #d62728; stroke-width: 1.5; stroke-linecap: square"/>
    </g>
    <g id="text_32">
     <!-- Run 13 -->
     <g transform="translate(370.643438 263.564187) scale(0.1 -0.1)">
      <use xlink:href="#DejaVuSans-52"/>
      <use xlink:href="#DejaVuSans-75" x="64.982422"/>
      <use xlink:href="#DejaVuSans-6e" x="128.361328"/>
      <use xlink:href="#DejaVuSans-20" x="191.740234"/>
      <use xlink:href="#DejaVuSans-31" x="223.527344"/>
      <use xlink:href="#DejaVuSans-33" x="287.150391"/>
     </g>
    </g>
    <g id="line2d_63">
     <path d="M 342.643438 274.742312 
L 352.643438 274.742312 
L 362.643438 274.742312 
" style="fill: none; stroke: #9467bd; stroke-width: 1.5; stroke-linecap: square"/>
    </g>
    <g id="text_33">
     <!-- Run 14 -->
     <g transform="translate(370.643438 278.242312) scale(0.1 -0.1)">
      <use xlink:href="#DejaVuSans-52"/>
      <use xlink:href="#DejaVuSans-75" x="64.982422"/>
      <use xlink:href="#DejaVuSans-6e" x="128.361328"/>
      <use xlink:href="#DejaVuSans-20" x="191.740234"/>
      <use xlink:href="#DejaVuSans-31" x="223.527344"/>
      <use xlink:href="#DejaVuSans-34" x="287.150391"/>
     </g>
    </g>
    <g id="line2d_64">
     <path d="M 342.643438 289.420437 
L 352.643438 289.420437 
L 362.643438 289.420437 
" style="fill: none; stroke: #8c564b; stroke-width: 1.5; stroke-linecap: square"/>
    </g>
    <g id="text_34">
     <!-- Run 15 -->
     <g transform="translate(370.643438 292.920437) scale(0.1 -0.1)">
      <use xlink:href="#DejaVuSans-52"/>
      <use xlink:href="#DejaVuSans-75" x="64.982422"/>
      <use xlink:href="#DejaVuSans-6e" x="128.361328"/>
      <use xlink:href="#DejaVuSans-20" x="191.740234"/>
      <use xlink:href="#DejaVuSans-31" x="223.527344"/>
      <use xlink:href="#DejaVuSans-35" x="287.150391"/>
     </g>
    </g>
    <g id="line2d_65">
     <path d="M 342.643438 304.098562 
L 352.643438 304.098562 
L 362.643438 304.098562 
" style="fill: none; stroke: #e377c2; stroke-width: 1.5; stroke-linecap: square"/>
    </g>
    <g id="text_35">
     <!-- Run 16 -->
     <g transform="translate(370.643438 307.598562) scale(0.1 -0.1)">
      <use xlink:href="#DejaVuSans-52"/>
      <use xlink:href="#DejaVuSans-75" x="64.982422"/>
      <use xlink:href="#DejaVuSans-6e" x="128.361328"/>
      <use xlink:href="#DejaVuSans-20" x="191.740234"/>
      <use xlink:href="#DejaVuSans-31" x="223.527344"/>
      <use xlink:href="#DejaVuSans-36" x="287.150391"/>
     </g>
    </g>
    <g id="line2d_66">
     <path d="M 342.643438 318.776687 
L 352.643438 318.776687 
L 362.643438 318.776687 
" style="fill: none; stroke: #7f7f7f; stroke-width: 1.5; stroke-linecap: square"/>
    </g>
    <g id="text_36">
     <!-- Run 17 -->
     <g transform="translate(370.643438 322.276687) scale(0.1 -0.1)">
      <use xlink:href="#DejaVuSans-52"/>
      <use xlink:href="#DejaVuSans-75" x="64.982422"/>
      <use xlink:href="#DejaVuSans-6e" x="128.361328"/>
      <use xlink:href="#DejaVuSans-20" x="191.740234"/>
      <use xlink:href="#DejaVuSans-31" x="223.527344"/>
      <use xlink:href="#DejaVuSans-37" x="287.150391"/>
     </g>
    </g>
    <g id="line2d_67">
     <path d="M 342.643438 333.454812 
L 352.643438 333.454812 
L 362.643438 333.454812 
" style="fill: none; stroke: #bcbd22; stroke-width: 1.5; stroke-linecap: square"/>
    </g>
    <g id="text_37">
     <!-- Run 18 -->
     <g transform="translate(370.643438 336.954812) scale(0.1 -0.1)">
      <use xlink:href="#DejaVuSans-52"/>
      <use xlink:href="#DejaVuSans-75" x="64.982422"/>
      <use xlink:href="#DejaVuSans-6e" x="128.361328"/>
      <use xlink:href="#DejaVuSans-20" x="191.740234"/>
      <use xlink:href="#DejaVuSans-31" x="223.527344"/>
      <use xlink:href="#DejaVuSans-38" x="287.150391"/>
     </g>
    </g>
    <g id="line2d_68">
     <path style="fill: none; stroke: #17becf; stroke-width: 1.5; stroke-linecap: square"/>
    </g>
    <g id="text_38">
     <!-- Run 19 -->
     <g transform="translate(370.643438 351.632937) scale(0.1 -0.1)">
      <use xlink:href="#DejaVuSans-52"/>
      <use xlink:href="#DejaVuSans-75" x="64.982422"/>
      <use xlink:href="#DejaVuSans-6e" x="128.361328"/>
      <use xlink:href="#DejaVuSans-20" x="191.740234"/>
      <use xlink:href="#DejaVuSans-31" x="223.527344"/>
      <use xlink:href="#DejaVuSans-39" x="287.150391"/>
     </g>
    </g>
   </g>
  </g>
 </g>
 <defs>
  <clipPath id="p03d897ad32">
   <rect x="57.6" y="41.472" width="357.12" height="266.112"/>
  </clipPath>
 </defs>
</svg>
