<?xml version="1.0" encoding="utf-8" standalone="no"?>
<!DOCTYPE svg PUBLIC "-//W3C//DTD SVG 1.1//EN"
  "http://www.w3.org/Graphics/SVG/1.1/DTD/svg11.dtd">
<svg xmlns:xlink="http://www.w3.org/1999/xlink" width="460.8pt" height="345.6pt" viewBox="0 0 460.8 345.6" xmlns="http://www.w3.org/2000/svg" version="1.1">
 <metadata>
  <rdf:RDF xmlns:dc="http://purl.org/dc/elements/1.1/" xmlns:cc="http://creativecommons.org/ns#" xmlns:rdf="http://www.w3.org/1999/02/22-rdf-syntax-ns#">
   <cc:Work>
    <dc:type rdf:resource="http://purl.org/dc/dcmitype/StillImage"/>
    <dc:date>2024-12-03T22:17:31.403104</dc:date>
    <dc:format>image/svg+xml</dc:format>
    <dc:creator>
     <cc:Agent>
      <dc:title>Matplotlib v3.9.2, https://matplotlib.org/</dc:title>
     </cc:Agent>
    </dc:creator>
   </cc:Work>
  </rdf:RDF>
 </metadata>
 <defs>
  <style type="text/css">*{stroke-linejoin: round; stroke-linecap: butt}</style>
 </defs>
 <g id="figure_1">
  <g id="patch_1">
   <path d="M 0 345.6 
L 460.8 345.6 
L 460.8 0 
L 0 0 
z
" style="fill: #ffffff"/>
  </g>
  <g id="axes_1">
   <g id="patch_2">
    <path d="M 57.6 307.584 
L 414.72 307.584 
L 414.72 41.472 
L 57.6 41.472 
z
" style="fill: #ffffff"/>
   </g>
   <g id="matplotlib.axis_1">
    <g id="xtick_1">
     <g id="line2d_1">
      <path d="M 73.832727 307.584 
L 73.832727 41.472 
" clip-path="url(#p8ea69bf23f)" style="fill: none; stroke: #b0b0b0; stroke-width: 0.8; stroke-linecap: square"/>
     </g>
     <g id="line2d_2">
      <defs>
       <path id="m5ad6700a05" d="M 0 0 
L 0 3.5 
" style="stroke: #000000; stroke-width: 0.8"/>
      </defs>
      <g>
       <use xlink:href="#m5ad6700a05" x="73.832727" y="307.584" style="stroke: #000000; stroke-width: 0.8"/>
      </g>
     </g>
     <g id="text_1">
      <!-- 0 -->
      <g transform="translate(70.651477 322.182437) scale(0.1 -0.1)">
       <defs>
        <path id="DejaVuSans-30" d="M 2034 4250 
Q 1547 4250 1301 3770 
Q 1056 3291 1056 2328 
Q 1056 1369 1301 889 
Q 1547 409 2034 409 
Q 2525 409 2770 889 
Q 3016 1369 3016 2328 
Q 3016 3291 2770 3770 
Q 2525 4250 2034 4250 
z
M 2034 4750 
Q 2819 4750 3233 4129 
Q 3647 3509 3647 2328 
Q 3647 1150 3233 529 
Q 2819 -91 2034 -91 
Q 1250 -91 836 529 
Q 422 1150 422 2328 
Q 422 3509 836 4129 
Q 1250 4750 2034 4750 
z
" transform="scale(0.015625)"/>
       </defs>
       <use xlink:href="#DejaVuSans-30"/>
      </g>
     </g>
    </g>
    <g id="xtick_2">
     <g id="line2d_3">
      <path d="M 114.414549 307.584 
L 114.414549 41.472 
" clip-path="url(#p8ea69bf23f)" style="fill: none; stroke: #b0b0b0; stroke-width: 0.8; stroke-linecap: square"/>
     </g>
     <g id="line2d_4">
      <g>
       <use xlink:href="#m5ad6700a05" x="114.414549" y="307.584" style="stroke: #000000; stroke-width: 0.8"/>
      </g>
     </g>
     <g id="text_2">
      <!-- 100000 -->
      <g transform="translate(95.327049 322.182437) scale(0.1 -0.1)">
       <defs>
        <path id="DejaVuSans-31" d="M 794 531 
L 1825 531 
L 1825 4091 
L 703 3866 
L 703 4441 
L 1819 4666 
L 2450 4666 
L 2450 531 
L 3481 531 
L 3481 0 
L 794 0 
L 794 531 
z
" transform="scale(0.015625)"/>
       </defs>
       <use xlink:href="#DejaVuSans-31"/>
       <use xlink:href="#DejaVuSans-30" x="63.623047"/>
       <use xlink:href="#DejaVuSans-30" x="127.246094"/>
       <use xlink:href="#DejaVuSans-30" x="190.869141"/>
       <use xlink:href="#DejaVuSans-30" x="254.492188"/>
       <use xlink:href="#DejaVuSans-30" x="318.115234"/>
      </g>
     </g>
    </g>
    <g id="xtick_3">
     <g id="line2d_5">
      <path d="M 154.99637 307.584 
L 154.99637 41.472 
" clip-path="url(#p8ea69bf23f)" style="fill: none; stroke: #b0b0b0; stroke-width: 0.8; stroke-linecap: square"/>
     </g>
     <g id="line2d_6">
      <g>
       <use xlink:href="#m5ad6700a05" x="154.99637" y="307.584" style="stroke: #000000; stroke-width: 0.8"/>
      </g>
     </g>
     <g id="text_3">
      <!-- 200000 -->
      <g transform="translate(135.90887 322.182437) scale(0.1 -0.1)">
       <defs>
        <path id="DejaVuSans-32" d="M 1228 531 
L 3431 531 
L 3431 0 
L 469 0 
L 469 531 
Q 828 903 1448 1529 
Q 2069 2156 2228 2338 
Q 2531 2678 2651 2914 
Q 2772 3150 2772 3378 
Q 2772 3750 2511 3984 
Q 2250 4219 1831 4219 
Q 1534 4219 1204 4116 
Q 875 4013 500 3803 
L 500 4441 
Q 881 4594 1212 4672 
Q 1544 4750 1819 4750 
Q 2544 4750 2975 4387 
Q 3406 4025 3406 3419 
Q 3406 3131 3298 2873 
Q 3191 2616 2906 2266 
Q 2828 2175 2409 1742 
Q 1991 1309 1228 531 
z
" transform="scale(0.015625)"/>
       </defs>
       <use xlink:href="#DejaVuSans-32"/>
       <use xlink:href="#DejaVuSans-30" x="63.623047"/>
       <use xlink:href="#DejaVuSans-30" x="127.246094"/>
       <use xlink:href="#DejaVuSans-30" x="190.869141"/>
       <use xlink:href="#DejaVuSans-30" x="254.492188"/>
       <use xlink:href="#DejaVuSans-30" x="318.115234"/>
      </g>
     </g>
    </g>
    <g id="xtick_4">
     <g id="line2d_7">
      <path d="M 195.578191 307.584 
L 195.578191 41.472 
" clip-path="url(#p8ea69bf23f)" style="fill: none; stroke: #b0b0b0; stroke-width: 0.8; stroke-linecap: square"/>
     </g>
     <g id="line2d_8">
      <g>
       <use xlink:href="#m5ad6700a05" x="195.578191" y="307.584" style="stroke: #000000; stroke-width: 0.8"/>
      </g>
     </g>
     <g id="text_4">
      <!-- 300000 -->
      <g transform="translate(176.490691 322.182437) scale(0.1 -0.1)">
       <defs>
        <path id="DejaVuSans-33" d="M 2597 2516 
Q 3050 2419 3304 2112 
Q 3559 1806 3559 1356 
Q 3559 666 3084 287 
Q 2609 -91 1734 -91 
Q 1441 -91 1130 -33 
Q 819 25 488 141 
L 488 750 
Q 750 597 1062 519 
Q 1375 441 1716 441 
Q 2309 441 2620 675 
Q 2931 909 2931 1356 
Q 2931 1769 2642 2001 
Q 2353 2234 1838 2234 
L 1294 2234 
L 1294 2753 
L 1863 2753 
Q 2328 2753 2575 2939 
Q 2822 3125 2822 3475 
Q 2822 3834 2567 4026 
Q 2313 4219 1838 4219 
Q 1578 4219 1281 4162 
Q 984 4106 628 3988 
L 628 4550 
Q 988 4650 1302 4700 
Q 1616 4750 1894 4750 
Q 2613 4750 3031 4423 
Q 3450 4097 3450 3541 
Q 3450 3153 3228 2886 
Q 3006 2619 2597 2516 
z
" transform="scale(0.015625)"/>
       </defs>
       <use xlink:href="#DejaVuSans-33"/>
       <use xlink:href="#DejaVuSans-30" x="63.623047"/>
       <use xlink:href="#DejaVuSans-30" x="127.246094"/>
       <use xlink:href="#DejaVuSans-30" x="190.869141"/>
       <use xlink:href="#DejaVuSans-30" x="254.492188"/>
       <use xlink:href="#DejaVuSans-30" x="318.115234"/>
      </g>
     </g>
    </g>
    <g id="xtick_5">
     <g id="line2d_9">
      <path d="M 236.160012 307.584 
L 236.160012 41.472 
" clip-path="url(#p8ea69bf23f)" style="fill: none; stroke: #b0b0b0; stroke-width: 0.8; stroke-linecap: square"/>
     </g>
     <g id="line2d_10">
      <g>
       <use xlink:href="#m5ad6700a05" x="236.160012" y="307.584" style="stroke: #000000; stroke-width: 0.8"/>
      </g>
     </g>
     <g id="text_5">
      <!-- 400000 -->
      <g transform="translate(217.072512 322.182437) scale(0.1 -0.1)">
       <defs>
        <path id="DejaVuSans-34" d="M 2419 4116 
L 825 1625 
L 2419 1625 
L 2419 4116 
z
M 2253 4666 
L 3047 4666 
L 3047 1625 
L 3713 1625 
L 3713 1100 
L 3047 1100 
L 3047 0 
L 2419 0 
L 2419 1100 
L 313 1100 
L 313 1709 
L 2253 4666 
z
" transform="scale(0.015625)"/>
       </defs>
       <use xlink:href="#DejaVuSans-34"/>
       <use xlink:href="#DejaVuSans-30" x="63.623047"/>
       <use xlink:href="#DejaVuSans-30" x="127.246094"/>
       <use xlink:href="#DejaVuSans-30" x="190.869141"/>
       <use xlink:href="#DejaVuSans-30" x="254.492188"/>
       <use xlink:href="#DejaVuSans-30" x="318.115234"/>
      </g>
     </g>
    </g>
    <g id="xtick_6">
     <g id="line2d_11">
      <path d="M 276.741834 307.584 
L 276.741834 41.472 
" clip-path="url(#p8ea69bf23f)" style="fill: none; stroke: #b0b0b0; stroke-width: 0.8; stroke-linecap: square"/>
     </g>
     <g id="line2d_12">
      <g>
       <use xlink:href="#m5ad6700a05" x="276.741834" y="307.584" style="stroke: #000000; stroke-width: 0.8"/>
      </g>
     </g>
     <g id="text_6">
      <!-- 500000 -->
      <g transform="translate(257.654334 322.182437) scale(0.1 -0.1)">
       <defs>
        <path id="DejaVuSans-35" d="M 691 4666 
L 3169 4666 
L 3169 4134 
L 1269 4134 
L 1269 2991 
Q 1406 3038 1543 3061 
Q 1681 3084 1819 3084 
Q 2600 3084 3056 2656 
Q 3513 2228 3513 1497 
Q 3513 744 3044 326 
Q 2575 -91 1722 -91 
Q 1428 -91 1123 -41 
Q 819 9 494 109 
L 494 744 
Q 775 591 1075 516 
Q 1375 441 1709 441 
Q 2250 441 2565 725 
Q 2881 1009 2881 1497 
Q 2881 1984 2565 2268 
Q 2250 2553 1709 2553 
Q 1456 2553 1204 2497 
Q 953 2441 691 2322 
L 691 4666 
z
" transform="scale(0.015625)"/>
       </defs>
       <use xlink:href="#DejaVuSans-35"/>
       <use xlink:href="#DejaVuSans-30" x="63.623047"/>
       <use xlink:href="#DejaVuSans-30" x="127.246094"/>
       <use xlink:href="#DejaVuSans-30" x="190.869141"/>
       <use xlink:href="#DejaVuSans-30" x="254.492188"/>
       <use xlink:href="#DejaVuSans-30" x="318.115234"/>
      </g>
     </g>
    </g>
    <g id="xtick_7">
     <g id="line2d_13">
      <path d="M 317.323655 307.584 
L 317.323655 41.472 
" clip-path="url(#p8ea69bf23f)" style="fill: none; stroke: #b0b0b0; stroke-width: 0.8; stroke-linecap: square"/>
     </g>
     <g id="line2d_14">
      <g>
       <use xlink:href="#m5ad6700a05" x="317.323655" y="307.584" style="stroke: #000000; stroke-width: 0.8"/>
      </g>
     </g>
     <g id="text_7">
      <!-- 600000 -->
      <g transform="translate(298.236155 322.182437) scale(0.1 -0.1)">
       <defs>
        <path id="DejaVuSans-36" d="M 2113 2584 
Q 1688 2584 1439 2293 
Q 1191 2003 1191 1497 
Q 1191 994 1439 701 
Q 1688 409 2113 409 
Q 2538 409 2786 701 
Q 3034 994 3034 1497 
Q 3034 2003 2786 2293 
Q 2538 2584 2113 2584 
z
M 3366 4563 
L 3366 3988 
Q 3128 4100 2886 4159 
Q 2644 4219 2406 4219 
Q 1781 4219 1451 3797 
Q 1122 3375 1075 2522 
Q 1259 2794 1537 2939 
Q 1816 3084 2150 3084 
Q 2853 3084 3261 2657 
Q 3669 2231 3669 1497 
Q 3669 778 3244 343 
Q 2819 -91 2113 -91 
Q 1303 -91 875 529 
Q 447 1150 447 2328 
Q 447 3434 972 4092 
Q 1497 4750 2381 4750 
Q 2619 4750 2861 4703 
Q 3103 4656 3366 4563 
z
" transform="scale(0.015625)"/>
       </defs>
       <use xlink:href="#DejaVuSans-36"/>
       <use xlink:href="#DejaVuSans-30" x="63.623047"/>
       <use xlink:href="#DejaVuSans-30" x="127.246094"/>
       <use xlink:href="#DejaVuSans-30" x="190.869141"/>
       <use xlink:href="#DejaVuSans-30" x="254.492188"/>
       <use xlink:href="#DejaVuSans-30" x="318.115234"/>
      </g>
     </g>
    </g>
    <g id="xtick_8">
     <g id="line2d_15">
      <path d="M 357.905476 307.584 
L 357.905476 41.472 
" clip-path="url(#p8ea69bf23f)" style="fill: none; stroke: #b0b0b0; stroke-width: 0.8; stroke-linecap: square"/>
     </g>
     <g id="line2d_16">
      <g>
       <use xlink:href="#m5ad6700a05" x="357.905476" y="307.584" style="stroke: #000000; stroke-width: 0.8"/>
      </g>
     </g>
     <g id="text_8">
      <!-- 700000 -->
      <g transform="translate(338.817976 322.182437) scale(0.1 -0.1)">
       <defs>
        <path id="DejaVuSans-37" d="M 525 4666 
L 3525 4666 
L 3525 4397 
L 1831 0 
L 1172 0 
L 2766 4134 
L 525 4134 
L 525 4666 
z
" transform="scale(0.015625)"/>
       </defs>
       <use xlink:href="#DejaVuSans-37"/>
       <use xlink:href="#DejaVuSans-30" x="63.623047"/>
       <use xlink:href="#DejaVuSans-30" x="127.246094"/>
       <use xlink:href="#DejaVuSans-30" x="190.869141"/>
       <use xlink:href="#DejaVuSans-30" x="254.492188"/>
       <use xlink:href="#DejaVuSans-30" x="318.115234"/>
      </g>
     </g>
    </g>
    <g id="xtick_9">
     <g id="line2d_17">
      <path d="M 398.487298 307.584 
L 398.487298 41.472 
" clip-path="url(#p8ea69bf23f)" style="fill: none; stroke: #b0b0b0; stroke-width: 0.8; stroke-linecap: square"/>
     </g>
     <g id="line2d_18">
      <g>
       <use xlink:href="#m5ad6700a05" x="398.487298" y="307.584" style="stroke: #000000; stroke-width: 0.8"/>
      </g>
     </g>
     <g id="text_9">
      <!-- 800000 -->
      <g transform="translate(379.399798 322.182437) scale(0.1 -0.1)">
       <defs>
        <path id="DejaVuSans-38" d="M 2034 2216 
Q 1584 2216 1326 1975 
Q 1069 1734 1069 1313 
Q 1069 891 1326 650 
Q 1584 409 2034 409 
Q 2484 409 2743 651 
Q 3003 894 3003 1313 
Q 3003 1734 2745 1975 
Q 2488 2216 2034 2216 
z
M 1403 2484 
Q 997 2584 770 2862 
Q 544 3141 544 3541 
Q 544 4100 942 4425 
Q 1341 4750 2034 4750 
Q 2731 4750 3128 4425 
Q 3525 4100 3525 3541 
Q 3525 3141 3298 2862 
Q 3072 2584 2669 2484 
Q 3125 2378 3379 2068 
Q 3634 1759 3634 1313 
Q 3634 634 3220 271 
Q 2806 -91 2034 -91 
Q 1263 -91 848 271 
Q 434 634 434 1313 
Q 434 1759 690 2068 
Q 947 2378 1403 2484 
z
M 1172 3481 
Q 1172 3119 1398 2916 
Q 1625 2713 2034 2713 
Q 2441 2713 2670 2916 
Q 2900 3119 2900 3481 
Q 2900 3844 2670 4047 
Q 2441 4250 2034 4250 
Q 1625 4250 1398 4047 
Q 1172 3844 1172 3481 
z
" transform="scale(0.015625)"/>
       </defs>
       <use xlink:href="#DejaVuSans-38"/>
       <use xlink:href="#DejaVuSans-30" x="63.623047"/>
       <use xlink:href="#DejaVuSans-30" x="127.246094"/>
       <use xlink:href="#DejaVuSans-30" x="190.869141"/>
       <use xlink:href="#DejaVuSans-30" x="254.492188"/>
       <use xlink:href="#DejaVuSans-30" x="318.115234"/>
      </g>
     </g>
    </g>
    <g id="text_10">
     <!-- TimePoint -->
     <g transform="translate(211.515469 335.860562) scale(0.1 -0.1)">
      <defs>
       <path id="DejaVuSans-54" d="M -19 4666 
L 3928 4666 
L 3928 4134 
L 2272 4134 
L 2272 0 
L 1638 0 
L 1638 4134 
L -19 4134 
L -19 4666 
z
" transform="scale(0.015625)"/>
       <path id="DejaVuSans-69" d="M 603 3500 
L 1178 3500 
L 1178 0 
L 603 0 
L 603 3500 
z
M 603 4863 
L 1178 4863 
L 1178 4134 
L 603 4134 
L 603 4863 
z
" transform="scale(0.015625)"/>
       <path id="DejaVuSans-6d" d="M 3328 2828 
Q 3544 3216 3844 3400 
Q 4144 3584 4550 3584 
Q 5097 3584 5394 3201 
Q 5691 2819 5691 2113 
L 5691 0 
L 5113 0 
L 5113 2094 
Q 5113 2597 4934 2840 
Q 4756 3084 4391 3084 
Q 3944 3084 3684 2787 
Q 3425 2491 3425 1978 
L 3425 0 
L 2847 0 
L 2847 2094 
Q 2847 2600 2669 2842 
Q 2491 3084 2119 3084 
Q 1678 3084 1418 2786 
Q 1159 2488 1159 1978 
L 1159 0 
L 581 0 
L 581 3500 
L 1159 3500 
L 1159 2956 
Q 1356 3278 1631 3431 
Q 1906 3584 2284 3584 
Q 2666 3584 2933 3390 
Q 3200 3197 3328 2828 
z
" transform="scale(0.015625)"/>
       <path id="DejaVuSans-65" d="M 3597 1894 
L 3597 1613 
L 953 1613 
Q 991 1019 1311 708 
Q 1631 397 2203 397 
Q 2534 397 2845 478 
Q 3156 559 3463 722 
L 3463 178 
Q 3153 47 2828 -22 
Q 2503 -91 2169 -91 
Q 1331 -91 842 396 
Q 353 884 353 1716 
Q 353 2575 817 3079 
Q 1281 3584 2069 3584 
Q 2775 3584 3186 3129 
Q 3597 2675 3597 1894 
z
M 3022 2063 
Q 3016 2534 2758 2815 
Q 2500 3097 2075 3097 
Q 1594 3097 1305 2825 
Q 1016 2553 972 2059 
L 3022 2063 
z
" transform="scale(0.015625)"/>
       <path id="DejaVuSans-50" d="M 1259 4147 
L 1259 2394 
L 2053 2394 
Q 2494 2394 2734 2622 
Q 2975 2850 2975 3272 
Q 2975 3691 2734 3919 
Q 2494 4147 2053 4147 
L 1259 4147 
z
M 628 4666 
L 2053 4666 
Q 2838 4666 3239 4311 
Q 3641 3956 3641 3272 
Q 3641 2581 3239 2228 
Q 2838 1875 2053 1875 
L 1259 1875 
L 1259 0 
L 628 0 
L 628 4666 
z
" transform="scale(0.015625)"/>
       <path id="DejaVuSans-6f" d="M 1959 3097 
Q 1497 3097 1228 2736 
Q 959 2375 959 1747 
Q 959 1119 1226 758 
Q 1494 397 1959 397 
Q 2419 397 2687 759 
Q 2956 1122 2956 1747 
Q 2956 2369 2687 2733 
Q 2419 3097 1959 3097 
z
M 1959 3584 
Q 2709 3584 3137 3096 
Q 3566 2609 3566 1747 
Q 3566 888 3137 398 
Q 2709 -91 1959 -91 
Q 1206 -91 779 398 
Q 353 888 353 1747 
Q 353 2609 779 3096 
Q 1206 3584 1959 3584 
z
" transform="scale(0.015625)"/>
       <path id="DejaVuSans-6e" d="M 3513 2113 
L 3513 0 
L 2938 0 
L 2938 2094 
Q 2938 2591 2744 2837 
Q 2550 3084 2163 3084 
Q 1697 3084 1428 2787 
Q 1159 2491 1159 1978 
L 1159 0 
L 581 0 
L 581 3500 
L 1159 3500 
L 1159 2956 
Q 1366 3272 1645 3428 
Q 1925 3584 2291 3584 
Q 2894 3584 3203 3211 
Q 3513 2838 3513 2113 
z
" transform="scale(0.015625)"/>
       <path id="DejaVuSans-74" d="M 1172 4494 
L 1172 3500 
L 2356 3500 
L 2356 3053 
L 1172 3053 
L 1172 1153 
Q 1172 725 1289 603 
Q 1406 481 1766 481 
L 2356 481 
L 2356 0 
L 1766 0 
Q 1100 0 847 248 
Q 594 497 594 1153 
L 594 3053 
L 172 3053 
L 172 3500 
L 594 3500 
L 594 4494 
L 1172 4494 
z
" transform="scale(0.015625)"/>
      </defs>
      <use xlink:href="#DejaVuSans-54"/>
      <use xlink:href="#DejaVuSans-69" x="57.958984"/>
      <use xlink:href="#DejaVuSans-6d" x="85.742188"/>
      <use xlink:href="#DejaVuSans-65" x="183.154297"/>
      <use xlink:href="#DejaVuSans-50" x="244.677734"/>
      <use xlink:href="#DejaVuSans-6f" x="301.355469"/>
      <use xlink:href="#DejaVuSans-69" x="362.537109"/>
      <use xlink:href="#DejaVuSans-6e" x="390.320312"/>
      <use xlink:href="#DejaVuSans-74" x="453.699219"/>
     </g>
    </g>
   </g>
   <g id="matplotlib.axis_2">
    <g id="ytick_1">
     <g id="line2d_19">
      <path d="M 57.6 295.488 
L 414.72 295.488 
" clip-path="url(#p8ea69bf23f)" style="fill: none; stroke: #b0b0b0; stroke-width: 0.8; stroke-linecap: square"/>
     </g>
     <g id="line2d_20">
      <defs>
       <path id="m1cf1dc3698" d="M 0 0 
L -3.5 0 
" style="stroke: #000000; stroke-width: 0.8"/>
      </defs>
      <g>
       <use xlink:href="#m1cf1dc3698" x="57.6" y="295.488" style="stroke: #000000; stroke-width: 0.8"/>
      </g>
     </g>
     <g id="text_11">
      <!-- 0.00 -->
      <g transform="translate(28.334375 299.287219) scale(0.1 -0.1)">
       <defs>
        <path id="DejaVuSans-2e" d="M 684 794 
L 1344 794 
L 1344 0 
L 684 0 
L 684 794 
z
" transform="scale(0.015625)"/>
       </defs>
       <use xlink:href="#DejaVuSans-30"/>
       <use xlink:href="#DejaVuSans-2e" x="63.623047"/>
       <use xlink:href="#DejaVuSans-30" x="95.410156"/>
       <use xlink:href="#DejaVuSans-30" x="159.033203"/>
      </g>
     </g>
    </g>
    <g id="ytick_2">
     <g id="line2d_21">
      <path d="M 57.6 265.256958 
L 414.72 265.256958 
" clip-path="url(#p8ea69bf23f)" style="fill: none; stroke: #b0b0b0; stroke-width: 0.8; stroke-linecap: square"/>
     </g>
     <g id="line2d_22">
      <g>
       <use xlink:href="#m1cf1dc3698" x="57.6" y="265.256958" style="stroke: #000000; stroke-width: 0.8"/>
      </g>
     </g>
     <g id="text_12">
      <!-- 0.25 -->
      <g transform="translate(28.334375 269.056177) scale(0.1 -0.1)">
       <use xlink:href="#DejaVuSans-30"/>
       <use xlink:href="#DejaVuSans-2e" x="63.623047"/>
       <use xlink:href="#DejaVuSans-32" x="95.410156"/>
       <use xlink:href="#DejaVuSans-35" x="159.033203"/>
      </g>
     </g>
    </g>
    <g id="ytick_3">
     <g id="line2d_23">
      <path d="M 57.6 235.025917 
L 414.72 235.025917 
" clip-path="url(#p8ea69bf23f)" style="fill: none; stroke: #b0b0b0; stroke-width: 0.8; stroke-linecap: square"/>
     </g>
     <g id="line2d_24">
      <g>
       <use xlink:href="#m1cf1dc3698" x="57.6" y="235.025917" style="stroke: #000000; stroke-width: 0.8"/>
      </g>
     </g>
     <g id="text_13">
      <!-- 0.50 -->
      <g transform="translate(28.334375 238.825136) scale(0.1 -0.1)">
       <use xlink:href="#DejaVuSans-30"/>
       <use xlink:href="#DejaVuSans-2e" x="63.623047"/>
       <use xlink:href="#DejaVuSans-35" x="95.410156"/>
       <use xlink:href="#DejaVuSans-30" x="159.033203"/>
      </g>
     </g>
    </g>
    <g id="ytick_4">
     <g id="line2d_25">
      <path d="M 57.6 204.794875 
L 414.72 204.794875 
" clip-path="url(#p8ea69bf23f)" style="fill: none; stroke: #b0b0b0; stroke-width: 0.8; stroke-linecap: square"/>
     </g>
     <g id="line2d_26">
      <g>
       <use xlink:href="#m1cf1dc3698" x="57.6" y="204.794875" style="stroke: #000000; stroke-width: 0.8"/>
      </g>
     </g>
     <g id="text_14">
      <!-- 0.75 -->
      <g transform="translate(28.334375 208.594094) scale(0.1 -0.1)">
       <use xlink:href="#DejaVuSans-30"/>
       <use xlink:href="#DejaVuSans-2e" x="63.623047"/>
       <use xlink:href="#DejaVuSans-37" x="95.410156"/>
       <use xlink:href="#DejaVuSans-35" x="159.033203"/>
      </g>
     </g>
    </g>
    <g id="ytick_5">
     <g id="line2d_27">
      <path d="M 57.6 174.563834 
L 414.72 174.563834 
" clip-path="url(#p8ea69bf23f)" style="fill: none; stroke: #b0b0b0; stroke-width: 0.8; stroke-linecap: square"/>
     </g>
     <g id="line2d_28">
      <g>
       <use xlink:href="#m1cf1dc3698" x="57.6" y="174.563834" style="stroke: #000000; stroke-width: 0.8"/>
      </g>
     </g>
     <g id="text_15">
      <!-- 1.00 -->
      <g transform="translate(28.334375 178.363053) scale(0.1 -0.1)">
       <use xlink:href="#DejaVuSans-31"/>
       <use xlink:href="#DejaVuSans-2e" x="63.623047"/>
       <use xlink:href="#DejaVuSans-30" x="95.410156"/>
       <use xlink:href="#DejaVuSans-30" x="159.033203"/>
      </g>
     </g>
    </g>
    <g id="ytick_6">
     <g id="line2d_29">
      <path d="M 57.6 144.332792 
L 414.72 144.332792 
" clip-path="url(#p8ea69bf23f)" style="fill: none; stroke: #b0b0b0; stroke-width: 0.8; stroke-linecap: square"/>
     </g>
     <g id="line2d_30">
      <g>
       <use xlink:href="#m1cf1dc3698" x="57.6" y="144.332792" style="stroke: #000000; stroke-width: 0.8"/>
      </g>
     </g>
     <g id="text_16">
      <!-- 1.25 -->
      <g transform="translate(28.334375 148.132011) scale(0.1 -0.1)">
       <use xlink:href="#DejaVuSans-31"/>
       <use xlink:href="#DejaVuSans-2e" x="63.623047"/>
       <use xlink:href="#DejaVuSans-32" x="95.410156"/>
       <use xlink:href="#DejaVuSans-35" x="159.033203"/>
      </g>
     </g>
    </g>
    <g id="ytick_7">
     <g id="line2d_31">
      <path d="M 57.6 114.101751 
L 414.72 114.101751 
" clip-path="url(#p8ea69bf23f)" style="fill: none; stroke: #b0b0b0; stroke-width: 0.8; stroke-linecap: square"/>
     </g>
     <g id="line2d_32">
      <g>
       <use xlink:href="#m1cf1dc3698" x="57.6" y="114.101751" style="stroke: #000000; stroke-width: 0.8"/>
      </g>
     </g>
     <g id="text_17">
      <!-- 1.50 -->
      <g transform="translate(28.334375 117.90097) scale(0.1 -0.1)">
       <use xlink:href="#DejaVuSans-31"/>
       <use xlink:href="#DejaVuSans-2e" x="63.623047"/>
       <use xlink:href="#DejaVuSans-35" x="95.410156"/>
       <use xlink:href="#DejaVuSans-30" x="159.033203"/>
      </g>
     </g>
    </g>
    <g id="ytick_8">
     <g id="line2d_33">
      <path d="M 57.6 83.870709 
L 414.72 83.870709 
" clip-path="url(#p8ea69bf23f)" style="fill: none; stroke: #b0b0b0; stroke-width: 0.8; stroke-linecap: square"/>
     </g>
     <g id="line2d_34">
      <g>
       <use xlink:href="#m1cf1dc3698" x="57.6" y="83.870709" style="stroke: #000000; stroke-width: 0.8"/>
      </g>
     </g>
     <g id="text_18">
      <!-- 1.75 -->
      <g transform="translate(28.334375 87.669928) scale(0.1 -0.1)">
       <use xlink:href="#DejaVuSans-31"/>
       <use xlink:href="#DejaVuSans-2e" x="63.623047"/>
       <use xlink:href="#DejaVuSans-37" x="95.410156"/>
       <use xlink:href="#DejaVuSans-35" x="159.033203"/>
      </g>
     </g>
    </g>
    <g id="ytick_9">
     <g id="line2d_35">
      <path d="M 57.6 53.639668 
L 414.72 53.639668 
" clip-path="url(#p8ea69bf23f)" style="fill: none; stroke: #b0b0b0; stroke-width: 0.8; stroke-linecap: square"/>
     </g>
     <g id="line2d_36">
      <g>
       <use xlink:href="#m1cf1dc3698" x="57.6" y="53.639668" style="stroke: #000000; stroke-width: 0.8"/>
      </g>
     </g>
     <g id="text_19">
      <!-- 2.00 -->
      <g transform="translate(28.334375 57.438887) scale(0.1 -0.1)">
       <use xlink:href="#DejaVuSans-32"/>
       <use xlink:href="#DejaVuSans-2e" x="63.623047"/>
       <use xlink:href="#DejaVuSans-30" x="95.410156"/>
       <use xlink:href="#DejaVuSans-30" x="159.033203"/>
      </g>
     </g>
    </g>
    <g id="text_20">
     <!-- processorsLoadMean -->
     <g transform="translate(22.254687 227.078781) rotate(-90) scale(0.1 -0.1)">
      <defs>
       <path id="DejaVuSans-70" d="M 1159 525 
L 1159 -1331 
L 581 -1331 
L 581 3500 
L 1159 3500 
L 1159 2969 
Q 1341 3281 1617 3432 
Q 1894 3584 2278 3584 
Q 2916 3584 3314 3078 
Q 3713 2572 3713 1747 
Q 3713 922 3314 415 
Q 2916 -91 2278 -91 
Q 1894 -91 1617 61 
Q 1341 213 1159 525 
z
M 3116 1747 
Q 3116 2381 2855 2742 
Q 2594 3103 2138 3103 
Q 1681 3103 1420 2742 
Q 1159 2381 1159 1747 
Q 1159 1113 1420 752 
Q 1681 391 2138 391 
Q 2594 391 2855 752 
Q 3116 1113 3116 1747 
z
" transform="scale(0.015625)"/>
       <path id="DejaVuSans-72" d="M 2631 2963 
Q 2534 3019 2420 3045 
Q 2306 3072 2169 3072 
Q 1681 3072 1420 2755 
Q 1159 2438 1159 1844 
L 1159 0 
L 581 0 
L 581 3500 
L 1159 3500 
L 1159 2956 
Q 1341 3275 1631 3429 
Q 1922 3584 2338 3584 
Q 2397 3584 2469 3576 
Q 2541 3569 2628 3553 
L 2631 2963 
z
" transform="scale(0.015625)"/>
       <path id="DejaVuSans-63" d="M 3122 3366 
L 3122 2828 
Q 2878 2963 2633 3030 
Q 2388 3097 2138 3097 
Q 1578 3097 1268 2742 
Q 959 2388 959 1747 
Q 959 1106 1268 751 
Q 1578 397 2138 397 
Q 2388 397 2633 464 
Q 2878 531 3122 666 
L 3122 134 
Q 2881 22 2623 -34 
Q 2366 -91 2075 -91 
Q 1284 -91 818 406 
Q 353 903 353 1747 
Q 353 2603 823 3093 
Q 1294 3584 2113 3584 
Q 2378 3584 2631 3529 
Q 2884 3475 3122 3366 
z
" transform="scale(0.015625)"/>
       <path id="DejaVuSans-73" d="M 2834 3397 
L 2834 2853 
Q 2591 2978 2328 3040 
Q 2066 3103 1784 3103 
Q 1356 3103 1142 2972 
Q 928 2841 928 2578 
Q 928 2378 1081 2264 
Q 1234 2150 1697 2047 
L 1894 2003 
Q 2506 1872 2764 1633 
Q 3022 1394 3022 966 
Q 3022 478 2636 193 
Q 2250 -91 1575 -91 
Q 1294 -91 989 -36 
Q 684 19 347 128 
L 347 722 
Q 666 556 975 473 
Q 1284 391 1588 391 
Q 1994 391 2212 530 
Q 2431 669 2431 922 
Q 2431 1156 2273 1281 
Q 2116 1406 1581 1522 
L 1381 1569 
Q 847 1681 609 1914 
Q 372 2147 372 2553 
Q 372 3047 722 3315 
Q 1072 3584 1716 3584 
Q 2034 3584 2315 3537 
Q 2597 3491 2834 3397 
z
" transform="scale(0.015625)"/>
       <path id="DejaVuSans-4c" d="M 628 4666 
L 1259 4666 
L 1259 531 
L 3531 531 
L 3531 0 
L 628 0 
L 628 4666 
z
" transform="scale(0.015625)"/>
       <path id="DejaVuSans-61" d="M 2194 1759 
Q 1497 1759 1228 1600 
Q 959 1441 959 1056 
Q 959 750 1161 570 
Q 1363 391 1709 391 
Q 2188 391 2477 730 
Q 2766 1069 2766 1631 
L 2766 1759 
L 2194 1759 
z
M 3341 1997 
L 3341 0 
L 2766 0 
L 2766 531 
Q 2569 213 2275 61 
Q 1981 -91 1556 -91 
Q 1019 -91 701 211 
Q 384 513 384 1019 
Q 384 1609 779 1909 
Q 1175 2209 1959 2209 
L 2766 2209 
L 2766 2266 
Q 2766 2663 2505 2880 
Q 2244 3097 1772 3097 
Q 1472 3097 1187 3025 
Q 903 2953 641 2809 
L 641 3341 
Q 956 3463 1253 3523 
Q 1550 3584 1831 3584 
Q 2591 3584 2966 3190 
Q 3341 2797 3341 1997 
z
" transform="scale(0.015625)"/>
       <path id="DejaVuSans-64" d="M 2906 2969 
L 2906 4863 
L 3481 4863 
L 3481 0 
L 2906 0 
L 2906 525 
Q 2725 213 2448 61 
Q 2172 -91 1784 -91 
Q 1150 -91 751 415 
Q 353 922 353 1747 
Q 353 2572 751 3078 
Q 1150 3584 1784 3584 
Q 2172 3584 2448 3432 
Q 2725 3281 2906 2969 
z
M 947 1747 
Q 947 1113 1208 752 
Q 1469 391 1925 391 
Q 2381 391 2643 752 
Q 2906 1113 2906 1747 
Q 2906 2381 2643 2742 
Q 2381 3103 1925 3103 
Q 1469 3103 1208 2742 
Q 947 2381 947 1747 
z
" transform="scale(0.015625)"/>
       <path id="DejaVuSans-4d" d="M 628 4666 
L 1569 4666 
L 2759 1491 
L 3956 4666 
L 4897 4666 
L 4897 0 
L 4281 0 
L 4281 4097 
L 3078 897 
L 2444 897 
L 1241 4097 
L 1241 0 
L 628 0 
L 628 4666 
z
" transform="scale(0.015625)"/>
      </defs>
      <use xlink:href="#DejaVuSans-70"/>
      <use xlink:href="#DejaVuSans-72" x="63.476562"/>
      <use xlink:href="#DejaVuSans-6f" x="102.339844"/>
      <use xlink:href="#DejaVuSans-63" x="163.521484"/>
      <use xlink:href="#DejaVuSans-65" x="218.501953"/>
      <use xlink:href="#DejaVuSans-73" x="280.025391"/>
      <use xlink:href="#DejaVuSans-73" x="332.125"/>
      <use xlink:href="#DejaVuSans-6f" x="384.224609"/>
      <use xlink:href="#DejaVuSans-72" x="445.40625"/>
      <use xlink:href="#DejaVuSans-73" x="486.519531"/>
      <use xlink:href="#DejaVuSans-4c" x="538.619141"/>
      <use xlink:href="#DejaVuSans-6f" x="592.582031"/>
      <use xlink:href="#DejaVuSans-61" x="653.763672"/>
      <use xlink:href="#DejaVuSans-64" x="715.042969"/>
      <use xlink:href="#DejaVuSans-4d" x="778.519531"/>
      <use xlink:href="#DejaVuSans-65" x="864.798828"/>
      <use xlink:href="#DejaVuSans-61" x="926.322266"/>
      <use xlink:href="#DejaVuSans-6e" x="987.601562"/>
     </g>
    </g>
   </g>
   <g id="line2d_37">
    <path d="M 73.832727 295.488 
L 73.835568 295.488 
L 73.835568 295.488 
L 73.95103 226.35852 
L 73.953113 226.285515 
L 74.064229 220.915214 
L 74.091872 219.714531 
L 74.302665 216.364799 
L 74.315245 216.256834 
L 74.315245 216.256834 
L 74.425416 215.340901 
L 74.446278 215.229824 
L 74.571361 214.707309 
L 74.602137 214.599448 
L 74.713755 214.370124 
L 74.852143 214.182622 
L 74.984137 213.961895 
L 75.026665 213.851355 
L 75.091575 213.688197 
L 75.091575 213.688197 
L 75.20249 213.419964 
L 75.257555 213.308886 
L 75.257555 213.308886 
L 75.367938 213.066822 
L 75.425564 212.956938 
L 75.425564 212.956938 
L 75.536363 212.796016 
L 75.623405 212.686489 
L 75.809018 212.456819 
L 75.919445 212.332098 
L 75.919445 212.332098 
L 76.030301 212.192901 
L 76.148363 212.058467 
L 76.432224 211.82159 
L 76.583559 211.710843 
L 76.83416 211.537988 
L 77.047619 211.416018 
L 77.297671 211.293782 
L 77.651987 211.172488 
L 77.761756 211.122984 
L 78.062196 211.011973 
L 79.950655 210.460595 
L 80.653779 210.346543 
L 80.764946 210.332857 
L 81.710203 210.221794 
L 84.076463 210.009808 
L 85.285036 209.898803 
L 85.440751 209.885609 
L 87.176166 209.774572 
L 87.500932 209.761531 
L 92.089352 209.650428 
L 92.293374 209.647191 
L 106.977824 209.452191 
L 135.988251 209.33278 
L 135.988251 209.33278 
L 136.098633 209.33243 
L 160.917624 209.209891 
L 161.135281 209.208935 
L 203.801762 209.097824 
L 299.748074 209.016514 
L 398.486035 209.010433 
L 398.486035 209.010433 
" clip-path="url(#p8ea69bf23f)" style="fill: none; stroke: #1f77b4; stroke-width: 1.5; stroke-linecap: square"/>
   </g>
   <g id="line2d_38">
    <path d="M 73.832727 295.488 
L 73.833945 295.488 
L 73.833945 295.488 
L 73.949394 210.601136 
L 73.994698 209.183966 
L 74.068946 209.912814 
L 74.180164 210.415436 
L 74.256923 210.305633 
L 74.402486 209.522566 
L 74.438614 209.415258 
L 74.438614 209.414112 
L 74.572424 209.04153 
L 74.70189 208.930572 
L 74.841898 208.702444 
L 75.197611 208.211816 
L 77.429902 208.322702 
L 80.512525 208.58278 
L 85.370139 208.710804 
L 85.370139 208.710804 
L 85.481248 208.716741 
L 87.088103 208.790424 
L 89.862547 208.901519 
L 89.862547 208.901519 
L 89.973468 208.905437 
L 93.697529 209.017023 
L 93.697529 209.017023 
L 93.807911 209.018569 
L 100.675357 209.132043 
L 110.690821 209.201846 
L 398.486486 209.343083 
L 398.486486 209.343083 
" clip-path="url(#p8ea69bf23f)" style="fill: none; stroke: #ff7f0e; stroke-width: 1.5; stroke-linecap: square"/>
   </g>
   <g id="line2d_39">
    <path d="M 73.832727 295.488 
L 73.836785 295.488 
L 73.836785 295.488 
L 74.121818 214.159314 
L 74.136279 214.060204 
L 74.136279 214.050333 
L 74.475461 212.374605 
L 74.611492 212.263791 
L 74.611492 212.263548 
L 74.845679 211.974125 
L 75.109026 211.863033 
L 75.109026 211.863033 
L 75.219191 211.788889 
L 75.433414 211.677802 
L 77.879702 211.00225 
L 78.083289 210.929258 
L 78.469367 210.818178 
L 78.581612 210.789888 
L 79.185589 210.679066 
L 79.29628 210.659763 
L 80.054103 210.54872 
L 80.166026 210.535445 
L 82.606956 210.381949 
L 82.721584 210.374917 
L 84.039867 210.263843 
L 84.039867 210.263843 
L 84.150275 210.250927 
L 85.120155 210.139892 
L 85.120155 210.139892 
L 85.231052 210.127961 
L 86.371084 210.016999 
L 86.894262 209.973337 
L 96.850736 209.603191 
L 109.145543 209.575525 
L 125.450614 209.464414 
L 125.576578 209.463645 
L 157.7843 209.352536 
L 158.021613 209.351998 
L 228.363109 209.240887 
L 229.930314 209.238339 
L 365.197404 209.056977 
L 392.326165 209.041001 
L 398.485315 209.038136 
L 398.485315 209.038136 
" clip-path="url(#p8ea69bf23f)" style="fill: none; stroke: #2ca02c; stroke-width: 1.5; stroke-linecap: square"/>
   </g>
   <g id="line2d_40">
    <path d="M 73.832727 295.488 
L 73.835974 295.488 
L 73.835974 295.488 
L 73.946336 212.872239 
L 73.947759 212.832634 
L 74.058699 207.742421 
L 74.063065 207.634181 
L 74.277964 204.796322 
L 74.296577 204.800145 
L 74.38056 204.912182 
L 74.491938 205.350166 
L 74.522618 205.487757 
L 74.522618 205.487757 
L 74.633407 206.032644 
L 74.9032 206.748665 
L 74.97957 206.859754 
L 74.97957 206.859754 
L 75.089423 206.993472 
L 75.160116 207.126813 
L 75.29558 207.385675 
L 75.360633 207.496748 
L 75.360633 207.496748 
L 75.469647 207.643518 
L 75.608557 207.784298 
L 75.719589 207.905571 
L 76.616815 208.568951 
L 77.166118 208.701425 
L 77.493208 208.715963 
L 77.493208 208.715963 
L 77.573034 208.71425 
L 77.60405 208.714327 
L 80.577832 208.827073 
L 80.577832 208.827073 
L 80.688803 208.830835 
L 90.031518 208.92077 
L 211.968377 209.03188 
L 211.968377 209.03188 
L 212.077388 209.031967 
L 398.486922 209.105593 
L 398.486922 209.105593 
" clip-path="url(#p8ea69bf23f)" style="fill: none; stroke: #d62728; stroke-width: 1.5; stroke-linecap: square"/>
   </g>
   <g id="line2d_41">
    <path d="M 73.832727 295.488 
L 73.838409 295.488 
L 73.838409 295.488 
L 73.948444 225.182567 
L 73.949603 225.106616 
L 74.111073 217.966126 
L 74.129786 217.809598 
L 74.129786 217.809598 
L 74.240575 216.86318 
L 74.260483 216.673525 
L 74.442988 215.529118 
L 74.471521 215.420146 
L 74.582274 215.107193 
L 74.62042 214.99612 
L 74.62042 214.99612 
L 74.731002 214.824601 
L 74.773414 214.717928 
L 74.773414 214.717437 
L 74.89669 214.338074 
L 74.937985 214.22805 
L 75.213537 213.5364 
L 75.318122 213.338431 
L 75.488261 213.029914 
L 75.548932 212.920566 
L 75.548932 212.920566 
L 75.659705 212.701725 
L 76.141782 212.060481 
L 76.317016 211.930747 
L 76.677326 211.64249 
L 76.851609 211.531422 
L 76.851609 211.531422 
L 76.962408 211.475563 
L 77.197033 211.365104 
L 77.308391 211.32349 
L 77.772816 211.21281 
L 77.772816 211.21281 
L 77.883475 211.182652 
L 80.106677 210.846381 
L 82.227077 210.735382 
L 82.227077 210.735345 
L 82.798754 210.681894 
L 89.430581 210.247415 
L 90.266083 210.187266 
L 91.834504 210.076159 
L 97.258989 209.75472 
L 97.860412 209.726819 
L 101.007279 209.615723 
L 101.594014 209.601545 
L 144.518723 209.266236 
L 197.883401 209.155125 
L 285.978744 209.039254 
L 398.485448 208.998234 
L 398.485448 208.998234 
" clip-path="url(#p8ea69bf23f)" style="fill: none; stroke: #9467bd; stroke-width: 1.5; stroke-linecap: square"/>
   </g>
   <g id="line2d_42">
    <path d="M 73.832727 295.488 
L 73.835162 295.488 
L 73.835162 295.488 
L 73.94798 210.929102 
L 73.949754 210.823595 
L 74.282859 208.548083 
L 74.427697 208.440362 
L 74.538625 208.221171 
L 74.599755 208.110833 
L 74.711132 207.841848 
L 74.76656 207.731152 
L 74.875432 207.591181 
L 75.25845 207.658713 
L 75.258488 207.659502 
L 77.882234 208.142038 
L 78.717155 208.253035 
L 78.717155 208.253113 
L 80.115242 208.301395 
L 82.869893 208.412408 
L 82.869893 208.412434 
L 83.354821 208.442617 
L 88.116311 208.568355 
L 109.122606 209.063175 
L 129.439968 209.174286 
L 129.439968 209.174286 
L 129.549686 209.174601 
L 398.486997 209.148172 
L 398.486997 209.148172 
" clip-path="url(#p8ea69bf23f)" style="fill: none; stroke: #8c564b; stroke-width: 1.5; stroke-linecap: square"/>
   </g>
   <g id="line2d_43">
    <path d="M 73.832727 295.488 
L 73.836785 295.488 
L 73.836785 295.488 
L 74.050451 219.114701 
L 74.05471 219.01849 
L 74.05471 219.01849 
L 74.165667 216.863775 
L 74.324122 215.59734 
L 74.344028 215.48847 
L 74.466199 214.679504 
L 74.48423 214.570701 
L 74.596071 213.977963 
L 74.619273 213.868649 
L 74.731571 213.329864 
L 74.887109 212.833604 
L 75.03162 212.464764 
L 75.314405 211.882954 
L 75.374836 211.773978 
L 75.374836 211.771992 
L 75.598442 211.509115 
L 75.598442 211.509115 
L 75.709392 211.359831 
L 75.789619 211.249663 
L 75.900371 211.116383 
L 76.004666 211.006444 
L 76.004666 211.005339 
L 76.300124 210.759388 
L 76.429772 210.643168 
L 77.535253 209.95572 
L 77.811821 209.845051 
L 77.922677 209.796385 
L 78.230004 209.685527 
L 78.422937 209.624437 
L 79.443842 209.478503 
L 79.554843 209.471958 
L 80.634241 209.361115 
L 80.634241 209.360925 
L 93.127266 208.850574 
L 267.177248 208.961685 
L 267.794013 208.962378 
L 398.486892 209.055003 
L 398.486892 209.055003 
" clip-path="url(#p8ea69bf23f)" style="fill: none; stroke: #e377c2; stroke-width: 1.5; stroke-linecap: square"/>
   </g>
   <g id="line2d_44">
    <path d="M 73.832727 295.488 
L 73.83638 295.488 
L 73.83638 295.488 
L 73.947454 216.347448 
L 74.062793 213.65282 
L 74.129786 213.768479 
L 74.263975 213.719672 
L 74.292519 213.819408 
L 74.715427 214.113483 
L 74.844742 214.002569 
L 75.086394 213.588053 
L 75.173551 213.410244 
L 75.284028 213.20362 
L 75.362972 213.091971 
L 75.598354 212.794704 
L 75.718907 212.629573 
L 75.797972 212.51874 
L 75.909595 212.363688 
L 75.997362 212.253514 
L 75.997362 212.253514 
L 76.107692 212.149309 
L 76.217054 212.038459 
L 77.691585 211.043593 
L 77.920608 210.932854 
L 78.031728 210.880911 
L 78.313366 210.770275 
L 78.313366 210.770275 
L 78.42357 210.730139 
L 78.8458 210.610587 
L 78.8458 210.610587 
L 78.956541 210.583818 
L 79.596577 210.447823 
L 80.163491 210.336751 
L 80.163491 210.336725 
L 80.538912 210.282387 
L 86.977858 209.685659 
L 90.27675 209.537959 
L 96.53571 209.393673 
L 111.054803 209.273679 
L 111.184641 209.272272 
L 170.005962 209.161161 
L 170.005962 209.161161 
L 170.117054 209.161076 
L 180.204051 209.156884 
L 398.486892 209.186512 
L 398.486892 209.186512 
" clip-path="url(#p8ea69bf23f)" style="fill: none; stroke: #7f7f7f; stroke-width: 1.5; stroke-linecap: square"/>
   </g>
   <g id="line2d_45">
    <path d="M 73.832727 295.488 
L 73.835568 295.488 
L 73.835568 295.488 
L 73.860074 210.623257 
L 73.946356 212.388561 
L 73.97314 212.28284 
L 73.97314 212.28284 
L 74.084094 210.270759 
L 74.102191 210.164492 
L 74.102191 210.160223 
L 74.116503 210.140719 
L 74.161004 210.264766 
L 74.168131 210.261721 
L 74.51419 210.151939 
L 74.652169 210.059333 
L 74.75117 209.948464 
L 74.863766 209.77179 
L 74.917479 209.66099 
L 74.917479 209.66099 
L 75.028555 209.469247 
L 75.326138 209.241679 
L 75.326138 209.241679 
L 75.437207 209.177922 
L 75.600414 209.067113 
L 75.712047 209.00866 
L 76.081102 208.929957 
L 79.041766 208.592011 
L 80.525481 208.465664 
L 80.525481 208.465664 
L 80.636499 208.458423 
L 81.188588 208.438118 
L 83.724952 208.430231 
L 83.724952 208.430232 
L 85.147437 208.462478 
L 88.4549 208.573579 
L 88.575697 208.577457 
L 95.290704 208.799362 
L 144.482978 209.018211 
L 398.485674 209.015627 
L 398.485674 209.015627 
" clip-path="url(#p8ea69bf23f)" style="fill: none; stroke: #bcbd22; stroke-width: 1.5; stroke-linecap: square"/>
   </g>
   <g id="line2d_46">
    <path d="M 73.832727 295.488 
L 73.834756 295.488 
L 73.834756 295.488 
L 73.83922 208.250955 
L 73.945735 219.018747 
L 73.986127 219.908273 
L 74.063373 219.491385 
L 74.132221 219.31668 
L 74.38938 216.742635 
L 74.404368 216.631638 
L 74.935025 213.793635 
L 74.962935 213.685031 
L 75.180323 213.046353 
L 75.227525 212.935515 
L 75.35901 212.601099 
L 75.484002 212.288943 
L 75.756592 211.726297 
L 75.866308 211.546816 
L 75.950287 211.436822 
L 75.950287 211.436822 
L 76.061075 211.311157 
L 76.171567 211.200269 
L 76.282959 211.101505 
L 76.416996 210.992303 
L 76.527468 210.898009 
L 76.663715 210.787177 
L 76.663715 210.787177 
L 76.774667 210.702724 
L 76.942405 210.59166 
L 77.985465 210.034778 
L 78.294699 209.911217 
L 78.294699 209.911217 
L 78.405783 209.873257 
L 81.78717 209.564479 
L 81.78717 209.564479 
L 81.8974 209.570032 
L 128.847473 209.458931 
L 128.847473 209.458929 
L 131.190939 209.440186 
L 145.287257 209.329076 
L 145.706963 209.326782 
L 212.771004 209.158802 
L 398.486022 209.133767 
L 398.486022 209.133767 
" clip-path="url(#p8ea69bf23f)" style="fill: none; stroke: #17becf; stroke-width: 1.5; stroke-linecap: square"/>
   </g>
   <g id="line2d_47">
    <path d="M 73.832727 295.488 
L 73.834756 295.488 
L 73.834756 295.488 
L 73.988992 208.60681 
L 74.075018 208.807203 
L 74.83945 208.91812 
L 75.037602 209.121335 
L 75.151636 209.148107 
L 75.524335 209.258804 
L 76.174298 209.357491 
L 76.85343 209.251495 
L 76.965238 209.184023 
L 77.284617 209.030816 
L 78.388283 208.600962 
L 79.25958 208.489871 
L 80.100095 208.461287 
L 84.451177 208.598083 
L 85.128587 208.614571 
L 184.945822 208.725679 
L 200.664311 208.74132 
L 398.487076 208.828194 
L 398.487076 208.828194 
" clip-path="url(#p8ea69bf23f)" style="fill: none; stroke: #1f77b4; stroke-width: 1.5; stroke-linecap: square"/>
   </g>
   <g id="line2d_48">
    <path d="M 73.832727 295.488 
L 73.835162 295.488 
L 73.835162 295.488 
L 73.944327 208.204978 
L 73.95123 208.096574 
L 74.063512 206.470628 
L 74.121074 206.580189 
L 74.232092 206.849366 
L 74.43383 207.261553 
L 74.7911 207.615107 
L 75.225553 207.885334 
L 75.399232 208.005033 
L 75.584239 208.053001 
L 75.954539 208.164095 
L 76.071929 208.177837 
L 77.632838 208.333109 
L 78.493388 208.560519 
L 78.699417 208.62152 
L 79.209634 208.732631 
L 79.209634 208.732631 
L 79.318984 208.753593 
L 79.863186 208.864595 
L 79.863186 208.864595 
L 79.973919 208.88372 
L 81.391091 209.102193 
L 81.391091 209.102193 
L 81.502162 209.122504 
L 81.998179 209.196508 
L 82.959746 209.307523 
L 86.53795 209.53389 
L 112.872034 209.589876 
L 112.872034 209.589876 
L 112.982767 209.588949 
L 228.310268 209.146422 
L 398.485674 209.045073 
L 398.485674 209.045073 
" clip-path="url(#p8ea69bf23f)" style="fill: none; stroke: #ff7f0e; stroke-width: 1.5; stroke-linecap: square"/>
   </g>
   <g id="line2d_49">
    <path d="M 73.832727 295.488 
L 73.834756 295.488 
L 73.834756 295.488 
L 73.835018 200.247222 
L 73.944759 203.845994 
L 73.947815 203.946235 
L 74.097043 208.812101 
L 74.120858 209.1253 
L 74.242155 209.886624 
L 74.248781 209.879207 
L 74.518724 209.760101 
L 74.841334 208.879988 
L 74.901652 208.769274 
L 74.901652 208.769274 
L 75.011223 208.634504 
L 75.195059 208.523432 
L 75.195059 208.523432 
L 75.304224 208.457553 
L 75.750424 208.568007 
L 75.882515 208.629708 
L 76.641345 208.518907 
L 77.085945 208.40561 
L 93.317215 208.516704 
L 100.999416 208.592477 
L 180.843694 208.703588 
L 212.400979 208.745755 
L 398.486798 208.821736 
L 398.486798 208.821736 
" clip-path="url(#p8ea69bf23f)" style="fill: none; stroke: #2ca02c; stroke-width: 1.5; stroke-linecap: square"/>
   </g>
   <g id="line2d_50">
    <path d="M 73.832727 295.488 
L 73.83638 295.488 
L 73.83638 295.488 
L 74.016618 203.326716 
L 74.031178 203.389715 
L 74.04336 203.499753 
L 74.159987 205.206289 
L 74.16996 205.316471 
L 74.397838 207.316077 
L 74.432527 207.426111 
L 74.432527 207.426111 
L 74.541527 207.68371 
L 75.744207 207.82142 
L 76.397589 207.851806 
L 76.397594 207.851758 
L 77.707074 207.961065 
L 77.707074 207.961065 
L 77.817793 207.994334 
L 78.083136 208.045992 
L 81.552574 208.157093 
L 81.663705 208.164848 
L 83.352942 208.275949 
L 87.174947 208.457625 
L 87.286961 208.461972 
L 89.461598 208.573061 
L 89.461598 208.573061 
L 89.570151 208.57883 
L 92.834765 208.689922 
L 95.599106 208.722941 
L 109.506658 208.834052 
L 109.736141 208.835682 
L 120.121169 208.84362 
L 355.326751 208.97385 
L 398.486892 208.976313 
L 398.486892 208.976313 
" clip-path="url(#p8ea69bf23f)" style="fill: none; stroke: #d62728; stroke-width: 1.5; stroke-linecap: square"/>
   </g>
   <g id="line2d_51">
    <path d="M 73.832727 295.488 
L 73.836785 295.488 
L 73.836785 295.488 
L 73.947574 218.371235 
L 74.432121 214.071994 
L 74.534387 213.961692 
L 74.534387 213.961692 
L 74.645379 213.867017 
L 74.776677 213.608664 
L 74.88826 213.415453 
L 74.999049 213.261467 
L 74.999049 213.261467 
L 75.110091 213.077641 
L 75.167869 212.967317 
L 75.167869 212.967187 
L 75.28524 212.781494 
L 76.508675 211.652205 
L 77.529731 211.541111 
L 77.529731 211.541111 
L 77.64052 211.528004 
L 80.122112 211.324615 
L 80.995966 211.220673 
L 81.940657 211.109601 
L 82.271902 211.067306 
L 83.21995 210.956239 
L 83.337765 210.941915 
L 83.734204 210.896396 
L 88.434987 210.593092 
L 92.275424 210.481981 
L 111.663913 210.086591 
L 123.539838 209.97549 
L 123.657601 209.974192 
L 229.353224 209.499445 
L 300.883148 209.388335 
L 300.883148 209.388335 
L 326.64814 209.361178 
L 398.485268 209.320259 
L 398.485268 209.320258 
" clip-path="url(#p8ea69bf23f)" style="fill: none; stroke: #9467bd; stroke-width: 1.5; stroke-linecap: square"/>
   </g>
   <g id="line2d_52">
    <path d="M 73.832727 295.488 
L 73.834756 295.488 
L 73.834756 295.488 
L 73.844377 208.51487 
L 73.94445 215.604078 
L 73.949197 215.462224 
L 74.069579 212.77044 
L 74.703789 208.684115 
L 74.750688 208.575669 
L 74.750688 208.574134 
L 74.901314 208.344328 
L 75.131641 208.22088 
L 77.343087 208.065472 
L 77.343092 208.065617 
L 77.52415 208.11767 
L 78.218144 208.228718 
L 78.355771 208.249115 
L 79.90255 208.375227 
L 82.175682 208.486331 
L 86.630976 208.736289 
L 143.846854 208.827488 
L 366.337161 208.948484 
L 398.485268 208.969318 
L 398.485268 208.969318 
" clip-path="url(#p8ea69bf23f)" style="fill: none; stroke: #8c564b; stroke-width: 1.5; stroke-linecap: square"/>
   </g>
   <g id="line2d_53">
    <path d="M 73.832727 295.488 
L 73.835974 295.488 
L 73.835974 295.488 
L 73.963493 219.57246 
L 73.96481 219.534314 
L 74.076331 214.788217 
L 74.532983 212.158322 
L 74.561171 212.048885 
L 74.561171 212.048885 
L 74.672231 211.656814 
L 74.747758 211.545726 
L 74.747758 211.545703 
L 74.845525 211.397271 
L 75.783629 209.89734 
L 75.943388 209.786881 
L 75.943388 209.786736 
L 76.086135 209.69583 
L 78.316786 208.788487 
L 78.838089 208.677432 
L 78.838089 208.677406 
L 79.157967 208.614199 
L 80.142292 208.501357 
L 80.253583 208.494298 
L 83.099992 208.383222 
L 83.099992 208.383222 
L 83.21098 208.379796 
L 97.621385 208.412267 
L 97.621385 208.412276 
L 105.494139 208.515196 
L 121.708908 208.626307 
L 198.812655 208.7632 
L 398.486243 208.864586 
L 398.486243 208.864586 
" clip-path="url(#p8ea69bf23f)" style="fill: none; stroke: #e377c2; stroke-width: 1.5; stroke-linecap: square"/>
   </g>
   <g id="line2d_54">
    <path d="M 73.832727 295.488 
L 73.83638 295.488 
L 73.83638 295.488 
L 73.967221 208.435495 
L 73.994935 207.873839 
L 74.06693 208.668871 
L 74.082538 208.775365 
L 74.253831 209.304344 
L 74.276441 209.263494 
L 74.397793 208.985341 
L 74.680032 209.096107 
L 74.852539 209.19699 
L 74.852572 209.196785 
L 75.921879 209.085812 
L 75.921879 209.085812 
L 76.032632 209.065973 
L 77.050054 209.091338 
L 77.050054 209.091338 
L 77.160806 209.125604 
L 82.943525 209.236667 
L 83.69896 209.252357 
L 101.093928 209.141276 
L 102.013556 209.127206 
L 184.407233 209.020357 
L 184.407233 209.020358 
L 398.486219 209.073374 
L 398.486219 209.073374 
" clip-path="url(#p8ea69bf23f)" style="fill: none; stroke: #7f7f7f; stroke-width: 1.5; stroke-linecap: square"/>
   </g>
   <g id="line2d_55">
    <path d="M 73.832727 295.488 
L 73.833539 295.488 
L 73.833539 53.568 
L 73.944327 213.096033 
L 73.950009 213.015735 
L 73.950009 213.015735 
L 74.060391 210.007974 
L 74.082197 209.897949 
L 74.191065 209.563665 
L 74.212159 209.625399 
L 74.249908 209.750957 
L 74.249908 209.750957 
L 74.360697 209.948284 
L 74.398853 210.070914 
L 74.510356 210.583861 
L 74.532358 210.693374 
L 74.532358 210.693374 
L 74.642997 211.121993 
L 74.716599 211.269724 
L 74.716599 211.269724 
L 74.826678 211.469866 
L 74.935808 211.624983 
L 75.047245 211.733047 
L 75.263213 211.914728 
L 75.444569 212.045589 
L 75.568278 212.111218 
L 76.298479 212.000859 
L 76.298479 212.000859 
L 76.409421 211.937778 
L 77.037068 211.484439 
L 77.037068 211.484439 
L 77.147272 211.408106 
L 77.345591 211.298072 
L 77.489555 211.22422 
L 77.700175 211.113275 
L 77.700175 211.113275 
L 77.811079 211.057266 
L 78.345426 210.802359 
L 79.218747 210.431518 
L 79.218747 210.431518 
L 79.329129 210.381877 
L 79.574514 210.270898 
L 79.689221 210.219188 
L 79.820169 210.165218 
L 80.15781 210.054391 
L 80.15781 210.054391 
L 80.26817 210.022885 
L 80.773971 209.911789 
L 80.898345 209.888703 
L 82.377458 209.703872 
L 82.491591 209.693655 
L 83.886922 209.5826 
L 84.070672 209.56666 
L 86.100332 209.455564 
L 101.702793 209.074584 
L 125.87242 208.963473 
L 125.87242 208.963473 
L 125.982397 208.963148 
L 177.954046 208.985875 
L 314.316161 209.096986 
L 335.024612 209.106068 
L 398.487273 209.128131 
L 398.487273 209.128131 
" clip-path="url(#p8ea69bf23f)" style="fill: none; stroke: #bcbd22; stroke-width: 1.5; stroke-linecap: square"/>
   </g>
   <g id="line2d_56">
    <path d="M 73.832727 295.488 
L 73.833945 295.488 
L 73.833945 295.488 
L 73.972483 224.907921 
L 73.973217 224.906295 
L 74.084543 218.48343 
L 74.086727 218.407886 
L 74.197558 215.783448 
L 74.222719 215.490751 
L 74.338283 214.173888 
L 74.351048 214.065299 
L 74.462986 213.162663 
L 74.47855 213.056847 
L 74.623779 211.910091 
L 74.640439 211.806024 
L 74.759642 211.159524 
L 74.783559 211.053339 
L 74.783559 211.048634 
L 74.826576 210.889203 
L 74.826576 210.889203 
L 74.93728 210.518025 
L 74.976323 210.411589 
L 74.976323 210.411589 
L 75.087428 210.158957 
L 75.208357 209.978029 
L 75.310278 209.867057 
L 75.695839 209.539364 
L 75.815578 209.443809 
L 77.323448 209.330099 
L 77.43477 209.345057 
L 81.111483 209.23397 
L 81.111483 209.233959 
L 82.543984 209.217059 
L 85.572187 209.328147 
L 87.089591 209.390574 
L 91.185779 209.501685 
L 93.347492 209.545983 
L 99.758566 209.657093 
L 100.349202 209.666977 
L 202.98275 209.55587 
L 202.98275 209.55587 
L 207.417582 209.545275 
L 279.538829 209.434165 
L 280.90147 209.432464 
L 398.487009 209.341676 
L 398.487009 209.341676 
" clip-path="url(#p8ea69bf23f)" style="fill: none; stroke: #17becf; stroke-width: 1.5; stroke-linecap: square"/>
   </g>
   <g id="patch_3">
    <path d="M 57.6 307.584 
L 57.6 41.472 
" style="fill: none; stroke: #000000; stroke-width: 0.8; stroke-linejoin: miter; stroke-linecap: square"/>
   </g>
   <g id="patch_4">
    <path d="M 414.72 307.584 
L 414.72 41.472 
" style="fill: none; stroke: #000000; stroke-width: 0.8; stroke-linejoin: miter; stroke-linecap: square"/>
   </g>
   <g id="patch_5">
    <path d="M 57.6 307.584 
L 414.72 307.584 
" style="fill: none; stroke: #000000; stroke-width: 0.8; stroke-linejoin: miter; stroke-linecap: square"/>
   </g>
   <g id="patch_6">
    <path d="M 57.6 41.472 
L 414.72 41.472 
" style="fill: none; stroke: #000000; stroke-width: 0.8; stroke-linejoin: miter; stroke-linecap: square"/>
   </g>
   <g id="text_21">
    <!-- processorsLoadMean vs. TimePoint for Each Run -->
    <g transform="translate(91.08375 35.472) scale(0.12 -0.12)">
     <defs>
      <path id="DejaVuSans-20" transform="scale(0.015625)"/>
      <path id="DejaVuSans-76" d="M 191 3500 
L 800 3500 
L 1894 563 
L 2988 3500 
L 3597 3500 
L 2284 0 
L 1503 0 
L 191 3500 
z
" transform="scale(0.015625)"/>
      <path id="DejaVuSans-66" d="M 2375 4863 
L 2375 4384 
L 1825 4384 
Q 1516 4384 1395 4259 
Q 1275 4134 1275 3809 
L 1275 3500 
L 2222 3500 
L 2222 3053 
L 1275 3053 
L 1275 0 
L 697 0 
L 697 3053 
L 147 3053 
L 147 3500 
L 697 3500 
L 697 3744 
Q 697 4328 969 4595 
Q 1241 4863 1831 4863 
L 2375 4863 
z
" transform="scale(0.015625)"/>
      <path id="DejaVuSans-45" d="M 628 4666 
L 3578 4666 
L 3578 4134 
L 1259 4134 
L 1259 2753 
L 3481 2753 
L 3481 2222 
L 1259 2222 
L 1259 531 
L 3634 531 
L 3634 0 
L 628 0 
L 628 4666 
z
" transform="scale(0.015625)"/>
      <path id="DejaVuSans-68" d="M 3513 2113 
L 3513 0 
L 2938 0 
L 2938 2094 
Q 2938 2591 2744 2837 
Q 2550 3084 2163 3084 
Q 1697 3084 1428 2787 
Q 1159 2491 1159 1978 
L 1159 0 
L 581 0 
L 581 4863 
L 1159 4863 
L 1159 2956 
Q 1366 3272 1645 3428 
Q 1925 3584 2291 3584 
Q 2894 3584 3203 3211 
Q 3513 2838 3513 2113 
z
" transform="scale(0.015625)"/>
      <path id="DejaVuSans-52" d="M 2841 2188 
Q 3044 2119 3236 1894 
Q 3428 1669 3622 1275 
L 4263 0 
L 3584 0 
L 2988 1197 
Q 2756 1666 2539 1819 
Q 2322 1972 1947 1972 
L 1259 1972 
L 1259 0 
L 628 0 
L 628 4666 
L 2053 4666 
Q 2853 4666 3247 4331 
Q 3641 3997 3641 3322 
Q 3641 2881 3436 2590 
Q 3231 2300 2841 2188 
z
M 1259 4147 
L 1259 2491 
L 2053 2491 
Q 2509 2491 2742 2702 
Q 2975 2913 2975 3322 
Q 2975 3731 2742 3939 
Q 2509 4147 2053 4147 
L 1259 4147 
z
" transform="scale(0.015625)"/>
      <path id="DejaVuSans-75" d="M 544 1381 
L 544 3500 
L 1119 3500 
L 1119 1403 
Q 1119 906 1312 657 
Q 1506 409 1894 409 
Q 2359 409 2629 706 
Q 2900 1003 2900 1516 
L 2900 3500 
L 3475 3500 
L 3475 0 
L 2900 0 
L 2900 538 
Q 2691 219 2414 64 
Q 2138 -91 1772 -91 
Q 1169 -91 856 284 
Q 544 659 544 1381 
z
M 1991 3584 
L 1991 3584 
z
" transform="scale(0.015625)"/>
     </defs>
     <use xlink:href="#DejaVuSans-70"/>
     <use xlink:href="#DejaVuSans-72" x="63.476562"/>
     <use xlink:href="#DejaVuSans-6f" x="102.339844"/>
     <use xlink:href="#DejaVuSans-63" x="163.521484"/>
     <use xlink:href="#DejaVuSans-65" x="218.501953"/>
     <use xlink:href="#DejaVuSans-73" x="280.025391"/>
     <use xlink:href="#DejaVuSans-73" x="332.125"/>
     <use xlink:href="#DejaVuSans-6f" x="384.224609"/>
     <use xlink:href="#DejaVuSans-72" x="445.40625"/>
     <use xlink:href="#DejaVuSans-73" x="486.519531"/>
     <use xlink:href="#DejaVuSans-4c" x="538.619141"/>
     <use xlink:href="#DejaVuSans-6f" x="592.582031"/>
     <use xlink:href="#DejaVuSans-61" x="653.763672"/>
     <use xlink:href="#DejaVuSans-64" x="715.042969"/>
     <use xlink:href="#DejaVuSans-4d" x="778.519531"/>
     <use xlink:href="#DejaVuSans-65" x="864.798828"/>
     <use xlink:href="#DejaVuSans-61" x="926.322266"/>
     <use xlink:href="#DejaVuSans-6e" x="987.601562"/>
     <use xlink:href="#DejaVuSans-20" x="1050.980469"/>
     <use xlink:href="#DejaVuSans-76" x="1082.767578"/>
     <use xlink:href="#DejaVuSans-73" x="1141.947266"/>
     <use xlink:href="#DejaVuSans-2e" x="1194.046875"/>
     <use xlink:href="#DejaVuSans-20" x="1225.833984"/>
     <use xlink:href="#DejaVuSans-54" x="1257.621094"/>
     <use xlink:href="#DejaVuSans-69" x="1315.580078"/>
     <use xlink:href="#DejaVuSans-6d" x="1343.363281"/>
     <use xlink:href="#DejaVuSans-65" x="1440.775391"/>
     <use xlink:href="#DejaVuSans-50" x="1502.298828"/>
     <use xlink:href="#DejaVuSans-6f" x="1558.976562"/>
     <use xlink:href="#DejaVuSans-69" x="1620.158203"/>
     <use xlink:href="#DejaVuSans-6e" x="1647.941406"/>
     <use xlink:href="#DejaVuSans-74" x="1711.320312"/>
     <use xlink:href="#DejaVuSans-20" x="1750.529297"/>
     <use xlink:href="#DejaVuSans-66" x="1782.316406"/>
     <use xlink:href="#DejaVuSans-6f" x="1817.521484"/>
     <use xlink:href="#DejaVuSans-72" x="1878.703125"/>
     <use xlink:href="#DejaVuSans-20" x="1919.816406"/>
     <use xlink:href="#DejaVuSans-45" x="1951.603516"/>
     <use xlink:href="#DejaVuSans-61" x="2014.787109"/>
     <use xlink:href="#DejaVuSans-63" x="2076.066406"/>
     <use xlink:href="#DejaVuSans-68" x="2131.046875"/>
     <use xlink:href="#DejaVuSans-20" x="2194.425781"/>
     <use xlink:href="#DejaVuSans-52" x="2226.212891"/>
     <use xlink:href="#DejaVuSans-75" x="2291.195312"/>
     <use xlink:href="#DejaVuSans-6e" x="2354.574219"/>
    </g>
   </g>
   <g id="legend_1">
    <g id="patch_7">
     <path d="M 340.643438 357.712625 
L 407.72 357.712625 
Q 409.72 357.712625 409.72 355.712625 
L 409.72 48.472 
Q 409.72 46.472 407.72 46.472 
L 340.643438 46.472 
Q 338.643438 46.472 338.643438 48.472 
L 338.643438 355.712625 
Q 338.643438 357.712625 340.643438 357.712625 
z
" style="fill: #ffffff; opacity: 0.8; stroke: #cccccc; stroke-linejoin: miter"/>
    </g>
    <g id="text_22">
     <!-- Run Number -->
     <g transform="translate(342.92 58.070437) scale(0.1 -0.1)">
      <defs>
       <path id="DejaVuSans-4e" d="M 628 4666 
L 1478 4666 
L 3547 763 
L 3547 4666 
L 4159 4666 
L 4159 0 
L 3309 0 
L 1241 3903 
L 1241 0 
L 628 0 
L 628 4666 
z
" transform="scale(0.015625)"/>
       <path id="DejaVuSans-62" d="M 3116 1747 
Q 3116 2381 2855 2742 
Q 2594 3103 2138 3103 
Q 1681 3103 1420 2742 
Q 1159 2381 1159 1747 
Q 1159 1113 1420 752 
Q 1681 391 2138 391 
Q 2594 391 2855 752 
Q 3116 1113 3116 1747 
z
M 1159 2969 
Q 1341 3281 1617 3432 
Q 1894 3584 2278 3584 
Q 2916 3584 3314 3078 
Q 3713 2572 3713 1747 
Q 3713 922 3314 415 
Q 2916 -91 2278 -91 
Q 1894 -91 1617 61 
Q 1341 213 1159 525 
L 1159 0 
L 581 0 
L 581 4863 
L 1159 4863 
L 1159 2969 
z
" transform="scale(0.015625)"/>
      </defs>
      <use xlink:href="#DejaVuSans-52"/>
      <use xlink:href="#DejaVuSans-75" x="64.982422"/>
      <use xlink:href="#DejaVuSans-6e" x="128.361328"/>
      <use xlink:href="#DejaVuSans-20" x="191.740234"/>
      <use xlink:href="#DejaVuSans-4e" x="223.527344"/>
      <use xlink:href="#DejaVuSans-75" x="298.332031"/>
      <use xlink:href="#DejaVuSans-6d" x="361.710938"/>
      <use xlink:href="#DejaVuSans-62" x="459.123047"/>
      <use xlink:href="#DejaVuSans-65" x="522.599609"/>
      <use xlink:href="#DejaVuSans-72" x="584.123047"/>
     </g>
    </g>
    <g id="line2d_57">
     <path d="M 342.643438 69.248562 
L 352.643438 69.248562 
L 362.643438 69.248562 
" style="fill: none; stroke: #1f77b4; stroke-width: 1.5; stroke-linecap: square"/>
    </g>
    <g id="text_23">
     <!-- Run 0 -->
     <g transform="translate(370.643438 72.748562) scale(0.1 -0.1)">
      <use xlink:href="#DejaVuSans-52"/>
      <use xlink:href="#DejaVuSans-75" x="64.982422"/>
      <use xlink:href="#DejaVuSans-6e" x="128.361328"/>
      <use xlink:href="#DejaVuSans-20" x="191.740234"/>
      <use xlink:href="#DejaVuSans-30" x="223.527344"/>
     </g>
    </g>
    <g id="line2d_58">
     <path d="M 342.643438 83.926688 
L 352.643438 83.926688 
L 362.643438 83.926688 
" style="fill: none; stroke: #ff7f0e; stroke-width: 1.5; stroke-linecap: square"/>
    </g>
    <g id="text_24">
     <!-- Run 1 -->
     <g transform="translate(370.643438 87.426688) scale(0.1 -0.1)">
      <use xlink:href="#DejaVuSans-52"/>
      <use xlink:href="#DejaVuSans-75" x="64.982422"/>
      <use xlink:href="#DejaVuSans-6e" x="128.361328"/>
      <use xlink:href="#DejaVuSans-20" x="191.740234"/>
      <use xlink:href="#DejaVuSans-31" x="223.527344"/>
     </g>
    </g>
    <g id="line2d_59">
     <path d="M 342.643438 98.604813 
L 352.643438 98.604813 
L 362.643438 98.604813 
" style="fill: none; stroke: #2ca02c; stroke-width: 1.5; stroke-linecap: square"/>
    </g>
    <g id="text_25">
     <!-- Run 2 -->
     <g transform="translate(370.643438 102.104813) scale(0.1 -0.1)">
      <use xlink:href="#DejaVuSans-52"/>
      <use xlink:href="#DejaVuSans-75" x="64.982422"/>
      <use xlink:href="#DejaVuSans-6e" x="128.361328"/>
      <use xlink:href="#DejaVuSans-20" x="191.740234"/>
      <use xlink:href="#DejaVuSans-32" x="223.527344"/>
     </g>
    </g>
    <g id="line2d_60">
     <path d="M 342.643438 113.282938 
L 352.643438 113.282938 
L 362.643438 113.282938 
" style="fill: none; stroke: #d62728; stroke-width: 1.5; stroke-linecap: square"/>
    </g>
    <g id="text_26">
     <!-- Run 3 -->
     <g transform="translate(370.643438 116.782938) scale(0.1 -0.1)">
      <use xlink:href="#DejaVuSans-52"/>
      <use xlink:href="#DejaVuSans-75" x="64.982422"/>
      <use xlink:href="#DejaVuSans-6e" x="128.361328"/>
      <use xlink:href="#DejaVuSans-20" x="191.740234"/>
      <use xlink:href="#DejaVuSans-33" x="223.527344"/>
     </g>
    </g>
    <g id="line2d_61">
     <path d="M 342.643438 127.961063 
L 352.643438 127.961063 
L 362.643438 127.961063 
" style="fill: none; stroke: #9467bd; stroke-width: 1.5; stroke-linecap: square"/>
    </g>
    <g id="text_27">
     <!-- Run 4 -->
     <g transform="translate(370.643438 131.461063) scale(0.1 -0.1)">
      <use xlink:href="#DejaVuSans-52"/>
      <use xlink:href="#DejaVuSans-75" x="64.982422"/>
      <use xlink:href="#DejaVuSans-6e" x="128.361328"/>
      <use xlink:href="#DejaVuSans-20" x="191.740234"/>
      <use xlink:href="#DejaVuSans-34" x="223.527344"/>
     </g>
    </g>
    <g id="line2d_62">
     <path d="M 342.643438 142.639187 
L 352.643438 142.639187 
L 362.643438 142.639187 
" style="fill: none; stroke: #8c564b; stroke-width: 1.5; stroke-linecap: square"/>
    </g>
    <g id="text_28">
     <!-- Run 5 -->
     <g transform="translate(370.643438 146.139187) scale(0.1 -0.1)">
      <use xlink:href="#DejaVuSans-52"/>
      <use xlink:href="#DejaVuSans-75" x="64.982422"/>
      <use xlink:href="#DejaVuSans-6e" x="128.361328"/>
      <use xlink:href="#DejaVuSans-20" x="191.740234"/>
      <use xlink:href="#DejaVuSans-35" x="223.527344"/>
     </g>
    </g>
    <g id="line2d_63">
     <path d="M 342.643438 157.317313 
L 352.643438 157.317313 
L 362.643438 157.317313 
" style="fill: none; stroke: #e377c2; stroke-width: 1.5; stroke-linecap: square"/>
    </g>
    <g id="text_29">
     <!-- Run 6 -->
     <g transform="translate(370.643438 160.817313) scale(0.1 -0.1)">
      <use xlink:href="#DejaVuSans-52"/>
      <use xlink:href="#DejaVuSans-75" x="64.982422"/>
      <use xlink:href="#DejaVuSans-6e" x="128.361328"/>
      <use xlink:href="#DejaVuSans-20" x="191.740234"/>
      <use xlink:href="#DejaVuSans-36" x="223.527344"/>
     </g>
    </g>
    <g id="line2d_64">
     <path d="M 342.643438 171.995437 
L 352.643438 171.995437 
L 362.643438 171.995437 
" style="fill: none; stroke: #7f7f7f; stroke-width: 1.5; stroke-linecap: square"/>
    </g>
    <g id="text_30">
     <!-- Run 7 -->
     <g transform="translate(370.643438 175.495437) scale(0.1 -0.1)">
      <use xlink:href="#DejaVuSans-52"/>
      <use xlink:href="#DejaVuSans-75" x="64.982422"/>
      <use xlink:href="#DejaVuSans-6e" x="128.361328"/>
      <use xlink:href="#DejaVuSans-20" x="191.740234"/>
      <use xlink:href="#DejaVuSans-37" x="223.527344"/>
     </g>
    </g>
    <g id="line2d_65">
     <path d="M 342.643438 186.673563 
L 352.643438 186.673563 
L 362.643438 186.673563 
" style="fill: none; stroke: #bcbd22; stroke-width: 1.5; stroke-linecap: square"/>
    </g>
    <g id="text_31">
     <!-- Run 8 -->
     <g transform="translate(370.643438 190.173563) scale(0.1 -0.1)">
      <use xlink:href="#DejaVuSans-52"/>
      <use xlink:href="#DejaVuSans-75" x="64.982422"/>
      <use xlink:href="#DejaVuSans-6e" x="128.361328"/>
      <use xlink:href="#DejaVuSans-20" x="191.740234"/>
      <use xlink:href="#DejaVuSans-38" x="223.527344"/>
     </g>
    </g>
    <g id="line2d_66">
     <path d="M 342.643438 201.351687 
L 352.643438 201.351687 
L 362.643438 201.351687 
" style="fill: none; stroke: #17becf; stroke-width: 1.5; stroke-linecap: square"/>
    </g>
    <g id="text_32">
     <!-- Run 9 -->
     <g transform="translate(370.643438 204.851687) scale(0.1 -0.1)">
      <defs>
       <path id="DejaVuSans-39" d="M 703 97 
L 703 672 
Q 941 559 1184 500 
Q 1428 441 1663 441 
Q 2288 441 2617 861 
Q 2947 1281 2994 2138 
Q 2813 1869 2534 1725 
Q 2256 1581 1919 1581 
Q 1219 1581 811 2004 
Q 403 2428 403 3163 
Q 403 3881 828 4315 
Q 1253 4750 1959 4750 
Q 2769 4750 3195 4129 
Q 3622 3509 3622 2328 
Q 3622 1225 3098 567 
Q 2575 -91 1691 -91 
Q 1453 -91 1209 -44 
Q 966 3 703 97 
z
M 1959 2075 
Q 2384 2075 2632 2365 
Q 2881 2656 2881 3163 
Q 2881 3666 2632 3958 
Q 2384 4250 1959 4250 
Q 1534 4250 1286 3958 
Q 1038 3666 1038 3163 
Q 1038 2656 1286 2365 
Q 1534 2075 1959 2075 
z
" transform="scale(0.015625)"/>
      </defs>
      <use xlink:href="#DejaVuSans-52"/>
      <use xlink:href="#DejaVuSans-75" x="64.982422"/>
      <use xlink:href="#DejaVuSans-6e" x="128.361328"/>
      <use xlink:href="#DejaVuSans-20" x="191.740234"/>
      <use xlink:href="#DejaVuSans-39" x="223.527344"/>
     </g>
    </g>
    <g id="line2d_67">
     <path d="M 342.643438 216.029812 
L 352.643438 216.029812 
L 362.643438 216.029812 
" style="fill: none; stroke: #1f77b4; stroke-width: 1.5; stroke-linecap: square"/>
    </g>
    <g id="text_33">
     <!-- Run 10 -->
     <g transform="translate(370.643438 219.529812) scale(0.1 -0.1)">
      <use xlink:href="#DejaVuSans-52"/>
      <use xlink:href="#DejaVuSans-75" x="64.982422"/>
      <use xlink:href="#DejaVuSans-6e" x="128.361328"/>
      <use xlink:href="#DejaVuSans-20" x="191.740234"/>
      <use xlink:href="#DejaVuSans-31" x="223.527344"/>
      <use xlink:href="#DejaVuSans-30" x="287.150391"/>
     </g>
    </g>
    <g id="line2d_68">
     <path d="M 342.643438 230.707937 
L 352.643438 230.707937 
L 362.643438 230.707937 
" style="fill: none; stroke: #ff7f0e; stroke-width: 1.5; stroke-linecap: square"/>
    </g>
    <g id="text_34">
     <!-- Run 11 -->
     <g transform="translate(370.643438 234.207937) scale(0.1 -0.1)">
      <use xlink:href="#DejaVuSans-52"/>
      <use xlink:href="#DejaVuSans-75" x="64.982422"/>
      <use xlink:href="#DejaVuSans-6e" x="128.361328"/>
      <use xlink:href="#DejaVuSans-20" x="191.740234"/>
      <use xlink:href="#DejaVuSans-31" x="223.527344"/>
      <use xlink:href="#DejaVuSans-31" x="287.150391"/>
     </g>
    </g>
    <g id="line2d_69">
     <path d="M 342.643438 245.386062 
L 352.643438 245.386062 
L 362.643438 245.386062 
" style="fill: none; stroke: #2ca02c; stroke-width: 1.5; stroke-linecap: square"/>
    </g>
    <g id="text_35">
     <!-- Run 12 -->
     <g transform="translate(370.643438 248.886062) scale(0.1 -0.1)">
      <use xlink:href="#DejaVuSans-52"/>
      <use xlink:href="#DejaVuSans-75" x="64.982422"/>
      <use xlink:href="#DejaVuSans-6e" x="128.361328"/>
      <use xlink:href="#DejaVuSans-20" x="191.740234"/>
      <use xlink:href="#DejaVuSans-31" x="223.527344"/>
      <use xlink:href="#DejaVuSans-32" x="287.150391"/>
     </g>
    </g>
    <g id="line2d_70">
     <path d="M 342.643438 260.064187 
L 352.643438 260.064187 
L 362.643438 260.064187 
" style="fill: none; stroke: #d62728; stroke-width: 1.5; stroke-linecap: square"/>
    </g>
    <g id="text_36">
     <!-- Run 13 -->
     <g transform="translate(370.643438 263.564187) scale(0.1 -0.1)">
      <use xlink:href="#DejaVuSans-52"/>
      <use xlink:href="#DejaVuSans-75" x="64.982422"/>
      <use xlink:href="#DejaVuSans-6e" x="128.361328"/>
      <use xlink:href="#DejaVuSans-20" x="191.740234"/>
      <use xlink:href="#DejaVuSans-31" x="223.527344"/>
      <use xlink:href="#DejaVuSans-33" x="287.150391"/>
     </g>
    </g>
    <g id="line2d_71">
     <path d="M 342.643438 274.742312 
L 352.643438 274.742312 
L 362.643438 274.742312 
" style="fill: none; stroke: #9467bd; stroke-width: 1.5; stroke-linecap: square"/>
    </g>
    <g id="text_37">
     <!-- Run 14 -->
     <g transform="translate(370.643438 278.242312) scale(0.1 -0.1)">
      <use xlink:href="#DejaVuSans-52"/>
      <use xlink:href="#DejaVuSans-75" x="64.982422"/>
      <use xlink:href="#DejaVuSans-6e" x="128.361328"/>
      <use xlink:href="#DejaVuSans-20" x="191.740234"/>
      <use xlink:href="#DejaVuSans-31" x="223.527344"/>
      <use xlink:href="#DejaVuSans-34" x="287.150391"/>
     </g>
    </g>
    <g id="line2d_72">
     <path d="M 342.643438 289.420437 
L 352.643438 289.420437 
L 362.643438 289.420437 
" style="fill: none; stroke: #8c564b; stroke-width: 1.5; stroke-linecap: square"/>
    </g>
    <g id="text_38">
     <!-- Run 15 -->
     <g transform="translate(370.643438 292.920437) scale(0.1 -0.1)">
      <use xlink:href="#DejaVuSans-52"/>
      <use xlink:href="#DejaVuSans-75" x="64.982422"/>
      <use xlink:href="#DejaVuSans-6e" x="128.361328"/>
      <use xlink:href="#DejaVuSans-20" x="191.740234"/>
      <use xlink:href="#DejaVuSans-31" x="223.527344"/>
      <use xlink:href="#DejaVuSans-35" x="287.150391"/>
     </g>
    </g>
    <g id="line2d_73">
     <path d="M 342.643438 304.098562 
L 352.643438 304.098562 
L 362.643438 304.098562 
" style="fill: none; stroke: #e377c2; stroke-width: 1.5; stroke-linecap: square"/>
    </g>
    <g id="text_39">
     <!-- Run 16 -->
     <g transform="translate(370.643438 307.598562) scale(0.1 -0.1)">
      <use xlink:href="#DejaVuSans-52"/>
      <use xlink:href="#DejaVuSans-75" x="64.982422"/>
      <use xlink:href="#DejaVuSans-6e" x="128.361328"/>
      <use xlink:href="#DejaVuSans-20" x="191.740234"/>
      <use xlink:href="#DejaVuSans-31" x="223.527344"/>
      <use xlink:href="#DejaVuSans-36" x="287.150391"/>
     </g>
    </g>
    <g id="line2d_74">
     <path d="M 342.643438 318.776687 
L 352.643438 318.776687 
L 362.643438 318.776687 
" style="fill: none; stroke: #7f7f7f; stroke-width: 1.5; stroke-linecap: square"/>
    </g>
    <g id="text_40">
     <!-- Run 17 -->
     <g transform="translate(370.643438 322.276687) scale(0.1 -0.1)">
      <use xlink:href="#DejaVuSans-52"/>
      <use xlink:href="#DejaVuSans-75" x="64.982422"/>
      <use xlink:href="#DejaVuSans-6e" x="128.361328"/>
      <use xlink:href="#DejaVuSans-20" x="191.740234"/>
      <use xlink:href="#DejaVuSans-31" x="223.527344"/>
      <use xlink:href="#DejaVuSans-37" x="287.150391"/>
     </g>
    </g>
    <g id="line2d_75">
     <path d="M 342.643438 333.454812 
L 352.643438 333.454812 
L 362.643438 333.454812 
" style="fill: none; stroke: #bcbd22; stroke-width: 1.5; stroke-linecap: square"/>
    </g>
    <g id="text_41">
     <!-- Run 18 -->
     <g transform="translate(370.643438 336.954812) scale(0.1 -0.1)">
      <use xlink:href="#DejaVuSans-52"/>
      <use xlink:href="#DejaVuSans-75" x="64.982422"/>
      <use xlink:href="#DejaVuSans-6e" x="128.361328"/>
      <use xlink:href="#DejaVuSans-20" x="191.740234"/>
      <use xlink:href="#DejaVuSans-31" x="223.527344"/>
      <use xlink:href="#DejaVuSans-38" x="287.150391"/>
     </g>
    </g>
    <g id="line2d_76">
     <path style="fill: none; stroke: #17becf; stroke-width: 1.5; stroke-linecap: square"/>
    </g>
    <g id="text_42">
     <!-- Run 19 -->
     <g transform="translate(370.643438 351.632937) scale(0.1 -0.1)">
      <use xlink:href="#DejaVuSans-52"/>
      <use xlink:href="#DejaVuSans-75" x="64.982422"/>
      <use xlink:href="#DejaVuSans-6e" x="128.361328"/>
      <use xlink:href="#DejaVuSans-20" x="191.740234"/>
      <use xlink:href="#DejaVuSans-31" x="223.527344"/>
      <use xlink:href="#DejaVuSans-39" x="287.150391"/>
     </g>
    </g>
   </g>
  </g>
 </g>
 <defs>
  <clipPath id="p8ea69bf23f">
   <rect x="57.6" y="41.472" width="357.12" height="266.112"/>
  </clipPath>
 </defs>
</svg>
