<?xml version="1.0" encoding="utf-8" standalone="no"?>
<!DOCTYPE svg PUBLIC "-//W3C//DTD SVG 1.1//EN"
  "http://www.w3.org/Graphics/SVG/1.1/DTD/svg11.dtd">
<svg xmlns:xlink="http://www.w3.org/1999/xlink" width="460.8pt" height="345.6pt" viewBox="0 0 460.8 345.6" xmlns="http://www.w3.org/2000/svg" version="1.1">
 <metadata>
  <rdf:RDF xmlns:dc="http://purl.org/dc/elements/1.1/" xmlns:cc="http://creativecommons.org/ns#" xmlns:rdf="http://www.w3.org/1999/02/22-rdf-syntax-ns#">
   <cc:Work>
    <dc:type rdf:resource="http://purl.org/dc/dcmitype/StillImage"/>
    <dc:date>2024-12-03T12:49:01.488305</dc:date>
    <dc:format>image/svg+xml</dc:format>
    <dc:creator>
     <cc:Agent>
      <dc:title>Matplotlib v3.9.2, https://matplotlib.org/</dc:title>
     </cc:Agent>
    </dc:creator>
   </cc:Work>
  </rdf:RDF>
 </metadata>
 <defs>
  <style type="text/css">*{stroke-linejoin: round; stroke-linecap: butt}</style>
 </defs>
 <g id="figure_1">
  <g id="patch_1">
   <path d="M 0 345.6 
L 460.8 345.6 
L 460.8 0 
L 0 0 
z
" style="fill: #ffffff"/>
  </g>
  <g id="axes_1">
   <g id="patch_2">
    <path d="M 57.6 307.584 
L 414.72 307.584 
L 414.72 41.472 
L 57.6 41.472 
z
" style="fill: #ffffff"/>
   </g>
   <g id="matplotlib.axis_1">
    <g id="xtick_1">
     <g id="line2d_1">
      <path d="M 73.832727 307.584 
L 73.832727 41.472 
" clip-path="url(#p0d9385234e)" style="fill: none; stroke: #b0b0b0; stroke-width: 0.8; stroke-linecap: square"/>
     </g>
     <g id="line2d_2">
      <defs>
       <path id="m49a37d97f3" d="M 0 0 
L 0 3.5 
" style="stroke: #000000; stroke-width: 0.8"/>
      </defs>
      <g>
       <use xlink:href="#m49a37d97f3" x="73.832727" y="307.584" style="stroke: #000000; stroke-width: 0.8"/>
      </g>
     </g>
     <g id="text_1">
      <!-- 0 -->
      <g transform="translate(70.651477 322.182437) scale(0.1 -0.1)">
       <defs>
        <path id="DejaVuSans-30" d="M 2034 4250 
Q 1547 4250 1301 3770 
Q 1056 3291 1056 2328 
Q 1056 1369 1301 889 
Q 1547 409 2034 409 
Q 2525 409 2770 889 
Q 3016 1369 3016 2328 
Q 3016 3291 2770 3770 
Q 2525 4250 2034 4250 
z
M 2034 4750 
Q 2819 4750 3233 4129 
Q 3647 3509 3647 2328 
Q 3647 1150 3233 529 
Q 2819 -91 2034 -91 
Q 1250 -91 836 529 
Q 422 1150 422 2328 
Q 422 3509 836 4129 
Q 1250 4750 2034 4750 
z
" transform="scale(0.015625)"/>
       </defs>
       <use xlink:href="#DejaVuSans-30"/>
      </g>
     </g>
    </g>
    <g id="xtick_2">
     <g id="line2d_3">
      <path d="M 114.41458 307.584 
L 114.41458 41.472 
" clip-path="url(#p0d9385234e)" style="fill: none; stroke: #b0b0b0; stroke-width: 0.8; stroke-linecap: square"/>
     </g>
     <g id="line2d_4">
      <g>
       <use xlink:href="#m49a37d97f3" x="114.41458" y="307.584" style="stroke: #000000; stroke-width: 0.8"/>
      </g>
     </g>
     <g id="text_2">
      <!-- 100000 -->
      <g transform="translate(95.32708 322.182437) scale(0.1 -0.1)">
       <defs>
        <path id="DejaVuSans-31" d="M 794 531 
L 1825 531 
L 1825 4091 
L 703 3866 
L 703 4441 
L 1819 4666 
L 2450 4666 
L 2450 531 
L 3481 531 
L 3481 0 
L 794 0 
L 794 531 
z
" transform="scale(0.015625)"/>
       </defs>
       <use xlink:href="#DejaVuSans-31"/>
       <use xlink:href="#DejaVuSans-30" x="63.623047"/>
       <use xlink:href="#DejaVuSans-30" x="127.246094"/>
       <use xlink:href="#DejaVuSans-30" x="190.869141"/>
       <use xlink:href="#DejaVuSans-30" x="254.492188"/>
       <use xlink:href="#DejaVuSans-30" x="318.115234"/>
      </g>
     </g>
    </g>
    <g id="xtick_3">
     <g id="line2d_5">
      <path d="M 154.996433 307.584 
L 154.996433 41.472 
" clip-path="url(#p0d9385234e)" style="fill: none; stroke: #b0b0b0; stroke-width: 0.8; stroke-linecap: square"/>
     </g>
     <g id="line2d_6">
      <g>
       <use xlink:href="#m49a37d97f3" x="154.996433" y="307.584" style="stroke: #000000; stroke-width: 0.8"/>
      </g>
     </g>
     <g id="text_3">
      <!-- 200000 -->
      <g transform="translate(135.908933 322.182437) scale(0.1 -0.1)">
       <defs>
        <path id="DejaVuSans-32" d="M 1228 531 
L 3431 531 
L 3431 0 
L 469 0 
L 469 531 
Q 828 903 1448 1529 
Q 2069 2156 2228 2338 
Q 2531 2678 2651 2914 
Q 2772 3150 2772 3378 
Q 2772 3750 2511 3984 
Q 2250 4219 1831 4219 
Q 1534 4219 1204 4116 
Q 875 4013 500 3803 
L 500 4441 
Q 881 4594 1212 4672 
Q 1544 4750 1819 4750 
Q 2544 4750 2975 4387 
Q 3406 4025 3406 3419 
Q 3406 3131 3298 2873 
Q 3191 2616 2906 2266 
Q 2828 2175 2409 1742 
Q 1991 1309 1228 531 
z
" transform="scale(0.015625)"/>
       </defs>
       <use xlink:href="#DejaVuSans-32"/>
       <use xlink:href="#DejaVuSans-30" x="63.623047"/>
       <use xlink:href="#DejaVuSans-30" x="127.246094"/>
       <use xlink:href="#DejaVuSans-30" x="190.869141"/>
       <use xlink:href="#DejaVuSans-30" x="254.492188"/>
       <use xlink:href="#DejaVuSans-30" x="318.115234"/>
      </g>
     </g>
    </g>
    <g id="xtick_4">
     <g id="line2d_7">
      <path d="M 195.578286 307.584 
L 195.578286 41.472 
" clip-path="url(#p0d9385234e)" style="fill: none; stroke: #b0b0b0; stroke-width: 0.8; stroke-linecap: square"/>
     </g>
     <g id="line2d_8">
      <g>
       <use xlink:href="#m49a37d97f3" x="195.578286" y="307.584" style="stroke: #000000; stroke-width: 0.8"/>
      </g>
     </g>
     <g id="text_4">
      <!-- 300000 -->
      <g transform="translate(176.490786 322.182437) scale(0.1 -0.1)">
       <defs>
        <path id="DejaVuSans-33" d="M 2597 2516 
Q 3050 2419 3304 2112 
Q 3559 1806 3559 1356 
Q 3559 666 3084 287 
Q 2609 -91 1734 -91 
Q 1441 -91 1130 -33 
Q 819 25 488 141 
L 488 750 
Q 750 597 1062 519 
Q 1375 441 1716 441 
Q 2309 441 2620 675 
Q 2931 909 2931 1356 
Q 2931 1769 2642 2001 
Q 2353 2234 1838 2234 
L 1294 2234 
L 1294 2753 
L 1863 2753 
Q 2328 2753 2575 2939 
Q 2822 3125 2822 3475 
Q 2822 3834 2567 4026 
Q 2313 4219 1838 4219 
Q 1578 4219 1281 4162 
Q 984 4106 628 3988 
L 628 4550 
Q 988 4650 1302 4700 
Q 1616 4750 1894 4750 
Q 2613 4750 3031 4423 
Q 3450 4097 3450 3541 
Q 3450 3153 3228 2886 
Q 3006 2619 2597 2516 
z
" transform="scale(0.015625)"/>
       </defs>
       <use xlink:href="#DejaVuSans-33"/>
       <use xlink:href="#DejaVuSans-30" x="63.623047"/>
       <use xlink:href="#DejaVuSans-30" x="127.246094"/>
       <use xlink:href="#DejaVuSans-30" x="190.869141"/>
       <use xlink:href="#DejaVuSans-30" x="254.492188"/>
       <use xlink:href="#DejaVuSans-30" x="318.115234"/>
      </g>
     </g>
    </g>
    <g id="xtick_5">
     <g id="line2d_9">
      <path d="M 236.160139 307.584 
L 236.160139 41.472 
" clip-path="url(#p0d9385234e)" style="fill: none; stroke: #b0b0b0; stroke-width: 0.8; stroke-linecap: square"/>
     </g>
     <g id="line2d_10">
      <g>
       <use xlink:href="#m49a37d97f3" x="236.160139" y="307.584" style="stroke: #000000; stroke-width: 0.8"/>
      </g>
     </g>
     <g id="text_5">
      <!-- 400000 -->
      <g transform="translate(217.072639 322.182437) scale(0.1 -0.1)">
       <defs>
        <path id="DejaVuSans-34" d="M 2419 4116 
L 825 1625 
L 2419 1625 
L 2419 4116 
z
M 2253 4666 
L 3047 4666 
L 3047 1625 
L 3713 1625 
L 3713 1100 
L 3047 1100 
L 3047 0 
L 2419 0 
L 2419 1100 
L 313 1100 
L 313 1709 
L 2253 4666 
z
" transform="scale(0.015625)"/>
       </defs>
       <use xlink:href="#DejaVuSans-34"/>
       <use xlink:href="#DejaVuSans-30" x="63.623047"/>
       <use xlink:href="#DejaVuSans-30" x="127.246094"/>
       <use xlink:href="#DejaVuSans-30" x="190.869141"/>
       <use xlink:href="#DejaVuSans-30" x="254.492188"/>
       <use xlink:href="#DejaVuSans-30" x="318.115234"/>
      </g>
     </g>
    </g>
    <g id="xtick_6">
     <g id="line2d_11">
      <path d="M 276.741992 307.584 
L 276.741992 41.472 
" clip-path="url(#p0d9385234e)" style="fill: none; stroke: #b0b0b0; stroke-width: 0.8; stroke-linecap: square"/>
     </g>
     <g id="line2d_12">
      <g>
       <use xlink:href="#m49a37d97f3" x="276.741992" y="307.584" style="stroke: #000000; stroke-width: 0.8"/>
      </g>
     </g>
     <g id="text_6">
      <!-- 500000 -->
      <g transform="translate(257.654492 322.182437) scale(0.1 -0.1)">
       <defs>
        <path id="DejaVuSans-35" d="M 691 4666 
L 3169 4666 
L 3169 4134 
L 1269 4134 
L 1269 2991 
Q 1406 3038 1543 3061 
Q 1681 3084 1819 3084 
Q 2600 3084 3056 2656 
Q 3513 2228 3513 1497 
Q 3513 744 3044 326 
Q 2575 -91 1722 -91 
Q 1428 -91 1123 -41 
Q 819 9 494 109 
L 494 744 
Q 775 591 1075 516 
Q 1375 441 1709 441 
Q 2250 441 2565 725 
Q 2881 1009 2881 1497 
Q 2881 1984 2565 2268 
Q 2250 2553 1709 2553 
Q 1456 2553 1204 2497 
Q 953 2441 691 2322 
L 691 4666 
z
" transform="scale(0.015625)"/>
       </defs>
       <use xlink:href="#DejaVuSans-35"/>
       <use xlink:href="#DejaVuSans-30" x="63.623047"/>
       <use xlink:href="#DejaVuSans-30" x="127.246094"/>
       <use xlink:href="#DejaVuSans-30" x="190.869141"/>
       <use xlink:href="#DejaVuSans-30" x="254.492188"/>
       <use xlink:href="#DejaVuSans-30" x="318.115234"/>
      </g>
     </g>
    </g>
    <g id="xtick_7">
     <g id="line2d_13">
      <path d="M 317.323845 307.584 
L 317.323845 41.472 
" clip-path="url(#p0d9385234e)" style="fill: none; stroke: #b0b0b0; stroke-width: 0.8; stroke-linecap: square"/>
     </g>
     <g id="line2d_14">
      <g>
       <use xlink:href="#m49a37d97f3" x="317.323845" y="307.584" style="stroke: #000000; stroke-width: 0.8"/>
      </g>
     </g>
     <g id="text_7">
      <!-- 600000 -->
      <g transform="translate(298.236345 322.182437) scale(0.1 -0.1)">
       <defs>
        <path id="DejaVuSans-36" d="M 2113 2584 
Q 1688 2584 1439 2293 
Q 1191 2003 1191 1497 
Q 1191 994 1439 701 
Q 1688 409 2113 409 
Q 2538 409 2786 701 
Q 3034 994 3034 1497 
Q 3034 2003 2786 2293 
Q 2538 2584 2113 2584 
z
M 3366 4563 
L 3366 3988 
Q 3128 4100 2886 4159 
Q 2644 4219 2406 4219 
Q 1781 4219 1451 3797 
Q 1122 3375 1075 2522 
Q 1259 2794 1537 2939 
Q 1816 3084 2150 3084 
Q 2853 3084 3261 2657 
Q 3669 2231 3669 1497 
Q 3669 778 3244 343 
Q 2819 -91 2113 -91 
Q 1303 -91 875 529 
Q 447 1150 447 2328 
Q 447 3434 972 4092 
Q 1497 4750 2381 4750 
Q 2619 4750 2861 4703 
Q 3103 4656 3366 4563 
z
" transform="scale(0.015625)"/>
       </defs>
       <use xlink:href="#DejaVuSans-36"/>
       <use xlink:href="#DejaVuSans-30" x="63.623047"/>
       <use xlink:href="#DejaVuSans-30" x="127.246094"/>
       <use xlink:href="#DejaVuSans-30" x="190.869141"/>
       <use xlink:href="#DejaVuSans-30" x="254.492188"/>
       <use xlink:href="#DejaVuSans-30" x="318.115234"/>
      </g>
     </g>
    </g>
    <g id="xtick_8">
     <g id="line2d_15">
      <path d="M 357.905698 307.584 
L 357.905698 41.472 
" clip-path="url(#p0d9385234e)" style="fill: none; stroke: #b0b0b0; stroke-width: 0.8; stroke-linecap: square"/>
     </g>
     <g id="line2d_16">
      <g>
       <use xlink:href="#m49a37d97f3" x="357.905698" y="307.584" style="stroke: #000000; stroke-width: 0.8"/>
      </g>
     </g>
     <g id="text_8">
      <!-- 700000 -->
      <g transform="translate(338.818198 322.182437) scale(0.1 -0.1)">
       <defs>
        <path id="DejaVuSans-37" d="M 525 4666 
L 3525 4666 
L 3525 4397 
L 1831 0 
L 1172 0 
L 2766 4134 
L 525 4134 
L 525 4666 
z
" transform="scale(0.015625)"/>
       </defs>
       <use xlink:href="#DejaVuSans-37"/>
       <use xlink:href="#DejaVuSans-30" x="63.623047"/>
       <use xlink:href="#DejaVuSans-30" x="127.246094"/>
       <use xlink:href="#DejaVuSans-30" x="190.869141"/>
       <use xlink:href="#DejaVuSans-30" x="254.492188"/>
       <use xlink:href="#DejaVuSans-30" x="318.115234"/>
      </g>
     </g>
    </g>
    <g id="xtick_9">
     <g id="line2d_17">
      <path d="M 398.487551 307.584 
L 398.487551 41.472 
" clip-path="url(#p0d9385234e)" style="fill: none; stroke: #b0b0b0; stroke-width: 0.8; stroke-linecap: square"/>
     </g>
     <g id="line2d_18">
      <g>
       <use xlink:href="#m49a37d97f3" x="398.487551" y="307.584" style="stroke: #000000; stroke-width: 0.8"/>
      </g>
     </g>
     <g id="text_9">
      <!-- 800000 -->
      <g transform="translate(379.400051 322.182437) scale(0.1 -0.1)">
       <defs>
        <path id="DejaVuSans-38" d="M 2034 2216 
Q 1584 2216 1326 1975 
Q 1069 1734 1069 1313 
Q 1069 891 1326 650 
Q 1584 409 2034 409 
Q 2484 409 2743 651 
Q 3003 894 3003 1313 
Q 3003 1734 2745 1975 
Q 2488 2216 2034 2216 
z
M 1403 2484 
Q 997 2584 770 2862 
Q 544 3141 544 3541 
Q 544 4100 942 4425 
Q 1341 4750 2034 4750 
Q 2731 4750 3128 4425 
Q 3525 4100 3525 3541 
Q 3525 3141 3298 2862 
Q 3072 2584 2669 2484 
Q 3125 2378 3379 2068 
Q 3634 1759 3634 1313 
Q 3634 634 3220 271 
Q 2806 -91 2034 -91 
Q 1263 -91 848 271 
Q 434 634 434 1313 
Q 434 1759 690 2068 
Q 947 2378 1403 2484 
z
M 1172 3481 
Q 1172 3119 1398 2916 
Q 1625 2713 2034 2713 
Q 2441 2713 2670 2916 
Q 2900 3119 2900 3481 
Q 2900 3844 2670 4047 
Q 2441 4250 2034 4250 
Q 1625 4250 1398 4047 
Q 1172 3844 1172 3481 
z
" transform="scale(0.015625)"/>
       </defs>
       <use xlink:href="#DejaVuSans-38"/>
       <use xlink:href="#DejaVuSans-30" x="63.623047"/>
       <use xlink:href="#DejaVuSans-30" x="127.246094"/>
       <use xlink:href="#DejaVuSans-30" x="190.869141"/>
       <use xlink:href="#DejaVuSans-30" x="254.492188"/>
       <use xlink:href="#DejaVuSans-30" x="318.115234"/>
      </g>
     </g>
    </g>
    <g id="text_10">
     <!-- TimePoint -->
     <g transform="translate(211.515469 335.860562) scale(0.1 -0.1)">
      <defs>
       <path id="DejaVuSans-54" d="M -19 4666 
L 3928 4666 
L 3928 4134 
L 2272 4134 
L 2272 0 
L 1638 0 
L 1638 4134 
L -19 4134 
L -19 4666 
z
" transform="scale(0.015625)"/>
       <path id="DejaVuSans-69" d="M 603 3500 
L 1178 3500 
L 1178 0 
L 603 0 
L 603 3500 
z
M 603 4863 
L 1178 4863 
L 1178 4134 
L 603 4134 
L 603 4863 
z
" transform="scale(0.015625)"/>
       <path id="DejaVuSans-6d" d="M 3328 2828 
Q 3544 3216 3844 3400 
Q 4144 3584 4550 3584 
Q 5097 3584 5394 3201 
Q 5691 2819 5691 2113 
L 5691 0 
L 5113 0 
L 5113 2094 
Q 5113 2597 4934 2840 
Q 4756 3084 4391 3084 
Q 3944 3084 3684 2787 
Q 3425 2491 3425 1978 
L 3425 0 
L 2847 0 
L 2847 2094 
Q 2847 2600 2669 2842 
Q 2491 3084 2119 3084 
Q 1678 3084 1418 2786 
Q 1159 2488 1159 1978 
L 1159 0 
L 581 0 
L 581 3500 
L 1159 3500 
L 1159 2956 
Q 1356 3278 1631 3431 
Q 1906 3584 2284 3584 
Q 2666 3584 2933 3390 
Q 3200 3197 3328 2828 
z
" transform="scale(0.015625)"/>
       <path id="DejaVuSans-65" d="M 3597 1894 
L 3597 1613 
L 953 1613 
Q 991 1019 1311 708 
Q 1631 397 2203 397 
Q 2534 397 2845 478 
Q 3156 559 3463 722 
L 3463 178 
Q 3153 47 2828 -22 
Q 2503 -91 2169 -91 
Q 1331 -91 842 396 
Q 353 884 353 1716 
Q 353 2575 817 3079 
Q 1281 3584 2069 3584 
Q 2775 3584 3186 3129 
Q 3597 2675 3597 1894 
z
M 3022 2063 
Q 3016 2534 2758 2815 
Q 2500 3097 2075 3097 
Q 1594 3097 1305 2825 
Q 1016 2553 972 2059 
L 3022 2063 
z
" transform="scale(0.015625)"/>
       <path id="DejaVuSans-50" d="M 1259 4147 
L 1259 2394 
L 2053 2394 
Q 2494 2394 2734 2622 
Q 2975 2850 2975 3272 
Q 2975 3691 2734 3919 
Q 2494 4147 2053 4147 
L 1259 4147 
z
M 628 4666 
L 2053 4666 
Q 2838 4666 3239 4311 
Q 3641 3956 3641 3272 
Q 3641 2581 3239 2228 
Q 2838 1875 2053 1875 
L 1259 1875 
L 1259 0 
L 628 0 
L 628 4666 
z
" transform="scale(0.015625)"/>
       <path id="DejaVuSans-6f" d="M 1959 3097 
Q 1497 3097 1228 2736 
Q 959 2375 959 1747 
Q 959 1119 1226 758 
Q 1494 397 1959 397 
Q 2419 397 2687 759 
Q 2956 1122 2956 1747 
Q 2956 2369 2687 2733 
Q 2419 3097 1959 3097 
z
M 1959 3584 
Q 2709 3584 3137 3096 
Q 3566 2609 3566 1747 
Q 3566 888 3137 398 
Q 2709 -91 1959 -91 
Q 1206 -91 779 398 
Q 353 888 353 1747 
Q 353 2609 779 3096 
Q 1206 3584 1959 3584 
z
" transform="scale(0.015625)"/>
       <path id="DejaVuSans-6e" d="M 3513 2113 
L 3513 0 
L 2938 0 
L 2938 2094 
Q 2938 2591 2744 2837 
Q 2550 3084 2163 3084 
Q 1697 3084 1428 2787 
Q 1159 2491 1159 1978 
L 1159 0 
L 581 0 
L 581 3500 
L 1159 3500 
L 1159 2956 
Q 1366 3272 1645 3428 
Q 1925 3584 2291 3584 
Q 2894 3584 3203 3211 
Q 3513 2838 3513 2113 
z
" transform="scale(0.015625)"/>
       <path id="DejaVuSans-74" d="M 1172 4494 
L 1172 3500 
L 2356 3500 
L 2356 3053 
L 1172 3053 
L 1172 1153 
Q 1172 725 1289 603 
Q 1406 481 1766 481 
L 2356 481 
L 2356 0 
L 1766 0 
Q 1100 0 847 248 
Q 594 497 594 1153 
L 594 3053 
L 172 3053 
L 172 3500 
L 594 3500 
L 594 4494 
L 1172 4494 
z
" transform="scale(0.015625)"/>
      </defs>
      <use xlink:href="#DejaVuSans-54"/>
      <use xlink:href="#DejaVuSans-69" x="57.958984"/>
      <use xlink:href="#DejaVuSans-6d" x="85.742188"/>
      <use xlink:href="#DejaVuSans-65" x="183.154297"/>
      <use xlink:href="#DejaVuSans-50" x="244.677734"/>
      <use xlink:href="#DejaVuSans-6f" x="301.355469"/>
      <use xlink:href="#DejaVuSans-69" x="362.537109"/>
      <use xlink:href="#DejaVuSans-6e" x="390.320312"/>
      <use xlink:href="#DejaVuSans-74" x="453.699219"/>
     </g>
    </g>
   </g>
   <g id="matplotlib.axis_2">
    <g id="ytick_1">
     <g id="line2d_19">
      <path d="M 57.6 295.488 
L 414.72 295.488 
" clip-path="url(#p0d9385234e)" style="fill: none; stroke: #b0b0b0; stroke-width: 0.8; stroke-linecap: square"/>
     </g>
     <g id="line2d_20">
      <defs>
       <path id="mc23ff380b9" d="M 0 0 
L -3.5 0 
" style="stroke: #000000; stroke-width: 0.8"/>
      </defs>
      <g>
       <use xlink:href="#mc23ff380b9" x="57.6" y="295.488" style="stroke: #000000; stroke-width: 0.8"/>
      </g>
     </g>
     <g id="text_11">
      <!-- 0.0 -->
      <g transform="translate(34.696875 299.287219) scale(0.1 -0.1)">
       <defs>
        <path id="DejaVuSans-2e" d="M 684 794 
L 1344 794 
L 1344 0 
L 684 0 
L 684 794 
z
" transform="scale(0.015625)"/>
       </defs>
       <use xlink:href="#DejaVuSans-30"/>
       <use xlink:href="#DejaVuSans-2e" x="63.623047"/>
       <use xlink:href="#DejaVuSans-30" x="95.410156"/>
      </g>
     </g>
    </g>
    <g id="ytick_2">
     <g id="line2d_21">
      <path d="M 57.6 248.162576 
L 414.72 248.162576 
" clip-path="url(#p0d9385234e)" style="fill: none; stroke: #b0b0b0; stroke-width: 0.8; stroke-linecap: square"/>
     </g>
     <g id="line2d_22">
      <g>
       <use xlink:href="#mc23ff380b9" x="57.6" y="248.162576" style="stroke: #000000; stroke-width: 0.8"/>
      </g>
     </g>
     <g id="text_12">
      <!-- 0.1 -->
      <g transform="translate(34.696875 251.961795) scale(0.1 -0.1)">
       <use xlink:href="#DejaVuSans-30"/>
       <use xlink:href="#DejaVuSans-2e" x="63.623047"/>
       <use xlink:href="#DejaVuSans-31" x="95.410156"/>
      </g>
     </g>
    </g>
    <g id="ytick_3">
     <g id="line2d_23">
      <path d="M 57.6 200.837153 
L 414.72 200.837153 
" clip-path="url(#p0d9385234e)" style="fill: none; stroke: #b0b0b0; stroke-width: 0.8; stroke-linecap: square"/>
     </g>
     <g id="line2d_24">
      <g>
       <use xlink:href="#mc23ff380b9" x="57.6" y="200.837153" style="stroke: #000000; stroke-width: 0.8"/>
      </g>
     </g>
     <g id="text_13">
      <!-- 0.2 -->
      <g transform="translate(34.696875 204.636372) scale(0.1 -0.1)">
       <use xlink:href="#DejaVuSans-30"/>
       <use xlink:href="#DejaVuSans-2e" x="63.623047"/>
       <use xlink:href="#DejaVuSans-32" x="95.410156"/>
      </g>
     </g>
    </g>
    <g id="ytick_4">
     <g id="line2d_25">
      <path d="M 57.6 153.511729 
L 414.72 153.511729 
" clip-path="url(#p0d9385234e)" style="fill: none; stroke: #b0b0b0; stroke-width: 0.8; stroke-linecap: square"/>
     </g>
     <g id="line2d_26">
      <g>
       <use xlink:href="#mc23ff380b9" x="57.6" y="153.511729" style="stroke: #000000; stroke-width: 0.8"/>
      </g>
     </g>
     <g id="text_14">
      <!-- 0.3 -->
      <g transform="translate(34.696875 157.310948) scale(0.1 -0.1)">
       <use xlink:href="#DejaVuSans-30"/>
       <use xlink:href="#DejaVuSans-2e" x="63.623047"/>
       <use xlink:href="#DejaVuSans-33" x="95.410156"/>
      </g>
     </g>
    </g>
    <g id="ytick_5">
     <g id="line2d_27">
      <path d="M 57.6 106.186306 
L 414.72 106.186306 
" clip-path="url(#p0d9385234e)" style="fill: none; stroke: #b0b0b0; stroke-width: 0.8; stroke-linecap: square"/>
     </g>
     <g id="line2d_28">
      <g>
       <use xlink:href="#mc23ff380b9" x="57.6" y="106.186306" style="stroke: #000000; stroke-width: 0.8"/>
      </g>
     </g>
     <g id="text_15">
      <!-- 0.4 -->
      <g transform="translate(34.696875 109.985525) scale(0.1 -0.1)">
       <use xlink:href="#DejaVuSans-30"/>
       <use xlink:href="#DejaVuSans-2e" x="63.623047"/>
       <use xlink:href="#DejaVuSans-34" x="95.410156"/>
      </g>
     </g>
    </g>
    <g id="ytick_6">
     <g id="line2d_29">
      <path d="M 57.6 58.860882 
L 414.72 58.860882 
" clip-path="url(#p0d9385234e)" style="fill: none; stroke: #b0b0b0; stroke-width: 0.8; stroke-linecap: square"/>
     </g>
     <g id="line2d_30">
      <g>
       <use xlink:href="#mc23ff380b9" x="57.6" y="58.860882" style="stroke: #000000; stroke-width: 0.8"/>
      </g>
     </g>
     <g id="text_16">
      <!-- 0.5 -->
      <g transform="translate(34.696875 62.660101) scale(0.1 -0.1)">
       <use xlink:href="#DejaVuSans-30"/>
       <use xlink:href="#DejaVuSans-2e" x="63.623047"/>
       <use xlink:href="#DejaVuSans-35" x="95.410156"/>
      </g>
     </g>
    </g>
    <g id="text_17">
     <!-- processorsLoadStdDev -->
     <g transform="translate(28.617187 231.649875) rotate(-90) scale(0.1 -0.1)">
      <defs>
       <path id="DejaVuSans-70" d="M 1159 525 
L 1159 -1331 
L 581 -1331 
L 581 3500 
L 1159 3500 
L 1159 2969 
Q 1341 3281 1617 3432 
Q 1894 3584 2278 3584 
Q 2916 3584 3314 3078 
Q 3713 2572 3713 1747 
Q 3713 922 3314 415 
Q 2916 -91 2278 -91 
Q 1894 -91 1617 61 
Q 1341 213 1159 525 
z
M 3116 1747 
Q 3116 2381 2855 2742 
Q 2594 3103 2138 3103 
Q 1681 3103 1420 2742 
Q 1159 2381 1159 1747 
Q 1159 1113 1420 752 
Q 1681 391 2138 391 
Q 2594 391 2855 752 
Q 3116 1113 3116 1747 
z
" transform="scale(0.015625)"/>
       <path id="DejaVuSans-72" d="M 2631 2963 
Q 2534 3019 2420 3045 
Q 2306 3072 2169 3072 
Q 1681 3072 1420 2755 
Q 1159 2438 1159 1844 
L 1159 0 
L 581 0 
L 581 3500 
L 1159 3500 
L 1159 2956 
Q 1341 3275 1631 3429 
Q 1922 3584 2338 3584 
Q 2397 3584 2469 3576 
Q 2541 3569 2628 3553 
L 2631 2963 
z
" transform="scale(0.015625)"/>
       <path id="DejaVuSans-63" d="M 3122 3366 
L 3122 2828 
Q 2878 2963 2633 3030 
Q 2388 3097 2138 3097 
Q 1578 3097 1268 2742 
Q 959 2388 959 1747 
Q 959 1106 1268 751 
Q 1578 397 2138 397 
Q 2388 397 2633 464 
Q 2878 531 3122 666 
L 3122 134 
Q 2881 22 2623 -34 
Q 2366 -91 2075 -91 
Q 1284 -91 818 406 
Q 353 903 353 1747 
Q 353 2603 823 3093 
Q 1294 3584 2113 3584 
Q 2378 3584 2631 3529 
Q 2884 3475 3122 3366 
z
" transform="scale(0.015625)"/>
       <path id="DejaVuSans-73" d="M 2834 3397 
L 2834 2853 
Q 2591 2978 2328 3040 
Q 2066 3103 1784 3103 
Q 1356 3103 1142 2972 
Q 928 2841 928 2578 
Q 928 2378 1081 2264 
Q 1234 2150 1697 2047 
L 1894 2003 
Q 2506 1872 2764 1633 
Q 3022 1394 3022 966 
Q 3022 478 2636 193 
Q 2250 -91 1575 -91 
Q 1294 -91 989 -36 
Q 684 19 347 128 
L 347 722 
Q 666 556 975 473 
Q 1284 391 1588 391 
Q 1994 391 2212 530 
Q 2431 669 2431 922 
Q 2431 1156 2273 1281 
Q 2116 1406 1581 1522 
L 1381 1569 
Q 847 1681 609 1914 
Q 372 2147 372 2553 
Q 372 3047 722 3315 
Q 1072 3584 1716 3584 
Q 2034 3584 2315 3537 
Q 2597 3491 2834 3397 
z
" transform="scale(0.015625)"/>
       <path id="DejaVuSans-4c" d="M 628 4666 
L 1259 4666 
L 1259 531 
L 3531 531 
L 3531 0 
L 628 0 
L 628 4666 
z
" transform="scale(0.015625)"/>
       <path id="DejaVuSans-61" d="M 2194 1759 
Q 1497 1759 1228 1600 
Q 959 1441 959 1056 
Q 959 750 1161 570 
Q 1363 391 1709 391 
Q 2188 391 2477 730 
Q 2766 1069 2766 1631 
L 2766 1759 
L 2194 1759 
z
M 3341 1997 
L 3341 0 
L 2766 0 
L 2766 531 
Q 2569 213 2275 61 
Q 1981 -91 1556 -91 
Q 1019 -91 701 211 
Q 384 513 384 1019 
Q 384 1609 779 1909 
Q 1175 2209 1959 2209 
L 2766 2209 
L 2766 2266 
Q 2766 2663 2505 2880 
Q 2244 3097 1772 3097 
Q 1472 3097 1187 3025 
Q 903 2953 641 2809 
L 641 3341 
Q 956 3463 1253 3523 
Q 1550 3584 1831 3584 
Q 2591 3584 2966 3190 
Q 3341 2797 3341 1997 
z
" transform="scale(0.015625)"/>
       <path id="DejaVuSans-64" d="M 2906 2969 
L 2906 4863 
L 3481 4863 
L 3481 0 
L 2906 0 
L 2906 525 
Q 2725 213 2448 61 
Q 2172 -91 1784 -91 
Q 1150 -91 751 415 
Q 353 922 353 1747 
Q 353 2572 751 3078 
Q 1150 3584 1784 3584 
Q 2172 3584 2448 3432 
Q 2725 3281 2906 2969 
z
M 947 1747 
Q 947 1113 1208 752 
Q 1469 391 1925 391 
Q 2381 391 2643 752 
Q 2906 1113 2906 1747 
Q 2906 2381 2643 2742 
Q 2381 3103 1925 3103 
Q 1469 3103 1208 2742 
Q 947 2381 947 1747 
z
" transform="scale(0.015625)"/>
       <path id="DejaVuSans-53" d="M 3425 4513 
L 3425 3897 
Q 3066 4069 2747 4153 
Q 2428 4238 2131 4238 
Q 1616 4238 1336 4038 
Q 1056 3838 1056 3469 
Q 1056 3159 1242 3001 
Q 1428 2844 1947 2747 
L 2328 2669 
Q 3034 2534 3370 2195 
Q 3706 1856 3706 1288 
Q 3706 609 3251 259 
Q 2797 -91 1919 -91 
Q 1588 -91 1214 -16 
Q 841 59 441 206 
L 441 856 
Q 825 641 1194 531 
Q 1563 422 1919 422 
Q 2459 422 2753 634 
Q 3047 847 3047 1241 
Q 3047 1584 2836 1778 
Q 2625 1972 2144 2069 
L 1759 2144 
Q 1053 2284 737 2584 
Q 422 2884 422 3419 
Q 422 4038 858 4394 
Q 1294 4750 2059 4750 
Q 2388 4750 2728 4690 
Q 3069 4631 3425 4513 
z
" transform="scale(0.015625)"/>
       <path id="DejaVuSans-44" d="M 1259 4147 
L 1259 519 
L 2022 519 
Q 2988 519 3436 956 
Q 3884 1394 3884 2338 
Q 3884 3275 3436 3711 
Q 2988 4147 2022 4147 
L 1259 4147 
z
M 628 4666 
L 1925 4666 
Q 3281 4666 3915 4102 
Q 4550 3538 4550 2338 
Q 4550 1131 3912 565 
Q 3275 0 1925 0 
L 628 0 
L 628 4666 
z
" transform="scale(0.015625)"/>
       <path id="DejaVuSans-76" d="M 191 3500 
L 800 3500 
L 1894 563 
L 2988 3500 
L 3597 3500 
L 2284 0 
L 1503 0 
L 191 3500 
z
" transform="scale(0.015625)"/>
      </defs>
      <use xlink:href="#DejaVuSans-70"/>
      <use xlink:href="#DejaVuSans-72" x="63.476562"/>
      <use xlink:href="#DejaVuSans-6f" x="102.339844"/>
      <use xlink:href="#DejaVuSans-63" x="163.521484"/>
      <use xlink:href="#DejaVuSans-65" x="218.501953"/>
      <use xlink:href="#DejaVuSans-73" x="280.025391"/>
      <use xlink:href="#DejaVuSans-73" x="332.125"/>
      <use xlink:href="#DejaVuSans-6f" x="384.224609"/>
      <use xlink:href="#DejaVuSans-72" x="445.40625"/>
      <use xlink:href="#DejaVuSans-73" x="486.519531"/>
      <use xlink:href="#DejaVuSans-4c" x="538.619141"/>
      <use xlink:href="#DejaVuSans-6f" x="592.582031"/>
      <use xlink:href="#DejaVuSans-61" x="653.763672"/>
      <use xlink:href="#DejaVuSans-64" x="715.042969"/>
      <use xlink:href="#DejaVuSans-53" x="778.519531"/>
      <use xlink:href="#DejaVuSans-74" x="841.996094"/>
      <use xlink:href="#DejaVuSans-64" x="881.205078"/>
      <use xlink:href="#DejaVuSans-44" x="944.681641"/>
      <use xlink:href="#DejaVuSans-65" x="1021.683594"/>
      <use xlink:href="#DejaVuSans-76" x="1083.207031"/>
     </g>
    </g>
   </g>
   <g id="line2d_31">
    <path d="M 73.832727 295.488 
L 73.834756 295.488 
L 73.834756 295.488 
L 73.834756 171.636756 
L 73.944177 252.602892 
L 74.290085 269.449252 
L 74.383423 271.131414 
L 74.512067 273.189882 
L 74.77382 276.352401 
L 74.788227 276.457508 
L 74.940639 277.662694 
L 74.956199 277.770208 
L 75.189821 279.123869 
L 75.210887 279.232645 
L 75.210887 279.232645 
L 75.321492 279.798085 
L 75.347648 279.917416 
L 75.347648 279.917416 
L 75.457013 280.417764 
L 75.484142 280.526499 
L 75.594528 280.979404 
L 75.624822 281.089526 
L 75.624822 281.089526 
L 75.73561 281.505835 
L 75.781468 281.658332 
L 75.781468 281.658332 
L 75.892032 282.020833 
L 76.234688 282.803297 
L 76.336121 283.012259 
L 76.588481 283.526051 
L 76.642768 283.635178 
L 76.769697 283.879929 
L 76.82878 283.990389 
L 77.010522 284.302206 
L 77.079335 284.411844 
L 77.27001 284.701709 
L 77.349551 284.812487 
L 77.349551 284.812487 
L 77.460606 284.965386 
L 77.548808 285.075248 
L 77.548808 285.076392 
L 78.139317 285.778751 
L 78.250062 285.899238 
L 78.909923 286.511349 
L 78.909923 286.511349 
L 79.020481 286.60068 
L 79.169204 286.711642 
L 79.28084 286.794718 
L 79.429397 286.904465 
L 79.54094 286.986404 
L 79.699646 287.097365 
L 79.699646 287.097365 
L 79.810046 287.174656 
L 79.977226 287.284966 
L 79.977226 287.284966 
L 80.087737 287.356402 
L 80.53881 287.630144 
L 80.732983 287.741075 
L 81.423636 288.101311 
L 81.69867 288.230162 
L 81.809064 288.280092 
L 82.072108 288.391178 
L 82.478715 288.552202 
L 82.833493 288.683245 
L 82.975007 288.735943 
L 83.284647 288.846851 
L 83.284647 288.846948 
L 83.697512 288.987584 
L 84.046465 289.098498 
L 84.157849 289.133546 
L 84.530338 289.244454 
L 84.641506 289.276912 
L 85.043976 289.388015 
L 87.424807 289.903228 
L 88.042649 290.014205 
L 88.36227 290.071459 
L 88.99776 290.182493 
L 88.99776 290.182493 
L 89.108143 290.201306 
L 90.793913 290.465959 
L 95.238749 290.974886 
L 96.419775 291.085939 
L 96.419775 291.085939 
L 96.530871 291.096501 
L 97.759382 291.207495 
L 97.759382 291.207589 
L 102.630084 291.584221 
L 104.383152 291.695292 
L 104.383152 291.695292 
L 104.49364 291.701925 
L 106.445928 291.813006 
L 106.445928 291.813006 
L 106.556247 291.819096 
L 108.904873 291.94205 
L 109.016788 291.947572 
L 109.510198 291.97164 
L 112.71434 292.117492 
L 112.868779 292.124267 
L 115.595352 292.23533 
L 115.70725 292.239597 
L 118.769013 292.350685 
L 118.769013 292.350707 
L 122.866969 292.48307 
L 182.12402 293.454546 
L 195.119563 293.565657 
L 201.732689 293.613745 
L 219.184344 293.72485 
L 219.184344 293.72485 
L 219.295154 293.725508 
L 226.711312 293.768044 
L 248.60984 293.879153 
L 248.60984 293.879153 
L 248.720944 293.879666 
L 280.482016 294.006016 
L 281.444005 294.009365 
L 317.228883 294.120473 
L 317.228883 294.120473 
L 317.339606 294.120782 
L 362.713643 294.231893 
L 398.487273 294.301689 
L 398.487273 294.301689 
" clip-path="url(#p0d9385234e)" style="fill: none; stroke: #1f77b4; stroke-width: 1.5; stroke-linecap: square"/>
   </g>
   <g id="line2d_32">
    <path d="M 73.832727 295.488 
L 73.834756 295.488 
L 73.834756 295.488 
L 73.834756 53.568 
L 73.945356 239.135999 
L 74.292925 264.398014 
L 74.29688 264.488984 
L 74.602159 270.695432 
L 74.643048 271.260783 
L 74.767021 272.608645 
L 75.604125 277.01517 
L 75.629692 277.117965 
L 75.629692 277.117965 
L 75.740411 277.562805 
L 75.773 277.673225 
L 75.982879 278.228031 
L 76.03064 278.335065 
L 76.03064 278.337908 
L 76.245724 278.854571 
L 76.440999 279.332546 
L 76.65276 279.806009 
L 76.65276 279.806009 
L 76.763549 280.038861 
L 76.850394 280.204996 
L 76.850394 280.204996 
L 76.961395 280.419448 
L 77.02227 280.528618 
L 77.256212 280.955511 
L 77.318871 281.065036 
L 77.460189 281.284271 
L 77.54001 281.394912 
L 77.847084 281.820974 
L 77.9319 281.931002 
L 77.9319 281.931637 
L 78.158644 282.22944 
L 78.245598 282.340337 
L 78.245598 282.340337 
L 78.355992 282.486202 
L 78.517731 282.695411 
L 78.83931 283.058364 
L 78.83931 283.058364 
L 78.950336 283.172853 
L 79.371996 283.586022 
L 79.506946 283.696684 
L 79.827283 283.929451 
L 79.994676 284.039707 
L 79.994676 284.039707 
L 80.105685 284.10995 
L 80.439047 284.300543 
L 80.935761 284.567525 
L 81.130135 284.671985 
L 81.333471 284.782042 
L 81.333471 284.782658 
L 82.227895 285.271092 
L 82.438824 285.382074 
L 82.549839 285.43929 
L 82.805164 285.562317 
L 82.916596 285.615218 
L 83.237166 285.766419 
L 83.587387 285.920636 
L 83.587387 285.920636 
L 83.698346 285.96919 
L 83.957961 286.080185 
L 84.067471 286.126885 
L 84.429732 286.268981 
L 84.99084 286.48215 
L 85.285738 286.592778 
L 85.285738 286.592778 
L 85.396771 286.634355 
L 85.701702 286.745436 
L 85.701702 286.745436 
L 85.812359 286.784954 
L 86.248745 286.934763 
L 86.438187 286.997854 
L 86.833849 287.123831 
L 86.944724 287.158726 
L 87.311217 287.269614 
L 87.422372 287.302145 
L 87.810741 287.413104 
L 87.810741 287.413104 
L 87.921672 287.444624 
L 88.404453 287.574732 
L 88.404453 287.574732 
L 88.515442 287.603831 
L 88.950014 287.714673 
L 89.354648 287.812579 
L 89.854641 287.92368 
L 89.981539 287.950696 
L 90.53703 288.061787 
L 90.53703 288.061787 
L 90.647818 288.08362 
L 92.786698 288.486091 
L 93.43753 288.597146 
L 94.890703 288.827152 
L 95.053325 288.851483 
L 95.810867 288.962514 
L 98.288235 289.290662 
L 99.210328 289.401719 
L 100.177332 289.51213 
L 101.227507 289.623204 
L 101.227507 289.623204 
L 101.338488 289.634746 
L 102.442311 289.745834 
L 111.088897 290.445882 
L 112.876528 290.556949 
L 112.876528 290.556992 
L 115.476607 290.703408 
L 116.09031 290.736521 
L 119.742954 290.922093 
L 119.855389 290.927629 
L 151.962548 291.937379 
L 157.128922 292.048483 
L 162.311718 292.149133 
L 168.816734 292.260239 
L 168.930546 292.262052 
L 176.51022 292.373157 
L 187.647351 292.523161 
L 202.181857 292.69461 
L 202.864245 292.702015 
L 214.551561 292.820129 
L 269.203156 293.222845 
L 290.136844 293.333949 
L 290.136844 293.333952 
L 306.138269 293.407844 
L 333.401969 293.518949 
L 333.401969 293.518954 
L 382.080308 293.675014 
L 396.249868 293.713652 
L 398.486467 293.7195 
L 398.486467 293.7195 
" clip-path="url(#p0d9385234e)" style="fill: none; stroke: #ff7f0e; stroke-width: 1.5; stroke-linecap: square"/>
   </g>
   <g id="line2d_33">
    <path d="M 73.832727 295.488 
L 73.83638 295.488 
L 73.83638 295.488 
L 73.842947 175.860448 
L 73.94731 232.209269 
L 73.94798 232.209269 
L 73.94798 232.248896 
L 74.09094 251.100924 
L 74.093669 251.122561 
L 74.093669 251.122561 
L 74.204395 258.016024 
L 74.367424 263.892755 
L 74.371347 263.97916 
L 74.482989 266.769663 
L 74.500274 267.096157 
L 74.611511 269.12394 
L 74.627726 269.384371 
L 74.767733 271.356807 
L 74.912863 272.967137 
L 75.023399 274.046464 
L 75.036791 274.14986 
L 75.036791 274.151695 
L 75.161303 275.165394 
L 75.681179 278.241958 
L 75.873705 279.069801 
L 75.993372 279.535185 
L 76.038668 279.694474 
L 76.20046 280.238048 
L 76.234035 280.343561 
L 76.395267 280.829043 
L 76.435647 280.937003 
L 76.435647 280.937003 
L 76.546242 281.238777 
L 76.589047 281.347066 
L 76.589047 281.347308 
L 76.703987 281.633672 
L 76.802913 281.864764 
L 76.802913 281.864764 
L 76.913832 282.112376 
L 77.114988 282.530859 
L 77.187629 282.667613 
L 77.321503 282.913938 
L 77.386648 283.024996 
L 77.499774 283.214336 
L 77.698895 283.529912 
L 77.7725 283.639405 
L 77.920943 283.854932 
L 78.0046 283.969148 
L 78.115612 284.116682 
L 78.257367 284.295523 
L 78.373505 284.440386 
L 78.746079 284.861749 
L 78.924938 285.047063 
L 79.138153 285.254321 
L 79.261166 285.370828 
L 79.380789 285.481074 
L 80.213704 286.149083 
L 80.369862 286.25982 
L 80.559498 286.390146 
L 80.883379 286.597427 
L 80.994171 286.666324 
L 81.187893 286.782746 
L 81.299681 286.848563 
L 81.584994 287.008873 
L 81.792261 287.119486 
L 81.903561 287.177828 
L 82.124817 287.288935 
L 82.124817 287.288935 
L 82.235027 287.34354 
L 82.469802 287.454562 
L 83.82682 288.017617 
L 83.82682 288.017617 
L 83.937421 288.058988 
L 84.290265 288.184858 
L 84.814329 288.355697 
L 85.206197 288.466392 
L 85.206197 288.466396 
L 85.315465 288.496757 
L 85.95543 288.646402 
L 86.068968 288.670811 
L 86.593206 288.781919 
L 86.593206 288.781921 
L 91.073928 289.572995 
L 91.073928 289.572995 
L 91.184354 289.591732 
L 91.998788 289.723689 
L 91.998788 289.723689 
L 92.109539 289.741291 
L 93.157523 289.896095 
L 94.022814 290.00923 
L 94.460571 290.063036 
L 95.409797 290.174078 
L 96.720297 290.307377 
L 98.008149 290.418372 
L 98.008149 290.418376 
L 98.127054 290.427937 
L 100.03193 290.577196 
L 100.143604 290.585522 
L 101.942134 290.69663 
L 102.054159 290.703162 
L 104.375049 290.839289 
L 104.661489 290.855915 
L 106.582688 290.966972 
L 106.582688 290.967011 
L 110.406716 291.172711 
L 113.49782 291.300875 
L 113.609842 291.304649 
L 116.786995 291.41575 
L 116.786995 291.415751 
L 116.92822 291.419988 
L 122.289199 291.575281 
L 122.401495 291.578767 
L 126.447806 291.689844 
L 127.447036 291.714622 
L 131.724553 291.825723 
L 132.470148 291.844873 
L 139.990481 292.02584 
L 139.990481 292.02584 
L 140.101573 292.028245 
L 146.162575 292.139315 
L 146.162575 292.139325 
L 149.425875 292.193696 
L 156.760702 292.304806 
L 164.518965 292.431138 
L 164.518965 292.431138 
L 164.629994 292.432921 
L 177.654907 292.620381 
L 183.255397 292.693782 
L 192.543814 292.804892 
L 192.711029 292.80676 
L 203.359451 292.917858 
L 203.359451 292.91786 
L 205.603535 292.939029 
L 218.691594 293.050137 
L 320.521141 293.564013 
L 398.487145 293.787654 
L 398.487145 293.787654 
" clip-path="url(#p0d9385234e)" style="fill: none; stroke: #2ca02c; stroke-width: 1.5; stroke-linecap: square"/>
   </g>
   <g id="line2d_34">
    <path d="M 73.832727 295.488 
L 73.83638 295.488 
L 73.83638 295.488 
L 73.84393 134.214764 
L 73.946814 229.724833 
L 73.94776 229.777557 
L 74.060115 248.181877 
L 74.060427 248.242169 
L 74.265968 260.526323 
L 74.267715 260.589038 
L 74.39438 264.286529 
L 74.400077 264.381765 
L 74.586287 267.743851 
L 74.692014 269.180049 
L 74.962476 272.050015 
L 74.974839 272.160682 
L 75.841542 277.46479 
L 75.870464 277.575774 
L 75.916375 277.739804 
L 76.028125 278.124656 
L 76.193481 278.660761 
L 76.232608 278.77019 
L 76.342944 279.047539 
L 76.444599 279.249181 
L 76.630226 279.602694 
L 76.693925 279.713045 
L 76.829875 279.931137 
L 76.915325 280.042028 
L 76.915325 280.042028 
L 77.026113 280.199081 
L 77.098349 280.31318 
L 77.26514 280.576796 
L 77.545561 280.98455 
L 77.545561 280.98455 
L 77.656515 281.13582 
L 77.733861 281.245547 
L 77.733861 281.245547 
L 77.844956 281.398029 
L 77.931089 281.507327 
L 77.931089 281.507695 
L 78.078231 281.69542 
L 78.196108 281.84122 
L 78.30694 281.987912 
L 78.389586 282.098732 
L 78.617659 282.398507 
L 78.993833 282.865723 
L 80.370374 284.243004 
L 80.499937 284.35378 
L 80.675155 284.495296 
L 80.789674 284.586764 
L 81.252713 284.931429 
L 81.438578 285.06067 
L 81.603805 285.171619 
L 82.11971 285.494074 
L 82.307682 285.605162 
L 82.596378 285.769262 
L 82.933109 285.950128 
L 83.163713 286.068359 
L 83.282785 286.12901 
L 83.561415 286.262037 
L 83.561415 286.262037 
L 83.672293 286.313519 
L 83.955211 286.439428 
L 84.21113 286.549923 
L 84.21113 286.550202 
L 84.787179 286.78873 
L 85.075524 286.899535 
L 85.075524 286.89974 
L 85.351304 287.003092 
L 85.65998 287.114095 
L 87.24582 287.601809 
L 87.356539 287.632026 
L 87.855955 287.762498 
L 87.96536 287.791481 
L 88.704378 287.977468 
L 89.009745 288.048927 
L 89.498957 288.159987 
L 90.347918 288.340024 
L 90.899426 288.451073 
L 90.899426 288.451129 
L 92.676083 288.777397 
L 92.786853 288.797015 
L 93.656681 288.94481 
L 94.15032 289.024458 
L 94.939331 289.142434 
L 95.050096 289.158164 
L 95.875526 289.269098 
L 95.986613 289.283725 
L 98.548793 289.589177 
L 99.563245 289.700284 
L 99.563245 289.700284 
L 99.673702 289.712139 
L 100.738161 289.823152 
L 100.985922 289.848523 
L 103.200959 290.063547 
L 103.311537 290.073867 
L 105.001214 290.222403 
L 105.001214 290.222403 
L 105.112028 290.231734 
L 111.206585 290.678268 
L 113.005597 290.789344 
L 113.30184 290.807014 
L 115.269234 290.918103 
L 115.269234 290.918103 
L 115.379498 290.924039 
L 117.543729 291.035082 
L 117.65456 291.04059 
L 119.986469 291.151557 
L 119.986469 291.151603 
L 121.838054 291.23437 
L 124.784461 291.353361 
L 124.784461 291.353361 
L 124.895368 291.357568 
L 127.903177 291.468675 
L 127.903177 291.468675 
L 128.01409 291.472634 
L 131.267638 291.583739 
L 133.359812 291.649278 
L 137.204537 291.760373 
L 137.204537 291.760385 
L 138.12574 291.785251 
L 143.212275 291.916492 
L 143.212275 291.916492 
L 143.322421 291.91925 
L 147.999173 292.03036 
L 148.186727 292.034671 
L 153.506535 292.149778 
L 159.574878 292.269773 
L 166.158066 292.386239 
L 179.578079 292.588722 
L 190.286418 292.724686 
L 190.410552 292.726176 
L 200.535948 292.837285 
L 200.656213 292.838494 
L 242.45391 293.180075 
L 246.915142 293.209284 
L 265.269022 293.320395 
L 375.203166 293.749231 
L 398.487242 293.810231 
L 398.487242 293.810231 
" clip-path="url(#p0d9385234e)" style="fill: none; stroke: #d62728; stroke-width: 1.5; stroke-linecap: square"/>
   </g>
   <g id="line2d_35">
    <path d="M 73.832727 295.488 
L 73.835162 295.488 
L 73.835162 295.488 
L 73.83638 100.406136 
L 73.94543 229.183695 
L 73.946356 229.183695 
L 73.946356 229.183695 
L 74.057121 245.157864 
L 74.063232 245.654286 
L 74.063232 245.654286 
L 74.17335 254.427284 
L 74.17605 254.521646 
L 74.17605 254.521646 
L 74.287038 259.829743 
L 74.810411 271.039369 
L 74.830229 271.259721 
L 74.948012 272.567666 
L 76.034546 279.039573 
L 76.072034 279.17432 
L 76.21831 279.653276 
L 76.256681 279.771762 
L 76.421768 280.221595 
L 76.533475 280.503091 
L 76.772883 281.066622 
L 76.827668 281.184096 
L 76.827668 281.184096 
L 76.938321 281.427833 
L 77.066289 281.695734 
L 77.066289 281.695734 
L 77.176866 281.913722 
L 77.234704 282.022818 
L 77.234704 282.024522 
L 77.677452 282.808844 
L 77.752164 282.919276 
L 77.886474 283.1163 
L 77.967959 283.226757 
L 78.083271 283.372597 
L 78.249512 283.564174 
L 78.361103 283.69641 
L 78.717053 284.083308 
L 78.857407 284.218411 
L 78.973843 284.329358 
L 79.09454 284.443326 
L 79.209281 284.55439 
L 79.564508 284.881142 
L 79.564508 284.881142 
L 79.675305 284.979473 
L 79.807188 285.090015 
L 79.807188 285.090015 
L 79.917827 285.178039 
L 80.063216 285.288714 
L 80.384686 285.522628 
L 80.543109 285.633723 
L 80.937552 285.901526 
L 81.261191 286.11087 
L 81.371618 286.18023 
L 81.555454 286.289805 
L 81.555454 286.289805 
L 81.666547 286.35532 
L 81.865857 286.46888 
L 82.093326 286.593323 
L 82.369932 286.736361 
L 82.369932 286.736361 
L 82.479909 286.792883 
L 82.706096 286.903686 
L 82.945296 287.017067 
L 83.189685 287.12817 
L 83.189685 287.12817 
L 83.300184 287.177404 
L 83.654413 287.328037 
L 83.769514 287.375485 
L 84.070737 287.4958 
L 84.40192 287.621114 
L 84.514056 287.662423 
L 84.826568 287.773152 
L 84.937481 287.812018 
L 85.267882 287.923128 
L 85.267882 287.923128 
L 85.377859 287.959705 
L 85.803562 288.094216 
L 86.581552 288.322729 
L 86.692711 288.35362 
L 87.243003 288.497977 
L 87.354147 288.526344 
L 87.81727 288.637163 
L 88.792748 288.851597 
L 89.318357 288.962703 
L 89.318357 288.962703 
L 89.429145 288.98588 
L 90.47644 289.192652 
L 91.080708 289.303707 
L 91.192021 289.323639 
L 91.836461 289.434685 
L 91.836461 289.434693 
L 91.962315 289.455651 
L 92.655386 289.566688 
L 92.765082 289.583847 
L 93.514926 289.694929 
L 93.514926 289.694929 
L 93.625714 289.710784 
L 94.424539 289.821699 
L 94.838588 289.876257 
L 105.4606 290.889575 
L 108.635108 291.099928 
L 109.125217 291.129446 
L 111.03025 291.240514 
L 111.639187 291.274713 
L 113.734659 291.385786 
L 117.013383 291.542192 
L 119.576592 291.653295 
L 119.576592 291.653295 
L 119.686975 291.657941 
L 122.474136 291.769047 
L 122.474136 291.769047 
L 122.584731 291.773289 
L 125.637897 291.884348 
L 125.637897 291.884348 
L 125.74773 291.888208 
L 132.69837 292.104461 
L 133.492133 292.126868 
L 137.656399 292.237966 
L 196.096933 293.136829 
L 208.553522 293.247938 
L 208.553522 293.247938 
L 208.664595 293.248865 
L 223.12606 293.359973 
L 223.12606 293.359973 
L 223.236561 293.360764 
L 240.424019 293.471874 
L 273.066494 293.631634 
L 273.066494 293.631634 
L 273.177412 293.632117 
L 315.486171 293.797503 
L 321.097939 293.816453 
L 363.141721 293.936946 
L 363.594237 293.938081 
L 398.487255 294.019494 
L 398.487255 294.019494 
" clip-path="url(#p0d9385234e)" style="fill: none; stroke: #9467bd; stroke-width: 1.5; stroke-linecap: square"/>
   </g>
   <g id="patch_3">
    <path d="M 57.6 307.584 
L 57.6 41.472 
" style="fill: none; stroke: #000000; stroke-width: 0.8; stroke-linejoin: miter; stroke-linecap: square"/>
   </g>
   <g id="patch_4">
    <path d="M 414.72 307.584 
L 414.72 41.472 
" style="fill: none; stroke: #000000; stroke-width: 0.8; stroke-linejoin: miter; stroke-linecap: square"/>
   </g>
   <g id="patch_5">
    <path d="M 57.6 307.584 
L 414.72 307.584 
" style="fill: none; stroke: #000000; stroke-width: 0.8; stroke-linejoin: miter; stroke-linecap: square"/>
   </g>
   <g id="patch_6">
    <path d="M 57.6 41.472 
L 414.72 41.472 
" style="fill: none; stroke: #000000; stroke-width: 0.8; stroke-linejoin: miter; stroke-linecap: square"/>
   </g>
   <g id="text_18">
    <!-- processorsLoadStdDev vs. TimePoint for Each Run -->
    <g transform="translate(85.598437 35.472) scale(0.12 -0.12)">
     <defs>
      <path id="DejaVuSans-20" transform="scale(0.015625)"/>
      <path id="DejaVuSans-66" d="M 2375 4863 
L 2375 4384 
L 1825 4384 
Q 1516 4384 1395 4259 
Q 1275 4134 1275 3809 
L 1275 3500 
L 2222 3500 
L 2222 3053 
L 1275 3053 
L 1275 0 
L 697 0 
L 697 3053 
L 147 3053 
L 147 3500 
L 697 3500 
L 697 3744 
Q 697 4328 969 4595 
Q 1241 4863 1831 4863 
L 2375 4863 
z
" transform="scale(0.015625)"/>
      <path id="DejaVuSans-45" d="M 628 4666 
L 3578 4666 
L 3578 4134 
L 1259 4134 
L 1259 2753 
L 3481 2753 
L 3481 2222 
L 1259 2222 
L 1259 531 
L 3634 531 
L 3634 0 
L 628 0 
L 628 4666 
z
" transform="scale(0.015625)"/>
      <path id="DejaVuSans-68" d="M 3513 2113 
L 3513 0 
L 2938 0 
L 2938 2094 
Q 2938 2591 2744 2837 
Q 2550 3084 2163 3084 
Q 1697 3084 1428 2787 
Q 1159 2491 1159 1978 
L 1159 0 
L 581 0 
L 581 4863 
L 1159 4863 
L 1159 2956 
Q 1366 3272 1645 3428 
Q 1925 3584 2291 3584 
Q 2894 3584 3203 3211 
Q 3513 2838 3513 2113 
z
" transform="scale(0.015625)"/>
      <path id="DejaVuSans-52" d="M 2841 2188 
Q 3044 2119 3236 1894 
Q 3428 1669 3622 1275 
L 4263 0 
L 3584 0 
L 2988 1197 
Q 2756 1666 2539 1819 
Q 2322 1972 1947 1972 
L 1259 1972 
L 1259 0 
L 628 0 
L 628 4666 
L 2053 4666 
Q 2853 4666 3247 4331 
Q 3641 3997 3641 3322 
Q 3641 2881 3436 2590 
Q 3231 2300 2841 2188 
z
M 1259 4147 
L 1259 2491 
L 2053 2491 
Q 2509 2491 2742 2702 
Q 2975 2913 2975 3322 
Q 2975 3731 2742 3939 
Q 2509 4147 2053 4147 
L 1259 4147 
z
" transform="scale(0.015625)"/>
      <path id="DejaVuSans-75" d="M 544 1381 
L 544 3500 
L 1119 3500 
L 1119 1403 
Q 1119 906 1312 657 
Q 1506 409 1894 409 
Q 2359 409 2629 706 
Q 2900 1003 2900 1516 
L 2900 3500 
L 3475 3500 
L 3475 0 
L 2900 0 
L 2900 538 
Q 2691 219 2414 64 
Q 2138 -91 1772 -91 
Q 1169 -91 856 284 
Q 544 659 544 1381 
z
M 1991 3584 
L 1991 3584 
z
" transform="scale(0.015625)"/>
     </defs>
     <use xlink:href="#DejaVuSans-70"/>
     <use xlink:href="#DejaVuSans-72" x="63.476562"/>
     <use xlink:href="#DejaVuSans-6f" x="102.339844"/>
     <use xlink:href="#DejaVuSans-63" x="163.521484"/>
     <use xlink:href="#DejaVuSans-65" x="218.501953"/>
     <use xlink:href="#DejaVuSans-73" x="280.025391"/>
     <use xlink:href="#DejaVuSans-73" x="332.125"/>
     <use xlink:href="#DejaVuSans-6f" x="384.224609"/>
     <use xlink:href="#DejaVuSans-72" x="445.40625"/>
     <use xlink:href="#DejaVuSans-73" x="486.519531"/>
     <use xlink:href="#DejaVuSans-4c" x="538.619141"/>
     <use xlink:href="#DejaVuSans-6f" x="592.582031"/>
     <use xlink:href="#DejaVuSans-61" x="653.763672"/>
     <use xlink:href="#DejaVuSans-64" x="715.042969"/>
     <use xlink:href="#DejaVuSans-53" x="778.519531"/>
     <use xlink:href="#DejaVuSans-74" x="841.996094"/>
     <use xlink:href="#DejaVuSans-64" x="881.205078"/>
     <use xlink:href="#DejaVuSans-44" x="944.681641"/>
     <use xlink:href="#DejaVuSans-65" x="1021.683594"/>
     <use xlink:href="#DejaVuSans-76" x="1083.207031"/>
     <use xlink:href="#DejaVuSans-20" x="1142.386719"/>
     <use xlink:href="#DejaVuSans-76" x="1174.173828"/>
     <use xlink:href="#DejaVuSans-73" x="1233.353516"/>
     <use xlink:href="#DejaVuSans-2e" x="1285.453125"/>
     <use xlink:href="#DejaVuSans-20" x="1317.240234"/>
     <use xlink:href="#DejaVuSans-54" x="1349.027344"/>
     <use xlink:href="#DejaVuSans-69" x="1406.986328"/>
     <use xlink:href="#DejaVuSans-6d" x="1434.769531"/>
     <use xlink:href="#DejaVuSans-65" x="1532.181641"/>
     <use xlink:href="#DejaVuSans-50" x="1593.705078"/>
     <use xlink:href="#DejaVuSans-6f" x="1650.382812"/>
     <use xlink:href="#DejaVuSans-69" x="1711.564453"/>
     <use xlink:href="#DejaVuSans-6e" x="1739.347656"/>
     <use xlink:href="#DejaVuSans-74" x="1802.726562"/>
     <use xlink:href="#DejaVuSans-20" x="1841.935547"/>
     <use xlink:href="#DejaVuSans-66" x="1873.722656"/>
     <use xlink:href="#DejaVuSans-6f" x="1908.927734"/>
     <use xlink:href="#DejaVuSans-72" x="1970.109375"/>
     <use xlink:href="#DejaVuSans-20" x="2011.222656"/>
     <use xlink:href="#DejaVuSans-45" x="2043.009766"/>
     <use xlink:href="#DejaVuSans-61" x="2106.193359"/>
     <use xlink:href="#DejaVuSans-63" x="2167.472656"/>
     <use xlink:href="#DejaVuSans-68" x="2222.453125"/>
     <use xlink:href="#DejaVuSans-20" x="2285.832031"/>
     <use xlink:href="#DejaVuSans-52" x="2317.619141"/>
     <use xlink:href="#DejaVuSans-75" x="2382.601562"/>
     <use xlink:href="#DejaVuSans-6e" x="2445.980469"/>
    </g>
   </g>
   <g id="legend_1">
    <g id="patch_7">
     <path d="M 341.196563 137.54075 
L 407.72 137.54075 
Q 409.72 137.54075 409.72 135.54075 
L 409.72 48.472 
Q 409.72 46.472 407.72 46.472 
L 341.196563 46.472 
Q 339.196563 46.472 339.196563 48.472 
L 339.196563 135.54075 
Q 339.196563 137.54075 341.196563 137.54075 
z
" style="fill: #ffffff; opacity: 0.8; stroke: #cccccc; stroke-linejoin: miter"/>
    </g>
    <g id="text_19">
     <!-- Run Number -->
     <g transform="translate(343.196563 58.070438) scale(0.1 -0.1)">
      <defs>
       <path id="DejaVuSans-4e" d="M 628 4666 
L 1478 4666 
L 3547 763 
L 3547 4666 
L 4159 4666 
L 4159 0 
L 3309 0 
L 1241 3903 
L 1241 0 
L 628 0 
L 628 4666 
z
" transform="scale(0.015625)"/>
       <path id="DejaVuSans-62" d="M 3116 1747 
Q 3116 2381 2855 2742 
Q 2594 3103 2138 3103 
Q 1681 3103 1420 2742 
Q 1159 2381 1159 1747 
Q 1159 1113 1420 752 
Q 1681 391 2138 391 
Q 2594 391 2855 752 
Q 3116 1113 3116 1747 
z
M 1159 2969 
Q 1341 3281 1617 3432 
Q 1894 3584 2278 3584 
Q 2916 3584 3314 3078 
Q 3713 2572 3713 1747 
Q 3713 922 3314 415 
Q 2916 -91 2278 -91 
Q 1894 -91 1617 61 
Q 1341 213 1159 525 
L 1159 0 
L 581 0 
L 581 4863 
L 1159 4863 
L 1159 2969 
z
" transform="scale(0.015625)"/>
      </defs>
      <use xlink:href="#DejaVuSans-52"/>
      <use xlink:href="#DejaVuSans-75" x="64.982422"/>
      <use xlink:href="#DejaVuSans-6e" x="128.361328"/>
      <use xlink:href="#DejaVuSans-20" x="191.740234"/>
      <use xlink:href="#DejaVuSans-4e" x="223.527344"/>
      <use xlink:href="#DejaVuSans-75" x="298.332031"/>
      <use xlink:href="#DejaVuSans-6d" x="361.710938"/>
      <use xlink:href="#DejaVuSans-62" x="459.123047"/>
      <use xlink:href="#DejaVuSans-65" x="522.599609"/>
      <use xlink:href="#DejaVuSans-72" x="584.123047"/>
     </g>
    </g>
    <g id="line2d_36">
     <path d="M 346.10125 69.248563 
L 356.10125 69.248563 
L 366.10125 69.248563 
" style="fill: none; stroke: #1f77b4; stroke-width: 1.5; stroke-linecap: square"/>
    </g>
    <g id="text_20">
     <!-- Run 0 -->
     <g transform="translate(374.10125 72.748563) scale(0.1 -0.1)">
      <use xlink:href="#DejaVuSans-52"/>
      <use xlink:href="#DejaVuSans-75" x="64.982422"/>
      <use xlink:href="#DejaVuSans-6e" x="128.361328"/>
      <use xlink:href="#DejaVuSans-20" x="191.740234"/>
      <use xlink:href="#DejaVuSans-30" x="223.527344"/>
     </g>
    </g>
    <g id="line2d_37">
     <path d="M 346.10125 83.926688 
L 356.10125 83.926688 
L 366.10125 83.926688 
" style="fill: none; stroke: #ff7f0e; stroke-width: 1.5; stroke-linecap: square"/>
    </g>
    <g id="text_21">
     <!-- Run 1 -->
     <g transform="translate(374.10125 87.426688) scale(0.1 -0.1)">
      <use xlink:href="#DejaVuSans-52"/>
      <use xlink:href="#DejaVuSans-75" x="64.982422"/>
      <use xlink:href="#DejaVuSans-6e" x="128.361328"/>
      <use xlink:href="#DejaVuSans-20" x="191.740234"/>
      <use xlink:href="#DejaVuSans-31" x="223.527344"/>
     </g>
    </g>
    <g id="line2d_38">
     <path d="M 346.10125 98.604813 
L 356.10125 98.604813 
L 366.10125 98.604813 
" style="fill: none; stroke: #2ca02c; stroke-width: 1.5; stroke-linecap: square"/>
    </g>
    <g id="text_22">
     <!-- Run 2 -->
     <g transform="translate(374.10125 102.104813) scale(0.1 -0.1)">
      <use xlink:href="#DejaVuSans-52"/>
      <use xlink:href="#DejaVuSans-75" x="64.982422"/>
      <use xlink:href="#DejaVuSans-6e" x="128.361328"/>
      <use xlink:href="#DejaVuSans-20" x="191.740234"/>
      <use xlink:href="#DejaVuSans-32" x="223.527344"/>
     </g>
    </g>
    <g id="line2d_39">
     <path d="M 346.10125 113.282938 
L 356.10125 113.282938 
L 366.10125 113.282938 
" style="fill: none; stroke: #d62728; stroke-width: 1.5; stroke-linecap: square"/>
    </g>
    <g id="text_23">
     <!-- Run 3 -->
     <g transform="translate(374.10125 116.782938) scale(0.1 -0.1)">
      <use xlink:href="#DejaVuSans-52"/>
      <use xlink:href="#DejaVuSans-75" x="64.982422"/>
      <use xlink:href="#DejaVuSans-6e" x="128.361328"/>
      <use xlink:href="#DejaVuSans-20" x="191.740234"/>
      <use xlink:href="#DejaVuSans-33" x="223.527344"/>
     </g>
    </g>
    <g id="line2d_40">
     <path d="M 346.10125 127.961063 
L 356.10125 127.961063 
L 366.10125 127.961063 
" style="fill: none; stroke: #9467bd; stroke-width: 1.5; stroke-linecap: square"/>
    </g>
    <g id="text_24">
     <!-- Run 4 -->
     <g transform="translate(374.10125 131.461063) scale(0.1 -0.1)">
      <use xlink:href="#DejaVuSans-52"/>
      <use xlink:href="#DejaVuSans-75" x="64.982422"/>
      <use xlink:href="#DejaVuSans-6e" x="128.361328"/>
      <use xlink:href="#DejaVuSans-20" x="191.740234"/>
      <use xlink:href="#DejaVuSans-34" x="223.527344"/>
     </g>
    </g>
   </g>
  </g>
 </g>
 <defs>
  <clipPath id="p0d9385234e">
   <rect x="57.6" y="41.472" width="357.12" height="266.112"/>
  </clipPath>
 </defs>
</svg>
