<?xml version="1.0" encoding="utf-8" standalone="no"?>
<!DOCTYPE svg PUBLIC "-//W3C//DTD SVG 1.1//EN"
  "http://www.w3.org/Graphics/SVG/1.1/DTD/svg11.dtd">
<svg xmlns:xlink="http://www.w3.org/1999/xlink" width="460.8pt" height="345.6pt" viewBox="0 0 460.8 345.6" xmlns="http://www.w3.org/2000/svg" version="1.1">
 <metadata>
  <rdf:RDF xmlns:dc="http://purl.org/dc/elements/1.1/" xmlns:cc="http://creativecommons.org/ns#" xmlns:rdf="http://www.w3.org/1999/02/22-rdf-syntax-ns#">
   <cc:Work>
    <dc:type rdf:resource="http://purl.org/dc/dcmitype/StillImage"/>
    <dc:date>2024-12-03T22:17:34.951147</dc:date>
    <dc:format>image/svg+xml</dc:format>
    <dc:creator>
     <cc:Agent>
      <dc:title>Matplotlib v3.9.2, https://matplotlib.org/</dc:title>
     </cc:Agent>
    </dc:creator>
   </cc:Work>
  </rdf:RDF>
 </metadata>
 <defs>
  <style type="text/css">*{stroke-linejoin: round; stroke-linecap: butt}</style>
 </defs>
 <g id="figure_1">
  <g id="patch_1">
   <path d="M 0 345.6 
L 460.8 345.6 
L 460.8 0 
L 0 0 
z
" style="fill: #ffffff"/>
  </g>
  <g id="axes_1">
   <g id="patch_2">
    <path d="M 57.6 307.584 
L 414.72 307.584 
L 414.72 41.472 
L 57.6 41.472 
z
" style="fill: #ffffff"/>
   </g>
   <g id="matplotlib.axis_1">
    <g id="xtick_1">
     <g id="line2d_1">
      <path d="M 73.832727 307.584 
L 73.832727 41.472 
" clip-path="url(#pe7abe03f4b)" style="fill: none; stroke: #b0b0b0; stroke-width: 0.8; stroke-linecap: square"/>
     </g>
     <g id="line2d_2">
      <defs>
       <path id="m4e5a912f06" d="M 0 0 
L 0 3.5 
" style="stroke: #000000; stroke-width: 0.8"/>
      </defs>
      <g>
       <use xlink:href="#m4e5a912f06" x="73.832727" y="307.584" style="stroke: #000000; stroke-width: 0.8"/>
      </g>
     </g>
     <g id="text_1">
      <!-- 0 -->
      <g transform="translate(70.651477 322.182437) scale(0.1 -0.1)">
       <defs>
        <path id="DejaVuSans-30" d="M 2034 4250 
Q 1547 4250 1301 3770 
Q 1056 3291 1056 2328 
Q 1056 1369 1301 889 
Q 1547 409 2034 409 
Q 2525 409 2770 889 
Q 3016 1369 3016 2328 
Q 3016 3291 2770 3770 
Q 2525 4250 2034 4250 
z
M 2034 4750 
Q 2819 4750 3233 4129 
Q 3647 3509 3647 2328 
Q 3647 1150 3233 529 
Q 2819 -91 2034 -91 
Q 1250 -91 836 529 
Q 422 1150 422 2328 
Q 422 3509 836 4129 
Q 1250 4750 2034 4750 
z
" transform="scale(0.015625)"/>
       </defs>
       <use xlink:href="#DejaVuSans-30"/>
      </g>
     </g>
    </g>
    <g id="xtick_2">
     <g id="line2d_3">
      <path d="M 114.414549 307.584 
L 114.414549 41.472 
" clip-path="url(#pe7abe03f4b)" style="fill: none; stroke: #b0b0b0; stroke-width: 0.8; stroke-linecap: square"/>
     </g>
     <g id="line2d_4">
      <g>
       <use xlink:href="#m4e5a912f06" x="114.414549" y="307.584" style="stroke: #000000; stroke-width: 0.8"/>
      </g>
     </g>
     <g id="text_2">
      <!-- 100000 -->
      <g transform="translate(95.327049 322.182437) scale(0.1 -0.1)">
       <defs>
        <path id="DejaVuSans-31" d="M 794 531 
L 1825 531 
L 1825 4091 
L 703 3866 
L 703 4441 
L 1819 4666 
L 2450 4666 
L 2450 531 
L 3481 531 
L 3481 0 
L 794 0 
L 794 531 
z
" transform="scale(0.015625)"/>
       </defs>
       <use xlink:href="#DejaVuSans-31"/>
       <use xlink:href="#DejaVuSans-30" x="63.623047"/>
       <use xlink:href="#DejaVuSans-30" x="127.246094"/>
       <use xlink:href="#DejaVuSans-30" x="190.869141"/>
       <use xlink:href="#DejaVuSans-30" x="254.492188"/>
       <use xlink:href="#DejaVuSans-30" x="318.115234"/>
      </g>
     </g>
    </g>
    <g id="xtick_3">
     <g id="line2d_5">
      <path d="M 154.99637 307.584 
L 154.99637 41.472 
" clip-path="url(#pe7abe03f4b)" style="fill: none; stroke: #b0b0b0; stroke-width: 0.8; stroke-linecap: square"/>
     </g>
     <g id="line2d_6">
      <g>
       <use xlink:href="#m4e5a912f06" x="154.99637" y="307.584" style="stroke: #000000; stroke-width: 0.8"/>
      </g>
     </g>
     <g id="text_3">
      <!-- 200000 -->
      <g transform="translate(135.90887 322.182437) scale(0.1 -0.1)">
       <defs>
        <path id="DejaVuSans-32" d="M 1228 531 
L 3431 531 
L 3431 0 
L 469 0 
L 469 531 
Q 828 903 1448 1529 
Q 2069 2156 2228 2338 
Q 2531 2678 2651 2914 
Q 2772 3150 2772 3378 
Q 2772 3750 2511 3984 
Q 2250 4219 1831 4219 
Q 1534 4219 1204 4116 
Q 875 4013 500 3803 
L 500 4441 
Q 881 4594 1212 4672 
Q 1544 4750 1819 4750 
Q 2544 4750 2975 4387 
Q 3406 4025 3406 3419 
Q 3406 3131 3298 2873 
Q 3191 2616 2906 2266 
Q 2828 2175 2409 1742 
Q 1991 1309 1228 531 
z
" transform="scale(0.015625)"/>
       </defs>
       <use xlink:href="#DejaVuSans-32"/>
       <use xlink:href="#DejaVuSans-30" x="63.623047"/>
       <use xlink:href="#DejaVuSans-30" x="127.246094"/>
       <use xlink:href="#DejaVuSans-30" x="190.869141"/>
       <use xlink:href="#DejaVuSans-30" x="254.492188"/>
       <use xlink:href="#DejaVuSans-30" x="318.115234"/>
      </g>
     </g>
    </g>
    <g id="xtick_4">
     <g id="line2d_7">
      <path d="M 195.578191 307.584 
L 195.578191 41.472 
" clip-path="url(#pe7abe03f4b)" style="fill: none; stroke: #b0b0b0; stroke-width: 0.8; stroke-linecap: square"/>
     </g>
     <g id="line2d_8">
      <g>
       <use xlink:href="#m4e5a912f06" x="195.578191" y="307.584" style="stroke: #000000; stroke-width: 0.8"/>
      </g>
     </g>
     <g id="text_4">
      <!-- 300000 -->
      <g transform="translate(176.490691 322.182437) scale(0.1 -0.1)">
       <defs>
        <path id="DejaVuSans-33" d="M 2597 2516 
Q 3050 2419 3304 2112 
Q 3559 1806 3559 1356 
Q 3559 666 3084 287 
Q 2609 -91 1734 -91 
Q 1441 -91 1130 -33 
Q 819 25 488 141 
L 488 750 
Q 750 597 1062 519 
Q 1375 441 1716 441 
Q 2309 441 2620 675 
Q 2931 909 2931 1356 
Q 2931 1769 2642 2001 
Q 2353 2234 1838 2234 
L 1294 2234 
L 1294 2753 
L 1863 2753 
Q 2328 2753 2575 2939 
Q 2822 3125 2822 3475 
Q 2822 3834 2567 4026 
Q 2313 4219 1838 4219 
Q 1578 4219 1281 4162 
Q 984 4106 628 3988 
L 628 4550 
Q 988 4650 1302 4700 
Q 1616 4750 1894 4750 
Q 2613 4750 3031 4423 
Q 3450 4097 3450 3541 
Q 3450 3153 3228 2886 
Q 3006 2619 2597 2516 
z
" transform="scale(0.015625)"/>
       </defs>
       <use xlink:href="#DejaVuSans-33"/>
       <use xlink:href="#DejaVuSans-30" x="63.623047"/>
       <use xlink:href="#DejaVuSans-30" x="127.246094"/>
       <use xlink:href="#DejaVuSans-30" x="190.869141"/>
       <use xlink:href="#DejaVuSans-30" x="254.492188"/>
       <use xlink:href="#DejaVuSans-30" x="318.115234"/>
      </g>
     </g>
    </g>
    <g id="xtick_5">
     <g id="line2d_9">
      <path d="M 236.160012 307.584 
L 236.160012 41.472 
" clip-path="url(#pe7abe03f4b)" style="fill: none; stroke: #b0b0b0; stroke-width: 0.8; stroke-linecap: square"/>
     </g>
     <g id="line2d_10">
      <g>
       <use xlink:href="#m4e5a912f06" x="236.160012" y="307.584" style="stroke: #000000; stroke-width: 0.8"/>
      </g>
     </g>
     <g id="text_5">
      <!-- 400000 -->
      <g transform="translate(217.072512 322.182437) scale(0.1 -0.1)">
       <defs>
        <path id="DejaVuSans-34" d="M 2419 4116 
L 825 1625 
L 2419 1625 
L 2419 4116 
z
M 2253 4666 
L 3047 4666 
L 3047 1625 
L 3713 1625 
L 3713 1100 
L 3047 1100 
L 3047 0 
L 2419 0 
L 2419 1100 
L 313 1100 
L 313 1709 
L 2253 4666 
z
" transform="scale(0.015625)"/>
       </defs>
       <use xlink:href="#DejaVuSans-34"/>
       <use xlink:href="#DejaVuSans-30" x="63.623047"/>
       <use xlink:href="#DejaVuSans-30" x="127.246094"/>
       <use xlink:href="#DejaVuSans-30" x="190.869141"/>
       <use xlink:href="#DejaVuSans-30" x="254.492188"/>
       <use xlink:href="#DejaVuSans-30" x="318.115234"/>
      </g>
     </g>
    </g>
    <g id="xtick_6">
     <g id="line2d_11">
      <path d="M 276.741834 307.584 
L 276.741834 41.472 
" clip-path="url(#pe7abe03f4b)" style="fill: none; stroke: #b0b0b0; stroke-width: 0.8; stroke-linecap: square"/>
     </g>
     <g id="line2d_12">
      <g>
       <use xlink:href="#m4e5a912f06" x="276.741834" y="307.584" style="stroke: #000000; stroke-width: 0.8"/>
      </g>
     </g>
     <g id="text_6">
      <!-- 500000 -->
      <g transform="translate(257.654334 322.182437) scale(0.1 -0.1)">
       <defs>
        <path id="DejaVuSans-35" d="M 691 4666 
L 3169 4666 
L 3169 4134 
L 1269 4134 
L 1269 2991 
Q 1406 3038 1543 3061 
Q 1681 3084 1819 3084 
Q 2600 3084 3056 2656 
Q 3513 2228 3513 1497 
Q 3513 744 3044 326 
Q 2575 -91 1722 -91 
Q 1428 -91 1123 -41 
Q 819 9 494 109 
L 494 744 
Q 775 591 1075 516 
Q 1375 441 1709 441 
Q 2250 441 2565 725 
Q 2881 1009 2881 1497 
Q 2881 1984 2565 2268 
Q 2250 2553 1709 2553 
Q 1456 2553 1204 2497 
Q 953 2441 691 2322 
L 691 4666 
z
" transform="scale(0.015625)"/>
       </defs>
       <use xlink:href="#DejaVuSans-35"/>
       <use xlink:href="#DejaVuSans-30" x="63.623047"/>
       <use xlink:href="#DejaVuSans-30" x="127.246094"/>
       <use xlink:href="#DejaVuSans-30" x="190.869141"/>
       <use xlink:href="#DejaVuSans-30" x="254.492188"/>
       <use xlink:href="#DejaVuSans-30" x="318.115234"/>
      </g>
     </g>
    </g>
    <g id="xtick_7">
     <g id="line2d_13">
      <path d="M 317.323655 307.584 
L 317.323655 41.472 
" clip-path="url(#pe7abe03f4b)" style="fill: none; stroke: #b0b0b0; stroke-width: 0.8; stroke-linecap: square"/>
     </g>
     <g id="line2d_14">
      <g>
       <use xlink:href="#m4e5a912f06" x="317.323655" y="307.584" style="stroke: #000000; stroke-width: 0.8"/>
      </g>
     </g>
     <g id="text_7">
      <!-- 600000 -->
      <g transform="translate(298.236155 322.182437) scale(0.1 -0.1)">
       <defs>
        <path id="DejaVuSans-36" d="M 2113 2584 
Q 1688 2584 1439 2293 
Q 1191 2003 1191 1497 
Q 1191 994 1439 701 
Q 1688 409 2113 409 
Q 2538 409 2786 701 
Q 3034 994 3034 1497 
Q 3034 2003 2786 2293 
Q 2538 2584 2113 2584 
z
M 3366 4563 
L 3366 3988 
Q 3128 4100 2886 4159 
Q 2644 4219 2406 4219 
Q 1781 4219 1451 3797 
Q 1122 3375 1075 2522 
Q 1259 2794 1537 2939 
Q 1816 3084 2150 3084 
Q 2853 3084 3261 2657 
Q 3669 2231 3669 1497 
Q 3669 778 3244 343 
Q 2819 -91 2113 -91 
Q 1303 -91 875 529 
Q 447 1150 447 2328 
Q 447 3434 972 4092 
Q 1497 4750 2381 4750 
Q 2619 4750 2861 4703 
Q 3103 4656 3366 4563 
z
" transform="scale(0.015625)"/>
       </defs>
       <use xlink:href="#DejaVuSans-36"/>
       <use xlink:href="#DejaVuSans-30" x="63.623047"/>
       <use xlink:href="#DejaVuSans-30" x="127.246094"/>
       <use xlink:href="#DejaVuSans-30" x="190.869141"/>
       <use xlink:href="#DejaVuSans-30" x="254.492188"/>
       <use xlink:href="#DejaVuSans-30" x="318.115234"/>
      </g>
     </g>
    </g>
    <g id="xtick_8">
     <g id="line2d_15">
      <path d="M 357.905476 307.584 
L 357.905476 41.472 
" clip-path="url(#pe7abe03f4b)" style="fill: none; stroke: #b0b0b0; stroke-width: 0.8; stroke-linecap: square"/>
     </g>
     <g id="line2d_16">
      <g>
       <use xlink:href="#m4e5a912f06" x="357.905476" y="307.584" style="stroke: #000000; stroke-width: 0.8"/>
      </g>
     </g>
     <g id="text_8">
      <!-- 700000 -->
      <g transform="translate(338.817976 322.182437) scale(0.1 -0.1)">
       <defs>
        <path id="DejaVuSans-37" d="M 525 4666 
L 3525 4666 
L 3525 4397 
L 1831 0 
L 1172 0 
L 2766 4134 
L 525 4134 
L 525 4666 
z
" transform="scale(0.015625)"/>
       </defs>
       <use xlink:href="#DejaVuSans-37"/>
       <use xlink:href="#DejaVuSans-30" x="63.623047"/>
       <use xlink:href="#DejaVuSans-30" x="127.246094"/>
       <use xlink:href="#DejaVuSans-30" x="190.869141"/>
       <use xlink:href="#DejaVuSans-30" x="254.492188"/>
       <use xlink:href="#DejaVuSans-30" x="318.115234"/>
      </g>
     </g>
    </g>
    <g id="xtick_9">
     <g id="line2d_17">
      <path d="M 398.487298 307.584 
L 398.487298 41.472 
" clip-path="url(#pe7abe03f4b)" style="fill: none; stroke: #b0b0b0; stroke-width: 0.8; stroke-linecap: square"/>
     </g>
     <g id="line2d_18">
      <g>
       <use xlink:href="#m4e5a912f06" x="398.487298" y="307.584" style="stroke: #000000; stroke-width: 0.8"/>
      </g>
     </g>
     <g id="text_9">
      <!-- 800000 -->
      <g transform="translate(379.399798 322.182437) scale(0.1 -0.1)">
       <defs>
        <path id="DejaVuSans-38" d="M 2034 2216 
Q 1584 2216 1326 1975 
Q 1069 1734 1069 1313 
Q 1069 891 1326 650 
Q 1584 409 2034 409 
Q 2484 409 2743 651 
Q 3003 894 3003 1313 
Q 3003 1734 2745 1975 
Q 2488 2216 2034 2216 
z
M 1403 2484 
Q 997 2584 770 2862 
Q 544 3141 544 3541 
Q 544 4100 942 4425 
Q 1341 4750 2034 4750 
Q 2731 4750 3128 4425 
Q 3525 4100 3525 3541 
Q 3525 3141 3298 2862 
Q 3072 2584 2669 2484 
Q 3125 2378 3379 2068 
Q 3634 1759 3634 1313 
Q 3634 634 3220 271 
Q 2806 -91 2034 -91 
Q 1263 -91 848 271 
Q 434 634 434 1313 
Q 434 1759 690 2068 
Q 947 2378 1403 2484 
z
M 1172 3481 
Q 1172 3119 1398 2916 
Q 1625 2713 2034 2713 
Q 2441 2713 2670 2916 
Q 2900 3119 2900 3481 
Q 2900 3844 2670 4047 
Q 2441 4250 2034 4250 
Q 1625 4250 1398 4047 
Q 1172 3844 1172 3481 
z
" transform="scale(0.015625)"/>
       </defs>
       <use xlink:href="#DejaVuSans-38"/>
       <use xlink:href="#DejaVuSans-30" x="63.623047"/>
       <use xlink:href="#DejaVuSans-30" x="127.246094"/>
       <use xlink:href="#DejaVuSans-30" x="190.869141"/>
       <use xlink:href="#DejaVuSans-30" x="254.492188"/>
       <use xlink:href="#DejaVuSans-30" x="318.115234"/>
      </g>
     </g>
    </g>
    <g id="text_10">
     <!-- TimePoint -->
     <g transform="translate(211.515469 335.860562) scale(0.1 -0.1)">
      <defs>
       <path id="DejaVuSans-54" d="M -19 4666 
L 3928 4666 
L 3928 4134 
L 2272 4134 
L 2272 0 
L 1638 0 
L 1638 4134 
L -19 4134 
L -19 4666 
z
" transform="scale(0.015625)"/>
       <path id="DejaVuSans-69" d="M 603 3500 
L 1178 3500 
L 1178 0 
L 603 0 
L 603 3500 
z
M 603 4863 
L 1178 4863 
L 1178 4134 
L 603 4134 
L 603 4863 
z
" transform="scale(0.015625)"/>
       <path id="DejaVuSans-6d" d="M 3328 2828 
Q 3544 3216 3844 3400 
Q 4144 3584 4550 3584 
Q 5097 3584 5394 3201 
Q 5691 2819 5691 2113 
L 5691 0 
L 5113 0 
L 5113 2094 
Q 5113 2597 4934 2840 
Q 4756 3084 4391 3084 
Q 3944 3084 3684 2787 
Q 3425 2491 3425 1978 
L 3425 0 
L 2847 0 
L 2847 2094 
Q 2847 2600 2669 2842 
Q 2491 3084 2119 3084 
Q 1678 3084 1418 2786 
Q 1159 2488 1159 1978 
L 1159 0 
L 581 0 
L 581 3500 
L 1159 3500 
L 1159 2956 
Q 1356 3278 1631 3431 
Q 1906 3584 2284 3584 
Q 2666 3584 2933 3390 
Q 3200 3197 3328 2828 
z
" transform="scale(0.015625)"/>
       <path id="DejaVuSans-65" d="M 3597 1894 
L 3597 1613 
L 953 1613 
Q 991 1019 1311 708 
Q 1631 397 2203 397 
Q 2534 397 2845 478 
Q 3156 559 3463 722 
L 3463 178 
Q 3153 47 2828 -22 
Q 2503 -91 2169 -91 
Q 1331 -91 842 396 
Q 353 884 353 1716 
Q 353 2575 817 3079 
Q 1281 3584 2069 3584 
Q 2775 3584 3186 3129 
Q 3597 2675 3597 1894 
z
M 3022 2063 
Q 3016 2534 2758 2815 
Q 2500 3097 2075 3097 
Q 1594 3097 1305 2825 
Q 1016 2553 972 2059 
L 3022 2063 
z
" transform="scale(0.015625)"/>
       <path id="DejaVuSans-50" d="M 1259 4147 
L 1259 2394 
L 2053 2394 
Q 2494 2394 2734 2622 
Q 2975 2850 2975 3272 
Q 2975 3691 2734 3919 
Q 2494 4147 2053 4147 
L 1259 4147 
z
M 628 4666 
L 2053 4666 
Q 2838 4666 3239 4311 
Q 3641 3956 3641 3272 
Q 3641 2581 3239 2228 
Q 2838 1875 2053 1875 
L 1259 1875 
L 1259 0 
L 628 0 
L 628 4666 
z
" transform="scale(0.015625)"/>
       <path id="DejaVuSans-6f" d="M 1959 3097 
Q 1497 3097 1228 2736 
Q 959 2375 959 1747 
Q 959 1119 1226 758 
Q 1494 397 1959 397 
Q 2419 397 2687 759 
Q 2956 1122 2956 1747 
Q 2956 2369 2687 2733 
Q 2419 3097 1959 3097 
z
M 1959 3584 
Q 2709 3584 3137 3096 
Q 3566 2609 3566 1747 
Q 3566 888 3137 398 
Q 2709 -91 1959 -91 
Q 1206 -91 779 398 
Q 353 888 353 1747 
Q 353 2609 779 3096 
Q 1206 3584 1959 3584 
z
" transform="scale(0.015625)"/>
       <path id="DejaVuSans-6e" d="M 3513 2113 
L 3513 0 
L 2938 0 
L 2938 2094 
Q 2938 2591 2744 2837 
Q 2550 3084 2163 3084 
Q 1697 3084 1428 2787 
Q 1159 2491 1159 1978 
L 1159 0 
L 581 0 
L 581 3500 
L 1159 3500 
L 1159 2956 
Q 1366 3272 1645 3428 
Q 1925 3584 2291 3584 
Q 2894 3584 3203 3211 
Q 3513 2838 3513 2113 
z
" transform="scale(0.015625)"/>
       <path id="DejaVuSans-74" d="M 1172 4494 
L 1172 3500 
L 2356 3500 
L 2356 3053 
L 1172 3053 
L 1172 1153 
Q 1172 725 1289 603 
Q 1406 481 1766 481 
L 2356 481 
L 2356 0 
L 1766 0 
Q 1100 0 847 248 
Q 594 497 594 1153 
L 594 3053 
L 172 3053 
L 172 3500 
L 594 3500 
L 594 4494 
L 1172 4494 
z
" transform="scale(0.015625)"/>
      </defs>
      <use xlink:href="#DejaVuSans-54"/>
      <use xlink:href="#DejaVuSans-69" x="57.958984"/>
      <use xlink:href="#DejaVuSans-6d" x="85.742188"/>
      <use xlink:href="#DejaVuSans-65" x="183.154297"/>
      <use xlink:href="#DejaVuSans-50" x="244.677734"/>
      <use xlink:href="#DejaVuSans-6f" x="301.355469"/>
      <use xlink:href="#DejaVuSans-69" x="362.537109"/>
      <use xlink:href="#DejaVuSans-6e" x="390.320312"/>
      <use xlink:href="#DejaVuSans-74" x="453.699219"/>
     </g>
    </g>
   </g>
   <g id="matplotlib.axis_2">
    <g id="ytick_1">
     <g id="line2d_19">
      <path d="M 57.6 295.488 
L 414.72 295.488 
" clip-path="url(#pe7abe03f4b)" style="fill: none; stroke: #b0b0b0; stroke-width: 0.8; stroke-linecap: square"/>
     </g>
     <g id="line2d_20">
      <defs>
       <path id="m723ef50aa6" d="M 0 0 
L -3.5 0 
" style="stroke: #000000; stroke-width: 0.8"/>
      </defs>
      <g>
       <use xlink:href="#m723ef50aa6" x="57.6" y="295.488" style="stroke: #000000; stroke-width: 0.8"/>
      </g>
     </g>
     <g id="text_11">
      <!-- 0.0 -->
      <g transform="translate(34.696875 299.287219) scale(0.1 -0.1)">
       <defs>
        <path id="DejaVuSans-2e" d="M 684 794 
L 1344 794 
L 1344 0 
L 684 0 
L 684 794 
z
" transform="scale(0.015625)"/>
       </defs>
       <use xlink:href="#DejaVuSans-30"/>
       <use xlink:href="#DejaVuSans-2e" x="63.623047"/>
       <use xlink:href="#DejaVuSans-30" x="95.410156"/>
      </g>
     </g>
    </g>
    <g id="ytick_2">
     <g id="line2d_21">
      <path d="M 57.6 253.580535 
L 414.72 253.580535 
" clip-path="url(#pe7abe03f4b)" style="fill: none; stroke: #b0b0b0; stroke-width: 0.8; stroke-linecap: square"/>
     </g>
     <g id="line2d_22">
      <g>
       <use xlink:href="#m723ef50aa6" x="57.6" y="253.580535" style="stroke: #000000; stroke-width: 0.8"/>
      </g>
     </g>
     <g id="text_12">
      <!-- 0.2 -->
      <g transform="translate(34.696875 257.379754) scale(0.1 -0.1)">
       <use xlink:href="#DejaVuSans-30"/>
       <use xlink:href="#DejaVuSans-2e" x="63.623047"/>
       <use xlink:href="#DejaVuSans-32" x="95.410156"/>
      </g>
     </g>
    </g>
    <g id="ytick_3">
     <g id="line2d_23">
      <path d="M 57.6 211.67307 
L 414.72 211.67307 
" clip-path="url(#pe7abe03f4b)" style="fill: none; stroke: #b0b0b0; stroke-width: 0.8; stroke-linecap: square"/>
     </g>
     <g id="line2d_24">
      <g>
       <use xlink:href="#m723ef50aa6" x="57.6" y="211.67307" style="stroke: #000000; stroke-width: 0.8"/>
      </g>
     </g>
     <g id="text_13">
      <!-- 0.4 -->
      <g transform="translate(34.696875 215.472288) scale(0.1 -0.1)">
       <use xlink:href="#DejaVuSans-30"/>
       <use xlink:href="#DejaVuSans-2e" x="63.623047"/>
       <use xlink:href="#DejaVuSans-34" x="95.410156"/>
      </g>
     </g>
    </g>
    <g id="ytick_4">
     <g id="line2d_25">
      <path d="M 57.6 169.765605 
L 414.72 169.765605 
" clip-path="url(#pe7abe03f4b)" style="fill: none; stroke: #b0b0b0; stroke-width: 0.8; stroke-linecap: square"/>
     </g>
     <g id="line2d_26">
      <g>
       <use xlink:href="#m723ef50aa6" x="57.6" y="169.765605" style="stroke: #000000; stroke-width: 0.8"/>
      </g>
     </g>
     <g id="text_14">
      <!-- 0.6 -->
      <g transform="translate(34.696875 173.564823) scale(0.1 -0.1)">
       <use xlink:href="#DejaVuSans-30"/>
       <use xlink:href="#DejaVuSans-2e" x="63.623047"/>
       <use xlink:href="#DejaVuSans-36" x="95.410156"/>
      </g>
     </g>
    </g>
    <g id="ytick_5">
     <g id="line2d_27">
      <path d="M 57.6 127.858139 
L 414.72 127.858139 
" clip-path="url(#pe7abe03f4b)" style="fill: none; stroke: #b0b0b0; stroke-width: 0.8; stroke-linecap: square"/>
     </g>
     <g id="line2d_28">
      <g>
       <use xlink:href="#m723ef50aa6" x="57.6" y="127.858139" style="stroke: #000000; stroke-width: 0.8"/>
      </g>
     </g>
     <g id="text_15">
      <!-- 0.8 -->
      <g transform="translate(34.696875 131.657358) scale(0.1 -0.1)">
       <use xlink:href="#DejaVuSans-30"/>
       <use xlink:href="#DejaVuSans-2e" x="63.623047"/>
       <use xlink:href="#DejaVuSans-38" x="95.410156"/>
      </g>
     </g>
    </g>
    <g id="ytick_6">
     <g id="line2d_29">
      <path d="M 57.6 85.950674 
L 414.72 85.950674 
" clip-path="url(#pe7abe03f4b)" style="fill: none; stroke: #b0b0b0; stroke-width: 0.8; stroke-linecap: square"/>
     </g>
     <g id="line2d_30">
      <g>
       <use xlink:href="#m723ef50aa6" x="57.6" y="85.950674" style="stroke: #000000; stroke-width: 0.8"/>
      </g>
     </g>
     <g id="text_16">
      <!-- 1.0 -->
      <g transform="translate(34.696875 89.749893) scale(0.1 -0.1)">
       <use xlink:href="#DejaVuSans-31"/>
       <use xlink:href="#DejaVuSans-2e" x="63.623047"/>
       <use xlink:href="#DejaVuSans-30" x="95.410156"/>
      </g>
     </g>
    </g>
    <g id="ytick_7">
     <g id="line2d_31">
      <path d="M 57.6 44.043209 
L 414.72 44.043209 
" clip-path="url(#pe7abe03f4b)" style="fill: none; stroke: #b0b0b0; stroke-width: 0.8; stroke-linecap: square"/>
     </g>
     <g id="line2d_32">
      <g>
       <use xlink:href="#m723ef50aa6" x="57.6" y="44.043209" style="stroke: #000000; stroke-width: 0.8"/>
      </g>
     </g>
     <g id="text_17">
      <!-- 1.2 -->
      <g transform="translate(34.696875 47.842428) scale(0.1 -0.1)">
       <use xlink:href="#DejaVuSans-31"/>
       <use xlink:href="#DejaVuSans-2e" x="63.623047"/>
       <use xlink:href="#DejaVuSans-32" x="95.410156"/>
      </g>
     </g>
    </g>
    <g id="text_18">
     <!-- processorsLoadStdDev -->
     <g transform="translate(28.617187 231.649875) rotate(-90) scale(0.1 -0.1)">
      <defs>
       <path id="DejaVuSans-70" d="M 1159 525 
L 1159 -1331 
L 581 -1331 
L 581 3500 
L 1159 3500 
L 1159 2969 
Q 1341 3281 1617 3432 
Q 1894 3584 2278 3584 
Q 2916 3584 3314 3078 
Q 3713 2572 3713 1747 
Q 3713 922 3314 415 
Q 2916 -91 2278 -91 
Q 1894 -91 1617 61 
Q 1341 213 1159 525 
z
M 3116 1747 
Q 3116 2381 2855 2742 
Q 2594 3103 2138 3103 
Q 1681 3103 1420 2742 
Q 1159 2381 1159 1747 
Q 1159 1113 1420 752 
Q 1681 391 2138 391 
Q 2594 391 2855 752 
Q 3116 1113 3116 1747 
z
" transform="scale(0.015625)"/>
       <path id="DejaVuSans-72" d="M 2631 2963 
Q 2534 3019 2420 3045 
Q 2306 3072 2169 3072 
Q 1681 3072 1420 2755 
Q 1159 2438 1159 1844 
L 1159 0 
L 581 0 
L 581 3500 
L 1159 3500 
L 1159 2956 
Q 1341 3275 1631 3429 
Q 1922 3584 2338 3584 
Q 2397 3584 2469 3576 
Q 2541 3569 2628 3553 
L 2631 2963 
z
" transform="scale(0.015625)"/>
       <path id="DejaVuSans-63" d="M 3122 3366 
L 3122 2828 
Q 2878 2963 2633 3030 
Q 2388 3097 2138 3097 
Q 1578 3097 1268 2742 
Q 959 2388 959 1747 
Q 959 1106 1268 751 
Q 1578 397 2138 397 
Q 2388 397 2633 464 
Q 2878 531 3122 666 
L 3122 134 
Q 2881 22 2623 -34 
Q 2366 -91 2075 -91 
Q 1284 -91 818 406 
Q 353 903 353 1747 
Q 353 2603 823 3093 
Q 1294 3584 2113 3584 
Q 2378 3584 2631 3529 
Q 2884 3475 3122 3366 
z
" transform="scale(0.015625)"/>
       <path id="DejaVuSans-73" d="M 2834 3397 
L 2834 2853 
Q 2591 2978 2328 3040 
Q 2066 3103 1784 3103 
Q 1356 3103 1142 2972 
Q 928 2841 928 2578 
Q 928 2378 1081 2264 
Q 1234 2150 1697 2047 
L 1894 2003 
Q 2506 1872 2764 1633 
Q 3022 1394 3022 966 
Q 3022 478 2636 193 
Q 2250 -91 1575 -91 
Q 1294 -91 989 -36 
Q 684 19 347 128 
L 347 722 
Q 666 556 975 473 
Q 1284 391 1588 391 
Q 1994 391 2212 530 
Q 2431 669 2431 922 
Q 2431 1156 2273 1281 
Q 2116 1406 1581 1522 
L 1381 1569 
Q 847 1681 609 1914 
Q 372 2147 372 2553 
Q 372 3047 722 3315 
Q 1072 3584 1716 3584 
Q 2034 3584 2315 3537 
Q 2597 3491 2834 3397 
z
" transform="scale(0.015625)"/>
       <path id="DejaVuSans-4c" d="M 628 4666 
L 1259 4666 
L 1259 531 
L 3531 531 
L 3531 0 
L 628 0 
L 628 4666 
z
" transform="scale(0.015625)"/>
       <path id="DejaVuSans-61" d="M 2194 1759 
Q 1497 1759 1228 1600 
Q 959 1441 959 1056 
Q 959 750 1161 570 
Q 1363 391 1709 391 
Q 2188 391 2477 730 
Q 2766 1069 2766 1631 
L 2766 1759 
L 2194 1759 
z
M 3341 1997 
L 3341 0 
L 2766 0 
L 2766 531 
Q 2569 213 2275 61 
Q 1981 -91 1556 -91 
Q 1019 -91 701 211 
Q 384 513 384 1019 
Q 384 1609 779 1909 
Q 1175 2209 1959 2209 
L 2766 2209 
L 2766 2266 
Q 2766 2663 2505 2880 
Q 2244 3097 1772 3097 
Q 1472 3097 1187 3025 
Q 903 2953 641 2809 
L 641 3341 
Q 956 3463 1253 3523 
Q 1550 3584 1831 3584 
Q 2591 3584 2966 3190 
Q 3341 2797 3341 1997 
z
" transform="scale(0.015625)"/>
       <path id="DejaVuSans-64" d="M 2906 2969 
L 2906 4863 
L 3481 4863 
L 3481 0 
L 2906 0 
L 2906 525 
Q 2725 213 2448 61 
Q 2172 -91 1784 -91 
Q 1150 -91 751 415 
Q 353 922 353 1747 
Q 353 2572 751 3078 
Q 1150 3584 1784 3584 
Q 2172 3584 2448 3432 
Q 2725 3281 2906 2969 
z
M 947 1747 
Q 947 1113 1208 752 
Q 1469 391 1925 391 
Q 2381 391 2643 752 
Q 2906 1113 2906 1747 
Q 2906 2381 2643 2742 
Q 2381 3103 1925 3103 
Q 1469 3103 1208 2742 
Q 947 2381 947 1747 
z
" transform="scale(0.015625)"/>
       <path id="DejaVuSans-53" d="M 3425 4513 
L 3425 3897 
Q 3066 4069 2747 4153 
Q 2428 4238 2131 4238 
Q 1616 4238 1336 4038 
Q 1056 3838 1056 3469 
Q 1056 3159 1242 3001 
Q 1428 2844 1947 2747 
L 2328 2669 
Q 3034 2534 3370 2195 
Q 3706 1856 3706 1288 
Q 3706 609 3251 259 
Q 2797 -91 1919 -91 
Q 1588 -91 1214 -16 
Q 841 59 441 206 
L 441 856 
Q 825 641 1194 531 
Q 1563 422 1919 422 
Q 2459 422 2753 634 
Q 3047 847 3047 1241 
Q 3047 1584 2836 1778 
Q 2625 1972 2144 2069 
L 1759 2144 
Q 1053 2284 737 2584 
Q 422 2884 422 3419 
Q 422 4038 858 4394 
Q 1294 4750 2059 4750 
Q 2388 4750 2728 4690 
Q 3069 4631 3425 4513 
z
" transform="scale(0.015625)"/>
       <path id="DejaVuSans-44" d="M 1259 4147 
L 1259 519 
L 2022 519 
Q 2988 519 3436 956 
Q 3884 1394 3884 2338 
Q 3884 3275 3436 3711 
Q 2988 4147 2022 4147 
L 1259 4147 
z
M 628 4666 
L 1925 4666 
Q 3281 4666 3915 4102 
Q 4550 3538 4550 2338 
Q 4550 1131 3912 565 
Q 3275 0 1925 0 
L 628 0 
L 628 4666 
z
" transform="scale(0.015625)"/>
       <path id="DejaVuSans-76" d="M 191 3500 
L 800 3500 
L 1894 563 
L 2988 3500 
L 3597 3500 
L 2284 0 
L 1503 0 
L 191 3500 
z
" transform="scale(0.015625)"/>
      </defs>
      <use xlink:href="#DejaVuSans-70"/>
      <use xlink:href="#DejaVuSans-72" x="63.476562"/>
      <use xlink:href="#DejaVuSans-6f" x="102.339844"/>
      <use xlink:href="#DejaVuSans-63" x="163.521484"/>
      <use xlink:href="#DejaVuSans-65" x="218.501953"/>
      <use xlink:href="#DejaVuSans-73" x="280.025391"/>
      <use xlink:href="#DejaVuSans-73" x="332.125"/>
      <use xlink:href="#DejaVuSans-6f" x="384.224609"/>
      <use xlink:href="#DejaVuSans-72" x="445.40625"/>
      <use xlink:href="#DejaVuSans-73" x="486.519531"/>
      <use xlink:href="#DejaVuSans-4c" x="538.619141"/>
      <use xlink:href="#DejaVuSans-6f" x="592.582031"/>
      <use xlink:href="#DejaVuSans-61" x="653.763672"/>
      <use xlink:href="#DejaVuSans-64" x="715.042969"/>
      <use xlink:href="#DejaVuSans-53" x="778.519531"/>
      <use xlink:href="#DejaVuSans-74" x="841.996094"/>
      <use xlink:href="#DejaVuSans-64" x="881.205078"/>
      <use xlink:href="#DejaVuSans-44" x="944.681641"/>
      <use xlink:href="#DejaVuSans-65" x="1021.683594"/>
      <use xlink:href="#DejaVuSans-76" x="1083.207031"/>
     </g>
    </g>
   </g>
   <g id="line2d_33">
    <path d="M 73.832727 295.488 
L 73.835568 295.488 
L 73.835568 295.488 
L 73.840971 249.451369 
L 73.947116 264.797584 
L 74.066272 271.650142 
L 74.074002 271.750635 
L 74.186099 274.297036 
L 74.190941 274.404832 
L 74.303699 276.862634 
L 74.31065 276.967034 
L 74.421975 278.493499 
L 74.431721 278.600278 
L 74.545185 279.873614 
L 74.557519 279.981877 
L 74.557519 279.981877 
L 74.66709 280.977696 
L 74.937364 282.821984 
L 74.960226 282.927915 
L 75.095445 283.500536 
L 75.125166 283.610928 
L 75.236858 283.997549 
L 75.297731 284.181751 
L 75.297731 284.181751 
L 75.408114 284.490039 
L 75.449101 284.60036 
L 75.449101 284.60036 
L 75.55989 284.910034 
L 76.19143 286.179614 
L 76.25969 286.289963 
L 76.439616 286.56752 
L 76.516123 286.678589 
L 76.516123 286.678622 
L 76.660403 286.870443 
L 76.773591 287.010708 
L 76.895093 287.153968 
L 77.180728 287.469025 
L 77.180728 287.469025 
L 77.291581 287.584321 
L 77.399869 287.694318 
L 77.399869 287.694864 
L 77.945503 288.17356 
L 78.092904 288.28458 
L 78.204607 288.365581 
L 79.277509 288.992184 
L 79.50487 289.10269 
L 79.615637 289.154511 
L 79.851823 289.265144 
L 79.851823 289.265144 
L 79.962257 289.316331 
L 80.214209 289.427243 
L 80.394376 289.502685 
L 80.665928 289.613489 
L 82.297345 290.164214 
L 82.682539 290.275153 
L 82.794395 290.306096 
L 83.213392 290.417152 
L 83.324761 290.445442 
L 83.797999 290.556548 
L 83.797999 290.556548 
L 83.908366 290.581567 
L 84.434605 290.692653 
L 95.14066 292.033754 
L 96.849925 292.15571 
L 96.849925 292.15571 
L 96.960307 292.163275 
L 98.66449 292.274373 
L 98.77472 292.281492 
L 100.92434 292.407296 
L 100.92434 292.407296 
L 101.033428 292.413466 
L 103.357626 292.534587 
L 103.357626 292.534587 
L 103.467745 292.540087 
L 105.852596 292.651149 
L 105.852596 292.65117 
L 106.736918 292.688624 
L 116.487712 293.026679 
L 120.750994 293.137756 
L 120.750994 293.137756 
L 120.861377 293.140482 
L 125.821287 293.251537 
L 125.821287 293.251555 
L 129.675554 293.326987 
L 136.11446 293.438082 
L 136.11446 293.43809 
L 142.684685 293.532589 
L 154.915728 293.666234 
L 203.566317 294.012559 
L 227.777331 294.123669 
L 283.273069 294.312762 
L 329.457209 294.423873 
L 346.986934 294.458558 
L 398.486035 294.543516 
L 398.486035 294.543516 
" clip-path="url(#pe7abe03f4b)" style="fill: none; stroke: #1f77b4; stroke-width: 1.5; stroke-linecap: square"/>
   </g>
   <g id="line2d_34">
    <path d="M 73.832727 295.488 
L 73.833945 295.488 
L 73.833945 295.488 
L 73.836428 198.40467 
L 73.945139 269.199635 
L 73.945921 269.211414 
L 74.061858 276.57491 
L 74.064694 276.629739 
L 74.18532 280.105546 
L 74.190601 280.215308 
L 74.988498 286.563676 
L 75.022992 286.671914 
L 75.022992 286.672284 
L 75.146258 287.068727 
L 75.18422 287.17763 
L 75.295338 287.501969 
L 75.338067 287.612547 
L 75.449 287.890925 
L 75.498624 288.001044 
L 75.618502 288.256632 
L 75.674813 288.365391 
L 75.796177 288.588985 
L 75.860292 288.697499 
L 75.9717 288.876341 
L 76.927728 289.987361 
L 77.0626 290.09766 
L 77.173599 290.183581 
L 77.347113 290.294133 
L 77.347113 290.29461 
L 78.533234 290.952355 
L 78.776917 291.063337 
L 78.888541 291.112466 
L 79.156401 291.223575 
L 79.489022 291.348517 
L 79.672046 291.412824 
L 80.008875 291.523755 
L 80.008875 291.523755 
L 80.119663 291.558957 
L 80.492147 291.669958 
L 81.374182 291.899659 
L 81.570782 291.94555 
L 82.0822 292.056521 
L 82.0822 292.056521 
L 82.193112 292.079425 
L 82.369925 292.114934 
L 83.272712 292.279262 
L 84.789819 292.493005 
L 86.011738 292.628441 
L 86.011738 292.628441 
L 86.122526 292.639833 
L 87.272914 292.750873 
L 87.61177 292.780196 
L 89.039652 292.891276 
L 89.151147 292.899068 
L 92.795885 293.120183 
L 94.918464 293.231225 
L 95.716308 293.268375 
L 98.324668 293.379474 
L 98.324668 293.379479 
L 98.590854 293.389658 
L 101.796037 293.500738 
L 101.796037 293.500738 
L 101.906501 293.504201 
L 106.738732 293.649097 
L 106.848248 293.65212 
L 111.36307 293.763224 
L 112.010053 293.777304 
L 118.389147 293.903386 
L 118.499522 293.905405 
L 126.356967 294.028241 
L 126.356967 294.028241 
L 126.46738 294.029783 
L 135.557245 294.140886 
L 136.380271 294.149696 
L 152.059869 294.286111 
L 168.072793 294.390994 
L 190.600019 294.502102 
L 190.600019 294.502105 
L 223.653507 294.617073 
L 275.467159 294.728182 
L 275.467159 294.728184 
L 379.513673 294.862022 
L 398.486486 294.880555 
L 398.486486 294.880555 
" clip-path="url(#pe7abe03f4b)" style="fill: none; stroke: #ff7f0e; stroke-width: 1.5; stroke-linecap: square"/>
   </g>
   <g id="line2d_35">
    <path d="M 73.832727 295.488 
L 73.836785 295.488 
L 73.836785 295.488 
L 73.844272 237.955177 
L 73.952736 265.319427 
L 74.079362 272.851118 
L 74.081906 272.955889 
L 74.252287 277.80627 
L 74.258322 277.916857 
L 74.275101 278.238139 
L 74.346651 279.370148 
L 74.458905 280.862465 
L 74.471891 280.993758 
L 74.471891 280.993758 
L 74.582711 282.11263 
L 74.596477 282.222777 
L 74.596477 282.222777 
L 74.707519 283.068282 
L 74.722687 283.169985 
L 74.722687 283.169985 
L 74.833627 283.863693 
L 74.852548 283.966622 
L 74.852548 283.966622 
L 74.961714 284.543821 
L 75.636461 286.786593 
L 75.724508 286.985556 
L 75.835972 287.229825 
L 75.893066 287.34016 
L 75.893066 287.340238 
L 76.006775 287.557939 
L 76.069721 287.66761 
L 76.22471 287.913818 
L 76.296972 288.022317 
L 76.410373 288.18466 
L 76.577342 288.402878 
L 76.68847 288.53971 
L 76.886104 288.762424 
L 77.006745 288.886375 
L 77.228614 289.097055 
L 79.77013 290.480924 
L 80.073786 290.593127 
L 80.273161 290.665175 
L 80.58676 290.775886 
L 80.58676 290.776029 
L 80.838773 290.859977 
L 81.709149 291.112647 
L 81.989119 291.185347 
L 82.551471 291.321773 
L 82.662601 291.34705 
L 83.315771 291.483144 
L 84.724239 291.687846 
L 84.835568 291.700398 
L 86.990138 291.930204 
L 87.10136 291.941439 
L 88.245767 292.052195 
L 88.245767 292.052519 
L 89.697786 292.180392 
L 89.813848 292.18982 
L 91.220672 292.300874 
L 93.315886 292.460384 
L 96.585737 292.677818 
L 98.818085 292.806248 
L 101.027012 292.917301 
L 101.027012 292.917301 
L 101.137705 292.922549 
L 103.673758 293.03365 
L 103.673758 293.03365 
L 103.784226 293.038198 
L 106.715365 293.149291 
L 106.715365 293.149309 
L 111.713423 293.305396 
L 120.141049 293.500983 
L 120.141049 293.500983 
L 120.252041 293.503244 
L 184.745415 294.174373 
L 398.485315 294.635509 
L 398.485315 294.635509 
" clip-path="url(#pe7abe03f4b)" style="fill: none; stroke: #2ca02c; stroke-width: 1.5; stroke-linecap: square"/>
   </g>
   <g id="line2d_36">
    <path d="M 73.832727 295.488 
L 73.835974 295.488 
L 73.835974 295.488 
L 73.836031 223.649681 
L 73.946336 269.143036 
L 73.947759 269.194714 
L 74.058699 274.712106 
L 74.063065 274.812713 
L 74.461057 282.074555 
L 74.49137 282.344212 
L 74.633407 283.288641 
L 75.047933 285.342022 
L 75.102127 285.537705 
L 75.102127 285.537705 
L 75.212509 285.857389 
L 75.262425 285.983086 
L 75.262425 285.983086 
L 75.372807 286.260389 
L 75.552483 286.68846 
L 75.663634 286.921763 
L 75.748189 287.077614 
L 75.748189 287.077614 
L 75.859004 287.270369 
L 75.998329 287.482834 
L 76.109773 287.628442 
L 76.236979 287.803755 
L 76.393139 288.017608 
L 76.515997 288.182097 
L 76.515997 288.182097 
L 76.626285 288.325102 
L 76.717563 288.435811 
L 77.210289 288.950773 
L 77.327752 289.061703 
L 77.967609 289.578621 
L 78.127577 289.68845 
L 78.238606 289.76233 
L 79.037525 290.212612 
L 79.351043 290.36149 
L 79.351043 290.36149 
L 79.461832 290.412826 
L 79.732107 290.52786 
L 79.732107 290.52786 
L 79.840866 290.573209 
L 80.12661 290.683879 
L 80.254395 290.732183 
L 80.564505 290.84311 
L 81.061973 291.0025 
L 81.176819 291.036939 
L 81.574521 291.147629 
L 81.574521 291.147688 
L 81.710876 291.184638 
L 82.137797 291.295609 
L 82.137797 291.295609 
L 82.248437 291.323491 
L 82.718882 291.434534 
L 82.829049 291.459909 
L 83.354606 291.570806 
L 83.464899 291.593617 
L 84.100343 291.712832 
L 85.478493 291.942768 
L 86.327058 292.064926 
L 92.075993 292.651488 
L 93.639417 292.762565 
L 94.699088 292.829897 
L 96.587315 292.940963 
L 96.699568 292.947151 
L 98.856127 293.058219 
L 100.851497 293.149599 
L 103.624711 293.260689 
L 128.098559 293.833558 
L 136.244322 293.944654 
L 136.244322 293.944655 
L 136.816931 293.951655 
L 148.477712 294.076107 
L 148.477712 294.076107 
L 148.5885 294.077145 
L 166.044202 294.216922 
L 171.098517 294.249764 
L 265.813555 294.601854 
L 340.710147 294.728116 
L 340.710147 294.728116 
L 340.820941 294.72827 
L 398.486922 294.794243 
L 398.486922 294.794243 
" clip-path="url(#pe7abe03f4b)" style="fill: none; stroke: #d62728; stroke-width: 1.5; stroke-linecap: square"/>
   </g>
   <g id="line2d_37">
    <path d="M 73.832727 295.488 
L 73.838409 295.488 
L 73.838409 295.488 
L 73.84076 244.55342 
L 73.948444 264.870619 
L 73.949603 264.917161 
L 74.160415 274.692346 
L 74.201965 275.795115 
L 74.438223 279.667557 
L 74.816732 282.87509 
L 74.837127 282.973869 
L 74.837127 282.97926 
L 75.028068 283.838307 
L 75.459613 285.14764 
L 75.506822 285.258141 
L 75.679606 285.584768 
L 75.749407 285.693212 
L 75.749407 285.693212 
L 75.860325 285.885404 
L 76.305237 286.653494 
L 76.384918 286.764001 
L 76.384918 286.764595 
L 77.981813 288.465082 
L 78.126284 288.578449 
L 78.126284 288.578449 
L 78.237295 288.662624 
L 78.994344 289.164053 
L 79.191557 289.273595 
L 79.191557 289.274717 
L 79.611579 289.490984 
L 79.965804 289.659574 
L 80.243784 289.78492 
L 80.354924 289.833391 
L 80.62214 289.944499 
L 80.93013 290.064509 
L 82.60289 290.59215 
L 83.060222 290.7028 
L 83.060222 290.702814 
L 83.173852 290.729004 
L 83.685588 290.839991 
L 83.685588 290.839991 
L 83.796376 290.863791 
L 84.352347 290.974554 
L 84.352347 290.974622 
L 84.512911 291.005065 
L 85.122184 291.116033 
L 85.122184 291.116138 
L 89.643487 291.72297 
L 91.084465 291.834066 
L 91.084465 291.834066 
L 91.194877 291.841889 
L 92.698086 291.934059 
L 95.368784 292.077206 
L 98.072249 292.207775 
L 100.394747 292.318867 
L 100.394747 292.318867 
L 100.505129 292.324291 
L 102.801715 292.43538 
L 102.912849 292.440661 
L 107.04047 292.622418 
L 111.787038 292.801532 
L 115.319787 292.912639 
L 122.762635 293.097749 
L 134.439329 293.319688 
L 140.226493 293.414545 
L 148.005745 293.525648 
L 148.005745 293.525648 
L 148.116505 293.527111 
L 270.493045 294.24369 
L 314.276907 294.354801 
L 316.121238 294.358923 
L 379.408981 294.480735 
L 379.645477 294.481126 
L 398.485448 294.510737 
L 398.485448 294.510737 
" clip-path="url(#pe7abe03f4b)" style="fill: none; stroke: #9467bd; stroke-width: 1.5; stroke-linecap: square"/>
   </g>
   <g id="line2d_38">
    <path d="M 73.832727 295.488 
L 73.835162 295.488 
L 73.835162 295.488 
L 73.840032 233.582896 
L 73.945438 271.220604 
L 73.94798 271.288919 
L 73.94798 271.288919 
L 74.057603 277.963267 
L 74.066479 278.197994 
L 74.186792 281.390455 
L 74.194483 281.530139 
L 74.313746 283.346944 
L 74.424883 284.537899 
L 74.63715 286.009965 
L 74.659757 286.115463 
L 74.805096 286.756616 
L 74.831246 286.862165 
L 74.965713 287.381325 
L 74.997468 287.490397 
L 75.936785 289.485803 
L 76.023867 289.600582 
L 76.138002 289.747047 
L 76.289145 289.926075 
L 78.523986 291.414148 
L 78.808949 291.52517 
L 78.918823 291.567959 
L 79.226863 291.678857 
L 79.226863 291.679025 
L 80.060819 291.942402 
L 80.475971 292.05344 
L 80.475971 292.053461 
L 80.697954 292.109483 
L 81.257983 292.238656 
L 81.454805 292.279449 
L 82.355581 292.441962 
L 83.980614 292.678154 
L 84.932261 292.792544 
L 84.932261 292.792544 
L 85.04324 292.804952 
L 86.073684 292.916042 
L 86.18556 292.927777 
L 88.498592 293.128269 
L 88.498592 293.128269 
L 88.608898 293.135856 
L 90.828237 293.246954 
L 95.755938 293.424369 
L 98.614828 293.535458 
L 98.614828 293.535458 
L 98.725249 293.539181 
L 103.889635 293.688586 
L 104.003147 293.691141 
L 109.088185 293.802248 
L 109.088185 293.802248 
L 109.198975 293.804728 
L 125.605816 294.071585 
L 125.720219 294.073142 
L 139.743678 294.229984 
L 140.162046 294.233968 
L 157.603346 294.371739 
L 216.199728 294.625975 
L 263.904962 294.737084 
L 293.963068 294.790063 
L 398.486997 294.908062 
L 398.486997 294.908062 
" clip-path="url(#pe7abe03f4b)" style="fill: none; stroke: #8c564b; stroke-width: 1.5; stroke-linecap: square"/>
   </g>
   <g id="line2d_39">
    <path d="M 73.832727 295.488 
L 73.836785 295.488 
L 73.836785 295.488 
L 73.857718 236.340249 
L 73.952639 264.984189 
L 74.321432 278.24529 
L 74.631783 281.405187 
L 74.648739 281.512034 
L 74.796951 282.364766 
L 74.882985 282.841462 
L 75.001638 283.399705 
L 75.030297 283.517193 
L 75.030297 283.517193 
L 75.140853 283.95409 
L 75.480755 285.014306 
L 75.480755 285.014306 
L 75.591862 285.318157 
L 75.64116 285.434216 
L 75.752618 285.672074 
L 75.810362 285.78309 
L 75.941435 286.039176 
L 76.002941 286.14779 
L 76.134308 286.384628 
L 76.19922 286.495612 
L 76.31078 286.66639 
L 76.394391 286.782785 
L 76.53755 286.967554 
L 76.838623 287.322475 
L 77.654723 288.115571 
L 77.795136 288.225991 
L 77.795136 288.225991 
L 77.905519 288.308817 
L 78.105181 288.449726 
L 78.269396 288.565797 
L 78.725272 288.868539 
L 79.086479 289.091088 
L 79.277037 289.20195 
L 79.427306 289.286493 
L 79.637732 289.397521 
L 81.380946 290.1226 
L 81.723683 290.233673 
L 81.834049 290.268031 
L 82.209627 290.378902 
L 82.209627 290.378902 
L 82.320687 290.411026 
L 82.729008 290.52188 
L 82.837889 290.55046 
L 83.279653 290.661231 
L 83.391344 290.688355 
L 83.931108 290.813807 
L 84.439598 290.924542 
L 84.439598 290.924854 
L 85.362823 291.10894 
L 85.47378 291.129854 
L 86.227633 291.261841 
L 86.227633 291.261841 
L 86.33797 291.280126 
L 87.075793 291.391173 
L 87.075793 291.391177 
L 87.195897 291.408019 
L 88.705158 291.606785 
L 89.070421 291.650973 
L 90.060079 291.762059 
L 90.171148 291.774408 
L 91.224241 291.885463 
L 91.335818 291.89667 
L 92.578282 292.016582 
L 92.578282 292.016582 
L 92.687853 292.02664 
L 94.093388 292.145619 
L 112.256689 293.050072 
L 116.018342 293.161161 
L 116.018342 293.161179 
L 122.953179 293.331008 
L 123.136327 293.334976 
L 128.660797 293.44607 
L 128.660797 293.44607 
L 128.771364 293.448173 
L 135.337724 293.55928 
L 135.337724 293.55928 
L 135.447331 293.561019 
L 143.831138 293.679858 
L 143.984087 293.681839 
L 155.986896 293.818298 
L 156.173648 293.820195 
L 168.614335 293.931296 
L 169.883811 293.941343 
L 175.399286 293.982333 
L 192.497219 294.09344 
L 192.497219 294.093444 
L 225.704918 294.238371 
L 398.486892 294.595381 
L 398.486892 294.595381 
" clip-path="url(#pe7abe03f4b)" style="fill: none; stroke: #e377c2; stroke-width: 1.5; stroke-linecap: square"/>
   </g>
   <g id="line2d_40">
    <path d="M 73.832727 295.488 
L 73.83638 295.488 
L 73.83638 295.488 
L 73.839626 233.698371 
L 73.947454 270.258768 
L 74.322805 282.72528 
L 74.33026 282.815096 
L 74.33026 282.831167 
L 74.593638 285.219838 
L 74.611157 285.329843 
L 74.722369 285.992432 
L 75.62198 288.306897 
L 75.711911 288.417866 
L 75.823345 288.530792 
L 76.098005 288.789305 
L 76.098005 288.789305 
L 76.208999 288.888828 
L 76.376396 289.032407 
L 76.528949 289.142096 
L 76.640269 289.21621 
L 76.829584 289.342315 
L 77.49199 289.754235 
L 77.704003 289.865296 
L 78.011437 289.999569 
L 78.011437 289.999569 
L 78.122112 290.046606 
L 78.374424 290.157159 
L 78.486144 290.205304 
L 78.741409 290.31625 
L 78.85273 290.363533 
L 79.119727 290.474472 
L 79.119727 290.474472 
L 79.230515 290.519334 
L 79.838569 290.727117 
L 80.023199 290.786614 
L 80.495413 290.934042 
L 80.640203 290.976207 
L 81.05428 291.087258 
L 81.167486 291.114132 
L 81.704516 291.22878 
L 81.827637 291.255453 
L 82.357781 291.366529 
L 82.469133 291.390401 
L 83.832088 291.632712 
L 83.832088 291.632712 
L 83.943079 291.650874 
L 84.089791 291.674272 
L 84.80524 291.785209 
L 84.80524 291.785382 
L 86.323424 291.994905 
L 87.302645 292.111907 
L 87.302645 292.111907 
L 87.412961 292.124741 
L 88.474851 292.235797 
L 88.58706 292.246018 
L 89.853035 292.357091 
L 89.96517 292.366606 
L 91.33951 292.477708 
L 94.079377 292.67121 
L 94.190661 292.678575 
L 95.997464 292.789682 
L 100.204012 293.010058 
L 100.204012 293.010058 
L 100.314801 293.015186 
L 106.498928 293.255817 
L 109.071778 293.331937 
L 113.341971 293.442994 
L 113.341971 293.443046 
L 119.412425 293.573702 
L 121.78501 293.618325 
L 128.242773 293.729432 
L 139.169054 293.882812 
L 139.169054 293.882812 
L 139.27995 293.884169 
L 143.708374 293.935446 
L 158.173991 294.074512 
L 173.282944 294.18562 
L 173.282944 294.18562 
L 173.394015 294.186341 
L 192.889512 294.297449 
L 193.018417 294.298096 
L 226.847709 294.437335 
L 230.283359 294.448933 
L 276.806359 294.573872 
L 280.077659 294.581137 
L 301.121769 294.624088 
L 398.486892 294.763176 
L 398.486892 294.763176 
" clip-path="url(#pe7abe03f4b)" style="fill: none; stroke: #7f7f7f; stroke-width: 1.5; stroke-linecap: square"/>
   </g>
   <g id="line2d_41">
    <path d="M 73.832727 295.488 
L 73.835568 295.488 
L 73.835568 295.488 
L 73.83606 222.232184 
L 73.946356 270.850658 
L 73.950175 270.952737 
L 74.061171 277.396532 
L 74.064065 277.496471 
L 74.213854 281.411871 
L 74.219966 281.509478 
L 74.331087 283.189612 
L 74.342029 283.292663 
L 74.342029 283.292663 
L 74.452412 284.432982 
L 74.94544 287.087276 
L 74.981193 287.196032 
L 74.981193 287.196032 
L 75.090651 287.52174 
L 76.08038 289.445127 
L 76.166495 289.556083 
L 76.279906 289.694545 
L 76.720253 290.150871 
L 76.845541 290.26181 
L 76.95547 290.356654 
L 77.122093 290.485126 
L 77.248093 290.577766 
L 79.927108 291.748957 
L 80.320096 291.859973 
L 80.803257 291.982791 
L 81.273639 292.09381 
L 81.385314 292.118978 
L 82.145961 292.276798 
L 83.971049 292.579088 
L 84.206949 292.611579 
L 90.659119 293.165287 
L 92.89708 293.276369 
L 93.008641 293.282259 
L 95.653167 293.393368 
L 95.653167 293.393368 
L 95.762779 293.397627 
L 98.668833 293.508721 
L 109.363076 293.81801 
L 114.715499 293.929107 
L 155.597993 294.379211 
L 175.185405 294.490321 
L 184.817471 294.534419 
L 216.958318 294.645527 
L 216.958318 294.645527 
L 217.068342 294.645855 
L 264.180948 294.756964 
L 264.180948 294.756965 
L 297.242068 294.808251 
L 398.485674 294.920279 
L 398.485674 294.920279 
" clip-path="url(#pe7abe03f4b)" style="fill: none; stroke: #bcbd22; stroke-width: 1.5; stroke-linecap: square"/>
   </g>
   <g id="line2d_42">
    <path d="M 73.832727 295.488 
L 73.834756 295.488 
L 73.834756 295.488 
L 73.834756 177.32329 
L 73.945735 271.782985 
L 74.155698 281.100758 
L 74.162468 281.198837 
L 74.399254 283.601035 
L 74.480345 284.067562 
L 74.69015 284.920631 
L 74.760933 285.065424 
L 74.919914 285.437485 
L 75.005337 285.599963 
L 75.11643 285.86086 
L 77.365269 288.566473 
L 77.543614 288.696078 
L 77.768785 288.838656 
L 78.258581 289.127134 
L 78.501671 289.266345 
L 78.71145 289.385771 
L 78.823234 289.451026 
L 79.02436 289.562099 
L 79.02436 289.562099 
L 79.135148 289.619823 
L 79.679756 289.881356 
L 81.293625 290.512301 
L 81.640264 290.623151 
L 81.640264 290.623151 
L 81.749977 290.657014 
L 82.132953 290.768036 
L 82.713695 290.924108 
L 83.654697 291.147453 
L 83.975573 291.216488 
L 85.433447 291.492332 
L 85.433447 291.492332 
L 85.544179 291.511382 
L 86.230474 291.622193 
L 86.230474 291.622193 
L 86.34045 291.639368 
L 87.099422 291.75034 
L 87.409993 291.793469 
L 88.271739 291.904366 
L 88.271739 291.904366 
L 88.381822 291.918098 
L 89.390986 292.029557 
L 89.390986 292.029557 
L 89.501722 292.041355 
L 94.259855 292.464305 
L 95.86029 292.575391 
L 99.356664 292.781674 
L 99.356664 292.781674 
L 99.467452 292.787547 
L 101.714992 292.898623 
L 102.204367 292.921121 
L 104.887029 293.034157 
L 107.180016 293.118491 
L 110.578833 293.229601 
L 116.253989 293.383902 
L 116.371114 293.386762 
L 121.450964 293.497843 
L 122.336674 293.51482 
L 131.505576 293.65338 
L 131.656667 293.655371 
L 150.036928 293.841133 
L 150.866606 293.848922 
L 159.463538 293.920158 
L 175.341578 294.031268 
L 244.506073 294.35396 
L 283.690659 294.465067 
L 283.690659 294.465068 
L 288.560807 294.476529 
L 345.250035 294.587639 
L 345.250035 294.587639 
L 345.36036 294.587822 
L 398.486022 294.664491 
L 398.486022 294.664491 
" clip-path="url(#pe7abe03f4b)" style="fill: none; stroke: #17becf; stroke-width: 1.5; stroke-linecap: square"/>
   </g>
   <g id="line2d_43">
    <path d="M 73.832727 295.488 
L 73.834756 295.488 
L 73.834756 295.488 
L 73.839392 218.751943 
L 73.948791 267.96537 
L 73.950415 268.05619 
L 73.950415 268.05619 
L 74.061014 275.794572 
L 74.064449 275.896846 
L 74.064449 275.896846 
L 74.172818 279.368092 
L 74.182013 279.508321 
L 74.292775 281.585953 
L 74.790024 285.805222 
L 74.812372 285.906329 
L 74.812372 285.906329 
L 74.922636 286.384509 
L 74.952327 286.493697 
L 75.063772 286.900909 
L 75.13865 287.147198 
L 75.13865 287.147198 
L 75.247854 287.481277 
L 75.290394 287.591811 
L 75.408114 287.889181 
L 75.456406 287.998788 
L 75.456406 287.998788 
L 75.567413 288.232554 
L 75.801257 288.674534 
L 75.867949 288.783055 
L 75.97919 288.959521 
L 76.054176 289.069357 
L 76.054176 289.069357 
L 76.163846 289.223882 
L 76.263487 289.350681 
L 76.373555 289.483469 
L 76.522697 289.649032 
L 76.63437 289.764665 
L 76.770445 289.875639 
L 76.770445 289.875639 
L 76.88121 289.953759 
L 77.074607 290.064229 
L 77.18533 290.134268 
L 77.378821 290.248514 
L 77.489555 290.30178 
L 78.240995 290.626115 
L 78.400105 290.69843 
L 78.638719 290.809492 
L 78.775999 290.869981 
L 79.039781 290.980754 
L 79.039781 290.981021 
L 81.125686 291.663074 
L 81.572209 291.774035 
L 81.755922 291.817106 
L 82.897083 292.053912 
L 83.273182 292.122472 
L 83.938412 292.233516 
L 83.938412 292.233546 
L 85.432047 292.445074 
L 86.417738 292.564598 
L 86.650252 292.591224 
L 87.693973 292.70224 
L 87.805048 292.713521 
L 88.999133 292.824749 
L 98.072749 293.378536 
L 100.862655 293.489606 
L 100.862655 293.489606 
L 100.973318 293.493529 
L 104.352286 293.60459 
L 104.352286 293.604615 
L 109.434347 293.742292 
L 115.388106 293.871598 
L 115.608872 293.875886 
L 118.829485 293.934587 
L 126.168081 294.045693 
L 126.303783 294.047431 
L 136.229712 294.15854 
L 136.229712 294.158541 
L 138.094041 294.176761 
L 153.548285 294.302704 
L 153.730071 294.304047 
L 175.308776 294.427348 
L 175.618094 294.428794 
L 203.0002 294.539902 
L 203.0002 294.539904 
L 296.249109 294.762283 
L 398.487076 294.867408 
L 398.487076 294.867408 
" clip-path="url(#pe7abe03f4b)" style="fill: none; stroke: #1f77b4; stroke-width: 1.5; stroke-linecap: square"/>
   </g>
   <g id="line2d_44">
    <path d="M 73.832727 295.488 
L 73.835162 295.488 
L 73.835162 295.488 
L 73.837099 197.305733 
L 73.944327 269.314498 
L 73.947196 269.410261 
L 74.057956 276.570075 
L 74.05902 276.571014 
L 74.169962 279.938433 
L 74.181158 280.167998 
L 74.293141 282.143496 
L 74.301447 282.249137 
L 74.301447 282.249137 
L 74.41183 283.55797 
L 74.425628 283.674496 
L 74.54167 284.668804 
L 74.735211 285.869002 
L 75.12142 287.407793 
L 75.174157 287.563661 
L 75.285161 287.869389 
L 75.334255 287.979546 
L 75.334255 287.979546 
L 75.445278 288.231921 
L 75.496091 288.342754 
L 76.074601 289.317619 
L 76.157719 289.427185 
L 76.795237 290.108069 
L 76.92202 290.219044 
L 77.037068 290.315937 
L 77.181133 290.426586 
L 77.181133 290.426586 
L 77.291922 290.508607 
L 77.527124 290.669321 
L 77.928245 290.880387 
L 77.928245 290.880387 
L 78.038286 290.930563 
L 78.295916 291.040792 
L 78.295916 291.04137 
L 81.076057 291.791107 
L 82.957144 292.080757 
L 82.957144 292.080757 
L 83.067932 292.097101 
L 83.924209 292.208211 
L 83.924209 292.208211 
L 84.033467 292.222025 
L 84.920898 292.333077 
L 84.920898 292.333077 
L 85.030875 292.347028 
L 94.62221 293.149608 
L 98.212148 293.32418 
L 98.323638 293.329101 
L 101.059071 293.440182 
L 101.059071 293.440182 
L 101.16991 293.444358 
L 106.369202 293.602806 
L 106.369202 293.602806 
L 106.479842 293.605835 
L 111.139967 293.716917 
L 111.252079 293.719347 
L 117.14154 293.83045 
L 130.127912 294.013222 
L 142.296981 294.124328 
L 145.033006 294.140897 
L 162.794573 294.252007 
L 162.794573 294.252007 
L 162.904955 294.252652 
L 190.796246 294.382294 
L 201.915854 294.422147 
L 248.512307 294.534362 
L 308.922196 294.652035 
L 389.656287 294.763145 
L 389.656287 294.763145 
L 389.767076 294.763273 
L 398.485674 294.773069 
L 398.485674 294.773069 
" clip-path="url(#pe7abe03f4b)" style="fill: none; stroke: #ff7f0e; stroke-width: 1.5; stroke-linecap: square"/>
   </g>
   <g id="line2d_45">
    <path d="M 73.832727 295.488 
L 73.834756 295.488 
L 73.834756 295.488 
L 73.835018 209.059811 
L 73.944759 272.362613 
L 73.946356 272.362613 
L 73.946356 272.43697 
L 74.275772 282.170018 
L 74.297184 282.462786 
L 74.408343 283.788599 
L 74.420222 283.896038 
L 74.531304 284.827775 
L 74.815556 286.234891 
L 74.844838 286.343859 
L 74.844838 286.345879 
L 74.929248 286.65845 
L 75.112685 287.286552 
L 75.518487 288.32315 
L 75.57304 288.433507 
L 76.238131 289.442446 
L 76.335656 289.553362 
L 76.447606 289.672954 
L 76.560231 289.783872 
L 76.560231 289.783872 
L 76.671046 289.882796 
L 76.806389 289.993716 
L 77.159179 290.286226 
L 77.308154 290.39709 
L 77.308154 290.39709 
L 77.418943 290.47657 
L 77.687326 290.654375 
L 77.872188 290.765457 
L 78.131154 290.910534 
L 78.582801 291.132381 
L 78.707821 291.187963 
L 78.974444 291.298874 
L 78.974444 291.298946 
L 79.119727 291.357451 
L 79.419221 291.468411 
L 79.419221 291.468411 
L 79.530287 291.507518 
L 79.865246 291.6185 
L 81.617927 292.07992 
L 82.155606 292.190948 
L 85.401193 292.685181 
L 86.385496 292.796149 
L 86.385496 292.796186 
L 86.681744 292.826587 
L 87.843802 292.93769 
L 109.332969 293.856915 
L 114.75106 293.968021 
L 114.869974 293.970234 
L 127.237592 294.155943 
L 129.011184 294.177407 
L 231.397767 294.679418 
L 286.32963 294.790527 
L 286.524828 294.790836 
L 398.486798 294.908241 
L 398.486798 294.908241 
" clip-path="url(#pe7abe03f4b)" style="fill: none; stroke: #2ca02c; stroke-width: 1.5; stroke-linecap: square"/>
   </g>
   <g id="line2d_46">
    <path d="M 73.832727 295.488 
L 73.83638 295.488 
L 73.83638 295.488 
L 73.843275 224.300056 
L 73.95162 260.46419 
L 73.972265 262.808883 
L 74.083373 270.917115 
L 74.193659 274.682463 
L 74.211683 275.055607 
L 74.329449 277.306194 
L 74.351468 277.655951 
L 74.46269 279.240414 
L 74.471891 279.348702 
L 74.471891 279.348702 
L 74.582311 280.583272 
L 74.59526 280.691775 
L 74.720766 281.775917 
L 74.734429 281.878354 
L 74.86145 282.74546 
L 74.879738 282.854306 
L 74.879738 282.854306 
L 74.989715 283.470602 
L 75.012035 283.577358 
L 75.012035 283.577358 
L 75.122999 284.099692 
L 75.148796 284.209606 
L 75.148796 284.209606 
L 75.259537 284.656028 
L 75.288803 284.762869 
L 75.288803 284.76315 
L 75.40577 285.175064 
L 75.442085 285.279357 
L 75.552991 285.608941 
L 75.593572 285.718997 
L 75.593572 285.718997 
L 75.704346 286.010812 
L 75.753819 286.129516 
L 75.865582 286.387604 
L 76.069289 286.811814 
L 76.157062 286.975741 
L 76.357285 287.319581 
L 76.49733 287.538648 
L 76.790792 287.937655 
L 76.900773 288.076185 
L 76.995978 288.187132 
L 77.113151 288.3177 
L 77.350812 288.559627 
L 77.472901 288.670472 
L 77.584494 288.766274 
L 77.725791 288.877235 
L 78.053223 289.122299 
L 78.20623 289.232748 
L 78.20623 289.233313 
L 78.619297 289.507889 
L 78.803189 289.618956 
L 78.803189 289.618956 
L 78.913977 289.684286 
L 79.12707 289.800914 
L 79.23782 289.85996 
L 79.459035 289.971067 
L 79.578066 290.028948 
L 79.818714 290.139448 
L 79.996585 290.217804 
L 80.290512 290.338312 
L 80.552996 290.439524 
L 80.859875 290.550266 
L 80.859875 290.550266 
L 80.970664 290.588211 
L 81.317319 290.699203 
L 81.732251 290.821008 
L 82.144709 290.931819 
L 82.820264 291.098082 
L 83.315481 291.209057 
L 83.315481 291.209158 
L 83.638315 291.277757 
L 84.618645 291.468511 
L 88.495045 291.992138 
L 89.682674 292.103176 
L 90.047856 292.135101 
L 91.324721 292.246187 
L 91.43561 292.255711 
L 92.807642 292.36682 
L 97.022661 292.659669 
L 99.466641 292.79389 
L 99.466641 292.79389 
L 99.577023 292.799538 
L 101.936061 292.910643 
L 103.382716 292.972413 
L 107.663202 293.134225 
L 111.228355 293.245334 
L 123.853992 293.548303 
L 189.100469 294.204664 
L 213.1278 294.315769 
L 213.1278 294.315774 
L 253.973652 294.453633 
L 254.165007 294.45418 
L 300.800361 294.565289 
L 300.800361 294.56529 
L 398.486892 294.71405 
L 398.486892 294.71405 
" clip-path="url(#pe7abe03f4b)" style="fill: none; stroke: #d62728; stroke-width: 1.5; stroke-linecap: square"/>
   </g>
   <g id="line2d_47">
    <path d="M 73.832727 295.488 
L 73.836785 295.488 
L 73.836785 295.488 
L 73.850484 240.834436 
L 73.947574 267.337243 
L 74.352823 281.488087 
L 74.36232 281.602443 
L 74.492047 283.016217 
L 74.555084 283.567374 
L 74.555084 283.567374 
L 74.665769 284.377254 
L 74.930574 285.697079 
L 74.957305 285.804664 
L 75.260795 286.723935 
L 75.302907 286.829585 
L 75.412172 287.095716 
L 75.470204 287.203673 
L 75.470204 287.203673 
L 75.580875 287.389825 
L 75.651783 287.499828 
L 77.23876 289.469709 
L 77.368902 289.580375 
L 77.635244 289.788444 
L 77.788237 289.898627 
L 77.788237 289.899152 
L 78.48199 290.331251 
L 78.719996 290.457396 
L 78.719996 290.457396 
L 78.829813 290.513408 
L 79.063969 290.624509 
L 79.42793 290.782068 
L 79.742735 290.893123 
L 80.173637 291.029735 
L 80.173637 291.029735 
L 80.284425 291.064951 
L 80.656461 291.175904 
L 80.767349 291.207119 
L 87.643939 292.260027 
L 88.756494 292.371101 
L 89.460352 292.438648 
L 91.346624 292.595272 
L 91.346624 292.595272 
L 91.4574 292.602995 
L 93.15931 292.714091 
L 93.272231 292.72038 
L 121.022185 293.594914 
L 129.761605 293.706024 
L 130.148121 293.710087 
L 133.234444 293.744515 
L 157.492678 293.94309 
L 174.436685 294.054195 
L 174.436685 294.054195 
L 174.547627 294.054879 
L 194.90291 294.165987 
L 194.90291 294.165987 
L 195.013292 294.166493 
L 224.109646 294.277603 
L 224.109646 294.277603 
L 224.220638 294.27795 
L 265.980346 294.38906 
L 265.980346 294.38906 
L 266.091135 294.389319 
L 398.485268 294.607123 
L 398.485268 294.607123 
" clip-path="url(#pe7abe03f4b)" style="fill: none; stroke: #9467bd; stroke-width: 1.5; stroke-linecap: square"/>
   </g>
   <g id="line2d_48">
    <path d="M 73.832727 295.488 
L 73.834756 295.488 
L 73.834756 295.488 
L 73.834756 175.259649 
L 73.94445 272.593727 
L 73.948385 272.846023 
L 74.327334 283.516513 
L 74.34521 283.623306 
L 74.459469 284.081004 
L 74.5946 284.715069 
L 74.621638 284.81909 
L 74.621638 284.820149 
L 74.753723 285.445938 
L 74.775037 285.5456 
L 74.775037 285.555375 
L 74.821723 285.765428 
L 75.005948 286.532653 
L 75.036662 286.640894 
L 75.147539 287.020961 
L 75.185725 287.136841 
L 75.185725 287.136841 
L 75.296729 287.454887 
L 75.445449 287.824943 
L 75.6392 288.246222 
L 75.695808 288.355951 
L 75.806807 288.560858 
L 75.872493 288.67173 
L 75.987279 288.856893 
L 76.062517 288.967975 
L 76.174004 289.12629 
L 76.268354 289.248091 
L 76.379893 289.387701 
L 76.477344 289.498811 
L 76.477344 289.498811 
L 76.588233 289.620458 
L 76.858344 289.886692 
L 76.980197 289.995549 
L 77.103593 290.09928 
L 77.247448 290.210356 
L 78.50531 290.928247 
L 78.752918 291.038993 
L 79.269099 291.252912 
L 79.584137 291.363837 
L 79.764166 291.425639 
L 80.604477 291.684244 
L 81.002723 291.790455 
L 81.487828 291.901922 
L 81.598791 291.923233 
L 87.445817 292.714619 
L 99.78756 293.467714 
L 102.952625 293.578808 
L 103.064678 293.582495 
L 106.858177 293.693601 
L 109.48155 293.760216 
L 114.674117 293.871325 
L 166.698138 294.407412 
L 189.51704 294.518515 
L 189.669072 294.519147 
L 222.187691 294.630257 
L 222.187691 294.630257 
L 226.998955 294.643286 
L 398.485268 294.870475 
L 398.485268 294.870475 
" clip-path="url(#pe7abe03f4b)" style="fill: none; stroke: #8c564b; stroke-width: 1.5; stroke-linecap: square"/>
   </g>
   <g id="line2d_49">
    <path d="M 73.832727 295.488 
L 73.835974 295.488 
L 73.835974 295.488 
L 73.845204 246.343333 
L 73.947606 269.175855 
L 74.376113 281.331408 
L 74.766519 284.313835 
L 74.801095 284.50006 
L 74.919952 285.074852 
L 75.143274 285.878639 
L 75.254093 286.149312 
L 75.497485 286.691889 
L 75.610079 286.917852 
L 75.66977 287.028935 
L 76.070423 287.741489 
L 76.141833 287.852031 
L 76.141833 287.852031 
L 76.252776 288.014882 
L 76.335814 288.12418 
L 76.335814 288.125646 
L 76.480143 288.304697 
L 76.642648 288.497499 
L 76.74253 288.607363 
L 76.853903 288.725701 
L 76.980623 288.843834 
L 77.091834 288.940619 
L 77.229832 289.051406 
L 77.229832 289.051406 
L 77.340629 289.138041 
L 77.485903 289.248098 
L 77.485903 289.248098 
L 77.596877 289.330756 
L 77.767165 289.447002 
L 78.259798 289.749909 
L 78.63698 289.954497 
L 78.747577 290.012133 
L 78.984747 290.123081 
L 79.097007 290.174473 
L 79.339141 290.285255 
L 79.450041 290.333969 
L 79.953904 290.53876 
L 81.708558 291.112811 
L 82.128958 291.223682 
L 82.240324 291.252052 
L 82.70229 291.363155 
L 82.70229 291.363155 
L 82.812871 291.388531 
L 83.55997 291.546321 
L 86.391787 292.016139 
L 87.248266 292.127185 
L 87.248266 292.127185 
L 87.358481 292.140755 
L 88.543589 292.274588 
L 88.660353 292.287229 
L 89.747555 292.398321 
L 93.118026 292.676373 
L 94.797631 292.787448 
L 95.662906 292.838418 
L 97.788896 292.949529 
L 97.929389 292.956437 
L 100.413384 293.067534 
L 100.525872 293.072157 
L 103.367224 293.183204 
L 103.479371 293.187378 
L 104.951523 293.239903 
L 110.675589 293.413462 
L 112.5102 293.459659 
L 119.687685 293.6163 
L 120.136894 293.624923 
L 126.544455 293.736023 
L 126.544455 293.73603 
L 130.441876 293.794357 
L 138.981278 293.905459 
L 139.09763 293.906854 
L 161.702217 294.120069 
L 161.904098 294.121635 
L 165.438079 294.148138 
L 219.712394 294.416869 
L 292.568735 294.601069 
L 398.486243 294.757695 
L 398.486243 294.757695 
" clip-path="url(#pe7abe03f4b)" style="fill: none; stroke: #e377c2; stroke-width: 1.5; stroke-linecap: square"/>
   </g>
   <g id="line2d_50">
    <path d="M 73.832727 295.488 
L 73.83638 295.488 
L 73.83638 295.488 
L 73.842917 239.61761 
L 73.948957 261.32964 
L 73.950866 261.412978 
L 74.111524 272.823306 
L 74.659 282.252399 
L 74.672365 282.344894 
L 74.672365 282.346574 
L 74.789718 283.183631 
L 74.808513 283.294684 
L 74.983783 284.256981 
L 75.007078 284.364193 
L 75.123363 284.882573 
L 75.204393 285.193497 
L 75.204393 285.193497 
L 75.313964 285.587941 
L 75.349605 285.7015 
L 76.474315 288.053321 
L 76.587827 288.20629 
L 76.587827 288.20629 
L 76.698615 288.348751 
L 76.852339 288.532144 
L 76.961662 288.64825 
L 77.203234 288.878789 
L 77.314648 288.983645 
L 77.477786 289.130697 
L 77.683942 289.301983 
L 77.825167 289.412457 
L 77.975139 289.523449 
L 78.653036 289.956578 
L 78.653036 289.956578 
L 78.764015 290.019556 
L 79.153267 290.222586 
L 79.266206 290.278694 
L 79.508119 290.389769 
L 79.865694 290.543395 
L 80.147207 290.654288 
L 80.839867 290.898175 
L 81.193692 291.009014 
L 81.583929 291.123389 
L 82.049329 291.248062 
L 82.049329 291.248062 
L 82.159971 291.276513 
L 82.700574 291.403602 
L 83.007871 291.471174 
L 83.541522 291.582209 
L 83.541522 291.582209 
L 83.652352 291.604234 
L 84.24141 291.715309 
L 85.131112 291.865972 
L 85.131112 291.865972 
L 85.241636 291.883563 
L 85.983848 291.994644 
L 86.528727 292.070718 
L 88.0737 292.260832 
L 88.0737 292.260832 
L 88.184696 292.273492 
L 89.23775 292.384508 
L 89.349103 292.395641 
L 99.108822 293.037681 
L 101.926774 293.148783 
L 102.051674 293.153356 
L 131.213961 293.835433 
L 139.81625 293.94653 
L 140.495696 293.954388 
L 144.838621 294.001237 
L 157.13511 294.112341 
L 219.554743 294.446078 
L 385.645164 294.773067 
L 398.486219 294.787145 
L 398.486219 294.787145 
" clip-path="url(#pe7abe03f4b)" style="fill: none; stroke: #7f7f7f; stroke-width: 1.5; stroke-linecap: square"/>
   </g>
   <g id="line2d_51">
    <path d="M 73.832727 295.488 
L 73.833539 295.488 
L 73.833539 53.568 
L 73.944327 242.222194 
L 73.944792 242.225508 
L 74.054801 257.375294 
L 74.056803 257.467409 
L 74.218286 266.496161 
L 74.285448 268.664473 
L 74.409186 271.736786 
L 74.417212 271.844918 
L 74.590326 274.571879 
L 74.598376 274.682206 
L 74.639494 275.185104 
L 75.004556 278.565161 
L 75.020522 278.675971 
L 75.132216 279.42024 
L 75.152512 279.527691 
L 75.263686 280.151345 
L 75.285151 280.26096 
L 75.285151 280.26096 
L 75.396055 280.803521 
L 75.427383 280.952485 
L 75.528236 281.37961 
L 75.666428 281.918505 
L 75.700614 282.041208 
L 75.811091 282.425711 
L 75.952834 282.865856 
L 76.064308 283.183273 
L 76.450808 284.100376 
L 76.508693 284.210893 
L 76.508693 284.210893 
L 76.619481 284.419933 
L 76.684091 284.532826 
L 76.862043 284.81832 
L 76.942512 284.937719 
L 76.942512 284.937719 
L 77.052895 285.094753 
L 77.172611 285.255879 
L 77.172611 285.255879 
L 77.283293 285.40484 
L 77.36866 285.515306 
L 79.197148 287.131854 
L 79.698356 287.394273 
L 80.894776 288.003835 
L 80.894776 288.003835 
L 81.005671 288.057081 
L 81.245557 288.168031 
L 82.323754 288.625833 
L 82.616778 288.73683 
L 82.735804 288.780388 
L 83.192472 288.940637 
L 83.303698 288.97865 
L 83.724697 289.112524 
L 83.860991 289.153445 
L 84.243225 289.264441 
L 84.767093 289.410623 
L 85.191579 289.521715 
L 85.191579 289.521715 
L 85.302054 289.549715 
L 85.757262 289.660741 
L 85.867388 289.687112 
L 86.819316 289.894228 
L 86.819316 289.894228 
L 86.929698 289.917059 
L 87.489184 290.028009 
L 87.600734 290.049369 
L 87.929071 290.110744 
L 88.551116 290.221837 
L 88.948644 290.289358 
L 90.08224 290.468619 
L 90.193559 290.485401 
L 94.054243 290.975163 
L 95.103689 291.086112 
L 95.103689 291.086272 
L 96.797799 291.247254 
L 114.777956 292.298688 
L 117.826668 292.409799 
L 117.826668 292.409799 
L 117.936467 292.413622 
L 121.33659 292.524666 
L 121.33659 292.524731 
L 125.712528 292.650942 
L 125.712528 292.650942 
L 125.822527 292.653965 
L 130.168532 292.765061 
L 130.284531 292.767857 
L 138.892525 292.95398 
L 139.608004 292.967813 
L 145.830297 293.078906 
L 145.971781 293.081296 
L 153.145683 293.192406 
L 208.460311 293.720598 
L 227.469821 293.8317 
L 227.469821 293.831701 
L 227.818013 293.833545 
L 232.443166 293.857399 
L 257.022943 293.968509 
L 351.572277 294.248614 
L 398.487273 294.33846 
L 398.487273 294.33846 
" clip-path="url(#pe7abe03f4b)" style="fill: none; stroke: #bcbd22; stroke-width: 1.5; stroke-linecap: square"/>
   </g>
   <g id="line2d_52">
    <path d="M 73.832727 295.488 
L 73.833945 295.488 
L 73.833945 295.488 
L 73.838815 218.851035 
L 73.947109 264.784398 
L 73.949169 264.733273 
L 73.961904 264.8904 
L 74.072558 269.35072 
L 74.13912 271.42141 
L 74.260877 274.447889 
L 74.266276 274.553514 
L 74.472923 277.654543 
L 74.484676 277.762957 
L 74.619203 278.851746 
L 74.712135 279.503964 
L 74.712135 279.503964 
L 74.822991 280.232412 
L 74.855922 280.439744 
L 75.025938 281.397078 
L 75.04937 281.509367 
L 75.04937 281.509367 
L 75.159948 282.060976 
L 75.183426 282.169335 
L 75.295023 282.667613 
L 75.322145 282.777841 
L 75.476659 283.360421 
L 75.926525 284.688251 
L 75.968849 284.795407 
L 76.2023 285.331159 
L 76.256223 285.441149 
L 76.495928 285.899453 
L 77.122092 286.859063 
L 77.208177 286.968607 
L 77.319112 287.105213 
L 77.470482 287.280318 
L 77.584002 287.402995 
L 77.694899 287.520966 
L 77.931553 287.752953 
L 78.043474 287.857434 
L 78.168895 287.96754 
L 78.168895 287.96754 
L 78.279683 288.062064 
L 78.501395 288.241332 
L 78.683472 288.377421 
L 78.856478 288.498915 
L 79.02436 288.608902 
L 79.02436 288.608902 
L 79.133525 288.680803 
L 79.313187 288.790619 
L 79.424614 288.858986 
L 79.619289 288.969816 
L 79.619289 288.969816 
L 79.72919 289.031604 
L 79.938942 289.142659 
L 80.064066 289.207008 
L 80.472933 289.402363 
L 80.588204 289.45462 
L 81.018888 289.637302 
L 81.309213 289.751051 
L 81.610233 289.862003 
L 81.610233 289.862003 
L 81.721094 289.902136 
L 82.043827 290.012808 
L 82.515561 290.163277 
L 82.894242 290.274257 
L 82.894242 290.274257 
L 83.005337 290.304803 
L 83.426543 290.415838 
L 83.53787 290.444417 
L 83.985742 290.555293 
L 84.096682 290.581987 
L 84.581228 290.692566 
L 84.581228 290.692874 
L 89.632854 291.512882 
L 90.881556 291.651468 
L 90.881556 291.651468 
L 90.992345 291.663311 
L 92.293804 291.794251 
L 94.339127 291.979524 
L 96.096791 292.113894 
L 100.381355 292.384634 
L 100.381355 292.384634 
L 100.49097 292.39077 
L 102.586459 292.50186 
L 109.941435 292.820195 
L 113.170857 292.931287 
L 113.288087 292.935105 
L 117.565727 293.062621 
L 118.694128 293.092779 
L 123.276807 293.203877 
L 123.276807 293.203877 
L 123.387032 293.206427 
L 128.641867 293.317515 
L 128.756991 293.319806 
L 134.942051 293.430897 
L 134.942051 293.430914 
L 150.883609 293.65128 
L 161.824667 293.762382 
L 161.824667 293.762391 
L 218.255882 294.088793 
L 247.511274 294.199904 
L 247.693286 294.200519 
L 398.487009 294.512567 
L 398.487009 294.512567 
" clip-path="url(#pe7abe03f4b)" style="fill: none; stroke: #17becf; stroke-width: 1.5; stroke-linecap: square"/>
   </g>
   <g id="patch_3">
    <path d="M 57.6 307.584 
L 57.6 41.472 
" style="fill: none; stroke: #000000; stroke-width: 0.8; stroke-linejoin: miter; stroke-linecap: square"/>
   </g>
   <g id="patch_4">
    <path d="M 414.72 307.584 
L 414.72 41.472 
" style="fill: none; stroke: #000000; stroke-width: 0.8; stroke-linejoin: miter; stroke-linecap: square"/>
   </g>
   <g id="patch_5">
    <path d="M 57.6 307.584 
L 414.72 307.584 
" style="fill: none; stroke: #000000; stroke-width: 0.8; stroke-linejoin: miter; stroke-linecap: square"/>
   </g>
   <g id="patch_6">
    <path d="M 57.6 41.472 
L 414.72 41.472 
" style="fill: none; stroke: #000000; stroke-width: 0.8; stroke-linejoin: miter; stroke-linecap: square"/>
   </g>
   <g id="text_19">
    <!-- processorsLoadStdDev vs. TimePoint for Each Run -->
    <g transform="translate(85.598437 35.472) scale(0.12 -0.12)">
     <defs>
      <path id="DejaVuSans-20" transform="scale(0.015625)"/>
      <path id="DejaVuSans-66" d="M 2375 4863 
L 2375 4384 
L 1825 4384 
Q 1516 4384 1395 4259 
Q 1275 4134 1275 3809 
L 1275 3500 
L 2222 3500 
L 2222 3053 
L 1275 3053 
L 1275 0 
L 697 0 
L 697 3053 
L 147 3053 
L 147 3500 
L 697 3500 
L 697 3744 
Q 697 4328 969 4595 
Q 1241 4863 1831 4863 
L 2375 4863 
z
" transform="scale(0.015625)"/>
      <path id="DejaVuSans-45" d="M 628 4666 
L 3578 4666 
L 3578 4134 
L 1259 4134 
L 1259 2753 
L 3481 2753 
L 3481 2222 
L 1259 2222 
L 1259 531 
L 3634 531 
L 3634 0 
L 628 0 
L 628 4666 
z
" transform="scale(0.015625)"/>
      <path id="DejaVuSans-68" d="M 3513 2113 
L 3513 0 
L 2938 0 
L 2938 2094 
Q 2938 2591 2744 2837 
Q 2550 3084 2163 3084 
Q 1697 3084 1428 2787 
Q 1159 2491 1159 1978 
L 1159 0 
L 581 0 
L 581 4863 
L 1159 4863 
L 1159 2956 
Q 1366 3272 1645 3428 
Q 1925 3584 2291 3584 
Q 2894 3584 3203 3211 
Q 3513 2838 3513 2113 
z
" transform="scale(0.015625)"/>
      <path id="DejaVuSans-52" d="M 2841 2188 
Q 3044 2119 3236 1894 
Q 3428 1669 3622 1275 
L 4263 0 
L 3584 0 
L 2988 1197 
Q 2756 1666 2539 1819 
Q 2322 1972 1947 1972 
L 1259 1972 
L 1259 0 
L 628 0 
L 628 4666 
L 2053 4666 
Q 2853 4666 3247 4331 
Q 3641 3997 3641 3322 
Q 3641 2881 3436 2590 
Q 3231 2300 2841 2188 
z
M 1259 4147 
L 1259 2491 
L 2053 2491 
Q 2509 2491 2742 2702 
Q 2975 2913 2975 3322 
Q 2975 3731 2742 3939 
Q 2509 4147 2053 4147 
L 1259 4147 
z
" transform="scale(0.015625)"/>
      <path id="DejaVuSans-75" d="M 544 1381 
L 544 3500 
L 1119 3500 
L 1119 1403 
Q 1119 906 1312 657 
Q 1506 409 1894 409 
Q 2359 409 2629 706 
Q 2900 1003 2900 1516 
L 2900 3500 
L 3475 3500 
L 3475 0 
L 2900 0 
L 2900 538 
Q 2691 219 2414 64 
Q 2138 -91 1772 -91 
Q 1169 -91 856 284 
Q 544 659 544 1381 
z
M 1991 3584 
L 1991 3584 
z
" transform="scale(0.015625)"/>
     </defs>
     <use xlink:href="#DejaVuSans-70"/>
     <use xlink:href="#DejaVuSans-72" x="63.476562"/>
     <use xlink:href="#DejaVuSans-6f" x="102.339844"/>
     <use xlink:href="#DejaVuSans-63" x="163.521484"/>
     <use xlink:href="#DejaVuSans-65" x="218.501953"/>
     <use xlink:href="#DejaVuSans-73" x="280.025391"/>
     <use xlink:href="#DejaVuSans-73" x="332.125"/>
     <use xlink:href="#DejaVuSans-6f" x="384.224609"/>
     <use xlink:href="#DejaVuSans-72" x="445.40625"/>
     <use xlink:href="#DejaVuSans-73" x="486.519531"/>
     <use xlink:href="#DejaVuSans-4c" x="538.619141"/>
     <use xlink:href="#DejaVuSans-6f" x="592.582031"/>
     <use xlink:href="#DejaVuSans-61" x="653.763672"/>
     <use xlink:href="#DejaVuSans-64" x="715.042969"/>
     <use xlink:href="#DejaVuSans-53" x="778.519531"/>
     <use xlink:href="#DejaVuSans-74" x="841.996094"/>
     <use xlink:href="#DejaVuSans-64" x="881.205078"/>
     <use xlink:href="#DejaVuSans-44" x="944.681641"/>
     <use xlink:href="#DejaVuSans-65" x="1021.683594"/>
     <use xlink:href="#DejaVuSans-76" x="1083.207031"/>
     <use xlink:href="#DejaVuSans-20" x="1142.386719"/>
     <use xlink:href="#DejaVuSans-76" x="1174.173828"/>
     <use xlink:href="#DejaVuSans-73" x="1233.353516"/>
     <use xlink:href="#DejaVuSans-2e" x="1285.453125"/>
     <use xlink:href="#DejaVuSans-20" x="1317.240234"/>
     <use xlink:href="#DejaVuSans-54" x="1349.027344"/>
     <use xlink:href="#DejaVuSans-69" x="1406.986328"/>
     <use xlink:href="#DejaVuSans-6d" x="1434.769531"/>
     <use xlink:href="#DejaVuSans-65" x="1532.181641"/>
     <use xlink:href="#DejaVuSans-50" x="1593.705078"/>
     <use xlink:href="#DejaVuSans-6f" x="1650.382812"/>
     <use xlink:href="#DejaVuSans-69" x="1711.564453"/>
     <use xlink:href="#DejaVuSans-6e" x="1739.347656"/>
     <use xlink:href="#DejaVuSans-74" x="1802.726562"/>
     <use xlink:href="#DejaVuSans-20" x="1841.935547"/>
     <use xlink:href="#DejaVuSans-66" x="1873.722656"/>
     <use xlink:href="#DejaVuSans-6f" x="1908.927734"/>
     <use xlink:href="#DejaVuSans-72" x="1970.109375"/>
     <use xlink:href="#DejaVuSans-20" x="2011.222656"/>
     <use xlink:href="#DejaVuSans-45" x="2043.009766"/>
     <use xlink:href="#DejaVuSans-61" x="2106.193359"/>
     <use xlink:href="#DejaVuSans-63" x="2167.472656"/>
     <use xlink:href="#DejaVuSans-68" x="2222.453125"/>
     <use xlink:href="#DejaVuSans-20" x="2285.832031"/>
     <use xlink:href="#DejaVuSans-52" x="2317.619141"/>
     <use xlink:href="#DejaVuSans-75" x="2382.601562"/>
     <use xlink:href="#DejaVuSans-6e" x="2445.980469"/>
    </g>
   </g>
   <g id="legend_1">
    <g id="patch_7">
     <path d="M 340.643438 357.712625 
L 407.72 357.712625 
Q 409.72 357.712625 409.72 355.712625 
L 409.72 48.472 
Q 409.72 46.472 407.72 46.472 
L 340.643438 46.472 
Q 338.643438 46.472 338.643438 48.472 
L 338.643438 355.712625 
Q 338.643438 357.712625 340.643438 357.712625 
z
" style="fill: #ffffff; opacity: 0.8; stroke: #cccccc; stroke-linejoin: miter"/>
    </g>
    <g id="text_20">
     <!-- Run Number -->
     <g transform="translate(342.92 58.070437) scale(0.1 -0.1)">
      <defs>
       <path id="DejaVuSans-4e" d="M 628 4666 
L 1478 4666 
L 3547 763 
L 3547 4666 
L 4159 4666 
L 4159 0 
L 3309 0 
L 1241 3903 
L 1241 0 
L 628 0 
L 628 4666 
z
" transform="scale(0.015625)"/>
       <path id="DejaVuSans-62" d="M 3116 1747 
Q 3116 2381 2855 2742 
Q 2594 3103 2138 3103 
Q 1681 3103 1420 2742 
Q 1159 2381 1159 1747 
Q 1159 1113 1420 752 
Q 1681 391 2138 391 
Q 2594 391 2855 752 
Q 3116 1113 3116 1747 
z
M 1159 2969 
Q 1341 3281 1617 3432 
Q 1894 3584 2278 3584 
Q 2916 3584 3314 3078 
Q 3713 2572 3713 1747 
Q 3713 922 3314 415 
Q 2916 -91 2278 -91 
Q 1894 -91 1617 61 
Q 1341 213 1159 525 
L 1159 0 
L 581 0 
L 581 4863 
L 1159 4863 
L 1159 2969 
z
" transform="scale(0.015625)"/>
      </defs>
      <use xlink:href="#DejaVuSans-52"/>
      <use xlink:href="#DejaVuSans-75" x="64.982422"/>
      <use xlink:href="#DejaVuSans-6e" x="128.361328"/>
      <use xlink:href="#DejaVuSans-20" x="191.740234"/>
      <use xlink:href="#DejaVuSans-4e" x="223.527344"/>
      <use xlink:href="#DejaVuSans-75" x="298.332031"/>
      <use xlink:href="#DejaVuSans-6d" x="361.710938"/>
      <use xlink:href="#DejaVuSans-62" x="459.123047"/>
      <use xlink:href="#DejaVuSans-65" x="522.599609"/>
      <use xlink:href="#DejaVuSans-72" x="584.123047"/>
     </g>
    </g>
    <g id="line2d_53">
     <path d="M 342.643438 69.248562 
L 352.643438 69.248562 
L 362.643438 69.248562 
" style="fill: none; stroke: #1f77b4; stroke-width: 1.5; stroke-linecap: square"/>
    </g>
    <g id="text_21">
     <!-- Run 0 -->
     <g transform="translate(370.643438 72.748562) scale(0.1 -0.1)">
      <use xlink:href="#DejaVuSans-52"/>
      <use xlink:href="#DejaVuSans-75" x="64.982422"/>
      <use xlink:href="#DejaVuSans-6e" x="128.361328"/>
      <use xlink:href="#DejaVuSans-20" x="191.740234"/>
      <use xlink:href="#DejaVuSans-30" x="223.527344"/>
     </g>
    </g>
    <g id="line2d_54">
     <path d="M 342.643438 83.926688 
L 352.643438 83.926688 
L 362.643438 83.926688 
" style="fill: none; stroke: #ff7f0e; stroke-width: 1.5; stroke-linecap: square"/>
    </g>
    <g id="text_22">
     <!-- Run 1 -->
     <g transform="translate(370.643438 87.426688) scale(0.1 -0.1)">
      <use xlink:href="#DejaVuSans-52"/>
      <use xlink:href="#DejaVuSans-75" x="64.982422"/>
      <use xlink:href="#DejaVuSans-6e" x="128.361328"/>
      <use xlink:href="#DejaVuSans-20" x="191.740234"/>
      <use xlink:href="#DejaVuSans-31" x="223.527344"/>
     </g>
    </g>
    <g id="line2d_55">
     <path d="M 342.643438 98.604813 
L 352.643438 98.604813 
L 362.643438 98.604813 
" style="fill: none; stroke: #2ca02c; stroke-width: 1.5; stroke-linecap: square"/>
    </g>
    <g id="text_23">
     <!-- Run 2 -->
     <g transform="translate(370.643438 102.104813) scale(0.1 -0.1)">
      <use xlink:href="#DejaVuSans-52"/>
      <use xlink:href="#DejaVuSans-75" x="64.982422"/>
      <use xlink:href="#DejaVuSans-6e" x="128.361328"/>
      <use xlink:href="#DejaVuSans-20" x="191.740234"/>
      <use xlink:href="#DejaVuSans-32" x="223.527344"/>
     </g>
    </g>
    <g id="line2d_56">
     <path d="M 342.643438 113.282938 
L 352.643438 113.282938 
L 362.643438 113.282938 
" style="fill: none; stroke: #d62728; stroke-width: 1.5; stroke-linecap: square"/>
    </g>
    <g id="text_24">
     <!-- Run 3 -->
     <g transform="translate(370.643438 116.782938) scale(0.1 -0.1)">
      <use xlink:href="#DejaVuSans-52"/>
      <use xlink:href="#DejaVuSans-75" x="64.982422"/>
      <use xlink:href="#DejaVuSans-6e" x="128.361328"/>
      <use xlink:href="#DejaVuSans-20" x="191.740234"/>
      <use xlink:href="#DejaVuSans-33" x="223.527344"/>
     </g>
    </g>
    <g id="line2d_57">
     <path d="M 342.643438 127.961063 
L 352.643438 127.961063 
L 362.643438 127.961063 
" style="fill: none; stroke: #9467bd; stroke-width: 1.5; stroke-linecap: square"/>
    </g>
    <g id="text_25">
     <!-- Run 4 -->
     <g transform="translate(370.643438 131.461063) scale(0.1 -0.1)">
      <use xlink:href="#DejaVuSans-52"/>
      <use xlink:href="#DejaVuSans-75" x="64.982422"/>
      <use xlink:href="#DejaVuSans-6e" x="128.361328"/>
      <use xlink:href="#DejaVuSans-20" x="191.740234"/>
      <use xlink:href="#DejaVuSans-34" x="223.527344"/>
     </g>
    </g>
    <g id="line2d_58">
     <path d="M 342.643438 142.639187 
L 352.643438 142.639187 
L 362.643438 142.639187 
" style="fill: none; stroke: #8c564b; stroke-width: 1.5; stroke-linecap: square"/>
    </g>
    <g id="text_26">
     <!-- Run 5 -->
     <g transform="translate(370.643438 146.139187) scale(0.1 -0.1)">
      <use xlink:href="#DejaVuSans-52"/>
      <use xlink:href="#DejaVuSans-75" x="64.982422"/>
      <use xlink:href="#DejaVuSans-6e" x="128.361328"/>
      <use xlink:href="#DejaVuSans-20" x="191.740234"/>
      <use xlink:href="#DejaVuSans-35" x="223.527344"/>
     </g>
    </g>
    <g id="line2d_59">
     <path d="M 342.643438 157.317313 
L 352.643438 157.317313 
L 362.643438 157.317313 
" style="fill: none; stroke: #e377c2; stroke-width: 1.5; stroke-linecap: square"/>
    </g>
    <g id="text_27">
     <!-- Run 6 -->
     <g transform="translate(370.643438 160.817313) scale(0.1 -0.1)">
      <use xlink:href="#DejaVuSans-52"/>
      <use xlink:href="#DejaVuSans-75" x="64.982422"/>
      <use xlink:href="#DejaVuSans-6e" x="128.361328"/>
      <use xlink:href="#DejaVuSans-20" x="191.740234"/>
      <use xlink:href="#DejaVuSans-36" x="223.527344"/>
     </g>
    </g>
    <g id="line2d_60">
     <path d="M 342.643438 171.995437 
L 352.643438 171.995437 
L 362.643438 171.995437 
" style="fill: none; stroke: #7f7f7f; stroke-width: 1.5; stroke-linecap: square"/>
    </g>
    <g id="text_28">
     <!-- Run 7 -->
     <g transform="translate(370.643438 175.495437) scale(0.1 -0.1)">
      <use xlink:href="#DejaVuSans-52"/>
      <use xlink:href="#DejaVuSans-75" x="64.982422"/>
      <use xlink:href="#DejaVuSans-6e" x="128.361328"/>
      <use xlink:href="#DejaVuSans-20" x="191.740234"/>
      <use xlink:href="#DejaVuSans-37" x="223.527344"/>
     </g>
    </g>
    <g id="line2d_61">
     <path d="M 342.643438 186.673563 
L 352.643438 186.673563 
L 362.643438 186.673563 
" style="fill: none; stroke: #bcbd22; stroke-width: 1.5; stroke-linecap: square"/>
    </g>
    <g id="text_29">
     <!-- Run 8 -->
     <g transform="translate(370.643438 190.173563) scale(0.1 -0.1)">
      <use xlink:href="#DejaVuSans-52"/>
      <use xlink:href="#DejaVuSans-75" x="64.982422"/>
      <use xlink:href="#DejaVuSans-6e" x="128.361328"/>
      <use xlink:href="#DejaVuSans-20" x="191.740234"/>
      <use xlink:href="#DejaVuSans-38" x="223.527344"/>
     </g>
    </g>
    <g id="line2d_62">
     <path d="M 342.643438 201.351687 
L 352.643438 201.351687 
L 362.643438 201.351687 
" style="fill: none; stroke: #17becf; stroke-width: 1.5; stroke-linecap: square"/>
    </g>
    <g id="text_30">
     <!-- Run 9 -->
     <g transform="translate(370.643438 204.851687) scale(0.1 -0.1)">
      <defs>
       <path id="DejaVuSans-39" d="M 703 97 
L 703 672 
Q 941 559 1184 500 
Q 1428 441 1663 441 
Q 2288 441 2617 861 
Q 2947 1281 2994 2138 
Q 2813 1869 2534 1725 
Q 2256 1581 1919 1581 
Q 1219 1581 811 2004 
Q 403 2428 403 3163 
Q 403 3881 828 4315 
Q 1253 4750 1959 4750 
Q 2769 4750 3195 4129 
Q 3622 3509 3622 2328 
Q 3622 1225 3098 567 
Q 2575 -91 1691 -91 
Q 1453 -91 1209 -44 
Q 966 3 703 97 
z
M 1959 2075 
Q 2384 2075 2632 2365 
Q 2881 2656 2881 3163 
Q 2881 3666 2632 3958 
Q 2384 4250 1959 4250 
Q 1534 4250 1286 3958 
Q 1038 3666 1038 3163 
Q 1038 2656 1286 2365 
Q 1534 2075 1959 2075 
z
" transform="scale(0.015625)"/>
      </defs>
      <use xlink:href="#DejaVuSans-52"/>
      <use xlink:href="#DejaVuSans-75" x="64.982422"/>
      <use xlink:href="#DejaVuSans-6e" x="128.361328"/>
      <use xlink:href="#DejaVuSans-20" x="191.740234"/>
      <use xlink:href="#DejaVuSans-39" x="223.527344"/>
     </g>
    </g>
    <g id="line2d_63">
     <path d="M 342.643438 216.029812 
L 352.643438 216.029812 
L 362.643438 216.029812 
" style="fill: none; stroke: #1f77b4; stroke-width: 1.5; stroke-linecap: square"/>
    </g>
    <g id="text_31">
     <!-- Run 10 -->
     <g transform="translate(370.643438 219.529812) scale(0.1 -0.1)">
      <use xlink:href="#DejaVuSans-52"/>
      <use xlink:href="#DejaVuSans-75" x="64.982422"/>
      <use xlink:href="#DejaVuSans-6e" x="128.361328"/>
      <use xlink:href="#DejaVuSans-20" x="191.740234"/>
      <use xlink:href="#DejaVuSans-31" x="223.527344"/>
      <use xlink:href="#DejaVuSans-30" x="287.150391"/>
     </g>
    </g>
    <g id="line2d_64">
     <path d="M 342.643438 230.707937 
L 352.643438 230.707937 
L 362.643438 230.707937 
" style="fill: none; stroke: #ff7f0e; stroke-width: 1.5; stroke-linecap: square"/>
    </g>
    <g id="text_32">
     <!-- Run 11 -->
     <g transform="translate(370.643438 234.207937) scale(0.1 -0.1)">
      <use xlink:href="#DejaVuSans-52"/>
      <use xlink:href="#DejaVuSans-75" x="64.982422"/>
      <use xlink:href="#DejaVuSans-6e" x="128.361328"/>
      <use xlink:href="#DejaVuSans-20" x="191.740234"/>
      <use xlink:href="#DejaVuSans-31" x="223.527344"/>
      <use xlink:href="#DejaVuSans-31" x="287.150391"/>
     </g>
    </g>
    <g id="line2d_65">
     <path d="M 342.643438 245.386062 
L 352.643438 245.386062 
L 362.643438 245.386062 
" style="fill: none; stroke: #2ca02c; stroke-width: 1.5; stroke-linecap: square"/>
    </g>
    <g id="text_33">
     <!-- Run 12 -->
     <g transform="translate(370.643438 248.886062) scale(0.1 -0.1)">
      <use xlink:href="#DejaVuSans-52"/>
      <use xlink:href="#DejaVuSans-75" x="64.982422"/>
      <use xlink:href="#DejaVuSans-6e" x="128.361328"/>
      <use xlink:href="#DejaVuSans-20" x="191.740234"/>
      <use xlink:href="#DejaVuSans-31" x="223.527344"/>
      <use xlink:href="#DejaVuSans-32" x="287.150391"/>
     </g>
    </g>
    <g id="line2d_66">
     <path d="M 342.643438 260.064187 
L 352.643438 260.064187 
L 362.643438 260.064187 
" style="fill: none; stroke: #d62728; stroke-width: 1.5; stroke-linecap: square"/>
    </g>
    <g id="text_34">
     <!-- Run 13 -->
     <g transform="translate(370.643438 263.564187) scale(0.1 -0.1)">
      <use xlink:href="#DejaVuSans-52"/>
      <use xlink:href="#DejaVuSans-75" x="64.982422"/>
      <use xlink:href="#DejaVuSans-6e" x="128.361328"/>
      <use xlink:href="#DejaVuSans-20" x="191.740234"/>
      <use xlink:href="#DejaVuSans-31" x="223.527344"/>
      <use xlink:href="#DejaVuSans-33" x="287.150391"/>
     </g>
    </g>
    <g id="line2d_67">
     <path d="M 342.643438 274.742312 
L 352.643438 274.742312 
L 362.643438 274.742312 
" style="fill: none; stroke: #9467bd; stroke-width: 1.5; stroke-linecap: square"/>
    </g>
    <g id="text_35">
     <!-- Run 14 -->
     <g transform="translate(370.643438 278.242312) scale(0.1 -0.1)">
      <use xlink:href="#DejaVuSans-52"/>
      <use xlink:href="#DejaVuSans-75" x="64.982422"/>
      <use xlink:href="#DejaVuSans-6e" x="128.361328"/>
      <use xlink:href="#DejaVuSans-20" x="191.740234"/>
      <use xlink:href="#DejaVuSans-31" x="223.527344"/>
      <use xlink:href="#DejaVuSans-34" x="287.150391"/>
     </g>
    </g>
    <g id="line2d_68">
     <path d="M 342.643438 289.420437 
L 352.643438 289.420437 
L 362.643438 289.420437 
" style="fill: none; stroke: #8c564b; stroke-width: 1.5; stroke-linecap: square"/>
    </g>
    <g id="text_36">
     <!-- Run 15 -->
     <g transform="translate(370.643438 292.920437) scale(0.1 -0.1)">
      <use xlink:href="#DejaVuSans-52"/>
      <use xlink:href="#DejaVuSans-75" x="64.982422"/>
      <use xlink:href="#DejaVuSans-6e" x="128.361328"/>
      <use xlink:href="#DejaVuSans-20" x="191.740234"/>
      <use xlink:href="#DejaVuSans-31" x="223.527344"/>
      <use xlink:href="#DejaVuSans-35" x="287.150391"/>
     </g>
    </g>
    <g id="line2d_69">
     <path d="M 342.643438 304.098562 
L 352.643438 304.098562 
L 362.643438 304.098562 
" style="fill: none; stroke: #e377c2; stroke-width: 1.5; stroke-linecap: square"/>
    </g>
    <g id="text_37">
     <!-- Run 16 -->
     <g transform="translate(370.643438 307.598562) scale(0.1 -0.1)">
      <use xlink:href="#DejaVuSans-52"/>
      <use xlink:href="#DejaVuSans-75" x="64.982422"/>
      <use xlink:href="#DejaVuSans-6e" x="128.361328"/>
      <use xlink:href="#DejaVuSans-20" x="191.740234"/>
      <use xlink:href="#DejaVuSans-31" x="223.527344"/>
      <use xlink:href="#DejaVuSans-36" x="287.150391"/>
     </g>
    </g>
    <g id="line2d_70">
     <path d="M 342.643438 318.776687 
L 352.643438 318.776687 
L 362.643438 318.776687 
" style="fill: none; stroke: #7f7f7f; stroke-width: 1.5; stroke-linecap: square"/>
    </g>
    <g id="text_38">
     <!-- Run 17 -->
     <g transform="translate(370.643438 322.276687) scale(0.1 -0.1)">
      <use xlink:href="#DejaVuSans-52"/>
      <use xlink:href="#DejaVuSans-75" x="64.982422"/>
      <use xlink:href="#DejaVuSans-6e" x="128.361328"/>
      <use xlink:href="#DejaVuSans-20" x="191.740234"/>
      <use xlink:href="#DejaVuSans-31" x="223.527344"/>
      <use xlink:href="#DejaVuSans-37" x="287.150391"/>
     </g>
    </g>
    <g id="line2d_71">
     <path d="M 342.643438 333.454812 
L 352.643438 333.454812 
L 362.643438 333.454812 
" style="fill: none; stroke: #bcbd22; stroke-width: 1.5; stroke-linecap: square"/>
    </g>
    <g id="text_39">
     <!-- Run 18 -->
     <g transform="translate(370.643438 336.954812) scale(0.1 -0.1)">
      <use xlink:href="#DejaVuSans-52"/>
      <use xlink:href="#DejaVuSans-75" x="64.982422"/>
      <use xlink:href="#DejaVuSans-6e" x="128.361328"/>
      <use xlink:href="#DejaVuSans-20" x="191.740234"/>
      <use xlink:href="#DejaVuSans-31" x="223.527344"/>
      <use xlink:href="#DejaVuSans-38" x="287.150391"/>
     </g>
    </g>
    <g id="line2d_72">
     <path style="fill: none; stroke: #17becf; stroke-width: 1.5; stroke-linecap: square"/>
    </g>
    <g id="text_40">
     <!-- Run 19 -->
     <g transform="translate(370.643438 351.632937) scale(0.1 -0.1)">
      <use xlink:href="#DejaVuSans-52"/>
      <use xlink:href="#DejaVuSans-75" x="64.982422"/>
      <use xlink:href="#DejaVuSans-6e" x="128.361328"/>
      <use xlink:href="#DejaVuSans-20" x="191.740234"/>
      <use xlink:href="#DejaVuSans-31" x="223.527344"/>
      <use xlink:href="#DejaVuSans-39" x="287.150391"/>
     </g>
    </g>
   </g>
  </g>
 </g>
 <defs>
  <clipPath id="pe7abe03f4b">
   <rect x="57.6" y="41.472" width="357.12" height="266.112"/>
  </clipPath>
 </defs>
</svg>
