<?xml version="1.0" encoding="utf-8" standalone="no"?>
<!DOCTYPE svg PUBLIC "-//W3C//DTD SVG 1.1//EN"
  "http://www.w3.org/Graphics/SVG/1.1/DTD/svg11.dtd">
<svg xmlns:xlink="http://www.w3.org/1999/xlink" width="460.8pt" height="345.6pt" viewBox="0 0 460.8 345.6" xmlns="http://www.w3.org/2000/svg" version="1.1">
 <metadata>
  <rdf:RDF xmlns:dc="http://purl.org/dc/elements/1.1/" xmlns:cc="http://creativecommons.org/ns#" xmlns:rdf="http://www.w3.org/1999/02/22-rdf-syntax-ns#">
   <cc:Work>
    <dc:type rdf:resource="http://purl.org/dc/dcmitype/StillImage"/>
    <dc:date>2024-12-03T12:49:38.722836</dc:date>
    <dc:format>image/svg+xml</dc:format>
    <dc:creator>
     <cc:Agent>
      <dc:title>Matplotlib v3.9.2, https://matplotlib.org/</dc:title>
     </cc:Agent>
    </dc:creator>
   </cc:Work>
  </rdf:RDF>
 </metadata>
 <defs>
  <style type="text/css">*{stroke-linejoin: round; stroke-linecap: butt}</style>
 </defs>
 <g id="figure_1">
  <g id="patch_1">
   <path d="M 0 345.6 
L 460.8 345.6 
L 460.8 0 
L 0 0 
z
" style="fill: #ffffff"/>
  </g>
  <g id="axes_1">
   <g id="patch_2">
    <path d="M 57.6 307.584 
L 414.72 307.584 
L 414.72 41.472 
L 57.6 41.472 
z
" style="fill: #ffffff"/>
   </g>
   <g id="matplotlib.axis_1">
    <g id="xtick_1">
     <g id="line2d_1">
      <path d="M 73.825295 307.584 
L 73.825295 41.472 
" clip-path="url(#p042cc155c4)" style="fill: none; stroke: #b0b0b0; stroke-width: 0.8; stroke-linecap: square"/>
     </g>
     <g id="line2d_2">
      <defs>
       <path id="m761b19dcda" d="M 0 0 
L 0 3.5 
" style="stroke: #000000; stroke-width: 0.8"/>
      </defs>
      <g>
       <use xlink:href="#m761b19dcda" x="73.825295" y="307.584" style="stroke: #000000; stroke-width: 0.8"/>
      </g>
     </g>
     <g id="text_1">
      <!-- 0 -->
      <g transform="translate(70.644045 322.182437) scale(0.1 -0.1)">
       <defs>
        <path id="DejaVuSans-30" d="M 2034 4250 
Q 1547 4250 1301 3770 
Q 1056 3291 1056 2328 
Q 1056 1369 1301 889 
Q 1547 409 2034 409 
Q 2525 409 2770 889 
Q 3016 1369 3016 2328 
Q 3016 3291 2770 3770 
Q 2525 4250 2034 4250 
z
M 2034 4750 
Q 2819 4750 3233 4129 
Q 3647 3509 3647 2328 
Q 3647 1150 3233 529 
Q 2819 -91 2034 -91 
Q 1250 -91 836 529 
Q 422 1150 422 2328 
Q 422 3509 836 4129 
Q 1250 4750 2034 4750 
z
" transform="scale(0.015625)"/>
       </defs>
       <use xlink:href="#DejaVuSans-30"/>
      </g>
     </g>
    </g>
    <g id="xtick_2">
     <g id="line2d_3">
      <path d="M 114.408445 307.584 
L 114.408445 41.472 
" clip-path="url(#p042cc155c4)" style="fill: none; stroke: #b0b0b0; stroke-width: 0.8; stroke-linecap: square"/>
     </g>
     <g id="line2d_4">
      <g>
       <use xlink:href="#m761b19dcda" x="114.408445" y="307.584" style="stroke: #000000; stroke-width: 0.8"/>
      </g>
     </g>
     <g id="text_2">
      <!-- 100000 -->
      <g transform="translate(95.320945 322.182437) scale(0.1 -0.1)">
       <defs>
        <path id="DejaVuSans-31" d="M 794 531 
L 1825 531 
L 1825 4091 
L 703 3866 
L 703 4441 
L 1819 4666 
L 2450 4666 
L 2450 531 
L 3481 531 
L 3481 0 
L 794 0 
L 794 531 
z
" transform="scale(0.015625)"/>
       </defs>
       <use xlink:href="#DejaVuSans-31"/>
       <use xlink:href="#DejaVuSans-30" x="63.623047"/>
       <use xlink:href="#DejaVuSans-30" x="127.246094"/>
       <use xlink:href="#DejaVuSans-30" x="190.869141"/>
       <use xlink:href="#DejaVuSans-30" x="254.492188"/>
       <use xlink:href="#DejaVuSans-30" x="318.115234"/>
      </g>
     </g>
    </g>
    <g id="xtick_3">
     <g id="line2d_5">
      <path d="M 154.991596 307.584 
L 154.991596 41.472 
" clip-path="url(#p042cc155c4)" style="fill: none; stroke: #b0b0b0; stroke-width: 0.8; stroke-linecap: square"/>
     </g>
     <g id="line2d_6">
      <g>
       <use xlink:href="#m761b19dcda" x="154.991596" y="307.584" style="stroke: #000000; stroke-width: 0.8"/>
      </g>
     </g>
     <g id="text_3">
      <!-- 200000 -->
      <g transform="translate(135.904096 322.182437) scale(0.1 -0.1)">
       <defs>
        <path id="DejaVuSans-32" d="M 1228 531 
L 3431 531 
L 3431 0 
L 469 0 
L 469 531 
Q 828 903 1448 1529 
Q 2069 2156 2228 2338 
Q 2531 2678 2651 2914 
Q 2772 3150 2772 3378 
Q 2772 3750 2511 3984 
Q 2250 4219 1831 4219 
Q 1534 4219 1204 4116 
Q 875 4013 500 3803 
L 500 4441 
Q 881 4594 1212 4672 
Q 1544 4750 1819 4750 
Q 2544 4750 2975 4387 
Q 3406 4025 3406 3419 
Q 3406 3131 3298 2873 
Q 3191 2616 2906 2266 
Q 2828 2175 2409 1742 
Q 1991 1309 1228 531 
z
" transform="scale(0.015625)"/>
       </defs>
       <use xlink:href="#DejaVuSans-32"/>
       <use xlink:href="#DejaVuSans-30" x="63.623047"/>
       <use xlink:href="#DejaVuSans-30" x="127.246094"/>
       <use xlink:href="#DejaVuSans-30" x="190.869141"/>
       <use xlink:href="#DejaVuSans-30" x="254.492188"/>
       <use xlink:href="#DejaVuSans-30" x="318.115234"/>
      </g>
     </g>
    </g>
    <g id="xtick_4">
     <g id="line2d_7">
      <path d="M 195.574746 307.584 
L 195.574746 41.472 
" clip-path="url(#p042cc155c4)" style="fill: none; stroke: #b0b0b0; stroke-width: 0.8; stroke-linecap: square"/>
     </g>
     <g id="line2d_8">
      <g>
       <use xlink:href="#m761b19dcda" x="195.574746" y="307.584" style="stroke: #000000; stroke-width: 0.8"/>
      </g>
     </g>
     <g id="text_4">
      <!-- 300000 -->
      <g transform="translate(176.487246 322.182437) scale(0.1 -0.1)">
       <defs>
        <path id="DejaVuSans-33" d="M 2597 2516 
Q 3050 2419 3304 2112 
Q 3559 1806 3559 1356 
Q 3559 666 3084 287 
Q 2609 -91 1734 -91 
Q 1441 -91 1130 -33 
Q 819 25 488 141 
L 488 750 
Q 750 597 1062 519 
Q 1375 441 1716 441 
Q 2309 441 2620 675 
Q 2931 909 2931 1356 
Q 2931 1769 2642 2001 
Q 2353 2234 1838 2234 
L 1294 2234 
L 1294 2753 
L 1863 2753 
Q 2328 2753 2575 2939 
Q 2822 3125 2822 3475 
Q 2822 3834 2567 4026 
Q 2313 4219 1838 4219 
Q 1578 4219 1281 4162 
Q 984 4106 628 3988 
L 628 4550 
Q 988 4650 1302 4700 
Q 1616 4750 1894 4750 
Q 2613 4750 3031 4423 
Q 3450 4097 3450 3541 
Q 3450 3153 3228 2886 
Q 3006 2619 2597 2516 
z
" transform="scale(0.015625)"/>
       </defs>
       <use xlink:href="#DejaVuSans-33"/>
       <use xlink:href="#DejaVuSans-30" x="63.623047"/>
       <use xlink:href="#DejaVuSans-30" x="127.246094"/>
       <use xlink:href="#DejaVuSans-30" x="190.869141"/>
       <use xlink:href="#DejaVuSans-30" x="254.492188"/>
       <use xlink:href="#DejaVuSans-30" x="318.115234"/>
      </g>
     </g>
    </g>
    <g id="xtick_5">
     <g id="line2d_9">
      <path d="M 236.157896 307.584 
L 236.157896 41.472 
" clip-path="url(#p042cc155c4)" style="fill: none; stroke: #b0b0b0; stroke-width: 0.8; stroke-linecap: square"/>
     </g>
     <g id="line2d_10">
      <g>
       <use xlink:href="#m761b19dcda" x="236.157896" y="307.584" style="stroke: #000000; stroke-width: 0.8"/>
      </g>
     </g>
     <g id="text_5">
      <!-- 400000 -->
      <g transform="translate(217.070396 322.182437) scale(0.1 -0.1)">
       <defs>
        <path id="DejaVuSans-34" d="M 2419 4116 
L 825 1625 
L 2419 1625 
L 2419 4116 
z
M 2253 4666 
L 3047 4666 
L 3047 1625 
L 3713 1625 
L 3713 1100 
L 3047 1100 
L 3047 0 
L 2419 0 
L 2419 1100 
L 313 1100 
L 313 1709 
L 2253 4666 
z
" transform="scale(0.015625)"/>
       </defs>
       <use xlink:href="#DejaVuSans-34"/>
       <use xlink:href="#DejaVuSans-30" x="63.623047"/>
       <use xlink:href="#DejaVuSans-30" x="127.246094"/>
       <use xlink:href="#DejaVuSans-30" x="190.869141"/>
       <use xlink:href="#DejaVuSans-30" x="254.492188"/>
       <use xlink:href="#DejaVuSans-30" x="318.115234"/>
      </g>
     </g>
    </g>
    <g id="xtick_6">
     <g id="line2d_11">
      <path d="M 276.741047 307.584 
L 276.741047 41.472 
" clip-path="url(#p042cc155c4)" style="fill: none; stroke: #b0b0b0; stroke-width: 0.8; stroke-linecap: square"/>
     </g>
     <g id="line2d_12">
      <g>
       <use xlink:href="#m761b19dcda" x="276.741047" y="307.584" style="stroke: #000000; stroke-width: 0.8"/>
      </g>
     </g>
     <g id="text_6">
      <!-- 500000 -->
      <g transform="translate(257.653547 322.182437) scale(0.1 -0.1)">
       <defs>
        <path id="DejaVuSans-35" d="M 691 4666 
L 3169 4666 
L 3169 4134 
L 1269 4134 
L 1269 2991 
Q 1406 3038 1543 3061 
Q 1681 3084 1819 3084 
Q 2600 3084 3056 2656 
Q 3513 2228 3513 1497 
Q 3513 744 3044 326 
Q 2575 -91 1722 -91 
Q 1428 -91 1123 -41 
Q 819 9 494 109 
L 494 744 
Q 775 591 1075 516 
Q 1375 441 1709 441 
Q 2250 441 2565 725 
Q 2881 1009 2881 1497 
Q 2881 1984 2565 2268 
Q 2250 2553 1709 2553 
Q 1456 2553 1204 2497 
Q 953 2441 691 2322 
L 691 4666 
z
" transform="scale(0.015625)"/>
       </defs>
       <use xlink:href="#DejaVuSans-35"/>
       <use xlink:href="#DejaVuSans-30" x="63.623047"/>
       <use xlink:href="#DejaVuSans-30" x="127.246094"/>
       <use xlink:href="#DejaVuSans-30" x="190.869141"/>
       <use xlink:href="#DejaVuSans-30" x="254.492188"/>
       <use xlink:href="#DejaVuSans-30" x="318.115234"/>
      </g>
     </g>
    </g>
    <g id="xtick_7">
     <g id="line2d_13">
      <path d="M 317.324197 307.584 
L 317.324197 41.472 
" clip-path="url(#p042cc155c4)" style="fill: none; stroke: #b0b0b0; stroke-width: 0.8; stroke-linecap: square"/>
     </g>
     <g id="line2d_14">
      <g>
       <use xlink:href="#m761b19dcda" x="317.324197" y="307.584" style="stroke: #000000; stroke-width: 0.8"/>
      </g>
     </g>
     <g id="text_7">
      <!-- 600000 -->
      <g transform="translate(298.236697 322.182437) scale(0.1 -0.1)">
       <defs>
        <path id="DejaVuSans-36" d="M 2113 2584 
Q 1688 2584 1439 2293 
Q 1191 2003 1191 1497 
Q 1191 994 1439 701 
Q 1688 409 2113 409 
Q 2538 409 2786 701 
Q 3034 994 3034 1497 
Q 3034 2003 2786 2293 
Q 2538 2584 2113 2584 
z
M 3366 4563 
L 3366 3988 
Q 3128 4100 2886 4159 
Q 2644 4219 2406 4219 
Q 1781 4219 1451 3797 
Q 1122 3375 1075 2522 
Q 1259 2794 1537 2939 
Q 1816 3084 2150 3084 
Q 2853 3084 3261 2657 
Q 3669 2231 3669 1497 
Q 3669 778 3244 343 
Q 2819 -91 2113 -91 
Q 1303 -91 875 529 
Q 447 1150 447 2328 
Q 447 3434 972 4092 
Q 1497 4750 2381 4750 
Q 2619 4750 2861 4703 
Q 3103 4656 3366 4563 
z
" transform="scale(0.015625)"/>
       </defs>
       <use xlink:href="#DejaVuSans-36"/>
       <use xlink:href="#DejaVuSans-30" x="63.623047"/>
       <use xlink:href="#DejaVuSans-30" x="127.246094"/>
       <use xlink:href="#DejaVuSans-30" x="190.869141"/>
       <use xlink:href="#DejaVuSans-30" x="254.492188"/>
       <use xlink:href="#DejaVuSans-30" x="318.115234"/>
      </g>
     </g>
    </g>
    <g id="xtick_8">
     <g id="line2d_15">
      <path d="M 357.907348 307.584 
L 357.907348 41.472 
" clip-path="url(#p042cc155c4)" style="fill: none; stroke: #b0b0b0; stroke-width: 0.8; stroke-linecap: square"/>
     </g>
     <g id="line2d_16">
      <g>
       <use xlink:href="#m761b19dcda" x="357.907348" y="307.584" style="stroke: #000000; stroke-width: 0.8"/>
      </g>
     </g>
     <g id="text_8">
      <!-- 700000 -->
      <g transform="translate(338.819848 322.182437) scale(0.1 -0.1)">
       <defs>
        <path id="DejaVuSans-37" d="M 525 4666 
L 3525 4666 
L 3525 4397 
L 1831 0 
L 1172 0 
L 2766 4134 
L 525 4134 
L 525 4666 
z
" transform="scale(0.015625)"/>
       </defs>
       <use xlink:href="#DejaVuSans-37"/>
       <use xlink:href="#DejaVuSans-30" x="63.623047"/>
       <use xlink:href="#DejaVuSans-30" x="127.246094"/>
       <use xlink:href="#DejaVuSans-30" x="190.869141"/>
       <use xlink:href="#DejaVuSans-30" x="254.492188"/>
       <use xlink:href="#DejaVuSans-30" x="318.115234"/>
      </g>
     </g>
    </g>
    <g id="xtick_9">
     <g id="line2d_17">
      <path d="M 398.490498 307.584 
L 398.490498 41.472 
" clip-path="url(#p042cc155c4)" style="fill: none; stroke: #b0b0b0; stroke-width: 0.8; stroke-linecap: square"/>
     </g>
     <g id="line2d_18">
      <g>
       <use xlink:href="#m761b19dcda" x="398.490498" y="307.584" style="stroke: #000000; stroke-width: 0.8"/>
      </g>
     </g>
     <g id="text_9">
      <!-- 800000 -->
      <g transform="translate(379.402998 322.182437) scale(0.1 -0.1)">
       <defs>
        <path id="DejaVuSans-38" d="M 2034 2216 
Q 1584 2216 1326 1975 
Q 1069 1734 1069 1313 
Q 1069 891 1326 650 
Q 1584 409 2034 409 
Q 2484 409 2743 651 
Q 3003 894 3003 1313 
Q 3003 1734 2745 1975 
Q 2488 2216 2034 2216 
z
M 1403 2484 
Q 997 2584 770 2862 
Q 544 3141 544 3541 
Q 544 4100 942 4425 
Q 1341 4750 2034 4750 
Q 2731 4750 3128 4425 
Q 3525 4100 3525 3541 
Q 3525 3141 3298 2862 
Q 3072 2584 2669 2484 
Q 3125 2378 3379 2068 
Q 3634 1759 3634 1313 
Q 3634 634 3220 271 
Q 2806 -91 2034 -91 
Q 1263 -91 848 271 
Q 434 634 434 1313 
Q 434 1759 690 2068 
Q 947 2378 1403 2484 
z
M 1172 3481 
Q 1172 3119 1398 2916 
Q 1625 2713 2034 2713 
Q 2441 2713 2670 2916 
Q 2900 3119 2900 3481 
Q 2900 3844 2670 4047 
Q 2441 4250 2034 4250 
Q 1625 4250 1398 4047 
Q 1172 3844 1172 3481 
z
" transform="scale(0.015625)"/>
       </defs>
       <use xlink:href="#DejaVuSans-38"/>
       <use xlink:href="#DejaVuSans-30" x="63.623047"/>
       <use xlink:href="#DejaVuSans-30" x="127.246094"/>
       <use xlink:href="#DejaVuSans-30" x="190.869141"/>
       <use xlink:href="#DejaVuSans-30" x="254.492188"/>
       <use xlink:href="#DejaVuSans-30" x="318.115234"/>
      </g>
     </g>
    </g>
    <g id="text_10">
     <!-- TimePoint -->
     <g transform="translate(211.515469 335.860562) scale(0.1 -0.1)">
      <defs>
       <path id="DejaVuSans-54" d="M -19 4666 
L 3928 4666 
L 3928 4134 
L 2272 4134 
L 2272 0 
L 1638 0 
L 1638 4134 
L -19 4134 
L -19 4666 
z
" transform="scale(0.015625)"/>
       <path id="DejaVuSans-69" d="M 603 3500 
L 1178 3500 
L 1178 0 
L 603 0 
L 603 3500 
z
M 603 4863 
L 1178 4863 
L 1178 4134 
L 603 4134 
L 603 4863 
z
" transform="scale(0.015625)"/>
       <path id="DejaVuSans-6d" d="M 3328 2828 
Q 3544 3216 3844 3400 
Q 4144 3584 4550 3584 
Q 5097 3584 5394 3201 
Q 5691 2819 5691 2113 
L 5691 0 
L 5113 0 
L 5113 2094 
Q 5113 2597 4934 2840 
Q 4756 3084 4391 3084 
Q 3944 3084 3684 2787 
Q 3425 2491 3425 1978 
L 3425 0 
L 2847 0 
L 2847 2094 
Q 2847 2600 2669 2842 
Q 2491 3084 2119 3084 
Q 1678 3084 1418 2786 
Q 1159 2488 1159 1978 
L 1159 0 
L 581 0 
L 581 3500 
L 1159 3500 
L 1159 2956 
Q 1356 3278 1631 3431 
Q 1906 3584 2284 3584 
Q 2666 3584 2933 3390 
Q 3200 3197 3328 2828 
z
" transform="scale(0.015625)"/>
       <path id="DejaVuSans-65" d="M 3597 1894 
L 3597 1613 
L 953 1613 
Q 991 1019 1311 708 
Q 1631 397 2203 397 
Q 2534 397 2845 478 
Q 3156 559 3463 722 
L 3463 178 
Q 3153 47 2828 -22 
Q 2503 -91 2169 -91 
Q 1331 -91 842 396 
Q 353 884 353 1716 
Q 353 2575 817 3079 
Q 1281 3584 2069 3584 
Q 2775 3584 3186 3129 
Q 3597 2675 3597 1894 
z
M 3022 2063 
Q 3016 2534 2758 2815 
Q 2500 3097 2075 3097 
Q 1594 3097 1305 2825 
Q 1016 2553 972 2059 
L 3022 2063 
z
" transform="scale(0.015625)"/>
       <path id="DejaVuSans-50" d="M 1259 4147 
L 1259 2394 
L 2053 2394 
Q 2494 2394 2734 2622 
Q 2975 2850 2975 3272 
Q 2975 3691 2734 3919 
Q 2494 4147 2053 4147 
L 1259 4147 
z
M 628 4666 
L 2053 4666 
Q 2838 4666 3239 4311 
Q 3641 3956 3641 3272 
Q 3641 2581 3239 2228 
Q 2838 1875 2053 1875 
L 1259 1875 
L 1259 0 
L 628 0 
L 628 4666 
z
" transform="scale(0.015625)"/>
       <path id="DejaVuSans-6f" d="M 1959 3097 
Q 1497 3097 1228 2736 
Q 959 2375 959 1747 
Q 959 1119 1226 758 
Q 1494 397 1959 397 
Q 2419 397 2687 759 
Q 2956 1122 2956 1747 
Q 2956 2369 2687 2733 
Q 2419 3097 1959 3097 
z
M 1959 3584 
Q 2709 3584 3137 3096 
Q 3566 2609 3566 1747 
Q 3566 888 3137 398 
Q 2709 -91 1959 -91 
Q 1206 -91 779 398 
Q 353 888 353 1747 
Q 353 2609 779 3096 
Q 1206 3584 1959 3584 
z
" transform="scale(0.015625)"/>
       <path id="DejaVuSans-6e" d="M 3513 2113 
L 3513 0 
L 2938 0 
L 2938 2094 
Q 2938 2591 2744 2837 
Q 2550 3084 2163 3084 
Q 1697 3084 1428 2787 
Q 1159 2491 1159 1978 
L 1159 0 
L 581 0 
L 581 3500 
L 1159 3500 
L 1159 2956 
Q 1366 3272 1645 3428 
Q 1925 3584 2291 3584 
Q 2894 3584 3203 3211 
Q 3513 2838 3513 2113 
z
" transform="scale(0.015625)"/>
       <path id="DejaVuSans-74" d="M 1172 4494 
L 1172 3500 
L 2356 3500 
L 2356 3053 
L 1172 3053 
L 1172 1153 
Q 1172 725 1289 603 
Q 1406 481 1766 481 
L 2356 481 
L 2356 0 
L 1766 0 
Q 1100 0 847 248 
Q 594 497 594 1153 
L 594 3053 
L 172 3053 
L 172 3500 
L 594 3500 
L 594 4494 
L 1172 4494 
z
" transform="scale(0.015625)"/>
      </defs>
      <use xlink:href="#DejaVuSans-54"/>
      <use xlink:href="#DejaVuSans-69" x="57.958984"/>
      <use xlink:href="#DejaVuSans-6d" x="85.742188"/>
      <use xlink:href="#DejaVuSans-65" x="183.154297"/>
      <use xlink:href="#DejaVuSans-50" x="244.677734"/>
      <use xlink:href="#DejaVuSans-6f" x="301.355469"/>
      <use xlink:href="#DejaVuSans-69" x="362.537109"/>
      <use xlink:href="#DejaVuSans-6e" x="390.320312"/>
      <use xlink:href="#DejaVuSans-74" x="453.699219"/>
     </g>
    </g>
   </g>
   <g id="matplotlib.axis_2">
    <g id="ytick_1">
     <g id="line2d_19">
      <path d="M 57.6 298.806856 
L 414.72 298.806856 
" clip-path="url(#p042cc155c4)" style="fill: none; stroke: #b0b0b0; stroke-width: 0.8; stroke-linecap: square"/>
     </g>
     <g id="line2d_20">
      <defs>
       <path id="md78fd06be5" d="M 0 0 
L -3.5 0 
" style="stroke: #000000; stroke-width: 0.8"/>
      </defs>
      <g>
       <use xlink:href="#md78fd06be5" x="57.6" y="298.806856" style="stroke: #000000; stroke-width: 0.8"/>
      </g>
     </g>
     <g id="text_11">
      <!-- 0 -->
      <g transform="translate(44.2375 302.606075) scale(0.1 -0.1)">
       <use xlink:href="#DejaVuSans-30"/>
      </g>
     </g>
    </g>
    <g id="ytick_2">
     <g id="line2d_21">
      <path d="M 57.6 245.885605 
L 414.72 245.885605 
" clip-path="url(#p042cc155c4)" style="fill: none; stroke: #b0b0b0; stroke-width: 0.8; stroke-linecap: square"/>
     </g>
     <g id="line2d_22">
      <g>
       <use xlink:href="#md78fd06be5" x="57.6" y="245.885605" style="stroke: #000000; stroke-width: 0.8"/>
      </g>
     </g>
     <g id="text_12">
      <!-- 5 -->
      <g transform="translate(44.2375 249.684824) scale(0.1 -0.1)">
       <use xlink:href="#DejaVuSans-35"/>
      </g>
     </g>
    </g>
    <g id="ytick_3">
     <g id="line2d_23">
      <path d="M 57.6 192.964354 
L 414.72 192.964354 
" clip-path="url(#p042cc155c4)" style="fill: none; stroke: #b0b0b0; stroke-width: 0.8; stroke-linecap: square"/>
     </g>
     <g id="line2d_24">
      <g>
       <use xlink:href="#md78fd06be5" x="57.6" y="192.964354" style="stroke: #000000; stroke-width: 0.8"/>
      </g>
     </g>
     <g id="text_13">
      <!-- 10 -->
      <g transform="translate(37.875 196.763573) scale(0.1 -0.1)">
       <use xlink:href="#DejaVuSans-31"/>
       <use xlink:href="#DejaVuSans-30" x="63.623047"/>
      </g>
     </g>
    </g>
    <g id="ytick_4">
     <g id="line2d_25">
      <path d="M 57.6 140.043103 
L 414.72 140.043103 
" clip-path="url(#p042cc155c4)" style="fill: none; stroke: #b0b0b0; stroke-width: 0.8; stroke-linecap: square"/>
     </g>
     <g id="line2d_26">
      <g>
       <use xlink:href="#md78fd06be5" x="57.6" y="140.043103" style="stroke: #000000; stroke-width: 0.8"/>
      </g>
     </g>
     <g id="text_14">
      <!-- 15 -->
      <g transform="translate(37.875 143.842322) scale(0.1 -0.1)">
       <use xlink:href="#DejaVuSans-31"/>
       <use xlink:href="#DejaVuSans-35" x="63.623047"/>
      </g>
     </g>
    </g>
    <g id="ytick_5">
     <g id="line2d_27">
      <path d="M 57.6 87.121852 
L 414.72 87.121852 
" clip-path="url(#p042cc155c4)" style="fill: none; stroke: #b0b0b0; stroke-width: 0.8; stroke-linecap: square"/>
     </g>
     <g id="line2d_28">
      <g>
       <use xlink:href="#md78fd06be5" x="57.6" y="87.121852" style="stroke: #000000; stroke-width: 0.8"/>
      </g>
     </g>
     <g id="text_15">
      <!-- 20 -->
      <g transform="translate(37.875 90.921071) scale(0.1 -0.1)">
       <use xlink:href="#DejaVuSans-32"/>
       <use xlink:href="#DejaVuSans-30" x="63.623047"/>
      </g>
     </g>
    </g>
    <g id="text_16">
     <!-- timeWaitAllocateMean -->
     <g transform="translate(31.795312 230.593625) rotate(-90) scale(0.1 -0.1)">
      <defs>
       <path id="DejaVuSans-57" d="M 213 4666 
L 850 4666 
L 1831 722 
L 2809 4666 
L 3519 4666 
L 4500 722 
L 5478 4666 
L 6119 4666 
L 4947 0 
L 4153 0 
L 3169 4050 
L 2175 0 
L 1381 0 
L 213 4666 
z
" transform="scale(0.015625)"/>
       <path id="DejaVuSans-61" d="M 2194 1759 
Q 1497 1759 1228 1600 
Q 959 1441 959 1056 
Q 959 750 1161 570 
Q 1363 391 1709 391 
Q 2188 391 2477 730 
Q 2766 1069 2766 1631 
L 2766 1759 
L 2194 1759 
z
M 3341 1997 
L 3341 0 
L 2766 0 
L 2766 531 
Q 2569 213 2275 61 
Q 1981 -91 1556 -91 
Q 1019 -91 701 211 
Q 384 513 384 1019 
Q 384 1609 779 1909 
Q 1175 2209 1959 2209 
L 2766 2209 
L 2766 2266 
Q 2766 2663 2505 2880 
Q 2244 3097 1772 3097 
Q 1472 3097 1187 3025 
Q 903 2953 641 2809 
L 641 3341 
Q 956 3463 1253 3523 
Q 1550 3584 1831 3584 
Q 2591 3584 2966 3190 
Q 3341 2797 3341 1997 
z
" transform="scale(0.015625)"/>
       <path id="DejaVuSans-41" d="M 2188 4044 
L 1331 1722 
L 3047 1722 
L 2188 4044 
z
M 1831 4666 
L 2547 4666 
L 4325 0 
L 3669 0 
L 3244 1197 
L 1141 1197 
L 716 0 
L 50 0 
L 1831 4666 
z
" transform="scale(0.015625)"/>
       <path id="DejaVuSans-6c" d="M 603 4863 
L 1178 4863 
L 1178 0 
L 603 0 
L 603 4863 
z
" transform="scale(0.015625)"/>
       <path id="DejaVuSans-63" d="M 3122 3366 
L 3122 2828 
Q 2878 2963 2633 3030 
Q 2388 3097 2138 3097 
Q 1578 3097 1268 2742 
Q 959 2388 959 1747 
Q 959 1106 1268 751 
Q 1578 397 2138 397 
Q 2388 397 2633 464 
Q 2878 531 3122 666 
L 3122 134 
Q 2881 22 2623 -34 
Q 2366 -91 2075 -91 
Q 1284 -91 818 406 
Q 353 903 353 1747 
Q 353 2603 823 3093 
Q 1294 3584 2113 3584 
Q 2378 3584 2631 3529 
Q 2884 3475 3122 3366 
z
" transform="scale(0.015625)"/>
       <path id="DejaVuSans-4d" d="M 628 4666 
L 1569 4666 
L 2759 1491 
L 3956 4666 
L 4897 4666 
L 4897 0 
L 4281 0 
L 4281 4097 
L 3078 897 
L 2444 897 
L 1241 4097 
L 1241 0 
L 628 0 
L 628 4666 
z
" transform="scale(0.015625)"/>
      </defs>
      <use xlink:href="#DejaVuSans-74"/>
      <use xlink:href="#DejaVuSans-69" x="39.208984"/>
      <use xlink:href="#DejaVuSans-6d" x="66.992188"/>
      <use xlink:href="#DejaVuSans-65" x="164.404297"/>
      <use xlink:href="#DejaVuSans-57" x="225.927734"/>
      <use xlink:href="#DejaVuSans-61" x="318.429688"/>
      <use xlink:href="#DejaVuSans-69" x="379.708984"/>
      <use xlink:href="#DejaVuSans-74" x="407.492188"/>
      <use xlink:href="#DejaVuSans-41" x="446.701172"/>
      <use xlink:href="#DejaVuSans-6c" x="515.109375"/>
      <use xlink:href="#DejaVuSans-6c" x="542.892578"/>
      <use xlink:href="#DejaVuSans-6f" x="570.675781"/>
      <use xlink:href="#DejaVuSans-63" x="631.857422"/>
      <use xlink:href="#DejaVuSans-61" x="686.837891"/>
      <use xlink:href="#DejaVuSans-74" x="748.117188"/>
      <use xlink:href="#DejaVuSans-65" x="787.326172"/>
      <use xlink:href="#DejaVuSans-4d" x="848.849609"/>
      <use xlink:href="#DejaVuSans-65" x="935.128906"/>
      <use xlink:href="#DejaVuSans-61" x="996.652344"/>
      <use xlink:href="#DejaVuSans-6e" x="1057.931641"/>
     </g>
    </g>
   </g>
   <g id="line2d_29">
    <path d="M 73.895775 217.63796 
L 73.902667 217.63796 
L 73.973249 53.568 
L 73.993837 159.357954 
L 74.351161 237.383475 
L 74.494115 237.204718 
L 74.618986 243.557423 
L 74.818846 250.486801 
L 74.823298 250.016485 
L 74.898628 250.069206 
L 74.999055 256.154464 
L 75.140793 256.337736 
L 75.249976 259.793799 
L 75.290404 259.807013 
L 75.293612 259.724228 
L 75.431786 262.800755 
L 75.485479 262.815703 
L 75.524638 263.312664 
L 75.625823 263.236673 
L 75.741379 265.895054 
L 75.914052 265.898189 
L 75.949646 266.476337 
L 76.064483 266.60483 
L 76.073179 265.545174 
L 76.234749 265.620019 
L 76.341871 265.884 
L 76.401928 265.806273 
L 76.449654 265.965775 
L 76.483545 265.490244 
L 76.601547 265.231089 
L 76.76325 266.097404 
L 76.871177 266.014255 
L 76.875812 266.063154 
L 76.911566 266.100634 
L 77.222721 268.408858 
L 77.430435 268.69536 
L 77.432553 268.595433 
L 77.439353 268.524107 
L 77.449286 268.573446 
L 77.453999 268.253792 
L 77.543696 268.652557 
L 77.638754 268.544336 
L 77.660066 268.821567 
L 77.951102 268.599408 
L 77.960522 268.867166 
L 78.004992 268.523203 
L 78.130734 268.693483 
L 78.200541 269.034589 
L 78.245523 269.031689 
L 78.249228 269.030952 
L 78.252346 267.859662 
L 78.563284 268.537799 
L 78.662127 269.025433 
L 78.675612 269.01756 
L 78.680428 268.47186 
L 78.777429 269.099811 
L 78.831892 269.273313 
L 78.902179 269.182237 
L 78.943877 269.178322 
L 78.946273 269.017616 
L 79.068336 269.022625 
L 79.068336 268.99038 
L 79.144129 268.736611 
L 79.209047 269.198236 
L 79.597236 269.203055 
L 79.598057 269.815886 
L 79.797018 269.978722 
L 79.887277 270.62219 
L 80.073327 271.271177 
L 80.292 271.265025 
L 80.403162 271.69429 
L 80.440299 271.737948 
L 80.455094 272.634564 
L 80.912856 272.737127 
L 80.934465 272.945176 
L 81.037908 272.911623 
L 81.1414 272.933477 
L 81.175025 272.62751 
L 81.389001 272.884604 
L 81.681366 272.933683 
L 81.691467 273.040719 
L 81.833838 273.044162 
L 81.929015 273.217624 
L 81.933581 273.157957 
L 81.961419 273.154268 
L 81.962807 273.294853 
L 82.097371 273.328867 
L 82.176328 273.724491 
L 82.295307 273.828831 
L 82.338965 273.301244 
L 82.577838 273.321089 
L 82.675775 273.478323 
L 82.825135 273.331465 
L 82.826322 273.077916 
L 82.913797 273.119918 
L 83.038561 273.123929 
L 83.155798 273.70251 
L 83.286625 273.677538 
L 83.383326 273.212815 
L 83.434704 273.215486 
L 83.528245 273.421207 
L 83.685663 273.357458 
L 83.747759 273.154225 
L 84.070455 273.21346 
L 84.07758 272.913014 
L 84.471327 272.792164 
L 84.473523 273.144668 
L 84.736703 273.242924 
L 84.921999 273.604402 
L 85.233547 273.71117 
L 85.317339 273.845671 
L 85.462613 273.904687 
L 85.491428 274.221609 
L 85.737753 274.295265 
L 85.799957 274.485301 
L 86.006399 274.53151 
L 86.319774 274.708541 
L 86.503024 274.600233 
L 86.538742 274.689524 
L 86.689234 274.723327 
L 86.698683 274.641092 
L 87.121674 274.663857 
L 87.14608 274.362668 
L 87.18739 274.532205 
L 87.651035 274.634141 
L 87.729884 274.673777 
L 87.731701 274.838567 
L 87.983937 274.836568 
L 88.030487 274.798602 
L 88.067498 274.900505 
L 88.307217 275.132068 
L 88.364655 275.314911 
L 88.663917 275.419445 
L 89.117299 275.731334 
L 89.130898 275.692282 
L 89.135492 274.968627 
L 89.220549 274.971976 
L 89.346253 275.046144 
L 89.352605 275.000221 
L 89.40693 274.818485 
L 89.493443 274.952201 
L 90.75508 275.071762 
L 90.858906 275.194311 
L 91.03399 275.14159 
L 91.044296 275.033162 
L 91.130068 275.103617 
L 91.709134 275.19637 
L 91.73642 274.897422 
L 92.183954 275.062234 
L 92.263235 275.062884 
L 92.278336 275.01343 
L 92.324586 274.66815 
L 92.491539 274.576808 
L 92.857048 274.61631 
L 92.933471 274.731768 
L 93.176843 274.811744 
L 93.299751 274.645792 
L 93.465788 274.771217 
L 93.807236 274.894617 
L 93.916729 274.784195 
L 93.917379 274.792951 
L 94.0455 274.594509 
L 94.046573 274.619233 
L 94.246222 274.699314 
L 94.787314 275.004754 
L 94.83294 275.136938 
L 95.178381 274.98203 
L 95.18012 273.479112 
L 95.641544 273.591543 
L 95.680181 273.730281 
L 96.214376 273.926423 
L 96.313771 274.011067 
L 96.369813 274.001372 
L 96.372595 274.143498 
L 96.519812 274.268638 
L 96.873505 274.219803 
L 96.972748 274.048567 
L 96.977562 274.085867 
L 97.137573 274.117331 
L 97.173607 274.416987 
L 97.463967 274.425648 
L 97.601141 274.292378 
L 97.603788 274.383847 
L 97.775358 274.398036 
L 97.7909 274.735979 
L 98.571474 274.885627 
L 98.67652 274.979251 
L 98.681134 274.858413 
L 99.027139 274.914024 
L 99.198414 274.965004 
L 99.941017 275.186392 
L 99.953083 275.147434 
L 100.350137 275.237591 
L 101.121365 275.419067 
L 101.231036 275.252689 
L 101.332913 275.252785 
L 101.421251 275.112874 
L 101.424779 275.113518 
L 102.039154 275.157238 
L 102.117262 275.22018 
L 102.127511 275.193528 
L 102.408338 275.297268 
L 103.185775 275.458245 
L 104.192925 275.541135 
L 104.265631 275.577253 
L 104.275338 275.57549 
L 104.869946 275.662074 
L 104.87182 275.736363 
L 106.278247 275.77467 
L 106.279437 275.899998 
L 107.115558 275.955992 
L 109.394948 276.098535 
L 109.54906 276.08414 
L 109.954991 276.057984 
L 109.959477 275.962376 
L 111.330416 276.144179 
L 111.763962 276.282616 
L 112.092855 276.355109 
L 112.4976 276.564809 
L 113.541387 276.644422 
L 113.7951 276.719055 
L 113.869437 276.590193 
L 114.063647 276.572597 
L 114.263298 276.58028 
L 114.264589 276.372942 
L 115.508166 276.330281 
L 115.598018 276.185131 
L 115.776398 276.179126 
L 118.186853 276.294281 
L 118.513508 276.338479 
L 119.802073 276.277303 
L 120.395877 276.266525 
L 120.514537 276.223197 
L 120.517174 276.231241 
L 120.98352 276.202249 
L 121.675546 276.21967 
L 121.913482 276.238643 
L 122.241105 276.313237 
L 125.032418 275.769904 
L 128.592113 276.000476 
L 128.997157 276.04459 
L 129.55526 276.042128 
L 129.557059 275.849291 
L 129.605213 275.853766 
L 131.293445 275.941054 
L 131.319528 276.025398 
L 132.962906 276.051508 
L 133.015953 276.105478 
L 135.460816 276.076105 
L 135.900113 276.157045 
L 136.999615 276.132438 
L 137.147379 276.116896 
L 138.015303 276.06951 
L 138.10217 275.878579 
L 140.694702 276.011225 
L 140.854444 276.022833 
L 140.860571 275.807451 
L 140.932684 275.819782 
L 141.29442 275.791475 
L 141.295243 275.832379 
L 142.478637 275.74554 
L 142.980435 275.704322 
L 142.980435 275.706602 
L 143.38385 275.731555 
L 143.642403 275.701623 
L 146.242864 275.737024 
L 147.543285 275.876636 
L 148.416282 275.855275 
L 149.066069 275.811794 
L 149.071044 275.656422 
L 149.890084 275.619668 
L 149.893376 275.633509 
L 150.681198 275.531629 
L 150.688402 275.508255 
L 152.226567 275.442086 
L 152.484799 275.419878 
L 153.040418 275.443472 
L 153.552581 275.367435 
L 153.556186 275.194063 
L 154.948112 275.284155 
L 155.082594 275.310598 
L 156.067431 275.40683 
L 156.176658 275.429432 
L 156.943948 275.431218 
L 157.032272 275.277654 
L 162.572187 275.44045 
L 162.573003 275.486823 
L 163.215604 275.459494 
L 163.217973 275.477306 
L 164.552846 275.502726 
L 165.170749 275.519008 
L 166.540409 275.4336 
L 166.57025 275.347425 
L 172.779465 275.365505 
L 172.791968 275.404201 
L 173.668849 275.310869 
L 173.673016 275.259836 
L 174.238449 275.181468 
L 177.39958 275.281806 
L 177.511558 275.302511 
L 178.674363 275.39725 
L 178.830753 275.41754 
L 182.401554 275.518047 
L 182.720068 275.522522 
L 182.737411 275.443687 
L 185.479282 275.344462 
L 185.658864 275.318124 
L 185.667441 275.331523 
L 189.306935 275.347144 
L 189.309269 275.385364 
L 193.020188 275.321714 
L 193.123265 275.229827 
L 211.390435 275.174396 
L 211.446958 275.169288 
L 213.447462 275.177152 
L 217.693465 275.305666 
L 217.695951 275.282256 
L 217.797706 275.293253 
L 220.663745 275.387526 
L 220.684175 275.428015 
L 235.534255 275.502847 
L 235.538846 275.52834 
L 239.340729 275.639931 
L 243.09738 275.556889 
L 243.103988 275.536289 
L 245.182429 275.574829 
L 245.628687 275.530807 
L 249.288788 275.555382 
L 249.329315 275.542029 
L 249.400258 275.547704 
L 250.116406 275.564832 
L 263.994543 275.467499 
L 264.378652 275.444659 
L 271.843226 275.492636 
L 271.846719 275.45963 
L 280.605241 275.525511 
L 281.123955 275.55537 
L 295.000781 275.665862 
L 295.106659 275.675303 
L 295.106659 275.673279 
L 300.335368 275.778339 
L 301.4353 275.738024 
L 301.521955 275.653913 
L 301.527007 275.663188 
L 306.095439 275.587886 
L 306.182392 275.574826 
L 307.162229 275.553711 
L 307.162229 275.556054 
L 319.532426 275.607335 
L 319.666529 275.601763 
L 319.949904 275.586082 
L 324.789905 275.615547 
L 327.88709 275.530278 
L 348.578255 275.436612 
L 348.930785 275.405128 
L 379.789549 275.381298 
L 383.099689 275.433988 
L 383.38884 275.420644 
L 390.660143 275.387262 
L 390.831322 275.359601 
L 391.825141 275.380837 
L 392.026407 275.361833 
L 398.481869 275.383831 
L 398.481869 275.383831 
" clip-path="url(#p042cc155c4)" style="fill: none; stroke: #1f77b4; stroke-width: 1.5; stroke-linecap: square"/>
   </g>
   <g id="line2d_30">
    <path d="M 73.832727 295.488 
L 73.864863 294.666781 
L 73.885219 207.046411 
L 73.946674 247.929561 
L 74.292541 266.550222 
L 74.309475 266.049554 
L 74.362877 263.161086 
L 74.395336 268.70304 
L 74.524323 268.888624 
L 74.533188 268.863419 
L 74.602076 268.185094 
L 74.610219 270.994277 
L 74.799093 273.61374 
L 74.849346 272.093512 
L 75.028362 271.877961 
L 75.036743 272.303932 
L 75.275392 272.596829 
L 75.315377 272.072283 
L 75.3176 274.259179 
L 75.563909 274.981296 
L 75.570654 274.961698 
L 75.641207 273.050958 
L 75.643329 274.326047 
L 75.785073 273.014646 
L 75.950356 273.358912 
L 76.18171 274.324897 
L 76.269446 273.163783 
L 76.335191 273.078809 
L 76.352731 273.385405 
L 76.473069 273.501949 
L 76.500172 274.404898 
L 76.606354 274.342898 
L 76.607228 273.16069 
L 76.679152 273.738759 
L 76.800083 273.753917 
L 76.803456 272.435691 
L 76.995505 272.304467 
L 77.107186 272.873484 
L 77.227616 272.89649 
L 77.230289 273.662093 
L 77.433416 273.630608 
L 77.438056 273.672352 
L 77.493823 273.79673 
L 77.545819 273.667631 
L 77.846424 272.934577 
L 77.848073 272.936195 
L 78.01483 273.537025 
L 78.079097 273.534886 
L 78.081888 273.397031 
L 78.145455 273.707217 
L 78.269723 273.421112 
L 78.388078 273.832061 
L 78.388078 271.97866 
L 78.653909 272.068888 
L 78.657251 271.940354 
L 78.733123 272.126014 
L 78.773495 272.088338 
L 78.778728 272.3259 
L 78.966594 272.081705 
L 78.987264 272.101687 
L 78.996675 272.64844 
L 79.145424 273.093315 
L 79.429002 273.308492 
L 79.456537 272.862222 
L 79.864452 273.725905 
L 79.993256 273.734641 
L 80.03696 273.531237 
L 80.03696 273.580676 
L 80.299574 274.427692 
L 80.435157 274.487174 
L 80.511485 274.815121 
L 80.617345 274.776962 
L 80.696444 274.535996 
L 80.784233 274.492668 
L 80.784233 273.486414 
L 80.867213 273.554901 
L 81.008627 273.832818 
L 81.047412 273.762556 
L 81.146274 273.783617 
L 81.162262 273.953491 
L 81.399965 274.047715 
L 81.4895 274.142403 
L 81.493205 274.063221 
L 81.645877 274.001823 
L 81.694049 274.045579 
L 81.697299 273.097396 
L 81.769765 273.465089 
L 82.083168 273.506308 
L 82.158511 273.664114 
L 82.162497 273.401585 
L 82.431651 273.136713 
L 82.810785 273.520917 
L 82.952985 273.425569 
L 82.958452 273.414852 
L 82.958793 273.601954 
L 83.051495 273.544689 
L 83.154858 273.556795 
L 83.156183 274.019015 
L 83.538345 274.380414 
L 83.544137 274.362687 
L 83.605149 273.247166 
L 83.716722 273.215574 
L 83.717571 273.223273 
L 83.7914 272.939477 
L 83.846349 272.962983 
L 83.858731 272.884047 
L 84.133271 272.727036 
L 84.218922 273.115347 
L 84.331532 273.125021 
L 84.335794 272.903198 
L 84.403963 272.982415 
L 84.448199 273.009636 
L 84.482967 273.460153 
L 84.721784 273.345304 
L 84.837259 273.258153 
L 85.015624 273.549876 
L 85.169481 273.571868 
L 85.173142 273.153046 
L 85.254097 273.194661 
L 85.383262 273.137685 
L 85.386324 272.992137 
L 85.669102 273.112982 
L 85.77387 273.505674 
L 86.125926 273.341063 
L 86.178008 273.501898 
L 86.217195 273.383043 
L 86.264691 273.333853 
L 86.269481 273.49873 
L 86.498393 273.55467 
L 86.595015 273.720403 
L 86.826826 273.753571 
L 86.958785 273.546236 
L 87.132976 273.507705 
L 87.185677 273.795307 
L 87.347722 273.782325 
L 87.365772 273.631788 
L 87.668649 273.754929 
L 87.808666 273.813983 
L 87.809571 273.900505 
L 87.866061 273.893298 
L 88.232441 274.085447 
L 88.237494 273.947916 
L 88.74574 274.034201 
L 88.74765 274.393708 
L 89.268489 274.562807 
L 89.504912 274.805181 
L 89.667086 274.802772 
L 89.83754 274.953561 
L 90.117233 274.942616 
L 90.250545 275.364659 
L 90.709326 275.34308 
L 90.793844 275.384363 
L 90.797089 275.27689 
L 91.09311 275.210285 
L 91.211644 275.085365 
L 91.354056 275.120084 
L 91.354056 275.065263 
L 91.376911 275.290221 
L 91.797422 275.302867 
L 91.799619 275.072566 
L 91.935739 275.066883 
L 91.939998 274.944941 
L 91.995413 275.017347 
L 92.410471 275.076048 
L 92.410471 274.904924 
L 92.633567 274.946643 
L 92.843995 274.633905 
L 94.072407 274.7196 
L 94.145332 274.840963 
L 94.648517 274.950105 
L 94.845557 275.041714 
L 94.931647 275.079325 
L 94.932206 275.080736 
L 94.934566 275.175833 
L 95.192536 275.140619 
L 95.196708 274.97763 
L 95.49366 274.915239 
L 95.493954 274.861687 
L 95.509662 274.927264 
L 95.780048 274.901068 
L 95.782048 274.787529 
L 96.199036 274.860983 
L 96.213442 274.927017 
L 96.665518 274.990316 
L 96.758485 275.126744 
L 97.349398 275.198219 
L 97.352364 275.314373 
L 98.028087 275.2653 
L 98.038908 275.415066 
L 98.776801 275.343498 
L 98.885509 275.23262 
L 98.926894 275.335225 
L 99.051725 275.345142 
L 99.069166 274.992993 
L 99.385733 275.016867 
L 99.648785 275.061222 
L 99.795648 274.941378 
L 99.795648 274.979096 
L 100.18371 274.876006 
L 100.395756 274.787196 
L 101.567928 274.791769 
L 101.581764 274.976075 
L 104.848603 275.101964 
L 104.964434 275.163221 
L 105.239527 275.130326 
L 105.24406 275.065833 
L 105.291812 275.077392 
L 105.648337 275.108014 
L 105.722301 275.192011 
L 106.172879 275.288168 
L 106.286213 275.358941 
L 106.344827 275.364197 
L 106.417771 275.364004 
L 106.421709 275.481607 
L 107.392723 275.735132 
L 107.473513 275.673708 
L 107.514794 275.712542 
L 108.129861 275.644293 
L 108.130023 275.574087 
L 108.18305 275.626997 
L 108.589634 275.510877 
L 108.678899 275.255025 
L 108.682458 275.26443 
L 109.498078 275.331687 
L 109.679715 275.465643 
L 109.951747 275.401484 
L 110.625686 275.406099 
L 110.629519 275.506643 
L 111.171945 275.535086 
L 111.267513 275.254984 
L 111.663064 275.154743 
L 111.750733 275.149176 
L 111.75931 275.184623 
L 112.827255 275.270621 
L 112.953846 275.278897 
L 113.40216 275.348851 
L 113.413531 275.437112 
L 113.713246 275.420517 
L 114.026555 275.48369 
L 114.027834 275.541183 
L 114.134158 275.4633 
L 116.261282 275.591176 
L 116.340868 275.627606 
L 116.34379 275.523481 
L 116.538836 275.505249 
L 116.5392 275.187791 
L 117.142391 275.084473 
L 117.153069 275.059477 
L 117.15559 275.159422 
L 118.461159 275.137775 
L 118.466904 274.703223 
L 119.097198 274.770244 
L 119.181838 274.78575 
L 119.199077 274.775191 
L 119.8862 274.781513 
L 120.294288 274.87187 
L 120.568099 274.870115 
L 120.634907 274.989053 
L 121.937036 275.093563 
L 122.015892 275.125096 
L 122.02202 275.088287 
L 124.379449 275.189299 
L 124.38665 275.307175 
L 125.388182 275.210025 
L 125.486156 275.162629 
L 125.588559 275.191775 
L 125.610312 275.122198 
L 126.928051 275.312664 
L 126.932146 275.16839 
L 128.447517 275.253025 
L 128.447839 275.317945 
L 129.057304 275.462309 
L 129.126003 275.418426 
L 129.145134 275.453818 
L 129.461918 275.520956 
L 129.69413 275.503511 
L 129.781304 275.414115 
L 130.494882 275.602058 
L 131.090776 275.499144 
L 131.093862 275.443058 
L 131.659644 275.347866 
L 131.665017 275.28191 
L 131.748917 275.319835 
L 131.85811 275.318684 
L 131.963325 275.131165 
L 132.520196 275.22274 
L 132.768475 275.25619 
L 136.596951 275.369895 
L 136.676188 275.472001 
L 136.970286 275.474966 
L 136.976116 275.315631 
L 138.982949 275.264871 
L 141.473247 275.205614 
L 141.488992 275.071389 
L 142.148069 275.147302 
L 143.723235 275.207261 
L 144.360863 275.300055 
L 144.437392 275.328674 
L 146.91857 275.271896 
L 146.923153 275.120489 
L 147.023217 275.143251 
L 150.522404 275.161399 
L 150.524261 274.960405 
L 152.134408 275.071081 
L 152.13859 275.10595 
L 154.173089 275.078307 
L 154.240847 274.960734 
L 154.262814 274.963293 
L 155.497145 274.881778 
L 155.658512 274.913683 
L 155.664391 274.89992 
L 156.056174 274.91125 
L 159.912217 275.008921 
L 159.9128 275.041758 
L 161.015514 275.0081 
L 161.143633 274.996714 
L 163.942973 275.038101 
L 163.956766 274.946518 
L 175.540928 275.402468 
L 175.569703 275.432611 
L 176.537031 275.345181 
L 186.18771 275.565649 
L 186.201764 275.509864 
L 187.780238 275.430334 
L 188.138166 275.420926 
L 191.439011 275.490076 
L 193.574099 275.597636 
L 194.641471 275.621992 
L 194.718042 275.59677 
L 195.371273 275.610583 
L 195.411198 275.626913 
L 199.972744 275.724535 
L 200.077849 275.74106 
L 205.927674 275.757716 
L 206.13139 275.749368 
L 206.133654 275.574561 
L 206.238879 275.576395 
L 207.001407 275.642261 
L 207.07997 275.623247 
L 207.092723 275.63375 
L 207.867483 275.645567 
L 212.499356 275.632372 
L 213.570134 275.676972 
L 215.586386 275.617749 
L 219.28605 275.708739 
L 219.519678 275.732047 
L 227.884133 275.671057 
L 228.24418 275.60174 
L 248.658768 275.676423 
L 248.872547 275.67283 
L 249.769263 275.629252 
L 249.769329 275.5522 
L 251.623648 275.554414 
L 255.067658 275.625057 
L 255.751167 275.618642 
L 263.822688 275.519952 
L 266.292505 275.495869 
L 266.782054 275.488603 
L 267.243448 275.483028 
L 268.435672 275.410681 
L 269.154584 275.398589 
L 286.605901 275.285574 
L 286.618264 275.308072 
L 288.430106 275.251344 
L 288.512177 275.259835 
L 290.084567 275.231585 
L 292.918346 275.23252 
L 295.49429 275.223282 
L 307.664146 275.173696 
L 308.066139 275.160944 
L 308.0664 275.164699 
L 311.756453 275.102526 
L 311.761772 275.064402 
L 324.832445 275.106288 
L 325.468917 275.10376 
L 338.631216 275.209657 
L 340.793331 275.206333 
L 350.360923 275.261605 
L 350.360969 275.25643 
L 350.431452 275.259273 
L 351.536092 275.227469 
L 355.550718 275.221287 
L 363.189622 275.210735 
L 365.394976 275.183096 
L 398.487273 275.131412 
L 398.487273 275.131412 
" clip-path="url(#p042cc155c4)" style="fill: none; stroke: #ff7f0e; stroke-width: 1.5; stroke-linecap: square"/>
   </g>
   <g id="line2d_31">
    <path d="M 73.871395 260.76702 
L 73.879799 233.948235 
L 73.985857 285.059304 
L 74.022915 284.51716 
L 74.026396 284.606923 
L 74.037203 267.366191 
L 74.14408 270.510722 
L 74.179322 270.484592 
L 74.273926 275.209474 
L 74.342425 275.554113 
L 74.358603 284.824709 
L 74.711142 284.388127 
L 74.950122 281.919329 
L 75.090652 280.958772 
L 75.218808 281.201435 
L 75.221921 282.526242 
L 75.39754 282.841405 
L 75.489044 275.591179 
L 75.667832 275.787827 
L 75.677085 275.755106 
L 75.741205 274.971129 
L 75.777735 275.108701 
L 75.852035 275.894744 
L 76.021768 275.05227 
L 76.094625 274.220339 
L 76.096808 274.43683 
L 76.137463 275.582584 
L 76.271164 275.575845 
L 76.326558 275.947957 
L 76.376418 275.052306 
L 76.378315 275.061522 
L 76.402135 274.67822 
L 76.418642 271.759324 
L 76.681607 271.682364 
L 76.685961 271.572488 
L 76.691578 271.94013 
L 76.809744 271.917835 
L 76.813548 271.629466 
L 76.913072 271.767366 
L 76.927223 272.319565 
L 77.005956 271.963365 
L 77.06457 271.981849 
L 77.080445 271.931155 
L 77.083822 271.043473 
L 77.141911 271.53183 
L 77.269654 271.606615 
L 77.329101 271.039698 
L 77.390355 271.051564 
L 77.394148 271.794381 
L 77.549649 271.893391 
L 77.742734 272.265739 
L 77.759581 272.256087 
L 77.805955 272.715643 
L 78.136649 273.140646 
L 78.159222 273.954095 
L 78.377373 273.941012 
L 78.466598 273.554564 
L 78.55848 273.598483 
L 78.666781 273.816543 
L 78.66875 273.795641 
L 78.828716 274.066444 
L 78.95391 274.070564 
L 79.015341 274.217524 
L 79.01556 272.048215 
L 79.136964 272.04694 
L 79.137311 272.863593 
L 79.53165 272.905102 
L 79.611791 272.300551 
L 79.612091 272.510226 
L 79.663704 272.537046 
L 79.754403 272.149794 
L 79.997642 272.474376 
L 79.997642 272.460769 
L 79.999336 273.133143 
L 80.256128 273.399344 
L 80.256128 272.467676 
L 80.356881 272.534951 
L 80.416937 272.618004 
L 80.453461 273.16265 
L 80.708358 273.049319 
L 80.822258 272.662121 
L 81.009377 272.740437 
L 81.076403 272.919094 
L 81.184 273.04567 
L 81.259251 273.067329 
L 81.284722 273.43316 
L 81.525041 273.371696 
L 81.563693 273.958844 
L 81.862189 273.984748 
L 81.980073 274.10774 
L 81.985832 274.069529 
L 82.253102 274.549291 
L 82.255447 274.80301 
L 82.479099 274.914967 
L 82.482593 274.840696 
L 82.494719 275.053693 
L 82.576627 274.928298 
L 82.920258 275.00999 
L 83.009388 275.142588 
L 83.262894 275.290385 
L 83.442605 275.530485 
L 83.59673 275.158336 
L 83.898756 275.496852 
L 83.90568 275.491271 
L 83.908359 275.248306 
L 84.012261 275.270274 
L 84.146185 275.39806 
L 84.190048 275.377514 
L 84.256866 275.112347 
L 84.258171 275.339146 
L 84.697393 275.679148 
L 84.77258 275.426678 
L 84.80836 275.54123 
L 84.841521 275.54123 
L 84.841521 275.350732 
L 84.921262 275.418891 
L 84.98317 275.427564 
L 85.114593 275.705508 
L 85.448279 275.718734 
L 85.455404 275.824056 
L 85.523676 275.573764 
L 85.758085 275.513446 
L 85.934351 275.556807 
L 85.967464 275.624909 
L 86.107587 275.943993 
L 86.233785 275.91938 
L 86.237757 276.005593 
L 86.589753 276.055939 
L 86.688809 276.24494 
L 86.837182 276.347974 
L 86.858946 276.250395 
L 86.867478 276.19972 
L 86.918728 276.264726 
L 87.016954 276.263982 
L 87.117656 276.414446 
L 87.128487 276.40393 
L 87.140803 276.344398 
L 87.249977 276.383368 
L 87.350206 276.410792 
L 87.353914 276.400026 
L 87.449107 275.871744 
L 87.738178 275.906505 
L 87.740467 276.024748 
L 87.955656 275.908369 
L 88.232097 275.997034 
L 88.333638 276.075046 
L 88.874584 276.247512 
L 88.959234 276.241338 
L 89.042272 276.397392 
L 89.274256 276.438229 
L 89.337641 276.560982 
L 89.844471 276.622612 
L 89.892758 276.702675 
L 89.9673 276.631326 
L 90.180744 276.647877 
L 90.635604 276.485735 
L 90.750199 276.597005 
L 90.753235 276.595606 
L 90.864513 276.427955 
L 90.867734 276.511707 
L 90.977279 276.69251 
L 91.24065 276.615726 
L 91.310472 276.524598 
L 92.066496 276.505903 
L 92.07201 275.955981 
L 92.518097 275.857405 
L 92.523322 276.024102 
L 92.84969 276.145265 
L 92.959303 275.970062 
L 95.272724 276.060555 
L 95.31872 275.891722 
L 95.610694 275.703571 
L 95.748598 275.6452 
L 95.750502 275.673625 
L 95.993536 275.656059 
L 96.026611 275.523524 
L 96.697804 275.718657 
L 96.703767 275.450695 
L 96.775082 275.485853 
L 96.979523 275.475322 
L 96.983928 274.94346 
L 97.831322 274.994731 
L 98.027821 275.097536 
L 98.032732 275.069216 
L 98.07505 275.037083 
L 98.094275 275.095274 
L 98.473921 275.131963 
L 98.47769 274.879383 
L 98.752775 275.113626 
L 99.052196 275.103674 
L 99.054847 274.957044 
L 99.155498 274.959251 
L 99.212085 274.99565 
L 99.227301 274.980924 
L 99.530829 274.980458 
L 99.54436 275.032308 
L 99.628504 275.007156 
L 100.172685 275.08505 
L 100.178604 274.815394 
L 100.284819 274.849389 
L 100.522691 274.887214 
L 100.590418 274.717331 
L 100.634477 274.786107 
L 100.813297 274.717237 
L 101.041541 274.590938 
L 101.041706 274.621285 
L 101.101982 274.612066 
L 101.105319 274.481494 
L 101.299943 274.44057 
L 101.322674 274.315368 
L 101.934742 274.400599 
L 102.020967 274.46128 
L 102.049539 274.418703 
L 102.178579 274.353534 
L 102.602801 274.442075 
L 102.607186 274.370774 
L 102.697216 274.361022 
L 102.699468 274.458363 
L 103.689802 274.603923 
L 103.783007 274.647679 
L 104.085824 274.648493 
L 104.362772 274.7987 
L 104.371298 274.707092 
L 105.78545 274.745469 
L 105.948997 274.723122 
L 106.038782 274.821902 
L 106.689699 274.89605 
L 106.692725 274.914774 
L 107.672423 274.913582 
L 107.786635 274.775329 
L 107.787185 274.776616 
L 108.071245 274.763785 
L 108.075819 274.657473 
L 108.170198 274.673697 
L 108.42891 274.728637 
L 108.462557 274.81109 
L 109.198224 274.881789 
L 109.617905 274.919217 
L 109.733516 274.606272 
L 110.358425 274.51534 
L 110.367193 274.445891 
L 112.542203 274.605731 
L 112.743328 274.351699 
L 113.102016 274.340522 
L 113.106023 274.2669 
L 113.290145 274.154263 
L 113.397979 274.086581 
L 113.840751 274.190266 
L 114.003377 274.236889 
L 114.185919 274.3247 
L 114.280463 274.364157 
L 114.289252 274.358604 
L 115.13915 274.546074 
L 115.141963 274.624936 
L 115.518198 274.507629 
L 116.088528 274.538542 
L 116.114596 274.61608 
L 117.660248 274.70607 
L 117.915842 274.769015 
L 119.838816 274.85489 
L 119.889747 274.909395 
L 120.220461 274.862525 
L 120.222862 274.772157 
L 123.148899 274.772737 
L 123.431201 274.840349 
L 123.527905 274.826383 
L 123.528823 274.847021 
L 127.019512 274.914586 
L 127.133716 274.944167 
L 127.492657 274.876119 
L 127.723064 274.938876 
L 129.733082 275.11611 
L 129.960933 275.149942 
L 130.710019 275.220918 
L 130.960201 275.294403 
L 131.351987 275.259795 
L 131.355103 274.985932 
L 134.833694 274.942551 
L 134.857448 274.828728 
L 136.839641 274.965436 
L 136.891503 275.077885 
L 139.050711 274.988474 
L 139.130436 274.974063 
L 139.138761 274.986912 
L 139.427269 275.032886 
L 142.92316 275.147381 
L 142.932154 275.189812 
L 143.375486 275.142955 
L 143.378807 275.073145 
L 143.470956 275.089688 
L 144.82412 275.190037 
L 147.088866 275.225461 
L 147.131524 275.164856 
L 147.146372 275.169913 
L 147.89975 275.093055 
L 148.002229 275.076198 
L 148.010833 275.110322 
L 148.74519 275.038616 
L 148.746297 274.962886 
L 149.449406 274.941662 
L 149.525433 274.913378 
L 150.304435 274.888475 
L 154.386291 274.930988 
L 154.38688 274.987607 
L 155.946202 275.099296 
L 157.738604 275.196672 
L 157.739991 275.028603 
L 158.00826 275.024837 
L 158.019362 274.820137 
L 159.46693 274.907822 
L 160.255309 275.032095 
L 160.410342 275.009766 
L 160.882 274.944528 
L 160.883473 274.954936 
L 161.470961 274.990988 
L 163.424192 275.021229 
L 163.427832 274.985432 
L 168.863963 275.056603 
L 168.866418 275.099741 
L 169.778615 275.202191 
L 169.793413 275.223957 
L 172.970129 275.114907 
L 172.972485 275.065131 
L 174.351115 275.14756 
L 175.385953 275.115585 
L 178.887371 274.966772 
L 178.999159 274.941881 
L 180.185305 274.879254 
L 181.53589 274.784966 
L 181.835703 274.725028 
L 183.450618 274.793351 
L 185.431138 274.847071 
L 185.806041 274.762697 
L 185.825023 274.687473 
L 191.702539 274.586296 
L 191.998219 274.590909 
L 197.676697 274.633148 
L 198.685345 274.519675 
L 199.30731 274.499445 
L 206.662342 274.591811 
L 206.885118 274.622505 
L 225.444097 274.685955 
L 225.639547 274.64724 
L 225.646498 274.66375 
L 228.556904 274.603012 
L 228.572501 274.634456 
L 232.083585 274.742672 
L 232.087029 274.771974 
L 234.238729 274.861544 
L 234.345691 274.856365 
L 234.347248 274.857941 
L 240.077134 274.68649 
L 240.154085 274.657852 
L 240.154251 274.663126 
L 242.098194 274.627398 
L 242.635625 274.671867 
L 244.249388 274.669608 
L 244.656024 274.702432 
L 245.165475 274.670954 
L 259.030885 274.849321 
L 259.031581 274.863771 
L 262.372404 274.763094 
L 262.463424 274.743283 
L 263.312029 274.7634 
L 264.32699 274.751525 
L 264.541211 274.756582 
L 264.546914 274.719068 
L 267.806057 274.699108 
L 267.808161 274.673315 
L 273.298162 274.575929 
L 273.301403 274.544871 
L 292.522286 274.774018 
L 292.853857 274.757655 
L 295.810832 274.723441 
L 296.080186 274.717233 
L 310.696191 274.754202 
L 310.698787 274.771372 
L 322.073007 274.792585 
L 322.073007 274.776501 
L 323.888035 274.730743 
L 323.888035 274.737931 
L 351.256625 274.853545 
L 352.570779 274.835291 
L 354.710888 274.878265 
L 354.716571 274.887636 
L 355.932499 274.86786 
L 356.042813 274.835704 
L 356.297478 274.835549 
L 358.282241 274.813507 
L 382.944309 274.879183 
L 383.385292 274.89372 
L 386.527831 274.873561 
L 386.528016 274.729443 
L 387.77272 274.701676 
L 387.79971 274.667677 
L 398.403588 274.605046 
L 398.403588 274.605046 
" clip-path="url(#p042cc155c4)" style="fill: none; stroke: #2ca02c; stroke-width: 1.5; stroke-linecap: square"/>
   </g>
   <g id="line2d_32">
    <path d="M 73.845839 281.640729 
L 73.847246 154.624252 
L 73.942473 286.297222 
L 73.996403 282.868531 
L 74.012052 283.186989 
L 74.015921 273.585428 
L 74.131659 273.153665 
L 74.136361 241.987701 
L 74.24545 242.236035 
L 74.248992 252.288618 
L 74.42306 252.50531 
L 74.425787 252.571049 
L 74.427892 256.279357 
L 74.735148 262.048046 
L 74.818719 261.689689 
L 74.832643 255.960604 
L 74.931155 256.255186 
L 74.979389 256.604833 
L 74.981697 256.594285 
L 74.984079 254.839374 
L 75.072443 254.879435 
L 75.307984 259.686895 
L 75.377379 259.650381 
L 75.379377 262.423896 
L 75.510746 262.449028 
L 75.513666 262.415884 
L 75.607725 264.726922 
L 75.701937 263.063207 
L 75.77982 263.568455 
L 76.20052 266.847893 
L 76.400175 265.689648 
L 76.75708 266.838029 
L 76.935193 266.770461 
L 77.034859 267.181342 
L 77.041718 266.488426 
L 77.247704 266.757261 
L 77.352227 267.382546 
L 77.442125 268.32818 
L 77.697653 268.442546 
L 77.700198 268.432149 
L 77.703384 268.791504 
L 78.067547 267.653091 
L 78.160688 267.797752 
L 78.303819 268.690626 
L 78.427571 268.701729 
L 78.531569 269.131475 
L 78.538564 269.125003 
L 78.616158 269.189897 
L 78.912184 270.157787 
L 79.039567 270.17721 
L 79.043642 269.531994 
L 79.150787 269.745785 
L 79.487694 270.579028 
L 79.668518 270.70458 
L 79.752563 270.921466 
L 79.82028 270.849075 
L 79.913246 270.860575 
L 79.923565 271.091725 
L 80.066269 271.106792 
L 80.145027 271.408725 
L 80.170837 271.329182 
L 80.272518 271.393502 
L 80.379473 270.774671 
L 80.39203 270.782867 
L 80.394748 271.504393 
L 80.624541 270.338258 
L 80.967999 270.341387 
L 81.062598 270.689033 
L 81.15345 270.787466 
L 81.173098 270.677162 
L 81.26345 270.814781 
L 81.266389 271.100679 
L 81.375833 271.08967 
L 81.388468 271.101317 
L 81.391958 271.040026 
L 81.542212 271.839364 
L 81.691009 271.901945 
L 81.701059 271.761181 
L 81.736699 271.735426 
L 81.740039 271.586555 
L 81.830652 271.905829 
L 81.898945 271.887761 
L 81.908123 272.36961 
L 82.197637 272.590235 
L 82.199968 272.574811 
L 82.20513 272.856753 
L 82.463806 272.876792 
L 82.46695 272.447032 
L 83.013482 272.433708 
L 83.103527 272.344412 
L 83.108307 272.412273 
L 83.254387 272.6389 
L 83.359504 273.030164 
L 83.558523 273.071466 
L 83.561001 273.317521 
L 83.773697 273.343633 
L 84.258257 273.56802 
L 84.35059 274.018769 
L 84.459124 273.950969 
L 84.489693 274.010863 
L 84.774122 274.177699 
L 84.851752 273.915803 
L 84.916766 274.150993 
L 85.063885 274.279242 
L 85.319177 274.134442 
L 85.429906 274.283526 
L 85.433973 274.228476 
L 85.519235 274.181596 
L 85.525658 274.079111 
L 85.621254 274.130589 
L 85.652234 274.133886 
L 85.652234 274.012401 
L 85.743782 274.027981 
L 85.966973 274.145133 
L 86.017456 274.421851 
L 86.213623 274.340001 
L 86.216075 274.356484 
L 86.229127 274.570674 
L 86.439278 274.61329 
L 86.563145 274.783976 
L 86.598092 274.772838 
L 86.615627 274.913049 
L 86.770115 274.879726 
L 86.771509 274.823155 
L 87.002622 274.740117 
L 87.028949 274.949548 
L 87.703358 275.125737 
L 87.7048 275.264443 
L 87.948456 275.083551 
L 87.970693 275.211307 
L 88.213075 275.307801 
L 88.648968 275.369606 
L 88.652658 275.245706 
L 88.826413 275.271217 
L 88.96564 275.308521 
L 89.002747 275.276218 
L 89.041835 275.094799 
L 89.116636 275.168085 
L 89.545443 275.208204 
L 89.637842 274.993003 
L 89.656219 275.001493 
L 89.792349 275.115799 
L 89.802252 275.031921 
L 89.905576 275.038113 
L 89.915455 275.066463 
L 90.041002 275.046787 
L 90.792123 275.436669 
L 90.808283 275.279555 
L 91.39079 275.350662 
L 91.438172 275.548093 
L 91.713397 275.535445 
L 91.918882 275.681781 
L 92.048422 275.621341 
L 92.536684 275.830638 
L 92.636585 276.123489 
L 93.046175 276.201185 
L 93.048614 276.100854 
L 93.166024 275.991572 
L 93.285327 276.007492 
L 93.29557 276.089886 
L 93.375547 276.038078 
L 93.553046 276.041362 
L 93.57046 275.914157 
L 94.101577 276.031381 
L 94.428815 276.061695 
L 94.431661 276.151538 
L 94.679037 276.156698 
L 94.780926 275.758541 
L 95.538215 275.862884 
L 95.738554 275.903086 
L 95.873558 275.663591 
L 96.146278 275.762612 
L 96.153942 275.753839 
L 96.154871 275.549162 
L 97.11448 275.572266 
L 97.156547 275.292682 
L 97.978143 275.513758 
L 98.179964 275.578562 
L 98.40465 275.517666 
L 98.439655 275.708556 
L 98.740111 275.711629 
L 98.828027 275.308623 
L 99.712878 275.513223 
L 99.733373 275.395669 
L 99.820964 275.433023 
L 100.17579 275.598407 
L 100.575471 275.626328 
L 100.589699 275.721219 
L 100.985181 275.769976 
L 100.988745 275.735715 
L 101.39493 275.58563 
L 101.399523 275.607283 
L 101.527836 275.730246 
L 102.127878 275.626328 
L 102.129692 275.368264 
L 102.23116 275.385779 
L 102.273298 275.489319 
L 102.404942 275.490969 
L 102.406826 275.606536 
L 102.768831 275.55935 
L 102.770173 275.684172 
L 103.11739 275.76934 
L 103.558378 275.872185 
L 103.88466 275.929786 
L 104.268871 276.012522 
L 104.431105 276.169232 
L 104.800441 276.08856 
L 105.403124 275.812826 
L 105.895198 275.757612 
L 105.897714 275.72446 
L 107.113264 275.686011 
L 107.155016 275.700028 
L 107.160042 275.695289 
L 107.161368 275.519349 
L 107.260387 275.541486 
L 107.815018 275.732504 
L 108.248132 275.537761 
L 108.25567 275.609528 
L 109.145365 275.5116 
L 109.261584 275.344796 
L 109.590075 275.290457 
L 109.706024 275.223041 
L 109.880077 275.203035 
L 109.88215 275.085488 
L 110.565099 275.150582 
L 110.625047 274.967236 
L 110.673238 275.030674 
L 111.871338 275.129046 
L 111.908562 275.178233 
L 112.376111 275.14438 
L 112.48343 275.020051 
L 112.483688 275.043376 
L 112.613542 275.075555 
L 112.617131 275.049133 
L 113.354377 275.12454 
L 113.357997 275.162768 
L 113.88586 275.121463 
L 114.104844 275.161705 
L 114.196565 275.210038 
L 114.648733 275.168101 
L 114.803859 275.120371 
L 115.109353 275.152657 
L 115.110192 275.269616 
L 115.555271 275.370588 
L 116.821394 275.335522 
L 116.841463 274.944497 
L 117.665481 275.050524 
L 118.228075 275.002526 
L 118.259527 274.975458 
L 118.262125 275.027712 
L 118.856835 275.062497 
L 118.857578 275.161254 
L 119.720281 275.045886 
L 119.787542 275.012222 
L 120.508237 275.152891 
L 120.63033 275.1393 
L 120.632903 275.204867 
L 121.563509 275.132085 
L 121.565728 274.767981 
L 122.910768 274.901121 
L 122.968821 274.973967 
L 123.374655 274.869466 
L 124.494914 274.768376 
L 124.724124 274.794859 
L 125.466969 274.856418 
L 126.008767 274.957307 
L 127.615319 274.961983 
L 127.615387 274.939075 
L 128.108656 274.877588 
L 128.124742 274.960731 
L 128.589964 274.997516 
L 128.590163 274.857407 
L 128.761672 274.754292 
L 129.822459 274.751388 
L 129.854344 274.575706 
L 130.342584 274.537148 
L 130.448431 274.334701 
L 131.502559 274.44423 
L 131.602192 274.471511 
L 133.947761 274.508579 
L 133.951773 274.550938 
L 135.804794 274.673308 
L 135.81847 274.702353 
L 139.574485 274.906846 
L 139.68251 274.947897 
L 139.985577 275.069789 
L 142.629485 275.411577 
L 143.561826 275.371209 
L 143.569361 275.1453 
L 146.447618 275.238229 
L 146.587298 275.24063 
L 146.590997 275.056974 
L 146.680933 275.063434 
L 146.939834 275.06469 
L 146.94395 274.979684 
L 147.557368 275.067885 
L 147.557847 275.111117 
L 151.38534 275.119744 
L 151.389245 274.925081 
L 152.792235 275.023095 
L 152.793304 275.031931 
L 152.858807 274.975169 
L 153.316143 274.983156 
L 153.74226 274.993924 
L 154.704367 274.975111 
L 154.736586 274.944362 
L 155.517777 274.901742 
L 155.641018 274.787857 
L 159.332691 274.900495 
L 159.482506 274.900004 
L 159.973646 274.948213 
L 164.273868 274.943807 
L 164.277325 274.882689 
L 176.059195 274.855818 
L 176.221128 274.798916 
L 177.089557 274.849538 
L 186.375429 275.036327 
L 186.690125 275.030763 
L 192.307579 275.017005 
L 192.788041 275.016653 
L 194.44396 275.063933 
L 194.445181 274.87217 
L 198.826733 274.785054 
L 198.901058 274.767877 
L 198.904727 274.785543 
L 202.553882 274.87684 
L 204.774949 274.965941 
L 204.897349 274.920646 
L 205.475665 274.996739 
L 211.041896 274.936421 
L 211.095403 274.809433 
L 211.104592 274.815759 
L 218.13014 274.967508 
L 218.251006 274.976599 
L 218.36337 274.989813 
L 218.265228 274.988294 
L 218.365523 274.99281 
L 219.028034 275.009203 
L 219.13661 274.975406 
L 222.232037 275.121805 
L 222.337083 275.130266 
L 229.294509 275.166924 
L 229.296895 275.145975 
L 233.134244 275.126945 
L 233.207378 275.073922 
L 233.220017 275.078623 
L 238.096869 275.15666 
L 238.387862 275.138858 
L 241.037856 275.138784 
L 241.140734 275.034538 
L 244.000445 275.033715 
L 244.000521 274.926928 
L 247.311673 274.899232 
L 247.31715 274.775876 
L 253.542374 274.750306 
L 253.544807 274.645679 
L 254.77233 274.646204 
L 254.886068 274.625281 
L 255.64913 274.667016 
L 255.732033 274.668224 
L 268.33825 274.651269 
L 269.229207 274.604231 
L 271.74371 274.559199 
L 271.994117 274.545823 
L 276.604014 274.484383 
L 277.478698 274.461299 
L 277.547098 274.464813 
L 277.558355 274.463015 
L 278.493756 274.46484 
L 278.497732 274.479301 
L 283.028732 274.575996 
L 283.03737 274.589276 
L 295.48159 274.690076 
L 295.607672 274.699065 
L 297.771542 274.679622 
L 302.786795 274.679665 
L 302.849125 274.673616 
L 304.61201 274.657336 
L 311.641192 274.716145 
L 311.728662 274.710798 
L 320.028758 274.81219 
L 320.031029 274.823512 
L 321.720046 274.773578 
L 321.720203 274.477413 
L 339.492498 274.620058 
L 339.813212 274.628786 
L 339.901076 274.60266 
L 344.194453 274.582727 
L 344.305304 274.574764 
L 344.433854 274.589278 
L 351.643352 274.646039 
L 351.666987 274.641146 
L 351.672309 274.654772 
L 377.867298 274.569448 
L 378.278667 274.539383 
L 398.38894 274.589744 
L 398.38894 274.589744 
" clip-path="url(#p042cc155c4)" style="fill: none; stroke: #d62728; stroke-width: 1.5; stroke-linecap: square"/>
   </g>
   <g id="line2d_33">
    <path d="M 73.919266 282.392925 
L 73.936279 265.068827 
L 74.043387 266.839612 
L 74.051825 278.162035 
L 74.132286 277.120152 
L 74.184693 281.709298 
L 74.443212 279.222675 
L 74.443212 279.247127 
L 74.444177 260.655703 
L 74.650779 263.725278 
L 74.651966 256.763782 
L 74.720723 259.049975 
L 74.87358 262.268286 
L 74.928581 261.04962 
L 74.95124 261.056978 
L 75.072519 264.825099 
L 75.286122 266.551755 
L 75.376847 266.325601 
L 75.506607 266.673981 
L 75.524441 265.836541 
L 75.618851 265.957823 
L 75.624979 266.14617 
L 75.636872 265.018467 
L 75.705208 264.883112 
L 75.731305 264.963898 
L 75.830045 266.110854 
L 75.905139 266.681861 
L 75.996178 266.572921 
L 76.214298 267.394771 
L 76.246318 268.714578 
L 76.374913 269.176381 
L 76.45455 268.993172 
L 76.487369 269.093471 
L 76.591353 267.786631 
L 76.814384 265.269146 
L 76.878127 265.304957 
L 76.884432 265.288999 
L 76.992565 266.05436 
L 77.014359 266.047384 
L 77.016391 267.355973 
L 77.307971 267.932765 
L 77.310089 267.923044 
L 77.379904 267.117167 
L 77.382488 268.213701 
L 77.537769 268.322647 
L 77.563441 269.674118 
L 77.73756 269.719195 
L 77.802418 270.116092 
L 77.827966 270.095057 
L 77.831537 269.245006 
L 77.940114 270.024623 
L 78.171673 270.102335 
L 78.183444 269.917508 
L 78.1998 270.600549 
L 78.307695 270.606762 
L 78.389692 271.084415 
L 78.424112 271.047024 
L 78.437205 271.047024 
L 78.437205 271.02266 
L 78.441407 268.681164 
L 78.628745 269.007242 
L 78.651503 269.615473 
L 78.824498 269.683014 
L 78.840183 269.890761 
L 78.89827 268.889102 
L 78.972191 269.031819 
L 79.057276 269.197 
L 79.072334 269.788949 
L 79.24852 269.775503 
L 79.350116 270.130014 
L 79.354667 270.116517 
L 79.439651 270.222668 
L 79.476928 270.386858 
L 79.509748 270.32156 
L 79.782872 270.393671 
L 79.952195 270.683809 
L 79.990725 270.583775 
L 80.025706 270.812314 
L 80.081667 270.539573 
L 80.126099 270.532335 
L 80.132065 270.467315 
L 80.135636 270.420179 
L 80.21479 270.664437 
L 80.276769 270.622607 
L 80.306401 270.454543 
L 80.372556 270.486544 
L 80.444977 270.572627 
L 80.584073 270.822973 
L 80.669844 270.905675 
L 80.768328 271.273274 
L 80.937178 271.34784 
L 80.944556 271.247827 
L 81.058177 271.470761 
L 81.177136 271.381311 
L 81.228701 271.381262 
L 81.334541 271.857974 
L 81.514669 272.017728 
L 81.54699 271.996546 
L 82.002755 272.818809 
L 82.166031 273.030769 
L 82.276482 273.308653 
L 82.280955 273.196481 
L 82.433534 273.285767 
L 82.435935 273.568384 
L 82.543866 273.520847 
L 82.65975 273.670887 
L 82.75893 272.983038 
L 82.847098 273.016394 
L 82.979428 273.19594 
L 82.987947 273.235135 
L 83.00527 273.01181 
L 83.138342 272.999194 
L 83.225776 273.257424 
L 83.291102 273.289119 
L 83.29304 273.446629 
L 83.679589 273.870036 
L 83.745946 274.202628 
L 84.05927 274.204415 
L 84.061139 274.137298 
L 84.258583 274.262729 
L 84.289408 274.65074 
L 84.666093 274.721421 
L 84.674398 275.104078 
L 85.391916 275.211906 
L 85.462348 274.832364 
L 85.576416 274.923826 
L 85.671346 275.072115 
L 85.85376 274.997194 
L 86.04863 275.047138 
L 86.049875 275.0444 
L 86.10377 274.995362 
L 86.169658 275.076305 
L 86.34081 274.972776 
L 86.430198 275.427408 
L 87.054708 275.499162 
L 87.058229 273.874675 
L 87.166587 273.884559 
L 87.514627 274.354169 
L 87.900014 274.479069 
L 87.965465 274.650767 
L 88.188173 274.591409 
L 88.189765 273.438401 
L 88.268434 273.483996 
L 88.397905 273.440826 
L 88.551787 273.598842 
L 88.567461 273.50246 
L 88.702739 273.399474 
L 88.769966 273.376343 
L 88.887986 273.543732 
L 89.014748 273.433796 
L 89.017348 273.434663 
L 89.182792 273.512194 
L 89.279155 273.116343 
L 89.28045 273.137802 
L 89.364177 273.093816 
L 89.366639 273.130338 
L 89.553183 273.278888 
L 90.079503 273.222449 
L 90.137652 273.173889 
L 90.182871 273.238325 
L 90.286181 273.3347 
L 90.585066 273.480346 
L 90.721471 273.657814 
L 90.975353 273.697974 
L 90.980617 273.336102 
L 91.716775 273.583207 
L 91.716949 273.506259 
L 91.761569 273.447965 
L 91.864548 272.872121 
L 92.121005 272.938332 
L 92.247895 273.084929 
L 92.399398 273.026052 
L 92.415896 273.179433 
L 93.386394 273.599489 
L 93.498635 273.04045 
L 93.500991 273.043118 
L 93.537228 273.111258 
L 93.625805 272.915049 
L 93.932442 273.061745 
L 93.999292 273.133209 
L 94.382827 273.14813 
L 94.43503 273.269629 
L 94.906229 273.316955 
L 95.018775 273.378453 
L 95.267709 273.484067 
L 95.601663 273.558689 
L 95.74836 273.738841 
L 95.905493 273.817874 
L 95.986257 273.928349 
L 96.153304 274.104362 
L 96.692378 274.338936 
L 96.698842 274.241331 
L 96.815095 274.237105 
L 96.818202 274.102698 
L 96.913621 274.150046 
L 96.995858 274.211217 
L 97.205877 274.351997 
L 97.294751 273.908069 
L 97.981673 274.083623 
L 97.986605 274.21192 
L 98.99233 274.30745 
L 99.255598 274.469189 
L 99.522525 274.534137 
L 99.524462 274.49945 
L 99.532511 274.632674 
L 99.785458 274.679123 
L 99.789009 274.761961 
L 100.299928 274.786342 
L 100.387132 274.600752 
L 100.398377 274.64515 
L 100.98442 274.791036 
L 101.091798 274.71409 
L 101.093836 274.724786 
L 101.236085 274.687765 
L 101.403355 274.657602 
L 101.410494 274.82957 
L 101.856964 274.786695 
L 102.522964 274.876678 
L 102.629257 274.93735 
L 102.924304 274.933303 
L 102.929519 274.86615 
L 103.021062 274.902941 
L 103.174711 274.954343 
L 103.294731 274.942831 
L 103.29678 274.962056 
L 103.368791 274.955553 
L 103.468167 274.761886 
L 103.582387 274.818772 
L 103.703952 274.779364 
L 104.017177 274.818377 
L 104.025883 274.912395 
L 104.486104 274.951318 
L 104.491828 275.085622 
L 105.354089 275.187974 
L 105.357405 275.48381 
L 105.957551 275.477758 
L 105.991977 275.619219 
L 106.735605 275.591136 
L 106.826758 275.469681 
L 106.971345 275.465194 
L 106.974231 275.269982 
L 107.039783 275.338371 
L 107.792252 275.421687 
L 107.961201 275.440052 
L 108.017616 275.380016 
L 108.055215 275.416406 
L 108.424066 275.498524 
L 109.215314 275.693395 
L 109.230491 275.767306 
L 109.350469 275.543519 
L 110.285714 275.658824 
L 110.294452 275.647618 
L 110.325044 275.687749 
L 110.701708 275.66507 
L 111.199865 275.618035 
L 111.259897 275.464648 
L 111.692942 275.519985 
L 111.696826 275.588215 
L 112.608554 275.708849 
L 112.631068 275.769122 
L 115.039515 275.886986 
L 115.475024 275.945397 
L 115.725371 275.915139 
L 115.733102 275.976744 
L 117.270803 276.226125 
L 117.274466 276.196688 
L 117.976089 276.280955 
L 118.08889 276.319712 
L 118.4636 276.384072 
L 118.472932 276.45311 
L 119.938355 276.404638 
L 119.949453 276.324311 
L 120.808508 276.242248 
L 120.812581 275.784245 
L 121.192396 275.803945 
L 121.714292 275.872032 
L 122.553234 275.806559 
L 122.556062 275.824519 
L 122.875728 275.756253 
L 122.988474 275.682714 
L 123.272327 275.605634 
L 123.326999 275.556037 
L 123.940719 275.604682 
L 124.241367 275.668156 
L 124.244652 275.598354 
L 124.760711 275.54888 
L 125.055077 275.491678 
L 125.219033 275.510533 
L 125.93545 275.473529 
L 126.631129 275.590645 
L 126.732509 275.607602 
L 126.73614 275.585668 
L 127.769112 275.704354 
L 127.892987 275.740223 
L 128.777105 275.837687 
L 128.964519 275.880781 
L 128.964992 275.879541 
L 129.493277 275.830567 
L 129.495655 275.891093 
L 130.003894 275.815016 
L 130.167127 275.769765 
L 131.757722 275.874481 
L 132.306985 275.937508 
L 132.328874 275.78909 
L 133.242891 275.702398 
L 133.248256 275.423125 
L 133.320958 275.43698 
L 134.543004 275.434416 
L 134.660537 275.141786 
L 134.661993 275.150264 
L 134.77935 275.103282 
L 134.78654 275.113404 
L 135.56056 275.062577 
L 135.562416 275.03272 
L 135.633079 275.042194 
L 139.234816 275.324903 
L 139.352956 275.391603 
L 139.827871 275.487557 
L 140.203532 275.499047 
L 142.200926 275.595173 
L 142.213847 275.650206 
L 143.241981 275.664588 
L 143.35005 275.595211 
L 143.57264 275.607622 
L 148.467445 275.540786 
L 149.807372 275.615707 
L 149.914986 275.648175 
L 150.295915 275.665017 
L 150.434543 275.684158 
L 150.651326 275.655823 
L 150.792951 275.66815 
L 151.785962 275.584995 
L 151.848274 275.531695 
L 151.870178 275.536084 
L 152.428951 275.477162 
L 152.465838 275.514102 
L 156.012439 275.628347 
L 157.983477 275.588162 
L 158.132776 275.538871 
L 158.178635 275.562844 
L 158.683317 275.610328 
L 158.73396 275.687517 
L 163.680654 275.794797 
L 163.684054 275.830031 
L 166.819972 275.910737 
L 167.08133 275.949656 
L 168.021371 275.957037 
L 169.690407 275.948421 
L 170.231917 275.963479 
L 170.375103 275.966273 
L 170.867006 275.903985 
L 170.972837 275.84897 
L 172.612384 275.899209 
L 172.614148 275.924763 
L 173.550978 275.896715 
L 173.933542 275.896705 
L 181.622101 275.812475 
L 181.822621 275.698357 
L 181.833849 275.697795 
L 181.834048 275.533846 
L 186.086633 275.461061 
L 186.162175 275.435567 
L 186.183137 275.442551 
L 186.926379 275.455486 
L 189.273223 275.543013 
L 190.344308 275.543737 
L 190.346171 275.499545 
L 191.155964 275.500105 
L 191.901961 275.501508 
L 191.906143 275.554693 
L 194.817035 275.452481 
L 194.902675 275.433719 
L 194.90517 275.437885 
L 199.940258 275.547323 
L 199.940995 275.45686 
L 200.966836 275.371533 
L 201.136714 275.31862 
L 201.66745 275.338903 
L 208.695708 275.337313 
L 209.718066 275.371915 
L 210.237376 275.381738 
L 211.996928 275.472489 
L 212.521967 275.541951 
L 215.395094 275.437216 
L 215.510849 275.425341 
L 219.099878 275.444354 
L 219.102088 275.469419 
L 221.725746 275.426609 
L 221.729354 275.36669 
L 244.272376 275.37576 
L 244.273037 275.168396 
L 245.002125 275.144395 
L 260.185693 275.154186 
L 260.188275 275.064092 
L 261.04403 275.001044 
L 261.094549 274.981331 
L 261.115316 274.987941 
L 264.186445 274.918757 
L 264.18672 274.864128 
L 268.267596 274.936974 
L 268.268928 274.951869 
L 269.191945 274.946313 
L 269.192561 274.960785 
L 272.497769 275.037923 
L 272.605968 275.032445 
L 276.286755 275.135644 
L 277.599029 275.107578 
L 289.203742 275.199643 
L 289.206128 275.21593 
L 293.347054 275.166951 
L 298.829286 275.221687 
L 298.931894 275.17856 
L 313.337027 275.186802 
L 313.361556 275.124956 
L 324.877195 275.069121 
L 324.942278 275.054633 
L 324.987422 275.069616 
L 329.368667 275.09093 
L 372.514014 274.946401 
L 372.677968 274.94138 
L 372.678457 274.943659 
L 373.476581 274.960103 
L 373.481128 274.939317 
L 386.829251 274.842607 
L 387.501819 274.821016 
L 389.83366 274.814266 
L 394.336881 274.888353 
L 394.337261 274.896943 
L 396.900371 274.838435 
L 398.419698 274.843117 
L 398.419698 274.843117 
" clip-path="url(#p042cc155c4)" style="fill: none; stroke: #9467bd; stroke-width: 1.5; stroke-linecap: square"/>
   </g>
   <g id="patch_3">
    <path d="M 57.6 307.584 
L 57.6 41.472 
" style="fill: none; stroke: #000000; stroke-width: 0.8; stroke-linejoin: miter; stroke-linecap: square"/>
   </g>
   <g id="patch_4">
    <path d="M 414.72 307.584 
L 414.72 41.472 
" style="fill: none; stroke: #000000; stroke-width: 0.8; stroke-linejoin: miter; stroke-linecap: square"/>
   </g>
   <g id="patch_5">
    <path d="M 57.6 307.584 
L 414.72 307.584 
" style="fill: none; stroke: #000000; stroke-width: 0.8; stroke-linejoin: miter; stroke-linecap: square"/>
   </g>
   <g id="patch_6">
    <path d="M 57.6 41.472 
L 414.72 41.472 
" style="fill: none; stroke: #000000; stroke-width: 0.8; stroke-linejoin: miter; stroke-linecap: square"/>
   </g>
   <g id="text_17">
    <!-- timeWaitAllocateMean vs. TimePoint for Each Run -->
    <g transform="translate(86.865938 35.472) scale(0.12 -0.12)">
     <defs>
      <path id="DejaVuSans-20" transform="scale(0.015625)"/>
      <path id="DejaVuSans-76" d="M 191 3500 
L 800 3500 
L 1894 563 
L 2988 3500 
L 3597 3500 
L 2284 0 
L 1503 0 
L 191 3500 
z
" transform="scale(0.015625)"/>
      <path id="DejaVuSans-73" d="M 2834 3397 
L 2834 2853 
Q 2591 2978 2328 3040 
Q 2066 3103 1784 3103 
Q 1356 3103 1142 2972 
Q 928 2841 928 2578 
Q 928 2378 1081 2264 
Q 1234 2150 1697 2047 
L 1894 2003 
Q 2506 1872 2764 1633 
Q 3022 1394 3022 966 
Q 3022 478 2636 193 
Q 2250 -91 1575 -91 
Q 1294 -91 989 -36 
Q 684 19 347 128 
L 347 722 
Q 666 556 975 473 
Q 1284 391 1588 391 
Q 1994 391 2212 530 
Q 2431 669 2431 922 
Q 2431 1156 2273 1281 
Q 2116 1406 1581 1522 
L 1381 1569 
Q 847 1681 609 1914 
Q 372 2147 372 2553 
Q 372 3047 722 3315 
Q 1072 3584 1716 3584 
Q 2034 3584 2315 3537 
Q 2597 3491 2834 3397 
z
" transform="scale(0.015625)"/>
      <path id="DejaVuSans-2e" d="M 684 794 
L 1344 794 
L 1344 0 
L 684 0 
L 684 794 
z
" transform="scale(0.015625)"/>
      <path id="DejaVuSans-66" d="M 2375 4863 
L 2375 4384 
L 1825 4384 
Q 1516 4384 1395 4259 
Q 1275 4134 1275 3809 
L 1275 3500 
L 2222 3500 
L 2222 3053 
L 1275 3053 
L 1275 0 
L 697 0 
L 697 3053 
L 147 3053 
L 147 3500 
L 697 3500 
L 697 3744 
Q 697 4328 969 4595 
Q 1241 4863 1831 4863 
L 2375 4863 
z
" transform="scale(0.015625)"/>
      <path id="DejaVuSans-72" d="M 2631 2963 
Q 2534 3019 2420 3045 
Q 2306 3072 2169 3072 
Q 1681 3072 1420 2755 
Q 1159 2438 1159 1844 
L 1159 0 
L 581 0 
L 581 3500 
L 1159 3500 
L 1159 2956 
Q 1341 3275 1631 3429 
Q 1922 3584 2338 3584 
Q 2397 3584 2469 3576 
Q 2541 3569 2628 3553 
L 2631 2963 
z
" transform="scale(0.015625)"/>
      <path id="DejaVuSans-45" d="M 628 4666 
L 3578 4666 
L 3578 4134 
L 1259 4134 
L 1259 2753 
L 3481 2753 
L 3481 2222 
L 1259 2222 
L 1259 531 
L 3634 531 
L 3634 0 
L 628 0 
L 628 4666 
z
" transform="scale(0.015625)"/>
      <path id="DejaVuSans-68" d="M 3513 2113 
L 3513 0 
L 2938 0 
L 2938 2094 
Q 2938 2591 2744 2837 
Q 2550 3084 2163 3084 
Q 1697 3084 1428 2787 
Q 1159 2491 1159 1978 
L 1159 0 
L 581 0 
L 581 4863 
L 1159 4863 
L 1159 2956 
Q 1366 3272 1645 3428 
Q 1925 3584 2291 3584 
Q 2894 3584 3203 3211 
Q 3513 2838 3513 2113 
z
" transform="scale(0.015625)"/>
      <path id="DejaVuSans-52" d="M 2841 2188 
Q 3044 2119 3236 1894 
Q 3428 1669 3622 1275 
L 4263 0 
L 3584 0 
L 2988 1197 
Q 2756 1666 2539 1819 
Q 2322 1972 1947 1972 
L 1259 1972 
L 1259 0 
L 628 0 
L 628 4666 
L 2053 4666 
Q 2853 4666 3247 4331 
Q 3641 3997 3641 3322 
Q 3641 2881 3436 2590 
Q 3231 2300 2841 2188 
z
M 1259 4147 
L 1259 2491 
L 2053 2491 
Q 2509 2491 2742 2702 
Q 2975 2913 2975 3322 
Q 2975 3731 2742 3939 
Q 2509 4147 2053 4147 
L 1259 4147 
z
" transform="scale(0.015625)"/>
      <path id="DejaVuSans-75" d="M 544 1381 
L 544 3500 
L 1119 3500 
L 1119 1403 
Q 1119 906 1312 657 
Q 1506 409 1894 409 
Q 2359 409 2629 706 
Q 2900 1003 2900 1516 
L 2900 3500 
L 3475 3500 
L 3475 0 
L 2900 0 
L 2900 538 
Q 2691 219 2414 64 
Q 2138 -91 1772 -91 
Q 1169 -91 856 284 
Q 544 659 544 1381 
z
M 1991 3584 
L 1991 3584 
z
" transform="scale(0.015625)"/>
     </defs>
     <use xlink:href="#DejaVuSans-74"/>
     <use xlink:href="#DejaVuSans-69" x="39.208984"/>
     <use xlink:href="#DejaVuSans-6d" x="66.992188"/>
     <use xlink:href="#DejaVuSans-65" x="164.404297"/>
     <use xlink:href="#DejaVuSans-57" x="225.927734"/>
     <use xlink:href="#DejaVuSans-61" x="318.429688"/>
     <use xlink:href="#DejaVuSans-69" x="379.708984"/>
     <use xlink:href="#DejaVuSans-74" x="407.492188"/>
     <use xlink:href="#DejaVuSans-41" x="446.701172"/>
     <use xlink:href="#DejaVuSans-6c" x="515.109375"/>
     <use xlink:href="#DejaVuSans-6c" x="542.892578"/>
     <use xlink:href="#DejaVuSans-6f" x="570.675781"/>
     <use xlink:href="#DejaVuSans-63" x="631.857422"/>
     <use xlink:href="#DejaVuSans-61" x="686.837891"/>
     <use xlink:href="#DejaVuSans-74" x="748.117188"/>
     <use xlink:href="#DejaVuSans-65" x="787.326172"/>
     <use xlink:href="#DejaVuSans-4d" x="848.849609"/>
     <use xlink:href="#DejaVuSans-65" x="935.128906"/>
     <use xlink:href="#DejaVuSans-61" x="996.652344"/>
     <use xlink:href="#DejaVuSans-6e" x="1057.931641"/>
     <use xlink:href="#DejaVuSans-20" x="1121.310547"/>
     <use xlink:href="#DejaVuSans-76" x="1153.097656"/>
     <use xlink:href="#DejaVuSans-73" x="1212.277344"/>
     <use xlink:href="#DejaVuSans-2e" x="1264.376953"/>
     <use xlink:href="#DejaVuSans-20" x="1296.164062"/>
     <use xlink:href="#DejaVuSans-54" x="1327.951172"/>
     <use xlink:href="#DejaVuSans-69" x="1385.910156"/>
     <use xlink:href="#DejaVuSans-6d" x="1413.693359"/>
     <use xlink:href="#DejaVuSans-65" x="1511.105469"/>
     <use xlink:href="#DejaVuSans-50" x="1572.628906"/>
     <use xlink:href="#DejaVuSans-6f" x="1629.306641"/>
     <use xlink:href="#DejaVuSans-69" x="1690.488281"/>
     <use xlink:href="#DejaVuSans-6e" x="1718.271484"/>
     <use xlink:href="#DejaVuSans-74" x="1781.650391"/>
     <use xlink:href="#DejaVuSans-20" x="1820.859375"/>
     <use xlink:href="#DejaVuSans-66" x="1852.646484"/>
     <use xlink:href="#DejaVuSans-6f" x="1887.851562"/>
     <use xlink:href="#DejaVuSans-72" x="1949.033203"/>
     <use xlink:href="#DejaVuSans-20" x="1990.146484"/>
     <use xlink:href="#DejaVuSans-45" x="2021.933594"/>
     <use xlink:href="#DejaVuSans-61" x="2085.117188"/>
     <use xlink:href="#DejaVuSans-63" x="2146.396484"/>
     <use xlink:href="#DejaVuSans-68" x="2201.376953"/>
     <use xlink:href="#DejaVuSans-20" x="2264.755859"/>
     <use xlink:href="#DejaVuSans-52" x="2296.542969"/>
     <use xlink:href="#DejaVuSans-75" x="2361.525391"/>
     <use xlink:href="#DejaVuSans-6e" x="2424.904297"/>
    </g>
   </g>
   <g id="legend_1">
    <g id="patch_7">
     <path d="M 341.196563 137.54075 
L 407.72 137.54075 
Q 409.72 137.54075 409.72 135.54075 
L 409.72 48.472 
Q 409.72 46.472 407.72 46.472 
L 341.196563 46.472 
Q 339.196563 46.472 339.196563 48.472 
L 339.196563 135.54075 
Q 339.196563 137.54075 341.196563 137.54075 
z
" style="fill: #ffffff; opacity: 0.8; stroke: #cccccc; stroke-linejoin: miter"/>
    </g>
    <g id="text_18">
     <!-- Run Number -->
     <g transform="translate(343.196563 58.070438) scale(0.1 -0.1)">
      <defs>
       <path id="DejaVuSans-4e" d="M 628 4666 
L 1478 4666 
L 3547 763 
L 3547 4666 
L 4159 4666 
L 4159 0 
L 3309 0 
L 1241 3903 
L 1241 0 
L 628 0 
L 628 4666 
z
" transform="scale(0.015625)"/>
       <path id="DejaVuSans-62" d="M 3116 1747 
Q 3116 2381 2855 2742 
Q 2594 3103 2138 3103 
Q 1681 3103 1420 2742 
Q 1159 2381 1159 1747 
Q 1159 1113 1420 752 
Q 1681 391 2138 391 
Q 2594 391 2855 752 
Q 3116 1113 3116 1747 
z
M 1159 2969 
Q 1341 3281 1617 3432 
Q 1894 3584 2278 3584 
Q 2916 3584 3314 3078 
Q 3713 2572 3713 1747 
Q 3713 922 3314 415 
Q 2916 -91 2278 -91 
Q 1894 -91 1617 61 
Q 1341 213 1159 525 
L 1159 0 
L 581 0 
L 581 4863 
L 1159 4863 
L 1159 2969 
z
" transform="scale(0.015625)"/>
      </defs>
      <use xlink:href="#DejaVuSans-52"/>
      <use xlink:href="#DejaVuSans-75" x="64.982422"/>
      <use xlink:href="#DejaVuSans-6e" x="128.361328"/>
      <use xlink:href="#DejaVuSans-20" x="191.740234"/>
      <use xlink:href="#DejaVuSans-4e" x="223.527344"/>
      <use xlink:href="#DejaVuSans-75" x="298.332031"/>
      <use xlink:href="#DejaVuSans-6d" x="361.710938"/>
      <use xlink:href="#DejaVuSans-62" x="459.123047"/>
      <use xlink:href="#DejaVuSans-65" x="522.599609"/>
      <use xlink:href="#DejaVuSans-72" x="584.123047"/>
     </g>
    </g>
    <g id="line2d_34">
     <path d="M 346.10125 69.248563 
L 356.10125 69.248563 
L 366.10125 69.248563 
" style="fill: none; stroke: #1f77b4; stroke-width: 1.5; stroke-linecap: square"/>
    </g>
    <g id="text_19">
     <!-- Run 0 -->
     <g transform="translate(374.10125 72.748563) scale(0.1 -0.1)">
      <use xlink:href="#DejaVuSans-52"/>
      <use xlink:href="#DejaVuSans-75" x="64.982422"/>
      <use xlink:href="#DejaVuSans-6e" x="128.361328"/>
      <use xlink:href="#DejaVuSans-20" x="191.740234"/>
      <use xlink:href="#DejaVuSans-30" x="223.527344"/>
     </g>
    </g>
    <g id="line2d_35">
     <path d="M 346.10125 83.926688 
L 356.10125 83.926688 
L 366.10125 83.926688 
" style="fill: none; stroke: #ff7f0e; stroke-width: 1.5; stroke-linecap: square"/>
    </g>
    <g id="text_20">
     <!-- Run 1 -->
     <g transform="translate(374.10125 87.426688) scale(0.1 -0.1)">
      <use xlink:href="#DejaVuSans-52"/>
      <use xlink:href="#DejaVuSans-75" x="64.982422"/>
      <use xlink:href="#DejaVuSans-6e" x="128.361328"/>
      <use xlink:href="#DejaVuSans-20" x="191.740234"/>
      <use xlink:href="#DejaVuSans-31" x="223.527344"/>
     </g>
    </g>
    <g id="line2d_36">
     <path d="M 346.10125 98.604813 
L 356.10125 98.604813 
L 366.10125 98.604813 
" style="fill: none; stroke: #2ca02c; stroke-width: 1.5; stroke-linecap: square"/>
    </g>
    <g id="text_21">
     <!-- Run 2 -->
     <g transform="translate(374.10125 102.104813) scale(0.1 -0.1)">
      <use xlink:href="#DejaVuSans-52"/>
      <use xlink:href="#DejaVuSans-75" x="64.982422"/>
      <use xlink:href="#DejaVuSans-6e" x="128.361328"/>
      <use xlink:href="#DejaVuSans-20" x="191.740234"/>
      <use xlink:href="#DejaVuSans-32" x="223.527344"/>
     </g>
    </g>
    <g id="line2d_37">
     <path d="M 346.10125 113.282938 
L 356.10125 113.282938 
L 366.10125 113.282938 
" style="fill: none; stroke: #d62728; stroke-width: 1.5; stroke-linecap: square"/>
    </g>
    <g id="text_22">
     <!-- Run 3 -->
     <g transform="translate(374.10125 116.782938) scale(0.1 -0.1)">
      <use xlink:href="#DejaVuSans-52"/>
      <use xlink:href="#DejaVuSans-75" x="64.982422"/>
      <use xlink:href="#DejaVuSans-6e" x="128.361328"/>
      <use xlink:href="#DejaVuSans-20" x="191.740234"/>
      <use xlink:href="#DejaVuSans-33" x="223.527344"/>
     </g>
    </g>
    <g id="line2d_38">
     <path d="M 346.10125 127.961063 
L 356.10125 127.961063 
L 366.10125 127.961063 
" style="fill: none; stroke: #9467bd; stroke-width: 1.5; stroke-linecap: square"/>
    </g>
    <g id="text_23">
     <!-- Run 4 -->
     <g transform="translate(374.10125 131.461063) scale(0.1 -0.1)">
      <use xlink:href="#DejaVuSans-52"/>
      <use xlink:href="#DejaVuSans-75" x="64.982422"/>
      <use xlink:href="#DejaVuSans-6e" x="128.361328"/>
      <use xlink:href="#DejaVuSans-20" x="191.740234"/>
      <use xlink:href="#DejaVuSans-34" x="223.527344"/>
     </g>
    </g>
   </g>
  </g>
 </g>
 <defs>
  <clipPath id="p042cc155c4">
   <rect x="57.6" y="41.472" width="357.12" height="266.112"/>
  </clipPath>
 </defs>
</svg>
