<?xml version="1.0" encoding="utf-8" standalone="no"?>
<!DOCTYPE svg PUBLIC "-//W3C//DTD SVG 1.1//EN"
  "http://www.w3.org/Graphics/SVG/1.1/DTD/svg11.dtd">
<svg xmlns:xlink="http://www.w3.org/1999/xlink" width="460.8pt" height="345.6pt" viewBox="0 0 460.8 345.6" xmlns="http://www.w3.org/2000/svg" version="1.1">
 <metadata>
  <rdf:RDF xmlns:dc="http://purl.org/dc/elements/1.1/" xmlns:cc="http://creativecommons.org/ns#" xmlns:rdf="http://www.w3.org/1999/02/22-rdf-syntax-ns#">
   <cc:Work>
    <dc:type rdf:resource="http://purl.org/dc/dcmitype/StillImage"/>
    <dc:date>2024-12-03T12:49:37.885984</dc:date>
    <dc:format>image/svg+xml</dc:format>
    <dc:creator>
     <cc:Agent>
      <dc:title>Matplotlib v3.9.2, https://matplotlib.org/</dc:title>
     </cc:Agent>
    </dc:creator>
   </cc:Work>
  </rdf:RDF>
 </metadata>
 <defs>
  <style type="text/css">*{stroke-linejoin: round; stroke-linecap: butt}</style>
 </defs>
 <g id="figure_1">
  <g id="patch_1">
   <path d="M 0 345.6 
L 460.8 345.6 
L 460.8 0 
L 0 0 
z
" style="fill: #ffffff"/>
  </g>
  <g id="axes_1">
   <g id="patch_2">
    <path d="M 57.6 307.584 
L 414.72 307.584 
L 414.72 41.472 
L 57.6 41.472 
z
" style="fill: #ffffff"/>
   </g>
   <g id="matplotlib.axis_1">
    <g id="xtick_1">
     <g id="line2d_1">
      <path d="M 73.827095 307.584 
L 73.827095 41.472 
" clip-path="url(#pde223dc8ec)" style="fill: none; stroke: #b0b0b0; stroke-width: 0.8; stroke-linecap: square"/>
     </g>
     <g id="line2d_2">
      <defs>
       <path id="m89dcaae9a6" d="M 0 0 
L 0 3.5 
" style="stroke: #000000; stroke-width: 0.8"/>
      </defs>
      <g>
       <use xlink:href="#m89dcaae9a6" x="73.827095" y="307.584" style="stroke: #000000; stroke-width: 0.8"/>
      </g>
     </g>
     <g id="text_1">
      <!-- 0 -->
      <g transform="translate(70.645845 322.182437) scale(0.1 -0.1)">
       <defs>
        <path id="DejaVuSans-30" d="M 2034 4250 
Q 1547 4250 1301 3770 
Q 1056 3291 1056 2328 
Q 1056 1369 1301 889 
Q 1547 409 2034 409 
Q 2525 409 2770 889 
Q 3016 1369 3016 2328 
Q 3016 3291 2770 3770 
Q 2525 4250 2034 4250 
z
M 2034 4750 
Q 2819 4750 3233 4129 
Q 3647 3509 3647 2328 
Q 3647 1150 3233 529 
Q 2819 -91 2034 -91 
Q 1250 -91 836 529 
Q 422 1150 422 2328 
Q 422 3509 836 4129 
Q 1250 4750 2034 4750 
z
" transform="scale(0.015625)"/>
       </defs>
       <use xlink:href="#DejaVuSans-30"/>
      </g>
     </g>
    </g>
    <g id="xtick_2">
     <g id="line2d_3">
      <path d="M 114.40994 307.584 
L 114.40994 41.472 
" clip-path="url(#pde223dc8ec)" style="fill: none; stroke: #b0b0b0; stroke-width: 0.8; stroke-linecap: square"/>
     </g>
     <g id="line2d_4">
      <g>
       <use xlink:href="#m89dcaae9a6" x="114.40994" y="307.584" style="stroke: #000000; stroke-width: 0.8"/>
      </g>
     </g>
     <g id="text_2">
      <!-- 100000 -->
      <g transform="translate(95.32244 322.182437) scale(0.1 -0.1)">
       <defs>
        <path id="DejaVuSans-31" d="M 794 531 
L 1825 531 
L 1825 4091 
L 703 3866 
L 703 4441 
L 1819 4666 
L 2450 4666 
L 2450 531 
L 3481 531 
L 3481 0 
L 794 0 
L 794 531 
z
" transform="scale(0.015625)"/>
       </defs>
       <use xlink:href="#DejaVuSans-31"/>
       <use xlink:href="#DejaVuSans-30" x="63.623047"/>
       <use xlink:href="#DejaVuSans-30" x="127.246094"/>
       <use xlink:href="#DejaVuSans-30" x="190.869141"/>
       <use xlink:href="#DejaVuSans-30" x="254.492188"/>
       <use xlink:href="#DejaVuSans-30" x="318.115234"/>
      </g>
     </g>
    </g>
    <g id="xtick_3">
     <g id="line2d_5">
      <path d="M 154.992786 307.584 
L 154.992786 41.472 
" clip-path="url(#pde223dc8ec)" style="fill: none; stroke: #b0b0b0; stroke-width: 0.8; stroke-linecap: square"/>
     </g>
     <g id="line2d_6">
      <g>
       <use xlink:href="#m89dcaae9a6" x="154.992786" y="307.584" style="stroke: #000000; stroke-width: 0.8"/>
      </g>
     </g>
     <g id="text_3">
      <!-- 200000 -->
      <g transform="translate(135.905286 322.182437) scale(0.1 -0.1)">
       <defs>
        <path id="DejaVuSans-32" d="M 1228 531 
L 3431 531 
L 3431 0 
L 469 0 
L 469 531 
Q 828 903 1448 1529 
Q 2069 2156 2228 2338 
Q 2531 2678 2651 2914 
Q 2772 3150 2772 3378 
Q 2772 3750 2511 3984 
Q 2250 4219 1831 4219 
Q 1534 4219 1204 4116 
Q 875 4013 500 3803 
L 500 4441 
Q 881 4594 1212 4672 
Q 1544 4750 1819 4750 
Q 2544 4750 2975 4387 
Q 3406 4025 3406 3419 
Q 3406 3131 3298 2873 
Q 3191 2616 2906 2266 
Q 2828 2175 2409 1742 
Q 1991 1309 1228 531 
z
" transform="scale(0.015625)"/>
       </defs>
       <use xlink:href="#DejaVuSans-32"/>
       <use xlink:href="#DejaVuSans-30" x="63.623047"/>
       <use xlink:href="#DejaVuSans-30" x="127.246094"/>
       <use xlink:href="#DejaVuSans-30" x="190.869141"/>
       <use xlink:href="#DejaVuSans-30" x="254.492188"/>
       <use xlink:href="#DejaVuSans-30" x="318.115234"/>
      </g>
     </g>
    </g>
    <g id="xtick_4">
     <g id="line2d_7">
      <path d="M 195.575632 307.584 
L 195.575632 41.472 
" clip-path="url(#pde223dc8ec)" style="fill: none; stroke: #b0b0b0; stroke-width: 0.8; stroke-linecap: square"/>
     </g>
     <g id="line2d_8">
      <g>
       <use xlink:href="#m89dcaae9a6" x="195.575632" y="307.584" style="stroke: #000000; stroke-width: 0.8"/>
      </g>
     </g>
     <g id="text_4">
      <!-- 300000 -->
      <g transform="translate(176.488132 322.182437) scale(0.1 -0.1)">
       <defs>
        <path id="DejaVuSans-33" d="M 2597 2516 
Q 3050 2419 3304 2112 
Q 3559 1806 3559 1356 
Q 3559 666 3084 287 
Q 2609 -91 1734 -91 
Q 1441 -91 1130 -33 
Q 819 25 488 141 
L 488 750 
Q 750 597 1062 519 
Q 1375 441 1716 441 
Q 2309 441 2620 675 
Q 2931 909 2931 1356 
Q 2931 1769 2642 2001 
Q 2353 2234 1838 2234 
L 1294 2234 
L 1294 2753 
L 1863 2753 
Q 2328 2753 2575 2939 
Q 2822 3125 2822 3475 
Q 2822 3834 2567 4026 
Q 2313 4219 1838 4219 
Q 1578 4219 1281 4162 
Q 984 4106 628 3988 
L 628 4550 
Q 988 4650 1302 4700 
Q 1616 4750 1894 4750 
Q 2613 4750 3031 4423 
Q 3450 4097 3450 3541 
Q 3450 3153 3228 2886 
Q 3006 2619 2597 2516 
z
" transform="scale(0.015625)"/>
       </defs>
       <use xlink:href="#DejaVuSans-33"/>
       <use xlink:href="#DejaVuSans-30" x="63.623047"/>
       <use xlink:href="#DejaVuSans-30" x="127.246094"/>
       <use xlink:href="#DejaVuSans-30" x="190.869141"/>
       <use xlink:href="#DejaVuSans-30" x="254.492188"/>
       <use xlink:href="#DejaVuSans-30" x="318.115234"/>
      </g>
     </g>
    </g>
    <g id="xtick_5">
     <g id="line2d_9">
      <path d="M 236.158478 307.584 
L 236.158478 41.472 
" clip-path="url(#pde223dc8ec)" style="fill: none; stroke: #b0b0b0; stroke-width: 0.8; stroke-linecap: square"/>
     </g>
     <g id="line2d_10">
      <g>
       <use xlink:href="#m89dcaae9a6" x="236.158478" y="307.584" style="stroke: #000000; stroke-width: 0.8"/>
      </g>
     </g>
     <g id="text_5">
      <!-- 400000 -->
      <g transform="translate(217.070978 322.182437) scale(0.1 -0.1)">
       <defs>
        <path id="DejaVuSans-34" d="M 2419 4116 
L 825 1625 
L 2419 1625 
L 2419 4116 
z
M 2253 4666 
L 3047 4666 
L 3047 1625 
L 3713 1625 
L 3713 1100 
L 3047 1100 
L 3047 0 
L 2419 0 
L 2419 1100 
L 313 1100 
L 313 1709 
L 2253 4666 
z
" transform="scale(0.015625)"/>
       </defs>
       <use xlink:href="#DejaVuSans-34"/>
       <use xlink:href="#DejaVuSans-30" x="63.623047"/>
       <use xlink:href="#DejaVuSans-30" x="127.246094"/>
       <use xlink:href="#DejaVuSans-30" x="190.869141"/>
       <use xlink:href="#DejaVuSans-30" x="254.492188"/>
       <use xlink:href="#DejaVuSans-30" x="318.115234"/>
      </g>
     </g>
    </g>
    <g id="xtick_6">
     <g id="line2d_11">
      <path d="M 276.741324 307.584 
L 276.741324 41.472 
" clip-path="url(#pde223dc8ec)" style="fill: none; stroke: #b0b0b0; stroke-width: 0.8; stroke-linecap: square"/>
     </g>
     <g id="line2d_12">
      <g>
       <use xlink:href="#m89dcaae9a6" x="276.741324" y="307.584" style="stroke: #000000; stroke-width: 0.8"/>
      </g>
     </g>
     <g id="text_6">
      <!-- 500000 -->
      <g transform="translate(257.653824 322.182437) scale(0.1 -0.1)">
       <defs>
        <path id="DejaVuSans-35" d="M 691 4666 
L 3169 4666 
L 3169 4134 
L 1269 4134 
L 1269 2991 
Q 1406 3038 1543 3061 
Q 1681 3084 1819 3084 
Q 2600 3084 3056 2656 
Q 3513 2228 3513 1497 
Q 3513 744 3044 326 
Q 2575 -91 1722 -91 
Q 1428 -91 1123 -41 
Q 819 9 494 109 
L 494 744 
Q 775 591 1075 516 
Q 1375 441 1709 441 
Q 2250 441 2565 725 
Q 2881 1009 2881 1497 
Q 2881 1984 2565 2268 
Q 2250 2553 1709 2553 
Q 1456 2553 1204 2497 
Q 953 2441 691 2322 
L 691 4666 
z
" transform="scale(0.015625)"/>
       </defs>
       <use xlink:href="#DejaVuSans-35"/>
       <use xlink:href="#DejaVuSans-30" x="63.623047"/>
       <use xlink:href="#DejaVuSans-30" x="127.246094"/>
       <use xlink:href="#DejaVuSans-30" x="190.869141"/>
       <use xlink:href="#DejaVuSans-30" x="254.492188"/>
       <use xlink:href="#DejaVuSans-30" x="318.115234"/>
      </g>
     </g>
    </g>
    <g id="xtick_7">
     <g id="line2d_13">
      <path d="M 317.32417 307.584 
L 317.32417 41.472 
" clip-path="url(#pde223dc8ec)" style="fill: none; stroke: #b0b0b0; stroke-width: 0.8; stroke-linecap: square"/>
     </g>
     <g id="line2d_14">
      <g>
       <use xlink:href="#m89dcaae9a6" x="317.32417" y="307.584" style="stroke: #000000; stroke-width: 0.8"/>
      </g>
     </g>
     <g id="text_7">
      <!-- 600000 -->
      <g transform="translate(298.23667 322.182437) scale(0.1 -0.1)">
       <defs>
        <path id="DejaVuSans-36" d="M 2113 2584 
Q 1688 2584 1439 2293 
Q 1191 2003 1191 1497 
Q 1191 994 1439 701 
Q 1688 409 2113 409 
Q 2538 409 2786 701 
Q 3034 994 3034 1497 
Q 3034 2003 2786 2293 
Q 2538 2584 2113 2584 
z
M 3366 4563 
L 3366 3988 
Q 3128 4100 2886 4159 
Q 2644 4219 2406 4219 
Q 1781 4219 1451 3797 
Q 1122 3375 1075 2522 
Q 1259 2794 1537 2939 
Q 1816 3084 2150 3084 
Q 2853 3084 3261 2657 
Q 3669 2231 3669 1497 
Q 3669 778 3244 343 
Q 2819 -91 2113 -91 
Q 1303 -91 875 529 
Q 447 1150 447 2328 
Q 447 3434 972 4092 
Q 1497 4750 2381 4750 
Q 2619 4750 2861 4703 
Q 3103 4656 3366 4563 
z
" transform="scale(0.015625)"/>
       </defs>
       <use xlink:href="#DejaVuSans-36"/>
       <use xlink:href="#DejaVuSans-30" x="63.623047"/>
       <use xlink:href="#DejaVuSans-30" x="127.246094"/>
       <use xlink:href="#DejaVuSans-30" x="190.869141"/>
       <use xlink:href="#DejaVuSans-30" x="254.492188"/>
       <use xlink:href="#DejaVuSans-30" x="318.115234"/>
      </g>
     </g>
    </g>
    <g id="xtick_8">
     <g id="line2d_15">
      <path d="M 357.907015 307.584 
L 357.907015 41.472 
" clip-path="url(#pde223dc8ec)" style="fill: none; stroke: #b0b0b0; stroke-width: 0.8; stroke-linecap: square"/>
     </g>
     <g id="line2d_16">
      <g>
       <use xlink:href="#m89dcaae9a6" x="357.907015" y="307.584" style="stroke: #000000; stroke-width: 0.8"/>
      </g>
     </g>
     <g id="text_8">
      <!-- 700000 -->
      <g transform="translate(338.819515 322.182437) scale(0.1 -0.1)">
       <defs>
        <path id="DejaVuSans-37" d="M 525 4666 
L 3525 4666 
L 3525 4397 
L 1831 0 
L 1172 0 
L 2766 4134 
L 525 4134 
L 525 4666 
z
" transform="scale(0.015625)"/>
       </defs>
       <use xlink:href="#DejaVuSans-37"/>
       <use xlink:href="#DejaVuSans-30" x="63.623047"/>
       <use xlink:href="#DejaVuSans-30" x="127.246094"/>
       <use xlink:href="#DejaVuSans-30" x="190.869141"/>
       <use xlink:href="#DejaVuSans-30" x="254.492188"/>
       <use xlink:href="#DejaVuSans-30" x="318.115234"/>
      </g>
     </g>
    </g>
    <g id="xtick_9">
     <g id="line2d_17">
      <path d="M 398.489861 307.584 
L 398.489861 41.472 
" clip-path="url(#pde223dc8ec)" style="fill: none; stroke: #b0b0b0; stroke-width: 0.8; stroke-linecap: square"/>
     </g>
     <g id="line2d_18">
      <g>
       <use xlink:href="#m89dcaae9a6" x="398.489861" y="307.584" style="stroke: #000000; stroke-width: 0.8"/>
      </g>
     </g>
     <g id="text_9">
      <!-- 800000 -->
      <g transform="translate(379.402361 322.182437) scale(0.1 -0.1)">
       <defs>
        <path id="DejaVuSans-38" d="M 2034 2216 
Q 1584 2216 1326 1975 
Q 1069 1734 1069 1313 
Q 1069 891 1326 650 
Q 1584 409 2034 409 
Q 2484 409 2743 651 
Q 3003 894 3003 1313 
Q 3003 1734 2745 1975 
Q 2488 2216 2034 2216 
z
M 1403 2484 
Q 997 2584 770 2862 
Q 544 3141 544 3541 
Q 544 4100 942 4425 
Q 1341 4750 2034 4750 
Q 2731 4750 3128 4425 
Q 3525 4100 3525 3541 
Q 3525 3141 3298 2862 
Q 3072 2584 2669 2484 
Q 3125 2378 3379 2068 
Q 3634 1759 3634 1313 
Q 3634 634 3220 271 
Q 2806 -91 2034 -91 
Q 1263 -91 848 271 
Q 434 634 434 1313 
Q 434 1759 690 2068 
Q 947 2378 1403 2484 
z
M 1172 3481 
Q 1172 3119 1398 2916 
Q 1625 2713 2034 2713 
Q 2441 2713 2670 2916 
Q 2900 3119 2900 3481 
Q 2900 3844 2670 4047 
Q 2441 4250 2034 4250 
Q 1625 4250 1398 4047 
Q 1172 3844 1172 3481 
z
" transform="scale(0.015625)"/>
       </defs>
       <use xlink:href="#DejaVuSans-38"/>
       <use xlink:href="#DejaVuSans-30" x="63.623047"/>
       <use xlink:href="#DejaVuSans-30" x="127.246094"/>
       <use xlink:href="#DejaVuSans-30" x="190.869141"/>
       <use xlink:href="#DejaVuSans-30" x="254.492188"/>
       <use xlink:href="#DejaVuSans-30" x="318.115234"/>
      </g>
     </g>
    </g>
    <g id="text_10">
     <!-- TimePoint -->
     <g transform="translate(211.515469 335.860562) scale(0.1 -0.1)">
      <defs>
       <path id="DejaVuSans-54" d="M -19 4666 
L 3928 4666 
L 3928 4134 
L 2272 4134 
L 2272 0 
L 1638 0 
L 1638 4134 
L -19 4134 
L -19 4666 
z
" transform="scale(0.015625)"/>
       <path id="DejaVuSans-69" d="M 603 3500 
L 1178 3500 
L 1178 0 
L 603 0 
L 603 3500 
z
M 603 4863 
L 1178 4863 
L 1178 4134 
L 603 4134 
L 603 4863 
z
" transform="scale(0.015625)"/>
       <path id="DejaVuSans-6d" d="M 3328 2828 
Q 3544 3216 3844 3400 
Q 4144 3584 4550 3584 
Q 5097 3584 5394 3201 
Q 5691 2819 5691 2113 
L 5691 0 
L 5113 0 
L 5113 2094 
Q 5113 2597 4934 2840 
Q 4756 3084 4391 3084 
Q 3944 3084 3684 2787 
Q 3425 2491 3425 1978 
L 3425 0 
L 2847 0 
L 2847 2094 
Q 2847 2600 2669 2842 
Q 2491 3084 2119 3084 
Q 1678 3084 1418 2786 
Q 1159 2488 1159 1978 
L 1159 0 
L 581 0 
L 581 3500 
L 1159 3500 
L 1159 2956 
Q 1356 3278 1631 3431 
Q 1906 3584 2284 3584 
Q 2666 3584 2933 3390 
Q 3200 3197 3328 2828 
z
" transform="scale(0.015625)"/>
       <path id="DejaVuSans-65" d="M 3597 1894 
L 3597 1613 
L 953 1613 
Q 991 1019 1311 708 
Q 1631 397 2203 397 
Q 2534 397 2845 478 
Q 3156 559 3463 722 
L 3463 178 
Q 3153 47 2828 -22 
Q 2503 -91 2169 -91 
Q 1331 -91 842 396 
Q 353 884 353 1716 
Q 353 2575 817 3079 
Q 1281 3584 2069 3584 
Q 2775 3584 3186 3129 
Q 3597 2675 3597 1894 
z
M 3022 2063 
Q 3016 2534 2758 2815 
Q 2500 3097 2075 3097 
Q 1594 3097 1305 2825 
Q 1016 2553 972 2059 
L 3022 2063 
z
" transform="scale(0.015625)"/>
       <path id="DejaVuSans-50" d="M 1259 4147 
L 1259 2394 
L 2053 2394 
Q 2494 2394 2734 2622 
Q 2975 2850 2975 3272 
Q 2975 3691 2734 3919 
Q 2494 4147 2053 4147 
L 1259 4147 
z
M 628 4666 
L 2053 4666 
Q 2838 4666 3239 4311 
Q 3641 3956 3641 3272 
Q 3641 2581 3239 2228 
Q 2838 1875 2053 1875 
L 1259 1875 
L 1259 0 
L 628 0 
L 628 4666 
z
" transform="scale(0.015625)"/>
       <path id="DejaVuSans-6f" d="M 1959 3097 
Q 1497 3097 1228 2736 
Q 959 2375 959 1747 
Q 959 1119 1226 758 
Q 1494 397 1959 397 
Q 2419 397 2687 759 
Q 2956 1122 2956 1747 
Q 2956 2369 2687 2733 
Q 2419 3097 1959 3097 
z
M 1959 3584 
Q 2709 3584 3137 3096 
Q 3566 2609 3566 1747 
Q 3566 888 3137 398 
Q 2709 -91 1959 -91 
Q 1206 -91 779 398 
Q 353 888 353 1747 
Q 353 2609 779 3096 
Q 1206 3584 1959 3584 
z
" transform="scale(0.015625)"/>
       <path id="DejaVuSans-6e" d="M 3513 2113 
L 3513 0 
L 2938 0 
L 2938 2094 
Q 2938 2591 2744 2837 
Q 2550 3084 2163 3084 
Q 1697 3084 1428 2787 
Q 1159 2491 1159 1978 
L 1159 0 
L 581 0 
L 581 3500 
L 1159 3500 
L 1159 2956 
Q 1366 3272 1645 3428 
Q 1925 3584 2291 3584 
Q 2894 3584 3203 3211 
Q 3513 2838 3513 2113 
z
" transform="scale(0.015625)"/>
       <path id="DejaVuSans-74" d="M 1172 4494 
L 1172 3500 
L 2356 3500 
L 2356 3053 
L 1172 3053 
L 1172 1153 
Q 1172 725 1289 603 
Q 1406 481 1766 481 
L 2356 481 
L 2356 0 
L 1766 0 
Q 1100 0 847 248 
Q 594 497 594 1153 
L 594 3053 
L 172 3053 
L 172 3500 
L 594 3500 
L 594 4494 
L 1172 4494 
z
" transform="scale(0.015625)"/>
      </defs>
      <use xlink:href="#DejaVuSans-54"/>
      <use xlink:href="#DejaVuSans-69" x="57.958984"/>
      <use xlink:href="#DejaVuSans-6d" x="85.742188"/>
      <use xlink:href="#DejaVuSans-65" x="183.154297"/>
      <use xlink:href="#DejaVuSans-50" x="244.677734"/>
      <use xlink:href="#DejaVuSans-6f" x="301.355469"/>
      <use xlink:href="#DejaVuSans-69" x="362.537109"/>
      <use xlink:href="#DejaVuSans-6e" x="390.320312"/>
      <use xlink:href="#DejaVuSans-74" x="453.699219"/>
     </g>
    </g>
   </g>
   <g id="matplotlib.axis_2">
    <g id="ytick_1">
     <g id="line2d_19">
      <path d="M 57.6 295.488 
L 414.72 295.488 
" clip-path="url(#pde223dc8ec)" style="fill: none; stroke: #b0b0b0; stroke-width: 0.8; stroke-linecap: square"/>
     </g>
     <g id="line2d_20">
      <defs>
       <path id="mcbc9ad9f7a" d="M 0 0 
L -3.5 0 
" style="stroke: #000000; stroke-width: 0.8"/>
      </defs>
      <g>
       <use xlink:href="#mcbc9ad9f7a" x="57.6" y="295.488" style="stroke: #000000; stroke-width: 0.8"/>
      </g>
     </g>
     <g id="text_11">
      <!-- 0.0 -->
      <g transform="translate(34.696875 299.287219) scale(0.1 -0.1)">
       <defs>
        <path id="DejaVuSans-2e" d="M 684 794 
L 1344 794 
L 1344 0 
L 684 0 
L 684 794 
z
" transform="scale(0.015625)"/>
       </defs>
       <use xlink:href="#DejaVuSans-30"/>
       <use xlink:href="#DejaVuSans-2e" x="63.623047"/>
       <use xlink:href="#DejaVuSans-30" x="95.410156"/>
      </g>
     </g>
    </g>
    <g id="ytick_2">
     <g id="line2d_21">
      <path d="M 57.6 263.648727 
L 414.72 263.648727 
" clip-path="url(#pde223dc8ec)" style="fill: none; stroke: #b0b0b0; stroke-width: 0.8; stroke-linecap: square"/>
     </g>
     <g id="line2d_22">
      <g>
       <use xlink:href="#mcbc9ad9f7a" x="57.6" y="263.648727" style="stroke: #000000; stroke-width: 0.8"/>
      </g>
     </g>
     <g id="text_12">
      <!-- 2.5 -->
      <g transform="translate(34.696875 267.447946) scale(0.1 -0.1)">
       <use xlink:href="#DejaVuSans-32"/>
       <use xlink:href="#DejaVuSans-2e" x="63.623047"/>
       <use xlink:href="#DejaVuSans-35" x="95.410156"/>
      </g>
     </g>
    </g>
    <g id="ytick_3">
     <g id="line2d_23">
      <path d="M 57.6 231.809454 
L 414.72 231.809454 
" clip-path="url(#pde223dc8ec)" style="fill: none; stroke: #b0b0b0; stroke-width: 0.8; stroke-linecap: square"/>
     </g>
     <g id="line2d_24">
      <g>
       <use xlink:href="#mcbc9ad9f7a" x="57.6" y="231.809454" style="stroke: #000000; stroke-width: 0.8"/>
      </g>
     </g>
     <g id="text_13">
      <!-- 5.0 -->
      <g transform="translate(34.696875 235.608672) scale(0.1 -0.1)">
       <use xlink:href="#DejaVuSans-35"/>
       <use xlink:href="#DejaVuSans-2e" x="63.623047"/>
       <use xlink:href="#DejaVuSans-30" x="95.410156"/>
      </g>
     </g>
    </g>
    <g id="ytick_4">
     <g id="line2d_25">
      <path d="M 57.6 199.97018 
L 414.72 199.97018 
" clip-path="url(#pde223dc8ec)" style="fill: none; stroke: #b0b0b0; stroke-width: 0.8; stroke-linecap: square"/>
     </g>
     <g id="line2d_26">
      <g>
       <use xlink:href="#mcbc9ad9f7a" x="57.6" y="199.97018" style="stroke: #000000; stroke-width: 0.8"/>
      </g>
     </g>
     <g id="text_14">
      <!-- 7.5 -->
      <g transform="translate(34.696875 203.769399) scale(0.1 -0.1)">
       <use xlink:href="#DejaVuSans-37"/>
       <use xlink:href="#DejaVuSans-2e" x="63.623047"/>
       <use xlink:href="#DejaVuSans-35" x="95.410156"/>
      </g>
     </g>
    </g>
    <g id="ytick_5">
     <g id="line2d_27">
      <path d="M 57.6 168.130907 
L 414.72 168.130907 
" clip-path="url(#pde223dc8ec)" style="fill: none; stroke: #b0b0b0; stroke-width: 0.8; stroke-linecap: square"/>
     </g>
     <g id="line2d_28">
      <g>
       <use xlink:href="#mcbc9ad9f7a" x="57.6" y="168.130907" style="stroke: #000000; stroke-width: 0.8"/>
      </g>
     </g>
     <g id="text_15">
      <!-- 10.0 -->
      <g transform="translate(28.334375 171.930126) scale(0.1 -0.1)">
       <use xlink:href="#DejaVuSans-31"/>
       <use xlink:href="#DejaVuSans-30" x="63.623047"/>
       <use xlink:href="#DejaVuSans-2e" x="127.246094"/>
       <use xlink:href="#DejaVuSans-30" x="159.033203"/>
      </g>
     </g>
    </g>
    <g id="ytick_6">
     <g id="line2d_29">
      <path d="M 57.6 136.291634 
L 414.72 136.291634 
" clip-path="url(#pde223dc8ec)" style="fill: none; stroke: #b0b0b0; stroke-width: 0.8; stroke-linecap: square"/>
     </g>
     <g id="line2d_30">
      <g>
       <use xlink:href="#mcbc9ad9f7a" x="57.6" y="136.291634" style="stroke: #000000; stroke-width: 0.8"/>
      </g>
     </g>
     <g id="text_16">
      <!-- 12.5 -->
      <g transform="translate(28.334375 140.090853) scale(0.1 -0.1)">
       <use xlink:href="#DejaVuSans-31"/>
       <use xlink:href="#DejaVuSans-32" x="63.623047"/>
       <use xlink:href="#DejaVuSans-2e" x="127.246094"/>
       <use xlink:href="#DejaVuSans-35" x="159.033203"/>
      </g>
     </g>
    </g>
    <g id="ytick_7">
     <g id="line2d_31">
      <path d="M 57.6 104.452361 
L 414.72 104.452361 
" clip-path="url(#pde223dc8ec)" style="fill: none; stroke: #b0b0b0; stroke-width: 0.8; stroke-linecap: square"/>
     </g>
     <g id="line2d_32">
      <g>
       <use xlink:href="#mcbc9ad9f7a" x="57.6" y="104.452361" style="stroke: #000000; stroke-width: 0.8"/>
      </g>
     </g>
     <g id="text_17">
      <!-- 15.0 -->
      <g transform="translate(28.334375 108.25158) scale(0.1 -0.1)">
       <use xlink:href="#DejaVuSans-31"/>
       <use xlink:href="#DejaVuSans-35" x="63.623047"/>
       <use xlink:href="#DejaVuSans-2e" x="127.246094"/>
       <use xlink:href="#DejaVuSans-30" x="159.033203"/>
      </g>
     </g>
    </g>
    <g id="ytick_8">
     <g id="line2d_33">
      <path d="M 57.6 72.613088 
L 414.72 72.613088 
" clip-path="url(#pde223dc8ec)" style="fill: none; stroke: #b0b0b0; stroke-width: 0.8; stroke-linecap: square"/>
     </g>
     <g id="line2d_34">
      <g>
       <use xlink:href="#mcbc9ad9f7a" x="57.6" y="72.613088" style="stroke: #000000; stroke-width: 0.8"/>
      </g>
     </g>
     <g id="text_18">
      <!-- 17.5 -->
      <g transform="translate(28.334375 76.412307) scale(0.1 -0.1)">
       <use xlink:href="#DejaVuSans-31"/>
       <use xlink:href="#DejaVuSans-37" x="63.623047"/>
       <use xlink:href="#DejaVuSans-2e" x="127.246094"/>
       <use xlink:href="#DejaVuSans-35" x="159.033203"/>
      </g>
     </g>
    </g>
    <g id="text_19">
     <!-- timeInSystemStdDev -->
     <g transform="translate(22.254687 227.307687) rotate(-90) scale(0.1 -0.1)">
      <defs>
       <path id="DejaVuSans-49" d="M 628 4666 
L 1259 4666 
L 1259 0 
L 628 0 
L 628 4666 
z
" transform="scale(0.015625)"/>
       <path id="DejaVuSans-53" d="M 3425 4513 
L 3425 3897 
Q 3066 4069 2747 4153 
Q 2428 4238 2131 4238 
Q 1616 4238 1336 4038 
Q 1056 3838 1056 3469 
Q 1056 3159 1242 3001 
Q 1428 2844 1947 2747 
L 2328 2669 
Q 3034 2534 3370 2195 
Q 3706 1856 3706 1288 
Q 3706 609 3251 259 
Q 2797 -91 1919 -91 
Q 1588 -91 1214 -16 
Q 841 59 441 206 
L 441 856 
Q 825 641 1194 531 
Q 1563 422 1919 422 
Q 2459 422 2753 634 
Q 3047 847 3047 1241 
Q 3047 1584 2836 1778 
Q 2625 1972 2144 2069 
L 1759 2144 
Q 1053 2284 737 2584 
Q 422 2884 422 3419 
Q 422 4038 858 4394 
Q 1294 4750 2059 4750 
Q 2388 4750 2728 4690 
Q 3069 4631 3425 4513 
z
" transform="scale(0.015625)"/>
       <path id="DejaVuSans-79" d="M 2059 -325 
Q 1816 -950 1584 -1140 
Q 1353 -1331 966 -1331 
L 506 -1331 
L 506 -850 
L 844 -850 
Q 1081 -850 1212 -737 
Q 1344 -625 1503 -206 
L 1606 56 
L 191 3500 
L 800 3500 
L 1894 763 
L 2988 3500 
L 3597 3500 
L 2059 -325 
z
" transform="scale(0.015625)"/>
       <path id="DejaVuSans-73" d="M 2834 3397 
L 2834 2853 
Q 2591 2978 2328 3040 
Q 2066 3103 1784 3103 
Q 1356 3103 1142 2972 
Q 928 2841 928 2578 
Q 928 2378 1081 2264 
Q 1234 2150 1697 2047 
L 1894 2003 
Q 2506 1872 2764 1633 
Q 3022 1394 3022 966 
Q 3022 478 2636 193 
Q 2250 -91 1575 -91 
Q 1294 -91 989 -36 
Q 684 19 347 128 
L 347 722 
Q 666 556 975 473 
Q 1284 391 1588 391 
Q 1994 391 2212 530 
Q 2431 669 2431 922 
Q 2431 1156 2273 1281 
Q 2116 1406 1581 1522 
L 1381 1569 
Q 847 1681 609 1914 
Q 372 2147 372 2553 
Q 372 3047 722 3315 
Q 1072 3584 1716 3584 
Q 2034 3584 2315 3537 
Q 2597 3491 2834 3397 
z
" transform="scale(0.015625)"/>
       <path id="DejaVuSans-64" d="M 2906 2969 
L 2906 4863 
L 3481 4863 
L 3481 0 
L 2906 0 
L 2906 525 
Q 2725 213 2448 61 
Q 2172 -91 1784 -91 
Q 1150 -91 751 415 
Q 353 922 353 1747 
Q 353 2572 751 3078 
Q 1150 3584 1784 3584 
Q 2172 3584 2448 3432 
Q 2725 3281 2906 2969 
z
M 947 1747 
Q 947 1113 1208 752 
Q 1469 391 1925 391 
Q 2381 391 2643 752 
Q 2906 1113 2906 1747 
Q 2906 2381 2643 2742 
Q 2381 3103 1925 3103 
Q 1469 3103 1208 2742 
Q 947 2381 947 1747 
z
" transform="scale(0.015625)"/>
       <path id="DejaVuSans-44" d="M 1259 4147 
L 1259 519 
L 2022 519 
Q 2988 519 3436 956 
Q 3884 1394 3884 2338 
Q 3884 3275 3436 3711 
Q 2988 4147 2022 4147 
L 1259 4147 
z
M 628 4666 
L 1925 4666 
Q 3281 4666 3915 4102 
Q 4550 3538 4550 2338 
Q 4550 1131 3912 565 
Q 3275 0 1925 0 
L 628 0 
L 628 4666 
z
" transform="scale(0.015625)"/>
       <path id="DejaVuSans-76" d="M 191 3500 
L 800 3500 
L 1894 563 
L 2988 3500 
L 3597 3500 
L 2284 0 
L 1503 0 
L 191 3500 
z
" transform="scale(0.015625)"/>
      </defs>
      <use xlink:href="#DejaVuSans-74"/>
      <use xlink:href="#DejaVuSans-69" x="39.208984"/>
      <use xlink:href="#DejaVuSans-6d" x="66.992188"/>
      <use xlink:href="#DejaVuSans-65" x="164.404297"/>
      <use xlink:href="#DejaVuSans-49" x="225.927734"/>
      <use xlink:href="#DejaVuSans-6e" x="255.419922"/>
      <use xlink:href="#DejaVuSans-53" x="318.798828"/>
      <use xlink:href="#DejaVuSans-79" x="382.275391"/>
      <use xlink:href="#DejaVuSans-73" x="441.455078"/>
      <use xlink:href="#DejaVuSans-74" x="493.554688"/>
      <use xlink:href="#DejaVuSans-65" x="532.763672"/>
      <use xlink:href="#DejaVuSans-6d" x="594.287109"/>
      <use xlink:href="#DejaVuSans-53" x="691.699219"/>
      <use xlink:href="#DejaVuSans-74" x="755.175781"/>
      <use xlink:href="#DejaVuSans-64" x="794.384766"/>
      <use xlink:href="#DejaVuSans-44" x="857.861328"/>
      <use xlink:href="#DejaVuSans-65" x="934.863281"/>
      <use xlink:href="#DejaVuSans-76" x="996.386719"/>
     </g>
    </g>
   </g>
   <g id="line2d_35">
    <path d="M 73.835448 295.488 
L 73.975072 61.706481 
L 73.977406 63.972751 
L 73.981457 63.132615 
L 74.022763 77.492223 
L 74.18622 124.277857 
L 74.23819 134.035405 
L 74.403482 156.452111 
L 74.422877 158.42033 
L 74.897524 186.921738 
L 74.903164 187.054143 
L 75.018036 191.320379 
L 75.588938 206.222688 
L 75.600866 206.384585 
L 75.753299 209.070261 
L 75.80271 210.006089 
L 76.000722 212.741122 
L 76.010806 212.85328 
L 76.058476 213.437784 
L 76.072834 211.447653 
L 76.112596 212.054879 
L 76.174868 212.775856 
L 76.374379 215.002949 
L 76.425012 215.519379 
L 76.727537 218.18794 
L 76.728613 218.181009 
L 76.930963 219.714603 
L 77.702964 225.562008 
L 77.746835 225.826408 
L 77.982893 227.25151 
L 78.113103 227.735998 
L 78.294115 228.609447 
L 78.302864 228.607703 
L 78.323798 228.736081 
L 78.520613 229.524972 
L 78.52534 229.500957 
L 78.569523 229.666646 
L 78.684093 230.274843 
L 78.686292 230.260003 
L 78.688769 230.047449 
L 78.792859 230.398384 
L 78.814654 230.359725 
L 78.936625 230.839581 
L 79.053693 231.205391 
L 79.211301 231.830415 
L 79.227511 231.741984 
L 79.280622 231.916173 
L 79.432553 232.304473 
L 79.433203 232.295001 
L 79.46252 232.429396 
L 79.922915 233.578298 
L 79.93348 233.563961 
L 79.979048 233.569596 
L 80.004782 233.653821 
L 80.368755 234.751051 
L 80.52115 235.131439 
L 80.758634 235.787873 
L 80.815057 235.820353 
L 80.830301 235.867912 
L 80.974326 236.254003 
L 80.974434 236.24489 
L 81.014033 236.352211 
L 81.418966 237.2022 
L 81.428884 237.186568 
L 81.510782 237.364027 
L 81.667668 237.716374 
L 81.792948 237.984599 
L 81.881288 238.137764 
L 81.886993 238.123242 
L 82.091488 238.555001 
L 82.340716 239.059896 
L 82.417719 239.142194 
L 82.75759 239.764133 
L 82.772138 239.715324 
L 82.833565 239.493792 
L 82.881431 239.537527 
L 82.989936 239.689524 
L 83.157545 239.996879 
L 83.163656 239.993054 
L 83.28005 240.225181 
L 83.324717 240.071791 
L 83.330229 240.025507 
L 83.42971 240.237593 
L 83.43645 240.214811 
L 83.602245 240.413331 
L 83.753884 240.62382 
L 83.773094 240.608543 
L 83.826321 240.704262 
L 83.848271 240.677647 
L 84.034836 240.878534 
L 84.042697 240.851054 
L 84.110789 240.960586 
L 84.319388 241.263611 
L 84.319716 241.252441 
L 84.421871 241.395071 
L 84.54218 241.590337 
L 85.0509 242.104641 
L 85.182718 242.238641 
L 85.367237 242.516345 
L 85.385353 242.490538 
L 85.533231 242.706463 
L 85.704917 242.8667 
L 85.861591 242.995973 
L 86.03673 243.183211 
L 86.21508 243.313931 
L 86.303341 243.420968 
L 86.465422 243.527717 
L 86.60013 243.642924 
L 86.812182 243.831541 
L 86.817905 243.799431 
L 86.818976 243.783776 
L 86.925163 243.850456 
L 87.214755 244.020871 
L 87.221543 243.997472 
L 87.315183 244.082427 
L 87.417783 244.209077 
L 87.444291 244.196746 
L 87.449661 244.128558 
L 87.536807 244.209589 
L 87.550733 244.195564 
L 87.72509 244.307457 
L 87.848616 244.422011 
L 87.849743 244.419613 
L 87.858645 244.409919 
L 87.942732 244.491513 
L 88.129544 244.607207 
L 88.196159 244.623661 
L 88.13185 244.620145 
L 88.223455 244.66379 
L 88.376115 244.792701 
L 89.124521 245.287556 
L 89.130624 245.264496 
L 89.167414 245.091993 
L 89.244979 245.139478 
L 89.339909 245.217162 
L 89.366289 245.183353 
L 89.505544 245.252687 
L 89.72232 245.409923 
L 89.981489 245.542586 
L 89.993935 245.491264 
L 90.08739 245.551789 
L 90.003707 245.503361 
L 90.087542 245.556325 
L 90.631996 245.813575 
L 90.716362 245.820829 
L 90.717403 245.762875 
L 90.752785 245.746164 
L 90.822371 245.796567 
L 91.058682 245.906594 
L 91.167472 245.96372 
L 91.177916 245.922577 
L 91.413721 245.980954 
L 91.423744 245.945465 
L 91.469224 245.785852 
L 91.5343 245.842 
L 91.66895 245.950071 
L 92.096333 246.144918 
L 92.104286 246.091669 
L 92.207233 246.125822 
L 92.260353 246.132465 
L 92.28039 246.049179 
L 92.283209 246.052436 
L 92.290439 246.040445 
L 92.294709 244.014448 
L 92.397692 244.041571 
L 92.566417 244.088259 
L 92.749164 244.183981 
L 92.760483 244.169958 
L 93.423569 244.426847 
L 93.57543 244.509018 
L 93.579761 244.499937 
L 93.753901 244.545369 
L 95.154779 245.03696 
L 95.16901 244.955765 
L 95.190832 244.744483 
L 95.283735 244.824296 
L 95.582677 244.948539 
L 95.632961 244.925759 
L 95.685071 244.97325 
L 95.689841 244.957545 
L 95.90533 245.075371 
L 96.209884 245.210927 
L 96.321237 245.255864 
L 96.323445 245.224155 
L 96.541006 245.325372 
L 96.633151 245.371858 
L 96.640378 245.38112 
L 97.011304 245.539659 
L 97.011693 245.532069 
L 100.160681 246.43529 
L 100.321222 246.482475 
L 100.321307 246.484547 
L 100.894064 246.603727 
L 100.895241 246.589776 
L 100.969011 246.623818 
L 101.000935 246.622656 
L 101.216556 246.655793 
L 101.288889 246.665768 
L 101.31924 246.689086 
L 101.876611 246.80053 
L 101.883363 246.78423 
L 101.96277 246.811344 
L 101.987431 246.806119 
L 102.123026 246.81251 
L 102.123488 246.815448 
L 103.342528 247.029442 
L 103.436858 247.01668 
L 103.451154 247.026996 
L 105.278026 247.379598 
L 105.472755 247.414903 
L 105.547795 247.358632 
L 105.523299 247.427393 
L 105.582133 247.376996 
L 105.931271 247.488355 
L 106.09307 247.510701 
L 106.14895 247.50364 
L 106.196965 247.526091 
L 106.259583 247.420652 
L 106.390073 247.369922 
L 106.397181 247.37372 
L 107.612748 247.581041 
L 107.723619 247.584576 
L 108.283909 247.732456 
L 114.508581 248.700564 
L 114.538994 248.690974 
L 114.617391 248.72058 
L 115.011451 248.72321 
L 115.038594 248.334335 
L 115.124223 248.352834 
L 115.728954 248.324471 
L 115.805874 248.288737 
L 115.841348 248.295047 
L 116.106398 248.37108 
L 116.53723 248.379568 
L 116.632464 248.389924 
L 116.646633 248.396195 
L 117.476065 248.342611 
L 117.476517 248.026916 
L 117.587559 248.057419 
L 117.967569 248.110112 
L 118.301139 248.196054 
L 121.018073 248.370877 
L 121.311451 248.446913 
L 121.311851 248.439342 
L 122.324569 248.58338 
L 122.548133 248.638719 
L 123.309765 248.641313 
L 123.314686 248.590746 
L 123.420269 248.593461 
L 123.902826 248.588748 
L 124.736966 248.664285 
L 125.049368 248.710718 
L 125.178881 248.727097 
L 125.4134 248.741148 
L 125.522421 248.762563 
L 126.868001 248.921614 
L 127.15935 248.907177 
L 127.16364 248.776646 
L 127.26761 248.809188 
L 129.56017 248.934091 
L 129.663849 248.716644 
L 129.669655 248.717862 
L 131.710895 248.92292 
L 131.87472 248.946117 
L 134.080265 249.020483 
L 134.080627 249.015039 
L 134.387111 249.060276 
L 134.596373 249.091673 
L 135.452742 249.165616 
L 135.554998 249.121417 
L 135.565474 249.124917 
L 135.796712 249.157244 
L 136.016445 249.182347 
L 137.682539 249.294365 
L 137.894503 249.301273 
L 139.591945 249.459393 
L 140.862622 249.534871 
L 140.864053 249.508729 
L 141.140318 249.528875 
L 142.281675 249.590892 
L 142.712488 249.625754 
L 143.051422 249.61931 
L 148.911276 249.910926 
L 149.02396 249.812983 
L 150.513774 249.907582 
L 150.618233 249.914537 
L 150.624979 249.917314 
L 153.55741 250.047779 
L 153.599347 250.023687 
L 153.666329 250.033215 
L 159.826411 250.256506 
L 160.082332 250.25879 
L 160.234355 250.275547 
L 161.271845 250.314209 
L 161.384967 250.315876 
L 161.689232 250.346434 
L 161.689427 250.343901 
L 162.151556 250.337139 
L 162.193992 250.340968 
L 162.230445 250.331057 
L 162.261468 250.334233 
L 163.63301 250.40147 
L 165.155028 250.506025 
L 165.3503 250.480794 
L 165.468928 250.479519 
L 166.866523 250.520193 
L 167.068491 250.496438 
L 167.662682 250.497369 
L 168.067778 250.50994 
L 172.335112 250.583614 
L 172.44516 250.574365 
L 172.446693 250.575271 
L 180.997579 250.761404 
L 181.097283 250.722005 
L 181.112938 250.724489 
L 181.561666 250.724913 
L 190.561321 250.839749 
L 191.134027 250.826215 
L 191.247399 250.807142 
L 191.399051 250.810791 
L 191.513178 250.820343 
L 193.21109 250.872314 
L 200.199634 250.913505 
L 200.314232 250.908199 
L 209.820647 251.03817 
L 210.023207 251.040549 
L 242.672182 251.311329 
L 242.773617 251.280087 
L 242.783082 251.280694 
L 245.832989 251.317018 
L 246.191517 251.32446 
L 247.543961 251.311654 
L 247.832943 251.317939 
L 249.668425 251.344829 
L 252.199546 251.355214 
L 263.681781 251.48117 
L 263.92782 251.485261 
L 264.96167 251.47123 
L 265.071538 251.470078 
L 265.07197 251.470554 
L 267.632156 251.487781 
L 279.817181 251.608326 
L 280.968696 251.62547 
L 281.082553 251.628086 
L 282.401402 251.648479 
L 385.888313 252.044708 
L 388.924267 252.043465 
L 389.039559 252.043066 
L 389.517197 252.052919 
L 393.098429 252.032053 
L 393.142726 252.030073 
L 393.206736 252.032613 
L 398.487025 252.078304 
L 398.487025 252.078304 
" clip-path="url(#pde223dc8ec)" style="fill: none; stroke: #1f77b4; stroke-width: 1.5; stroke-linecap: square"/>
   </g>
   <g id="line2d_36">
    <path d="M 73.834552 295.488 
L 73.893898 53.568 
L 73.978606 114.675199 
L 74.356931 176.527819 
L 74.392295 179.684909 
L 74.604739 193.353758 
L 75.310495 215.770759 
L 75.322039 215.967333 
L 75.529997 219.082892 
L 75.826361 223.050046 
L 76.038871 224.941248 
L 76.062886 224.921426 
L 76.612969 229.76068 
L 76.613837 229.703974 
L 76.711789 230.4363 
L 76.92773 231.91883 
L 76.941085 232.014775 
L 77.206571 233.854712 
L 77.351344 234.640775 
L 77.461886 235.049203 
L 77.581313 235.440815 
L 77.73497 236.167744 
L 77.744451 236.079594 
L 77.868626 236.454559 
L 78.100039 237.563706 
L 78.340698 238.462916 
L 78.489064 238.856465 
L 78.607282 239.119666 
L 78.50406 238.830198 
L 78.608545 239.117049 
L 79.006776 240.398041 
L 79.131448 240.766574 
L 79.137512 240.76419 
L 79.160121 240.866191 
L 79.58572 241.834377 
L 79.167377 240.853296 
L 79.605044 241.82103 
L 79.605061 241.771269 
L 79.714991 242.063522 
L 80.115022 242.889094 
L 80.122897 242.864583 
L 80.218141 243.15669 
L 80.388035 243.399241 
L 80.388769 243.392549 
L 80.476528 243.576249 
L 80.786007 244.236178 
L 80.788893 244.140484 
L 80.793111 244.115651 
L 80.881752 244.23291 
L 81.004542 244.466304 
L 81.191384 244.762564 
L 81.199405 244.742927 
L 81.650968 245.420977 
L 81.775374 245.534899 
L 81.94421 245.669666 
L 81.961641 245.606774 
L 82.037161 245.538157 
L 81.994093 245.645953 
L 82.071958 245.605379 
L 82.271611 245.910272 
L 82.408311 246.065056 
L 82.422841 245.990793 
L 82.442473 246.012488 
L 82.449581 245.887411 
L 82.468036 245.896183 
L 82.470273 245.889242 
L 82.51325 245.977019 
L 82.557593 245.971014 
L 82.933351 246.393185 
L 82.565954 245.96512 
L 82.941942 246.371228 
L 82.963456 246.151633 
L 83.054148 246.283757 
L 83.058476 246.276472 
L 83.127438 246.375852 
L 83.266618 246.510257 
L 83.302764 246.490541 
L 83.541215 246.781619 
L 83.307295 246.453613 
L 83.583266 246.726534 
L 83.780599 246.868129 
L 84.028688 247.165252 
L 84.057402 247.136216 
L 84.093755 247.11907 
L 84.161304 247.237084 
L 84.200739 247.227289 
L 84.278701 247.287373 
L 84.436119 247.421493 
L 84.550589 247.441172 
L 84.504297 247.388714 
L 84.561218 247.43195 
L 84.757601 247.378414 
L 84.567291 247.378835 
L 84.757847 247.348935 
L 84.869945 247.316568 
L 84.774573 247.367825 
L 84.884559 247.329692 
L 85.022569 247.398835 
L 85.029625 247.347305 
L 85.307504 247.485531 
L 85.307784 247.483336 
L 85.314041 247.323354 
L 85.417969 247.398015 
L 85.931203 247.756143 
L 85.931783 247.749533 
L 86.029227 247.843942 
L 86.030029 247.834483 
L 86.207382 247.864415 
L 86.218929 247.762643 
L 86.315766 247.852063 
L 86.550709 247.964527 
L 86.987686 248.272372 
L 86.992018 248.26241 
L 87.020454 248.224053 
L 87.094619 248.313165 
L 87.189654 248.37986 
L 87.288145 248.440544 
L 87.305922 248.424702 
L 87.467918 248.572909 
L 87.474038 248.569733 
L 87.474711 248.544853 
L 87.583252 248.633494 
L 87.619593 248.658118 
L 87.644139 248.58793 
L 87.694079 248.61771 
L 88.21006 248.740606 
L 88.367885 248.850951 
L 88.725063 248.941504 
L 88.85851 249.047441 
L 88.870325 249.041303 
L 88.874402 249.017036 
L 88.972851 249.096643 
L 89.4616 249.259023 
L 89.57574 249.316095 
L 89.709204 249.295969 
L 89.606173 249.253946 
L 89.710193 249.276558 
L 89.983025 249.385929 
L 90.110775 249.466756 
L 90.12262 249.443967 
L 90.216486 249.515254 
L 90.530597 249.684132 
L 90.595594 249.717882 
L 90.606135 249.6309 
L 90.634208 249.64769 
L 91.523748 249.697762 
L 91.524461 249.678885 
L 91.614727 249.712399 
L 91.632123 249.689844 
L 92.711754 249.897973 
L 92.862295 249.89808 
L 93.017089 249.930287 
L 93.164826 249.94436 
L 93.282999 249.967681 
L 93.287696 249.973053 
L 93.465602 250.04593 
L 93.465785 250.042964 
L 95.048709 250.479281 
L 95.18229 250.494124 
L 95.185726 250.469294 
L 95.220915 250.417345 
L 95.295709 250.462895 
L 95.308997 250.446025 
L 95.411376 250.441272 
L 95.502869 250.241584 
L 95.536355 250.270729 
L 96.002875 250.357649 
L 96.004871 250.340623 
L 96.07981 250.385357 
L 96.112442 250.35897 
L 97.526806 250.364434 
L 97.540318 249.877852 
L 97.659924 249.941445 
L 98.398946 249.95536 
L 98.502953 249.956928 
L 98.519875 249.96903 
L 98.708196 250.012482 
L 98.725952 249.988636 
L 98.797597 250.023987 
L 98.818227 250.01983 
L 99.096418 250.081994 
L 99.224609 250.114078 
L 99.231551 250.076911 
L 99.331215 250.126787 
L 99.33302 250.125641 
L 99.548209 250.156081 
L 100.336234 250.240525 
L 100.62193 250.331106 
L 103.65007 250.513743 
L 103.659237 250.471191 
L 103.758517 250.518504 
L 104.048139 250.580345 
L 104.238342 250.592393 
L 104.361521 250.579402 
L 104.366833 250.583202 
L 112.263962 251.190154 
L 112.356824 251.008698 
L 112.375082 251.018782 
L 112.734945 251.05912 
L 112.838722 251.033666 
L 112.846246 251.035035 
L 113.647097 251.170361 
L 113.816485 251.184381 
L 113.820023 251.171817 
L 113.963989 251.159687 
L 113.964211 251.163585 
L 114.73904 251.197458 
L 115.113311 251.225359 
L 117.588077 251.125396 
L 117.892372 251.111382 
L 118.034224 251.076048 
L 118.06374 251.058174 
L 118.144735 250.921978 
L 118.171749 250.926566 
L 121.512016 250.902616 
L 121.52301 250.672587 
L 121.622733 250.677192 
L 121.881492 250.6675 
L 127.79883 250.896921 
L 128.136009 250.94072 
L 128.518622 250.987171 
L 128.768628 251.023336 
L 130.948753 251.039699 
L 131.010908 251.021141 
L 131.062056 251.033462 
L 131.211119 251.040185 
L 131.66641 250.966703 
L 131.669519 250.938339 
L 131.777313 250.954313 
L 135.539702 251.095281 
L 135.847567 251.095404 
L 135.977854 251.102358 
L 136.335136 251.147976 
L 139.103968 251.19761 
L 139.116917 251.192268 
L 139.21653 251.210296 
L 140.633195 251.105178 
L 140.732636 251.039109 
L 140.744231 251.042451 
L 153.592409 251.270312 
L 154.735968 251.268068 
L 154.979408 251.262986 
L 157.095278 251.355145 
L 158.375656 251.343559 
L 158.500384 251.339299 
L 162.64002 251.361104 
L 163.170124 251.384045 
L 163.321485 251.385238 
L 165.174291 251.445008 
L 165.386142 251.453878 
L 166.17979 251.490999 
L 166.810925 251.541317 
L 169.564328 251.630463 
L 169.606544 251.621146 
L 169.672548 251.630314 
L 171.096623 251.658708 
L 171.219241 251.665008 
L 175.806087 251.791966 
L 177.356436 251.783706 
L 177.50152 251.781717 
L 181.078863 251.842133 
L 181.333145 251.797539 
L 182.487851 251.791539 
L 189.244186 251.894079 
L 189.270127 251.826626 
L 189.353221 251.831969 
L 191.909849 251.889279 
L 192.036281 251.888499 
L 192.857462 251.821723 
L 192.969486 251.819699 
L 201.21179 251.846769 
L 201.887386 251.839856 
L 202.036184 251.839142 
L 203.575101 251.827185 
L 203.686771 251.827203 
L 203.687883 251.827535 
L 205.049478 251.808147 
L 210.658331 251.916383 
L 212.097245 251.925837 
L 212.271516 251.891396 
L 214.954025 251.924677 
L 215.060427 251.925918 
L 215.0622 251.926481 
L 215.986486 251.938685 
L 216.290796 251.922671 
L 216.972108 251.847501 
L 217.096637 251.762445 
L 219.133228 251.809331 
L 219.245082 251.814976 
L 239.106147 251.786869 
L 239.215154 251.775974 
L 239.216437 251.776205 
L 266.365114 251.87924 
L 267.381008 251.880573 
L 267.4743 251.879173 
L 267.485782 251.880459 
L 271.866196 251.895546 
L 273.155494 251.913486 
L 274.536717 251.927799 
L 274.821974 251.934561 
L 276.181827 251.937532 
L 276.452205 251.946589 
L 293.933256 251.944699 
L 294.06568 251.926465 
L 295.740121 251.96924 
L 296.71668 251.970556 
L 305.018558 251.972207 
L 310.472504 252.029147 
L 310.583448 252.030612 
L 313.538596 252.006452 
L 313.837703 252.002047 
L 315.776435 251.978903 
L 315.82817 251.894608 
L 315.887975 251.897136 
L 318.883589 251.923456 
L 319.005006 251.922653 
L 332.639018 251.986984 
L 335.73465 251.986504 
L 336.029272 251.985614 
L 347.750401 251.970812 
L 347.768838 251.87287 
L 347.861998 251.875818 
L 348.910044 251.873471 
L 354.387117 251.891136 
L 356.515784 251.90536 
L 356.638376 251.905202 
L 358.081041 251.925812 
L 358.214977 251.92521 
L 363.182517 251.959487 
L 369.038711 251.965213 
L 370.17821 251.955841 
L 398.486666 251.92251 
L 398.486666 251.92251 
" clip-path="url(#pde223dc8ec)" style="fill: none; stroke: #ff7f0e; stroke-width: 1.5; stroke-linecap: square"/>
   </g>
   <g id="line2d_37">
    <path d="M 73.834951 295.488 
L 73.858772 237.923583 
L 73.948354 251.763837 
L 73.995573 251.992015 
L 73.954425 250.139951 
L 73.996485 251.462627 
L 74.043931 244.839781 
L 74.115139 249.179288 
L 74.120778 249.168911 
L 74.135765 249.840677 
L 74.219049 244.536407 
L 74.188677 250.855467 
L 74.250118 245.953855 
L 74.350796 247.111345 
L 74.361728 246.494282 
L 74.416761 245.563936 
L 74.405988 247.03612 
L 74.468233 246.712282 
L 74.746161 248.958305 
L 74.80743 248.536181 
L 74.844106 249.124048 
L 75.00509 250.014372 
L 75.014473 249.872225 
L 75.040813 249.149083 
L 75.124508 249.678787 
L 75.227694 250.457954 
L 75.2654 250.246153 
L 75.486144 251.353699 
L 75.508998 251.203709 
L 75.513777 251.072709 
L 75.590472 251.501797 
L 75.616444 251.275791 
L 75.642929 251.454058 
L 75.657943 251.570457 
L 75.682181 251.109364 
L 75.748429 251.409709 
L 75.805218 251.513528 
L 76.023573 252.524669 
L 76.139273 252.356274 
L 76.222492 252.119756 
L 76.201198 252.460646 
L 76.250032 252.229129 
L 76.323405 252.455779 
L 76.350998 252.069722 
L 76.357884 252.0617 
L 76.381634 252.172218 
L 76.403942 252.177733 
L 76.571429 252.651146 
L 76.61669 252.503444 
L 76.694122 251.715612 
L 76.676582 252.695394 
L 76.784553 251.868767 
L 76.83076 251.976865 
L 76.831166 251.801633 
L 76.886785 251.830252 
L 77.057124 252.084049 
L 76.898482 251.798447 
L 77.077217 251.859112 
L 77.100737 251.704876 
L 77.180553 251.924489 
L 77.392148 252.409823 
L 77.397348 252.224191 
L 77.502547 252.415192 
L 77.647397 252.579293 
L 77.755874 252.208184 
L 77.675769 252.594853 
L 77.761372 252.229369 
L 77.826793 252.113682 
L 77.884455 252.274127 
L 77.899081 252.302704 
L 77.905012 252.239492 
L 77.908526 252.246234 
L 77.914319 252.095092 
L 78.018566 252.328853 
L 78.090292 252.438093 
L 78.107702 252.303333 
L 78.128236 252.375573 
L 78.249921 252.47712 
L 78.344542 252.698724 
L 78.352595 252.575069 
L 78.359511 252.377071 
L 78.461739 252.59023 
L 78.476805 252.552145 
L 78.771412 252.964126 
L 78.883673 253.098454 
L 78.955687 253.237929 
L 79.01734 253.409187 
L 79.041125 253.118873 
L 79.060969 253.189928 
L 79.14516 253.09088 
L 79.159584 252.987355 
L 79.226457 253.096823 
L 79.256756 253.032295 
L 79.455737 253.468773 
L 79.544438 253.267193 
L 79.514456 253.504938 
L 79.56771 253.338797 
L 80.411854 253.772014 
L 79.579223 253.291295 
L 80.418715 253.729651 
L 80.424516 253.650721 
L 80.480017 253.742552 
L 80.527142 253.740174 
L 80.696779 253.702668 
L 80.698574 253.681736 
L 80.846034 253.026505 
L 80.853647 253.049934 
L 80.994121 253.151461 
L 80.864807 252.996083 
L 81.001093 253.09451 
L 81.086935 252.757168 
L 81.112492 252.801302 
L 81.116756 252.768509 
L 81.207436 252.897908 
L 81.526807 253.160045 
L 81.535584 253.122315 
L 81.552102 253.03688 
L 81.646593 253.121089 
L 81.902332 253.091886 
L 81.916764 252.999746 
L 82.004456 253.110537 
L 82.012865 253.0769 
L 82.219816 253.226222 
L 82.221495 253.217921 
L 82.332196 253.293383 
L 82.373585 253.209367 
L 82.432363 253.141137 
L 82.484894 253.165161 
L 82.557121 253.072989 
L 82.603824 253.095684 
L 82.612135 253.109723 
L 82.656156 252.968905 
L 82.675602 252.998051 
L 82.839134 253.081041 
L 82.84447 253.087413 
L 82.928937 252.799135 
L 83.046493 252.861577 
L 83.062075 252.785708 
L 83.080003 252.771653 
L 83.161572 252.839811 
L 84.111673 253.15935 
L 83.164132 252.823092 
L 84.116735 253.094199 
L 84.200377 253.167739 
L 84.256079 253.261248 
L 84.310273 253.221589 
L 84.613046 253.106845 
L 84.630865 253.061357 
L 84.721279 253.111191 
L 85.444005 253.142325 
L 85.444732 253.088586 
L 85.542162 252.917758 
L 85.577667 252.974806 
L 85.579606 252.98701 
L 85.651475 252.899605 
L 85.682647 252.932004 
L 85.9249 252.954938 
L 85.928616 252.941318 
L 86.860508 252.868786 
L 86.950912 252.431827 
L 86.969631 252.448454 
L 87.06914 252.528761 
L 87.120769 252.599124 
L 87.14047 252.311306 
L 87.142524 252.313214 
L 87.146711 252.094671 
L 87.252055 252.14375 
L 87.28732 252.166619 
L 87.317998 252.066084 
L 87.344302 252.093679 
L 87.495405 252.062902 
L 87.50297 252.072688 
L 87.646262 252.194882 
L 87.784687 252.172862 
L 88.081942 252.213746 
L 88.20012 252.211797 
L 88.108385 252.235714 
L 88.201232 252.217371 
L 88.843035 252.505301 
L 88.847842 252.494148 
L 89.161001 252.433049 
L 89.292868 252.443984 
L 89.601993 252.500807 
L 89.308666 252.403639 
L 89.603812 252.491304 
L 89.722928 252.393055 
L 89.727818 252.393816 
L 90.687939 252.563636 
L 90.831107 252.58579 
L 91.465002 252.72731 
L 91.500836 252.663378 
L 91.575271 252.711281 
L 91.766459 252.762124 
L 92.855723 252.834485 
L 92.897097 252.787546 
L 92.966548 252.817987 
L 92.989888 252.730581 
L 93.013793 252.653946 
L 93.101847 252.702179 
L 93.110667 252.692895 
L 93.263839 252.783747 
L 93.840578 252.822299 
L 93.976386 252.843968 
L 93.980751 252.831759 
L 94.052634 252.885825 
L 94.080145 252.871842 
L 94.635662 252.996921 
L 94.770444 253.033549 
L 94.773885 253.024399 
L 95.01797 253.087888 
L 95.248715 253.010513 
L 95.279981 252.989308 
L 95.332292 253.02786 
L 95.357288 253.006848 
L 95.826362 253.070481 
L 95.83431 253.042614 
L 95.944702 252.861487 
L 95.944857 252.865468 
L 96.705414 252.920241 
L 96.708089 252.899928 
L 96.711252 252.886001 
L 96.813616 252.947374 
L 97.151783 252.849596 
L 97.17439 252.721964 
L 97.260409 252.764472 
L 97.434631 252.715681 
L 97.507412 252.656479 
L 97.544431 252.669739 
L 97.76904 252.74199 
L 97.785004 252.708837 
L 97.821491 252.673823 
L 97.896181 252.692527 
L 98.03807 252.680714 
L 98.135383 252.474035 
L 98.147304 252.480722 
L 98.379756 252.536089 
L 99.03991 252.575584 
L 99.040554 252.559342 
L 99.101319 252.481021 
L 99.16017 252.499394 
L 99.57099 252.492071 
L 99.673532 252.44639 
L 99.607564 252.500544 
L 99.685175 252.456106 
L 99.951603 252.415734 
L 100.013471 252.403883 
L 100.008603 252.423054 
L 100.060794 252.427664 
L 100.174316 252.346472 
L 100.175496 252.326038 
L 100.94112 252.218361 
L 101.019752 252.226839 
L 100.952537 252.211653 
L 101.043326 252.181202 
L 102.676688 252.139199 
L 102.805544 252.039366 
L 103.387422 252.155364 
L 103.483639 252.153678 
L 103.47096 252.179039 
L 103.498267 252.160832 
L 103.769674 252.162115 
L 104.36892 252.226582 
L 104.370163 252.191577 
L 104.469412 252.037723 
L 104.4821 252.039173 
L 104.661218 252.040186 
L 105.145862 252.052231 
L 105.14703 252.044659 
L 105.226436 252.038184 
L 105.258738 252.049058 
L 105.391642 252.057928 
L 105.404536 252.045631 
L 107.027158 252.237766 
L 107.173464 252.23145 
L 107.540693 252.272182 
L 107.968182 252.234109 
L 108.255745 252.254946 
L 108.40405 252.20679 
L 108.412161 252.19028 
L 108.583224 252.20069 
L 108.715221 252.190279 
L 108.861785 252.1767 
L 109.144839 252.216053 
L 109.325096 252.232157 
L 109.731895 252.238264 
L 109.855458 252.221358 
L 110.61011 251.976516 
L 111.689831 252.057415 
L 111.775853 252.059272 
L 111.799612 252.068432 
L 111.997851 252.032675 
L 113.01905 252.018798 
L 113.230837 251.999182 
L 113.282485 251.604514 
L 113.352412 251.621825 
L 113.7138 251.633308 
L 113.722795 251.595226 
L 113.825131 251.630822 
L 114.612485 251.724088 
L 114.857995 251.713369 
L 116.17997 251.83372 
L 116.825561 251.771874 
L 116.9314 251.622125 
L 116.936682 251.624023 
L 117.804045 251.760929 
L 117.816537 251.723504 
L 117.917327 251.756434 
L 118.225547 251.749987 
L 118.231438 251.73243 
L 118.33064 251.743174 
L 118.762626 251.63722 
L 118.90712 251.645753 
L 118.907781 251.647076 
L 119.238721 251.594203 
L 119.239505 251.595683 
L 119.484032 251.61879 
L 120.137158 251.649801 
L 120.767324 251.750801 
L 120.883579 251.725909 
L 120.886977 251.7275 
L 122.608332 251.840526 
L 122.663279 251.827272 
L 122.71785 251.84477 
L 122.909143 251.856906 
L 123.117647 251.858287 
L 123.117714 251.858077 
L 124.415403 251.950371 
L 124.771965 251.948218 
L 125.332393 251.901649 
L 125.443619 251.900087 
L 125.443884 251.901604 
L 131.467677 251.966578 
L 131.594475 251.963789 
L 131.745371 251.989474 
L 131.764641 251.928475 
L 131.888361 251.925783 
L 134.249125 252.09912 
L 134.255868 252.094746 
L 134.357151 252.119356 
L 136.320668 252.196719 
L 136.329259 252.185092 
L 136.427688 252.194304 
L 138.508079 252.136032 
L 138.538125 252.004127 
L 138.618155 252.022316 
L 139.666268 252.003872 
L 139.667119 251.984256 
L 139.800645 251.955683 
L 140.538964 252.001563 
L 143.289107 252.062218 
L 143.397728 251.973387 
L 143.403251 251.974788 
L 143.698189 251.98669 
L 144.150217 252.011275 
L 145.785471 252.057282 
L 145.970885 252.060717 
L 146.551807 252.088833 
L 146.907256 252.105919 
L 147.090138 252.119504 
L 147.206582 252.102256 
L 148.213093 252.142468 
L 148.327094 252.153592 
L 149.161614 252.173245 
L 149.45065 252.192862 
L 149.5341 252.171341 
L 149.558885 252.174687 
L 165.833251 252.432811 
L 165.953741 252.41878 
L 167.6247 252.433224 
L 168.006551 252.4474 
L 171.049457 252.569109 
L 171.232005 252.571575 
L 172.377524 252.617264 
L 172.48743 252.604578 
L 179.225574 252.628762 
L 179.333401 252.615411 
L 179.339049 252.616821 
L 183.546702 252.69097 
L 183.91077 252.697799 
L 184.916982 252.718667 
L 185.107443 252.718054 
L 188.014258 252.709078 
L 188.123723 252.703545 
L 188.125765 252.704125 
L 199.12531 252.642933 
L 199.601648 252.63952 
L 210.112773 252.728067 
L 210.739892 252.696574 
L 213.044185 252.705404 
L 213.148973 252.703771 
L 213.152857 252.704192 
L 213.56768 252.705024 
L 215.910598 252.723749 
L 216.611821 252.718315 
L 217.307483 252.734061 
L 218.239441 252.748404 
L 219.247879 252.741476 
L 219.372033 252.723044 
L 220.293325 252.733268 
L 231.479826 252.705666 
L 231.489764 252.695437 
L 231.588662 252.701158 
L 232.979729 252.740758 
L 233.124874 252.742395 
L 304.273726 252.606991 
L 304.417488 252.576889 
L 310.222319 252.618715 
L 311.323982 252.643141 
L 311.642745 252.641776 
L 312.590302 252.644969 
L 398.485283 252.694008 
L 398.485283 252.694008 
" clip-path="url(#pde223dc8ec)" style="fill: none; stroke: #2ca02c; stroke-width: 1.5; stroke-linecap: square"/>
   </g>
   <g id="line2d_38">
    <path d="M 73.835813 295.488 
L 73.857384 188.322603 
L 73.95449 228.837927 
L 74.115058 240.534617 
L 74.212218 242.715567 
L 74.250806 242.316122 
L 74.299155 241.165678 
L 74.351426 242.759137 
L 74.359444 242.559253 
L 74.530539 246.771211 
L 74.530777 246.689184 
L 74.538096 246.585894 
L 74.57907 247.53792 
L 74.603593 247.191402 
L 74.607747 247.284913 
L 74.611083 247.262691 
L 74.612808 246.929987 
L 74.714872 248.485951 
L 74.757901 248.543723 
L 74.778961 248.075405 
L 74.79084 248.278831 
L 74.862172 246.966462 
L 74.820538 248.56485 
L 74.922456 247.481341 
L 74.934945 247.346721 
L 74.995842 247.851944 
L 74.996453 247.844202 
L 75.179718 249.27849 
L 75.221225 249.697536 
L 75.324893 250.652398 
L 75.330373 250.616365 
L 75.369084 250.863009 
L 75.383178 250.495766 
L 75.394335 250.459072 
L 75.387293 250.568387 
L 75.411144 250.603511 
L 75.495435 251.183466 
L 75.522159 250.629659 
L 75.554684 250.343476 
L 75.637089 250.50816 
L 75.781631 251.005527 
L 75.790145 250.868961 
L 75.904048 251.439177 
L 75.918773 251.347882 
L 76.043386 251.856843 
L 76.101463 251.078114 
L 76.156441 251.236157 
L 76.190052 251.325498 
L 76.206478 251.24509 
L 76.303491 251.496377 
L 76.310999 251.501566 
L 76.311595 251.397211 
L 76.315426 251.27346 
L 76.402138 251.59968 
L 76.418927 251.476376 
L 76.565821 251.931031 
L 76.441091 251.407278 
L 76.569303 251.874645 
L 76.576332 251.822092 
L 76.64747 252.057831 
L 76.654285 252.048153 
L 77.446275 253.588214 
L 77.451417 253.550254 
L 77.459127 253.443373 
L 77.554064 253.788354 
L 77.583656 253.818758 
L 77.615212 253.450233 
L 77.633323 253.473444 
L 77.679833 253.002602 
L 77.720142 251.001253 
L 77.788242 251.166458 
L 77.826186 251.209494 
L 77.858996 250.980837 
L 77.867611 251.004141 
L 77.932808 250.946321 
L 77.902851 251.073156 
L 77.964572 251.046187 
L 78.055071 251.191474 
L 78.077003 251.048198 
L 78.12262 251.07207 
L 78.137665 251.141804 
L 78.206997 251.30845 
L 78.231694 251.121218 
L 78.329669 250.788262 
L 78.346567 250.850142 
L 78.38724 250.881551 
L 78.405058 250.761053 
L 78.408929 250.765534 
L 78.409996 250.691823 
L 78.5042 250.85941 
L 78.518905 250.82558 
L 78.596021 250.954023 
L 78.604622 250.755153 
L 78.610501 250.802942 
L 78.617949 250.740579 
L 78.703532 250.957033 
L 78.70896 250.901084 
L 78.830703 251.087324 
L 78.848161 251.060895 
L 78.849861 250.930122 
L 78.921166 251.122138 
L 78.95949 251.013852 
L 79.005213 251.022128 
L 79.027427 251.099561 
L 79.157729 251.211765 
L 79.060101 251.056187 
L 79.17012 251.193374 
L 79.293237 251.275914 
L 79.179136 251.13754 
L 79.299613 251.219255 
L 79.37806 251.021273 
L 79.411591 251.069126 
L 79.415949 251.067151 
L 79.428323 250.408722 
L 79.527532 250.622107 
L 79.683408 250.762323 
L 79.544147 250.582906 
L 79.695771 250.755658 
L 79.73613 250.687093 
L 79.804876 250.845425 
L 79.805507 250.831102 
L 80.274281 251.306183 
L 80.278979 251.280151 
L 80.385548 250.905536 
L 80.409917 250.947123 
L 80.419669 250.921647 
L 80.521029 251.126078 
L 80.565337 251.219333 
L 80.639045 251.16928 
L 80.646481 251.162195 
L 80.725358 251.316319 
L 80.818553 251.347575 
L 80.82496 251.236353 
L 80.891562 251.299807 
L 80.848843 251.279002 
L 80.897075 251.317481 
L 80.921601 251.348695 
L 80.989439 251.231963 
L 81.047567 251.278133 
L 81.068017 251.128162 
L 81.082985 251.161805 
L 81.238252 251.277015 
L 81.122198 251.123888 
L 81.270267 251.244056 
L 81.365477 251.114134 
L 81.347574 251.303576 
L 81.390228 251.1278 
L 81.399295 251.052676 
L 81.736071 251.244283 
L 81.760138 250.727684 
L 81.85278 250.768069 
L 81.991705 250.863501 
L 82.268802 251.073537 
L 82.276331 251.02595 
L 82.325722 250.938593 
L 82.384937 251.000719 
L 82.460569 251.046776 
L 82.477314 250.956616 
L 82.47797 250.917638 
L 82.55071 250.998318 
L 82.585832 250.938624 
L 82.638687 250.980091 
L 82.64732 250.890369 
L 82.682038 250.928462 
L 82.708176 250.84269 
L 82.791386 250.868015 
L 82.940053 250.960386 
L 82.944418 250.957031 
L 83.153344 250.928996 
L 83.157524 250.945324 
L 83.288271 251.063591 
L 83.296715 251.042402 
L 83.464027 251.173854 
L 83.967585 251.223614 
L 84.121956 251.316856 
L 84.128656 251.289347 
L 84.220649 251.190699 
L 84.225682 251.194272 
L 84.235498 249.873568 
L 84.336316 249.926837 
L 84.42884 250.037639 
L 84.589118 250.15399 
L 84.738358 250.260845 
L 84.606384 250.119604 
L 84.745442 250.251913 
L 84.787277 250.198154 
L 84.849417 250.235338 
L 84.872013 250.073345 
L 84.962164 250.083087 
L 85.1305 250.209058 
L 85.15787 250.186288 
L 85.245098 250.286893 
L 85.362753 250.40477 
L 85.489159 250.447942 
L 85.494133 250.405639 
L 85.530901 250.38867 
L 85.536222 249.942208 
L 85.641866 249.989697 
L 85.791098 249.852307 
L 85.799413 249.448962 
L 85.901842 249.470787 
L 86.778614 249.783221 
L 86.866161 249.632255 
L 86.889657 249.655121 
L 87.068616 249.777969 
L 87.199624 249.778927 
L 87.228363 249.733953 
L 87.300094 249.786846 
L 87.311285 249.763767 
L 87.336434 249.728762 
L 87.498718 249.843755 
L 87.518042 249.787903 
L 87.609229 249.814453 
L 88.047034 249.985596 
L 88.113639 249.940356 
L 88.155702 249.971454 
L 88.314705 250.079931 
L 88.53474 250.217629 
L 88.58206 250.184787 
L 88.560843 250.225503 
L 88.644508 250.204279 
L 88.815724 250.266762 
L 88.817042 250.255253 
L 88.828112 250.23997 
L 88.919116 250.29747 
L 89.13899 250.410406 
L 89.308231 250.500809 
L 89.311945 250.474255 
L 89.757104 250.552037 
L 89.761473 250.538042 
L 89.844025 250.353849 
L 89.882183 250.37031 
L 90.332217 250.541529 
L 90.451836 250.565295 
L 91.659412 250.69088 
L 91.695062 250.713228 
L 91.711378 250.592464 
L 91.71508 250.57976 
L 91.817446 250.629708 
L 91.957748 250.661206 
L 91.847532 250.58951 
L 91.958941 250.644479 
L 92.644948 250.691247 
L 92.860547 250.807812 
L 92.966617 250.836064 
L 92.896038 250.836785 
L 92.970755 250.842989 
L 93.10495 250.868904 
L 93.577024 250.964809 
L 93.581742 250.941175 
L 93.69149 250.904856 
L 93.928526 250.968224 
L 94.6548 251.186858 
L 94.671442 251.111891 
L 94.68608 251.032076 
L 94.783155 251.069243 
L 95.209981 251.112868 
L 95.217542 251.063199 
L 95.231031 250.986879 
L 95.332264 251.03604 
L 95.455317 251.024181 
L 95.587785 251.061953 
L 95.780342 251.055939 
L 95.886147 251.023596 
L 95.866121 251.066788 
L 95.888662 251.026282 
L 96.304155 251.086222 
L 96.394785 251.098407 
L 96.411636 251.112993 
L 96.610979 251.171413 
L 96.660911 251.113716 
L 96.721394 251.134705 
L 96.8714 251.147174 
L 96.923875 251.132432 
L 96.979743 251.162041 
L 97.702212 251.196553 
L 97.707345 251.122502 
L 97.82082 251.048014 
L 97.824758 251.05231 
L 98.191421 251.15438 
L 98.313674 251.178237 
L 99.63878 251.128366 
L 99.715711 251.006487 
L 99.752167 251.029005 
L 100.397605 251.000905 
L 100.529342 251.008111 
L 101.656662 251.13403 
L 101.715801 251.047983 
L 101.764961 251.063509 
L 102.275997 251.010471 
L 102.455458 251.004248 
L 102.456563 251.001692 
L 102.577273 251.022222 
L 102.806701 251.034682 
L 102.813416 251.022973 
L 102.911243 251.078735 
L 103.64287 251.190156 
L 103.770751 251.223382 
L 104.584757 251.327114 
L 104.808577 251.329881 
L 104.817716 251.318704 
L 104.916351 251.352031 
L 107.870122 251.461954 
L 108.260801 251.535232 
L 108.262383 251.511251 
L 108.370911 251.532876 
L 108.620052 251.529925 
L 109.183764 251.47082 
L 109.292153 251.389805 
L 109.297253 251.391364 
L 109.482194 251.417474 
L 109.593007 251.405663 
L 109.738466 251.379038 
L 109.881627 251.344001 
L 109.885341 251.259266 
L 109.993264 251.287611 
L 110.381174 251.341031 
L 110.382128 251.323469 
L 110.503244 251.330548 
L 110.507242 251.333176 
L 112.063021 251.422336 
L 112.187495 251.403783 
L 112.996748 251.443491 
L 113.006701 251.432231 
L 113.08665 251.466597 
L 113.103803 251.462402 
L 113.313088 251.468031 
L 113.320638 251.446186 
L 113.349687 251.438358 
L 113.339521 251.453878 
L 113.430402 251.451712 
L 114.001629 251.503561 
L 114.14926 251.520921 
L 115.337716 251.570255 
L 115.345369 251.540706 
L 115.448752 251.568731 
L 117.053169 251.699329 
L 117.064849 251.683043 
L 117.16196 251.691699 
L 117.349336 251.680797 
L 117.349355 251.678091 
L 117.435577 251.684754 
L 117.459371 251.681045 
L 119.231319 251.749035 
L 119.651767 251.725647 
L 119.848335 251.748955 
L 120.735939 251.788218 
L 120.937986 251.804436 
L 121.059207 251.763537 
L 121.06074 251.765196 
L 121.256927 251.767043 
L 121.638038 251.806371 
L 121.769627 251.810486 
L 121.770104 251.811586 
L 122.012608 251.855105 
L 122.124465 251.828615 
L 122.127906 251.830315 
L 122.469783 251.838494 
L 122.570215 251.818734 
L 122.58625 251.823751 
L 123.603321 251.824641 
L 124.264778 251.751002 
L 124.385916 251.753136 
L 125.886243 251.91613 
L 125.886573 251.910243 
L 126.049882 251.913318 
L 126.380632 251.903922 
L 127.202396 251.988871 
L 127.636448 252.022576 
L 127.784649 252.01654 
L 127.78612 252.018735 
L 131.46076 252.07758 
L 132.144804 252.156831 
L 136.581096 252.101873 
L 136.596572 251.939763 
L 136.689316 251.951905 
L 137.183347 251.963982 
L 140.206288 252.012056 
L 140.319988 252.002971 
L 140.718326 251.984904 
L 140.830312 251.990575 
L 140.832761 251.991873 
L 141.263478 251.998545 
L 141.70922 252.002882 
L 146.145322 251.952932 
L 148.401383 252.051578 
L 148.522391 251.750887 
L 148.539319 251.75259 
L 150.176992 251.801857 
L 150.792256 251.832672 
L 151.635112 251.805657 
L 157.508651 251.880985 
L 157.844088 251.888235 
L 158.88124 251.923451 
L 159.335573 251.912649 
L 160.200324 251.887964 
L 160.311336 251.867221 
L 163.95627 252.058314 
L 164.13075 252.056817 
L 198.23603 252.227894 
L 198.356724 252.231787 
L 199.329385 252.246717 
L 200.064872 252.262163 
L 200.620796 252.213677 
L 200.734459 252.213596 
L 202.245995 252.217659 
L 202.417556 252.217553 
L 202.61786 252.207859 
L 205.496486 252.21541 
L 205.656403 252.223215 
L 206.206497 252.239742 
L 206.340984 252.236528 
L 210.573299 252.252273 
L 211.033679 252.223607 
L 211.153478 252.150516 
L 211.154571 252.151025 
L 233.377421 252.339547 
L 234.193213 252.329027 
L 234.562625 252.332852 
L 235.355483 252.342547 
L 246.93674 252.328091 
L 247.190084 252.324784 
L 248.148465 252.330859 
L 248.265975 252.33174 
L 248.533938 252.332469 
L 250.734511 252.347266 
L 251.36195 252.335346 
L 252.524497 252.321325 
L 258.114107 252.336746 
L 271.708767 252.380236 
L 271.83032 252.37634 
L 272.733576 252.362003 
L 272.822096 252.336385 
L 272.8433 252.337328 
L 274.650397 252.346215 
L 275.692716 252.370441 
L 277.481086 252.370989 
L 280.370822 252.365528 
L 280.961622 252.372409 
L 281.071099 252.37421 
L 281.661058 252.366867 
L 286.750737 252.359085 
L 288.152556 252.380239 
L 289.718817 252.406284 
L 292.306971 252.432524 
L 292.461507 252.431016 
L 298.667128 252.394611 
L 298.78411 252.393936 
L 299.649079 252.401056 
L 299.922159 252.408965 
L 305.883156 252.394098 
L 306.117655 252.396806 
L 311.280485 252.377891 
L 311.786602 252.318718 
L 312.585836 252.325432 
L 313.16379 252.326556 
L 314.860054 252.325161 
L 316.08397 252.304135 
L 318.314267 252.289509 
L 318.355069 252.282724 
L 318.422761 252.286323 
L 325.325588 252.230346 
L 325.433373 252.226281 
L 325.436089 252.226495 
L 326.511828 252.224257 
L 326.801176 252.215176 
L 327.866143 252.206623 
L 332.981884 252.212544 
L 341.8262 252.268943 
L 342.419344 252.247455 
L 343.039323 252.247568 
L 343.308695 252.245911 
L 350.105898 252.27909 
L 350.224746 252.275131 
L 352.544746 252.280229 
L 354.175447 252.17854 
L 355.636643 252.175518 
L 367.64944 252.191303 
L 367.759365 252.18816 
L 371.877009 252.163429 
L 372.33366 252.164151 
L 373.816478 252.181173 
L 377.175473 252.225208 
L 398.483599 252.213854 
L 398.483599 252.213854 
" clip-path="url(#pde223dc8ec)" style="fill: none; stroke: #d62728; stroke-width: 1.5; stroke-linecap: square"/>
   </g>
   <g id="line2d_39">
    <path d="M 73.832727 295.488 
L 73.875019 256.922699 
L 73.947864 261.863596 
L 74.057122 253.286556 
L 73.993299 263.572843 
L 74.150159 254.830478 
L 74.264757 256.710136 
L 74.271789 256.648656 
L 74.31424 257.40396 
L 74.319338 257.404264 
L 74.333571 257.854021 
L 74.381193 255.11048 
L 74.50283 252.39193 
L 74.593675 253.198458 
L 74.637905 253.929375 
L 74.658938 252.225586 
L 74.684975 252.733444 
L 74.68512 251.624742 
L 74.792503 252.436898 
L 74.93039 251.678569 
L 74.840187 252.542843 
L 74.941631 251.823733 
L 74.959223 252.025316 
L 74.986101 250.543274 
L 75.012544 250.732489 
L 75.03237 250.822739 
L 75.111651 251.412013 
L 75.147175 251.085907 
L 75.371502 252.124071 
L 75.372879 251.965967 
L 75.378659 251.934477 
L 75.458505 252.263158 
L 75.462864 252.324436 
L 75.518937 251.601361 
L 75.519564 251.613763 
L 75.579197 250.900922 
L 75.638682 251.069891 
L 75.721229 251.271757 
L 75.736205 251.0302 
L 75.748813 251.071203 
L 75.749997 251.063442 
L 75.813459 251.356247 
L 75.916875 251.628115 
L 75.961548 251.590701 
L 75.964029 251.528059 
L 76.048237 251.897482 
L 76.062561 251.832405 
L 76.072395 251.782923 
L 76.103706 251.950376 
L 76.21611 252.411194 
L 76.240862 252.25487 
L 76.275956 252.336471 
L 76.443218 252.959461 
L 76.456353 252.796247 
L 76.498661 252.416283 
L 76.567328 252.59645 
L 76.643486 252.71389 
L 76.65598 252.574649 
L 76.750249 252.124782 
L 76.766418 252.200285 
L 76.799421 252.297898 
L 76.832127 252.167123 
L 76.928607 251.426025 
L 76.94146 251.497114 
L 76.997892 251.625135 
L 77.029505 251.613799 
L 77.132631 251.88161 
L 77.269487 252.240564 
L 77.290887 252.03278 
L 77.397981 250.365973 
L 77.409361 250.419529 
L 77.546499 250.857752 
L 77.584404 250.704354 
L 77.675337 250.801409 
L 77.686588 250.783054 
L 77.811755 250.948222 
L 77.880642 250.761345 
L 77.860496 251.01353 
L 77.922635 250.841284 
L 78.066551 251.088282 
L 78.179714 251.312731 
L 78.192695 250.784049 
L 78.29067 250.903089 
L 78.438994 251.107794 
L 78.302 250.827153 
L 78.446248 251.084847 
L 78.521154 250.855956 
L 78.555989 250.992223 
L 78.615876 251.100348 
L 78.658041 251.150051 
L 78.664567 251.000495 
L 78.714889 251.057707 
L 78.728815 250.832652 
L 78.827105 250.953263 
L 78.911473 250.91459 
L 78.894989 251.065378 
L 78.933884 250.984586 
L 79.038877 251.135645 
L 78.94071 250.951731 
L 79.053971 251.121501 
L 79.064786 251.093126 
L 79.161376 251.276888 
L 79.279996 251.48048 
L 79.281862 251.461855 
L 79.448206 251.625281 
L 79.463451 251.579642 
L 79.522038 251.490249 
L 79.522456 251.476233 
L 79.540387 251.434841 
L 79.618885 251.651685 
L 79.62418 251.66846 
L 79.67675 251.522953 
L 79.697825 251.531759 
L 79.900311 251.679895 
L 79.992503 251.831528 
L 80.003799 251.626388 
L 80.006363 251.628179 
L 80.118646 251.756775 
L 80.133149 251.665928 
L 80.189697 251.273544 
L 80.245576 251.381502 
L 80.359233 251.434473 
L 80.290108 251.32558 
L 80.360404 251.394937 
L 80.428675 251.367973 
L 80.388932 251.453562 
L 80.461921 251.431558 
L 80.582286 251.514394 
L 80.585851 251.468623 
L 80.593052 251.347577 
L 80.694191 251.477516 
L 80.796761 251.519868 
L 80.770099 251.460196 
L 80.807524 251.498532 
L 80.825322 251.51722 
L 80.835726 251.388194 
L 80.838956 251.396315 
L 80.953423 251.201756 
L 80.981773 251.141644 
L 81.261349 251.564597 
L 81.279705 251.519992 
L 81.364951 251.692588 
L 81.473513 251.559935 
L 81.548763 251.411383 
L 81.503665 251.599666 
L 81.585047 251.474515 
L 81.590102 251.433206 
L 81.836469 251.408651 
L 81.87584 251.335062 
L 81.870031 251.412344 
L 81.944141 251.373919 
L 82.265862 251.476091 
L 82.277911 251.499777 
L 82.321268 251.368963 
L 82.363407 251.37253 
L 82.44581 251.312198 
L 82.416621 251.410349 
L 82.48076 251.345131 
L 82.678581 251.484776 
L 82.679418 251.345439 
L 82.786796 251.408785 
L 82.792731 251.352031 
L 83.024553 251.342477 
L 83.037217 251.274906 
L 83.122112 251.376979 
L 83.132299 251.37581 
L 83.215762 251.436198 
L 83.218182 251.444338 
L 83.357508 251.492179 
L 83.358607 251.490239 
L 83.385106 251.5085 
L 83.421083 251.570333 
L 83.543193 251.67458 
L 83.547518 251.673662 
L 83.552627 251.660854 
L 83.601889 251.739954 
L 83.622668 251.753317 
L 83.747689 251.834537 
L 83.66594 251.721138 
L 83.768234 251.817546 
L 83.824668 251.826281 
L 83.846243 251.7501 
L 83.868795 251.771774 
L 84.506833 252.026213 
L 84.651237 252.106841 
L 84.655966 252.059461 
L 84.769918 251.973906 
L 84.714531 252.086631 
L 84.776915 251.98463 
L 84.996071 252.10447 
L 85.002953 252.067538 
L 85.014972 252.003127 
L 85.11138 252.106245 
L 85.244118 252.16988 
L 85.366183 252.28201 
L 85.36937 252.279911 
L 85.533577 252.371146 
L 85.561048 252.317836 
L 85.578147 252.339867 
L 85.668343 252.36528 
L 85.67716 252.343688 
L 85.828366 252.417476 
L 85.862458 252.353957 
L 85.845592 252.42973 
L 85.943865 252.41454 
L 86.060122 252.489737 
L 86.855544 252.705052 
L 86.963083 252.592907 
L 86.980655 252.608598 
L 87.138426 252.625685 
L 87.293756 252.585017 
L 87.312852 252.609076 
L 88.112765 252.805163 
L 88.196044 252.471543 
L 88.221632 252.49026 
L 88.420719 252.612716 
L 88.433269 252.485792 
L 89.197397 252.302264 
L 89.297984 252.153926 
L 89.308201 252.156229 
L 89.427411 252.207724 
L 90.314309 252.335453 
L 90.400766 252.370984 
L 90.423331 252.334205 
L 90.646611 252.310327 
L 90.652912 252.275526 
L 90.687791 252.217369 
L 90.763296 252.237008 
L 91.460278 252.270927 
L 91.460343 252.244864 
L 91.471283 252.216963 
L 91.565905 252.275467 
L 91.702483 252.330996 
L 92.030171 252.23432 
L 92.030449 252.238454 
L 92.178586 252.274907 
L 92.870758 252.260984 
L 93.169632 252.332393 
L 93.169709 252.319739 
L 93.571457 252.243108 
L 93.577485 252.226583 
L 93.675179 252.273541 
L 93.678704 252.265307 
L 93.905894 252.316632 
L 93.913726 252.299115 
L 94.272235 252.214884 
L 94.318582 252.168078 
L 94.381008 252.181091 
L 94.695505 252.306639 
L 94.727112 252.3178 
L 94.799785 252.221529 
L 94.804258 252.225235 
L 95.152028 252.19645 
L 95.2921 252.256751 
L 95.299345 252.248748 
L 95.474316 252.143423 
L 95.318971 252.262434 
L 95.479577 252.14856 
L 96.994671 252.319231 
L 97.006245 252.195099 
L 97.107205 252.222262 
L 97.396318 252.260235 
L 97.817501 252.294154 
L 97.954887 252.335944 
L 97.983312 252.299408 
L 97.997883 252.261297 
L 98.094522 252.295028 
L 98.260191 252.349446 
L 101.225589 252.481449 
L 101.511613 252.479773 
L 101.531456 252.386405 
L 101.623227 252.395118 
L 102.833664 252.514674 
L 102.886288 252.516403 
L 102.903547 252.435909 
L 102.983457 252.393135 
L 103.014323 252.405809 
L 103.322103 252.369156 
L 103.41784 252.284301 
L 103.43301 252.290205 
L 104.47903 252.364892 
L 104.626799 252.387046 
L 104.879735 252.436006 
L 105.159548 252.474254 
L 105.160339 252.463349 
L 105.267261 252.497103 
L 105.268025 252.498943 
L 105.699559 252.551988 
L 105.934912 252.60927 
L 106.618113 252.776918 
L 106.684184 252.735938 
L 106.729646 252.739937 
L 108.566733 252.742149 
L 108.65386 252.731174 
L 108.677274 252.739519 
L 108.980309 252.791233 
L 109.457698 252.89356 
L 109.924905 252.936325 
L 109.936052 252.81057 
L 110.035355 252.8379 
L 110.252092 252.886498 
L 111.274062 252.945769 
L 111.449205 252.936357 
L 111.72897 252.93967 
L 111.767372 252.937345 
L 111.836204 252.963065 
L 112.697266 253.049202 
L 112.821387 253.07705 
L 113.043117 253.110567 
L 113.608513 253.16618 
L 113.677756 253.093193 
L 113.721249 253.109207 
L 114.299376 253.105513 
L 114.299528 253.106712 
L 115.175891 253.130414 
L 115.191889 253.105735 
L 115.286239 253.125532 
L 115.418034 253.137529 
L 115.59218 253.162207 
L 115.594643 253.158188 
L 116.059041 253.231948 
L 116.141528 253.216238 
L 116.166558 253.225307 
L 118.24573 253.243796 
L 118.336633 253.215869 
L 118.35955 253.224013 
L 119.587232 253.32997 
L 119.696215 253.317978 
L 119.700833 253.320332 
L 120.040391 253.293243 
L 120.512844 253.310329 
L 120.607581 253.289096 
L 120.628168 253.295545 
L 120.894518 253.202266 
L 120.983281 253.193835 
L 121.004347 253.200458 
L 121.306411 253.23013 
L 128.418962 253.184037 
L 128.508795 253.140128 
L 128.529883 253.146009 
L 128.982656 253.160944 
L 129.008727 252.921761 
L 129.093519 252.932938 
L 129.545314 252.936772 
L 131.437248 253.030305 
L 131.618296 252.912549 
L 131.619614 252.914182 
L 131.994426 252.842036 
L 132.006972 252.405898 
L 132.103617 252.408187 
L 133.149866 252.49843 
L 133.244272 252.386483 
L 133.262229 252.168825 
L 133.357641 252.184968 
L 133.644634 252.190844 
L 133.883911 252.22233 
L 134.554368 252.154586 
L 134.631685 252.123978 
L 134.667981 252.132957 
L 135.199553 252.091774 
L 135.330519 252.084658 
L 135.673628 252.047282 
L 135.812696 252.033188 
L 135.993526 252.031197 
L 140.37114 252.127448 
L 140.418148 252.11902 
L 140.482873 252.131702 
L 140.590748 252.135216 
L 140.498055 252.117895 
L 140.595351 252.128621 
L 140.737137 252.13093 
L 140.851551 252.15105 
L 141.184226 252.162035 
L 141.388125 252.146555 
L 141.842935 252.149098 
L 141.843094 252.148304 
L 143.011512 252.214844 
L 143.182956 252.203232 
L 145.402431 252.28374 
L 145.499791 252.113175 
L 145.514688 252.115802 
L 145.806707 252.115598 
L 145.926103 252.120069 
L 146.082957 252.132782 
L 150.39762 252.169782 
L 150.535879 252.153386 
L 168.010959 252.49533 
L 168.123396 252.507233 
L 168.440764 252.524198 
L 171.316476 252.47497 
L 171.435204 252.473434 
L 171.954878 252.479513 
L 173.061605 252.511017 
L 173.423542 252.499444 
L 173.550527 252.40527 
L 173.637876 252.375526 
L 173.658514 252.378765 
L 176.010438 252.441631 
L 176.199459 252.435554 
L 183.138824 252.412553 
L 183.892982 252.435857 
L 183.893145 252.432707 
L 184.001826 252.445506 
L 184.881563 252.465193 
L 187.05256 252.451338 
L 187.762931 252.44632 
L 187.847779 252.435849 
L 187.872021 252.437799 
L 188.205549 252.448841 
L 189.154068 252.487217 
L 190.457543 252.498401 
L 193.038693 252.538817 
L 193.13546 252.502815 
L 193.152629 252.505003 
L 194.686517 252.51802 
L 194.806415 252.515734 
L 195.32719 252.521576 
L 198.39018 252.60559 
L 199.911975 252.632785 
L 200.172089 252.640943 
L 211.934386 252.676215 
L 211.998828 252.645815 
L 212.044668 252.650162 
L 212.778006 252.686494 
L 212.929731 252.689331 
L 213.417509 252.678461 
L 214.001241 252.704262 
L 214.168685 252.706958 
L 217.292546 252.724228 
L 217.909329 252.73763 
L 218.034627 252.719175 
L 232.837293 252.678555 
L 232.968579 252.679473 
L 234.292476 252.687573 
L 235.374353 252.695383 
L 238.844934 252.722563 
L 238.965323 252.708837 
L 241.122272 252.6901 
L 241.235512 252.691249 
L 247.70202 252.593808 
L 248.125211 252.59787 
L 254.816911 252.541301 
L 254.926891 252.494118 
L 256.133505 252.494689 
L 256.346332 252.499914 
L 259.406091 252.484603 
L 259.512662 252.474125 
L 259.514184 252.474618 
L 274.140525 252.57744 
L 275.148365 252.584592 
L 278.80879 252.601916 
L 278.948739 252.596689 
L 339.437285 252.585176 
L 339.537275 252.446068 
L 339.547331 252.446997 
L 398.487273 252.410339 
L 398.487273 252.410339 
" clip-path="url(#pde223dc8ec)" style="fill: none; stroke: #9467bd; stroke-width: 1.5; stroke-linecap: square"/>
   </g>
   <g id="patch_3">
    <path d="M 57.6 307.584 
L 57.6 41.472 
" style="fill: none; stroke: #000000; stroke-width: 0.8; stroke-linejoin: miter; stroke-linecap: square"/>
   </g>
   <g id="patch_4">
    <path d="M 414.72 307.584 
L 414.72 41.472 
" style="fill: none; stroke: #000000; stroke-width: 0.8; stroke-linejoin: miter; stroke-linecap: square"/>
   </g>
   <g id="patch_5">
    <path d="M 57.6 307.584 
L 414.72 307.584 
" style="fill: none; stroke: #000000; stroke-width: 0.8; stroke-linejoin: miter; stroke-linecap: square"/>
   </g>
   <g id="patch_6">
    <path d="M 57.6 41.472 
L 414.72 41.472 
" style="fill: none; stroke: #000000; stroke-width: 0.8; stroke-linejoin: miter; stroke-linecap: square"/>
   </g>
   <g id="text_20">
    <!-- timeInSystemStdDev vs. TimePoint for Each Run -->
    <g transform="translate(90.809063 35.472) scale(0.12 -0.12)">
     <defs>
      <path id="DejaVuSans-20" transform="scale(0.015625)"/>
      <path id="DejaVuSans-66" d="M 2375 4863 
L 2375 4384 
L 1825 4384 
Q 1516 4384 1395 4259 
Q 1275 4134 1275 3809 
L 1275 3500 
L 2222 3500 
L 2222 3053 
L 1275 3053 
L 1275 0 
L 697 0 
L 697 3053 
L 147 3053 
L 147 3500 
L 697 3500 
L 697 3744 
Q 697 4328 969 4595 
Q 1241 4863 1831 4863 
L 2375 4863 
z
" transform="scale(0.015625)"/>
      <path id="DejaVuSans-72" d="M 2631 2963 
Q 2534 3019 2420 3045 
Q 2306 3072 2169 3072 
Q 1681 3072 1420 2755 
Q 1159 2438 1159 1844 
L 1159 0 
L 581 0 
L 581 3500 
L 1159 3500 
L 1159 2956 
Q 1341 3275 1631 3429 
Q 1922 3584 2338 3584 
Q 2397 3584 2469 3576 
Q 2541 3569 2628 3553 
L 2631 2963 
z
" transform="scale(0.015625)"/>
      <path id="DejaVuSans-45" d="M 628 4666 
L 3578 4666 
L 3578 4134 
L 1259 4134 
L 1259 2753 
L 3481 2753 
L 3481 2222 
L 1259 2222 
L 1259 531 
L 3634 531 
L 3634 0 
L 628 0 
L 628 4666 
z
" transform="scale(0.015625)"/>
      <path id="DejaVuSans-61" d="M 2194 1759 
Q 1497 1759 1228 1600 
Q 959 1441 959 1056 
Q 959 750 1161 570 
Q 1363 391 1709 391 
Q 2188 391 2477 730 
Q 2766 1069 2766 1631 
L 2766 1759 
L 2194 1759 
z
M 3341 1997 
L 3341 0 
L 2766 0 
L 2766 531 
Q 2569 213 2275 61 
Q 1981 -91 1556 -91 
Q 1019 -91 701 211 
Q 384 513 384 1019 
Q 384 1609 779 1909 
Q 1175 2209 1959 2209 
L 2766 2209 
L 2766 2266 
Q 2766 2663 2505 2880 
Q 2244 3097 1772 3097 
Q 1472 3097 1187 3025 
Q 903 2953 641 2809 
L 641 3341 
Q 956 3463 1253 3523 
Q 1550 3584 1831 3584 
Q 2591 3584 2966 3190 
Q 3341 2797 3341 1997 
z
" transform="scale(0.015625)"/>
      <path id="DejaVuSans-63" d="M 3122 3366 
L 3122 2828 
Q 2878 2963 2633 3030 
Q 2388 3097 2138 3097 
Q 1578 3097 1268 2742 
Q 959 2388 959 1747 
Q 959 1106 1268 751 
Q 1578 397 2138 397 
Q 2388 397 2633 464 
Q 2878 531 3122 666 
L 3122 134 
Q 2881 22 2623 -34 
Q 2366 -91 2075 -91 
Q 1284 -91 818 406 
Q 353 903 353 1747 
Q 353 2603 823 3093 
Q 1294 3584 2113 3584 
Q 2378 3584 2631 3529 
Q 2884 3475 3122 3366 
z
" transform="scale(0.015625)"/>
      <path id="DejaVuSans-68" d="M 3513 2113 
L 3513 0 
L 2938 0 
L 2938 2094 
Q 2938 2591 2744 2837 
Q 2550 3084 2163 3084 
Q 1697 3084 1428 2787 
Q 1159 2491 1159 1978 
L 1159 0 
L 581 0 
L 581 4863 
L 1159 4863 
L 1159 2956 
Q 1366 3272 1645 3428 
Q 1925 3584 2291 3584 
Q 2894 3584 3203 3211 
Q 3513 2838 3513 2113 
z
" transform="scale(0.015625)"/>
      <path id="DejaVuSans-52" d="M 2841 2188 
Q 3044 2119 3236 1894 
Q 3428 1669 3622 1275 
L 4263 0 
L 3584 0 
L 2988 1197 
Q 2756 1666 2539 1819 
Q 2322 1972 1947 1972 
L 1259 1972 
L 1259 0 
L 628 0 
L 628 4666 
L 2053 4666 
Q 2853 4666 3247 4331 
Q 3641 3997 3641 3322 
Q 3641 2881 3436 2590 
Q 3231 2300 2841 2188 
z
M 1259 4147 
L 1259 2491 
L 2053 2491 
Q 2509 2491 2742 2702 
Q 2975 2913 2975 3322 
Q 2975 3731 2742 3939 
Q 2509 4147 2053 4147 
L 1259 4147 
z
" transform="scale(0.015625)"/>
      <path id="DejaVuSans-75" d="M 544 1381 
L 544 3500 
L 1119 3500 
L 1119 1403 
Q 1119 906 1312 657 
Q 1506 409 1894 409 
Q 2359 409 2629 706 
Q 2900 1003 2900 1516 
L 2900 3500 
L 3475 3500 
L 3475 0 
L 2900 0 
L 2900 538 
Q 2691 219 2414 64 
Q 2138 -91 1772 -91 
Q 1169 -91 856 284 
Q 544 659 544 1381 
z
M 1991 3584 
L 1991 3584 
z
" transform="scale(0.015625)"/>
     </defs>
     <use xlink:href="#DejaVuSans-74"/>
     <use xlink:href="#DejaVuSans-69" x="39.208984"/>
     <use xlink:href="#DejaVuSans-6d" x="66.992188"/>
     <use xlink:href="#DejaVuSans-65" x="164.404297"/>
     <use xlink:href="#DejaVuSans-49" x="225.927734"/>
     <use xlink:href="#DejaVuSans-6e" x="255.419922"/>
     <use xlink:href="#DejaVuSans-53" x="318.798828"/>
     <use xlink:href="#DejaVuSans-79" x="382.275391"/>
     <use xlink:href="#DejaVuSans-73" x="441.455078"/>
     <use xlink:href="#DejaVuSans-74" x="493.554688"/>
     <use xlink:href="#DejaVuSans-65" x="532.763672"/>
     <use xlink:href="#DejaVuSans-6d" x="594.287109"/>
     <use xlink:href="#DejaVuSans-53" x="691.699219"/>
     <use xlink:href="#DejaVuSans-74" x="755.175781"/>
     <use xlink:href="#DejaVuSans-64" x="794.384766"/>
     <use xlink:href="#DejaVuSans-44" x="857.861328"/>
     <use xlink:href="#DejaVuSans-65" x="934.863281"/>
     <use xlink:href="#DejaVuSans-76" x="996.386719"/>
     <use xlink:href="#DejaVuSans-20" x="1055.566406"/>
     <use xlink:href="#DejaVuSans-76" x="1087.353516"/>
     <use xlink:href="#DejaVuSans-73" x="1146.533203"/>
     <use xlink:href="#DejaVuSans-2e" x="1198.632812"/>
     <use xlink:href="#DejaVuSans-20" x="1230.419922"/>
     <use xlink:href="#DejaVuSans-54" x="1262.207031"/>
     <use xlink:href="#DejaVuSans-69" x="1320.166016"/>
     <use xlink:href="#DejaVuSans-6d" x="1347.949219"/>
     <use xlink:href="#DejaVuSans-65" x="1445.361328"/>
     <use xlink:href="#DejaVuSans-50" x="1506.884766"/>
     <use xlink:href="#DejaVuSans-6f" x="1563.5625"/>
     <use xlink:href="#DejaVuSans-69" x="1624.744141"/>
     <use xlink:href="#DejaVuSans-6e" x="1652.527344"/>
     <use xlink:href="#DejaVuSans-74" x="1715.90625"/>
     <use xlink:href="#DejaVuSans-20" x="1755.115234"/>
     <use xlink:href="#DejaVuSans-66" x="1786.902344"/>
     <use xlink:href="#DejaVuSans-6f" x="1822.107422"/>
     <use xlink:href="#DejaVuSans-72" x="1883.289062"/>
     <use xlink:href="#DejaVuSans-20" x="1924.402344"/>
     <use xlink:href="#DejaVuSans-45" x="1956.189453"/>
     <use xlink:href="#DejaVuSans-61" x="2019.373047"/>
     <use xlink:href="#DejaVuSans-63" x="2080.652344"/>
     <use xlink:href="#DejaVuSans-68" x="2135.632812"/>
     <use xlink:href="#DejaVuSans-20" x="2199.011719"/>
     <use xlink:href="#DejaVuSans-52" x="2230.798828"/>
     <use xlink:href="#DejaVuSans-75" x="2295.78125"/>
     <use xlink:href="#DejaVuSans-6e" x="2359.160156"/>
    </g>
   </g>
   <g id="legend_1">
    <g id="patch_7">
     <path d="M 341.196563 137.54075 
L 407.72 137.54075 
Q 409.72 137.54075 409.72 135.54075 
L 409.72 48.472 
Q 409.72 46.472 407.72 46.472 
L 341.196563 46.472 
Q 339.196563 46.472 339.196563 48.472 
L 339.196563 135.54075 
Q 339.196563 137.54075 341.196563 137.54075 
z
" style="fill: #ffffff; opacity: 0.8; stroke: #cccccc; stroke-linejoin: miter"/>
    </g>
    <g id="text_21">
     <!-- Run Number -->
     <g transform="translate(343.196563 58.070438) scale(0.1 -0.1)">
      <defs>
       <path id="DejaVuSans-4e" d="M 628 4666 
L 1478 4666 
L 3547 763 
L 3547 4666 
L 4159 4666 
L 4159 0 
L 3309 0 
L 1241 3903 
L 1241 0 
L 628 0 
L 628 4666 
z
" transform="scale(0.015625)"/>
       <path id="DejaVuSans-62" d="M 3116 1747 
Q 3116 2381 2855 2742 
Q 2594 3103 2138 3103 
Q 1681 3103 1420 2742 
Q 1159 2381 1159 1747 
Q 1159 1113 1420 752 
Q 1681 391 2138 391 
Q 2594 391 2855 752 
Q 3116 1113 3116 1747 
z
M 1159 2969 
Q 1341 3281 1617 3432 
Q 1894 3584 2278 3584 
Q 2916 3584 3314 3078 
Q 3713 2572 3713 1747 
Q 3713 922 3314 415 
Q 2916 -91 2278 -91 
Q 1894 -91 1617 61 
Q 1341 213 1159 525 
L 1159 0 
L 581 0 
L 581 4863 
L 1159 4863 
L 1159 2969 
z
" transform="scale(0.015625)"/>
      </defs>
      <use xlink:href="#DejaVuSans-52"/>
      <use xlink:href="#DejaVuSans-75" x="64.982422"/>
      <use xlink:href="#DejaVuSans-6e" x="128.361328"/>
      <use xlink:href="#DejaVuSans-20" x="191.740234"/>
      <use xlink:href="#DejaVuSans-4e" x="223.527344"/>
      <use xlink:href="#DejaVuSans-75" x="298.332031"/>
      <use xlink:href="#DejaVuSans-6d" x="361.710938"/>
      <use xlink:href="#DejaVuSans-62" x="459.123047"/>
      <use xlink:href="#DejaVuSans-65" x="522.599609"/>
      <use xlink:href="#DejaVuSans-72" x="584.123047"/>
     </g>
    </g>
    <g id="line2d_40">
     <path d="M 346.10125 69.248563 
L 356.10125 69.248563 
L 366.10125 69.248563 
" style="fill: none; stroke: #1f77b4; stroke-width: 1.5; stroke-linecap: square"/>
    </g>
    <g id="text_22">
     <!-- Run 0 -->
     <g transform="translate(374.10125 72.748563) scale(0.1 -0.1)">
      <use xlink:href="#DejaVuSans-52"/>
      <use xlink:href="#DejaVuSans-75" x="64.982422"/>
      <use xlink:href="#DejaVuSans-6e" x="128.361328"/>
      <use xlink:href="#DejaVuSans-20" x="191.740234"/>
      <use xlink:href="#DejaVuSans-30" x="223.527344"/>
     </g>
    </g>
    <g id="line2d_41">
     <path d="M 346.10125 83.926688 
L 356.10125 83.926688 
L 366.10125 83.926688 
" style="fill: none; stroke: #ff7f0e; stroke-width: 1.5; stroke-linecap: square"/>
    </g>
    <g id="text_23">
     <!-- Run 1 -->
     <g transform="translate(374.10125 87.426688) scale(0.1 -0.1)">
      <use xlink:href="#DejaVuSans-52"/>
      <use xlink:href="#DejaVuSans-75" x="64.982422"/>
      <use xlink:href="#DejaVuSans-6e" x="128.361328"/>
      <use xlink:href="#DejaVuSans-20" x="191.740234"/>
      <use xlink:href="#DejaVuSans-31" x="223.527344"/>
     </g>
    </g>
    <g id="line2d_42">
     <path d="M 346.10125 98.604813 
L 356.10125 98.604813 
L 366.10125 98.604813 
" style="fill: none; stroke: #2ca02c; stroke-width: 1.5; stroke-linecap: square"/>
    </g>
    <g id="text_24">
     <!-- Run 2 -->
     <g transform="translate(374.10125 102.104813) scale(0.1 -0.1)">
      <use xlink:href="#DejaVuSans-52"/>
      <use xlink:href="#DejaVuSans-75" x="64.982422"/>
      <use xlink:href="#DejaVuSans-6e" x="128.361328"/>
      <use xlink:href="#DejaVuSans-20" x="191.740234"/>
      <use xlink:href="#DejaVuSans-32" x="223.527344"/>
     </g>
    </g>
    <g id="line2d_43">
     <path d="M 346.10125 113.282938 
L 356.10125 113.282938 
L 366.10125 113.282938 
" style="fill: none; stroke: #d62728; stroke-width: 1.5; stroke-linecap: square"/>
    </g>
    <g id="text_25">
     <!-- Run 3 -->
     <g transform="translate(374.10125 116.782938) scale(0.1 -0.1)">
      <use xlink:href="#DejaVuSans-52"/>
      <use xlink:href="#DejaVuSans-75" x="64.982422"/>
      <use xlink:href="#DejaVuSans-6e" x="128.361328"/>
      <use xlink:href="#DejaVuSans-20" x="191.740234"/>
      <use xlink:href="#DejaVuSans-33" x="223.527344"/>
     </g>
    </g>
    <g id="line2d_44">
     <path d="M 346.10125 127.961063 
L 356.10125 127.961063 
L 366.10125 127.961063 
" style="fill: none; stroke: #9467bd; stroke-width: 1.5; stroke-linecap: square"/>
    </g>
    <g id="text_26">
     <!-- Run 4 -->
     <g transform="translate(374.10125 131.461063) scale(0.1 -0.1)">
      <use xlink:href="#DejaVuSans-52"/>
      <use xlink:href="#DejaVuSans-75" x="64.982422"/>
      <use xlink:href="#DejaVuSans-6e" x="128.361328"/>
      <use xlink:href="#DejaVuSans-20" x="191.740234"/>
      <use xlink:href="#DejaVuSans-34" x="223.527344"/>
     </g>
    </g>
   </g>
  </g>
 </g>
 <defs>
  <clipPath id="pde223dc8ec">
   <rect x="57.6" y="41.472" width="357.12" height="266.112"/>
  </clipPath>
 </defs>
</svg>
