<?xml version="1.0" encoding="utf-8" standalone="no"?>
<!DOCTYPE svg PUBLIC "-//W3C//DTD SVG 1.1//EN"
  "http://www.w3.org/Graphics/SVG/1.1/DTD/svg11.dtd">
<svg xmlns:xlink="http://www.w3.org/1999/xlink" width="460.8pt" height="345.6pt" viewBox="0 0 460.8 345.6" xmlns="http://www.w3.org/2000/svg" version="1.1">
 <metadata>
  <rdf:RDF xmlns:dc="http://purl.org/dc/elements/1.1/" xmlns:cc="http://creativecommons.org/ns#" xmlns:rdf="http://www.w3.org/1999/02/22-rdf-syntax-ns#">
   <cc:Work>
    <dc:type rdf:resource="http://purl.org/dc/dcmitype/StillImage"/>
    <dc:date>2024-12-03T12:49:39.081685</dc:date>
    <dc:format>image/svg+xml</dc:format>
    <dc:creator>
     <cc:Agent>
      <dc:title>Matplotlib v3.9.2, https://matplotlib.org/</dc:title>
     </cc:Agent>
    </dc:creator>
   </cc:Work>
  </rdf:RDF>
 </metadata>
 <defs>
  <style type="text/css">*{stroke-linejoin: round; stroke-linecap: butt}</style>
 </defs>
 <g id="figure_1">
  <g id="patch_1">
   <path d="M 0 345.6 
L 460.8 345.6 
L 460.8 0 
L 0 0 
z
" style="fill: #ffffff"/>
  </g>
  <g id="axes_1">
   <g id="patch_2">
    <path d="M 57.6 307.584 
L 414.72 307.584 
L 414.72 41.472 
L 57.6 41.472 
z
" style="fill: #ffffff"/>
   </g>
   <g id="matplotlib.axis_1">
    <g id="xtick_1">
     <g id="line2d_1">
      <path d="M 73.825295 307.584 
L 73.825295 41.472 
" clip-path="url(#p7885adb1e9)" style="fill: none; stroke: #b0b0b0; stroke-width: 0.8; stroke-linecap: square"/>
     </g>
     <g id="line2d_2">
      <defs>
       <path id="m632f230c74" d="M 0 0 
L 0 3.5 
" style="stroke: #000000; stroke-width: 0.8"/>
      </defs>
      <g>
       <use xlink:href="#m632f230c74" x="73.825295" y="307.584" style="stroke: #000000; stroke-width: 0.8"/>
      </g>
     </g>
     <g id="text_1">
      <!-- 0 -->
      <g transform="translate(70.644045 322.182437) scale(0.1 -0.1)">
       <defs>
        <path id="DejaVuSans-30" d="M 2034 4250 
Q 1547 4250 1301 3770 
Q 1056 3291 1056 2328 
Q 1056 1369 1301 889 
Q 1547 409 2034 409 
Q 2525 409 2770 889 
Q 3016 1369 3016 2328 
Q 3016 3291 2770 3770 
Q 2525 4250 2034 4250 
z
M 2034 4750 
Q 2819 4750 3233 4129 
Q 3647 3509 3647 2328 
Q 3647 1150 3233 529 
Q 2819 -91 2034 -91 
Q 1250 -91 836 529 
Q 422 1150 422 2328 
Q 422 3509 836 4129 
Q 1250 4750 2034 4750 
z
" transform="scale(0.015625)"/>
       </defs>
       <use xlink:href="#DejaVuSans-30"/>
      </g>
     </g>
    </g>
    <g id="xtick_2">
     <g id="line2d_3">
      <path d="M 114.408445 307.584 
L 114.408445 41.472 
" clip-path="url(#p7885adb1e9)" style="fill: none; stroke: #b0b0b0; stroke-width: 0.8; stroke-linecap: square"/>
     </g>
     <g id="line2d_4">
      <g>
       <use xlink:href="#m632f230c74" x="114.408445" y="307.584" style="stroke: #000000; stroke-width: 0.8"/>
      </g>
     </g>
     <g id="text_2">
      <!-- 100000 -->
      <g transform="translate(95.320945 322.182437) scale(0.1 -0.1)">
       <defs>
        <path id="DejaVuSans-31" d="M 794 531 
L 1825 531 
L 1825 4091 
L 703 3866 
L 703 4441 
L 1819 4666 
L 2450 4666 
L 2450 531 
L 3481 531 
L 3481 0 
L 794 0 
L 794 531 
z
" transform="scale(0.015625)"/>
       </defs>
       <use xlink:href="#DejaVuSans-31"/>
       <use xlink:href="#DejaVuSans-30" x="63.623047"/>
       <use xlink:href="#DejaVuSans-30" x="127.246094"/>
       <use xlink:href="#DejaVuSans-30" x="190.869141"/>
       <use xlink:href="#DejaVuSans-30" x="254.492188"/>
       <use xlink:href="#DejaVuSans-30" x="318.115234"/>
      </g>
     </g>
    </g>
    <g id="xtick_3">
     <g id="line2d_5">
      <path d="M 154.991596 307.584 
L 154.991596 41.472 
" clip-path="url(#p7885adb1e9)" style="fill: none; stroke: #b0b0b0; stroke-width: 0.8; stroke-linecap: square"/>
     </g>
     <g id="line2d_6">
      <g>
       <use xlink:href="#m632f230c74" x="154.991596" y="307.584" style="stroke: #000000; stroke-width: 0.8"/>
      </g>
     </g>
     <g id="text_3">
      <!-- 200000 -->
      <g transform="translate(135.904096 322.182437) scale(0.1 -0.1)">
       <defs>
        <path id="DejaVuSans-32" d="M 1228 531 
L 3431 531 
L 3431 0 
L 469 0 
L 469 531 
Q 828 903 1448 1529 
Q 2069 2156 2228 2338 
Q 2531 2678 2651 2914 
Q 2772 3150 2772 3378 
Q 2772 3750 2511 3984 
Q 2250 4219 1831 4219 
Q 1534 4219 1204 4116 
Q 875 4013 500 3803 
L 500 4441 
Q 881 4594 1212 4672 
Q 1544 4750 1819 4750 
Q 2544 4750 2975 4387 
Q 3406 4025 3406 3419 
Q 3406 3131 3298 2873 
Q 3191 2616 2906 2266 
Q 2828 2175 2409 1742 
Q 1991 1309 1228 531 
z
" transform="scale(0.015625)"/>
       </defs>
       <use xlink:href="#DejaVuSans-32"/>
       <use xlink:href="#DejaVuSans-30" x="63.623047"/>
       <use xlink:href="#DejaVuSans-30" x="127.246094"/>
       <use xlink:href="#DejaVuSans-30" x="190.869141"/>
       <use xlink:href="#DejaVuSans-30" x="254.492188"/>
       <use xlink:href="#DejaVuSans-30" x="318.115234"/>
      </g>
     </g>
    </g>
    <g id="xtick_4">
     <g id="line2d_7">
      <path d="M 195.574746 307.584 
L 195.574746 41.472 
" clip-path="url(#p7885adb1e9)" style="fill: none; stroke: #b0b0b0; stroke-width: 0.8; stroke-linecap: square"/>
     </g>
     <g id="line2d_8">
      <g>
       <use xlink:href="#m632f230c74" x="195.574746" y="307.584" style="stroke: #000000; stroke-width: 0.8"/>
      </g>
     </g>
     <g id="text_4">
      <!-- 300000 -->
      <g transform="translate(176.487246 322.182437) scale(0.1 -0.1)">
       <defs>
        <path id="DejaVuSans-33" d="M 2597 2516 
Q 3050 2419 3304 2112 
Q 3559 1806 3559 1356 
Q 3559 666 3084 287 
Q 2609 -91 1734 -91 
Q 1441 -91 1130 -33 
Q 819 25 488 141 
L 488 750 
Q 750 597 1062 519 
Q 1375 441 1716 441 
Q 2309 441 2620 675 
Q 2931 909 2931 1356 
Q 2931 1769 2642 2001 
Q 2353 2234 1838 2234 
L 1294 2234 
L 1294 2753 
L 1863 2753 
Q 2328 2753 2575 2939 
Q 2822 3125 2822 3475 
Q 2822 3834 2567 4026 
Q 2313 4219 1838 4219 
Q 1578 4219 1281 4162 
Q 984 4106 628 3988 
L 628 4550 
Q 988 4650 1302 4700 
Q 1616 4750 1894 4750 
Q 2613 4750 3031 4423 
Q 3450 4097 3450 3541 
Q 3450 3153 3228 2886 
Q 3006 2619 2597 2516 
z
" transform="scale(0.015625)"/>
       </defs>
       <use xlink:href="#DejaVuSans-33"/>
       <use xlink:href="#DejaVuSans-30" x="63.623047"/>
       <use xlink:href="#DejaVuSans-30" x="127.246094"/>
       <use xlink:href="#DejaVuSans-30" x="190.869141"/>
       <use xlink:href="#DejaVuSans-30" x="254.492188"/>
       <use xlink:href="#DejaVuSans-30" x="318.115234"/>
      </g>
     </g>
    </g>
    <g id="xtick_5">
     <g id="line2d_9">
      <path d="M 236.157896 307.584 
L 236.157896 41.472 
" clip-path="url(#p7885adb1e9)" style="fill: none; stroke: #b0b0b0; stroke-width: 0.8; stroke-linecap: square"/>
     </g>
     <g id="line2d_10">
      <g>
       <use xlink:href="#m632f230c74" x="236.157896" y="307.584" style="stroke: #000000; stroke-width: 0.8"/>
      </g>
     </g>
     <g id="text_5">
      <!-- 400000 -->
      <g transform="translate(217.070396 322.182437) scale(0.1 -0.1)">
       <defs>
        <path id="DejaVuSans-34" d="M 2419 4116 
L 825 1625 
L 2419 1625 
L 2419 4116 
z
M 2253 4666 
L 3047 4666 
L 3047 1625 
L 3713 1625 
L 3713 1100 
L 3047 1100 
L 3047 0 
L 2419 0 
L 2419 1100 
L 313 1100 
L 313 1709 
L 2253 4666 
z
" transform="scale(0.015625)"/>
       </defs>
       <use xlink:href="#DejaVuSans-34"/>
       <use xlink:href="#DejaVuSans-30" x="63.623047"/>
       <use xlink:href="#DejaVuSans-30" x="127.246094"/>
       <use xlink:href="#DejaVuSans-30" x="190.869141"/>
       <use xlink:href="#DejaVuSans-30" x="254.492188"/>
       <use xlink:href="#DejaVuSans-30" x="318.115234"/>
      </g>
     </g>
    </g>
    <g id="xtick_6">
     <g id="line2d_11">
      <path d="M 276.741047 307.584 
L 276.741047 41.472 
" clip-path="url(#p7885adb1e9)" style="fill: none; stroke: #b0b0b0; stroke-width: 0.8; stroke-linecap: square"/>
     </g>
     <g id="line2d_12">
      <g>
       <use xlink:href="#m632f230c74" x="276.741047" y="307.584" style="stroke: #000000; stroke-width: 0.8"/>
      </g>
     </g>
     <g id="text_6">
      <!-- 500000 -->
      <g transform="translate(257.653547 322.182437) scale(0.1 -0.1)">
       <defs>
        <path id="DejaVuSans-35" d="M 691 4666 
L 3169 4666 
L 3169 4134 
L 1269 4134 
L 1269 2991 
Q 1406 3038 1543 3061 
Q 1681 3084 1819 3084 
Q 2600 3084 3056 2656 
Q 3513 2228 3513 1497 
Q 3513 744 3044 326 
Q 2575 -91 1722 -91 
Q 1428 -91 1123 -41 
Q 819 9 494 109 
L 494 744 
Q 775 591 1075 516 
Q 1375 441 1709 441 
Q 2250 441 2565 725 
Q 2881 1009 2881 1497 
Q 2881 1984 2565 2268 
Q 2250 2553 1709 2553 
Q 1456 2553 1204 2497 
Q 953 2441 691 2322 
L 691 4666 
z
" transform="scale(0.015625)"/>
       </defs>
       <use xlink:href="#DejaVuSans-35"/>
       <use xlink:href="#DejaVuSans-30" x="63.623047"/>
       <use xlink:href="#DejaVuSans-30" x="127.246094"/>
       <use xlink:href="#DejaVuSans-30" x="190.869141"/>
       <use xlink:href="#DejaVuSans-30" x="254.492188"/>
       <use xlink:href="#DejaVuSans-30" x="318.115234"/>
      </g>
     </g>
    </g>
    <g id="xtick_7">
     <g id="line2d_13">
      <path d="M 317.324197 307.584 
L 317.324197 41.472 
" clip-path="url(#p7885adb1e9)" style="fill: none; stroke: #b0b0b0; stroke-width: 0.8; stroke-linecap: square"/>
     </g>
     <g id="line2d_14">
      <g>
       <use xlink:href="#m632f230c74" x="317.324197" y="307.584" style="stroke: #000000; stroke-width: 0.8"/>
      </g>
     </g>
     <g id="text_7">
      <!-- 600000 -->
      <g transform="translate(298.236697 322.182437) scale(0.1 -0.1)">
       <defs>
        <path id="DejaVuSans-36" d="M 2113 2584 
Q 1688 2584 1439 2293 
Q 1191 2003 1191 1497 
Q 1191 994 1439 701 
Q 1688 409 2113 409 
Q 2538 409 2786 701 
Q 3034 994 3034 1497 
Q 3034 2003 2786 2293 
Q 2538 2584 2113 2584 
z
M 3366 4563 
L 3366 3988 
Q 3128 4100 2886 4159 
Q 2644 4219 2406 4219 
Q 1781 4219 1451 3797 
Q 1122 3375 1075 2522 
Q 1259 2794 1537 2939 
Q 1816 3084 2150 3084 
Q 2853 3084 3261 2657 
Q 3669 2231 3669 1497 
Q 3669 778 3244 343 
Q 2819 -91 2113 -91 
Q 1303 -91 875 529 
Q 447 1150 447 2328 
Q 447 3434 972 4092 
Q 1497 4750 2381 4750 
Q 2619 4750 2861 4703 
Q 3103 4656 3366 4563 
z
" transform="scale(0.015625)"/>
       </defs>
       <use xlink:href="#DejaVuSans-36"/>
       <use xlink:href="#DejaVuSans-30" x="63.623047"/>
       <use xlink:href="#DejaVuSans-30" x="127.246094"/>
       <use xlink:href="#DejaVuSans-30" x="190.869141"/>
       <use xlink:href="#DejaVuSans-30" x="254.492188"/>
       <use xlink:href="#DejaVuSans-30" x="318.115234"/>
      </g>
     </g>
    </g>
    <g id="xtick_8">
     <g id="line2d_15">
      <path d="M 357.907348 307.584 
L 357.907348 41.472 
" clip-path="url(#p7885adb1e9)" style="fill: none; stroke: #b0b0b0; stroke-width: 0.8; stroke-linecap: square"/>
     </g>
     <g id="line2d_16">
      <g>
       <use xlink:href="#m632f230c74" x="357.907348" y="307.584" style="stroke: #000000; stroke-width: 0.8"/>
      </g>
     </g>
     <g id="text_8">
      <!-- 700000 -->
      <g transform="translate(338.819848 322.182437) scale(0.1 -0.1)">
       <defs>
        <path id="DejaVuSans-37" d="M 525 4666 
L 3525 4666 
L 3525 4397 
L 1831 0 
L 1172 0 
L 2766 4134 
L 525 4134 
L 525 4666 
z
" transform="scale(0.015625)"/>
       </defs>
       <use xlink:href="#DejaVuSans-37"/>
       <use xlink:href="#DejaVuSans-30" x="63.623047"/>
       <use xlink:href="#DejaVuSans-30" x="127.246094"/>
       <use xlink:href="#DejaVuSans-30" x="190.869141"/>
       <use xlink:href="#DejaVuSans-30" x="254.492188"/>
       <use xlink:href="#DejaVuSans-30" x="318.115234"/>
      </g>
     </g>
    </g>
    <g id="xtick_9">
     <g id="line2d_17">
      <path d="M 398.490498 307.584 
L 398.490498 41.472 
" clip-path="url(#p7885adb1e9)" style="fill: none; stroke: #b0b0b0; stroke-width: 0.8; stroke-linecap: square"/>
     </g>
     <g id="line2d_18">
      <g>
       <use xlink:href="#m632f230c74" x="398.490498" y="307.584" style="stroke: #000000; stroke-width: 0.8"/>
      </g>
     </g>
     <g id="text_9">
      <!-- 800000 -->
      <g transform="translate(379.402998 322.182437) scale(0.1 -0.1)">
       <defs>
        <path id="DejaVuSans-38" d="M 2034 2216 
Q 1584 2216 1326 1975 
Q 1069 1734 1069 1313 
Q 1069 891 1326 650 
Q 1584 409 2034 409 
Q 2484 409 2743 651 
Q 3003 894 3003 1313 
Q 3003 1734 2745 1975 
Q 2488 2216 2034 2216 
z
M 1403 2484 
Q 997 2584 770 2862 
Q 544 3141 544 3541 
Q 544 4100 942 4425 
Q 1341 4750 2034 4750 
Q 2731 4750 3128 4425 
Q 3525 4100 3525 3541 
Q 3525 3141 3298 2862 
Q 3072 2584 2669 2484 
Q 3125 2378 3379 2068 
Q 3634 1759 3634 1313 
Q 3634 634 3220 271 
Q 2806 -91 2034 -91 
Q 1263 -91 848 271 
Q 434 634 434 1313 
Q 434 1759 690 2068 
Q 947 2378 1403 2484 
z
M 1172 3481 
Q 1172 3119 1398 2916 
Q 1625 2713 2034 2713 
Q 2441 2713 2670 2916 
Q 2900 3119 2900 3481 
Q 2900 3844 2670 4047 
Q 2441 4250 2034 4250 
Q 1625 4250 1398 4047 
Q 1172 3844 1172 3481 
z
" transform="scale(0.015625)"/>
       </defs>
       <use xlink:href="#DejaVuSans-38"/>
       <use xlink:href="#DejaVuSans-30" x="63.623047"/>
       <use xlink:href="#DejaVuSans-30" x="127.246094"/>
       <use xlink:href="#DejaVuSans-30" x="190.869141"/>
       <use xlink:href="#DejaVuSans-30" x="254.492188"/>
       <use xlink:href="#DejaVuSans-30" x="318.115234"/>
      </g>
     </g>
    </g>
    <g id="text_10">
     <!-- TimePoint -->
     <g transform="translate(211.515469 335.860562) scale(0.1 -0.1)">
      <defs>
       <path id="DejaVuSans-54" d="M -19 4666 
L 3928 4666 
L 3928 4134 
L 2272 4134 
L 2272 0 
L 1638 0 
L 1638 4134 
L -19 4134 
L -19 4666 
z
" transform="scale(0.015625)"/>
       <path id="DejaVuSans-69" d="M 603 3500 
L 1178 3500 
L 1178 0 
L 603 0 
L 603 3500 
z
M 603 4863 
L 1178 4863 
L 1178 4134 
L 603 4134 
L 603 4863 
z
" transform="scale(0.015625)"/>
       <path id="DejaVuSans-6d" d="M 3328 2828 
Q 3544 3216 3844 3400 
Q 4144 3584 4550 3584 
Q 5097 3584 5394 3201 
Q 5691 2819 5691 2113 
L 5691 0 
L 5113 0 
L 5113 2094 
Q 5113 2597 4934 2840 
Q 4756 3084 4391 3084 
Q 3944 3084 3684 2787 
Q 3425 2491 3425 1978 
L 3425 0 
L 2847 0 
L 2847 2094 
Q 2847 2600 2669 2842 
Q 2491 3084 2119 3084 
Q 1678 3084 1418 2786 
Q 1159 2488 1159 1978 
L 1159 0 
L 581 0 
L 581 3500 
L 1159 3500 
L 1159 2956 
Q 1356 3278 1631 3431 
Q 1906 3584 2284 3584 
Q 2666 3584 2933 3390 
Q 3200 3197 3328 2828 
z
" transform="scale(0.015625)"/>
       <path id="DejaVuSans-65" d="M 3597 1894 
L 3597 1613 
L 953 1613 
Q 991 1019 1311 708 
Q 1631 397 2203 397 
Q 2534 397 2845 478 
Q 3156 559 3463 722 
L 3463 178 
Q 3153 47 2828 -22 
Q 2503 -91 2169 -91 
Q 1331 -91 842 396 
Q 353 884 353 1716 
Q 353 2575 817 3079 
Q 1281 3584 2069 3584 
Q 2775 3584 3186 3129 
Q 3597 2675 3597 1894 
z
M 3022 2063 
Q 3016 2534 2758 2815 
Q 2500 3097 2075 3097 
Q 1594 3097 1305 2825 
Q 1016 2553 972 2059 
L 3022 2063 
z
" transform="scale(0.015625)"/>
       <path id="DejaVuSans-50" d="M 1259 4147 
L 1259 2394 
L 2053 2394 
Q 2494 2394 2734 2622 
Q 2975 2850 2975 3272 
Q 2975 3691 2734 3919 
Q 2494 4147 2053 4147 
L 1259 4147 
z
M 628 4666 
L 2053 4666 
Q 2838 4666 3239 4311 
Q 3641 3956 3641 3272 
Q 3641 2581 3239 2228 
Q 2838 1875 2053 1875 
L 1259 1875 
L 1259 0 
L 628 0 
L 628 4666 
z
" transform="scale(0.015625)"/>
       <path id="DejaVuSans-6f" d="M 1959 3097 
Q 1497 3097 1228 2736 
Q 959 2375 959 1747 
Q 959 1119 1226 758 
Q 1494 397 1959 397 
Q 2419 397 2687 759 
Q 2956 1122 2956 1747 
Q 2956 2369 2687 2733 
Q 2419 3097 1959 3097 
z
M 1959 3584 
Q 2709 3584 3137 3096 
Q 3566 2609 3566 1747 
Q 3566 888 3137 398 
Q 2709 -91 1959 -91 
Q 1206 -91 779 398 
Q 353 888 353 1747 
Q 353 2609 779 3096 
Q 1206 3584 1959 3584 
z
" transform="scale(0.015625)"/>
       <path id="DejaVuSans-6e" d="M 3513 2113 
L 3513 0 
L 2938 0 
L 2938 2094 
Q 2938 2591 2744 2837 
Q 2550 3084 2163 3084 
Q 1697 3084 1428 2787 
Q 1159 2491 1159 1978 
L 1159 0 
L 581 0 
L 581 3500 
L 1159 3500 
L 1159 2956 
Q 1366 3272 1645 3428 
Q 1925 3584 2291 3584 
Q 2894 3584 3203 3211 
Q 3513 2838 3513 2113 
z
" transform="scale(0.015625)"/>
       <path id="DejaVuSans-74" d="M 1172 4494 
L 1172 3500 
L 2356 3500 
L 2356 3053 
L 1172 3053 
L 1172 1153 
Q 1172 725 1289 603 
Q 1406 481 1766 481 
L 2356 481 
L 2356 0 
L 1766 0 
Q 1100 0 847 248 
Q 594 497 594 1153 
L 594 3053 
L 172 3053 
L 172 3500 
L 594 3500 
L 594 4494 
L 1172 4494 
z
" transform="scale(0.015625)"/>
      </defs>
      <use xlink:href="#DejaVuSans-54"/>
      <use xlink:href="#DejaVuSans-69" x="57.958984"/>
      <use xlink:href="#DejaVuSans-6d" x="85.742188"/>
      <use xlink:href="#DejaVuSans-65" x="183.154297"/>
      <use xlink:href="#DejaVuSans-50" x="244.677734"/>
      <use xlink:href="#DejaVuSans-6f" x="301.355469"/>
      <use xlink:href="#DejaVuSans-69" x="362.537109"/>
      <use xlink:href="#DejaVuSans-6e" x="390.320312"/>
      <use xlink:href="#DejaVuSans-74" x="453.699219"/>
     </g>
    </g>
   </g>
   <g id="matplotlib.axis_2">
    <g id="ytick_1">
     <g id="line2d_19">
      <path d="M 57.6 295.488 
L 414.72 295.488 
" clip-path="url(#p7885adb1e9)" style="fill: none; stroke: #b0b0b0; stroke-width: 0.8; stroke-linecap: square"/>
     </g>
     <g id="line2d_20">
      <defs>
       <path id="mbc8b63c2e1" d="M 0 0 
L -3.5 0 
" style="stroke: #000000; stroke-width: 0.8"/>
      </defs>
      <g>
       <use xlink:href="#mbc8b63c2e1" x="57.6" y="295.488" style="stroke: #000000; stroke-width: 0.8"/>
      </g>
     </g>
     <g id="text_11">
      <!-- 0 -->
      <g transform="translate(44.2375 299.287219) scale(0.1 -0.1)">
       <use xlink:href="#DejaVuSans-30"/>
      </g>
     </g>
    </g>
    <g id="ytick_2">
     <g id="line2d_21">
      <path d="M 57.6 254.518834 
L 414.72 254.518834 
" clip-path="url(#p7885adb1e9)" style="fill: none; stroke: #b0b0b0; stroke-width: 0.8; stroke-linecap: square"/>
     </g>
     <g id="line2d_22">
      <g>
       <use xlink:href="#mbc8b63c2e1" x="57.6" y="254.518834" style="stroke: #000000; stroke-width: 0.8"/>
      </g>
     </g>
     <g id="text_12">
      <!-- 5 -->
      <g transform="translate(44.2375 258.318053) scale(0.1 -0.1)">
       <use xlink:href="#DejaVuSans-35"/>
      </g>
     </g>
    </g>
    <g id="ytick_3">
     <g id="line2d_23">
      <path d="M 57.6 213.549668 
L 414.72 213.549668 
" clip-path="url(#p7885adb1e9)" style="fill: none; stroke: #b0b0b0; stroke-width: 0.8; stroke-linecap: square"/>
     </g>
     <g id="line2d_24">
      <g>
       <use xlink:href="#mbc8b63c2e1" x="57.6" y="213.549668" style="stroke: #000000; stroke-width: 0.8"/>
      </g>
     </g>
     <g id="text_13">
      <!-- 10 -->
      <g transform="translate(37.875 217.348887) scale(0.1 -0.1)">
       <use xlink:href="#DejaVuSans-31"/>
       <use xlink:href="#DejaVuSans-30" x="63.623047"/>
      </g>
     </g>
    </g>
    <g id="ytick_4">
     <g id="line2d_25">
      <path d="M 57.6 172.580502 
L 414.72 172.580502 
" clip-path="url(#p7885adb1e9)" style="fill: none; stroke: #b0b0b0; stroke-width: 0.8; stroke-linecap: square"/>
     </g>
     <g id="line2d_26">
      <g>
       <use xlink:href="#mbc8b63c2e1" x="57.6" y="172.580502" style="stroke: #000000; stroke-width: 0.8"/>
      </g>
     </g>
     <g id="text_14">
      <!-- 15 -->
      <g transform="translate(37.875 176.379721) scale(0.1 -0.1)">
       <use xlink:href="#DejaVuSans-31"/>
       <use xlink:href="#DejaVuSans-35" x="63.623047"/>
      </g>
     </g>
    </g>
    <g id="ytick_5">
     <g id="line2d_27">
      <path d="M 57.6 131.611337 
L 414.72 131.611337 
" clip-path="url(#p7885adb1e9)" style="fill: none; stroke: #b0b0b0; stroke-width: 0.8; stroke-linecap: square"/>
     </g>
     <g id="line2d_28">
      <g>
       <use xlink:href="#mbc8b63c2e1" x="57.6" y="131.611337" style="stroke: #000000; stroke-width: 0.8"/>
      </g>
     </g>
     <g id="text_15">
      <!-- 20 -->
      <g transform="translate(37.875 135.410555) scale(0.1 -0.1)">
       <use xlink:href="#DejaVuSans-32"/>
       <use xlink:href="#DejaVuSans-30" x="63.623047"/>
      </g>
     </g>
    </g>
    <g id="ytick_6">
     <g id="line2d_29">
      <path d="M 57.6 90.642171 
L 414.72 90.642171 
" clip-path="url(#p7885adb1e9)" style="fill: none; stroke: #b0b0b0; stroke-width: 0.8; stroke-linecap: square"/>
     </g>
     <g id="line2d_30">
      <g>
       <use xlink:href="#mbc8b63c2e1" x="57.6" y="90.642171" style="stroke: #000000; stroke-width: 0.8"/>
      </g>
     </g>
     <g id="text_16">
      <!-- 25 -->
      <g transform="translate(37.875 94.441389) scale(0.1 -0.1)">
       <use xlink:href="#DejaVuSans-32"/>
       <use xlink:href="#DejaVuSans-35" x="63.623047"/>
      </g>
     </g>
    </g>
    <g id="ytick_7">
     <g id="line2d_31">
      <path d="M 57.6 49.673005 
L 414.72 49.673005 
" clip-path="url(#p7885adb1e9)" style="fill: none; stroke: #b0b0b0; stroke-width: 0.8; stroke-linecap: square"/>
     </g>
     <g id="line2d_32">
      <g>
       <use xlink:href="#mbc8b63c2e1" x="57.6" y="49.673005" style="stroke: #000000; stroke-width: 0.8"/>
      </g>
     </g>
     <g id="text_17">
      <!-- 30 -->
      <g transform="translate(37.875 53.472224) scale(0.1 -0.1)">
       <use xlink:href="#DejaVuSans-33"/>
       <use xlink:href="#DejaVuSans-30" x="63.623047"/>
      </g>
     </g>
    </g>
    <g id="text_18">
     <!-- timeWaitAllocateStdDev -->
     <g transform="translate(31.795312 235.164719) rotate(-90) scale(0.1 -0.1)">
      <defs>
       <path id="DejaVuSans-57" d="M 213 4666 
L 850 4666 
L 1831 722 
L 2809 4666 
L 3519 4666 
L 4500 722 
L 5478 4666 
L 6119 4666 
L 4947 0 
L 4153 0 
L 3169 4050 
L 2175 0 
L 1381 0 
L 213 4666 
z
" transform="scale(0.015625)"/>
       <path id="DejaVuSans-61" d="M 2194 1759 
Q 1497 1759 1228 1600 
Q 959 1441 959 1056 
Q 959 750 1161 570 
Q 1363 391 1709 391 
Q 2188 391 2477 730 
Q 2766 1069 2766 1631 
L 2766 1759 
L 2194 1759 
z
M 3341 1997 
L 3341 0 
L 2766 0 
L 2766 531 
Q 2569 213 2275 61 
Q 1981 -91 1556 -91 
Q 1019 -91 701 211 
Q 384 513 384 1019 
Q 384 1609 779 1909 
Q 1175 2209 1959 2209 
L 2766 2209 
L 2766 2266 
Q 2766 2663 2505 2880 
Q 2244 3097 1772 3097 
Q 1472 3097 1187 3025 
Q 903 2953 641 2809 
L 641 3341 
Q 956 3463 1253 3523 
Q 1550 3584 1831 3584 
Q 2591 3584 2966 3190 
Q 3341 2797 3341 1997 
z
" transform="scale(0.015625)"/>
       <path id="DejaVuSans-41" d="M 2188 4044 
L 1331 1722 
L 3047 1722 
L 2188 4044 
z
M 1831 4666 
L 2547 4666 
L 4325 0 
L 3669 0 
L 3244 1197 
L 1141 1197 
L 716 0 
L 50 0 
L 1831 4666 
z
" transform="scale(0.015625)"/>
       <path id="DejaVuSans-6c" d="M 603 4863 
L 1178 4863 
L 1178 0 
L 603 0 
L 603 4863 
z
" transform="scale(0.015625)"/>
       <path id="DejaVuSans-63" d="M 3122 3366 
L 3122 2828 
Q 2878 2963 2633 3030 
Q 2388 3097 2138 3097 
Q 1578 3097 1268 2742 
Q 959 2388 959 1747 
Q 959 1106 1268 751 
Q 1578 397 2138 397 
Q 2388 397 2633 464 
Q 2878 531 3122 666 
L 3122 134 
Q 2881 22 2623 -34 
Q 2366 -91 2075 -91 
Q 1284 -91 818 406 
Q 353 903 353 1747 
Q 353 2603 823 3093 
Q 1294 3584 2113 3584 
Q 2378 3584 2631 3529 
Q 2884 3475 3122 3366 
z
" transform="scale(0.015625)"/>
       <path id="DejaVuSans-53" d="M 3425 4513 
L 3425 3897 
Q 3066 4069 2747 4153 
Q 2428 4238 2131 4238 
Q 1616 4238 1336 4038 
Q 1056 3838 1056 3469 
Q 1056 3159 1242 3001 
Q 1428 2844 1947 2747 
L 2328 2669 
Q 3034 2534 3370 2195 
Q 3706 1856 3706 1288 
Q 3706 609 3251 259 
Q 2797 -91 1919 -91 
Q 1588 -91 1214 -16 
Q 841 59 441 206 
L 441 856 
Q 825 641 1194 531 
Q 1563 422 1919 422 
Q 2459 422 2753 634 
Q 3047 847 3047 1241 
Q 3047 1584 2836 1778 
Q 2625 1972 2144 2069 
L 1759 2144 
Q 1053 2284 737 2584 
Q 422 2884 422 3419 
Q 422 4038 858 4394 
Q 1294 4750 2059 4750 
Q 2388 4750 2728 4690 
Q 3069 4631 3425 4513 
z
" transform="scale(0.015625)"/>
       <path id="DejaVuSans-64" d="M 2906 2969 
L 2906 4863 
L 3481 4863 
L 3481 0 
L 2906 0 
L 2906 525 
Q 2725 213 2448 61 
Q 2172 -91 1784 -91 
Q 1150 -91 751 415 
Q 353 922 353 1747 
Q 353 2572 751 3078 
Q 1150 3584 1784 3584 
Q 2172 3584 2448 3432 
Q 2725 3281 2906 2969 
z
M 947 1747 
Q 947 1113 1208 752 
Q 1469 391 1925 391 
Q 2381 391 2643 752 
Q 2906 1113 2906 1747 
Q 2906 2381 2643 2742 
Q 2381 3103 1925 3103 
Q 1469 3103 1208 2742 
Q 947 2381 947 1747 
z
" transform="scale(0.015625)"/>
       <path id="DejaVuSans-44" d="M 1259 4147 
L 1259 519 
L 2022 519 
Q 2988 519 3436 956 
Q 3884 1394 3884 2338 
Q 3884 3275 3436 3711 
Q 2988 4147 2022 4147 
L 1259 4147 
z
M 628 4666 
L 1925 4666 
Q 3281 4666 3915 4102 
Q 4550 3538 4550 2338 
Q 4550 1131 3912 565 
Q 3275 0 1925 0 
L 628 0 
L 628 4666 
z
" transform="scale(0.015625)"/>
       <path id="DejaVuSans-76" d="M 191 3500 
L 800 3500 
L 1894 563 
L 2988 3500 
L 3597 3500 
L 2284 0 
L 1503 0 
L 191 3500 
z
" transform="scale(0.015625)"/>
      </defs>
      <use xlink:href="#DejaVuSans-74"/>
      <use xlink:href="#DejaVuSans-69" x="39.208984"/>
      <use xlink:href="#DejaVuSans-6d" x="66.992188"/>
      <use xlink:href="#DejaVuSans-65" x="164.404297"/>
      <use xlink:href="#DejaVuSans-57" x="225.927734"/>
      <use xlink:href="#DejaVuSans-61" x="318.429688"/>
      <use xlink:href="#DejaVuSans-69" x="379.708984"/>
      <use xlink:href="#DejaVuSans-74" x="407.492188"/>
      <use xlink:href="#DejaVuSans-41" x="446.701172"/>
      <use xlink:href="#DejaVuSans-6c" x="515.109375"/>
      <use xlink:href="#DejaVuSans-6c" x="542.892578"/>
      <use xlink:href="#DejaVuSans-6f" x="570.675781"/>
      <use xlink:href="#DejaVuSans-63" x="631.857422"/>
      <use xlink:href="#DejaVuSans-61" x="686.837891"/>
      <use xlink:href="#DejaVuSans-74" x="748.117188"/>
      <use xlink:href="#DejaVuSans-65" x="787.326172"/>
      <use xlink:href="#DejaVuSans-53" x="848.849609"/>
      <use xlink:href="#DejaVuSans-74" x="912.326172"/>
      <use xlink:href="#DejaVuSans-64" x="951.535156"/>
      <use xlink:href="#DejaVuSans-44" x="1015.011719"/>
      <use xlink:href="#DejaVuSans-65" x="1092.013672"/>
      <use xlink:href="#DejaVuSans-76" x="1153.537109"/>
     </g>
    </g>
   </g>
   <g id="line2d_33">
    <path d="M 73.895775 295.488 
L 73.902667 295.488 
L 73.949458 53.568 
L 73.993837 130.387633 
L 74.19252 156.898335 
L 74.197611 176.203506 
L 74.348968 180.32356 
L 74.351161 193.730858 
L 74.494115 194.106379 
L 74.662851 206.605268 
L 74.700258 206.794543 
L 74.823298 215.317477 
L 74.898628 215.422577 
L 74.999055 222.600504 
L 75.140793 222.790504 
L 75.249976 226.235324 
L 75.290404 226.314492 
L 75.324628 229.179857 
L 75.489349 230.990894 
L 75.631274 234.734833 
L 75.863535 237.05441 
L 75.946651 237.700211 
L 76.054265 239.220088 
L 76.064483 239.26206 
L 76.067738 238.20494 
L 76.073179 240.188694 
L 76.231142 240.223221 
L 76.341871 242.04658 
L 76.401928 242.100328 
L 76.483545 243.976685 
L 76.949412 247.072204 
L 76.983987 248.69824 
L 77.638754 251.237277 
L 77.660066 252.073376 
L 77.861175 252.649509 
L 78.130734 253.64479 
L 78.252346 254.754871 
L 78.563284 255.216316 
L 78.675612 255.616337 
L 78.680428 255.489835 
L 78.777429 255.828388 
L 79.104315 256.97751 
L 79.142026 256.979619 
L 79.209047 257.583289 
L 79.370727 257.714281 
L 79.404081 258.301274 
L 79.597236 258.419506 
L 79.598057 258.781603 
L 79.797018 258.935719 
L 79.887277 259.223003 
L 80.07239 259.50223 
L 80.073327 260.092194 
L 80.292 260.103729 
L 80.403162 260.341571 
L 80.440299 260.43487 
L 80.455094 260.939209 
L 80.732423 260.99684 
L 80.835798 261.422824 
L 81.034739 261.672175 
L 81.036402 261.6675 
L 81.1414 261.968339 
L 81.290343 262.345298 
L 81.389001 262.70783 
L 81.681366 262.984761 
L 81.691467 263.257358 
L 81.833838 263.283068 
L 81.956057 263.479499 
L 81.961419 263.484092 
L 81.962807 263.69103 
L 82.097907 263.837967 
L 82.825135 264.795906 
L 82.826322 264.608497 
L 82.913797 264.910254 
L 83.053572 265.044423 
L 83.382981 265.297876 
L 83.383326 265.210802 
L 83.459511 265.324263 
L 83.525172 265.328826 
L 83.634519 265.557975 
L 83.73653 265.571935 
L 83.747759 265.777384 
L 83.895935 265.797538 
L 83.986073 266.03338 
L 84.070455 266.044669 
L 84.07758 266.191253 
L 84.224268 266.189569 
L 84.324349 266.50353 
L 84.471327 266.509806 
L 84.473523 266.802804 
L 84.736703 266.85772 
L 85.317339 267.567851 
L 85.462613 267.601974 
L 85.491428 267.726884 
L 85.740735 267.862964 
L 85.799957 268.009514 
L 86.003486 268.087761 
L 86.006399 268.267846 
L 86.264522 268.401805 
L 86.319774 268.599268 
L 86.538742 268.659378 
L 87.121674 269.115498 
L 87.14608 268.828459 
L 87.18739 269.005468 
L 87.460217 269.113856 
L 87.731701 269.365779 
L 88.634261 269.871548 
L 89.122807 270.199239 
L 89.130898 270.172516 
L 89.135492 269.158607 
L 89.220549 269.183963 
L 89.40693 269.303777 
L 89.493443 269.51481 
L 89.900274 269.61325 
L 90.212091 269.839779 
L 90.28219 270.106797 
L 90.852005 270.241867 
L 90.963684 270.32504 
L 91.203215 270.430036 
L 91.412031 270.502536 
L 91.427635 270.461365 
L 91.507869 270.523026 
L 91.709134 270.659338 
L 91.73642 270.741772 
L 92.278336 270.873757 
L 92.284016 268.849355 
L 92.324586 268.867718 
L 92.560786 268.980137 
L 92.787654 269.099531 
L 93.021821 269.212076 
L 93.050821 269.288097 
L 93.681833 269.468153 
L 93.917379 269.528236 
L 93.926434 269.515732 
L 94.209068 269.626712 
L 94.787314 269.908877 
L 94.83294 269.968796 
L 95.178381 269.972899 
L 95.18012 268.069955 
L 95.641544 268.194664 
L 95.883608 268.310768 
L 96.114682 268.399092 
L 96.220834 268.481443 
L 96.372595 268.575515 
L 96.519812 268.679548 
L 97.137573 268.734013 
L 97.173607 268.819319 
L 97.775358 268.945011 
L 97.7909 269.049724 
L 98.229086 269.108767 
L 98.265144 269.207608 
L 98.910147 269.366354 
L 99.095713 269.43062 
L 99.097534 269.421282 
L 99.198414 269.47585 
L 99.221858 269.547836 
L 99.608996 269.64284 
L 99.612825 269.722756 
L 99.941017 269.793347 
L 99.953083 269.863817 
L 100.347415 269.955115 
L 100.350137 270.004886 
L 101.332913 270.297153 
L 101.333639 270.234906 
L 101.597061 270.33917 
L 101.763635 270.400267 
L 102.125298 270.500709 
L 102.237661 270.548221 
L 102.318367 270.599959 
L 102.644948 270.688059 
L 102.828856 270.791164 
L 105.146145 271.574569 
L 105.440276 271.672954 
L 108.620606 272.500132 
L 108.953762 272.574641 
L 109.391733 272.69212 
L 109.54906 272.829456 
L 110.346371 272.937598 
L 110.404702 272.898892 
L 111.046131 272.995035 
L 111.172083 273.062166 
L 111.667164 273.149074 
L 112.092855 273.282031 
L 114.263298 273.565995 
L 114.264589 273.408398 
L 115.009933 273.451178 
L 115.011121 273.25233 
L 115.017852 273.284107 
L 116.196245 273.381223 
L 116.201054 273.420625 
L 117.998161 273.636895 
L 118.186853 273.674906 
L 120.088762 274.019149 
L 120.088875 274.040626 
L 120.819335 274.125192 
L 122.015113 274.359988 
L 124.250977 274.409301 
L 124.255071 274.316561 
L 126.146985 274.525852 
L 126.14931 274.555121 
L 126.804284 274.662224 
L 127.149675 274.684963 
L 127.15793 274.61829 
L 127.162222 274.551553 
L 127.203906 274.569596 
L 128.592113 274.714081 
L 128.997157 274.782893 
L 129.55526 274.823691 
L 129.557059 273.531633 
L 129.605213 273.548878 
L 130.826838 273.648116 
L 130.851154 273.677864 
L 131.982659 273.81007 
L 132.073065 273.837426 
L 134.023336 274.052954 
L 134.273546 274.044806 
L 135.482875 274.147139 
L 135.487766 274.169692 
L 136.707487 274.272546 
L 136.713643 274.297789 
L 138.015303 274.401646 
L 138.10217 274.102608 
L 138.971096 274.198005 
L 138.999631 274.230294 
L 139.892884 274.323283 
L 139.895427 274.353582 
L 140.854444 274.44188 
L 140.860571 273.848877 
L 140.932684 273.855267 
L 141.72521 273.922183 
L 141.761587 273.887263 
L 141.832526 273.900309 
L 144.459896 274.044228 
L 147.197441 274.31607 
L 148.914084 274.389789 
L 148.926343 274.116709 
L 148.94753 274.128975 
L 149.066069 274.12899 
L 149.071044 274.014049 
L 151.256365 274.125127 
L 151.263259 274.132954 
L 151.7129 274.158166 
L 151.71861 273.926491 
L 151.786648 273.944251 
L 153.552581 274.042466 
L 153.556186 273.837897 
L 155.283395 273.949783 
L 155.346943 273.963808 
L 156.548939 274.068811 
L 156.564668 274.093066 
L 156.943948 274.085683 
L 156.946579 273.824741 
L 157.032272 273.832938 
L 158.418955 273.948994 
L 170.726944 274.492294 
L 170.727649 274.379163 
L 170.807653 274.384707 
L 172.779465 274.511039 
L 172.791968 274.523122 
L 186.161262 275.050851 
L 186.176005 274.94623 
L 186.273367 274.954245 
L 186.357052 274.960991 
L 186.360716 274.914596 
L 188.45624 275.024588 
L 188.459007 275.034666 
L 191.129002 275.045517 
L 191.181714 274.970423 
L 191.244532 274.976709 
L 195.016333 275.107772 
L 200.670468 275.149891 
L 200.779984 275.157264 
L 200.779984 275.155036 
L 205.667275 275.285257 
L 207.846416 275.347802 
L 211.624145 275.456592 
L 211.624699 275.465196 
L 214.304599 275.542026 
L 215.157481 275.574695 
L 220.663745 275.704825 
L 220.684175 275.717087 
L 225.043218 275.83516 
L 239.449444 276.216859 
L 239.760253 276.234368 
L 240.407525 276.26142 
L 248.818111 276.320819 
L 248.823459 276.090564 
L 248.890538 276.097656 
L 256.956177 276.225994 
L 257.0384 276.233909 
L 263.543356 276.173137 
L 263.579245 276.054881 
L 263.583121 276.06345 
L 271.045437 276.24046 
L 273.657426 276.294137 
L 279.025563 276.373973 
L 296.572763 276.490516 
L 301.4353 276.567563 
L 301.43775 276.087103 
L 301.527007 276.090645 
L 353.102343 276.589251 
L 353.200516 276.570063 
L 353.204728 276.571107 
L 360.431553 276.63311 
L 375.566175 276.746188 
L 386.996632 276.790195 
L 386.998829 276.783915 
L 387.007559 276.787235 
L 398.481869 276.897689 
L 398.481869 276.897689 
" clip-path="url(#p7885adb1e9)" style="fill: none; stroke: #1f77b4; stroke-width: 1.5; stroke-linecap: square"/>
   </g>
   <g id="line2d_34">
    <path d="M 73.832727 295.488 
L 73.864863 289.020418 
L 73.885219 144.311716 
L 73.946674 204.931834 
L 74.124169 226.817555 
L 74.221553 236.895552 
L 74.395336 248.358942 
L 74.533188 248.645989 
L 74.610219 252.561416 
L 74.849346 258.745566 
L 75.028362 258.819829 
L 75.036743 260.505887 
L 75.156675 260.611286 
L 75.27993 262.293524 
L 75.312704 262.285467 
L 75.315377 262.3103 
L 75.3176 263.35859 
L 75.49369 263.839251 
L 75.570654 264.308328 
L 75.574892 264.006283 
L 75.641207 264.023179 
L 75.643329 264.99703 
L 75.785073 265.898477 
L 75.935642 265.957346 
L 76.12614 267.243784 
L 76.19113 267.349108 
L 76.60343 268.815097 
L 76.606354 268.811512 
L 76.607228 268.524604 
L 76.679152 269.00798 
L 76.800083 269.020731 
L 76.803456 269.543611 
L 76.995505 269.584376 
L 77.142324 270.307576 
L 77.227616 270.319225 
L 77.230289 270.926335 
L 77.433416 270.932766 
L 77.545819 271.779224 
L 78.145455 272.733448 
L 78.285656 273.077818 
L 78.388078 273.077818 
L 78.388078 272.36769 
L 78.564793 272.40151 
L 78.733123 272.742728 
L 78.773495 272.747608 
L 78.778728 273.009632 
L 78.987264 273.132589 
L 78.996675 273.311049 
L 79.327827 273.736078 
L 79.429002 273.827204 
L 79.456537 274.067891 
L 79.752823 274.274245 
L 79.993256 274.498144 
L 80.03696 274.468734 
L 80.03696 274.599277 
L 80.299574 274.789828 
L 80.435157 274.875896 
L 80.511485 275.065276 
L 80.613543 275.069393 
L 80.616393 274.896924 
L 80.696444 275.032388 
L 80.784233 275.007076 
L 80.784233 273.92979 
L 80.867213 274.047966 
L 81.146274 274.277246 
L 81.162262 274.598063 
L 81.4895 274.68589 
L 81.58371 274.851191 
L 81.694049 274.908682 
L 81.697299 273.478942 
L 81.769765 273.635936 
L 82.024822 273.740215 
L 82.158511 273.808233 
L 82.162497 274.005172 
L 82.406546 274.034975 
L 82.539769 274.258049 
L 82.934822 274.515624 
L 82.94344 274.488816 
L 82.945116 274.316286 
L 83.051495 274.459594 
L 83.544137 274.629295 
L 83.605149 273.668298 
L 83.846349 273.731148 
L 83.964522 273.891215 
L 84.207097 273.953982 
L 84.331532 274.020564 
L 84.335794 273.984671 
L 84.403963 274.008677 
L 84.705997 274.134233 
L 84.721784 274.083465 
L 84.804118 274.141111 
L 85.169481 274.383762 
L 85.173142 274.113858 
L 85.254097 274.150911 
L 85.383262 274.130024 
L 85.386324 274.288383 
L 85.773817 274.381042 
L 85.77387 274.531151 
L 86.178008 274.606948 
L 86.264691 274.529886 
L 86.269481 274.565226 
L 86.498393 274.651593 
L 86.595015 274.734966 
L 86.751791 274.841772 
L 87.503566 275.056634 
L 87.507669 275.142115 
L 87.809571 275.245753 
L 88.441773 275.579695 
L 88.515789 275.588722 
L 88.522256 275.709478 
L 88.74574 275.738428 
L 88.74765 275.877196 
L 89.266979 275.938697 
L 89.359731 276.004085 
L 89.644745 276.075899 
L 89.667086 276.179271 
L 89.83754 276.317879 
L 90.455114 276.410587 
L 90.793844 276.547586 
L 90.797089 276.538471 
L 91.597151 276.63903 
L 91.701201 276.70307 
L 92.629154 276.840429 
L 92.633567 276.889867 
L 92.837483 276.710692 
L 92.843995 276.730046 
L 92.965314 276.774089 
L 93.024282 276.851881 
L 93.336434 276.764721 
L 93.340015 276.821342 
L 93.656042 276.879178 
L 93.671187 276.942659 
L 94.120022 277.041211 
L 94.297054 277.108391 
L 95.073212 277.214926 
L 95.175465 277.241828 
L 95.192536 277.178236 
L 95.196708 277.161589 
L 96.199036 277.28014 
L 96.213442 277.316577 
L 96.388249 277.326175 
L 96.578834 277.180274 
L 96.580099 277.195322 
L 97.182388 277.299318 
L 97.190313 277.35264 
L 97.519272 277.34554 
L 97.529968 276.707215 
L 97.563275 276.750145 
L 98.815608 276.743522 
L 99.051725 276.776396 
L 99.069166 276.50219 
L 100.18371 276.691387 
L 100.395756 276.697498 
L 100.623618 276.741435 
L 100.660896 276.872103 
L 101.87539 276.979809 
L 101.91362 277.012955 
L 103.655179 277.13644 
L 105.235151 277.354712 
L 105.239527 277.327647 
L 105.24406 277.296379 
L 105.291812 277.326122 
L 108.129861 277.651098 
L 108.130023 277.611434 
L 108.18305 277.614112 
L 108.589634 277.666182 
L 108.66854 277.217858 
L 108.682458 277.234585 
L 109.679715 277.393726 
L 110.572506 277.554621 
L 111.171945 277.632772 
L 111.265425 277.204147 
L 111.267513 277.214825 
L 115.094238 277.395397 
L 115.163887 277.412512 
L 116.538836 277.507069 
L 116.5392 277.092491 
L 118.055806 277.161288 
L 118.059015 277.090934 
L 118.167384 277.071282 
L 118.461159 277.093896 
L 118.466904 276.546556 
L 119.37444 276.653752 
L 119.375612 276.679739 
L 122.097998 276.816765 
L 122.123358 276.852081 
L 123.619562 276.977226 
L 123.855016 277.007841 
L 125.837609 277.016346 
L 126.219479 277.059933 
L 126.928051 277.12215 
L 126.932146 277.019378 
L 128.198976 277.113701 
L 128.60931 277.143037 
L 129.689158 277.143624 
L 129.781304 276.934026 
L 130.744381 277.026269 
L 130.838353 276.914647 
L 130.845068 276.915549 
L 131.85811 276.877025 
L 131.963325 276.648356 
L 133.240163 276.761568 
L 133.359231 276.775304 
L 134.785461 276.855353 
L 134.787238 276.735417 
L 134.863037 276.747539 
L 136.596951 276.8608 
L 136.676188 276.884961 
L 136.970286 276.886464 
L 136.976116 276.680723 
L 138.668371 276.789758 
L 138.80632 276.801635 
L 140.230365 276.840701 
L 143.896767 276.97998 
L 146.91857 277.138226 
L 146.923153 276.798164 
L 147.023217 276.80174 
L 150.522404 276.899916 
L 150.524261 276.581895 
L 152.532013 276.701395 
L 152.620758 276.704072 
L 154.173089 276.748677 
L 154.244924 276.465281 
L 154.262814 276.473684 
L 154.821427 276.515572 
L 154.894646 276.34605 
L 154.900771 276.355969 
L 163.608614 276.651751 
L 163.634185 276.529217 
L 163.711856 276.537393 
L 186.18771 277.483106 
L 186.319039 277.443102 
L 186.495078 277.46335 
L 188.16113 277.364938 
L 188.268706 277.308942 
L 188.270666 277.309255 
L 192.347364 277.419583 
L 199.114662 277.548865 
L 200.422132 277.587765 
L 206.13139 277.684635 
L 206.238879 277.05683 
L 221.195008 277.250699 
L 221.199389 277.225441 
L 226.046621 277.341957 
L 227.151474 277.387905 
L 236.378706 277.512211 
L 236.586743 277.519029 
L 247.336034 277.545884 
L 247.338124 277.339335 
L 247.439231 277.342808 
L 249.769263 277.265036 
L 249.769329 277.18955 
L 273.331138 277.313454 
L 273.576032 277.308693 
L 275.73039 277.331275 
L 275.831129 277.107253 
L 276.450953 277.107449 
L 293.94651 277.138234 
L 294.026236 277.001705 
L 294.038611 277.006362 
L 301.128003 277.104022 
L 301.616558 277.114567 
L 301.626945 277.087819 
L 311.756453 276.992159 
L 311.761772 276.978678 
L 318.452304 276.888943 
L 318.560871 276.857405 
L 322.117221 276.893314 
L 339.241952 276.990303 
L 340.424042 277.012393 
L 345.853535 277.128675 
L 347.743857 277.096733 
L 347.755955 276.586901 
L 347.847079 276.591237 
L 383.278129 276.623169 
L 383.315033 276.365634 
L 383.316631 276.367333 
L 384.001986 276.356125 
L 384.004737 275.851564 
L 391.419311 275.969102 
L 391.627474 275.976334 
L 395.698065 276.033598 
L 396.979109 276.055167 
L 397.044224 276.058877 
L 398.487273 276.080034 
L 398.487273 276.080034 
" clip-path="url(#p7885adb1e9)" style="fill: none; stroke: #ff7f0e; stroke-width: 1.5; stroke-linecap: square"/>
   </g>
   <g id="line2d_35">
    <path d="M 73.871395 295.488 
L 73.876105 276.553812 
L 73.985857 289.323142 
L 74.026396 288.920931 
L 74.098491 275.445669 
L 74.124477 276.41503 
L 74.273926 279.731229 
L 74.342425 279.930495 
L 74.358603 282.007478 
L 74.856867 282.781625 
L 74.94476 283.102496 
L 74.950122 282.774171 
L 75.021465 281.201401 
L 75.090652 281.857646 
L 75.39754 282.5336 
L 75.489044 273.559392 
L 75.417887 282.566409 
L 75.608004 273.905101 
L 75.677085 273.949416 
L 75.777735 274.713098 
L 75.852035 275.237989 
L 76.021768 275.246088 
L 76.09268 274.918478 
L 76.096808 275.073338 
L 76.137463 275.335314 
L 76.271164 275.345121 
L 76.326558 275.539191 
L 76.346047 274.712089 
L 76.378315 274.749267 
L 76.418642 274.510846 
L 76.685215 274.437667 
L 76.685961 274.382707 
L 76.691578 274.775179 
L 76.813548 274.871994 
L 77.005956 275.18343 
L 77.080445 275.228679 
L 77.083822 274.78045 
L 77.141911 275.086889 
L 77.269654 275.258367 
L 77.329101 275.170566 
L 77.390355 275.17958 
L 77.394148 275.420738 
L 77.546302 275.425453 
L 77.613687 275.678472 
L 77.935945 276.466823 
L 78.096452 276.565297 
L 78.159222 276.67739 
L 78.495312 276.770179 
L 78.563547 277.043759 
L 78.738784 277.157924 
L 78.95391 277.444497 
L 79.015341 277.452343 
L 79.01556 274.642552 
L 79.318966 274.728641 
L 79.324933 274.959619 
L 79.53165 275.098119 
L 79.611791 274.859576 
L 79.612091 274.868943 
L 79.663704 274.875362 
L 79.668004 274.751652 
L 79.754403 275.015814 
L 80.256128 275.227244 
L 80.256128 274.593631 
L 80.356881 274.639244 
L 80.443807 274.654658 
L 80.453461 274.953618 
L 80.821085 275.00215 
L 80.822258 275.157773 
L 81.076403 275.264386 
L 81.563693 275.728172 
L 81.745954 275.728172 
L 81.745954 275.78081 
L 82.025155 276.088435 
L 82.494719 276.210361 
L 82.576627 276.357319 
L 82.842709 276.466716 
L 83.249178 276.75798 
L 83.262894 276.932477 
L 83.442605 277.022832 
L 83.699342 276.941212 
L 84.10672 277.034677 
L 84.190048 277.076921 
L 84.198634 276.925218 
L 84.479058 277.017437 
L 84.614862 277.145864 
L 85.705545 277.239028 
L 85.99459 277.36646 
L 86.858787 277.566852 
L 86.863751 277.361752 
L 86.918728 277.443496 
L 87.136166 277.464322 
L 87.140803 277.278572 
L 87.143064 277.351278 
L 87.353914 277.410139 
L 87.449107 277.115118 
L 87.738178 277.227579 
L 87.740467 277.297196 
L 88.013677 277.28125 
L 88.170774 277.360452 
L 88.321665 277.415425 
L 88.333638 277.551688 
L 88.565143 277.558691 
L 88.642657 277.67805 
L 89.212196 277.803228 
L 89.337641 278.054595 
L 90.097117 278.163182 
L 90.180744 278.242474 
L 90.528378 278.252772 
L 90.635604 278.301804 
L 90.977279 278.395629 
L 91.616004 278.536431 
L 92.066496 278.650984 
L 92.07201 278.212662 
L 93.136271 278.250921 
L 93.299088 278.278351 
L 93.883286 278.431538 
L 94.145093 278.521189 
L 95.234852 278.593259 
L 95.260592 278.459748 
L 95.31872 278.465575 
L 96.697804 278.593281 
L 96.703767 278.217291 
L 96.775082 278.234335 
L 96.979523 278.228013 
L 96.983928 277.479875 
L 99.530829 277.635962 
L 99.708562 277.688276 
L 100.172685 277.738405 
L 100.178604 277.473249 
L 100.284819 277.476224 
L 100.522691 277.495975 
L 100.52548 277.038485 
L 100.634477 277.077445 
L 101.081478 277.028312 
L 101.101982 277.016196 
L 101.105319 277.040298 
L 101.951205 277.153264 
L 103.783007 277.441471 
L 104.010915 277.460398 
L 104.362772 277.491437 
L 104.371298 277.289008 
L 104.459291 277.322032 
L 105.02936 277.392605 
L 105.144284 277.430434 
L 105.782474 277.551198 
L 105.894814 277.573528 
L 106.501719 277.67179 
L 106.595554 277.703203 
L 107.235811 277.81533 
L 109.617905 277.963941 
L 109.733516 277.530287 
L 111.316903 277.643682 
L 111.469048 277.676006 
L 112.242665 277.757958 
L 112.542203 277.782698 
L 112.623521 277.483859 
L 113.242489 277.421884 
L 113.296498 277.237906 
L 114.347689 277.361401 
L 115.438417 277.434988 
L 115.443256 277.387268 
L 115.518198 277.443799 
L 116.709973 277.532044 
L 116.82947 277.56119 
L 117.498899 277.661259 
L 121.134615 277.846101 
L 121.213858 277.721682 
L 124.484191 277.927387 
L 124.862991 277.962033 
L 124.989416 277.924856 
L 129.011177 278.065092 
L 129.0903 278.09499 
L 131.351987 278.209516 
L 131.355103 277.705511 
L 132.773588 277.802353 
L 133.75001 277.850796 
L 133.793275 277.814774 
L 133.796414 277.834395 
L 134.857448 277.763937 
L 138.250915 277.897029 
L 138.500671 277.871728 
L 138.509336 277.707714 
L 138.583464 277.715583 
L 140.165856 277.807782 
L 143.277826 277.936886 
L 143.424858 277.801853 
L 146.762786 277.970031 
L 146.764778 277.592982 
L 146.83114 277.606931 
L 149.449406 277.576269 
L 149.524176 277.563533 
L 149.525433 277.572198 
L 150.124348 277.578907 
L 151.331711 277.57006 
L 151.331711 277.577807 
L 155.576437 277.692189 
L 155.669026 277.70871 
L 158.00826 277.671054 
L 158.019362 277.467274 
L 161.701418 277.641681 
L 161.7713 277.659222 
L 164.87304 277.81374 
L 164.878784 277.829079 
L 171.81599 277.943559 
L 171.900625 277.949786 
L 172.972485 278.016184 
L 183.856067 278.13241 
L 184.087828 278.147379 
L 198.415817 278.082822 
L 198.675799 278.020649 
L 201.154055 278.030874 
L 201.194133 278.052568 
L 212.75771 278.106867 
L 212.861735 278.012853 
L 212.864676 278.013136 
L 220.252381 278.178368 
L 220.389796 278.184545 
L 223.441354 278.265406 
L 223.55407 278.279729 
L 226.466217 278.207346 
L 226.568531 277.751608 
L 237.292617 277.872716 
L 237.29528 277.691128 
L 255.109462 277.802165 
L 256.553141 277.819839 
L 259.932353 277.864304 
L 261.180048 277.881784 
L 264.903662 277.88995 
L 270.714548 277.843966 
L 272.47936 277.8593 
L 272.581173 277.754888 
L 289.130796 277.876589 
L 290.410842 277.896273 
L 290.555636 277.870504 
L 292.377814 277.783913 
L 292.458475 277.681645 
L 292.461012 277.683188 
L 320.951618 277.867566 
L 321.04202 277.776025 
L 321.063182 277.777141 
L 326.207045 277.770778 
L 329.559187 277.800357 
L 329.658123 277.509185 
L 329.661488 277.50973 
L 330.757729 277.521533 
L 330.897825 277.527101 
L 342.561597 277.654617 
L 342.564153 277.658557 
L 374.895513 277.74566 
L 374.9312 277.672713 
L 374.949419 277.675182 
L 382.067316 277.785681 
L 385.447421 277.825237 
L 385.534616 277.785602 
L 385.538712 277.787273 
L 386.527831 277.794661 
L 386.528016 277.058783 
L 398.403588 277.042091 
L 398.403588 277.042091 
" clip-path="url(#p7885adb1e9)" style="fill: none; stroke: #2ca02c; stroke-width: 1.5; stroke-linecap: square"/>
   </g>
   <g id="line2d_36">
    <path d="M 73.845839 295.488 
L 73.851027 258.408799 
L 73.942473 284.254205 
L 73.996403 282.232028 
L 74.015921 283.158328 
L 74.131659 282.988328 
L 74.136361 259.530125 
L 74.24545 259.663637 
L 74.248992 263.474946 
L 74.410259 263.534852 
L 74.427892 267.391099 
L 74.818719 269.557541 
L 74.832643 266.059932 
L 74.931155 266.352106 
L 75.161122 268.616287 
L 75.26658 268.610243 
L 75.379377 269.183541 
L 75.516507 269.257979 
L 75.607725 269.855133 
L 75.701937 269.609559 
L 75.778434 269.618385 
L 75.886247 270.297728 
L 75.960776 270.388661 
L 76.081964 271.07393 
L 76.20052 272.038487 
L 76.564015 272.251325 
L 76.668414 272.942925 
L 76.75708 273.398763 
L 76.892818 273.401812 
L 76.935193 273.722995 
L 76.990868 273.710654 
L 77.034859 273.730141 
L 77.041718 274.05888 
L 77.344718 274.386183 
L 77.442125 274.922517 
L 77.671008 275.001908 
L 77.673906 274.667328 
L 77.703384 275.049753 
L 77.920137 275.073033 
L 78.017106 275.241342 
L 78.067547 275.21552 
L 78.169158 275.515448 
L 78.614577 276.013743 
L 78.651117 276.274334 
L 78.781812 276.234647 
L 78.912184 276.470088 
L 79.039567 276.469974 
L 79.136022 276.241859 
L 79.150787 276.300717 
L 79.334597 276.387526 
L 79.42654 276.470456 
L 79.48316 276.470881 
L 79.487694 276.768126 
L 79.752563 276.902749 
L 79.923565 277.208473 
L 80.145027 277.230952 
L 80.165857 276.974382 
L 80.244656 277.053282 
L 80.272518 277.054622 
L 80.375024 276.769992 
L 80.379473 276.780682 
L 81.199675 276.983219 
L 81.266389 277.03581 
L 82.199968 277.088677 
L 82.20513 277.313549 
L 82.463806 277.323028 
L 82.46695 277.530625 
L 83.24808 277.658861 
L 83.254387 277.753121 
L 83.359504 277.720738 
L 83.713551 277.860582 
L 83.924203 278.058498 
L 84.218903 278.129454 
L 84.221368 277.911288 
L 84.259635 277.925918 
L 84.648064 278.013415 
L 84.774122 278.108965 
L 84.848361 278.131303 
L 84.864344 277.534212 
L 84.916766 277.637705 
L 85.519235 277.797437 
L 85.61455 277.182377 
L 85.621254 277.198375 
L 85.780524 277.152652 
L 85.787597 276.998976 
L 85.867788 277.061501 
L 86.216075 277.162025 
L 86.229127 277.255967 
L 86.732011 277.361373 
L 86.831789 277.412652 
L 87.601397 277.764311 
L 88.179034 277.932962 
L 88.213075 278.013497 
L 88.826413 278.122482 
L 88.96564 278.208452 
L 89.041835 278.150635 
L 89.383035 278.251814 
L 90.142166 278.369694 
L 90.272762 278.41189 
L 90.341585 278.509531 
L 90.994211 278.61231 
L 91.155689 278.666502 
L 91.629318 278.739039 
L 91.713397 278.772351 
L 92.046556 278.808818 
L 92.048422 278.853286 
L 93.806672 279.101369 
L 93.810646 279.084943 
L 93.865544 279.125351 
L 94.428815 279.262217 
L 94.431661 279.283097 
L 94.679037 279.230621 
L 94.780926 278.813624 
L 95.538215 278.925189 
L 95.579355 278.981972 
L 95.868789 278.976901 
L 95.973611 278.83484 
L 96.153942 278.857908 
L 96.154871 278.819078 
L 97.978143 278.930777 
L 98.400276 279.021967 
L 98.40465 278.973345 
L 98.439655 279.016229 
L 98.740111 279.01776 
L 98.802711 278.18117 
L 98.828027 278.229134 
L 102.127878 278.709718 
L 102.228311 278.401826 
L 102.23116 278.411698 
L 103.113955 278.470546 
L 103.11739 278.513626 
L 104.115454 278.680424 
L 105.382829 278.624164 
L 105.384335 278.602716 
L 105.403124 278.64019 
L 107.160042 278.790306 
L 107.161368 278.357515 
L 107.260387 278.368971 
L 108.778236 278.478514 
L 108.846435 278.330708 
L 108.886388 278.345309 
L 109.216664 278.319139 
L 109.358136 278.137202 
L 109.359495 278.145248 
L 109.874075 278.15184 
L 109.88215 278.005655 
L 110.565099 278.100261 
L 110.625047 277.719583 
L 110.673238 277.75504 
L 111.903958 277.860673 
L 112.015769 277.880031 
L 112.376111 277.874447 
L 112.48343 277.747212 
L 112.483688 277.748679 
L 116.821394 278.081756 
L 116.841463 277.570384 
L 117.816336 277.663204 
L 117.847079 277.692648 
L 119.152916 277.797424 
L 119.263483 277.814659 
L 121.563509 277.850131 
L 121.565728 277.316989 
L 122.552195 277.414614 
L 122.556553 277.44153 
L 126.247753 277.554956 
L 128.589964 277.683742 
L 128.674629 277.324615 
L 129.822459 277.338525 
L 129.854344 277.231099 
L 130.342584 277.202083 
L 130.448431 276.982692 
L 131.507323 277.096784 
L 143.561826 277.786308 
L 143.569361 277.468139 
L 146.587298 277.554125 
L 146.590997 277.115275 
L 146.680933 277.117904 
L 148.410081 277.188181 
L 148.411683 277.032828 
L 148.47879 277.037075 
L 150.35207 277.146254 
L 150.450324 277.127756 
L 151.38534 277.15596 
L 151.389245 277.011316 
L 153.829997 277.117933 
L 154.355959 277.15295 
L 162.256246 277.356272 
L 162.329063 277.362235 
L 162.333491 277.30827 
L 172.057614 277.467626 
L 174.128276 277.506629 
L 174.158682 277.507307 
L 174.32691 277.383025 
L 174.330258 277.385984 
L 181.397898 277.519343 
L 182.195453 277.541811 
L 185.370574 277.646166 
L 185.713745 277.664657 
L 185.81519 277.650294 
L 191.176615 277.702843 
L 191.183452 277.437224 
L 194.44396 277.475238 
L 194.445181 276.84027 
L 195.351928 276.749629 
L 195.450956 276.729857 
L 195.453056 276.731773 
L 200.029725 276.86814 
L 209.079567 277.071869 
L 209.091572 277.086716 
L 211.025709 276.976994 
L 211.095403 276.176438 
L 211.104592 276.186688 
L 215.024231 276.299974 
L 216.029462 276.334346 
L 221.852372 276.465043 
L 231.64336 276.672732 
L 231.703395 276.568942 
L 239.884179 276.711464 
L 239.885041 276.716596 
L 241.037856 276.740006 
L 241.140734 276.512174 
L 244.000445 276.503379 
L 244.000521 276.381482 
L 253.542374 276.347004 
L 253.544807 276.088076 
L 260.358126 276.219393 
L 265.988847 276.337342 
L 266.30393 276.292294 
L 271.026219 276.258456 
L 271.027808 276.213273 
L 281.081943 276.341208 
L 281.189293 276.345882 
L 285.556936 276.459546 
L 285.562931 276.460047 
L 285.56841 276.454185 
L 285.658562 276.45548 
L 291.355665 276.568361 
L 311.291595 276.790423 
L 311.382258 276.735245 
L 312.400035 276.743264 
L 320.984683 276.852573 
L 320.98711 276.85845 
L 321.720046 276.835774 
L 321.720203 274.482987 
L 328.086728 274.596055 
L 328.30239 274.604624 
L 347.115831 274.835912 
L 347.11904 274.843095 
L 398.38894 275.175095 
L 398.38894 275.175095 
" clip-path="url(#p7885adb1e9)" style="fill: none; stroke: #d62728; stroke-width: 1.5; stroke-linecap: square"/>
   </g>
   <g id="line2d_37">
    <path d="M 73.919266 295.488 
L 74.051825 285.527488 
L 74.184693 286.618037 
L 74.349689 286.855045 
L 74.369562 286.73226 
L 74.443212 285.449834 
L 74.444177 267.507305 
L 74.569328 267.62829 
L 74.650779 268.306257 
L 74.651966 264.52972 
L 74.720723 264.729531 
L 75.070277 267.285704 
L 75.072519 269.398559 
L 75.376847 269.95148 
L 75.506607 270.760858 
L 75.511576 270.657776 
L 75.517129 270.512366 
L 75.56094 271.123767 
L 75.634189 271.192569 
L 75.734399 271.601307 
L 76.374913 274.030263 
L 76.487369 274.102889 
L 76.491139 274.00137 
L 76.641591 274.103331 
L 76.646465 273.666422 
L 77.014359 274.139939 
L 77.016391 274.465601 
L 77.310089 274.569842 
L 77.382488 274.215544 
L 77.827966 274.43098 
L 77.831537 274.354915 
L 77.940114 274.689566 
L 78.183182 274.734371 
L 78.183444 274.554993 
L 78.1998 274.557333 
L 78.307695 274.565633 
L 78.311449 274.693121 
L 78.389692 274.689561 
L 78.437205 274.713254 
L 78.441407 272.848158 
L 78.628745 272.876185 
L 78.651503 273.13454 
L 78.840183 273.244962 
L 78.89827 272.522289 
L 78.972191 272.598423 
L 80.025706 274.127002 
L 80.135636 273.905005 
L 80.173333 274.01919 
L 80.512071 274.437036 
L 80.581074 274.433499 
L 80.584073 274.525116 
L 81.058177 274.769519 
L 81.177136 274.980243 
L 81.334541 275.066543 
L 82.276482 275.737675 
L 82.280955 275.692525 
L 82.375289 275.802729 
L 82.65975 275.933123 
L 82.75893 275.278244 
L 82.847098 275.318429 
L 82.979428 275.418042 
L 83.745946 275.961412 
L 84.05927 276.050869 
L 84.061139 276.150919 
L 84.488981 276.29686 
L 84.642019 276.423913 
L 84.666093 276.440371 
L 84.674398 276.641344 
L 85.157765 276.692977 
L 85.237264 276.790523 
L 85.391916 276.808808 
L 85.394926 276.678188 
L 85.462348 276.730408 
L 85.770299 276.837057 
L 86.430198 277.262067 
L 87.054708 277.400695 
L 87.058229 272.801483 
L 87.166587 272.828383 
L 87.514627 273.142335 
L 87.877095 273.252075 
L 87.965465 273.349248 
L 88.188173 273.374822 
L 88.189765 270.387224 
L 88.268434 270.418056 
L 88.769966 270.530307 
L 88.898638 270.620599 
L 89.117313 270.730653 
L 89.182792 270.77634 
L 89.189541 270.408341 
L 89.28045 270.444513 
L 91.33984 271.636753 
L 91.759801 271.716708 
L 91.761569 271.777509 
L 91.864548 271.368673 
L 92.371813 271.504753 
L 93.120384 271.870727 
L 93.146183 271.936414 
L 93.386394 271.985651 
L 93.391383 270.618964 
L 93.500991 270.65191 
L 93.625805 270.734022 
L 94.05264 270.844707 
L 94.26573 270.897509 
L 94.270566 270.855815 
L 94.379337 270.876675 
L 94.43503 270.967681 
L 94.964913 271.114711 
L 95.018775 271.194741 
L 96.153304 271.620211 
L 96.692378 271.789757 
L 96.698842 271.824195 
L 97.738078 271.886041 
L 97.986605 271.998147 
L 98.3808 272.097277 
L 99.161576 272.370611 
L 99.719091 272.486114 
L 99.789009 272.624945 
L 100.299928 272.668143 
L 100.304531 272.560818 
L 100.398377 272.599588 
L 102.271107 272.989435 
L 102.319333 273.03649 
L 103.021062 273.140442 
L 103.18641 273.189504 
L 103.693476 273.161146 
L 103.81972 273.212379 
L 104.261913 273.325419 
L 104.472575 273.380756 
L 104.911152 273.520705 
L 105.357405 273.680139 
L 106.347671 273.788053 
L 106.645396 273.866122 
L 106.645625 273.848564 
L 106.740307 273.854646 
L 106.971345 273.895511 
L 106.974231 273.652102 
L 107.039783 273.700681 
L 108.171445 273.862493 
L 108.385057 273.903783 
L 110.153909 274.087784 
L 110.401189 274.171631 
L 112.262632 274.340855 
L 112.631068 274.398319 
L 113.151965 274.501612 
L 117.401012 275.042113 
L 117.403955 275.083396 
L 120.808508 275.447555 
L 120.812581 274.625644 
L 121.548418 274.710542 
L 121.642809 274.742734 
L 122.248502 274.804232 
L 124.722907 275.015844 
L 124.908904 275.016412 
L 131.589406 275.676043 
L 131.622982 275.655607 
L 131.640245 275.668079 
L 131.982356 275.686527 
L 131.989672 275.50399 
L 132.032495 275.526456 
L 132.952476 275.561905 
L 132.954688 275.53513 
L 133.242891 275.488623 
L 133.248256 274.569503 
L 133.320958 274.577066 
L 134.543004 274.692602 
L 134.660537 274.03348 
L 134.661993 274.035486 
L 134.83355 274.052048 
L 134.906632 274.115164 
L 135.502185 274.149557 
L 135.562416 273.974838 
L 135.592596 273.977469 
L 138.737147 274.242959 
L 139.030984 274.285161 
L 140.365513 274.414835 
L 140.492043 274.423818 
L 143.021891 274.565307 
L 143.154446 274.589993 
L 144.824866 274.717682 
L 147.295384 274.834309 
L 148.387014 274.884688 
L 150.942863 275.031226 
L 151.785962 275.014273 
L 151.848274 274.964088 
L 151.870178 274.972146 
L 152.043269 274.977973 
L 152.044228 274.878183 
L 152.121573 274.890048 
L 153.314886 274.970178 
L 153.679531 275.021357 
L 156.012439 275.131932 
L 157.703228 275.15416 
L 157.809916 275.144937 
L 165.632174 275.541508 
L 166.068823 275.575916 
L 173.489242 275.833186 
L 173.549463 275.730058 
L 173.550978 275.734131 
L 174.05406 275.757518 
L 175.964118 275.869876 
L 176.07483 275.880747 
L 179.635494 275.915734 
L 179.639701 275.451237 
L 179.738524 275.467574 
L 181.833849 275.409721 
L 181.834048 275.150162 
L 184.277051 275.258427 
L 184.27997 275.27175 
L 184.767658 275.300248 
L 184.930393 275.174773 
L 188.130464 275.245696 
L 192.703657 275.425236 
L 192.707307 275.41054 
L 200.966836 275.592425 
L 201.151926 275.563406 
L 211.607103 275.804172 
L 213.789227 275.898707 
L 224.241355 276.123412 
L 224.83215 276.160252 
L 226.175895 276.173843 
L 227.289944 276.173415 
L 227.383315 276.058245 
L 227.401804 276.062785 
L 243.72166 276.38426 
L 244.272376 276.366386 
L 244.273037 275.798404 
L 257.726723 275.944146 
L 258.411283 275.92877 
L 260.185693 275.981309 
L 260.188275 275.821532 
L 262.032543 275.747303 
L 262.135446 275.645143 
L 262.143655 275.647693 
L 270.194354 275.755239 
L 270.790982 275.773357 
L 274.961262 275.89289 
L 291.2375 276.191205 
L 291.312503 276.001098 
L 302.483923 276.17134 
L 304.40608 276.224036 
L 327.757873 276.325284 
L 331.931021 276.407864 
L 334.768102 276.440452 
L 341.612477 276.356845 
L 341.61576 276.347775 
L 341.631276 276.350389 
L 359.936179 276.464888 
L 360.061819 276.473234 
L 398.419698 276.451912 
L 398.419698 276.451912 
" clip-path="url(#p7885adb1e9)" style="fill: none; stroke: #9467bd; stroke-width: 1.5; stroke-linecap: square"/>
   </g>
   <g id="patch_3">
    <path d="M 57.6 307.584 
L 57.6 41.472 
" style="fill: none; stroke: #000000; stroke-width: 0.8; stroke-linejoin: miter; stroke-linecap: square"/>
   </g>
   <g id="patch_4">
    <path d="M 414.72 307.584 
L 414.72 41.472 
" style="fill: none; stroke: #000000; stroke-width: 0.8; stroke-linejoin: miter; stroke-linecap: square"/>
   </g>
   <g id="patch_5">
    <path d="M 57.6 307.584 
L 414.72 307.584 
" style="fill: none; stroke: #000000; stroke-width: 0.8; stroke-linejoin: miter; stroke-linecap: square"/>
   </g>
   <g id="patch_6">
    <path d="M 57.6 41.472 
L 414.72 41.472 
" style="fill: none; stroke: #000000; stroke-width: 0.8; stroke-linejoin: miter; stroke-linecap: square"/>
   </g>
   <g id="text_19">
    <!-- timeWaitAllocateStdDev vs. TimePoint for Each Run -->
    <g transform="translate(81.380625 35.472) scale(0.12 -0.12)">
     <defs>
      <path id="DejaVuSans-20" transform="scale(0.015625)"/>
      <path id="DejaVuSans-73" d="M 2834 3397 
L 2834 2853 
Q 2591 2978 2328 3040 
Q 2066 3103 1784 3103 
Q 1356 3103 1142 2972 
Q 928 2841 928 2578 
Q 928 2378 1081 2264 
Q 1234 2150 1697 2047 
L 1894 2003 
Q 2506 1872 2764 1633 
Q 3022 1394 3022 966 
Q 3022 478 2636 193 
Q 2250 -91 1575 -91 
Q 1294 -91 989 -36 
Q 684 19 347 128 
L 347 722 
Q 666 556 975 473 
Q 1284 391 1588 391 
Q 1994 391 2212 530 
Q 2431 669 2431 922 
Q 2431 1156 2273 1281 
Q 2116 1406 1581 1522 
L 1381 1569 
Q 847 1681 609 1914 
Q 372 2147 372 2553 
Q 372 3047 722 3315 
Q 1072 3584 1716 3584 
Q 2034 3584 2315 3537 
Q 2597 3491 2834 3397 
z
" transform="scale(0.015625)"/>
      <path id="DejaVuSans-2e" d="M 684 794 
L 1344 794 
L 1344 0 
L 684 0 
L 684 794 
z
" transform="scale(0.015625)"/>
      <path id="DejaVuSans-66" d="M 2375 4863 
L 2375 4384 
L 1825 4384 
Q 1516 4384 1395 4259 
Q 1275 4134 1275 3809 
L 1275 3500 
L 2222 3500 
L 2222 3053 
L 1275 3053 
L 1275 0 
L 697 0 
L 697 3053 
L 147 3053 
L 147 3500 
L 697 3500 
L 697 3744 
Q 697 4328 969 4595 
Q 1241 4863 1831 4863 
L 2375 4863 
z
" transform="scale(0.015625)"/>
      <path id="DejaVuSans-72" d="M 2631 2963 
Q 2534 3019 2420 3045 
Q 2306 3072 2169 3072 
Q 1681 3072 1420 2755 
Q 1159 2438 1159 1844 
L 1159 0 
L 581 0 
L 581 3500 
L 1159 3500 
L 1159 2956 
Q 1341 3275 1631 3429 
Q 1922 3584 2338 3584 
Q 2397 3584 2469 3576 
Q 2541 3569 2628 3553 
L 2631 2963 
z
" transform="scale(0.015625)"/>
      <path id="DejaVuSans-45" d="M 628 4666 
L 3578 4666 
L 3578 4134 
L 1259 4134 
L 1259 2753 
L 3481 2753 
L 3481 2222 
L 1259 2222 
L 1259 531 
L 3634 531 
L 3634 0 
L 628 0 
L 628 4666 
z
" transform="scale(0.015625)"/>
      <path id="DejaVuSans-68" d="M 3513 2113 
L 3513 0 
L 2938 0 
L 2938 2094 
Q 2938 2591 2744 2837 
Q 2550 3084 2163 3084 
Q 1697 3084 1428 2787 
Q 1159 2491 1159 1978 
L 1159 0 
L 581 0 
L 581 4863 
L 1159 4863 
L 1159 2956 
Q 1366 3272 1645 3428 
Q 1925 3584 2291 3584 
Q 2894 3584 3203 3211 
Q 3513 2838 3513 2113 
z
" transform="scale(0.015625)"/>
      <path id="DejaVuSans-52" d="M 2841 2188 
Q 3044 2119 3236 1894 
Q 3428 1669 3622 1275 
L 4263 0 
L 3584 0 
L 2988 1197 
Q 2756 1666 2539 1819 
Q 2322 1972 1947 1972 
L 1259 1972 
L 1259 0 
L 628 0 
L 628 4666 
L 2053 4666 
Q 2853 4666 3247 4331 
Q 3641 3997 3641 3322 
Q 3641 2881 3436 2590 
Q 3231 2300 2841 2188 
z
M 1259 4147 
L 1259 2491 
L 2053 2491 
Q 2509 2491 2742 2702 
Q 2975 2913 2975 3322 
Q 2975 3731 2742 3939 
Q 2509 4147 2053 4147 
L 1259 4147 
z
" transform="scale(0.015625)"/>
      <path id="DejaVuSans-75" d="M 544 1381 
L 544 3500 
L 1119 3500 
L 1119 1403 
Q 1119 906 1312 657 
Q 1506 409 1894 409 
Q 2359 409 2629 706 
Q 2900 1003 2900 1516 
L 2900 3500 
L 3475 3500 
L 3475 0 
L 2900 0 
L 2900 538 
Q 2691 219 2414 64 
Q 2138 -91 1772 -91 
Q 1169 -91 856 284 
Q 544 659 544 1381 
z
M 1991 3584 
L 1991 3584 
z
" transform="scale(0.015625)"/>
     </defs>
     <use xlink:href="#DejaVuSans-74"/>
     <use xlink:href="#DejaVuSans-69" x="39.208984"/>
     <use xlink:href="#DejaVuSans-6d" x="66.992188"/>
     <use xlink:href="#DejaVuSans-65" x="164.404297"/>
     <use xlink:href="#DejaVuSans-57" x="225.927734"/>
     <use xlink:href="#DejaVuSans-61" x="318.429688"/>
     <use xlink:href="#DejaVuSans-69" x="379.708984"/>
     <use xlink:href="#DejaVuSans-74" x="407.492188"/>
     <use xlink:href="#DejaVuSans-41" x="446.701172"/>
     <use xlink:href="#DejaVuSans-6c" x="515.109375"/>
     <use xlink:href="#DejaVuSans-6c" x="542.892578"/>
     <use xlink:href="#DejaVuSans-6f" x="570.675781"/>
     <use xlink:href="#DejaVuSans-63" x="631.857422"/>
     <use xlink:href="#DejaVuSans-61" x="686.837891"/>
     <use xlink:href="#DejaVuSans-74" x="748.117188"/>
     <use xlink:href="#DejaVuSans-65" x="787.326172"/>
     <use xlink:href="#DejaVuSans-53" x="848.849609"/>
     <use xlink:href="#DejaVuSans-74" x="912.326172"/>
     <use xlink:href="#DejaVuSans-64" x="951.535156"/>
     <use xlink:href="#DejaVuSans-44" x="1015.011719"/>
     <use xlink:href="#DejaVuSans-65" x="1092.013672"/>
     <use xlink:href="#DejaVuSans-76" x="1153.537109"/>
     <use xlink:href="#DejaVuSans-20" x="1212.716797"/>
     <use xlink:href="#DejaVuSans-76" x="1244.503906"/>
     <use xlink:href="#DejaVuSans-73" x="1303.683594"/>
     <use xlink:href="#DejaVuSans-2e" x="1355.783203"/>
     <use xlink:href="#DejaVuSans-20" x="1387.570312"/>
     <use xlink:href="#DejaVuSans-54" x="1419.357422"/>
     <use xlink:href="#DejaVuSans-69" x="1477.316406"/>
     <use xlink:href="#DejaVuSans-6d" x="1505.099609"/>
     <use xlink:href="#DejaVuSans-65" x="1602.511719"/>
     <use xlink:href="#DejaVuSans-50" x="1664.035156"/>
     <use xlink:href="#DejaVuSans-6f" x="1720.712891"/>
     <use xlink:href="#DejaVuSans-69" x="1781.894531"/>
     <use xlink:href="#DejaVuSans-6e" x="1809.677734"/>
     <use xlink:href="#DejaVuSans-74" x="1873.056641"/>
     <use xlink:href="#DejaVuSans-20" x="1912.265625"/>
     <use xlink:href="#DejaVuSans-66" x="1944.052734"/>
     <use xlink:href="#DejaVuSans-6f" x="1979.257812"/>
     <use xlink:href="#DejaVuSans-72" x="2040.439453"/>
     <use xlink:href="#DejaVuSans-20" x="2081.552734"/>
     <use xlink:href="#DejaVuSans-45" x="2113.339844"/>
     <use xlink:href="#DejaVuSans-61" x="2176.523438"/>
     <use xlink:href="#DejaVuSans-63" x="2237.802734"/>
     <use xlink:href="#DejaVuSans-68" x="2292.783203"/>
     <use xlink:href="#DejaVuSans-20" x="2356.162109"/>
     <use xlink:href="#DejaVuSans-52" x="2387.949219"/>
     <use xlink:href="#DejaVuSans-75" x="2452.931641"/>
     <use xlink:href="#DejaVuSans-6e" x="2516.310547"/>
    </g>
   </g>
   <g id="legend_1">
    <g id="patch_7">
     <path d="M 341.196563 137.54075 
L 407.72 137.54075 
Q 409.72 137.54075 409.72 135.54075 
L 409.72 48.472 
Q 409.72 46.472 407.72 46.472 
L 341.196563 46.472 
Q 339.196563 46.472 339.196563 48.472 
L 339.196563 135.54075 
Q 339.196563 137.54075 341.196563 137.54075 
z
" style="fill: #ffffff; opacity: 0.8; stroke: #cccccc; stroke-linejoin: miter"/>
    </g>
    <g id="text_20">
     <!-- Run Number -->
     <g transform="translate(343.196563 58.070438) scale(0.1 -0.1)">
      <defs>
       <path id="DejaVuSans-4e" d="M 628 4666 
L 1478 4666 
L 3547 763 
L 3547 4666 
L 4159 4666 
L 4159 0 
L 3309 0 
L 1241 3903 
L 1241 0 
L 628 0 
L 628 4666 
z
" transform="scale(0.015625)"/>
       <path id="DejaVuSans-62" d="M 3116 1747 
Q 3116 2381 2855 2742 
Q 2594 3103 2138 3103 
Q 1681 3103 1420 2742 
Q 1159 2381 1159 1747 
Q 1159 1113 1420 752 
Q 1681 391 2138 391 
Q 2594 391 2855 752 
Q 3116 1113 3116 1747 
z
M 1159 2969 
Q 1341 3281 1617 3432 
Q 1894 3584 2278 3584 
Q 2916 3584 3314 3078 
Q 3713 2572 3713 1747 
Q 3713 922 3314 415 
Q 2916 -91 2278 -91 
Q 1894 -91 1617 61 
Q 1341 213 1159 525 
L 1159 0 
L 581 0 
L 581 4863 
L 1159 4863 
L 1159 2969 
z
" transform="scale(0.015625)"/>
      </defs>
      <use xlink:href="#DejaVuSans-52"/>
      <use xlink:href="#DejaVuSans-75" x="64.982422"/>
      <use xlink:href="#DejaVuSans-6e" x="128.361328"/>
      <use xlink:href="#DejaVuSans-20" x="191.740234"/>
      <use xlink:href="#DejaVuSans-4e" x="223.527344"/>
      <use xlink:href="#DejaVuSans-75" x="298.332031"/>
      <use xlink:href="#DejaVuSans-6d" x="361.710938"/>
      <use xlink:href="#DejaVuSans-62" x="459.123047"/>
      <use xlink:href="#DejaVuSans-65" x="522.599609"/>
      <use xlink:href="#DejaVuSans-72" x="584.123047"/>
     </g>
    </g>
    <g id="line2d_38">
     <path d="M 346.10125 69.248563 
L 356.10125 69.248563 
L 366.10125 69.248563 
" style="fill: none; stroke: #1f77b4; stroke-width: 1.5; stroke-linecap: square"/>
    </g>
    <g id="text_21">
     <!-- Run 0 -->
     <g transform="translate(374.10125 72.748563) scale(0.1 -0.1)">
      <use xlink:href="#DejaVuSans-52"/>
      <use xlink:href="#DejaVuSans-75" x="64.982422"/>
      <use xlink:href="#DejaVuSans-6e" x="128.361328"/>
      <use xlink:href="#DejaVuSans-20" x="191.740234"/>
      <use xlink:href="#DejaVuSans-30" x="223.527344"/>
     </g>
    </g>
    <g id="line2d_39">
     <path d="M 346.10125 83.926688 
L 356.10125 83.926688 
L 366.10125 83.926688 
" style="fill: none; stroke: #ff7f0e; stroke-width: 1.5; stroke-linecap: square"/>
    </g>
    <g id="text_22">
     <!-- Run 1 -->
     <g transform="translate(374.10125 87.426688) scale(0.1 -0.1)">
      <use xlink:href="#DejaVuSans-52"/>
      <use xlink:href="#DejaVuSans-75" x="64.982422"/>
      <use xlink:href="#DejaVuSans-6e" x="128.361328"/>
      <use xlink:href="#DejaVuSans-20" x="191.740234"/>
      <use xlink:href="#DejaVuSans-31" x="223.527344"/>
     </g>
    </g>
    <g id="line2d_40">
     <path d="M 346.10125 98.604813 
L 356.10125 98.604813 
L 366.10125 98.604813 
" style="fill: none; stroke: #2ca02c; stroke-width: 1.5; stroke-linecap: square"/>
    </g>
    <g id="text_23">
     <!-- Run 2 -->
     <g transform="translate(374.10125 102.104813) scale(0.1 -0.1)">
      <use xlink:href="#DejaVuSans-52"/>
      <use xlink:href="#DejaVuSans-75" x="64.982422"/>
      <use xlink:href="#DejaVuSans-6e" x="128.361328"/>
      <use xlink:href="#DejaVuSans-20" x="191.740234"/>
      <use xlink:href="#DejaVuSans-32" x="223.527344"/>
     </g>
    </g>
    <g id="line2d_41">
     <path d="M 346.10125 113.282938 
L 356.10125 113.282938 
L 366.10125 113.282938 
" style="fill: none; stroke: #d62728; stroke-width: 1.5; stroke-linecap: square"/>
    </g>
    <g id="text_24">
     <!-- Run 3 -->
     <g transform="translate(374.10125 116.782938) scale(0.1 -0.1)">
      <use xlink:href="#DejaVuSans-52"/>
      <use xlink:href="#DejaVuSans-75" x="64.982422"/>
      <use xlink:href="#DejaVuSans-6e" x="128.361328"/>
      <use xlink:href="#DejaVuSans-20" x="191.740234"/>
      <use xlink:href="#DejaVuSans-33" x="223.527344"/>
     </g>
    </g>
    <g id="line2d_42">
     <path d="M 346.10125 127.961063 
L 356.10125 127.961063 
L 366.10125 127.961063 
" style="fill: none; stroke: #9467bd; stroke-width: 1.5; stroke-linecap: square"/>
    </g>
    <g id="text_25">
     <!-- Run 4 -->
     <g transform="translate(374.10125 131.461063) scale(0.1 -0.1)">
      <use xlink:href="#DejaVuSans-52"/>
      <use xlink:href="#DejaVuSans-75" x="64.982422"/>
      <use xlink:href="#DejaVuSans-6e" x="128.361328"/>
      <use xlink:href="#DejaVuSans-20" x="191.740234"/>
      <use xlink:href="#DejaVuSans-34" x="223.527344"/>
     </g>
    </g>
   </g>
  </g>
 </g>
 <defs>
  <clipPath id="p7885adb1e9">
   <rect x="57.6" y="41.472" width="357.12" height="266.112"/>
  </clipPath>
 </defs>
</svg>
