<?xml version="1.0" encoding="utf-8" standalone="no"?>
<!DOCTYPE svg PUBLIC "-//W3C//DTD SVG 1.1//EN"
  "http://www.w3.org/Graphics/SVG/1.1/DTD/svg11.dtd">
<svg xmlns:xlink="http://www.w3.org/1999/xlink" width="460.8pt" height="345.6pt" viewBox="0 0 460.8 345.6" xmlns="http://www.w3.org/2000/svg" version="1.1">
 <metadata>
  <rdf:RDF xmlns:dc="http://purl.org/dc/elements/1.1/" xmlns:cc="http://creativecommons.org/ns#" xmlns:rdf="http://www.w3.org/1999/02/22-rdf-syntax-ns#">
   <cc:Work>
    <dc:type rdf:resource="http://purl.org/dc/dcmitype/StillImage"/>
    <dc:date>2024-12-03T12:49:26.160592</dc:date>
    <dc:format>image/svg+xml</dc:format>
    <dc:creator>
     <cc:Agent>
      <dc:title>Matplotlib v3.9.2, https://matplotlib.org/</dc:title>
     </cc:Agent>
    </dc:creator>
   </cc:Work>
  </rdf:RDF>
 </metadata>
 <defs>
  <style type="text/css">*{stroke-linejoin: round; stroke-linecap: butt}</style>
 </defs>
 <g id="figure_1">
  <g id="patch_1">
   <path d="M 0 345.6 
L 460.8 345.6 
L 460.8 0 
L 0 0 
z
" style="fill: #ffffff"/>
  </g>
  <g id="axes_1">
   <g id="patch_2">
    <path d="M 57.6 307.584 
L 414.72 307.584 
L 414.72 41.472 
L 57.6 41.472 
z
" style="fill: #ffffff"/>
   </g>
   <g id="matplotlib.axis_1">
    <g id="xtick_1">
     <g id="line2d_1">
      <path d="M 73.832727 307.584 
L 73.832727 41.472 
" clip-path="url(#pe3e98b9f7d)" style="fill: none; stroke: #b0b0b0; stroke-width: 0.8; stroke-linecap: square"/>
     </g>
     <g id="line2d_2">
      <defs>
       <path id="m1c98f12a25" d="M 0 0 
L 0 3.5 
" style="stroke: #000000; stroke-width: 0.8"/>
      </defs>
      <g>
       <use xlink:href="#m1c98f12a25" x="73.832727" y="307.584" style="stroke: #000000; stroke-width: 0.8"/>
      </g>
     </g>
     <g id="text_1">
      <!-- 0 -->
      <g transform="translate(70.651477 322.182437) scale(0.1 -0.1)">
       <defs>
        <path id="DejaVuSans-30" d="M 2034 4250 
Q 1547 4250 1301 3770 
Q 1056 3291 1056 2328 
Q 1056 1369 1301 889 
Q 1547 409 2034 409 
Q 2525 409 2770 889 
Q 3016 1369 3016 2328 
Q 3016 3291 2770 3770 
Q 2525 4250 2034 4250 
z
M 2034 4750 
Q 2819 4750 3233 4129 
Q 3647 3509 3647 2328 
Q 3647 1150 3233 529 
Q 2819 -91 2034 -91 
Q 1250 -91 836 529 
Q 422 1150 422 2328 
Q 422 3509 836 4129 
Q 1250 4750 2034 4750 
z
" transform="scale(0.015625)"/>
       </defs>
       <use xlink:href="#DejaVuSans-30"/>
      </g>
     </g>
    </g>
    <g id="xtick_2">
     <g id="line2d_3">
      <path d="M 114.41458 307.584 
L 114.41458 41.472 
" clip-path="url(#pe3e98b9f7d)" style="fill: none; stroke: #b0b0b0; stroke-width: 0.8; stroke-linecap: square"/>
     </g>
     <g id="line2d_4">
      <g>
       <use xlink:href="#m1c98f12a25" x="114.41458" y="307.584" style="stroke: #000000; stroke-width: 0.8"/>
      </g>
     </g>
     <g id="text_2">
      <!-- 100000 -->
      <g transform="translate(95.32708 322.182437) scale(0.1 -0.1)">
       <defs>
        <path id="DejaVuSans-31" d="M 794 531 
L 1825 531 
L 1825 4091 
L 703 3866 
L 703 4441 
L 1819 4666 
L 2450 4666 
L 2450 531 
L 3481 531 
L 3481 0 
L 794 0 
L 794 531 
z
" transform="scale(0.015625)"/>
       </defs>
       <use xlink:href="#DejaVuSans-31"/>
       <use xlink:href="#DejaVuSans-30" x="63.623047"/>
       <use xlink:href="#DejaVuSans-30" x="127.246094"/>
       <use xlink:href="#DejaVuSans-30" x="190.869141"/>
       <use xlink:href="#DejaVuSans-30" x="254.492188"/>
       <use xlink:href="#DejaVuSans-30" x="318.115234"/>
      </g>
     </g>
    </g>
    <g id="xtick_3">
     <g id="line2d_5">
      <path d="M 154.996433 307.584 
L 154.996433 41.472 
" clip-path="url(#pe3e98b9f7d)" style="fill: none; stroke: #b0b0b0; stroke-width: 0.8; stroke-linecap: square"/>
     </g>
     <g id="line2d_6">
      <g>
       <use xlink:href="#m1c98f12a25" x="154.996433" y="307.584" style="stroke: #000000; stroke-width: 0.8"/>
      </g>
     </g>
     <g id="text_3">
      <!-- 200000 -->
      <g transform="translate(135.908933 322.182437) scale(0.1 -0.1)">
       <defs>
        <path id="DejaVuSans-32" d="M 1228 531 
L 3431 531 
L 3431 0 
L 469 0 
L 469 531 
Q 828 903 1448 1529 
Q 2069 2156 2228 2338 
Q 2531 2678 2651 2914 
Q 2772 3150 2772 3378 
Q 2772 3750 2511 3984 
Q 2250 4219 1831 4219 
Q 1534 4219 1204 4116 
Q 875 4013 500 3803 
L 500 4441 
Q 881 4594 1212 4672 
Q 1544 4750 1819 4750 
Q 2544 4750 2975 4387 
Q 3406 4025 3406 3419 
Q 3406 3131 3298 2873 
Q 3191 2616 2906 2266 
Q 2828 2175 2409 1742 
Q 1991 1309 1228 531 
z
" transform="scale(0.015625)"/>
       </defs>
       <use xlink:href="#DejaVuSans-32"/>
       <use xlink:href="#DejaVuSans-30" x="63.623047"/>
       <use xlink:href="#DejaVuSans-30" x="127.246094"/>
       <use xlink:href="#DejaVuSans-30" x="190.869141"/>
       <use xlink:href="#DejaVuSans-30" x="254.492188"/>
       <use xlink:href="#DejaVuSans-30" x="318.115234"/>
      </g>
     </g>
    </g>
    <g id="xtick_4">
     <g id="line2d_7">
      <path d="M 195.578286 307.584 
L 195.578286 41.472 
" clip-path="url(#pe3e98b9f7d)" style="fill: none; stroke: #b0b0b0; stroke-width: 0.8; stroke-linecap: square"/>
     </g>
     <g id="line2d_8">
      <g>
       <use xlink:href="#m1c98f12a25" x="195.578286" y="307.584" style="stroke: #000000; stroke-width: 0.8"/>
      </g>
     </g>
     <g id="text_4">
      <!-- 300000 -->
      <g transform="translate(176.490786 322.182437) scale(0.1 -0.1)">
       <defs>
        <path id="DejaVuSans-33" d="M 2597 2516 
Q 3050 2419 3304 2112 
Q 3559 1806 3559 1356 
Q 3559 666 3084 287 
Q 2609 -91 1734 -91 
Q 1441 -91 1130 -33 
Q 819 25 488 141 
L 488 750 
Q 750 597 1062 519 
Q 1375 441 1716 441 
Q 2309 441 2620 675 
Q 2931 909 2931 1356 
Q 2931 1769 2642 2001 
Q 2353 2234 1838 2234 
L 1294 2234 
L 1294 2753 
L 1863 2753 
Q 2328 2753 2575 2939 
Q 2822 3125 2822 3475 
Q 2822 3834 2567 4026 
Q 2313 4219 1838 4219 
Q 1578 4219 1281 4162 
Q 984 4106 628 3988 
L 628 4550 
Q 988 4650 1302 4700 
Q 1616 4750 1894 4750 
Q 2613 4750 3031 4423 
Q 3450 4097 3450 3541 
Q 3450 3153 3228 2886 
Q 3006 2619 2597 2516 
z
" transform="scale(0.015625)"/>
       </defs>
       <use xlink:href="#DejaVuSans-33"/>
       <use xlink:href="#DejaVuSans-30" x="63.623047"/>
       <use xlink:href="#DejaVuSans-30" x="127.246094"/>
       <use xlink:href="#DejaVuSans-30" x="190.869141"/>
       <use xlink:href="#DejaVuSans-30" x="254.492188"/>
       <use xlink:href="#DejaVuSans-30" x="318.115234"/>
      </g>
     </g>
    </g>
    <g id="xtick_5">
     <g id="line2d_9">
      <path d="M 236.160139 307.584 
L 236.160139 41.472 
" clip-path="url(#pe3e98b9f7d)" style="fill: none; stroke: #b0b0b0; stroke-width: 0.8; stroke-linecap: square"/>
     </g>
     <g id="line2d_10">
      <g>
       <use xlink:href="#m1c98f12a25" x="236.160139" y="307.584" style="stroke: #000000; stroke-width: 0.8"/>
      </g>
     </g>
     <g id="text_5">
      <!-- 400000 -->
      <g transform="translate(217.072639 322.182437) scale(0.1 -0.1)">
       <defs>
        <path id="DejaVuSans-34" d="M 2419 4116 
L 825 1625 
L 2419 1625 
L 2419 4116 
z
M 2253 4666 
L 3047 4666 
L 3047 1625 
L 3713 1625 
L 3713 1100 
L 3047 1100 
L 3047 0 
L 2419 0 
L 2419 1100 
L 313 1100 
L 313 1709 
L 2253 4666 
z
" transform="scale(0.015625)"/>
       </defs>
       <use xlink:href="#DejaVuSans-34"/>
       <use xlink:href="#DejaVuSans-30" x="63.623047"/>
       <use xlink:href="#DejaVuSans-30" x="127.246094"/>
       <use xlink:href="#DejaVuSans-30" x="190.869141"/>
       <use xlink:href="#DejaVuSans-30" x="254.492188"/>
       <use xlink:href="#DejaVuSans-30" x="318.115234"/>
      </g>
     </g>
    </g>
    <g id="xtick_6">
     <g id="line2d_11">
      <path d="M 276.741992 307.584 
L 276.741992 41.472 
" clip-path="url(#pe3e98b9f7d)" style="fill: none; stroke: #b0b0b0; stroke-width: 0.8; stroke-linecap: square"/>
     </g>
     <g id="line2d_12">
      <g>
       <use xlink:href="#m1c98f12a25" x="276.741992" y="307.584" style="stroke: #000000; stroke-width: 0.8"/>
      </g>
     </g>
     <g id="text_6">
      <!-- 500000 -->
      <g transform="translate(257.654492 322.182437) scale(0.1 -0.1)">
       <defs>
        <path id="DejaVuSans-35" d="M 691 4666 
L 3169 4666 
L 3169 4134 
L 1269 4134 
L 1269 2991 
Q 1406 3038 1543 3061 
Q 1681 3084 1819 3084 
Q 2600 3084 3056 2656 
Q 3513 2228 3513 1497 
Q 3513 744 3044 326 
Q 2575 -91 1722 -91 
Q 1428 -91 1123 -41 
Q 819 9 494 109 
L 494 744 
Q 775 591 1075 516 
Q 1375 441 1709 441 
Q 2250 441 2565 725 
Q 2881 1009 2881 1497 
Q 2881 1984 2565 2268 
Q 2250 2553 1709 2553 
Q 1456 2553 1204 2497 
Q 953 2441 691 2322 
L 691 4666 
z
" transform="scale(0.015625)"/>
       </defs>
       <use xlink:href="#DejaVuSans-35"/>
       <use xlink:href="#DejaVuSans-30" x="63.623047"/>
       <use xlink:href="#DejaVuSans-30" x="127.246094"/>
       <use xlink:href="#DejaVuSans-30" x="190.869141"/>
       <use xlink:href="#DejaVuSans-30" x="254.492188"/>
       <use xlink:href="#DejaVuSans-30" x="318.115234"/>
      </g>
     </g>
    </g>
    <g id="xtick_7">
     <g id="line2d_13">
      <path d="M 317.323845 307.584 
L 317.323845 41.472 
" clip-path="url(#pe3e98b9f7d)" style="fill: none; stroke: #b0b0b0; stroke-width: 0.8; stroke-linecap: square"/>
     </g>
     <g id="line2d_14">
      <g>
       <use xlink:href="#m1c98f12a25" x="317.323845" y="307.584" style="stroke: #000000; stroke-width: 0.8"/>
      </g>
     </g>
     <g id="text_7">
      <!-- 600000 -->
      <g transform="translate(298.236345 322.182437) scale(0.1 -0.1)">
       <defs>
        <path id="DejaVuSans-36" d="M 2113 2584 
Q 1688 2584 1439 2293 
Q 1191 2003 1191 1497 
Q 1191 994 1439 701 
Q 1688 409 2113 409 
Q 2538 409 2786 701 
Q 3034 994 3034 1497 
Q 3034 2003 2786 2293 
Q 2538 2584 2113 2584 
z
M 3366 4563 
L 3366 3988 
Q 3128 4100 2886 4159 
Q 2644 4219 2406 4219 
Q 1781 4219 1451 3797 
Q 1122 3375 1075 2522 
Q 1259 2794 1537 2939 
Q 1816 3084 2150 3084 
Q 2853 3084 3261 2657 
Q 3669 2231 3669 1497 
Q 3669 778 3244 343 
Q 2819 -91 2113 -91 
Q 1303 -91 875 529 
Q 447 1150 447 2328 
Q 447 3434 972 4092 
Q 1497 4750 2381 4750 
Q 2619 4750 2861 4703 
Q 3103 4656 3366 4563 
z
" transform="scale(0.015625)"/>
       </defs>
       <use xlink:href="#DejaVuSans-36"/>
       <use xlink:href="#DejaVuSans-30" x="63.623047"/>
       <use xlink:href="#DejaVuSans-30" x="127.246094"/>
       <use xlink:href="#DejaVuSans-30" x="190.869141"/>
       <use xlink:href="#DejaVuSans-30" x="254.492188"/>
       <use xlink:href="#DejaVuSans-30" x="318.115234"/>
      </g>
     </g>
    </g>
    <g id="xtick_8">
     <g id="line2d_15">
      <path d="M 357.905698 307.584 
L 357.905698 41.472 
" clip-path="url(#pe3e98b9f7d)" style="fill: none; stroke: #b0b0b0; stroke-width: 0.8; stroke-linecap: square"/>
     </g>
     <g id="line2d_16">
      <g>
       <use xlink:href="#m1c98f12a25" x="357.905698" y="307.584" style="stroke: #000000; stroke-width: 0.8"/>
      </g>
     </g>
     <g id="text_8">
      <!-- 700000 -->
      <g transform="translate(338.818198 322.182437) scale(0.1 -0.1)">
       <defs>
        <path id="DejaVuSans-37" d="M 525 4666 
L 3525 4666 
L 3525 4397 
L 1831 0 
L 1172 0 
L 2766 4134 
L 525 4134 
L 525 4666 
z
" transform="scale(0.015625)"/>
       </defs>
       <use xlink:href="#DejaVuSans-37"/>
       <use xlink:href="#DejaVuSans-30" x="63.623047"/>
       <use xlink:href="#DejaVuSans-30" x="127.246094"/>
       <use xlink:href="#DejaVuSans-30" x="190.869141"/>
       <use xlink:href="#DejaVuSans-30" x="254.492188"/>
       <use xlink:href="#DejaVuSans-30" x="318.115234"/>
      </g>
     </g>
    </g>
    <g id="xtick_9">
     <g id="line2d_17">
      <path d="M 398.487551 307.584 
L 398.487551 41.472 
" clip-path="url(#pe3e98b9f7d)" style="fill: none; stroke: #b0b0b0; stroke-width: 0.8; stroke-linecap: square"/>
     </g>
     <g id="line2d_18">
      <g>
       <use xlink:href="#m1c98f12a25" x="398.487551" y="307.584" style="stroke: #000000; stroke-width: 0.8"/>
      </g>
     </g>
     <g id="text_9">
      <!-- 800000 -->
      <g transform="translate(379.400051 322.182437) scale(0.1 -0.1)">
       <defs>
        <path id="DejaVuSans-38" d="M 2034 2216 
Q 1584 2216 1326 1975 
Q 1069 1734 1069 1313 
Q 1069 891 1326 650 
Q 1584 409 2034 409 
Q 2484 409 2743 651 
Q 3003 894 3003 1313 
Q 3003 1734 2745 1975 
Q 2488 2216 2034 2216 
z
M 1403 2484 
Q 997 2584 770 2862 
Q 544 3141 544 3541 
Q 544 4100 942 4425 
Q 1341 4750 2034 4750 
Q 2731 4750 3128 4425 
Q 3525 4100 3525 3541 
Q 3525 3141 3298 2862 
Q 3072 2584 2669 2484 
Q 3125 2378 3379 2068 
Q 3634 1759 3634 1313 
Q 3634 634 3220 271 
Q 2806 -91 2034 -91 
Q 1263 -91 848 271 
Q 434 634 434 1313 
Q 434 1759 690 2068 
Q 947 2378 1403 2484 
z
M 1172 3481 
Q 1172 3119 1398 2916 
Q 1625 2713 2034 2713 
Q 2441 2713 2670 2916 
Q 2900 3119 2900 3481 
Q 2900 3844 2670 4047 
Q 2441 4250 2034 4250 
Q 1625 4250 1398 4047 
Q 1172 3844 1172 3481 
z
" transform="scale(0.015625)"/>
       </defs>
       <use xlink:href="#DejaVuSans-38"/>
       <use xlink:href="#DejaVuSans-30" x="63.623047"/>
       <use xlink:href="#DejaVuSans-30" x="127.246094"/>
       <use xlink:href="#DejaVuSans-30" x="190.869141"/>
       <use xlink:href="#DejaVuSans-30" x="254.492188"/>
       <use xlink:href="#DejaVuSans-30" x="318.115234"/>
      </g>
     </g>
    </g>
    <g id="text_10">
     <!-- TimePoint -->
     <g transform="translate(211.515469 335.860562) scale(0.1 -0.1)">
      <defs>
       <path id="DejaVuSans-54" d="M -19 4666 
L 3928 4666 
L 3928 4134 
L 2272 4134 
L 2272 0 
L 1638 0 
L 1638 4134 
L -19 4134 
L -19 4666 
z
" transform="scale(0.015625)"/>
       <path id="DejaVuSans-69" d="M 603 3500 
L 1178 3500 
L 1178 0 
L 603 0 
L 603 3500 
z
M 603 4863 
L 1178 4863 
L 1178 4134 
L 603 4134 
L 603 4863 
z
" transform="scale(0.015625)"/>
       <path id="DejaVuSans-6d" d="M 3328 2828 
Q 3544 3216 3844 3400 
Q 4144 3584 4550 3584 
Q 5097 3584 5394 3201 
Q 5691 2819 5691 2113 
L 5691 0 
L 5113 0 
L 5113 2094 
Q 5113 2597 4934 2840 
Q 4756 3084 4391 3084 
Q 3944 3084 3684 2787 
Q 3425 2491 3425 1978 
L 3425 0 
L 2847 0 
L 2847 2094 
Q 2847 2600 2669 2842 
Q 2491 3084 2119 3084 
Q 1678 3084 1418 2786 
Q 1159 2488 1159 1978 
L 1159 0 
L 581 0 
L 581 3500 
L 1159 3500 
L 1159 2956 
Q 1356 3278 1631 3431 
Q 1906 3584 2284 3584 
Q 2666 3584 2933 3390 
Q 3200 3197 3328 2828 
z
" transform="scale(0.015625)"/>
       <path id="DejaVuSans-65" d="M 3597 1894 
L 3597 1613 
L 953 1613 
Q 991 1019 1311 708 
Q 1631 397 2203 397 
Q 2534 397 2845 478 
Q 3156 559 3463 722 
L 3463 178 
Q 3153 47 2828 -22 
Q 2503 -91 2169 -91 
Q 1331 -91 842 396 
Q 353 884 353 1716 
Q 353 2575 817 3079 
Q 1281 3584 2069 3584 
Q 2775 3584 3186 3129 
Q 3597 2675 3597 1894 
z
M 3022 2063 
Q 3016 2534 2758 2815 
Q 2500 3097 2075 3097 
Q 1594 3097 1305 2825 
Q 1016 2553 972 2059 
L 3022 2063 
z
" transform="scale(0.015625)"/>
       <path id="DejaVuSans-50" d="M 1259 4147 
L 1259 2394 
L 2053 2394 
Q 2494 2394 2734 2622 
Q 2975 2850 2975 3272 
Q 2975 3691 2734 3919 
Q 2494 4147 2053 4147 
L 1259 4147 
z
M 628 4666 
L 2053 4666 
Q 2838 4666 3239 4311 
Q 3641 3956 3641 3272 
Q 3641 2581 3239 2228 
Q 2838 1875 2053 1875 
L 1259 1875 
L 1259 0 
L 628 0 
L 628 4666 
z
" transform="scale(0.015625)"/>
       <path id="DejaVuSans-6f" d="M 1959 3097 
Q 1497 3097 1228 2736 
Q 959 2375 959 1747 
Q 959 1119 1226 758 
Q 1494 397 1959 397 
Q 2419 397 2687 759 
Q 2956 1122 2956 1747 
Q 2956 2369 2687 2733 
Q 2419 3097 1959 3097 
z
M 1959 3584 
Q 2709 3584 3137 3096 
Q 3566 2609 3566 1747 
Q 3566 888 3137 398 
Q 2709 -91 1959 -91 
Q 1206 -91 779 398 
Q 353 888 353 1747 
Q 353 2609 779 3096 
Q 1206 3584 1959 3584 
z
" transform="scale(0.015625)"/>
       <path id="DejaVuSans-6e" d="M 3513 2113 
L 3513 0 
L 2938 0 
L 2938 2094 
Q 2938 2591 2744 2837 
Q 2550 3084 2163 3084 
Q 1697 3084 1428 2787 
Q 1159 2491 1159 1978 
L 1159 0 
L 581 0 
L 581 3500 
L 1159 3500 
L 1159 2956 
Q 1366 3272 1645 3428 
Q 1925 3584 2291 3584 
Q 2894 3584 3203 3211 
Q 3513 2838 3513 2113 
z
" transform="scale(0.015625)"/>
       <path id="DejaVuSans-74" d="M 1172 4494 
L 1172 3500 
L 2356 3500 
L 2356 3053 
L 1172 3053 
L 1172 1153 
Q 1172 725 1289 603 
Q 1406 481 1766 481 
L 2356 481 
L 2356 0 
L 1766 0 
Q 1100 0 847 248 
Q 594 497 594 1153 
L 594 3053 
L 172 3053 
L 172 3500 
L 594 3500 
L 594 4494 
L 1172 4494 
z
" transform="scale(0.015625)"/>
      </defs>
      <use xlink:href="#DejaVuSans-54"/>
      <use xlink:href="#DejaVuSans-69" x="57.958984"/>
      <use xlink:href="#DejaVuSans-6d" x="85.742188"/>
      <use xlink:href="#DejaVuSans-65" x="183.154297"/>
      <use xlink:href="#DejaVuSans-50" x="244.677734"/>
      <use xlink:href="#DejaVuSans-6f" x="301.355469"/>
      <use xlink:href="#DejaVuSans-69" x="362.537109"/>
      <use xlink:href="#DejaVuSans-6e" x="390.320312"/>
      <use xlink:href="#DejaVuSans-74" x="453.699219"/>
     </g>
    </g>
   </g>
   <g id="matplotlib.axis_2">
    <g id="ytick_1">
     <g id="line2d_19">
      <path d="M 57.6 295.488 
L 414.72 295.488 
" clip-path="url(#pe3e98b9f7d)" style="fill: none; stroke: #b0b0b0; stroke-width: 0.8; stroke-linecap: square"/>
     </g>
     <g id="line2d_20">
      <defs>
       <path id="m6c0c34619f" d="M 0 0 
L -3.5 0 
" style="stroke: #000000; stroke-width: 0.8"/>
      </defs>
      <g>
       <use xlink:href="#m6c0c34619f" x="57.6" y="295.488" style="stroke: #000000; stroke-width: 0.8"/>
      </g>
     </g>
     <g id="text_11">
      <!-- 0.0 -->
      <g transform="translate(34.696875 299.287219) scale(0.1 -0.1)">
       <defs>
        <path id="DejaVuSans-2e" d="M 684 794 
L 1344 794 
L 1344 0 
L 684 0 
L 684 794 
z
" transform="scale(0.015625)"/>
       </defs>
       <use xlink:href="#DejaVuSans-30"/>
       <use xlink:href="#DejaVuSans-2e" x="63.623047"/>
       <use xlink:href="#DejaVuSans-30" x="95.410156"/>
      </g>
     </g>
    </g>
    <g id="ytick_2">
     <g id="line2d_21">
      <path d="M 57.6 255.461674 
L 414.72 255.461674 
" clip-path="url(#pe3e98b9f7d)" style="fill: none; stroke: #b0b0b0; stroke-width: 0.8; stroke-linecap: square"/>
     </g>
     <g id="line2d_22">
      <g>
       <use xlink:href="#m6c0c34619f" x="57.6" y="255.461674" style="stroke: #000000; stroke-width: 0.8"/>
      </g>
     </g>
     <g id="text_12">
      <!-- 0.2 -->
      <g transform="translate(34.696875 259.260892) scale(0.1 -0.1)">
       <use xlink:href="#DejaVuSans-30"/>
       <use xlink:href="#DejaVuSans-2e" x="63.623047"/>
       <use xlink:href="#DejaVuSans-32" x="95.410156"/>
      </g>
     </g>
    </g>
    <g id="ytick_3">
     <g id="line2d_23">
      <path d="M 57.6 215.435347 
L 414.72 215.435347 
" clip-path="url(#pe3e98b9f7d)" style="fill: none; stroke: #b0b0b0; stroke-width: 0.8; stroke-linecap: square"/>
     </g>
     <g id="line2d_24">
      <g>
       <use xlink:href="#m6c0c34619f" x="57.6" y="215.435347" style="stroke: #000000; stroke-width: 0.8"/>
      </g>
     </g>
     <g id="text_13">
      <!-- 0.4 -->
      <g transform="translate(34.696875 219.234566) scale(0.1 -0.1)">
       <use xlink:href="#DejaVuSans-30"/>
       <use xlink:href="#DejaVuSans-2e" x="63.623047"/>
       <use xlink:href="#DejaVuSans-34" x="95.410156"/>
      </g>
     </g>
    </g>
    <g id="ytick_4">
     <g id="line2d_25">
      <path d="M 57.6 175.409021 
L 414.72 175.409021 
" clip-path="url(#pe3e98b9f7d)" style="fill: none; stroke: #b0b0b0; stroke-width: 0.8; stroke-linecap: square"/>
     </g>
     <g id="line2d_26">
      <g>
       <use xlink:href="#m6c0c34619f" x="57.6" y="175.409021" style="stroke: #000000; stroke-width: 0.8"/>
      </g>
     </g>
     <g id="text_14">
      <!-- 0.6 -->
      <g transform="translate(34.696875 179.20824) scale(0.1 -0.1)">
       <use xlink:href="#DejaVuSans-30"/>
       <use xlink:href="#DejaVuSans-2e" x="63.623047"/>
       <use xlink:href="#DejaVuSans-36" x="95.410156"/>
      </g>
     </g>
    </g>
    <g id="ytick_5">
     <g id="line2d_27">
      <path d="M 57.6 135.382695 
L 414.72 135.382695 
" clip-path="url(#pe3e98b9f7d)" style="fill: none; stroke: #b0b0b0; stroke-width: 0.8; stroke-linecap: square"/>
     </g>
     <g id="line2d_28">
      <g>
       <use xlink:href="#m6c0c34619f" x="57.6" y="135.382695" style="stroke: #000000; stroke-width: 0.8"/>
      </g>
     </g>
     <g id="text_15">
      <!-- 0.8 -->
      <g transform="translate(34.696875 139.181913) scale(0.1 -0.1)">
       <use xlink:href="#DejaVuSans-30"/>
       <use xlink:href="#DejaVuSans-2e" x="63.623047"/>
       <use xlink:href="#DejaVuSans-38" x="95.410156"/>
      </g>
     </g>
    </g>
    <g id="ytick_6">
     <g id="line2d_29">
      <path d="M 57.6 95.356368 
L 414.72 95.356368 
" clip-path="url(#pe3e98b9f7d)" style="fill: none; stroke: #b0b0b0; stroke-width: 0.8; stroke-linecap: square"/>
     </g>
     <g id="line2d_30">
      <g>
       <use xlink:href="#m6c0c34619f" x="57.6" y="95.356368" style="stroke: #000000; stroke-width: 0.8"/>
      </g>
     </g>
     <g id="text_16">
      <!-- 1.0 -->
      <g transform="translate(34.696875 99.155587) scale(0.1 -0.1)">
       <use xlink:href="#DejaVuSans-31"/>
       <use xlink:href="#DejaVuSans-2e" x="63.623047"/>
       <use xlink:href="#DejaVuSans-30" x="95.410156"/>
      </g>
     </g>
    </g>
    <g id="ytick_7">
     <g id="line2d_31">
      <path d="M 57.6 55.330042 
L 414.72 55.330042 
" clip-path="url(#pe3e98b9f7d)" style="fill: none; stroke: #b0b0b0; stroke-width: 0.8; stroke-linecap: square"/>
     </g>
     <g id="line2d_32">
      <g>
       <use xlink:href="#m6c0c34619f" x="57.6" y="55.330042" style="stroke: #000000; stroke-width: 0.8"/>
      </g>
     </g>
     <g id="text_17">
      <!-- 1.2 -->
      <g transform="translate(34.696875 59.129261) scale(0.1 -0.1)">
       <use xlink:href="#DejaVuSans-31"/>
       <use xlink:href="#DejaVuSans-2e" x="63.623047"/>
       <use xlink:href="#DejaVuSans-32" x="95.410156"/>
      </g>
     </g>
    </g>
    <g id="text_18">
     <!-- totalWaitAllocateMean -->
     <g transform="translate(28.617187 230.730344) rotate(-90) scale(0.1 -0.1)">
      <defs>
       <path id="DejaVuSans-61" d="M 2194 1759 
Q 1497 1759 1228 1600 
Q 959 1441 959 1056 
Q 959 750 1161 570 
Q 1363 391 1709 391 
Q 2188 391 2477 730 
Q 2766 1069 2766 1631 
L 2766 1759 
L 2194 1759 
z
M 3341 1997 
L 3341 0 
L 2766 0 
L 2766 531 
Q 2569 213 2275 61 
Q 1981 -91 1556 -91 
Q 1019 -91 701 211 
Q 384 513 384 1019 
Q 384 1609 779 1909 
Q 1175 2209 1959 2209 
L 2766 2209 
L 2766 2266 
Q 2766 2663 2505 2880 
Q 2244 3097 1772 3097 
Q 1472 3097 1187 3025 
Q 903 2953 641 2809 
L 641 3341 
Q 956 3463 1253 3523 
Q 1550 3584 1831 3584 
Q 2591 3584 2966 3190 
Q 3341 2797 3341 1997 
z
" transform="scale(0.015625)"/>
       <path id="DejaVuSans-6c" d="M 603 4863 
L 1178 4863 
L 1178 0 
L 603 0 
L 603 4863 
z
" transform="scale(0.015625)"/>
       <path id="DejaVuSans-57" d="M 213 4666 
L 850 4666 
L 1831 722 
L 2809 4666 
L 3519 4666 
L 4500 722 
L 5478 4666 
L 6119 4666 
L 4947 0 
L 4153 0 
L 3169 4050 
L 2175 0 
L 1381 0 
L 213 4666 
z
" transform="scale(0.015625)"/>
       <path id="DejaVuSans-41" d="M 2188 4044 
L 1331 1722 
L 3047 1722 
L 2188 4044 
z
M 1831 4666 
L 2547 4666 
L 4325 0 
L 3669 0 
L 3244 1197 
L 1141 1197 
L 716 0 
L 50 0 
L 1831 4666 
z
" transform="scale(0.015625)"/>
       <path id="DejaVuSans-63" d="M 3122 3366 
L 3122 2828 
Q 2878 2963 2633 3030 
Q 2388 3097 2138 3097 
Q 1578 3097 1268 2742 
Q 959 2388 959 1747 
Q 959 1106 1268 751 
Q 1578 397 2138 397 
Q 2388 397 2633 464 
Q 2878 531 3122 666 
L 3122 134 
Q 2881 22 2623 -34 
Q 2366 -91 2075 -91 
Q 1284 -91 818 406 
Q 353 903 353 1747 
Q 353 2603 823 3093 
Q 1294 3584 2113 3584 
Q 2378 3584 2631 3529 
Q 2884 3475 3122 3366 
z
" transform="scale(0.015625)"/>
       <path id="DejaVuSans-4d" d="M 628 4666 
L 1569 4666 
L 2759 1491 
L 3956 4666 
L 4897 4666 
L 4897 0 
L 4281 0 
L 4281 4097 
L 3078 897 
L 2444 897 
L 1241 4097 
L 1241 0 
L 628 0 
L 628 4666 
z
" transform="scale(0.015625)"/>
      </defs>
      <use xlink:href="#DejaVuSans-74"/>
      <use xlink:href="#DejaVuSans-6f" x="39.208984"/>
      <use xlink:href="#DejaVuSans-74" x="100.390625"/>
      <use xlink:href="#DejaVuSans-61" x="139.599609"/>
      <use xlink:href="#DejaVuSans-6c" x="200.878906"/>
      <use xlink:href="#DejaVuSans-57" x="228.662109"/>
      <use xlink:href="#DejaVuSans-61" x="321.164062"/>
      <use xlink:href="#DejaVuSans-69" x="382.443359"/>
      <use xlink:href="#DejaVuSans-74" x="410.226562"/>
      <use xlink:href="#DejaVuSans-41" x="449.435547"/>
      <use xlink:href="#DejaVuSans-6c" x="517.84375"/>
      <use xlink:href="#DejaVuSans-6c" x="545.626953"/>
      <use xlink:href="#DejaVuSans-6f" x="573.410156"/>
      <use xlink:href="#DejaVuSans-63" x="634.591797"/>
      <use xlink:href="#DejaVuSans-61" x="689.572266"/>
      <use xlink:href="#DejaVuSans-74" x="750.851562"/>
      <use xlink:href="#DejaVuSans-65" x="790.060547"/>
      <use xlink:href="#DejaVuSans-4d" x="851.583984"/>
      <use xlink:href="#DejaVuSans-65" x="937.863281"/>
      <use xlink:href="#DejaVuSans-61" x="999.386719"/>
      <use xlink:href="#DejaVuSans-6e" x="1060.666016"/>
     </g>
    </g>
   </g>
   <g id="line2d_33">
    <path d="M 73.832727 295.488 
L 73.900093 295.488 
L 73.900093 295.488 
L 73.976387 53.568 
L 74.01088 93.552726 
L 74.030339 114.30015 
L 74.277516 212.958447 
L 74.279429 213.012059 
L 74.403308 230.283866 
L 74.404931 230.382319 
L 74.404931 230.382319 
L 74.515934 240.091825 
L 74.517749 240.114959 
L 74.517749 240.14333 
L 74.66612 249.308693 
L 74.667704 249.326873 
L 74.783589 254.12229 
L 75.146362 263.246424 
L 75.147728 263.036602 
L 75.148183 262.995318 
L 75.251657 265.198144 
L 76.05499 274.202078 
L 76.055395 274.169425 
L 76.080234 271.732673 
L 76.165681 272.612086 
L 76.180435 272.74355 
L 76.292799 273.683159 
L 76.489215 274.623482 
L 76.489215 274.623482 
L 76.489215 274.510368 
L 76.599853 275.352334 
L 76.607309 275.287938 
L 76.652469 275.604707 
L 76.835379 276.733428 
L 76.840557 276.678302 
L 76.859728 276.783873 
L 76.859728 276.783873 
L 76.969365 277.243008 
L 76.988778 277.346233 
L 76.988778 277.351028 
L 76.990807 277.328435 
L 77.27622 278.798406 
L 77.299206 278.905779 
L 77.410265 279.391425 
L 77.434773 279.306652 
L 77.434773 279.300622 
L 77.461315 278.724915 
L 77.546019 279.048979 
L 77.5505 279.037448 
L 77.95522 280.327725 
L 78.039025 280.437946 
L 78.071908 280.554286 
L 78.081919 280.34749 
L 78.152666 280.51982 
L 78.244047 280.707126 
L 78.494365 281.192839 
L 78.258422 280.445364 
L 78.498829 281.186091 
L 78.498829 281.170809 
L 78.609761 281.440269 
L 79.051335 282.17063 
L 79.146515 282.224054 
L 79.149762 282.070569 
L 79.161977 282.1016 
L 79.205765 282.20635 
L 79.205765 282.206432 
L 79.317297 282.465956 
L 79.380672 282.40085 
L 79.380672 282.40085 
L 79.380672 282.343533 
L 79.49125 282.561793 
L 79.568972 282.713862 
L 79.598597 282.530587 
L 79.60509 282.369798 
L 79.709474 282.60287 
L 79.845271 282.813195 
L 79.915298 282.954747 
L 79.982095 283.089271 
L 80.028765 282.961972 
L 80.036069 282.832891 
L 80.138643 282.981471 
L 80.197578 283.092427 
L 80.338404 283.318575 
L 80.471513 283.478397 
L 80.592206 283.693121 
L 80.721091 283.913177 
L 80.734077 283.908276 
L 80.840306 284.019295 
L 80.842025 283.995006 
L 80.974623 284.174573 
L 81.012875 284.234832 
L 81.044123 284.104239 
L 81.084698 284.168424 
L 81.308716 284.279357 
L 81.308716 284.279357 
L 81.419826 284.416295 
L 81.494987 284.524778 
L 81.494987 284.524998 
L 81.604558 284.6533 
L 81.61292 284.641003 
L 81.748218 284.771345 
L 81.748218 284.771345 
L 81.83141 284.883883 
L 81.859006 284.843976 
L 81.938952 284.945289 
L 81.99483 284.861614 
L 82.080568 284.971948 
L 82.104932 284.921914 
L 82.204764 285.044734 
L 82.557826 285.392449 
L 82.557826 285.392449 
L 82.580515 285.405325 
L 82.585016 285.310882 
L 82.66843 285.365685 
L 82.767228 285.431212 
L 82.777548 285.318157 
L 82.833466 285.103887 
L 82.819475 285.32182 
L 82.888706 285.150397 
L 83.006765 285.258648 
L 83.118038 285.360885 
L 83.387319 285.405944 
L 83.387413 285.367799 
L 83.390453 285.33621 
L 83.490597 285.421718 
L 83.680101 285.532704 
L 83.696001 285.482322 
L 83.797195 285.545685 
L 84.07437 285.707047 
L 84.082892 285.685957 
L 84.082892 285.65268 
L 84.19368 285.756712 
L 84.232639 285.721128 
L 84.34704 285.793037 
L 84.470025 285.903986 
L 84.480188 285.874065 
L 84.580413 285.964785 
L 84.708664 286.075652 
L 84.708664 286.075652 
L 84.819454 286.143257 
L 85.067002 286.254128 
L 85.067002 286.254128 
L 85.097438 286.226558 
L 85.177384 286.292103 
L 85.934236 286.775946 
L 85.934236 286.775946 
L 85.959405 286.754909 
L 86.044618 286.794857 
L 86.209906 286.905621 
L 87.148445 287.210116 
L 87.148671 287.206791 
L 87.153086 287.143268 
L 87.259589 287.202179 
L 87.392342 287.283148 
L 87.396806 287.255637 
L 87.396806 287.244335 
L 87.462546 287.283614 
L 87.507417 287.26826 
L 87.799378 287.378523 
L 87.799378 287.37921 
L 88.021766 287.456641 
L 88.036782 287.352124 
L 88.039705 287.336577 
L 88.144324 287.386014 
L 88.147719 287.384912 
L 89.126404 287.518839 
L 89.13655 287.398861 
L 89.14142 287.308162 
L 89.247311 287.353254 
L 89.617866 287.463923 
L 89.728651 287.520651 
L 90.568769 287.631548 
L 90.663239 287.668383 
L 90.694081 287.650408 
L 90.761991 287.604058 
L 90.805039 287.624287 
L 90.969226 287.606785 
L 90.969226 287.606785 
L 91.049736 287.565538 
L 91.039433 287.623515 
L 91.080015 287.579114 
L 91.432265 287.513882 
L 91.432462 287.509675 
L 91.486635 287.412771 
L 91.543054 287.427986 
L 91.86747 287.539077 
L 92.258512 287.589661 
L 92.263301 287.527957 
L 92.331426 287.027159 
L 92.372727 287.046935 
L 94.510805 287.225955 
L 94.618347 287.255456 
L 94.625963 287.230486 
L 95.1731 287.215743 
L 95.175569 287.182816 
L 95.18687 287.04916 
L 95.288843 287.089293 
L 95.443434 287.149485 
L 99.097771 287.759229 
L 99.097771 287.7535 
L 99.205035 287.687671 
L 99.213916 287.690735 
L 100.130985 287.833878 
L 100.13448 287.795404 
L 100.135689 287.786592 
L 100.227976 287.809337 
L 100.244757 287.798855 
L 100.732121 287.909915 
L 100.757975 287.916606 
L 100.766903 287.885517 
L 100.842791 287.90146 
L 101.126864 287.932488 
L 101.128893 287.924974 
L 101.237592 287.907981 
L 101.189406 287.931403 
L 101.239309 287.90888 
L 103.262687 288.029092 
L 103.262687 288.029092 
L 103.373294 288.039416 
L 104.550565 288.150424 
L 104.77639 288.192718 
L 107.191416 288.316089 
L 107.191416 288.316089 
L 107.253096 288.329503 
L 107.302076 288.328983 
L 108.794366 288.440059 
L 108.905943 288.456906 
L 110.250763 288.567969 
L 110.262651 288.554572 
L 110.368569 288.569874 
L 111.403292 288.680894 
L 113.105815 288.824817 
L 113.105917 288.822147 
L 113.110244 288.806192 
L 113.216526 288.822396 
L 115.003423 288.788581 
L 115.003423 288.785573 
L 115.023968 288.665099 
L 115.115023 288.680234 
L 117.462277 288.571427 
L 117.462277 288.571427 
L 117.563923 288.456873 
L 117.573217 288.458445 
L 119.511198 288.569354 
L 119.855677 288.609281 
L 122.026116 288.720367 
L 122.143899 288.737022 
L 123.308093 288.628037 
L 123.308093 288.628037 
L 123.415515 288.629487 
L 123.418882 288.612644 
L 123.596772 288.556038 
L 126.748835 288.667137 
L 126.860223 288.67217 
L 127.147948 288.660371 
L 127.154441 288.620877 
L 127.167904 288.560323 
L 127.26523 288.570063 
L 131.522269 288.681142 
L 131.637924 288.691235 
L 134.026166 288.731724 
L 134.026166 288.73134 
L 134.084405 288.720587 
L 134.136393 288.726529 
L 139.065215 288.837593 
L 139.065215 288.837593 
L 139.175645 288.848971 
L 146.611817 288.96007 
L 146.611817 288.96007 
L 146.721388 288.970097 
L 148.911858 288.944969 
L 148.911858 288.944855 
L 149.081628 288.871743 
L 149.081628 288.87198 
L 156.775517 288.983079 
L 156.887463 288.986009 
L 157.284844 288.993553 
L 157.284844 288.993553 
L 157.285887 288.991129 
L 157.381225 288.998558 
L 157.395457 288.99605 
L 234.886533 289.107153 
L 236.840001 289.123515 
L 317.693704 289.234599 
L 317.80927 289.236108 
L 318.979312 289.242297 
L 398.487273 289.307886 
L 398.487273 289.307886 
" clip-path="url(#pe3e98b9f7d)" style="fill: none; stroke: #1f77b4; stroke-width: 1.5; stroke-linecap: square"/>
   </g>
   <g id="line2d_34">
    <path d="M 73.832727 295.488 
L 73.840032 295.488 
L 73.840032 295.488 
L 73.890472 55.044552 
L 73.950914 161.737454 
L 74.07526 226.165479 
L 74.076607 226.172522 
L 74.188224 246.588083 
L 74.308752 257.533021 
L 74.31768 256.382763 
L 74.320794 255.333278 
L 74.427251 261.043618 
L 74.431935 261.230616 
L 74.59613 267.317948 
L 74.598913 267.407472 
L 74.598913 267.407472 
L 74.607445 266.958753 
L 74.709339 270.103593 
L 74.713704 270.206723 
L 74.824142 273.010853 
L 74.829418 273.099906 
L 74.829418 273.099906 
L 74.9398 275.111856 
L 74.95441 275.352867 
L 74.95441 275.352867 
L 75.065157 276.690092 
L 75.072616 276.780882 
L 75.192766 278.306524 
L 75.204802 278.42089 
L 75.214222 278.399505 
L 75.316092 279.269781 
L 75.317211 279.274215 
L 75.317211 279.182574 
L 75.322761 278.802335 
L 75.422507 279.851486 
L 75.434493 279.958449 
L 75.434493 279.958449 
L 75.54519 280.543128 
L 75.565823 280.650782 
L 75.569631 280.682006 
L 75.581456 279.732713 
L 75.668966 280.285587 
L 75.867263 281.605798 
L 75.978329 282.276304 
L 76.109369 282.79813 
L 75.988602 282.268342 
L 76.115202 282.651728 
L 76.146632 282.79528 
L 76.270948 283.248154 
L 76.276743 283.185749 
L 76.41211 283.662575 
L 76.529214 284.138431 
L 76.559422 284.260338 
L 76.60812 284.455631 
L 76.613709 283.892157 
L 76.655765 284.073828 
L 76.697731 284.183303 
L 77.232269 285.593145 
L 77.237139 285.524068 
L 77.237139 285.497644 
L 77.346264 285.813109 
L 77.388454 285.923597 
L 77.816242 286.641077 
L 77.851548 286.60248 
L 77.855377 286.46845 
L 77.962337 286.689023 
L 78.658721 287.498762 
L 78.664009 287.422703 
L 78.664529 287.406128 
L 78.773054 287.58119 
L 78.776409 287.584678 
L 78.778844 287.473745 
L 78.786002 287.410874 
L 78.886737 287.573491 
L 78.94807 287.590968 
L 78.95294 287.477136 
L 78.956186 287.480795 
L 78.972419 287.406386 
L 79.065929 287.517376 
L 79.139616 287.625639 
L 79.139616 287.628017 
L 79.462242 287.995181 
L 79.462242 287.988075 
L 79.463789 287.942263 
L 79.572886 288.087011 
L 79.997517 288.53286 
L 80.003894 288.492005 
L 80.044193 288.409513 
L 80.114482 288.489914 
L 80.225181 288.600965 
L 80.225181 288.600965 
L 80.335139 288.713105 
L 80.577837 288.861555 
L 80.61152 288.894286 
L 80.626037 288.453043 
L 80.626894 288.454145 
L 80.778311 288.49581 
L 80.781377 288.412097 
L 80.791442 288.111306 
L 80.891753 288.19656 
L 81.008816 288.307429 
L 81.008816 288.307429 
L 81.119824 288.382492 
L 81.27341 288.492536 
L 81.27341 288.492536 
L 81.384411 288.596108 
L 81.693432 288.661466 
L 81.699114 288.588842 
L 81.704282 288.414791 
L 81.810211 288.463555 
L 81.938278 288.574464 
L 81.943416 288.578837 
L 81.998608 288.426726 
L 82.045584 288.454858 
L 82.940107 288.851653 
L 82.943924 288.753192 
L 82.965933 288.296402 
L 83.054548 288.365944 
L 83.424248 288.573316 
L 83.058393 288.341671 
L 83.424248 288.573316 
L 83.49973 288.556331 
L 83.492424 288.619016 
L 83.535131 288.58149 
L 83.609401 288.483238 
L 83.612268 288.436119 
L 83.706016 288.503273 
L 83.720036 288.474775 
L 84.088167 288.466896 
L 83.726641 288.385606 
L 84.089694 288.422265 
L 84.099112 288.263958 
L 84.201797 288.313676 
L 84.453606 288.424433 
L 84.454843 288.412844 
L 84.585921 288.496865 
L 85.178194 288.392603 
L 85.180212 288.367652 
L 85.287453 288.424823 
L 85.304 288.434245 
L 85.311271 288.321322 
L 85.393386 288.219681 
L 85.426065 288.240729 
L 85.622931 288.351814 
L 85.675729 288.341499 
L 85.73538 288.376793 
L 86.066533 288.495621 
L 86.127811 288.530327 
L 86.131936 288.449395 
L 86.186266 288.476939 
L 86.498729 288.439772 
L 86.498729 288.439772 
L 86.601807 288.290466 
L 86.607673 288.294908 
L 87.210467 288.405819 
L 87.322233 288.465252 
L 88.228338 288.576325 
L 88.402018 288.601718 
L 88.242937 288.539759 
L 88.4077 288.536769 
L 88.414599 288.442424 
L 88.517478 288.486771 
L 88.935325 288.620973 
L 89.075695 288.684142 
L 90.022072 288.795167 
L 90.111732 288.831905 
L 90.124109 288.760984 
L 90.128019 288.763063 
L 90.40872 288.874142 
L 90.51999 288.903331 
L 90.794319 288.93995 
L 90.799594 288.917452 
L 90.802783 288.882726 
L 90.910456 288.892903 
L 90.931079 288.784448 
L 90.931079 288.784448 
L 91.04127 288.737832 
L 91.799541 288.629824 
L 91.806476 288.568647 
L 91.911969 288.609273 
L 92.415564 288.66122 
L 92.416781 288.648557 
L 92.416781 288.637377 
L 92.527569 288.678307 
L 93.472721 288.804775 
L 93.47475 288.783489 
L 93.475646 288.766837 
L 93.585732 288.778688 
L 94.779862 288.83906 
L 94.779862 288.83906 
L 94.85718 288.828037 
L 94.851262 288.845141 
L 94.890932 288.839189 
L 95.175941 288.87677 
L 95.185275 288.794617 
L 95.203457 288.679582 
L 95.317496 288.715904 
L 95.422679 288.641754 
L 95.424302 288.623461 
L 95.500487 288.50761 
L 95.535091 288.515593 
L 97.518326 288.512915 
L 97.518326 288.489021 
L 97.569949 288.224011 
L 97.681934 288.251837 
L 97.984205 288.255659 
L 97.985117 288.24528 
L 97.986096 288.240559 
L 98.091946 288.26714 
L 98.094588 288.267211 
L 98.235261 288.303498 
L 99.531591 288.413847 
L 99.531591 288.414209 
L 100.104607 288.536058 
L 100.104607 288.528402 
L 100.221523 288.416592 
L 100.244788 288.422907 
L 101.100892 288.565044 
L 101.100892 288.565044 
L 101.142107 288.54274 
L 101.211793 288.559306 
L 103.650731 288.454702 
L 103.741743 288.43899 
L 103.765865 288.444986 
L 105.183832 288.50095 
L 105.183832 288.50095 
L 105.250147 288.424325 
L 105.236183 288.506877 
L 105.294265 288.434366 
L 107.686198 288.669252 
L 107.71127 288.65953 
L 107.797157 288.676245 
L 108.032602 288.666471 
L 110.279579 288.777516 
L 110.389672 288.797695 
L 112.264759 288.693135 
L 112.279012 288.637214 
L 112.375342 288.642352 
L 114.114694 288.753391 
L 114.352552 288.774296 
L 116.541069 288.666408 
L 116.541069 288.666408 
L 116.544932 288.646565 
L 116.651858 288.663681 
L 119.833069 288.554567 
L 119.833069 288.554567 
L 119.891507 288.536383 
L 119.943812 288.544304 
L 121.289146 288.614071 
L 121.289146 288.614071 
L 121.290354 288.608612 
L 121.399269 288.62225 
L 121.525246 288.514252 
L 121.632943 288.489865 
L 121.625163 288.517566 
L 121.636343 288.490449 
L 124.680572 288.601422 
L 124.680572 288.601422 
L 124.712916 288.605816 
L 124.728212 288.592926 
L 124.791499 288.600979 
L 128.128452 288.711997 
L 129.693836 288.794886 
L 129.693843 288.794777 
L 129.786947 288.735497 
L 129.803597 288.737704 
L 145.738479 288.848814 
L 146.117185 288.860304 
L 166.149544 288.971229 
L 166.149544 288.971337 
L 169.079148 289.032124 
L 169.079148 289.029319 
L 169.405816 289.029143 
L 184.609525 289.099508 
L 184.725075 289.103854 
L 184.725075 289.103932 
L 192.837794 289.085959 
L 192.837794 289.082653 
L 192.957774 289.059577 
L 352.41335 288.949609 
L 352.41335 288.949609 
L 352.454087 288.940957 
L 352.523502 288.942565 
L 398.486467 288.966362 
L 398.486467 288.966362 
" clip-path="url(#pe3e98b9f7d)" style="fill: none; stroke: #ff7f0e; stroke-width: 1.5; stroke-linecap: square"/>
   </g>
   <g id="line2d_35">
    <path d="M 73.832727 295.488 
L 73.877367 295.488 
L 73.877367 295.488 
L 73.88873 263.975296 
L 73.98778 284.075144 
L 74.027926 286.113329 
L 74.03159 281.897374 
L 74.044628 275.621966 
L 74.144103 280.981427 
L 74.146019 280.981427 
L 74.146019 281.014898 
L 74.275475 283.023964 
L 74.151146 280.591159 
L 74.275475 283.023964 
L 74.281042 281.861355 
L 74.385641 284.26121 
L 74.391014 284.34058 
L 74.502005 286.198343 
L 74.68852 288.223981 
L 74.786401 288.816496 
L 74.79859 288.626894 
L 74.912871 289.053953 
L 74.932901 289.163125 
L 74.932901 289.163574 
L 75.025022 289.37198 
L 75.025941 288.749703 
L 75.040849 288.77022 
L 75.098044 288.695028 
L 75.15042 288.968541 
L 75.404868 289.793347 
L 75.160566 288.949099 
L 75.424348 289.617958 
L 75.495683 289.243809 
L 75.491979 289.746618 
L 75.534119 289.390165 
L 75.567317 289.499508 
L 75.671897 289.763079 
L 75.680013 289.605485 
L 75.686127 288.99521 
L 75.790336 289.129912 
L 75.825712 289.240183 
L 75.946636 289.561615 
L 76.027394 289.592759 
L 76.027394 289.592759 
L 76.103688 288.898866 
L 76.138409 288.998362 
L 76.219037 289.205693 
L 76.277378 289.353781 
L 76.325265 289.275776 
L 76.425991 287.931533 
L 76.437027 287.966158 
L 76.490464 288.114884 
L 76.603564 288.417111 
L 76.679544 288.604553 
L 76.685632 288.291703 
L 76.686443 288.291703 
L 76.686443 288.268521 
L 76.698918 287.389577 
L 76.796826 287.66302 
L 76.815493 287.651629 
L 76.815493 287.576267 
L 76.820885 287.364681 
L 76.918217 287.587833 
L 76.926641 287.491489 
L 77.068318 287.637476 
L 77.071638 287.51087 
L 77.09115 286.970956 
L 77.182526 287.170721 
L 77.31699 287.440111 
L 77.336253 287.35372 
L 77.427481 287.508137 
L 77.48001 287.618093 
L 77.591075 287.788605 
L 77.654859 287.898251 
L 77.765109 288.041898 
L 77.789242 287.97863 
L 77.868187 288.089623 
L 77.868187 288.089623 
L 77.978164 288.249661 
L 78.042321 288.360402 
L 78.049182 288.369487 
L 78.052073 288.264962 
L 78.054457 288.267946 
L 78.105296 288.179343 
L 78.099097 288.294246 
L 78.16378 288.253189 
L 78.251685 288.391489 
L 78.314181 288.489911 
L 78.322882 288.250862 
L 78.387422 287.867926 
L 78.345569 288.270973 
L 78.437187 287.951582 
L 78.470827 288.000399 
L 78.472839 287.882932 
L 78.570828 287.81711 
L 78.562899 287.914623 
L 78.583413 287.838554 
L 78.653196 287.948603 
L 78.749219 287.984175 
L 78.674954 287.892522 
L 78.762611 287.956129 
L 78.764186 287.901363 
L 78.871776 288.051782 
L 79.021117 288.006616 
L 79.021117 287.962218 
L 79.022827 287.885715 
L 79.130775 288.042714 
L 79.144486 287.989992 
L 79.388416 288.270003 
L 79.474011 288.366108 
L 79.49836 288.363538 
L 79.535695 288.407368 
L 79.538911 288.267208 
L 79.540405 288.216896 
L 79.616742 288.313004 
L 79.649192 288.27741 
L 79.756866 288.249846 
L 79.760519 288.194043 
L 79.760519 288.15737 
L 79.871567 288.285316 
L 80.117233 288.395786 
L 80.117233 288.395786 
L 80.228021 288.517314 
L 80.599808 288.669274 
L 80.698771 288.76755 
L 80.706772 288.561525 
L 80.7106 288.565896 
L 80.714192 288.530127 
L 81.626323 288.866495 
L 81.737666 288.962074 
L 82.180423 289.07737 
L 82.257114 289.133244 
L 82.306581 289.09332 
L 82.799515 289.204174 
L 82.917787 289.253874 
L 82.930367 289.149799 
L 83.015995 289.137813 
L 83.000168 289.190569 
L 83.041172 289.155637 
L 83.063528 289.048541 
L 83.093216 288.986041 
L 83.176303 289.034226 
L 83.419378 289.14529 
L 83.419378 289.14529 
L 83.529989 289.211379 
L 83.782607 289.321605 
L 83.800036 289.332383 
L 83.808964 289.274444 
L 83.89287 289.326696 
L 85.377854 289.246095 
L 85.45534 289.057908 
L 85.488515 289.073363 
L 85.808432 289.184053 
L 85.808432 289.184396 
L 86.192336 289.283689 
L 86.192336 289.274524 
L 86.240821 289.244976 
L 86.237162 289.288232 
L 86.303775 289.258639 
L 86.433798 289.214521 
L 86.4375 289.172401 
L 86.465528 289.001007 
L 86.551357 289.044848 
L 86.860049 288.945834 
L 86.874493 288.766846 
L 86.971914 288.809489 
L 87.139111 288.702932 
L 87.139111 288.702932 
L 87.149257 288.538753 
L 87.249922 288.590666 
L 88.522045 288.70151 
L 90.759012 289.113304 
L 90.762259 289.053813 
L 90.785947 289.02344 
L 90.874639 289.048721 
L 91.18431 289.159555 
L 91.18431 289.159571 
L 91.232603 289.167491 
L 91.247289 289.114629 
L 91.292381 289.131059 
L 91.609202 289.21347 
L 91.620159 289.109466 
L 91.670081 289.061242 
L 91.731972 289.079751 
L 92.988174 288.977094 
L 92.988174 288.975291 
L 93.100661 288.892423 
L 94.221862 289.003351 
L 94.221862 289.003351 
L 94.329329 289.037375 
L 94.332817 289.02535 
L 95.630052 288.925653 
L 95.630052 288.916407 
L 95.701445 288.863181 
L 95.746874 288.877044 
L 95.908849 288.880424 
L 95.75058 288.865828 
L 95.912908 288.859263 
L 95.943666 288.750352 
L 96.023523 288.757986 
L 96.854001 288.828146 
L 96.85412 288.819159 
L 96.876047 288.783155 
L 96.965936 288.809276 
L 97.127928 288.81432 
L 96.98912 288.77475 
L 97.131175 288.800525 
L 97.171032 288.632408 
L 97.249674 288.644766 
L 98.964257 288.755769 
L 98.964257 288.755769 
L 99.041695 288.776147 
L 99.061067 288.661586 
L 99.074847 288.665585 
L 101.028911 288.563873 
L 101.11188 288.41512 
L 101.139039 288.422684 
L 102.398438 288.53374 
L 102.499748 288.553305 
L 102.511173 288.55141 
L 104.566176 288.446396 
L 104.566176 288.446396 
L 104.566176 288.436963 
L 104.675984 288.462026 
L 107.654049 288.575227 
L 107.654049 288.575227 
L 107.674746 288.579786 
L 107.683241 288.553244 
L 107.762934 288.569977 
L 110.202184 288.527832 
L 110.202184 288.527832 
L 110.229759 288.501243 
L 110.312813 288.517148 
L 113.245011 288.412411 
L 113.245011 288.412411 
L 113.302556 288.190431 
L 113.3558 288.200328 
L 113.710079 288.230771 
L 113.716822 288.197578 
L 113.828153 288.199185 
L 113.828154 288.19948 
L 129.554452 288.310459 
L 129.554452 288.310459 
L 129.664793 288.324808 
L 136.440079 288.435917 
L 137.06204 288.485656 
L 138.51249 288.375321 
L 138.51249 288.375321 
L 138.5147 288.368728 
L 138.622656 288.37941 
L 157.024308 288.490467 
L 157.024308 288.490467 
L 157.109936 288.497765 
L 157.134754 288.49731 
L 159.723706 288.608393 
L 159.839106 288.609281 
L 161.071248 288.65078 
L 174.588889 288.885388 
L 174.719012 288.889682 
L 197.395542 289.000763 
L 197.395542 289.000775 
L 197.980707 288.963582 
L 212.764185 288.996214 
L 212.76544 288.994473 
L 212.863134 288.999082 
L 212.874958 288.998356 
L 252.409113 289.109387 
L 252.409113 289.109417 
L 254.074592 289.101336 
L 254.074592 289.101336 
L 254.142364 289.092353 
L 254.125078 289.101371 
L 254.185381 289.09316 
L 275.780657 289.036286 
L 275.800709 289.02835 
L 275.891802 289.031271 
L 278.444401 289.060194 
L 297.493523 289.048518 
L 297.493523 289.048518 
L 297.50732 289.043828 
L 297.604502 289.044673 
L 300.751434 289.06141 
L 300.751434 289.06141 
L 300.758399 289.05912 
L 300.862366 289.062085 
L 398.487145 289.142387 
L 398.487145 289.142387 
" clip-path="url(#pe3e98b9f7d)" style="fill: none; stroke: #2ca02c; stroke-width: 1.5; stroke-linecap: square"/>
   </g>
   <g id="line2d_36">
    <path d="M 73.832727 295.488 
L 73.847337 295.488 
L 73.847337 295.488 
L 73.858322 219.366921 
L 73.956597 277.646768 
L 74.137091 285.827068 
L 74.140436 281.779167 
L 74.143783 281.232488 
L 74.23327 284.418429 
L 74.255997 282.854515 
L 74.344922 285.059778 
L 74.351165 285.163635 
L 74.4167 286.322176 
L 74.43415 284.679415 
L 74.462012 285.158673 
L 74.475927 285.365127 
L 74.608652 287.094132 
L 74.608652 287.094132 
L 74.608652 286.964711 
L 74.718471 288.017759 
L 74.718771 287.7699 
L 74.719847 287.770564 
L 74.719847 287.770564 
L 74.719847 287.635899 
L 74.822519 288.294423 
L 74.829788 287.869316 
L 74.835505 287.903231 
L 74.835505 287.903231 
L 74.839916 287.035695 
L 74.945742 287.162971 
L 74.960091 287.251714 
L 74.985145 287.047819 
L 74.985658 287.048355 
L 74.991415 286.139463 
L 75.096736 286.496678 
L 75.128334 286.605851 
L 75.140275 286.496675 
L 75.240512 287.048942 
L 75.260803 287.157557 
L 75.260803 287.157557 
L 75.371185 287.598056 
L 75.380519 287.636711 
L 75.380519 287.524478 
L 75.38676 287.132311 
L 75.490448 287.659049 
L 75.51728 287.779714 
L 75.520614 287.442935 
L 75.580588 287.611895 
L 75.582035 287.545014 
L 75.686463 287.953259 
L 75.706391 288.026974 
L 75.706391 287.842696 
L 75.70931 287.727354 
L 75.784506 288.027145 
L 75.812955 287.944177 
L 75.843169 288.050863 
L 75.953129 288.389617 
L 75.966521 288.428476 
L 75.96742 288.282064 
L 75.983565 288.306567 
L 76.089324 287.610708 
L 76.033887 288.411077 
L 76.0976 287.644912 
L 76.154045 287.832094 
L 76.355295 288.360258 
L 76.397095 288.469475 
L 76.397095 288.469475 
L 76.407276 288.318024 
L 76.507907 288.588021 
L 76.549277 288.683036 
L 76.570379 288.352369 
L 76.58245 288.385609 
L 76.663717 288.495693 
L 76.663717 288.495693 
L 76.762474 288.660079 
L 76.674743 288.449231 
L 76.774117 288.627108 
L 76.822798 288.73714 
L 76.822798 288.737197 
L 76.899904 288.906849 
L 76.933996 288.868968 
L 77.029396 288.979284 
L 77.035447 288.991366 
L 77.048738 288.621931 
L 77.136383 288.807544 
L 77.218079 288.918422 
L 77.329234 289.057131 
L 77.44573 289.177546 
L 77.448976 289.158223 
L 77.559581 289.345316 
L 77.669336 289.444701 
L 77.674205 289.310304 
L 77.710693 288.840359 
L 77.786841 288.971334 
L 78.06903 288.866997 
L 78.176452 288.608588 
L 78.180153 288.614926 
L 78.293079 288.630374 
L 78.296325 288.554199 
L 78.310529 288.463467 
L 78.407114 288.612409 
L 78.613675 288.679847 
L 78.622603 288.57129 
L 78.623437 288.54055 
L 78.732766 288.66062 
L 78.785565 288.550369 
L 78.786039 288.536454 
L 78.895526 288.683748 
L 79.008093 288.792727 
L 79.137181 288.851177 
L 79.050855 288.741449 
L 79.137181 288.851177 
L 79.157472 288.787368 
L 79.248189 288.887124 
L 79.330757 288.935321 
L 79.354777 288.853205 
L 79.415573 288.77319 
L 79.415573 288.755308 
L 79.433793 288.67901 
L 79.526767 288.748288 
L 79.736093 288.968975 
L 79.876825 289.049587 
L 80.170801 288.980129 
L 80.170801 288.941797 
L 80.282709 288.778962 
L 80.22796 288.95535 
L 80.288083 288.786632 
L 80.379392 288.726636 
L 80.379392 288.694112 
L 80.40197 288.566062 
L 80.489739 288.659556 
L 80.805756 288.910507 
L 80.94606 289.040946 
L 81.56053 289.150976 
L 81.706013 289.247131 
L 81.706013 289.220089 
L 81.747218 289.071007 
L 81.820792 289.124945 
L 82.075713 289.23382 
L 82.075713 289.234342 
L 82.203952 289.304227 
L 82.205169 289.282035 
L 82.212294 289.228136 
L 82.315594 289.305222 
L 82.550183 289.415826 
L 82.759923 289.559627 
L 83.070087 289.453382 
L 83.110662 289.40778 
L 83.180574 289.453017 
L 83.861397 289.566089 
L 84.009775 289.640993 
L 84.216968 289.537587 
L 84.229363 289.224886 
L 84.330691 289.280503 
L 84.74372 289.391163 
L 84.795509 289.414408 
L 84.853975 289.292394 
L 85.518678 289.20756 
L 85.518678 289.20756 
L 85.628256 288.871458 
L 85.629131 288.872947 
L 85.779085 288.773067 
L 85.779092 288.767956 
L 85.79641 288.53307 
L 85.893654 288.578798 
L 86.609112 288.740766 
L 86.609112 288.740766 
L 86.622504 288.696639 
L 86.70657 288.74109 
L 86.719089 288.736931 
L 86.771439 288.71504 
L 86.776309 288.647079 
L 86.838805 288.558018 
L 86.890344 288.585819 
L 87.035627 288.609081 
L 87.035982 288.605065 
L 89.008311 288.945385 
L 89.008311 288.936404 
L 89.04878 288.914058 
L 89.044429 288.943517 
L 89.1191 288.944461 
L 90.925762 289.068514 
L 90.993575 289.054357 
L 90.932297 289.031664 
L 91.031317 289.027437 
L 91.031711 289.020344 
L 91.101373 289.046705 
L 91.142369 289.043128 
L 91.575925 289.154195 
L 91.575925 289.154195 
L 91.634643 289.175131 
L 91.686857 289.167942 
L 91.697671 289.171683 
L 91.713092 289.051714 
L 91.720257 289.010841 
L 91.823488 289.04832 
L 92.758886 289.159005 
L 92.758886 289.159005 
L 92.868897 289.196264 
L 93.803463 289.30708 
L 93.803463 289.30708 
L 93.811123 289.309591 
L 93.820101 289.24911 
L 93.914571 289.275393 
L 94.001502 289.29656 
L 94.028396 289.291154 
L 94.843576 289.190134 
L 94.843576 289.184385 
L 94.887723 289.153119 
L 94.956063 289.165504 
L 99.643781 289.055158 
L 99.739977 289.021384 
L 99.759256 289.026519 
L 101.644471 289.252443 
L 101.760027 289.256235 
L 103.536615 289.367047 
L 103.536615 289.367149 
L 103.784975 289.398073 
L 103.78741 289.387769 
L 103.891131 289.386595 
L 103.897793 289.388275 
L 107.165444 289.479698 
L 107.165444 289.479698 
L 107.167434 289.460567 
L 107.276232 289.466258 
L 107.971805 289.53198 
L 107.971805 289.518321 
L 109.598326 289.412087 
L 109.598326 289.412087 
L 109.600474 289.399984 
L 109.708801 289.411032 
L 110.571479 289.360962 
L 110.571479 289.360962 
L 110.575986 289.330778 
L 110.681906 289.333137 
L 139.868078 289.444073 
L 140.105939 289.458619 
L 148.687984 289.429571 
L 148.687984 289.429571 
L 148.689211 289.425353 
L 148.798487 289.434246 
L 162.732146 289.545314 
L 162.732146 289.545322 
L 162.902482 289.555678 
L 171.715751 289.44627 
L 171.715751 289.444703 
L 171.904051 289.443779 
L 171.904051 289.443779 
L 172.014433 289.45067 
L 185.334434 289.33985 
L 185.451692 289.338999 
L 200.599479 289.23072 
L 200.599479 289.22869 
L 200.800281 289.216541 
L 398.487242 289.190119 
L 398.487242 289.190119 
" clip-path="url(#pe3e98b9f7d)" style="fill: none; stroke: #d62728; stroke-width: 1.5; stroke-linecap: square"/>
   </g>
   <g id="line2d_37">
    <path d="M 73.832727 295.488 
L 73.926066 295.488 
L 73.926066 295.488 
L 73.943542 291.811789 
L 74.037016 293.496239 
L 74.045376 293.496706 
L 74.045376 293.496706 
L 74.050487 291.892003 
L 74.156215 292.408827 
L 74.168927 292.519607 
L 74.302665 293.262443 
L 74.302665 293.262443 
L 74.411424 289.475731 
L 74.413151 289.493181 
L 74.413859 289.493181 
L 74.413859 289.493181 
L 74.450946 286.21208 
L 74.524125 287.20076 
L 74.599812 287.973388 
L 74.654916 288.325957 
L 74.658201 287.083633 
L 74.698338 287.476662 
L 74.710487 287.58553 
L 74.748022 287.865829 
L 74.860666 288.479308 
L 74.880957 288.198131 
L 74.977769 287.216722 
L 74.882839 288.213572 
L 74.991706 287.326041 
L 75.007522 287.430442 
L 75.204486 288.306541 
L 75.227729 288.4147 
L 75.339545 288.914055 
L 75.510381 289.254137 
L 75.38274 288.880389 
L 75.51171 289.082559 
L 75.531819 287.594791 
L 75.624822 287.728496 
L 75.640243 287.716277 
L 75.640243 287.713394 
L 75.644246 287.324679 
L 75.750672 287.437923 
L 76.381673 288.792228 
L 76.381673 288.792228 
L 76.490027 288.688799 
L 76.459788 288.946888 
L 76.492697 288.698619 
L 76.496114 288.685846 
L 76.496114 288.647984 
L 76.498486 288.513863 
L 76.595707 288.76182 
L 76.605386 288.647534 
L 76.610555 288.655472 
L 76.610555 288.655472 
L 76.652473 288.205256 
L 76.72154 288.37677 
L 76.877584 288.651301 
L 76.884483 288.459061 
L 76.894522 288.201073 
L 77.00217 288.390095 
L 77.114238 288.500983 
L 77.225858 288.731416 
L 77.313839 288.882546 
L 77.320738 288.549773 
L 77.323544 288.55725 
L 77.372276 288.650412 
L 77.37969 288.411739 
L 77.38161 288.415287 
L 77.38648 288.191996 
L 77.492449 288.398359 
L 77.599941 288.506299 
L 77.599941 288.506299 
L 77.710729 288.708885 
L 77.833286 288.800143 
L 77.837547 288.636017 
L 77.838841 288.595026 
L 77.946388 288.776097 
L 77.946916 288.752629 
L 78.01589 288.862888 
L 78.126693 289.035988 
L 78.143332 289.058751 
L 78.147903 288.921073 
L 78.15226 288.927624 
L 78.190497 288.423083 
L 78.175973 288.935067 
L 78.263188 288.517359 
L 78.425511 288.704483 
L 78.42984 288.710548 
L 78.448462 288.34248 
L 78.513456 288.44205 
L 78.588515 288.552563 
L 78.588515 288.552563 
L 78.699123 288.682709 
L 78.779921 288.792671 
L 78.901807 288.909221 
L 78.901807 288.85563 
L 78.90554 288.766753 
L 79.011378 288.884295 
L 79.168505 289.021496 
L 79.254057 289.123532 
L 79.280435 289.072133 
L 80.085985 289.465163 
L 80.086026 289.456279 
L 80.147916 288.920701 
L 80.197685 288.947672 
L 80.277126 289.011302 
L 80.28159 288.8853 
L 80.313626 288.742068 
L 80.392664 288.800907 
L 80.833503 288.722353 
L 80.833503 288.709563 
L 80.906329 288.619757 
L 80.945914 288.645532 
L 80.950284 288.547941 
L 80.960269 288.523551 
L 81.05792 288.618755 
L 81.423157 288.729322 
L 81.423157 288.729322 
L 81.458759 288.760972 
L 81.521365 288.515733 
L 81.533525 288.527046 
L 81.926321 288.637988 
L 82.051364 288.713313 
L 82.062144 288.703832 
L 82.248998 288.83032 
L 82.281057 288.854817 
L 82.287643 288.741607 
L 82.31474 288.740729 
L 82.316769 288.68829 
L 82.423544 288.743118 
L 82.674296 288.766673 
L 82.440205 288.642112 
L 82.67673 288.713424 
L 82.766067 288.652277 
L 82.761662 288.713759 
L 82.786707 288.669456 
L 83.349262 288.815347 
L 83.46483 288.883023 
L 83.703451 289.017538 
L 83.703451 289.017538 
L 83.812715 289.088056 
L 84.361197 289.198881 
L 84.647791 289.311306 
L 84.663618 289.200148 
L 84.681484 289.185942 
L 84.774101 289.239956 
L 84.972699 289.35069 
L 85.000853 289.366159 
L 85.007778 289.267684 
L 85.081879 289.306164 
L 85.157905 289.198965 
L 85.157905 289.198965 
L 85.167419 289.117257 
L 85.268703 289.159827 
L 85.312522 289.18058 
L 85.368931 289.115738 
L 85.401988 289.067903 
L 85.397679 289.118677 
L 85.479719 289.086376 
L 86.636708 289.398962 
L 86.802282 289.470378 
L 86.803093 289.458232 
L 86.884257 289.322175 
L 86.913289 289.336116 
L 87.058353 289.246923 
L 87.058353 289.246923 
L 87.063533 289.131979 
L 87.167969 289.182184 
L 87.628847 289.336091 
L 87.740189 289.385847 
L 88.193428 289.276109 
L 88.193428 289.276109 
L 88.195175 289.230092 
L 88.303875 289.271155 
L 88.703541 289.175506 
L 88.703541 289.175506 
L 88.760356 289.11208 
L 88.814228 289.130175 
L 89.278586 289.036529 
L 89.278586 289.036529 
L 89.373142 288.899533 
L 89.389375 288.907188 
L 89.716465 288.932896 
L 89.719875 288.884045 
L 89.727238 288.850311 
L 89.817299 288.888636 
L 89.830789 288.872689 
L 90.11579 288.796275 
L 90.11579 288.791883 
L 90.147622 288.761967 
L 90.226984 288.785229 
L 90.396616 288.840628 
L 90.396616 288.840628 
L 90.46898 288.784886 
L 90.507605 288.80041 
L 91.184293 288.911486 
L 91.665611 289.012005 
L 91.665611 289.011101 
L 91.768428 288.984169 
L 91.718773 289.022758 
L 91.776222 288.987792 
L 93.388716 289.113533 
L 93.389934 289.101471 
L 93.445937 289.001794 
L 93.50055 289.019449 
L 95.348166 289.130515 
L 96.997661 289.336303 
L 96.998313 289.330171 
L 96.999717 289.315341 
L 97.109138 289.340222 
L 97.806572 289.459491 
L 97.812542 289.456675 
L 97.918705 289.483473 
L 100.204515 289.594528 
L 100.270181 289.603369 
L 100.310565 289.512761 
L 103.376013 289.403001 
L 103.379219 289.381979 
L 103.486584 289.39605 
L 106.975927 289.541087 
L 106.976141 289.53759 
L 106.980603 289.510227 
L 107.088481 289.52718 
L 113.356206 289.638202 
L 113.356206 289.638224 
L 113.60903 289.637385 
L 113.669513 289.528455 
L 113.694312 289.511217 
L 113.780936 289.524256 
L 114.881272 289.426105 
L 114.881272 289.426105 
L 114.882684 289.419428 
L 114.991823 289.433757 
L 120.793642 289.555201 
L 120.793642 289.551193 
L 120.818511 289.471421 
L 120.910018 289.483231 
L 131.982464 289.379038 
L 131.982464 289.37669 
L 132.01116 289.31268 
L 132.095885 289.320269 
L 140.02079 289.431299 
L 140.13245 289.439733 
L 140.873511 289.440599 
L 142.879504 289.417556 
L 142.879504 289.417556 
L 142.892216 289.399116 
L 142.990292 289.407639 
L 143.344166 289.410394 
L 143.344166 289.409891 
L 143.46068 289.405167 
L 143.46092 289.405412 
L 148.176653 289.372364 
L 148.176653 289.372364 
L 148.275047 289.348718 
L 148.287191 289.349719 
L 149.141283 289.322071 
L 149.141283 289.321812 
L 149.247148 289.309403 
L 149.251776 289.309873 
L 206.642486 289.420947 
L 208.697588 289.426329 
L 208.697588 289.426329 
L 208.697588 289.424543 
L 208.808509 289.429533 
L 235.112316 289.39546 
L 235.112316 289.395116 
L 235.223258 289.370229 
L 235.223842 289.370358 
L 254.835908 289.285602 
L 254.835908 289.284265 
L 254.99485 289.279766 
L 254.994854 289.27984 
L 304.401771 289.39093 
L 304.401771 289.390935 
L 305.031196 289.359084 
L 310.781239 289.348388 
L 310.781239 289.348388 
L 310.854965 289.343366 
L 310.890756 289.344325 
L 398.487255 289.298414 
L 398.487255 289.298414 
" clip-path="url(#pe3e98b9f7d)" style="fill: none; stroke: #9467bd; stroke-width: 1.5; stroke-linecap: square"/>
   </g>
   <g id="patch_3">
    <path d="M 57.6 307.584 
L 57.6 41.472 
" style="fill: none; stroke: #000000; stroke-width: 0.8; stroke-linejoin: miter; stroke-linecap: square"/>
   </g>
   <g id="patch_4">
    <path d="M 414.72 307.584 
L 414.72 41.472 
" style="fill: none; stroke: #000000; stroke-width: 0.8; stroke-linejoin: miter; stroke-linecap: square"/>
   </g>
   <g id="patch_5">
    <path d="M 57.6 307.584 
L 414.72 307.584 
" style="fill: none; stroke: #000000; stroke-width: 0.8; stroke-linejoin: miter; stroke-linecap: square"/>
   </g>
   <g id="patch_6">
    <path d="M 57.6 41.472 
L 414.72 41.472 
" style="fill: none; stroke: #000000; stroke-width: 0.8; stroke-linejoin: miter; stroke-linecap: square"/>
   </g>
   <g id="text_19">
    <!-- totalWaitAllocateMean vs. TimePoint for Each Run -->
    <g transform="translate(86.701875 35.472) scale(0.12 -0.12)">
     <defs>
      <path id="DejaVuSans-20" transform="scale(0.015625)"/>
      <path id="DejaVuSans-76" d="M 191 3500 
L 800 3500 
L 1894 563 
L 2988 3500 
L 3597 3500 
L 2284 0 
L 1503 0 
L 191 3500 
z
" transform="scale(0.015625)"/>
      <path id="DejaVuSans-73" d="M 2834 3397 
L 2834 2853 
Q 2591 2978 2328 3040 
Q 2066 3103 1784 3103 
Q 1356 3103 1142 2972 
Q 928 2841 928 2578 
Q 928 2378 1081 2264 
Q 1234 2150 1697 2047 
L 1894 2003 
Q 2506 1872 2764 1633 
Q 3022 1394 3022 966 
Q 3022 478 2636 193 
Q 2250 -91 1575 -91 
Q 1294 -91 989 -36 
Q 684 19 347 128 
L 347 722 
Q 666 556 975 473 
Q 1284 391 1588 391 
Q 1994 391 2212 530 
Q 2431 669 2431 922 
Q 2431 1156 2273 1281 
Q 2116 1406 1581 1522 
L 1381 1569 
Q 847 1681 609 1914 
Q 372 2147 372 2553 
Q 372 3047 722 3315 
Q 1072 3584 1716 3584 
Q 2034 3584 2315 3537 
Q 2597 3491 2834 3397 
z
" transform="scale(0.015625)"/>
      <path id="DejaVuSans-66" d="M 2375 4863 
L 2375 4384 
L 1825 4384 
Q 1516 4384 1395 4259 
Q 1275 4134 1275 3809 
L 1275 3500 
L 2222 3500 
L 2222 3053 
L 1275 3053 
L 1275 0 
L 697 0 
L 697 3053 
L 147 3053 
L 147 3500 
L 697 3500 
L 697 3744 
Q 697 4328 969 4595 
Q 1241 4863 1831 4863 
L 2375 4863 
z
" transform="scale(0.015625)"/>
      <path id="DejaVuSans-72" d="M 2631 2963 
Q 2534 3019 2420 3045 
Q 2306 3072 2169 3072 
Q 1681 3072 1420 2755 
Q 1159 2438 1159 1844 
L 1159 0 
L 581 0 
L 581 3500 
L 1159 3500 
L 1159 2956 
Q 1341 3275 1631 3429 
Q 1922 3584 2338 3584 
Q 2397 3584 2469 3576 
Q 2541 3569 2628 3553 
L 2631 2963 
z
" transform="scale(0.015625)"/>
      <path id="DejaVuSans-45" d="M 628 4666 
L 3578 4666 
L 3578 4134 
L 1259 4134 
L 1259 2753 
L 3481 2753 
L 3481 2222 
L 1259 2222 
L 1259 531 
L 3634 531 
L 3634 0 
L 628 0 
L 628 4666 
z
" transform="scale(0.015625)"/>
      <path id="DejaVuSans-68" d="M 3513 2113 
L 3513 0 
L 2938 0 
L 2938 2094 
Q 2938 2591 2744 2837 
Q 2550 3084 2163 3084 
Q 1697 3084 1428 2787 
Q 1159 2491 1159 1978 
L 1159 0 
L 581 0 
L 581 4863 
L 1159 4863 
L 1159 2956 
Q 1366 3272 1645 3428 
Q 1925 3584 2291 3584 
Q 2894 3584 3203 3211 
Q 3513 2838 3513 2113 
z
" transform="scale(0.015625)"/>
      <path id="DejaVuSans-52" d="M 2841 2188 
Q 3044 2119 3236 1894 
Q 3428 1669 3622 1275 
L 4263 0 
L 3584 0 
L 2988 1197 
Q 2756 1666 2539 1819 
Q 2322 1972 1947 1972 
L 1259 1972 
L 1259 0 
L 628 0 
L 628 4666 
L 2053 4666 
Q 2853 4666 3247 4331 
Q 3641 3997 3641 3322 
Q 3641 2881 3436 2590 
Q 3231 2300 2841 2188 
z
M 1259 4147 
L 1259 2491 
L 2053 2491 
Q 2509 2491 2742 2702 
Q 2975 2913 2975 3322 
Q 2975 3731 2742 3939 
Q 2509 4147 2053 4147 
L 1259 4147 
z
" transform="scale(0.015625)"/>
      <path id="DejaVuSans-75" d="M 544 1381 
L 544 3500 
L 1119 3500 
L 1119 1403 
Q 1119 906 1312 657 
Q 1506 409 1894 409 
Q 2359 409 2629 706 
Q 2900 1003 2900 1516 
L 2900 3500 
L 3475 3500 
L 3475 0 
L 2900 0 
L 2900 538 
Q 2691 219 2414 64 
Q 2138 -91 1772 -91 
Q 1169 -91 856 284 
Q 544 659 544 1381 
z
M 1991 3584 
L 1991 3584 
z
" transform="scale(0.015625)"/>
     </defs>
     <use xlink:href="#DejaVuSans-74"/>
     <use xlink:href="#DejaVuSans-6f" x="39.208984"/>
     <use xlink:href="#DejaVuSans-74" x="100.390625"/>
     <use xlink:href="#DejaVuSans-61" x="139.599609"/>
     <use xlink:href="#DejaVuSans-6c" x="200.878906"/>
     <use xlink:href="#DejaVuSans-57" x="228.662109"/>
     <use xlink:href="#DejaVuSans-61" x="321.164062"/>
     <use xlink:href="#DejaVuSans-69" x="382.443359"/>
     <use xlink:href="#DejaVuSans-74" x="410.226562"/>
     <use xlink:href="#DejaVuSans-41" x="449.435547"/>
     <use xlink:href="#DejaVuSans-6c" x="517.84375"/>
     <use xlink:href="#DejaVuSans-6c" x="545.626953"/>
     <use xlink:href="#DejaVuSans-6f" x="573.410156"/>
     <use xlink:href="#DejaVuSans-63" x="634.591797"/>
     <use xlink:href="#DejaVuSans-61" x="689.572266"/>
     <use xlink:href="#DejaVuSans-74" x="750.851562"/>
     <use xlink:href="#DejaVuSans-65" x="790.060547"/>
     <use xlink:href="#DejaVuSans-4d" x="851.583984"/>
     <use xlink:href="#DejaVuSans-65" x="937.863281"/>
     <use xlink:href="#DejaVuSans-61" x="999.386719"/>
     <use xlink:href="#DejaVuSans-6e" x="1060.666016"/>
     <use xlink:href="#DejaVuSans-20" x="1124.044922"/>
     <use xlink:href="#DejaVuSans-76" x="1155.832031"/>
     <use xlink:href="#DejaVuSans-73" x="1215.011719"/>
     <use xlink:href="#DejaVuSans-2e" x="1267.111328"/>
     <use xlink:href="#DejaVuSans-20" x="1298.898438"/>
     <use xlink:href="#DejaVuSans-54" x="1330.685547"/>
     <use xlink:href="#DejaVuSans-69" x="1388.644531"/>
     <use xlink:href="#DejaVuSans-6d" x="1416.427734"/>
     <use xlink:href="#DejaVuSans-65" x="1513.839844"/>
     <use xlink:href="#DejaVuSans-50" x="1575.363281"/>
     <use xlink:href="#DejaVuSans-6f" x="1632.041016"/>
     <use xlink:href="#DejaVuSans-69" x="1693.222656"/>
     <use xlink:href="#DejaVuSans-6e" x="1721.005859"/>
     <use xlink:href="#DejaVuSans-74" x="1784.384766"/>
     <use xlink:href="#DejaVuSans-20" x="1823.59375"/>
     <use xlink:href="#DejaVuSans-66" x="1855.380859"/>
     <use xlink:href="#DejaVuSans-6f" x="1890.585938"/>
     <use xlink:href="#DejaVuSans-72" x="1951.767578"/>
     <use xlink:href="#DejaVuSans-20" x="1992.880859"/>
     <use xlink:href="#DejaVuSans-45" x="2024.667969"/>
     <use xlink:href="#DejaVuSans-61" x="2087.851562"/>
     <use xlink:href="#DejaVuSans-63" x="2149.130859"/>
     <use xlink:href="#DejaVuSans-68" x="2204.111328"/>
     <use xlink:href="#DejaVuSans-20" x="2267.490234"/>
     <use xlink:href="#DejaVuSans-52" x="2299.277344"/>
     <use xlink:href="#DejaVuSans-75" x="2364.259766"/>
     <use xlink:href="#DejaVuSans-6e" x="2427.638672"/>
    </g>
   </g>
   <g id="legend_1">
    <g id="patch_7">
     <path d="M 341.196563 137.54075 
L 407.72 137.54075 
Q 409.72 137.54075 409.72 135.54075 
L 409.72 48.472 
Q 409.72 46.472 407.72 46.472 
L 341.196563 46.472 
Q 339.196563 46.472 339.196563 48.472 
L 339.196563 135.54075 
Q 339.196563 137.54075 341.196563 137.54075 
z
" style="fill: #ffffff; opacity: 0.8; stroke: #cccccc; stroke-linejoin: miter"/>
    </g>
    <g id="text_20">
     <!-- Run Number -->
     <g transform="translate(343.196563 58.070438) scale(0.1 -0.1)">
      <defs>
       <path id="DejaVuSans-4e" d="M 628 4666 
L 1478 4666 
L 3547 763 
L 3547 4666 
L 4159 4666 
L 4159 0 
L 3309 0 
L 1241 3903 
L 1241 0 
L 628 0 
L 628 4666 
z
" transform="scale(0.015625)"/>
       <path id="DejaVuSans-62" d="M 3116 1747 
Q 3116 2381 2855 2742 
Q 2594 3103 2138 3103 
Q 1681 3103 1420 2742 
Q 1159 2381 1159 1747 
Q 1159 1113 1420 752 
Q 1681 391 2138 391 
Q 2594 391 2855 752 
Q 3116 1113 3116 1747 
z
M 1159 2969 
Q 1341 3281 1617 3432 
Q 1894 3584 2278 3584 
Q 2916 3584 3314 3078 
Q 3713 2572 3713 1747 
Q 3713 922 3314 415 
Q 2916 -91 2278 -91 
Q 1894 -91 1617 61 
Q 1341 213 1159 525 
L 1159 0 
L 581 0 
L 581 4863 
L 1159 4863 
L 1159 2969 
z
" transform="scale(0.015625)"/>
      </defs>
      <use xlink:href="#DejaVuSans-52"/>
      <use xlink:href="#DejaVuSans-75" x="64.982422"/>
      <use xlink:href="#DejaVuSans-6e" x="128.361328"/>
      <use xlink:href="#DejaVuSans-20" x="191.740234"/>
      <use xlink:href="#DejaVuSans-4e" x="223.527344"/>
      <use xlink:href="#DejaVuSans-75" x="298.332031"/>
      <use xlink:href="#DejaVuSans-6d" x="361.710938"/>
      <use xlink:href="#DejaVuSans-62" x="459.123047"/>
      <use xlink:href="#DejaVuSans-65" x="522.599609"/>
      <use xlink:href="#DejaVuSans-72" x="584.123047"/>
     </g>
    </g>
    <g id="line2d_38">
     <path d="M 346.10125 69.248563 
L 356.10125 69.248563 
L 366.10125 69.248563 
" style="fill: none; stroke: #1f77b4; stroke-width: 1.5; stroke-linecap: square"/>
    </g>
    <g id="text_21">
     <!-- Run 0 -->
     <g transform="translate(374.10125 72.748563) scale(0.1 -0.1)">
      <use xlink:href="#DejaVuSans-52"/>
      <use xlink:href="#DejaVuSans-75" x="64.982422"/>
      <use xlink:href="#DejaVuSans-6e" x="128.361328"/>
      <use xlink:href="#DejaVuSans-20" x="191.740234"/>
      <use xlink:href="#DejaVuSans-30" x="223.527344"/>
     </g>
    </g>
    <g id="line2d_39">
     <path d="M 346.10125 83.926688 
L 356.10125 83.926688 
L 366.10125 83.926688 
" style="fill: none; stroke: #ff7f0e; stroke-width: 1.5; stroke-linecap: square"/>
    </g>
    <g id="text_22">
     <!-- Run 1 -->
     <g transform="translate(374.10125 87.426688) scale(0.1 -0.1)">
      <use xlink:href="#DejaVuSans-52"/>
      <use xlink:href="#DejaVuSans-75" x="64.982422"/>
      <use xlink:href="#DejaVuSans-6e" x="128.361328"/>
      <use xlink:href="#DejaVuSans-20" x="191.740234"/>
      <use xlink:href="#DejaVuSans-31" x="223.527344"/>
     </g>
    </g>
    <g id="line2d_40">
     <path d="M 346.10125 98.604813 
L 356.10125 98.604813 
L 366.10125 98.604813 
" style="fill: none; stroke: #2ca02c; stroke-width: 1.5; stroke-linecap: square"/>
    </g>
    <g id="text_23">
     <!-- Run 2 -->
     <g transform="translate(374.10125 102.104813) scale(0.1 -0.1)">
      <use xlink:href="#DejaVuSans-52"/>
      <use xlink:href="#DejaVuSans-75" x="64.982422"/>
      <use xlink:href="#DejaVuSans-6e" x="128.361328"/>
      <use xlink:href="#DejaVuSans-20" x="191.740234"/>
      <use xlink:href="#DejaVuSans-32" x="223.527344"/>
     </g>
    </g>
    <g id="line2d_41">
     <path d="M 346.10125 113.282938 
L 356.10125 113.282938 
L 366.10125 113.282938 
" style="fill: none; stroke: #d62728; stroke-width: 1.5; stroke-linecap: square"/>
    </g>
    <g id="text_24">
     <!-- Run 3 -->
     <g transform="translate(374.10125 116.782938) scale(0.1 -0.1)">
      <use xlink:href="#DejaVuSans-52"/>
      <use xlink:href="#DejaVuSans-75" x="64.982422"/>
      <use xlink:href="#DejaVuSans-6e" x="128.361328"/>
      <use xlink:href="#DejaVuSans-20" x="191.740234"/>
      <use xlink:href="#DejaVuSans-33" x="223.527344"/>
     </g>
    </g>
    <g id="line2d_42">
     <path d="M 346.10125 127.961063 
L 356.10125 127.961063 
L 366.10125 127.961063 
" style="fill: none; stroke: #9467bd; stroke-width: 1.5; stroke-linecap: square"/>
    </g>
    <g id="text_25">
     <!-- Run 4 -->
     <g transform="translate(374.10125 131.461063) scale(0.1 -0.1)">
      <use xlink:href="#DejaVuSans-52"/>
      <use xlink:href="#DejaVuSans-75" x="64.982422"/>
      <use xlink:href="#DejaVuSans-6e" x="128.361328"/>
      <use xlink:href="#DejaVuSans-20" x="191.740234"/>
      <use xlink:href="#DejaVuSans-34" x="223.527344"/>
     </g>
    </g>
   </g>
  </g>
 </g>
 <defs>
  <clipPath id="pe3e98b9f7d">
   <rect x="57.6" y="41.472" width="357.12" height="266.112"/>
  </clipPath>
 </defs>
</svg>
