<?xml version="1.0" encoding="utf-8" standalone="no"?>
<!DOCTYPE svg PUBLIC "-//W3C//DTD SVG 1.1//EN"
  "http://www.w3.org/Graphics/SVG/1.1/DTD/svg11.dtd">
<svg xmlns:xlink="http://www.w3.org/1999/xlink" width="460.8pt" height="345.6pt" viewBox="0 0 460.8 345.6" xmlns="http://www.w3.org/2000/svg" version="1.1">
 <metadata>
  <rdf:RDF xmlns:dc="http://purl.org/dc/elements/1.1/" xmlns:cc="http://creativecommons.org/ns#" xmlns:rdf="http://www.w3.org/1999/02/22-rdf-syntax-ns#">
   <cc:Work>
    <dc:type rdf:resource="http://purl.org/dc/dcmitype/StillImage"/>
    <dc:date>2024-12-03T11:44:31.194611</dc:date>
    <dc:format>image/svg+xml</dc:format>
    <dc:creator>
     <cc:Agent>
      <dc:title>Matplotlib v3.9.2, https://matplotlib.org/</dc:title>
     </cc:Agent>
    </dc:creator>
   </cc:Work>
  </rdf:RDF>
 </metadata>
 <defs>
  <style type="text/css">*{stroke-linejoin: round; stroke-linecap: butt}</style>
 </defs>
 <g id="figure_1">
  <g id="patch_1">
   <path d="M 0 345.6 
L 460.8 345.6 
L 460.8 0 
L 0 0 
z
" style="fill: #ffffff"/>
  </g>
  <g id="axes_1">
   <g id="patch_2">
    <path d="M 57.6 307.584 
L 414.72 307.584 
L 414.72 41.472 
L 57.6 41.472 
z
" style="fill: #ffffff"/>
   </g>
   <g id="matplotlib.axis_1">
    <g id="xtick_1">
     <g id="line2d_1">
      <path d="M 73.832727 307.584 
L 73.832727 41.472 
" clip-path="url(#p6777ed1d27)" style="fill: none; stroke: #b0b0b0; stroke-width: 0.8; stroke-linecap: square"/>
     </g>
     <g id="line2d_2">
      <defs>
       <path id="me792d6f97a" d="M 0 0 
L 0 3.5 
" style="stroke: #000000; stroke-width: 0.8"/>
      </defs>
      <g>
       <use xlink:href="#me792d6f97a" x="73.832727" y="307.584" style="stroke: #000000; stroke-width: 0.8"/>
      </g>
     </g>
     <g id="text_1">
      <!-- 0 -->
      <g transform="translate(70.651477 322.182437) scale(0.1 -0.1)">
       <defs>
        <path id="DejaVuSans-30" d="M 2034 4250 
Q 1547 4250 1301 3770 
Q 1056 3291 1056 2328 
Q 1056 1369 1301 889 
Q 1547 409 2034 409 
Q 2525 409 2770 889 
Q 3016 1369 3016 2328 
Q 3016 3291 2770 3770 
Q 2525 4250 2034 4250 
z
M 2034 4750 
Q 2819 4750 3233 4129 
Q 3647 3509 3647 2328 
Q 3647 1150 3233 529 
Q 2819 -91 2034 -91 
Q 1250 -91 836 529 
Q 422 1150 422 2328 
Q 422 3509 836 4129 
Q 1250 4750 2034 4750 
z
" transform="scale(0.015625)"/>
       </defs>
       <use xlink:href="#DejaVuSans-30"/>
      </g>
     </g>
    </g>
    <g id="xtick_2">
     <g id="line2d_3">
      <path d="M 114.414556 307.584 
L 114.414556 41.472 
" clip-path="url(#p6777ed1d27)" style="fill: none; stroke: #b0b0b0; stroke-width: 0.8; stroke-linecap: square"/>
     </g>
     <g id="line2d_4">
      <g>
       <use xlink:href="#me792d6f97a" x="114.414556" y="307.584" style="stroke: #000000; stroke-width: 0.8"/>
      </g>
     </g>
     <g id="text_2">
      <!-- 100000 -->
      <g transform="translate(95.327056 322.182437) scale(0.1 -0.1)">
       <defs>
        <path id="DejaVuSans-31" d="M 794 531 
L 1825 531 
L 1825 4091 
L 703 3866 
L 703 4441 
L 1819 4666 
L 2450 4666 
L 2450 531 
L 3481 531 
L 3481 0 
L 794 0 
L 794 531 
z
" transform="scale(0.015625)"/>
       </defs>
       <use xlink:href="#DejaVuSans-31"/>
       <use xlink:href="#DejaVuSans-30" x="63.623047"/>
       <use xlink:href="#DejaVuSans-30" x="127.246094"/>
       <use xlink:href="#DejaVuSans-30" x="190.869141"/>
       <use xlink:href="#DejaVuSans-30" x="254.492188"/>
       <use xlink:href="#DejaVuSans-30" x="318.115234"/>
      </g>
     </g>
    </g>
    <g id="xtick_3">
     <g id="line2d_5">
      <path d="M 154.996384 307.584 
L 154.996384 41.472 
" clip-path="url(#p6777ed1d27)" style="fill: none; stroke: #b0b0b0; stroke-width: 0.8; stroke-linecap: square"/>
     </g>
     <g id="line2d_6">
      <g>
       <use xlink:href="#me792d6f97a" x="154.996384" y="307.584" style="stroke: #000000; stroke-width: 0.8"/>
      </g>
     </g>
     <g id="text_3">
      <!-- 200000 -->
      <g transform="translate(135.908884 322.182437) scale(0.1 -0.1)">
       <defs>
        <path id="DejaVuSans-32" d="M 1228 531 
L 3431 531 
L 3431 0 
L 469 0 
L 469 531 
Q 828 903 1448 1529 
Q 2069 2156 2228 2338 
Q 2531 2678 2651 2914 
Q 2772 3150 2772 3378 
Q 2772 3750 2511 3984 
Q 2250 4219 1831 4219 
Q 1534 4219 1204 4116 
Q 875 4013 500 3803 
L 500 4441 
Q 881 4594 1212 4672 
Q 1544 4750 1819 4750 
Q 2544 4750 2975 4387 
Q 3406 4025 3406 3419 
Q 3406 3131 3298 2873 
Q 3191 2616 2906 2266 
Q 2828 2175 2409 1742 
Q 1991 1309 1228 531 
z
" transform="scale(0.015625)"/>
       </defs>
       <use xlink:href="#DejaVuSans-32"/>
       <use xlink:href="#DejaVuSans-30" x="63.623047"/>
       <use xlink:href="#DejaVuSans-30" x="127.246094"/>
       <use xlink:href="#DejaVuSans-30" x="190.869141"/>
       <use xlink:href="#DejaVuSans-30" x="254.492188"/>
       <use xlink:href="#DejaVuSans-30" x="318.115234"/>
      </g>
     </g>
    </g>
    <g id="xtick_4">
     <g id="line2d_7">
      <path d="M 195.578212 307.584 
L 195.578212 41.472 
" clip-path="url(#p6777ed1d27)" style="fill: none; stroke: #b0b0b0; stroke-width: 0.8; stroke-linecap: square"/>
     </g>
     <g id="line2d_8">
      <g>
       <use xlink:href="#me792d6f97a" x="195.578212" y="307.584" style="stroke: #000000; stroke-width: 0.8"/>
      </g>
     </g>
     <g id="text_4">
      <!-- 300000 -->
      <g transform="translate(176.490712 322.182437) scale(0.1 -0.1)">
       <defs>
        <path id="DejaVuSans-33" d="M 2597 2516 
Q 3050 2419 3304 2112 
Q 3559 1806 3559 1356 
Q 3559 666 3084 287 
Q 2609 -91 1734 -91 
Q 1441 -91 1130 -33 
Q 819 25 488 141 
L 488 750 
Q 750 597 1062 519 
Q 1375 441 1716 441 
Q 2309 441 2620 675 
Q 2931 909 2931 1356 
Q 2931 1769 2642 2001 
Q 2353 2234 1838 2234 
L 1294 2234 
L 1294 2753 
L 1863 2753 
Q 2328 2753 2575 2939 
Q 2822 3125 2822 3475 
Q 2822 3834 2567 4026 
Q 2313 4219 1838 4219 
Q 1578 4219 1281 4162 
Q 984 4106 628 3988 
L 628 4550 
Q 988 4650 1302 4700 
Q 1616 4750 1894 4750 
Q 2613 4750 3031 4423 
Q 3450 4097 3450 3541 
Q 3450 3153 3228 2886 
Q 3006 2619 2597 2516 
z
" transform="scale(0.015625)"/>
       </defs>
       <use xlink:href="#DejaVuSans-33"/>
       <use xlink:href="#DejaVuSans-30" x="63.623047"/>
       <use xlink:href="#DejaVuSans-30" x="127.246094"/>
       <use xlink:href="#DejaVuSans-30" x="190.869141"/>
       <use xlink:href="#DejaVuSans-30" x="254.492188"/>
       <use xlink:href="#DejaVuSans-30" x="318.115234"/>
      </g>
     </g>
    </g>
    <g id="xtick_5">
     <g id="line2d_9">
      <path d="M 236.16004 307.584 
L 236.16004 41.472 
" clip-path="url(#p6777ed1d27)" style="fill: none; stroke: #b0b0b0; stroke-width: 0.8; stroke-linecap: square"/>
     </g>
     <g id="line2d_10">
      <g>
       <use xlink:href="#me792d6f97a" x="236.16004" y="307.584" style="stroke: #000000; stroke-width: 0.8"/>
      </g>
     </g>
     <g id="text_5">
      <!-- 400000 -->
      <g transform="translate(217.07254 322.182437) scale(0.1 -0.1)">
       <defs>
        <path id="DejaVuSans-34" d="M 2419 4116 
L 825 1625 
L 2419 1625 
L 2419 4116 
z
M 2253 4666 
L 3047 4666 
L 3047 1625 
L 3713 1625 
L 3713 1100 
L 3047 1100 
L 3047 0 
L 2419 0 
L 2419 1100 
L 313 1100 
L 313 1709 
L 2253 4666 
z
" transform="scale(0.015625)"/>
       </defs>
       <use xlink:href="#DejaVuSans-34"/>
       <use xlink:href="#DejaVuSans-30" x="63.623047"/>
       <use xlink:href="#DejaVuSans-30" x="127.246094"/>
       <use xlink:href="#DejaVuSans-30" x="190.869141"/>
       <use xlink:href="#DejaVuSans-30" x="254.492188"/>
       <use xlink:href="#DejaVuSans-30" x="318.115234"/>
      </g>
     </g>
    </g>
    <g id="xtick_6">
     <g id="line2d_11">
      <path d="M 276.741869 307.584 
L 276.741869 41.472 
" clip-path="url(#p6777ed1d27)" style="fill: none; stroke: #b0b0b0; stroke-width: 0.8; stroke-linecap: square"/>
     </g>
     <g id="line2d_12">
      <g>
       <use xlink:href="#me792d6f97a" x="276.741869" y="307.584" style="stroke: #000000; stroke-width: 0.8"/>
      </g>
     </g>
     <g id="text_6">
      <!-- 500000 -->
      <g transform="translate(257.654369 322.182437) scale(0.1 -0.1)">
       <defs>
        <path id="DejaVuSans-35" d="M 691 4666 
L 3169 4666 
L 3169 4134 
L 1269 4134 
L 1269 2991 
Q 1406 3038 1543 3061 
Q 1681 3084 1819 3084 
Q 2600 3084 3056 2656 
Q 3513 2228 3513 1497 
Q 3513 744 3044 326 
Q 2575 -91 1722 -91 
Q 1428 -91 1123 -41 
Q 819 9 494 109 
L 494 744 
Q 775 591 1075 516 
Q 1375 441 1709 441 
Q 2250 441 2565 725 
Q 2881 1009 2881 1497 
Q 2881 1984 2565 2268 
Q 2250 2553 1709 2553 
Q 1456 2553 1204 2497 
Q 953 2441 691 2322 
L 691 4666 
z
" transform="scale(0.015625)"/>
       </defs>
       <use xlink:href="#DejaVuSans-35"/>
       <use xlink:href="#DejaVuSans-30" x="63.623047"/>
       <use xlink:href="#DejaVuSans-30" x="127.246094"/>
       <use xlink:href="#DejaVuSans-30" x="190.869141"/>
       <use xlink:href="#DejaVuSans-30" x="254.492188"/>
       <use xlink:href="#DejaVuSans-30" x="318.115234"/>
      </g>
     </g>
    </g>
    <g id="xtick_7">
     <g id="line2d_13">
      <path d="M 317.323697 307.584 
L 317.323697 41.472 
" clip-path="url(#p6777ed1d27)" style="fill: none; stroke: #b0b0b0; stroke-width: 0.8; stroke-linecap: square"/>
     </g>
     <g id="line2d_14">
      <g>
       <use xlink:href="#me792d6f97a" x="317.323697" y="307.584" style="stroke: #000000; stroke-width: 0.8"/>
      </g>
     </g>
     <g id="text_7">
      <!-- 600000 -->
      <g transform="translate(298.236197 322.182437) scale(0.1 -0.1)">
       <defs>
        <path id="DejaVuSans-36" d="M 2113 2584 
Q 1688 2584 1439 2293 
Q 1191 2003 1191 1497 
Q 1191 994 1439 701 
Q 1688 409 2113 409 
Q 2538 409 2786 701 
Q 3034 994 3034 1497 
Q 3034 2003 2786 2293 
Q 2538 2584 2113 2584 
z
M 3366 4563 
L 3366 3988 
Q 3128 4100 2886 4159 
Q 2644 4219 2406 4219 
Q 1781 4219 1451 3797 
Q 1122 3375 1075 2522 
Q 1259 2794 1537 2939 
Q 1816 3084 2150 3084 
Q 2853 3084 3261 2657 
Q 3669 2231 3669 1497 
Q 3669 778 3244 343 
Q 2819 -91 2113 -91 
Q 1303 -91 875 529 
Q 447 1150 447 2328 
Q 447 3434 972 4092 
Q 1497 4750 2381 4750 
Q 2619 4750 2861 4703 
Q 3103 4656 3366 4563 
z
" transform="scale(0.015625)"/>
       </defs>
       <use xlink:href="#DejaVuSans-36"/>
       <use xlink:href="#DejaVuSans-30" x="63.623047"/>
       <use xlink:href="#DejaVuSans-30" x="127.246094"/>
       <use xlink:href="#DejaVuSans-30" x="190.869141"/>
       <use xlink:href="#DejaVuSans-30" x="254.492188"/>
       <use xlink:href="#DejaVuSans-30" x="318.115234"/>
      </g>
     </g>
    </g>
    <g id="xtick_8">
     <g id="line2d_15">
      <path d="M 357.905525 307.584 
L 357.905525 41.472 
" clip-path="url(#p6777ed1d27)" style="fill: none; stroke: #b0b0b0; stroke-width: 0.8; stroke-linecap: square"/>
     </g>
     <g id="line2d_16">
      <g>
       <use xlink:href="#me792d6f97a" x="357.905525" y="307.584" style="stroke: #000000; stroke-width: 0.8"/>
      </g>
     </g>
     <g id="text_8">
      <!-- 700000 -->
      <g transform="translate(338.818025 322.182437) scale(0.1 -0.1)">
       <defs>
        <path id="DejaVuSans-37" d="M 525 4666 
L 3525 4666 
L 3525 4397 
L 1831 0 
L 1172 0 
L 2766 4134 
L 525 4134 
L 525 4666 
z
" transform="scale(0.015625)"/>
       </defs>
       <use xlink:href="#DejaVuSans-37"/>
       <use xlink:href="#DejaVuSans-30" x="63.623047"/>
       <use xlink:href="#DejaVuSans-30" x="127.246094"/>
       <use xlink:href="#DejaVuSans-30" x="190.869141"/>
       <use xlink:href="#DejaVuSans-30" x="254.492188"/>
       <use xlink:href="#DejaVuSans-30" x="318.115234"/>
      </g>
     </g>
    </g>
    <g id="xtick_9">
     <g id="line2d_17">
      <path d="M 398.487353 307.584 
L 398.487353 41.472 
" clip-path="url(#p6777ed1d27)" style="fill: none; stroke: #b0b0b0; stroke-width: 0.8; stroke-linecap: square"/>
     </g>
     <g id="line2d_18">
      <g>
       <use xlink:href="#me792d6f97a" x="398.487353" y="307.584" style="stroke: #000000; stroke-width: 0.8"/>
      </g>
     </g>
     <g id="text_9">
      <!-- 800000 -->
      <g transform="translate(379.399853 322.182437) scale(0.1 -0.1)">
       <defs>
        <path id="DejaVuSans-38" d="M 2034 2216 
Q 1584 2216 1326 1975 
Q 1069 1734 1069 1313 
Q 1069 891 1326 650 
Q 1584 409 2034 409 
Q 2484 409 2743 651 
Q 3003 894 3003 1313 
Q 3003 1734 2745 1975 
Q 2488 2216 2034 2216 
z
M 1403 2484 
Q 997 2584 770 2862 
Q 544 3141 544 3541 
Q 544 4100 942 4425 
Q 1341 4750 2034 4750 
Q 2731 4750 3128 4425 
Q 3525 4100 3525 3541 
Q 3525 3141 3298 2862 
Q 3072 2584 2669 2484 
Q 3125 2378 3379 2068 
Q 3634 1759 3634 1313 
Q 3634 634 3220 271 
Q 2806 -91 2034 -91 
Q 1263 -91 848 271 
Q 434 634 434 1313 
Q 434 1759 690 2068 
Q 947 2378 1403 2484 
z
M 1172 3481 
Q 1172 3119 1398 2916 
Q 1625 2713 2034 2713 
Q 2441 2713 2670 2916 
Q 2900 3119 2900 3481 
Q 2900 3844 2670 4047 
Q 2441 4250 2034 4250 
Q 1625 4250 1398 4047 
Q 1172 3844 1172 3481 
z
" transform="scale(0.015625)"/>
       </defs>
       <use xlink:href="#DejaVuSans-38"/>
       <use xlink:href="#DejaVuSans-30" x="63.623047"/>
       <use xlink:href="#DejaVuSans-30" x="127.246094"/>
       <use xlink:href="#DejaVuSans-30" x="190.869141"/>
       <use xlink:href="#DejaVuSans-30" x="254.492188"/>
       <use xlink:href="#DejaVuSans-30" x="318.115234"/>
      </g>
     </g>
    </g>
    <g id="text_10">
     <!-- TimePoint -->
     <g transform="translate(211.515469 335.860562) scale(0.1 -0.1)">
      <defs>
       <path id="DejaVuSans-54" d="M -19 4666 
L 3928 4666 
L 3928 4134 
L 2272 4134 
L 2272 0 
L 1638 0 
L 1638 4134 
L -19 4134 
L -19 4666 
z
" transform="scale(0.015625)"/>
       <path id="DejaVuSans-69" d="M 603 3500 
L 1178 3500 
L 1178 0 
L 603 0 
L 603 3500 
z
M 603 4863 
L 1178 4863 
L 1178 4134 
L 603 4134 
L 603 4863 
z
" transform="scale(0.015625)"/>
       <path id="DejaVuSans-6d" d="M 3328 2828 
Q 3544 3216 3844 3400 
Q 4144 3584 4550 3584 
Q 5097 3584 5394 3201 
Q 5691 2819 5691 2113 
L 5691 0 
L 5113 0 
L 5113 2094 
Q 5113 2597 4934 2840 
Q 4756 3084 4391 3084 
Q 3944 3084 3684 2787 
Q 3425 2491 3425 1978 
L 3425 0 
L 2847 0 
L 2847 2094 
Q 2847 2600 2669 2842 
Q 2491 3084 2119 3084 
Q 1678 3084 1418 2786 
Q 1159 2488 1159 1978 
L 1159 0 
L 581 0 
L 581 3500 
L 1159 3500 
L 1159 2956 
Q 1356 3278 1631 3431 
Q 1906 3584 2284 3584 
Q 2666 3584 2933 3390 
Q 3200 3197 3328 2828 
z
" transform="scale(0.015625)"/>
       <path id="DejaVuSans-65" d="M 3597 1894 
L 3597 1613 
L 953 1613 
Q 991 1019 1311 708 
Q 1631 397 2203 397 
Q 2534 397 2845 478 
Q 3156 559 3463 722 
L 3463 178 
Q 3153 47 2828 -22 
Q 2503 -91 2169 -91 
Q 1331 -91 842 396 
Q 353 884 353 1716 
Q 353 2575 817 3079 
Q 1281 3584 2069 3584 
Q 2775 3584 3186 3129 
Q 3597 2675 3597 1894 
z
M 3022 2063 
Q 3016 2534 2758 2815 
Q 2500 3097 2075 3097 
Q 1594 3097 1305 2825 
Q 1016 2553 972 2059 
L 3022 2063 
z
" transform="scale(0.015625)"/>
       <path id="DejaVuSans-50" d="M 1259 4147 
L 1259 2394 
L 2053 2394 
Q 2494 2394 2734 2622 
Q 2975 2850 2975 3272 
Q 2975 3691 2734 3919 
Q 2494 4147 2053 4147 
L 1259 4147 
z
M 628 4666 
L 2053 4666 
Q 2838 4666 3239 4311 
Q 3641 3956 3641 3272 
Q 3641 2581 3239 2228 
Q 2838 1875 2053 1875 
L 1259 1875 
L 1259 0 
L 628 0 
L 628 4666 
z
" transform="scale(0.015625)"/>
       <path id="DejaVuSans-6f" d="M 1959 3097 
Q 1497 3097 1228 2736 
Q 959 2375 959 1747 
Q 959 1119 1226 758 
Q 1494 397 1959 397 
Q 2419 397 2687 759 
Q 2956 1122 2956 1747 
Q 2956 2369 2687 2733 
Q 2419 3097 1959 3097 
z
M 1959 3584 
Q 2709 3584 3137 3096 
Q 3566 2609 3566 1747 
Q 3566 888 3137 398 
Q 2709 -91 1959 -91 
Q 1206 -91 779 398 
Q 353 888 353 1747 
Q 353 2609 779 3096 
Q 1206 3584 1959 3584 
z
" transform="scale(0.015625)"/>
       <path id="DejaVuSans-6e" d="M 3513 2113 
L 3513 0 
L 2938 0 
L 2938 2094 
Q 2938 2591 2744 2837 
Q 2550 3084 2163 3084 
Q 1697 3084 1428 2787 
Q 1159 2491 1159 1978 
L 1159 0 
L 581 0 
L 581 3500 
L 1159 3500 
L 1159 2956 
Q 1366 3272 1645 3428 
Q 1925 3584 2291 3584 
Q 2894 3584 3203 3211 
Q 3513 2838 3513 2113 
z
" transform="scale(0.015625)"/>
       <path id="DejaVuSans-74" d="M 1172 4494 
L 1172 3500 
L 2356 3500 
L 2356 3053 
L 1172 3053 
L 1172 1153 
Q 1172 725 1289 603 
Q 1406 481 1766 481 
L 2356 481 
L 2356 0 
L 1766 0 
Q 1100 0 847 248 
Q 594 497 594 1153 
L 594 3053 
L 172 3053 
L 172 3500 
L 594 3500 
L 594 4494 
L 1172 4494 
z
" transform="scale(0.015625)"/>
      </defs>
      <use xlink:href="#DejaVuSans-54"/>
      <use xlink:href="#DejaVuSans-69" x="57.958984"/>
      <use xlink:href="#DejaVuSans-6d" x="85.742188"/>
      <use xlink:href="#DejaVuSans-65" x="183.154297"/>
      <use xlink:href="#DejaVuSans-50" x="244.677734"/>
      <use xlink:href="#DejaVuSans-6f" x="301.355469"/>
      <use xlink:href="#DejaVuSans-69" x="362.537109"/>
      <use xlink:href="#DejaVuSans-6e" x="390.320312"/>
      <use xlink:href="#DejaVuSans-74" x="453.699219"/>
     </g>
    </g>
   </g>
   <g id="matplotlib.axis_2">
    <g id="ytick_1">
     <g id="line2d_19">
      <path d="M 57.6 295.488 
L 414.72 295.488 
" clip-path="url(#p6777ed1d27)" style="fill: none; stroke: #b0b0b0; stroke-width: 0.8; stroke-linecap: square"/>
     </g>
     <g id="line2d_20">
      <defs>
       <path id="macdd2f11b2" d="M 0 0 
L -3.5 0 
" style="stroke: #000000; stroke-width: 0.8"/>
      </defs>
      <g>
       <use xlink:href="#macdd2f11b2" x="57.6" y="295.488" style="stroke: #000000; stroke-width: 0.8"/>
      </g>
     </g>
     <g id="text_11">
      <!-- 0 -->
      <g transform="translate(44.2375 299.287219) scale(0.1 -0.1)">
       <use xlink:href="#DejaVuSans-30"/>
      </g>
     </g>
    </g>
    <g id="ytick_2">
     <g id="line2d_21">
      <path d="M 57.6 253.036969 
L 414.72 253.036969 
" clip-path="url(#p6777ed1d27)" style="fill: none; stroke: #b0b0b0; stroke-width: 0.8; stroke-linecap: square"/>
     </g>
     <g id="line2d_22">
      <g>
       <use xlink:href="#macdd2f11b2" x="57.6" y="253.036969" style="stroke: #000000; stroke-width: 0.8"/>
      </g>
     </g>
     <g id="text_12">
      <!-- 20 -->
      <g transform="translate(37.875 256.836188) scale(0.1 -0.1)">
       <use xlink:href="#DejaVuSans-32"/>
       <use xlink:href="#DejaVuSans-30" x="63.623047"/>
      </g>
     </g>
    </g>
    <g id="ytick_3">
     <g id="line2d_23">
      <path d="M 57.6 210.585938 
L 414.72 210.585938 
" clip-path="url(#p6777ed1d27)" style="fill: none; stroke: #b0b0b0; stroke-width: 0.8; stroke-linecap: square"/>
     </g>
     <g id="line2d_24">
      <g>
       <use xlink:href="#macdd2f11b2" x="57.6" y="210.585938" style="stroke: #000000; stroke-width: 0.8"/>
      </g>
     </g>
     <g id="text_13">
      <!-- 40 -->
      <g transform="translate(37.875 214.385157) scale(0.1 -0.1)">
       <use xlink:href="#DejaVuSans-34"/>
       <use xlink:href="#DejaVuSans-30" x="63.623047"/>
      </g>
     </g>
    </g>
    <g id="ytick_4">
     <g id="line2d_25">
      <path d="M 57.6 168.134907 
L 414.72 168.134907 
" clip-path="url(#p6777ed1d27)" style="fill: none; stroke: #b0b0b0; stroke-width: 0.8; stroke-linecap: square"/>
     </g>
     <g id="line2d_26">
      <g>
       <use xlink:href="#macdd2f11b2" x="57.6" y="168.134907" style="stroke: #000000; stroke-width: 0.8"/>
      </g>
     </g>
     <g id="text_14">
      <!-- 60 -->
      <g transform="translate(37.875 171.934125) scale(0.1 -0.1)">
       <use xlink:href="#DejaVuSans-36"/>
       <use xlink:href="#DejaVuSans-30" x="63.623047"/>
      </g>
     </g>
    </g>
    <g id="ytick_5">
     <g id="line2d_27">
      <path d="M 57.6 125.683876 
L 414.72 125.683876 
" clip-path="url(#p6777ed1d27)" style="fill: none; stroke: #b0b0b0; stroke-width: 0.8; stroke-linecap: square"/>
     </g>
     <g id="line2d_28">
      <g>
       <use xlink:href="#macdd2f11b2" x="57.6" y="125.683876" style="stroke: #000000; stroke-width: 0.8"/>
      </g>
     </g>
     <g id="text_15">
      <!-- 80 -->
      <g transform="translate(37.875 129.483094) scale(0.1 -0.1)">
       <use xlink:href="#DejaVuSans-38"/>
       <use xlink:href="#DejaVuSans-30" x="63.623047"/>
      </g>
     </g>
    </g>
    <g id="ytick_6">
     <g id="line2d_29">
      <path d="M 57.6 83.232844 
L 414.72 83.232844 
" clip-path="url(#p6777ed1d27)" style="fill: none; stroke: #b0b0b0; stroke-width: 0.8; stroke-linecap: square"/>
     </g>
     <g id="line2d_30">
      <g>
       <use xlink:href="#macdd2f11b2" x="57.6" y="83.232844" style="stroke: #000000; stroke-width: 0.8"/>
      </g>
     </g>
     <g id="text_16">
      <!-- 100 -->
      <g transform="translate(31.5125 87.032063) scale(0.1 -0.1)">
       <use xlink:href="#DejaVuSans-31"/>
       <use xlink:href="#DejaVuSans-30" x="63.623047"/>
       <use xlink:href="#DejaVuSans-30" x="127.246094"/>
      </g>
     </g>
    </g>
    <g id="text_17">
     <!-- useOfPageMean -->
     <g transform="translate(25.432812 214.802219) rotate(-90) scale(0.1 -0.1)">
      <defs>
       <path id="DejaVuSans-75" d="M 544 1381 
L 544 3500 
L 1119 3500 
L 1119 1403 
Q 1119 906 1312 657 
Q 1506 409 1894 409 
Q 2359 409 2629 706 
Q 2900 1003 2900 1516 
L 2900 3500 
L 3475 3500 
L 3475 0 
L 2900 0 
L 2900 538 
Q 2691 219 2414 64 
Q 2138 -91 1772 -91 
Q 1169 -91 856 284 
Q 544 659 544 1381 
z
M 1991 3584 
L 1991 3584 
z
" transform="scale(0.015625)"/>
       <path id="DejaVuSans-73" d="M 2834 3397 
L 2834 2853 
Q 2591 2978 2328 3040 
Q 2066 3103 1784 3103 
Q 1356 3103 1142 2972 
Q 928 2841 928 2578 
Q 928 2378 1081 2264 
Q 1234 2150 1697 2047 
L 1894 2003 
Q 2506 1872 2764 1633 
Q 3022 1394 3022 966 
Q 3022 478 2636 193 
Q 2250 -91 1575 -91 
Q 1294 -91 989 -36 
Q 684 19 347 128 
L 347 722 
Q 666 556 975 473 
Q 1284 391 1588 391 
Q 1994 391 2212 530 
Q 2431 669 2431 922 
Q 2431 1156 2273 1281 
Q 2116 1406 1581 1522 
L 1381 1569 
Q 847 1681 609 1914 
Q 372 2147 372 2553 
Q 372 3047 722 3315 
Q 1072 3584 1716 3584 
Q 2034 3584 2315 3537 
Q 2597 3491 2834 3397 
z
" transform="scale(0.015625)"/>
       <path id="DejaVuSans-4f" d="M 2522 4238 
Q 1834 4238 1429 3725 
Q 1025 3213 1025 2328 
Q 1025 1447 1429 934 
Q 1834 422 2522 422 
Q 3209 422 3611 934 
Q 4013 1447 4013 2328 
Q 4013 3213 3611 3725 
Q 3209 4238 2522 4238 
z
M 2522 4750 
Q 3503 4750 4090 4092 
Q 4678 3434 4678 2328 
Q 4678 1225 4090 567 
Q 3503 -91 2522 -91 
Q 1538 -91 948 565 
Q 359 1222 359 2328 
Q 359 3434 948 4092 
Q 1538 4750 2522 4750 
z
" transform="scale(0.015625)"/>
       <path id="DejaVuSans-66" d="M 2375 4863 
L 2375 4384 
L 1825 4384 
Q 1516 4384 1395 4259 
Q 1275 4134 1275 3809 
L 1275 3500 
L 2222 3500 
L 2222 3053 
L 1275 3053 
L 1275 0 
L 697 0 
L 697 3053 
L 147 3053 
L 147 3500 
L 697 3500 
L 697 3744 
Q 697 4328 969 4595 
Q 1241 4863 1831 4863 
L 2375 4863 
z
" transform="scale(0.015625)"/>
       <path id="DejaVuSans-61" d="M 2194 1759 
Q 1497 1759 1228 1600 
Q 959 1441 959 1056 
Q 959 750 1161 570 
Q 1363 391 1709 391 
Q 2188 391 2477 730 
Q 2766 1069 2766 1631 
L 2766 1759 
L 2194 1759 
z
M 3341 1997 
L 3341 0 
L 2766 0 
L 2766 531 
Q 2569 213 2275 61 
Q 1981 -91 1556 -91 
Q 1019 -91 701 211 
Q 384 513 384 1019 
Q 384 1609 779 1909 
Q 1175 2209 1959 2209 
L 2766 2209 
L 2766 2266 
Q 2766 2663 2505 2880 
Q 2244 3097 1772 3097 
Q 1472 3097 1187 3025 
Q 903 2953 641 2809 
L 641 3341 
Q 956 3463 1253 3523 
Q 1550 3584 1831 3584 
Q 2591 3584 2966 3190 
Q 3341 2797 3341 1997 
z
" transform="scale(0.015625)"/>
       <path id="DejaVuSans-67" d="M 2906 1791 
Q 2906 2416 2648 2759 
Q 2391 3103 1925 3103 
Q 1463 3103 1205 2759 
Q 947 2416 947 1791 
Q 947 1169 1205 825 
Q 1463 481 1925 481 
Q 2391 481 2648 825 
Q 2906 1169 2906 1791 
z
M 3481 434 
Q 3481 -459 3084 -895 
Q 2688 -1331 1869 -1331 
Q 1566 -1331 1297 -1286 
Q 1028 -1241 775 -1147 
L 775 -588 
Q 1028 -725 1275 -790 
Q 1522 -856 1778 -856 
Q 2344 -856 2625 -561 
Q 2906 -266 2906 331 
L 2906 616 
Q 2728 306 2450 153 
Q 2172 0 1784 0 
Q 1141 0 747 490 
Q 353 981 353 1791 
Q 353 2603 747 3093 
Q 1141 3584 1784 3584 
Q 2172 3584 2450 3431 
Q 2728 3278 2906 2969 
L 2906 3500 
L 3481 3500 
L 3481 434 
z
" transform="scale(0.015625)"/>
       <path id="DejaVuSans-4d" d="M 628 4666 
L 1569 4666 
L 2759 1491 
L 3956 4666 
L 4897 4666 
L 4897 0 
L 4281 0 
L 4281 4097 
L 3078 897 
L 2444 897 
L 1241 4097 
L 1241 0 
L 628 0 
L 628 4666 
z
" transform="scale(0.015625)"/>
      </defs>
      <use xlink:href="#DejaVuSans-75"/>
      <use xlink:href="#DejaVuSans-73" x="63.378906"/>
      <use xlink:href="#DejaVuSans-65" x="115.478516"/>
      <use xlink:href="#DejaVuSans-4f" x="177.001953"/>
      <use xlink:href="#DejaVuSans-66" x="255.712891"/>
      <use xlink:href="#DejaVuSans-50" x="290.917969"/>
      <use xlink:href="#DejaVuSans-61" x="346.720703"/>
      <use xlink:href="#DejaVuSans-67" x="408"/>
      <use xlink:href="#DejaVuSans-65" x="471.476562"/>
      <use xlink:href="#DejaVuSans-4d" x="533"/>
      <use xlink:href="#DejaVuSans-65" x="619.279297"/>
      <use xlink:href="#DejaVuSans-61" x="680.802734"/>
      <use xlink:href="#DejaVuSans-6e" x="742.082031"/>
     </g>
    </g>
   </g>
   <g id="line2d_31">
    <path d="M 73.832727 295.488 
L 73.834756 295.488 
L 73.834756 295.488 
L 73.941126 61.898036 
L 73.945304 62.686289 
L 73.946762 62.686289 
L 73.946762 62.686289 
L 73.952695 64.836107 
L 74.057761 58.642107 
L 74.058362 58.642107 
L 74.058362 58.642107 
L 74.169424 56.402797 
L 74.169962 56.402797 
L 74.169962 56.402797 
L 74.272228 55.660098 
L 74.242198 56.628147 
L 74.279563 55.745847 
L 74.281156 55.745847 
L 74.281156 55.695736 
L 74.308742 54.960157 
L 74.359074 56.042129 
L 74.396815 55.170647 
L 74.436697 55.04102 
L 74.508504 56.210233 
L 74.511661 56.282379 
L 74.511661 56.282379 
L 74.615957 56.837399 
L 74.583505 56.141968 
L 74.622604 56.828646 
L 74.627145 56.736847 
L 74.627145 56.721791 
L 74.741457 55.880855 
L 74.64446 56.796228 
L 74.745297 55.882204 
L 74.749065 55.788464 
L 74.867215 54.325565 
L 74.884314 54.4617 
L 74.909363 54.417683 
L 74.909363 54.417683 
L 74.914639 54.299712 
L 75.005136 54.648142 
L 75.019938 54.519904 
L 75.030777 54.579761 
L 75.063863 54.934197 
L 75.096572 54.47305 
L 75.141658 54.582254 
L 75.147947 54.665926 
L 75.152043 54.747848 
L 75.256977 53.8724 
L 75.274278 53.764307 
L 75.333443 53.717085 
L 75.313152 53.968258 
L 75.384171 53.77331 
L 75.419404 53.691259 
L 75.440691 53.910032 
L 75.537164 54.312017 
L 75.448897 53.893171 
L 75.552698 54.186116 
L 75.563252 54.079472 
L 75.653055 53.643692 
L 75.573259 54.092476 
L 75.674145 53.877233 
L 75.723734 53.679621 
L 75.75503 53.568 
L 75.83304 54.057961 
L 75.834082 54.043997 
L 75.93403 54.037921 
L 75.855861 54.250968 
L 75.938039 54.104415 
L 75.989935 54.002761 
L 76.034082 53.896385 
L 76.096019 54.160006 
L 76.100783 54.14864 
L 76.138181 54.253748 
L 76.196364 54.040142 
L 76.210637 54.109634 
L 76.212624 54.105768 
L 76.22643 54.25613 
L 76.274942 54.229933 
L 76.326817 54.364848 
L 76.30319 54.161759 
L 76.384753 54.210653 
L 76.460644 54.110361 
L 76.40982 54.250169 
L 76.490098 54.243037 
L 76.518222 54.355993 
L 76.592697 54.19321 
L 76.600577 54.22545 
L 76.622662 54.128906 
L 76.622662 54.120832 
L 76.63383 54.046615 
L 76.721342 54.248806 
L 76.727578 54.243479 
L 76.814352 54.71423 
L 76.851304 54.537055 
L 76.881653 54.646347 
L 76.945475 54.84599 
L 76.992651 54.689124 
L 77.038908 54.800073 
L 77.140552 54.964683 
L 77.05533 54.725574 
L 77.15032 54.896765 
L 77.203233 54.995332 
L 77.214795 55.021209 
L 77.241262 54.854542 
L 77.312872 54.927888 
L 77.50173 54.817094 
L 77.50173 54.817094 
L 77.547618 54.679743 
L 77.611058 54.86825 
L 77.612692 54.857944 
L 77.691672 54.769085 
L 77.640474 54.943203 
L 77.723713 54.86745 
L 77.773629 54.999579 
L 77.727657 54.850238 
L 77.773629 54.999579 
L 77.866805 55.091426 
L 77.800162 54.98323 
L 77.884469 55.038826 
L 77.961117 55.187072 
L 77.931536 54.981426 
L 77.998046 55.1744 
L 78.004539 55.193576 
L 78.048566 55.054786 
L 78.25363 54.703957 
L 78.2603 54.725261 
L 78.411833 54.747791 
L 78.261477 54.728439 
L 78.415227 54.777145 
L 78.44404 54.845771 
L 78.52398 54.720969 
L 78.525224 54.722395 
L 78.601904 54.613848 
L 78.601904 54.613848 
L 78.617935 54.652113 
L 78.711969 54.380431 
L 78.935081 54.277527 
L 78.935081 54.277527 
L 79.023456 54.13685 
L 79.045902 54.25654 
L 79.118212 54.302784 
L 79.083304 54.359227 
L 79.127033 54.333955 
L 79.222341 54.39723 
L 79.159303 54.307308 
L 79.23793 54.326685 
L 79.333391 54.327627 
L 79.287737 54.444168 
L 79.344387 54.36326 
L 79.482957 54.474363 
L 79.519042 54.4955 
L 79.593318 54.360767 
L 79.698019 54.260249 
L 79.698019 54.250432 
L 79.81728 54.176387 
L 79.73678 54.327793 
L 79.835997 54.218961 
L 79.83762 54.221642 
L 79.883312 54.110218 
L 79.885101 54.109474 
L 79.940003 53.975701 
L 79.996295 54.076751 
L 80.098164 54.184969 
L 80.124128 54.235093 
L 80.179897 54.143137 
L 80.208944 54.200986 
L 80.340429 54.300684 
L 80.340429 54.306637 
L 80.465417 54.412331 
L 80.377359 54.295602 
L 80.467815 54.404201 
L 80.641324 54.515063 
L 80.666301 54.5943 
L 80.752335 54.574163 
L 80.819666 54.68349 
L 80.932112 54.88893 
L 80.831988 54.66189 
L 80.977158 54.852265 
L 81.205321 54.741746 
L 81.320121 54.599949 
L 81.33022 54.617444 
L 81.439184 54.678985 
L 81.405191 54.55005 
L 81.440873 54.678489 
L 82.305718 54.726289 
L 82.305723 54.724881 
L 82.370398 54.551913 
L 82.431302 54.599393 
L 82.623157 54.492086 
L 82.623157 54.489216 
L 82.646688 54.483986 
L 82.6889 54.577572 
L 82.776088 54.608748 
L 82.743755 54.54248 
L 82.799428 54.580969 
L 83.750512 54.691678 
L 83.782174 54.732134 
L 83.861919 54.678064 
L 84.038381 54.631211 
L 83.888094 54.724971 
L 84.042709 54.638004 
L 84.136048 54.688322 
L 84.11738 54.605883 
L 84.154309 54.658436 
L 84.801087 54.548249 
L 84.817836 54.525366 
L 84.911844 54.590017 
L 85.099054 54.659493 
L 85.108794 54.642136 
L 85.250914 54.605647 
L 85.273556 54.650077 
L 85.361016 54.712415 
L 85.383679 54.690439 
L 85.854282 54.580517 
L 85.854282 54.580022 
L 85.964059 54.590258 
L 85.915508 54.635187 
L 85.964074 54.596626 
L 86.841989 54.4877 
L 86.985349 54.386353 
L 86.84732 54.492315 
L 86.98695 54.388394 
L 87.760689 54.620954 
L 87.958776 54.715224 
L 87.96332 54.705283 
L 87.979147 54.698237 
L 88.0444 54.769101 
L 88.074368 54.743497 
L 88.791189 54.854313 
L 88.791189 54.854358 
L 88.855308 54.90002 
L 88.823185 54.842711 
L 88.902383 54.868846 
L 89.051319 54.933463 
L 88.906036 54.882761 
L 89.051323 54.933494 
L 89.087031 54.978882 
L 89.157237 54.922266 
L 89.162329 54.93 
L 91.969152 54.819259 
L 91.969152 54.819259 
L 92.054749 54.732932 
L 92.079941 54.757864 
L 92.351857 54.868713 
L 92.736149 54.931777 
L 92.736149 54.931777 
L 92.84572 54.892122 
L 93.037266 54.782535 
L 93.037266 54.782535 
L 93.139126 54.775226 
L 93.087452 54.787393 
L 93.148054 54.781434 
L 93.549814 54.657443 
L 93.549814 54.657443 
L 93.650143 54.635893 
L 93.591664 54.665476 
L 93.659757 54.64407 
L 94.834466 54.797624 
L 94.834466 54.796727 
L 94.938048 54.790491 
L 94.892659 54.809056 
L 94.946235 54.79856 
L 96.188851 54.688716 
L 96.188851 54.688716 
L 96.258651 54.665035 
L 96.229412 54.693083 
L 96.299432 54.67855 
L 96.509443 54.711134 
L 96.509443 54.711158 
L 96.665305 54.704302 
L 96.665314 54.704285 
L 96.703901 54.68933 
L 96.735488 54.710065 
L 96.775814 54.702676 
L 103.4392 54.592542 
L 103.4392 54.592291 
L 103.531171 54.585074 
L 103.551924 54.600263 
L 106.551896 54.710547 
L 106.656527 54.714982 
L 106.572464 54.703133 
L 106.664238 54.705827 
L 110.359213 54.596092 
L 110.359213 54.596092 
L 110.377069 54.589466 
L 110.415543 54.612333 
L 110.469122 54.598203 
L 113.941777 54.706737 
L 113.941777 54.709235 
L 114.229097 54.731119 
L 114.229097 54.731119 
L 114.299437 54.719067 
L 114.311885 54.731826 
L 114.339221 54.725997 
L 117.408178 54.836503 
L 117.650551 54.852184 
L 117.650551 54.850677 
L 117.868055 54.844547 
L 130.414347 54.955053 
L 130.414347 54.955053 
L 130.414347 54.956904 
L 130.464263 54.949419 
L 130.524993 54.951034 
L 134.243277 54.841189 
L 134.288986 54.837464 
L 134.322293 54.843654 
L 134.353723 54.841044 
L 135.961883 54.784645 
L 135.961883 54.784645 
L 135.982158 54.788208 
L 136.072874 54.767863 
L 136.358773 54.780009 
L 136.358773 54.780009 
L 136.40593 54.773256 
L 136.469274 54.785485 
L 139.022182 54.795402 
L 155.159929 54.906369 
L 155.159929 54.906369 
L 155.179814 54.903552 
L 155.270875 54.912842 
L 155.441566 54.916837 
L 156.550611 54.927162 
L 170.881833 55.038272 
L 171.139835 55.056547 
L 171.139835 55.056182 
L 185.271645 54.945202 
L 185.271645 54.945202 
L 185.34313 54.941341 
L 185.377185 54.946409 
L 185.381981 54.946105 
L 193.402669 54.835107 
L 193.409467 54.834099 
L 193.474925 54.839544 
L 193.513533 54.837308 
L 275.174129 54.948416 
L 275.174129 54.948416 
L 275.182715 54.949683 
L 275.280923 54.944544 
L 275.284614 54.944875 
L 284.531684 54.936152 
L 284.610685 54.937066 
L 284.642745 54.934742 
L 285.636562 54.932538 
L 398.487273 54.978882 
L 398.487273 54.978882 
" clip-path="url(#p6777ed1d27)" style="fill: none; stroke: #1f77b4; stroke-width: 1.5; stroke-linecap: square"/>
   </g>
   <g id="line2d_32">
    <path d="M 73.832727 295.488 
L 73.834756 295.488 
L 73.834756 295.488 
L 73.858241 97.727542 
L 73.945545 105.334265 
L 74.113235 74.758845 
L 74.118435 74.802164 
L 74.124511 74.708066 
L 74.124511 74.708066 
L 74.140955 75.075228 
L 74.234487 70.258827 
L 74.236516 70.258827 
L 74.236516 70.17513 
L 74.380861 65.475273 
L 74.380869 65.476116 
L 74.400014 65.802244 
L 74.491856 64.138563 
L 74.49469 64.028377 
L 74.661159 61.764024 
L 74.676313 61.976863 
L 74.682105 62.132444 
L 74.787212 61.387951 
L 74.897594 60.346092 
L 74.815514 61.411314 
L 74.897594 60.346092 
L 74.915224 60.215354 
L 75.00771 60.800957 
L 75.008383 60.726237 
L 75.012847 60.636913 
L 75.012847 60.636913 
L 75.102272 60.165639 
L 75.027862 60.682532 
L 75.123532 60.169654 
L 75.130534 60.0613 
L 75.130534 60.0613 
L 75.240511 59.315225 
L 75.241147 59.355483 
L 75.331029 59.423666 
L 75.278182 59.068887 
L 75.352246 59.364983 
L 75.376419 59.473656 
L 75.487654 60.081431 
L 75.493742 60.173333 
L 75.494027 60.166941 
L 75.501858 60.359384 
L 75.603705 60.067818 
L 75.625227 59.966283 
L 75.625227 59.966283 
L 75.721138 59.646104 
L 75.645865 60.042585 
L 75.736254 59.668482 
L 75.760903 59.778755 
L 75.770104 59.926191 
L 75.87099 59.330204 
L 75.877646 59.237185 
L 75.877646 59.232548 
L 75.893046 59.056813 
L 75.963345 59.353461 
L 75.989112 59.190962 
L 76.017626 59.104292 
L 76.111589 58.456236 
L 76.127021 58.573859 
L 76.154819 58.464004 
L 76.154819 58.464004 
L 76.253981 58.241656 
L 76.194184 58.590773 
L 76.265097 58.300354 
L 76.296774 58.18953 
L 76.400796 58.065337 
L 76.361194 58.257719 
L 76.407844 58.10827 
L 76.488404 58.031383 
L 76.512345 58.174675 
L 76.533042 58.064147 
L 76.533042 58.064147 
L 76.64299 57.869191 
L 76.643324 57.870719 
L 76.721342 57.770464 
L 76.721342 57.770464 
L 76.779225 57.44581 
L 76.831945 57.549072 
L 76.926162 57.647741 
L 77.010547 57.76168 
L 77.035899 57.619988 
L 77.036439 57.631418 
L 77.153944 57.530546 
L 77.153944 57.530546 
L 77.2029 57.343705 
L 77.264624 57.379645 
L 77.425826 57.250973 
L 77.428972 57.27617 
L 77.536684 57.241314 
L 77.542312 57.196852 
L 77.62307 57.211056 
L 77.65342 57.093156 
L 77.720004 56.984468 
L 77.821177 56.791697 
L 77.73332 57.001182 
L 77.831283 56.851698 
L 77.94876 56.958795 
L 77.969233 57.043182 
L 78.005627 56.919203 
L 78.059731 56.996283 
L 78.073551 56.964928 
L 78.103557 57.078483 
L 78.114516 57.084702 
L 78.212502 57.14169 
L 78.158449 57.080225 
L 78.225428 57.119311 
L 78.308497 57.016272 
L 78.308497 57.013282 
L 78.365102 56.936108 
L 78.416851 57.057535 
L 78.417769 57.053574 
L 78.463114 57.145688 
L 78.526496 56.93453 
L 78.623412 56.834777 
L 78.623412 56.828315 
L 78.756064 56.691765 
L 78.63721 56.851978 
L 78.757332 56.696958 
L 78.761972 56.704798 
L 78.83745 56.584194 
L 78.868401 56.660991 
L 79.259329 56.555204 
L 79.259329 56.555204 
L 79.327452 56.44145 
L 79.370225 56.47981 
L 79.477694 56.343358 
L 79.558822 56.196236 
L 79.505091 56.348659 
L 79.588448 56.218886 
L 79.6339 56.109102 
L 79.6339 56.109102 
L 79.634927 56.10277 
L 79.677647 56.221774 
L 79.744783 56.170983 
L 79.9462 56.277221 
L 80.034559 56.344457 
L 79.958554 56.265298 
L 80.057481 56.306042 
L 80.160652 56.19956 
L 80.160652 56.196124 
L 80.182027 56.174714 
L 80.242959 56.286366 
L 80.245049 56.283571 
L 80.312464 56.421779 
L 80.372584 56.411315 
L 80.618223 56.302866 
L 80.63399 56.24536 
L 80.713617 56.38071 
L 80.725563 56.340563 
L 80.814014 56.404313 
L 80.817793 56.415334 
L 80.868399 56.475738 
L 80.922778 56.40749 
L 80.928731 56.413147 
L 81.259641 56.763291 
L 80.934307 56.406664 
L 81.286016 56.683477 
L 81.298947 56.632423 
L 81.38619 56.77638 
L 81.396407 56.746516 
L 81.522399 56.692728 
L 81.522984 56.694712 
L 81.670702 56.805636 
L 81.700389 56.722626 
L 81.806372 56.665432 
L 81.811037 56.672116 
L 81.930479 56.701535 
L 81.935295 56.728776 
L 82.014835 56.788352 
L 81.974659 56.724514 
L 82.04642 56.757115 
L 82.905607 56.646553 
L 82.905607 56.646553 
L 82.905607 56.644711 
L 82.996104 56.719642 
L 83.016132 56.706492 
L 83.110175 56.699613 
L 83.028636 56.685213 
L 83.128163 56.661862 
L 83.26426 56.658386 
L 83.131097 56.665882 
L 83.268089 56.665927 
L 83.351129 56.701816 
L 83.379037 56.676833 
L 86.031763 56.57058 
L 86.064789 56.531838 
L 86.142866 56.537209 
L 86.395644 56.535939 
L 86.14344 56.540072 
L 86.395644 56.535939 
L 86.472558 56.575321 
L 86.413101 56.520285 
L 86.506018 56.539813 
L 87.157771 56.431482 
L 87.157771 56.431482 
L 87.268482 56.358053 
L 87.433011 56.249397 
L 87.544034 56.166111 
L 87.681842 56.065638 
L 89.498936 55.955364 
L 89.498936 55.955364 
L 89.557116 55.900238 
L 89.608872 55.904508 
L 90.108069 55.796421 
L 90.108069 55.796421 
L 90.128599 55.773832 
L 90.160727 55.806595 
L 90.218858 55.798561 
L 90.924576 55.688013 
L 90.924576 55.687823 
L 90.931137 55.676511 
L 90.958072 55.697746 
L 91.033335 55.708484 
L 94.875411 55.819363 
L 94.878058 55.82541 
L 94.986411 55.780826 
L 95.871095 55.671163 
L 95.871095 55.670476 
L 96.025873 55.636217 
L 96.026114 55.638733 
L 100.162623 55.529482 
L 100.162623 55.528358 
L 100.314942 55.50742 
L 103.341031 55.617167 
L 103.455433 55.631213 
L 103.457056 55.62912 
L 103.56856 55.619308 
L 103.466311 55.633656 
L 103.572338 55.623635 
L 103.588947 55.633098 
L 103.642498 55.612264 
L 103.683256 55.613857 
L 110.988549 55.712111 
L 111.412718 55.666492 
L 111.412718 55.667558 
L 111.558812 55.666825 
L 111.558812 55.666373 
L 122.581718 55.777183 
L 122.68751 55.795922 
L 122.692206 55.794125 
L 122.903183 55.825125 
L 125.227169 55.903276 
L 125.306879 55.906095 
L 125.263461 55.899031 
L 125.337654 55.899831 
L 125.691344 55.93023 
L 125.691348 55.930319 
L 125.852544 55.921227 
L 125.852544 55.92054 
L 126.164418 55.913829 
L 134.663866 56.024819 
L 134.801243 56.026456 
L 134.801243 56.025727 
L 135.596647 56.011452 
L 135.596647 56.011803 
L 137.381435 56.036885 
L 137.381435 56.036674 
L 137.557715 56.045069 
L 137.557722 56.0454 
L 137.717115 56.04487 
L 137.717121 56.044636 
L 138.543293 56.064411 
L 138.543293 56.064411 
L 138.652355 56.082546 
L 138.56472 56.060414 
L 138.653921 56.082163 
L 146.154821 55.971613 
L 146.154821 55.971613 
L 146.190939 55.968868 
L 146.255761 55.982779 
L 146.265521 55.981709 
L 155.624036 55.871097 
L 155.755015 55.867782 
L 155.75502 55.868298 
L 160.308465 55.757397 
L 160.409995 55.749857 
L 160.418933 55.750632 
L 164.046131 55.639602 
L 164.046131 55.639602 
L 164.050595 55.637348 
L 164.108093 55.646396 
L 164.15692 55.643844 
L 180.223645 55.53275 
L 180.270795 55.531397 
L 180.242211 55.534889 
L 180.33461 55.537237 
L 198.729391 55.42613 
L 198.729391 55.42613 
L 198.753118 55.422741 
L 198.84028 55.425488 
L 199.341071 55.440916 
L 199.88922 55.43328 
L 199.88922 55.433307 
L 207.763591 55.397775 
L 207.77184 55.396375 
L 207.799276 55.402945 
L 207.8741 55.403529 
L 211.710438 55.364207 
L 211.799663 55.366851 
L 211.724344 55.363081 
L 211.820874 55.365424 
L 214.036045 55.320504 
L 214.036045 55.320504 
L 214.0608 55.326363 
L 214.147032 55.323209 
L 323.900692 55.212357 
L 323.900692 55.21226 
L 324.127681 55.211682 
L 324.127684 55.212047 
L 398.486542 55.158571 
L 398.486542 55.158571 
" clip-path="url(#p6777ed1d27)" style="fill: none; stroke: #ff7f0e; stroke-width: 1.5; stroke-linecap: square"/>
   </g>
   <g id="line2d_33">
    <path d="M 73.832727 295.488 
L 73.835162 295.488 
L 73.835162 295.488 
L 73.943602 65.230237 
L 73.94611 66.05023 
L 73.946581 66.043576 
L 73.955572 66.226952 
L 74.057551 60.269277 
L 74.073863 59.383148 
L 74.162062 63.38149 
L 74.167527 63.643458 
L 74.23327 61.554987 
L 74.30192 60.468882 
L 74.2417 61.623043 
L 74.348664 60.84881 
L 74.37693 60.58767 
L 74.367099 60.910018 
L 74.37693 60.58767 
L 74.473514 59.931667 
L 74.402677 60.920951 
L 74.487652 59.995607 
L 74.488487 59.942443 
L 74.61839 58.270677 
L 74.626091 58.173112 
L 74.726053 57.627315 
L 74.674608 58.411109 
L 74.741017 57.826576 
L 74.744601 57.736494 
L 74.744601 57.736152 
L 74.846518 56.348239 
L 74.855456 56.39139 
L 74.86755 56.427308 
L 74.869187 56.499845 
L 74.881768 56.832571 
L 74.915174 56.330363 
L 74.979551 56.433825 
L 74.988671 56.345731 
L 75.031904 56.04589 
L 75.099286 56.261858 
L 75.118408 56.180026 
L 75.131325 56.372275 
L 75.131752 56.372275 
L 75.217785 57.420003 
L 75.242656 57.177568 
L 75.2456 57.174743 
L 75.278537 57.376884 
L 75.30463 57.483547 
L 75.30463 57.483547 
L 75.401597 57.646288 
L 75.355763 57.347368 
L 75.415419 57.473801 
L 75.418749 57.469184 
L 75.425932 57.571098 
L 75.536186 58.149494 
L 75.559078 58.067731 
L 75.559078 58.067731 
L 75.620553 57.499502 
L 75.668893 57.875589 
L 75.675337 57.97266 
L 75.762393 57.995238 
L 75.729292 57.68616 
L 75.785441 57.783126 
L 75.81807 57.892266 
L 75.831685 57.934539 
L 75.916502 57.583232 
L 75.928771 57.709243 
L 75.94181 57.757486 
L 76.018084 57.565431 
L 76.150365 57.310177 
L 76.075042 57.66447 
L 76.171938 57.365927 
L 76.276177 57.718973 
L 76.19022 57.317794 
L 76.312374 57.535201 
L 76.406967 57.199571 
L 76.478257 57.290833 
L 76.503823 57.184739 
L 76.503823 57.184739 
L 76.507422 57.141811 
L 76.579091 57.423825 
L 76.614458 57.393294 
L 76.669397 57.294318 
L 76.669397 57.284072 
L 76.833523 56.86268 
L 76.681471 57.330119 
L 76.847145 56.934558 
L 76.849594 56.955465 
L 76.950934 56.504141 
L 76.957557 56.530774 
L 77.138602 56.434037 
L 77.145016 56.475215 
L 77.168554 56.652781 
L 77.260319 56.596006 
L 77.273674 56.53724 
L 77.322335 56.865688 
L 77.371265 56.658557 
L 77.48915 56.553777 
L 77.48915 56.553777 
L 77.528514 56.445894 
L 77.597248 56.576967 
L 77.599977 56.572218 
L 77.674755 56.472758 
L 77.674802 56.471207 
L 77.701037 56.368218 
L 77.737917 56.510032 
L 77.791161 56.455236 
L 77.862556 56.476928 
L 77.881576 56.387138 
L 77.901461 56.389287 
L 77.927028 56.292321 
L 77.927028 56.292321 
L 77.974486 56.231822 
L 77.953 56.346941 
L 78.03741 56.333237 
L 78.205013 56.22479 
L 78.205013 56.22479 
L 78.206678 56.207232 
L 78.315766 56.374121 
L 78.390192 56.556756 
L 78.439007 56.505327 
L 78.444214 56.488341 
L 78.511295 56.680969 
L 78.51303 56.680969 
L 78.604339 56.841274 
L 78.578647 56.663865 
L 78.622992 56.764791 
L 78.716087 56.65791 
L 78.726021 56.645447 
L 78.780519 56.846781 
L 78.807671 56.790058 
L 78.827945 56.845026 
L 78.864062 56.738607 
L 78.926964 56.810292 
L 79.050822 56.892399 
L 79.050832 56.892478 
L 79.071343 56.939643 
L 79.137926 56.868952 
L 79.161552 56.912066 
L 79.248372 56.897238 
L 79.196231 56.839324 
L 79.255614 56.852499 
L 79.264704 56.82623 
L 79.314309 56.920304 
L 79.366847 56.848782 
L 79.807857 56.748857 
L 79.828278 56.689613 
L 79.917972 56.709111 
L 80.01955 56.712367 
L 79.964154 56.80267 
L 80.02471 56.745653 
L 80.070931 56.904891 
L 80.135742 56.834501 
L 80.61598 56.937677 
L 80.61598 56.937677 
L 80.641105 56.961146 
L 80.725145 56.895771 
L 80.726508 56.896893 
L 80.904111 56.78639 
L 80.904111 56.78639 
L 81.008 56.692899 
L 80.926837 56.789933 
L 81.014088 56.710871 
L 81.194677 56.809972 
L 81.194677 56.816599 
L 81.197923 56.83004 
L 81.294899 56.6811 
L 81.562682 56.790077 
L 81.661774 56.807286 
L 81.628334 56.726728 
L 81.673542 56.781611 
L 81.698688 56.767101 
L 81.759217 56.835429 
L 81.783113 56.800689 
L 81.831 56.814936 
L 81.87077 56.723244 
L 81.893997 56.764439 
L 82.057098 56.69874 
L 82.058664 56.709042 
L 82.092347 56.784194 
L 82.152002 56.687375 
L 82.169452 56.706191 
L 82.273876 56.816633 
L 82.275371 56.820202 
L 82.362216 56.715606 
L 82.433483 56.599324 
L 82.515325 56.483705 
L 82.544611 56.484452 
L 82.88045 56.374362 
L 82.929552 56.303892 
L 82.991421 56.316537 
L 83.186233 56.206213 
L 83.231478 56.166544 
L 83.297494 56.221943 
L 83.40801 56.302507 
L 83.408635 56.295691 
L 84.128337 56.187378 
L 84.128337 56.187378 
L 84.202014 56.119136 
L 84.238314 56.127872 
L 84.569462 56.030109 
L 84.569462 56.030109 
L 84.574428 56.016054 
L 84.615418 56.068385 
L 84.68025 56.035076 
L 86.280797 55.925358 
L 86.280797 55.925358 
L 86.280797 55.922288 
L 86.359441 56.034189 
L 86.391413 56.019515 
L 87.352629 56.130626 
L 87.458482 56.145423 
L 87.401429 56.105229 
L 87.462946 56.139727 
L 87.768527 56.248123 
L 87.768527 56.249273 
L 87.830211 56.270569 
L 87.869774 56.22051 
L 87.879054 56.238107 
L 89.905972 56.349155 
L 89.905972 56.349155 
L 90.007378 56.389918 
L 89.934379 56.339604 
L 90.016993 56.382632 
L 90.134077 56.327449 
L 90.142443 56.337671 
L 91.305785 56.22724 
L 91.323365 56.217748 
L 91.364852 56.264211 
L 91.416418 56.247457 
L 91.727881 56.155611 
L 91.733372 56.165835 
L 91.820633 56.228364 
L 91.844196 56.224433 
L 97.260896 56.332445 
L 97.277364 56.34253 
L 97.323628 56.314259 
L 97.371405 56.333803 
L 103.271571 56.443496 
L 103.311367 56.482641 
L 103.382484 56.455003 
L 106.304077 56.344128 
L 106.387064 56.3298 
L 106.328261 56.355821 
L 106.414641 56.33348 
L 106.534794 56.331742 
L 109.69604 56.221003 
L 109.743993 56.199387 
L 109.806895 56.214942 
L 110.152147 56.210024 
L 110.152155 56.209405 
L 110.319405 56.207338 
L 110.319412 56.208263 
L 113.96884 56.097358 
L 113.969891 56.096519 
L 114.071882 56.107654 
L 114.079824 56.103067 
L 114.513738 56.10497 
L 114.714153 56.111751 
L 114.892469 56.092366 
L 116.070765 56.007914 
L 116.070771 56.008109 
L 117.435467 55.897211 
L 117.435467 55.897211 
L 117.468338 55.885797 
L 117.542231 55.913301 
L 117.546527 55.911462 
L 117.787311 55.915335 
L 117.787311 55.915335 
L 117.787466 55.915222 
L 117.897694 55.933689 
L 119.143973 56.023564 
L 120.853674 55.912602 
L 120.853674 55.912602 
L 120.866086 55.910005 
L 120.942008 55.922335 
L 120.964163 55.919516 
L 155.773932 55.411932 
L 155.773932 55.411932 
L 155.87985 55.398546 
L 155.883559 55.400442 
L 240.228642 55.289536 
L 240.232753 55.289171 
L 240.26269 55.295007 
L 240.339563 55.294099 
L 241.994896 55.281042 
L 241.994896 55.281042 
L 242.068349 55.279173 
L 242.093715 55.282147 
L 242.105224 55.280836 
L 311.31943 55.169729 
L 320.170141 55.210925 
L 398.486542 55.192024 
L 398.486542 55.192024 
" clip-path="url(#p6777ed1d27)" style="fill: none; stroke: #2ca02c; stroke-width: 1.5; stroke-linecap: square"/>
   </g>
   <g id="line2d_34">
    <path d="M 73.832727 295.488 
L 73.833945 295.488 
L 73.833945 295.488 
L 73.923748 59.906826 
L 73.944911 60.714484 
L 73.946489 60.667303 
L 73.96023 58.011864 
L 74.057551 59.04805 
L 74.063638 59.259139 
L 74.079059 57.162721 
L 74.106508 54.736104 
L 74.191482 55.604 
L 74.198301 55.714457 
L 74.211762 56.993285 
L 74.309342 56.611484 
L 74.465438 55.030363 
L 74.344852 56.698851 
L 74.471458 55.127953 
L 74.732508 56.250364 
L 74.476945 55.007036 
L 74.73914 56.077723 
L 74.755964 56.136206 
L 74.755964 56.136206 
L 74.761043 56.274636 
L 74.832401 55.411052 
L 74.866489 55.688323 
L 74.871321 55.798561 
L 74.873245 55.839591 
L 74.94264 54.669799 
L 74.957814 54.716717 
L 74.966791 54.624965 
L 75.002423 54.280743 
L 75.069661 54.802806 
L 75.077433 54.686942 
L 75.091762 54.790117 
L 75.190595 55.135872 
L 75.118531 54.488309 
L 75.202364 55.09331 
L 75.221695 54.994558 
L 75.226161 54.918676 
L 75.281153 55.220122 
L 75.332632 55.188347 
L 75.40753 54.929868 
L 75.435691 55.267036 
L 75.454246 55.371406 
L 75.553397 56.083031 
L 75.56963 56.025324 
L 75.613814 55.800456 
L 75.645201 56.084522 
L 75.694216 56.266954 
L 75.718971 55.939927 
L 75.75317 56.025535 
L 75.78619 55.912939 
L 75.830762 55.84553 
L 75.880892 56.214228 
L 75.897125 56.102529 
L 75.96165 56.238916 
L 76.009131 55.95232 
L 76.012508 55.919271 
L 76.036016 56.066744 
L 76.043344 56.044584 
L 76.122354 56.253854 
L 76.153352 56.143437 
L 76.179574 56.040728 
L 76.179574 56.040728 
L 76.184152 56.06212 
L 76.289145 55.671789 
L 76.302943 55.583726 
L 76.302943 55.573907 
L 76.414299 55.222978 
L 76.310248 55.589976 
L 76.425094 55.247743 
L 76.428103 55.259212 
L 76.496924 54.911152 
L 76.535477 55.082295 
L 76.616235 55.191891 
L 76.616235 55.191891 
L 76.707463 55.415215 
L 76.727023 55.306075 
L 76.740564 55.411386 
L 76.801288 55.516357 
L 76.850406 55.315819 
L 76.945816 54.968389 
L 76.961072 55.068471 
L 76.987153 55.137939 
L 77.027286 54.999978 
L 77.066287 55.034936 
L 77.171427 54.8656 
L 77.079876 55.08682 
L 77.177361 54.871021 
L 77.214411 54.972467 
L 77.214411 54.972467 
L 77.282882 55.130827 
L 77.324388 55.013979 
L 77.494529 54.781421 
L 77.342244 55.074777 
L 77.52029 54.97191 
L 77.552511 55.021981 
L 77.613836 54.934612 
L 77.629563 54.951733 
L 77.772464 54.72243 
L 77.792922 54.812567 
L 77.906331 54.88322 
L 77.906483 54.86979 
L 77.960384 54.976688 
L 77.978567 54.9861 
L 78.026151 54.811393 
L 78.030106 54.817725 
L 78.139677 54.790194 
L 78.057904 54.883439 
L 78.140236 54.795605 
L 78.218626 54.685326 
L 78.231892 54.668566 
L 78.294153 54.759003 
L 78.329194 54.685442 
L 78.454592 54.57746 
L 78.454592 54.577278 
L 78.559482 54.388501 
L 78.462832 54.57802 
L 78.567077 54.409223 
L 78.611238 54.300886 
L 78.611238 54.300886 
L 78.618364 54.284102 
L 78.721721 54.480741 
L 78.808465 54.589656 
L 78.808465 54.589656 
L 78.809222 54.600816 
L 78.832003 54.489803 
L 78.919254 54.537038 
L 79.050638 54.426564 
L 79.067485 54.416785 
L 79.147873 54.595095 
L 79.161167 54.573269 
L 79.17818 54.682332 
L 79.283128 54.712867 
L 79.224835 54.604122 
L 79.288953 54.689682 
L 79.348315 54.799023 
L 79.445662 54.995807 
L 79.459425 54.952804 
L 79.525945 54.841932 
L 79.585357 54.780991 
L 79.631621 54.867591 
L 79.636955 54.856756 
L 79.715295 54.784834 
L 79.732231 54.913269 
L 79.83871 55.004594 
L 79.747936 54.899081 
L 79.843119 55.001909 
L 79.92098 55.068327 
L 79.920995 55.068524 
L 80.031321 55.185228 
L 80.161869 55.075828 
L 80.161869 55.074666 
L 80.235358 55.057494 
L 80.25886 55.11374 
L 80.271294 55.091222 
L 80.319733 55.1629 
L 80.382057 55.12134 
L 80.492611 55.230624 
L 80.401708 55.107416 
L 80.530439 55.211323 
L 80.783583 55.316595 
L 80.783583 55.316595 
L 80.789297 55.339744 
L 80.885016 55.237732 
L 80.894371 55.241519 
L 81.174638 55.109006 
L 81.255349 55.043992 
L 81.286362 55.096845 
L 81.639048 55.262552 
L 81.659744 55.195095 
L 81.679215 55.148182 
L 81.768098 55.236067 
L 82.154031 55.345902 
L 82.154031 55.34626 
L 82.209767 55.446968 
L 82.253243 55.328637 
L 82.264008 55.336165 
L 82.858938 55.442884 
L 82.858938 55.445735 
L 82.860155 55.44978 
L 82.935241 55.384373 
L 82.964294 55.394322 
L 83.274901 55.286405 
L 83.274901 55.286405 
L 83.377887 55.226926 
L 83.315074 55.289591 
L 83.38568 55.247137 
L 84.011782 55.136429 
L 84.05759 55.172617 
L 84.130643 55.105723 
L 85.52354 54.99513 
L 85.52354 54.994679 
L 85.655405 54.942494 
L 85.539367 55.01107 
L 85.681404 54.976522 
L 85.790301 55.084515 
L 85.865645 55.143009 
L 85.900951 55.135219 
L 86.251173 55.097204 
L 86.251173 55.097204 
L 86.25988 55.07688 
L 86.279907 55.10863 
L 86.361961 55.103381 
L 87.139103 55.211629 
L 87.139103 55.211629 
L 87.173597 55.252938 
L 87.249799 55.229386 
L 87.40879 55.119672 
L 87.40879 55.119571 
L 87.493012 55.068911 
L 87.521802 55.070088 
L 87.642405 54.99103 
L 87.653538 55.001898 
L 88.626021 54.89194 
L 88.626021 54.89194 
L 88.658674 54.87288 
L 88.716212 54.915855 
L 88.736403 54.913236 
L 89.863767 54.803757 
L 89.863767 54.803757 
L 89.867682 54.794943 
L 89.954802 54.833812 
L 89.974779 54.811737 
L 91.288772 54.701539 
L 91.423079 54.67896 
L 91.432255 54.691681 
L 92.724786 54.800778 
L 92.724786 54.800778 
L 92.727238 54.812018 
L 92.812203 54.764206 
L 92.835584 54.770859 
L 93.320124 54.920757 
L 92.837828 54.766505 
L 93.320254 54.919794 
L 97.168496 54.809991 
L 97.168496 54.809991 
L 97.266704 54.782907 
L 97.278929 54.796526 
L 102.625534 54.907631 
L 102.625534 54.907631 
L 102.733374 54.945783 
L 102.735912 54.945014 
L 106.532921 55.05598 
L 106.643405 55.067824 
L 106.644759 55.067232 
L 107.23341 55.143045 
L 107.23341 55.143045 
L 107.284286 55.154504 
L 107.269401 55.14272 
L 107.344311 55.151923 
L 123.350026 55.721826 
L 123.353109 55.724401 
L 123.392879 55.709888 
L 123.460651 55.716349 
L 134.474965 55.605764 
L 134.474965 55.605764 
L 134.527496 55.597734 
L 134.585942 55.60224 
L 147.25494 55.712496 
L 147.3661 55.721486 
L 147.366114 55.721372 
L 180.534528 55.832324 
L 180.534528 55.832324 
L 180.545817 55.833586 
L 180.632819 55.829648 
L 180.645317 55.830674 
L 254.660673 55.941781 
L 335.738919 56.082517 
L 335.738919 56.082517 
L 335.76795 56.082774 
L 335.850016 56.077916 
L 356.332638 56.089392 
L 356.403789 56.089808 
L 356.441811 56.088299 
L 398.487198 56.133144 
L 398.487198 56.133144 
" clip-path="url(#p6777ed1d27)" style="fill: none; stroke: #d62728; stroke-width: 1.5; stroke-linecap: square"/>
   </g>
   <g id="line2d_35">
    <path d="M 73.832727 295.488 
L 73.833539 295.488 
L 73.833539 295.488 
L 73.925222 62.356474 
L 73.944366 62.6569 
L 73.989158 59.03772 
L 74.060589 59.695612 
L 74.072972 59.842328 
L 74.069725 59.650111 
L 74.072972 59.842328 
L 74.07575 60.113278 
L 74.135125 57.938418 
L 74.183995 58.164323 
L 74.238231 57.696199 
L 74.288461 59.09084 
L 74.292925 58.8105 
L 74.294345 58.71973 
L 74.38388 57.752905 
L 74.307535 58.912697 
L 74.405998 58.295419 
L 74.523662 59.130142 
L 74.413453 58.247957 
L 74.535705 58.956244 
L 74.562482 58.909167 
L 74.60048 59.532883 
L 74.638165 59.417696 
L 74.650857 59.468779 
L 74.650857 59.498398 
L 74.66608 59.667253 
L 74.748606 58.44917 
L 74.836445 57.838777 
L 74.892556 58.016107 
L 75.001255 58.239043 
L 74.920726 57.883403 
L 75.003513 58.176741 
L 75.006609 58.106937 
L 75.080022 57.494376 
L 75.125664 57.576356 
L 75.138719 57.685386 
L 75.150203 57.793659 
L 75.182262 57.316237 
L 75.2486 57.433221 
L 75.265672 57.367896 
L 75.265672 57.367896 
L 75.376054 56.840006 
L 75.517101 56.152483 
L 75.540365 56.214501 
L 75.551368 56.448133 
L 75.630563 56.146236 
L 75.653228 56.381968 
L 75.760677 55.899088 
L 75.765746 55.944696 
L 75.77335 56.026247 
L 75.77335 56.038637 
L 75.877646 56.42859 
L 75.806143 56.023625 
L 75.890632 56.301231 
L 75.922662 56.158674 
L 75.983999 56.378237 
L 76.001826 56.182278 
L 76.030372 56.073834 
L 76.069493 56.407954 
L 76.09986 56.358206 
L 76.122144 56.248304 
L 76.136256 56.177661 
L 76.175779 56.46141 
L 76.232785 56.206901 
L 76.339061 56.107757 
L 76.339061 56.107757 
L 76.439494 55.661997 
L 76.449444 55.746664 
L 76.456459 55.761477 
L 76.484069 55.621486 
L 76.48962 55.634702 
L 76.598368 55.471186 
L 76.599195 55.486428 
L 76.705515 55.390642 
L 76.705515 55.37846 
L 76.841842 55.195282 
L 76.73442 55.450602 
L 76.851545 55.271921 
L 76.901525 55.654151 
L 76.966862 55.454106 
L 77.078381 55.343363 
L 77.117623 55.243831 
L 77.160476 55.445282 
L 77.189102 55.32594 
L 77.244763 55.436039 
L 77.364056 55.589951 
L 77.368792 55.553767 
L 77.502136 55.380068 
L 77.534609 55.331881 
L 77.553787 55.45573 
L 77.613105 55.385241 
L 77.677922 55.493549 
L 77.789861 55.588946 
L 77.754149 55.470942 
L 77.800413 55.53011 
L 77.846463 55.488107 
L 77.887827 55.615123 
L 77.901351 55.591534 
L 78.009409 55.69974 
L 78.009409 55.701211 
L 78.089786 55.730855 
L 78.037013 55.658996 
L 78.119528 55.677963 
L 78.338276 55.812334 
L 78.348267 55.884017 
L 78.440388 55.748506 
L 78.44906 55.784855 
L 78.655878 55.683286 
L 78.655878 55.683154 
L 78.740739 55.552528 
L 78.682256 55.706946 
L 78.767036 55.564612 
L 78.773763 55.584061 
L 78.796291 55.487856 
L 78.868524 55.521367 
L 78.870032 55.512932 
L 78.959697 55.639171 
L 78.964922 55.629105 
L 79.059667 55.649086 
L 78.990272 55.557449 
L 79.077929 55.631221 
L 79.428764 55.520129 
L 79.448788 55.490593 
L 79.525509 55.659578 
L 79.538574 55.622687 
L 79.58141 55.733641 
L 79.583578 55.748584 
L 79.688465 55.651 
L 79.962612 55.542274 
L 79.962612 55.540763 
L 80.107239 55.327921 
L 80.170847 55.437724 
L 80.281935 55.577227 
L 80.66252 55.685188 
L 80.745797 55.74395 
L 80.770191 55.68263 
L 80.773437 55.690417 
L 80.775935 55.681789 
L 80.8291 55.847861 
L 80.840397 55.835229 
L 80.911416 55.807626 
L 80.875737 55.777335 
L 80.93333 55.765219 
L 81.207437 55.872864 
L 81.280304 55.916624 
L 81.301407 55.859766 
L 81.318065 55.878829 
L 81.45927 55.76819 
L 81.45927 55.767905 
L 81.467124 55.757775 
L 81.522261 55.891184 
L 81.567735 55.861757 
L 81.57954 55.832781 
L 81.629436 55.907717 
L 81.671061 55.898245 
L 81.672325 55.903316 
L 81.752227 55.794512 
L 81.781662 55.803934 
L 83.733161 55.91115 
L 83.773246 55.960945 
L 83.840612 55.889265 
L 83.842743 55.892997 
L 84.235879 56.002899 
L 84.235879 56.003816 
L 84.378727 56.090161 
L 84.412816 56.039047 
L 84.566357 56.006358 
L 84.568996 56.012401 
L 84.671322 56.032884 
L 84.653947 55.983801 
L 84.680011 56.014561 
L 85.65462 55.903937 
L 85.65462 55.903937 
L 85.657866 55.895937 
L 85.738624 55.935157 
L 85.765561 55.916086 
L 85.79015 55.948798 
L 85.867455 55.975454 
L 85.968765 55.992612 
L 85.92552 55.954402 
L 85.978811 55.980819 
L 86.116171 55.885893 
L 86.117716 55.88795 
L 86.19991 55.990131 
L 86.241433 56.000804 
L 86.31053 55.927802 
L 86.483709 55.926312 
L 86.489388 55.949163 
L 86.595691 55.983619 
L 86.600148 55.982039 
L 86.697392 55.994285 
L 86.61241 55.964377 
L 86.71624 55.96219 
L 87.257547 55.797512 
L 87.368574 55.773951 
L 87.268965 55.816108 
L 87.368603 55.774633 
L 88.350271 55.664231 
L 88.471631 55.658451 
L 88.47344 55.659374 
L 91.754171 55.766971 
L 91.845783 55.803765 
L 91.78988 55.763814 
L 91.864857 55.799404 
L 93.486524 55.910285 
L 93.550129 55.880652 
L 93.597498 55.91861 
L 101.524988 55.808796 
L 101.633848 55.799787 
L 101.561511 55.81597 
L 101.635273 55.802184 
L 106.990516 55.913236 
L 106.990516 55.913236 
L 107.02501 55.916108 
L 107.092782 55.906947 
L 107.101578 55.907621 
L 107.236795 55.913901 
L 107.237911 55.91687 
L 114.868668 55.805789 
L 115.291935 55.810762 
L 115.291935 55.810848 
L 115.384867 55.812245 
L 115.3318 55.801883 
L 115.402615 55.806171 
L 136.38244 55.916889 
L 136.486606 55.91682 
L 136.387131 55.915393 
L 136.497076 55.912276 
L 148.529961 56.023236 
L 148.534534 56.021493 
L 148.640262 56.034558 
L 190.363853 56.145543 
L 190.363853 56.145543 
L 190.369925 56.146678 
L 190.398753 56.14369 
L 190.47383 56.14538 
L 193.073502 56.129132 
L 193.073502 56.129132 
L 193.073502 56.129296 
L 193.158723 56.124316 
L 193.184512 56.12868 
L 193.441094 56.114981 
L 262.735051 56.225736 
L 262.735051 56.226073 
L 263.180233 56.221519 
L 364.214533 56.332596 
L 364.326285 56.334191 
L 374.942994 56.333512 
L 374.942994 56.333514 
L 375.14915 56.336226 
L 375.149198 56.336142 
L 398.485022 56.350511 
L 398.485022 56.350511 
" clip-path="url(#p6777ed1d27)" style="fill: none; stroke: #9467bd; stroke-width: 1.5; stroke-linecap: square"/>
   </g>
   <g id="patch_3">
    <path d="M 57.6 307.584 
L 57.6 41.472 
" style="fill: none; stroke: #000000; stroke-width: 0.8; stroke-linejoin: miter; stroke-linecap: square"/>
   </g>
   <g id="patch_4">
    <path d="M 414.72 307.584 
L 414.72 41.472 
" style="fill: none; stroke: #000000; stroke-width: 0.8; stroke-linejoin: miter; stroke-linecap: square"/>
   </g>
   <g id="patch_5">
    <path d="M 57.6 307.584 
L 414.72 307.584 
" style="fill: none; stroke: #000000; stroke-width: 0.8; stroke-linejoin: miter; stroke-linecap: square"/>
   </g>
   <g id="patch_6">
    <path d="M 57.6 41.472 
L 414.72 41.472 
" style="fill: none; stroke: #000000; stroke-width: 0.8; stroke-linejoin: miter; stroke-linecap: square"/>
   </g>
   <g id="text_18">
    <!-- useOfPageMean vs. TimePoint for Each Run -->
    <g transform="translate(105.815625 35.472) scale(0.12 -0.12)">
     <defs>
      <path id="DejaVuSans-20" transform="scale(0.015625)"/>
      <path id="DejaVuSans-76" d="M 191 3500 
L 800 3500 
L 1894 563 
L 2988 3500 
L 3597 3500 
L 2284 0 
L 1503 0 
L 191 3500 
z
" transform="scale(0.015625)"/>
      <path id="DejaVuSans-2e" d="M 684 794 
L 1344 794 
L 1344 0 
L 684 0 
L 684 794 
z
" transform="scale(0.015625)"/>
      <path id="DejaVuSans-72" d="M 2631 2963 
Q 2534 3019 2420 3045 
Q 2306 3072 2169 3072 
Q 1681 3072 1420 2755 
Q 1159 2438 1159 1844 
L 1159 0 
L 581 0 
L 581 3500 
L 1159 3500 
L 1159 2956 
Q 1341 3275 1631 3429 
Q 1922 3584 2338 3584 
Q 2397 3584 2469 3576 
Q 2541 3569 2628 3553 
L 2631 2963 
z
" transform="scale(0.015625)"/>
      <path id="DejaVuSans-45" d="M 628 4666 
L 3578 4666 
L 3578 4134 
L 1259 4134 
L 1259 2753 
L 3481 2753 
L 3481 2222 
L 1259 2222 
L 1259 531 
L 3634 531 
L 3634 0 
L 628 0 
L 628 4666 
z
" transform="scale(0.015625)"/>
      <path id="DejaVuSans-63" d="M 3122 3366 
L 3122 2828 
Q 2878 2963 2633 3030 
Q 2388 3097 2138 3097 
Q 1578 3097 1268 2742 
Q 959 2388 959 1747 
Q 959 1106 1268 751 
Q 1578 397 2138 397 
Q 2388 397 2633 464 
Q 2878 531 3122 666 
L 3122 134 
Q 2881 22 2623 -34 
Q 2366 -91 2075 -91 
Q 1284 -91 818 406 
Q 353 903 353 1747 
Q 353 2603 823 3093 
Q 1294 3584 2113 3584 
Q 2378 3584 2631 3529 
Q 2884 3475 3122 3366 
z
" transform="scale(0.015625)"/>
      <path id="DejaVuSans-68" d="M 3513 2113 
L 3513 0 
L 2938 0 
L 2938 2094 
Q 2938 2591 2744 2837 
Q 2550 3084 2163 3084 
Q 1697 3084 1428 2787 
Q 1159 2491 1159 1978 
L 1159 0 
L 581 0 
L 581 4863 
L 1159 4863 
L 1159 2956 
Q 1366 3272 1645 3428 
Q 1925 3584 2291 3584 
Q 2894 3584 3203 3211 
Q 3513 2838 3513 2113 
z
" transform="scale(0.015625)"/>
      <path id="DejaVuSans-52" d="M 2841 2188 
Q 3044 2119 3236 1894 
Q 3428 1669 3622 1275 
L 4263 0 
L 3584 0 
L 2988 1197 
Q 2756 1666 2539 1819 
Q 2322 1972 1947 1972 
L 1259 1972 
L 1259 0 
L 628 0 
L 628 4666 
L 2053 4666 
Q 2853 4666 3247 4331 
Q 3641 3997 3641 3322 
Q 3641 2881 3436 2590 
Q 3231 2300 2841 2188 
z
M 1259 4147 
L 1259 2491 
L 2053 2491 
Q 2509 2491 2742 2702 
Q 2975 2913 2975 3322 
Q 2975 3731 2742 3939 
Q 2509 4147 2053 4147 
L 1259 4147 
z
" transform="scale(0.015625)"/>
     </defs>
     <use xlink:href="#DejaVuSans-75"/>
     <use xlink:href="#DejaVuSans-73" x="63.378906"/>
     <use xlink:href="#DejaVuSans-65" x="115.478516"/>
     <use xlink:href="#DejaVuSans-4f" x="177.001953"/>
     <use xlink:href="#DejaVuSans-66" x="255.712891"/>
     <use xlink:href="#DejaVuSans-50" x="290.917969"/>
     <use xlink:href="#DejaVuSans-61" x="346.720703"/>
     <use xlink:href="#DejaVuSans-67" x="408"/>
     <use xlink:href="#DejaVuSans-65" x="471.476562"/>
     <use xlink:href="#DejaVuSans-4d" x="533"/>
     <use xlink:href="#DejaVuSans-65" x="619.279297"/>
     <use xlink:href="#DejaVuSans-61" x="680.802734"/>
     <use xlink:href="#DejaVuSans-6e" x="742.082031"/>
     <use xlink:href="#DejaVuSans-20" x="805.460938"/>
     <use xlink:href="#DejaVuSans-76" x="837.248047"/>
     <use xlink:href="#DejaVuSans-73" x="896.427734"/>
     <use xlink:href="#DejaVuSans-2e" x="948.527344"/>
     <use xlink:href="#DejaVuSans-20" x="980.314453"/>
     <use xlink:href="#DejaVuSans-54" x="1012.101562"/>
     <use xlink:href="#DejaVuSans-69" x="1070.060547"/>
     <use xlink:href="#DejaVuSans-6d" x="1097.84375"/>
     <use xlink:href="#DejaVuSans-65" x="1195.255859"/>
     <use xlink:href="#DejaVuSans-50" x="1256.779297"/>
     <use xlink:href="#DejaVuSans-6f" x="1313.457031"/>
     <use xlink:href="#DejaVuSans-69" x="1374.638672"/>
     <use xlink:href="#DejaVuSans-6e" x="1402.421875"/>
     <use xlink:href="#DejaVuSans-74" x="1465.800781"/>
     <use xlink:href="#DejaVuSans-20" x="1505.009766"/>
     <use xlink:href="#DejaVuSans-66" x="1536.796875"/>
     <use xlink:href="#DejaVuSans-6f" x="1572.001953"/>
     <use xlink:href="#DejaVuSans-72" x="1633.183594"/>
     <use xlink:href="#DejaVuSans-20" x="1674.296875"/>
     <use xlink:href="#DejaVuSans-45" x="1706.083984"/>
     <use xlink:href="#DejaVuSans-61" x="1769.267578"/>
     <use xlink:href="#DejaVuSans-63" x="1830.546875"/>
     <use xlink:href="#DejaVuSans-68" x="1885.527344"/>
     <use xlink:href="#DejaVuSans-20" x="1948.90625"/>
     <use xlink:href="#DejaVuSans-52" x="1980.693359"/>
     <use xlink:href="#DejaVuSans-75" x="2045.675781"/>
     <use xlink:href="#DejaVuSans-6e" x="2109.054688"/>
    </g>
   </g>
   <g id="legend_1">
    <g id="patch_7">
     <path d="M 341.196563 302.584 
L 407.72 302.584 
Q 409.72 302.584 409.72 300.584 
L 409.72 213.51525 
Q 409.72 211.51525 407.72 211.51525 
L 341.196563 211.51525 
Q 339.196563 211.51525 339.196563 213.51525 
L 339.196563 300.584 
Q 339.196563 302.584 341.196563 302.584 
z
" style="fill: #ffffff; opacity: 0.8; stroke: #cccccc; stroke-linejoin: miter"/>
    </g>
    <g id="text_19">
     <!-- Run Number -->
     <g transform="translate(343.196563 223.113687) scale(0.1 -0.1)">
      <defs>
       <path id="DejaVuSans-4e" d="M 628 4666 
L 1478 4666 
L 3547 763 
L 3547 4666 
L 4159 4666 
L 4159 0 
L 3309 0 
L 1241 3903 
L 1241 0 
L 628 0 
L 628 4666 
z
" transform="scale(0.015625)"/>
       <path id="DejaVuSans-62" d="M 3116 1747 
Q 3116 2381 2855 2742 
Q 2594 3103 2138 3103 
Q 1681 3103 1420 2742 
Q 1159 2381 1159 1747 
Q 1159 1113 1420 752 
Q 1681 391 2138 391 
Q 2594 391 2855 752 
Q 3116 1113 3116 1747 
z
M 1159 2969 
Q 1341 3281 1617 3432 
Q 1894 3584 2278 3584 
Q 2916 3584 3314 3078 
Q 3713 2572 3713 1747 
Q 3713 922 3314 415 
Q 2916 -91 2278 -91 
Q 1894 -91 1617 61 
Q 1341 213 1159 525 
L 1159 0 
L 581 0 
L 581 4863 
L 1159 4863 
L 1159 2969 
z
" transform="scale(0.015625)"/>
      </defs>
      <use xlink:href="#DejaVuSans-52"/>
      <use xlink:href="#DejaVuSans-75" x="64.982422"/>
      <use xlink:href="#DejaVuSans-6e" x="128.361328"/>
      <use xlink:href="#DejaVuSans-20" x="191.740234"/>
      <use xlink:href="#DejaVuSans-4e" x="223.527344"/>
      <use xlink:href="#DejaVuSans-75" x="298.332031"/>
      <use xlink:href="#DejaVuSans-6d" x="361.710938"/>
      <use xlink:href="#DejaVuSans-62" x="459.123047"/>
      <use xlink:href="#DejaVuSans-65" x="522.599609"/>
      <use xlink:href="#DejaVuSans-72" x="584.123047"/>
     </g>
    </g>
    <g id="line2d_36">
     <path d="M 346.10125 234.291812 
L 356.10125 234.291812 
L 366.10125 234.291812 
" style="fill: none; stroke: #1f77b4; stroke-width: 1.5; stroke-linecap: square"/>
    </g>
    <g id="text_20">
     <!-- Run 0 -->
     <g transform="translate(374.10125 237.791812) scale(0.1 -0.1)">
      <use xlink:href="#DejaVuSans-52"/>
      <use xlink:href="#DejaVuSans-75" x="64.982422"/>
      <use xlink:href="#DejaVuSans-6e" x="128.361328"/>
      <use xlink:href="#DejaVuSans-20" x="191.740234"/>
      <use xlink:href="#DejaVuSans-30" x="223.527344"/>
     </g>
    </g>
    <g id="line2d_37">
     <path d="M 346.10125 248.969937 
L 356.10125 248.969937 
L 366.10125 248.969937 
" style="fill: none; stroke: #ff7f0e; stroke-width: 1.5; stroke-linecap: square"/>
    </g>
    <g id="text_21">
     <!-- Run 1 -->
     <g transform="translate(374.10125 252.469937) scale(0.1 -0.1)">
      <use xlink:href="#DejaVuSans-52"/>
      <use xlink:href="#DejaVuSans-75" x="64.982422"/>
      <use xlink:href="#DejaVuSans-6e" x="128.361328"/>
      <use xlink:href="#DejaVuSans-20" x="191.740234"/>
      <use xlink:href="#DejaVuSans-31" x="223.527344"/>
     </g>
    </g>
    <g id="line2d_38">
     <path d="M 346.10125 263.648062 
L 356.10125 263.648062 
L 366.10125 263.648062 
" style="fill: none; stroke: #2ca02c; stroke-width: 1.5; stroke-linecap: square"/>
    </g>
    <g id="text_22">
     <!-- Run 2 -->
     <g transform="translate(374.10125 267.148062) scale(0.1 -0.1)">
      <use xlink:href="#DejaVuSans-52"/>
      <use xlink:href="#DejaVuSans-75" x="64.982422"/>
      <use xlink:href="#DejaVuSans-6e" x="128.361328"/>
      <use xlink:href="#DejaVuSans-20" x="191.740234"/>
      <use xlink:href="#DejaVuSans-32" x="223.527344"/>
     </g>
    </g>
    <g id="line2d_39">
     <path d="M 346.10125 278.326188 
L 356.10125 278.326188 
L 366.10125 278.326188 
" style="fill: none; stroke: #d62728; stroke-width: 1.5; stroke-linecap: square"/>
    </g>
    <g id="text_23">
     <!-- Run 3 -->
     <g transform="translate(374.10125 281.826188) scale(0.1 -0.1)">
      <use xlink:href="#DejaVuSans-52"/>
      <use xlink:href="#DejaVuSans-75" x="64.982422"/>
      <use xlink:href="#DejaVuSans-6e" x="128.361328"/>
      <use xlink:href="#DejaVuSans-20" x="191.740234"/>
      <use xlink:href="#DejaVuSans-33" x="223.527344"/>
     </g>
    </g>
    <g id="line2d_40">
     <path d="M 346.10125 293.004312 
L 356.10125 293.004312 
L 366.10125 293.004312 
" style="fill: none; stroke: #9467bd; stroke-width: 1.5; stroke-linecap: square"/>
    </g>
    <g id="text_24">
     <!-- Run 4 -->
     <g transform="translate(374.10125 296.504312) scale(0.1 -0.1)">
      <use xlink:href="#DejaVuSans-52"/>
      <use xlink:href="#DejaVuSans-75" x="64.982422"/>
      <use xlink:href="#DejaVuSans-6e" x="128.361328"/>
      <use xlink:href="#DejaVuSans-20" x="191.740234"/>
      <use xlink:href="#DejaVuSans-34" x="223.527344"/>
     </g>
    </g>
   </g>
  </g>
 </g>
 <defs>
  <clipPath id="p6777ed1d27">
   <rect x="57.6" y="41.472" width="357.12" height="266.112"/>
  </clipPath>
 </defs>
</svg>
