<?xml version="1.0" encoding="utf-8" standalone="no"?>
<!DOCTYPE svg PUBLIC "-//W3C//DTD SVG 1.1//EN"
  "http://www.w3.org/Graphics/SVG/1.1/DTD/svg11.dtd">
<svg xmlns:xlink="http://www.w3.org/1999/xlink" width="460.8pt" height="345.6pt" viewBox="0 0 460.8 345.6" xmlns="http://www.w3.org/2000/svg" version="1.1">
 <metadata>
  <rdf:RDF xmlns:dc="http://purl.org/dc/elements/1.1/" xmlns:cc="http://creativecommons.org/ns#" xmlns:rdf="http://www.w3.org/1999/02/22-rdf-syntax-ns#">
   <cc:Work>
    <dc:type rdf:resource="http://purl.org/dc/dcmitype/StillImage"/>
    <dc:date>2024-12-03T11:44:48.116497</dc:date>
    <dc:format>image/svg+xml</dc:format>
    <dc:creator>
     <cc:Agent>
      <dc:title>Matplotlib v3.9.2, https://matplotlib.org/</dc:title>
     </cc:Agent>
    </dc:creator>
   </cc:Work>
  </rdf:RDF>
 </metadata>
 <defs>
  <style type="text/css">*{stroke-linejoin: round; stroke-linecap: butt}</style>
 </defs>
 <g id="figure_1">
  <g id="patch_1">
   <path d="M 0 345.6 
L 460.8 345.6 
L 460.8 0 
L 0 0 
z
" style="fill: #ffffff"/>
  </g>
  <g id="axes_1">
   <g id="patch_2">
    <path d="M 57.6 307.584 
L 414.72 307.584 
L 414.72 41.472 
L 57.6 41.472 
z
" style="fill: #ffffff"/>
   </g>
   <g id="matplotlib.axis_1">
    <g id="xtick_1">
     <g id="line2d_1">
      <path d="M 73.832727 307.584 
L 73.832727 41.472 
" clip-path="url(#p6c84ba8193)" style="fill: none; stroke: #b0b0b0; stroke-width: 0.8; stroke-linecap: square"/>
     </g>
     <g id="line2d_2">
      <defs>
       <path id="ma8c15be6c9" d="M 0 0 
L 0 3.5 
" style="stroke: #000000; stroke-width: 0.8"/>
      </defs>
      <g>
       <use xlink:href="#ma8c15be6c9" x="73.832727" y="307.584" style="stroke: #000000; stroke-width: 0.8"/>
      </g>
     </g>
     <g id="text_1">
      <!-- 0 -->
      <g transform="translate(70.651477 322.182437) scale(0.1 -0.1)">
       <defs>
        <path id="DejaVuSans-30" d="M 2034 4250 
Q 1547 4250 1301 3770 
Q 1056 3291 1056 2328 
Q 1056 1369 1301 889 
Q 1547 409 2034 409 
Q 2525 409 2770 889 
Q 3016 1369 3016 2328 
Q 3016 3291 2770 3770 
Q 2525 4250 2034 4250 
z
M 2034 4750 
Q 2819 4750 3233 4129 
Q 3647 3509 3647 2328 
Q 3647 1150 3233 529 
Q 2819 -91 2034 -91 
Q 1250 -91 836 529 
Q 422 1150 422 2328 
Q 422 3509 836 4129 
Q 1250 4750 2034 4750 
z
" transform="scale(0.015625)"/>
       </defs>
       <use xlink:href="#DejaVuSans-30"/>
      </g>
     </g>
    </g>
    <g id="xtick_2">
     <g id="line2d_3">
      <path d="M 114.414556 307.584 
L 114.414556 41.472 
" clip-path="url(#p6c84ba8193)" style="fill: none; stroke: #b0b0b0; stroke-width: 0.8; stroke-linecap: square"/>
     </g>
     <g id="line2d_4">
      <g>
       <use xlink:href="#ma8c15be6c9" x="114.414556" y="307.584" style="stroke: #000000; stroke-width: 0.8"/>
      </g>
     </g>
     <g id="text_2">
      <!-- 100000 -->
      <g transform="translate(95.327056 322.182437) scale(0.1 -0.1)">
       <defs>
        <path id="DejaVuSans-31" d="M 794 531 
L 1825 531 
L 1825 4091 
L 703 3866 
L 703 4441 
L 1819 4666 
L 2450 4666 
L 2450 531 
L 3481 531 
L 3481 0 
L 794 0 
L 794 531 
z
" transform="scale(0.015625)"/>
       </defs>
       <use xlink:href="#DejaVuSans-31"/>
       <use xlink:href="#DejaVuSans-30" x="63.623047"/>
       <use xlink:href="#DejaVuSans-30" x="127.246094"/>
       <use xlink:href="#DejaVuSans-30" x="190.869141"/>
       <use xlink:href="#DejaVuSans-30" x="254.492188"/>
       <use xlink:href="#DejaVuSans-30" x="318.115234"/>
      </g>
     </g>
    </g>
    <g id="xtick_3">
     <g id="line2d_5">
      <path d="M 154.996384 307.584 
L 154.996384 41.472 
" clip-path="url(#p6c84ba8193)" style="fill: none; stroke: #b0b0b0; stroke-width: 0.8; stroke-linecap: square"/>
     </g>
     <g id="line2d_6">
      <g>
       <use xlink:href="#ma8c15be6c9" x="154.996384" y="307.584" style="stroke: #000000; stroke-width: 0.8"/>
      </g>
     </g>
     <g id="text_3">
      <!-- 200000 -->
      <g transform="translate(135.908884 322.182437) scale(0.1 -0.1)">
       <defs>
        <path id="DejaVuSans-32" d="M 1228 531 
L 3431 531 
L 3431 0 
L 469 0 
L 469 531 
Q 828 903 1448 1529 
Q 2069 2156 2228 2338 
Q 2531 2678 2651 2914 
Q 2772 3150 2772 3378 
Q 2772 3750 2511 3984 
Q 2250 4219 1831 4219 
Q 1534 4219 1204 4116 
Q 875 4013 500 3803 
L 500 4441 
Q 881 4594 1212 4672 
Q 1544 4750 1819 4750 
Q 2544 4750 2975 4387 
Q 3406 4025 3406 3419 
Q 3406 3131 3298 2873 
Q 3191 2616 2906 2266 
Q 2828 2175 2409 1742 
Q 1991 1309 1228 531 
z
" transform="scale(0.015625)"/>
       </defs>
       <use xlink:href="#DejaVuSans-32"/>
       <use xlink:href="#DejaVuSans-30" x="63.623047"/>
       <use xlink:href="#DejaVuSans-30" x="127.246094"/>
       <use xlink:href="#DejaVuSans-30" x="190.869141"/>
       <use xlink:href="#DejaVuSans-30" x="254.492188"/>
       <use xlink:href="#DejaVuSans-30" x="318.115234"/>
      </g>
     </g>
    </g>
    <g id="xtick_4">
     <g id="line2d_7">
      <path d="M 195.578212 307.584 
L 195.578212 41.472 
" clip-path="url(#p6c84ba8193)" style="fill: none; stroke: #b0b0b0; stroke-width: 0.8; stroke-linecap: square"/>
     </g>
     <g id="line2d_8">
      <g>
       <use xlink:href="#ma8c15be6c9" x="195.578212" y="307.584" style="stroke: #000000; stroke-width: 0.8"/>
      </g>
     </g>
     <g id="text_4">
      <!-- 300000 -->
      <g transform="translate(176.490712 322.182437) scale(0.1 -0.1)">
       <defs>
        <path id="DejaVuSans-33" d="M 2597 2516 
Q 3050 2419 3304 2112 
Q 3559 1806 3559 1356 
Q 3559 666 3084 287 
Q 2609 -91 1734 -91 
Q 1441 -91 1130 -33 
Q 819 25 488 141 
L 488 750 
Q 750 597 1062 519 
Q 1375 441 1716 441 
Q 2309 441 2620 675 
Q 2931 909 2931 1356 
Q 2931 1769 2642 2001 
Q 2353 2234 1838 2234 
L 1294 2234 
L 1294 2753 
L 1863 2753 
Q 2328 2753 2575 2939 
Q 2822 3125 2822 3475 
Q 2822 3834 2567 4026 
Q 2313 4219 1838 4219 
Q 1578 4219 1281 4162 
Q 984 4106 628 3988 
L 628 4550 
Q 988 4650 1302 4700 
Q 1616 4750 1894 4750 
Q 2613 4750 3031 4423 
Q 3450 4097 3450 3541 
Q 3450 3153 3228 2886 
Q 3006 2619 2597 2516 
z
" transform="scale(0.015625)"/>
       </defs>
       <use xlink:href="#DejaVuSans-33"/>
       <use xlink:href="#DejaVuSans-30" x="63.623047"/>
       <use xlink:href="#DejaVuSans-30" x="127.246094"/>
       <use xlink:href="#DejaVuSans-30" x="190.869141"/>
       <use xlink:href="#DejaVuSans-30" x="254.492188"/>
       <use xlink:href="#DejaVuSans-30" x="318.115234"/>
      </g>
     </g>
    </g>
    <g id="xtick_5">
     <g id="line2d_9">
      <path d="M 236.16004 307.584 
L 236.16004 41.472 
" clip-path="url(#p6c84ba8193)" style="fill: none; stroke: #b0b0b0; stroke-width: 0.8; stroke-linecap: square"/>
     </g>
     <g id="line2d_10">
      <g>
       <use xlink:href="#ma8c15be6c9" x="236.16004" y="307.584" style="stroke: #000000; stroke-width: 0.8"/>
      </g>
     </g>
     <g id="text_5">
      <!-- 400000 -->
      <g transform="translate(217.07254 322.182437) scale(0.1 -0.1)">
       <defs>
        <path id="DejaVuSans-34" d="M 2419 4116 
L 825 1625 
L 2419 1625 
L 2419 4116 
z
M 2253 4666 
L 3047 4666 
L 3047 1625 
L 3713 1625 
L 3713 1100 
L 3047 1100 
L 3047 0 
L 2419 0 
L 2419 1100 
L 313 1100 
L 313 1709 
L 2253 4666 
z
" transform="scale(0.015625)"/>
       </defs>
       <use xlink:href="#DejaVuSans-34"/>
       <use xlink:href="#DejaVuSans-30" x="63.623047"/>
       <use xlink:href="#DejaVuSans-30" x="127.246094"/>
       <use xlink:href="#DejaVuSans-30" x="190.869141"/>
       <use xlink:href="#DejaVuSans-30" x="254.492188"/>
       <use xlink:href="#DejaVuSans-30" x="318.115234"/>
      </g>
     </g>
    </g>
    <g id="xtick_6">
     <g id="line2d_11">
      <path d="M 276.741869 307.584 
L 276.741869 41.472 
" clip-path="url(#p6c84ba8193)" style="fill: none; stroke: #b0b0b0; stroke-width: 0.8; stroke-linecap: square"/>
     </g>
     <g id="line2d_12">
      <g>
       <use xlink:href="#ma8c15be6c9" x="276.741869" y="307.584" style="stroke: #000000; stroke-width: 0.8"/>
      </g>
     </g>
     <g id="text_6">
      <!-- 500000 -->
      <g transform="translate(257.654369 322.182437) scale(0.1 -0.1)">
       <defs>
        <path id="DejaVuSans-35" d="M 691 4666 
L 3169 4666 
L 3169 4134 
L 1269 4134 
L 1269 2991 
Q 1406 3038 1543 3061 
Q 1681 3084 1819 3084 
Q 2600 3084 3056 2656 
Q 3513 2228 3513 1497 
Q 3513 744 3044 326 
Q 2575 -91 1722 -91 
Q 1428 -91 1123 -41 
Q 819 9 494 109 
L 494 744 
Q 775 591 1075 516 
Q 1375 441 1709 441 
Q 2250 441 2565 725 
Q 2881 1009 2881 1497 
Q 2881 1984 2565 2268 
Q 2250 2553 1709 2553 
Q 1456 2553 1204 2497 
Q 953 2441 691 2322 
L 691 4666 
z
" transform="scale(0.015625)"/>
       </defs>
       <use xlink:href="#DejaVuSans-35"/>
       <use xlink:href="#DejaVuSans-30" x="63.623047"/>
       <use xlink:href="#DejaVuSans-30" x="127.246094"/>
       <use xlink:href="#DejaVuSans-30" x="190.869141"/>
       <use xlink:href="#DejaVuSans-30" x="254.492188"/>
       <use xlink:href="#DejaVuSans-30" x="318.115234"/>
      </g>
     </g>
    </g>
    <g id="xtick_7">
     <g id="line2d_13">
      <path d="M 317.323697 307.584 
L 317.323697 41.472 
" clip-path="url(#p6c84ba8193)" style="fill: none; stroke: #b0b0b0; stroke-width: 0.8; stroke-linecap: square"/>
     </g>
     <g id="line2d_14">
      <g>
       <use xlink:href="#ma8c15be6c9" x="317.323697" y="307.584" style="stroke: #000000; stroke-width: 0.8"/>
      </g>
     </g>
     <g id="text_7">
      <!-- 600000 -->
      <g transform="translate(298.236197 322.182437) scale(0.1 -0.1)">
       <defs>
        <path id="DejaVuSans-36" d="M 2113 2584 
Q 1688 2584 1439 2293 
Q 1191 2003 1191 1497 
Q 1191 994 1439 701 
Q 1688 409 2113 409 
Q 2538 409 2786 701 
Q 3034 994 3034 1497 
Q 3034 2003 2786 2293 
Q 2538 2584 2113 2584 
z
M 3366 4563 
L 3366 3988 
Q 3128 4100 2886 4159 
Q 2644 4219 2406 4219 
Q 1781 4219 1451 3797 
Q 1122 3375 1075 2522 
Q 1259 2794 1537 2939 
Q 1816 3084 2150 3084 
Q 2853 3084 3261 2657 
Q 3669 2231 3669 1497 
Q 3669 778 3244 343 
Q 2819 -91 2113 -91 
Q 1303 -91 875 529 
Q 447 1150 447 2328 
Q 447 3434 972 4092 
Q 1497 4750 2381 4750 
Q 2619 4750 2861 4703 
Q 3103 4656 3366 4563 
z
" transform="scale(0.015625)"/>
       </defs>
       <use xlink:href="#DejaVuSans-36"/>
       <use xlink:href="#DejaVuSans-30" x="63.623047"/>
       <use xlink:href="#DejaVuSans-30" x="127.246094"/>
       <use xlink:href="#DejaVuSans-30" x="190.869141"/>
       <use xlink:href="#DejaVuSans-30" x="254.492188"/>
       <use xlink:href="#DejaVuSans-30" x="318.115234"/>
      </g>
     </g>
    </g>
    <g id="xtick_8">
     <g id="line2d_15">
      <path d="M 357.905525 307.584 
L 357.905525 41.472 
" clip-path="url(#p6c84ba8193)" style="fill: none; stroke: #b0b0b0; stroke-width: 0.8; stroke-linecap: square"/>
     </g>
     <g id="line2d_16">
      <g>
       <use xlink:href="#ma8c15be6c9" x="357.905525" y="307.584" style="stroke: #000000; stroke-width: 0.8"/>
      </g>
     </g>
     <g id="text_8">
      <!-- 700000 -->
      <g transform="translate(338.818025 322.182437) scale(0.1 -0.1)">
       <defs>
        <path id="DejaVuSans-37" d="M 525 4666 
L 3525 4666 
L 3525 4397 
L 1831 0 
L 1172 0 
L 2766 4134 
L 525 4134 
L 525 4666 
z
" transform="scale(0.015625)"/>
       </defs>
       <use xlink:href="#DejaVuSans-37"/>
       <use xlink:href="#DejaVuSans-30" x="63.623047"/>
       <use xlink:href="#DejaVuSans-30" x="127.246094"/>
       <use xlink:href="#DejaVuSans-30" x="190.869141"/>
       <use xlink:href="#DejaVuSans-30" x="254.492188"/>
       <use xlink:href="#DejaVuSans-30" x="318.115234"/>
      </g>
     </g>
    </g>
    <g id="xtick_9">
     <g id="line2d_17">
      <path d="M 398.487353 307.584 
L 398.487353 41.472 
" clip-path="url(#p6c84ba8193)" style="fill: none; stroke: #b0b0b0; stroke-width: 0.8; stroke-linecap: square"/>
     </g>
     <g id="line2d_18">
      <g>
       <use xlink:href="#ma8c15be6c9" x="398.487353" y="307.584" style="stroke: #000000; stroke-width: 0.8"/>
      </g>
     </g>
     <g id="text_9">
      <!-- 800000 -->
      <g transform="translate(379.399853 322.182437) scale(0.1 -0.1)">
       <defs>
        <path id="DejaVuSans-38" d="M 2034 2216 
Q 1584 2216 1326 1975 
Q 1069 1734 1069 1313 
Q 1069 891 1326 650 
Q 1584 409 2034 409 
Q 2484 409 2743 651 
Q 3003 894 3003 1313 
Q 3003 1734 2745 1975 
Q 2488 2216 2034 2216 
z
M 1403 2484 
Q 997 2584 770 2862 
Q 544 3141 544 3541 
Q 544 4100 942 4425 
Q 1341 4750 2034 4750 
Q 2731 4750 3128 4425 
Q 3525 4100 3525 3541 
Q 3525 3141 3298 2862 
Q 3072 2584 2669 2484 
Q 3125 2378 3379 2068 
Q 3634 1759 3634 1313 
Q 3634 634 3220 271 
Q 2806 -91 2034 -91 
Q 1263 -91 848 271 
Q 434 634 434 1313 
Q 434 1759 690 2068 
Q 947 2378 1403 2484 
z
M 1172 3481 
Q 1172 3119 1398 2916 
Q 1625 2713 2034 2713 
Q 2441 2713 2670 2916 
Q 2900 3119 2900 3481 
Q 2900 3844 2670 4047 
Q 2441 4250 2034 4250 
Q 1625 4250 1398 4047 
Q 1172 3844 1172 3481 
z
" transform="scale(0.015625)"/>
       </defs>
       <use xlink:href="#DejaVuSans-38"/>
       <use xlink:href="#DejaVuSans-30" x="63.623047"/>
       <use xlink:href="#DejaVuSans-30" x="127.246094"/>
       <use xlink:href="#DejaVuSans-30" x="190.869141"/>
       <use xlink:href="#DejaVuSans-30" x="254.492188"/>
       <use xlink:href="#DejaVuSans-30" x="318.115234"/>
      </g>
     </g>
    </g>
    <g id="text_10">
     <!-- TimePoint -->
     <g transform="translate(211.515469 335.860562) scale(0.1 -0.1)">
      <defs>
       <path id="DejaVuSans-54" d="M -19 4666 
L 3928 4666 
L 3928 4134 
L 2272 4134 
L 2272 0 
L 1638 0 
L 1638 4134 
L -19 4134 
L -19 4666 
z
" transform="scale(0.015625)"/>
       <path id="DejaVuSans-69" d="M 603 3500 
L 1178 3500 
L 1178 0 
L 603 0 
L 603 3500 
z
M 603 4863 
L 1178 4863 
L 1178 4134 
L 603 4134 
L 603 4863 
z
" transform="scale(0.015625)"/>
       <path id="DejaVuSans-6d" d="M 3328 2828 
Q 3544 3216 3844 3400 
Q 4144 3584 4550 3584 
Q 5097 3584 5394 3201 
Q 5691 2819 5691 2113 
L 5691 0 
L 5113 0 
L 5113 2094 
Q 5113 2597 4934 2840 
Q 4756 3084 4391 3084 
Q 3944 3084 3684 2787 
Q 3425 2491 3425 1978 
L 3425 0 
L 2847 0 
L 2847 2094 
Q 2847 2600 2669 2842 
Q 2491 3084 2119 3084 
Q 1678 3084 1418 2786 
Q 1159 2488 1159 1978 
L 1159 0 
L 581 0 
L 581 3500 
L 1159 3500 
L 1159 2956 
Q 1356 3278 1631 3431 
Q 1906 3584 2284 3584 
Q 2666 3584 2933 3390 
Q 3200 3197 3328 2828 
z
" transform="scale(0.015625)"/>
       <path id="DejaVuSans-65" d="M 3597 1894 
L 3597 1613 
L 953 1613 
Q 991 1019 1311 708 
Q 1631 397 2203 397 
Q 2534 397 2845 478 
Q 3156 559 3463 722 
L 3463 178 
Q 3153 47 2828 -22 
Q 2503 -91 2169 -91 
Q 1331 -91 842 396 
Q 353 884 353 1716 
Q 353 2575 817 3079 
Q 1281 3584 2069 3584 
Q 2775 3584 3186 3129 
Q 3597 2675 3597 1894 
z
M 3022 2063 
Q 3016 2534 2758 2815 
Q 2500 3097 2075 3097 
Q 1594 3097 1305 2825 
Q 1016 2553 972 2059 
L 3022 2063 
z
" transform="scale(0.015625)"/>
       <path id="DejaVuSans-50" d="M 1259 4147 
L 1259 2394 
L 2053 2394 
Q 2494 2394 2734 2622 
Q 2975 2850 2975 3272 
Q 2975 3691 2734 3919 
Q 2494 4147 2053 4147 
L 1259 4147 
z
M 628 4666 
L 2053 4666 
Q 2838 4666 3239 4311 
Q 3641 3956 3641 3272 
Q 3641 2581 3239 2228 
Q 2838 1875 2053 1875 
L 1259 1875 
L 1259 0 
L 628 0 
L 628 4666 
z
" transform="scale(0.015625)"/>
       <path id="DejaVuSans-6f" d="M 1959 3097 
Q 1497 3097 1228 2736 
Q 959 2375 959 1747 
Q 959 1119 1226 758 
Q 1494 397 1959 397 
Q 2419 397 2687 759 
Q 2956 1122 2956 1747 
Q 2956 2369 2687 2733 
Q 2419 3097 1959 3097 
z
M 1959 3584 
Q 2709 3584 3137 3096 
Q 3566 2609 3566 1747 
Q 3566 888 3137 398 
Q 2709 -91 1959 -91 
Q 1206 -91 779 398 
Q 353 888 353 1747 
Q 353 2609 779 3096 
Q 1206 3584 1959 3584 
z
" transform="scale(0.015625)"/>
       <path id="DejaVuSans-6e" d="M 3513 2113 
L 3513 0 
L 2938 0 
L 2938 2094 
Q 2938 2591 2744 2837 
Q 2550 3084 2163 3084 
Q 1697 3084 1428 2787 
Q 1159 2491 1159 1978 
L 1159 0 
L 581 0 
L 581 3500 
L 1159 3500 
L 1159 2956 
Q 1366 3272 1645 3428 
Q 1925 3584 2291 3584 
Q 2894 3584 3203 3211 
Q 3513 2838 3513 2113 
z
" transform="scale(0.015625)"/>
       <path id="DejaVuSans-74" d="M 1172 4494 
L 1172 3500 
L 2356 3500 
L 2356 3053 
L 1172 3053 
L 1172 1153 
Q 1172 725 1289 603 
Q 1406 481 1766 481 
L 2356 481 
L 2356 0 
L 1766 0 
Q 1100 0 847 248 
Q 594 497 594 1153 
L 594 3053 
L 172 3053 
L 172 3500 
L 594 3500 
L 594 4494 
L 1172 4494 
z
" transform="scale(0.015625)"/>
      </defs>
      <use xlink:href="#DejaVuSans-54"/>
      <use xlink:href="#DejaVuSans-69" x="57.958984"/>
      <use xlink:href="#DejaVuSans-6d" x="85.742188"/>
      <use xlink:href="#DejaVuSans-65" x="183.154297"/>
      <use xlink:href="#DejaVuSans-50" x="244.677734"/>
      <use xlink:href="#DejaVuSans-6f" x="301.355469"/>
      <use xlink:href="#DejaVuSans-69" x="362.537109"/>
      <use xlink:href="#DejaVuSans-6e" x="390.320312"/>
      <use xlink:href="#DejaVuSans-74" x="453.699219"/>
     </g>
    </g>
   </g>
   <g id="matplotlib.axis_2">
    <g id="ytick_1">
     <g id="line2d_19">
      <path d="M 57.6 295.488 
L 414.72 295.488 
" clip-path="url(#p6c84ba8193)" style="fill: none; stroke: #b0b0b0; stroke-width: 0.8; stroke-linecap: square"/>
     </g>
     <g id="line2d_20">
      <defs>
       <path id="mbe949c332e" d="M 0 0 
L -3.5 0 
" style="stroke: #000000; stroke-width: 0.8"/>
      </defs>
      <g>
       <use xlink:href="#mbe949c332e" x="57.6" y="295.488" style="stroke: #000000; stroke-width: 0.8"/>
      </g>
     </g>
     <g id="text_11">
      <!-- 0 -->
      <g transform="translate(44.2375 299.287219) scale(0.1 -0.1)">
       <use xlink:href="#DejaVuSans-30"/>
      </g>
     </g>
    </g>
    <g id="ytick_2">
     <g id="line2d_21">
      <path d="M 57.6 245.880274 
L 414.72 245.880274 
" clip-path="url(#p6c84ba8193)" style="fill: none; stroke: #b0b0b0; stroke-width: 0.8; stroke-linecap: square"/>
     </g>
     <g id="line2d_22">
      <g>
       <use xlink:href="#mbe949c332e" x="57.6" y="245.880274" style="stroke: #000000; stroke-width: 0.8"/>
      </g>
     </g>
     <g id="text_12">
      <!-- 10 -->
      <g transform="translate(37.875 249.679493) scale(0.1 -0.1)">
       <use xlink:href="#DejaVuSans-31"/>
       <use xlink:href="#DejaVuSans-30" x="63.623047"/>
      </g>
     </g>
    </g>
    <g id="ytick_3">
     <g id="line2d_23">
      <path d="M 57.6 196.272549 
L 414.72 196.272549 
" clip-path="url(#p6c84ba8193)" style="fill: none; stroke: #b0b0b0; stroke-width: 0.8; stroke-linecap: square"/>
     </g>
     <g id="line2d_24">
      <g>
       <use xlink:href="#mbe949c332e" x="57.6" y="196.272549" style="stroke: #000000; stroke-width: 0.8"/>
      </g>
     </g>
     <g id="text_13">
      <!-- 20 -->
      <g transform="translate(37.875 200.071768) scale(0.1 -0.1)">
       <use xlink:href="#DejaVuSans-32"/>
       <use xlink:href="#DejaVuSans-30" x="63.623047"/>
      </g>
     </g>
    </g>
    <g id="ytick_4">
     <g id="line2d_25">
      <path d="M 57.6 146.664823 
L 414.72 146.664823 
" clip-path="url(#p6c84ba8193)" style="fill: none; stroke: #b0b0b0; stroke-width: 0.8; stroke-linecap: square"/>
     </g>
     <g id="line2d_26">
      <g>
       <use xlink:href="#mbe949c332e" x="57.6" y="146.664823" style="stroke: #000000; stroke-width: 0.8"/>
      </g>
     </g>
     <g id="text_14">
      <!-- 30 -->
      <g transform="translate(37.875 150.464042) scale(0.1 -0.1)">
       <use xlink:href="#DejaVuSans-33"/>
       <use xlink:href="#DejaVuSans-30" x="63.623047"/>
      </g>
     </g>
    </g>
    <g id="ytick_5">
     <g id="line2d_27">
      <path d="M 57.6 97.057098 
L 414.72 97.057098 
" clip-path="url(#p6c84ba8193)" style="fill: none; stroke: #b0b0b0; stroke-width: 0.8; stroke-linecap: square"/>
     </g>
     <g id="line2d_28">
      <g>
       <use xlink:href="#mbe949c332e" x="57.6" y="97.057098" style="stroke: #000000; stroke-width: 0.8"/>
      </g>
     </g>
     <g id="text_15">
      <!-- 40 -->
      <g transform="translate(37.875 100.856317) scale(0.1 -0.1)">
       <use xlink:href="#DejaVuSans-34"/>
       <use xlink:href="#DejaVuSans-30" x="63.623047"/>
      </g>
     </g>
    </g>
    <g id="ytick_6">
     <g id="line2d_29">
      <path d="M 57.6 47.449372 
L 414.72 47.449372 
" clip-path="url(#p6c84ba8193)" style="fill: none; stroke: #b0b0b0; stroke-width: 0.8; stroke-linecap: square"/>
     </g>
     <g id="line2d_30">
      <g>
       <use xlink:href="#mbe949c332e" x="57.6" y="47.449372" style="stroke: #000000; stroke-width: 0.8"/>
      </g>
     </g>
     <g id="text_16">
      <!-- 50 -->
      <g transform="translate(37.875 51.248591) scale(0.1 -0.1)">
       <use xlink:href="#DejaVuSans-35"/>
       <use xlink:href="#DejaVuSans-30" x="63.623047"/>
      </g>
     </g>
    </g>
    <g id="text_17">
     <!-- useOfPageStdDev -->
     <g transform="translate(31.795312 219.373312) rotate(-90) scale(0.1 -0.1)">
      <defs>
       <path id="DejaVuSans-75" d="M 544 1381 
L 544 3500 
L 1119 3500 
L 1119 1403 
Q 1119 906 1312 657 
Q 1506 409 1894 409 
Q 2359 409 2629 706 
Q 2900 1003 2900 1516 
L 2900 3500 
L 3475 3500 
L 3475 0 
L 2900 0 
L 2900 538 
Q 2691 219 2414 64 
Q 2138 -91 1772 -91 
Q 1169 -91 856 284 
Q 544 659 544 1381 
z
M 1991 3584 
L 1991 3584 
z
" transform="scale(0.015625)"/>
       <path id="DejaVuSans-73" d="M 2834 3397 
L 2834 2853 
Q 2591 2978 2328 3040 
Q 2066 3103 1784 3103 
Q 1356 3103 1142 2972 
Q 928 2841 928 2578 
Q 928 2378 1081 2264 
Q 1234 2150 1697 2047 
L 1894 2003 
Q 2506 1872 2764 1633 
Q 3022 1394 3022 966 
Q 3022 478 2636 193 
Q 2250 -91 1575 -91 
Q 1294 -91 989 -36 
Q 684 19 347 128 
L 347 722 
Q 666 556 975 473 
Q 1284 391 1588 391 
Q 1994 391 2212 530 
Q 2431 669 2431 922 
Q 2431 1156 2273 1281 
Q 2116 1406 1581 1522 
L 1381 1569 
Q 847 1681 609 1914 
Q 372 2147 372 2553 
Q 372 3047 722 3315 
Q 1072 3584 1716 3584 
Q 2034 3584 2315 3537 
Q 2597 3491 2834 3397 
z
" transform="scale(0.015625)"/>
       <path id="DejaVuSans-4f" d="M 2522 4238 
Q 1834 4238 1429 3725 
Q 1025 3213 1025 2328 
Q 1025 1447 1429 934 
Q 1834 422 2522 422 
Q 3209 422 3611 934 
Q 4013 1447 4013 2328 
Q 4013 3213 3611 3725 
Q 3209 4238 2522 4238 
z
M 2522 4750 
Q 3503 4750 4090 4092 
Q 4678 3434 4678 2328 
Q 4678 1225 4090 567 
Q 3503 -91 2522 -91 
Q 1538 -91 948 565 
Q 359 1222 359 2328 
Q 359 3434 948 4092 
Q 1538 4750 2522 4750 
z
" transform="scale(0.015625)"/>
       <path id="DejaVuSans-66" d="M 2375 4863 
L 2375 4384 
L 1825 4384 
Q 1516 4384 1395 4259 
Q 1275 4134 1275 3809 
L 1275 3500 
L 2222 3500 
L 2222 3053 
L 1275 3053 
L 1275 0 
L 697 0 
L 697 3053 
L 147 3053 
L 147 3500 
L 697 3500 
L 697 3744 
Q 697 4328 969 4595 
Q 1241 4863 1831 4863 
L 2375 4863 
z
" transform="scale(0.015625)"/>
       <path id="DejaVuSans-61" d="M 2194 1759 
Q 1497 1759 1228 1600 
Q 959 1441 959 1056 
Q 959 750 1161 570 
Q 1363 391 1709 391 
Q 2188 391 2477 730 
Q 2766 1069 2766 1631 
L 2766 1759 
L 2194 1759 
z
M 3341 1997 
L 3341 0 
L 2766 0 
L 2766 531 
Q 2569 213 2275 61 
Q 1981 -91 1556 -91 
Q 1019 -91 701 211 
Q 384 513 384 1019 
Q 384 1609 779 1909 
Q 1175 2209 1959 2209 
L 2766 2209 
L 2766 2266 
Q 2766 2663 2505 2880 
Q 2244 3097 1772 3097 
Q 1472 3097 1187 3025 
Q 903 2953 641 2809 
L 641 3341 
Q 956 3463 1253 3523 
Q 1550 3584 1831 3584 
Q 2591 3584 2966 3190 
Q 3341 2797 3341 1997 
z
" transform="scale(0.015625)"/>
       <path id="DejaVuSans-67" d="M 2906 1791 
Q 2906 2416 2648 2759 
Q 2391 3103 1925 3103 
Q 1463 3103 1205 2759 
Q 947 2416 947 1791 
Q 947 1169 1205 825 
Q 1463 481 1925 481 
Q 2391 481 2648 825 
Q 2906 1169 2906 1791 
z
M 3481 434 
Q 3481 -459 3084 -895 
Q 2688 -1331 1869 -1331 
Q 1566 -1331 1297 -1286 
Q 1028 -1241 775 -1147 
L 775 -588 
Q 1028 -725 1275 -790 
Q 1522 -856 1778 -856 
Q 2344 -856 2625 -561 
Q 2906 -266 2906 331 
L 2906 616 
Q 2728 306 2450 153 
Q 2172 0 1784 0 
Q 1141 0 747 490 
Q 353 981 353 1791 
Q 353 2603 747 3093 
Q 1141 3584 1784 3584 
Q 2172 3584 2450 3431 
Q 2728 3278 2906 2969 
L 2906 3500 
L 3481 3500 
L 3481 434 
z
" transform="scale(0.015625)"/>
       <path id="DejaVuSans-53" d="M 3425 4513 
L 3425 3897 
Q 3066 4069 2747 4153 
Q 2428 4238 2131 4238 
Q 1616 4238 1336 4038 
Q 1056 3838 1056 3469 
Q 1056 3159 1242 3001 
Q 1428 2844 1947 2747 
L 2328 2669 
Q 3034 2534 3370 2195 
Q 3706 1856 3706 1288 
Q 3706 609 3251 259 
Q 2797 -91 1919 -91 
Q 1588 -91 1214 -16 
Q 841 59 441 206 
L 441 856 
Q 825 641 1194 531 
Q 1563 422 1919 422 
Q 2459 422 2753 634 
Q 3047 847 3047 1241 
Q 3047 1584 2836 1778 
Q 2625 1972 2144 2069 
L 1759 2144 
Q 1053 2284 737 2584 
Q 422 2884 422 3419 
Q 422 4038 858 4394 
Q 1294 4750 2059 4750 
Q 2388 4750 2728 4690 
Q 3069 4631 3425 4513 
z
" transform="scale(0.015625)"/>
       <path id="DejaVuSans-64" d="M 2906 2969 
L 2906 4863 
L 3481 4863 
L 3481 0 
L 2906 0 
L 2906 525 
Q 2725 213 2448 61 
Q 2172 -91 1784 -91 
Q 1150 -91 751 415 
Q 353 922 353 1747 
Q 353 2572 751 3078 
Q 1150 3584 1784 3584 
Q 2172 3584 2448 3432 
Q 2725 3281 2906 2969 
z
M 947 1747 
Q 947 1113 1208 752 
Q 1469 391 1925 391 
Q 2381 391 2643 752 
Q 2906 1113 2906 1747 
Q 2906 2381 2643 2742 
Q 2381 3103 1925 3103 
Q 1469 3103 1208 2742 
Q 947 2381 947 1747 
z
" transform="scale(0.015625)"/>
       <path id="DejaVuSans-44" d="M 1259 4147 
L 1259 519 
L 2022 519 
Q 2988 519 3436 956 
Q 3884 1394 3884 2338 
Q 3884 3275 3436 3711 
Q 2988 4147 2022 4147 
L 1259 4147 
z
M 628 4666 
L 1925 4666 
Q 3281 4666 3915 4102 
Q 4550 3538 4550 2338 
Q 4550 1131 3912 565 
Q 3275 0 1925 0 
L 628 0 
L 628 4666 
z
" transform="scale(0.015625)"/>
       <path id="DejaVuSans-76" d="M 191 3500 
L 800 3500 
L 1894 563 
L 2988 3500 
L 3597 3500 
L 2284 0 
L 1503 0 
L 191 3500 
z
" transform="scale(0.015625)"/>
      </defs>
      <use xlink:href="#DejaVuSans-75"/>
      <use xlink:href="#DejaVuSans-73" x="63.378906"/>
      <use xlink:href="#DejaVuSans-65" x="115.478516"/>
      <use xlink:href="#DejaVuSans-4f" x="177.001953"/>
      <use xlink:href="#DejaVuSans-66" x="255.712891"/>
      <use xlink:href="#DejaVuSans-50" x="290.917969"/>
      <use xlink:href="#DejaVuSans-61" x="346.720703"/>
      <use xlink:href="#DejaVuSans-67" x="408"/>
      <use xlink:href="#DejaVuSans-65" x="471.476562"/>
      <use xlink:href="#DejaVuSans-53" x="533"/>
      <use xlink:href="#DejaVuSans-74" x="596.476562"/>
      <use xlink:href="#DejaVuSans-64" x="635.685547"/>
      <use xlink:href="#DejaVuSans-44" x="699.162109"/>
      <use xlink:href="#DejaVuSans-65" x="776.164062"/>
      <use xlink:href="#DejaVuSans-76" x="837.6875"/>
     </g>
    </g>
   </g>
   <g id="line2d_31">
    <path d="M 73.832727 295.488 
L 73.834756 295.488 
L 73.834756 295.488 
L 73.840864 103.459177 
L 73.945304 194.717558 
L 73.946762 194.717558 
L 73.946762 194.717558 
L 74.057055 211.873249 
L 74.057761 211.850735 
L 74.061609 211.833519 
L 74.061609 211.833519 
L 74.171843 217.150901 
L 74.175644 217.233687 
L 74.175644 217.233687 
L 74.286432 221.512503 
L 74.288867 221.569474 
L 74.288867 221.582539 
L 74.411049 225.127688 
L 74.414735 225.135525 
L 74.513903 224.57117 
L 74.462151 225.644475 
L 74.525053 224.739204 
L 74.527752 224.826613 
L 74.528204 224.617586 
L 74.529111 224.617586 
L 74.534793 224.453172 
L 74.633651 226.041761 
L 74.639341 226.00973 
L 74.64761 225.947467 
L 74.64761 225.947467 
L 74.650969 225.862677 
L 74.757587 227.918052 
L 74.780313 228.303258 
L 74.926002 230.292356 
L 74.929607 229.996312 
L 74.932901 229.93674 
L 74.947595 230.213259 
L 75.016266 230.527389 
L 75.038819 229.847993 
L 75.050704 229.911064 
L 75.052211 229.826657 
L 75.087517 230.314923 
L 75.118041 230.295549 
L 75.221878 230.919971 
L 75.228711 230.864053 
L 75.260396 230.9661 
L 75.260396 230.966313 
L 75.300188 230.936621 
L 75.371996 231.943953 
L 75.374837 231.939667 
L 75.394484 232.095183 
L 75.43753 232.656841 
L 75.505436 232.332225 
L 75.629285 232.432571 
L 75.629285 232.442153 
L 75.653714 232.302345 
L 75.749494 232.733323 
L 75.780826 232.841693 
L 75.823099 233.034411 
L 75.880706 232.213919 
L 75.891065 232.280957 
L 76.066458 233.240654 
L 75.895843 232.274165 
L 76.095591 232.818307 
L 76.17711 232.555894 
L 76.12296 232.860698 
L 76.207982 232.654859 
L 76.252622 232.76566 
L 76.252622 232.76566 
L 76.357729 233.11637 
L 76.363412 233.09997 
L 76.387841 233.21035 
L 76.485318 233.570601 
L 76.393083 233.208628 
L 76.499558 233.552814 
L 76.537506 233.652998 
L 76.537506 233.652998 
L 76.618349 233.895329 
L 76.648165 233.70785 
L 76.661019 233.628457 
L 76.653198 233.741756 
L 76.68076 233.805016 
L 76.727023 233.968664 
L 76.75973 233.497609 
L 76.791776 233.623208 
L 76.80494 233.730506 
L 76.80494 233.730506 
L 76.866748 233.848986 
L 76.889748 233.552224 
L 76.914783 233.677013 
L 76.954545 233.782842 
L 77.021695 234.020722 
L 76.960947 233.777261 
L 77.081063 233.910521 
L 77.108492 234.018845 
L 77.108492 234.021242 
L 77.132406 234.13431 
L 77.171855 233.89243 
L 77.217023 233.907062 
L 77.292734 234.01797 
L 77.292734 234.01797 
L 77.347706 234.221253 
L 77.297157 233.998762 
L 77.402711 234.08118 
L 77.426248 234.179481 
L 77.426248 234.179481 
L 77.517018 234.331273 
L 77.432426 234.176168 
L 77.537078 234.316029 
L 77.762266 234.55586 
L 77.762266 234.55586 
L 77.848384 234.759904 
L 77.873192 234.732242 
L 77.928651 234.775115 
L 77.876449 234.713273 
L 77.940032 234.674053 
L 77.94813 234.536149 
L 78.05005 234.81912 
L 78.098689 234.929525 
L 78.098689 234.929525 
L 78.169718 235.245903 
L 78.209093 235.189249 
L 78.248732 235.303177 
L 78.283983 235.390191 
L 78.305718 235.233585 
L 78.359632 235.260803 
L 78.371495 235.152056 
L 78.426184 235.026037 
L 78.477318 235.204266 
L 78.481782 235.188818 
L 78.864062 235.296237 
L 78.864062 235.297702 
L 78.97082 235.525149 
L 79.004319 235.486879 
L 79.038564 235.388807 
L 79.038564 235.388807 
L 79.112017 235.153043 
L 79.149114 235.210292 
L 79.21907 235.099284 
L 79.21907 235.099284 
L 79.310153 234.627457 
L 79.329942 234.655599 
L 79.419049 234.715274 
L 79.347323 234.639717 
L 79.439059 234.631305 
L 79.523517 234.479619 
L 79.472245 234.658085 
L 79.551334 234.524431 
L 79.688557 234.632452 
L 79.762024 234.697137 
L 79.706947 234.598852 
L 79.810612 234.686386 
L 79.895652 234.795753 
L 79.895652 234.795753 
L 79.980874 234.863411 
L 79.906446 234.789611 
L 80.00633 234.831798 
L 80.0798 234.941649 
L 80.082283 234.953591 
L 80.149289 234.686536 
L 80.190312 234.759242 
L 80.406586 234.653053 
L 80.511279 234.570003 
L 80.423545 234.659286 
L 80.517366 234.577863 
L 80.627343 234.471447 
L 80.627343 234.471447 
L 80.697144 234.242634 
L 80.737742 234.308833 
L 80.75477 234.232272 
L 80.75477 234.212126 
L 80.887698 233.807779 
L 80.96415 233.69295 
L 81.01287 233.805265 
L 81.085917 233.896345 
L 81.02408 233.787537 
L 81.123287 233.818077 
L 81.378918 234.156238 
L 81.448957 233.99197 
L 81.530694 233.837577 
L 81.560786 233.897198 
L 81.628883 234.005399 
L 81.744595 234.145448 
L 81.751865 234.097021 
L 81.759844 234.113331 
L 81.780273 233.993422 
L 81.792935 233.928411 
L 81.891061 233.99978 
L 82.00297 233.898883 
L 82.011739 233.868151 
L 82.113564 233.984126 
L 82.283332 234.092571 
L 82.283332 234.09463 
L 82.46275 234.289755 
L 82.291863 234.083876 
L 82.487298 234.240599 
L 82.833598 234.137388 
L 82.926228 234.062017 
L 82.856503 234.16537 
L 82.95187 234.084864 
L 82.985431 234.056793 
L 83.061349 234.172457 
L 83.195361 234.282938 
L 83.195361 234.282938 
L 83.198586 234.266136 
L 83.30582 234.357334 
L 83.416532 234.270103 
L 83.416532 234.260185 
L 83.422619 234.231272 
L 83.485508 234.267288 
L 83.527485 234.254251 
L 83.677426 234.330233 
L 83.685563 234.318601 
L 83.958705 234.42874 
L 83.958705 234.42874 
L 84.045201 234.549537 
L 84.069493 234.532963 
L 84.177847 234.423327 
L 84.177847 234.423327 
L 84.178714 234.421377 
L 84.244247 234.51008 
L 84.288828 234.469392 
L 84.768313 234.577109 
L 84.768313 234.580422 
L 84.879525 234.570066 
L 84.8888 234.532661 
L 84.998742 234.451281 
L 85.008252 234.473143 
L 85.068743 234.451415 
L 85.044256 234.414844 
L 85.094937 234.403676 
L 85.164164 234.397552 
L 85.198441 234.451038 
L 85.200103 234.447833 
L 85.28638 234.34339 
L 85.360993 234.321889 
L 85.308997 234.365401 
L 85.397559 234.342121 
L 85.617707 234.452911 
L 85.672157 234.509567 
L 85.704951 234.397631 
L 85.7276 234.4204 
L 86.0369 234.427154 
L 86.0369 234.427154 
L 86.060191 234.461834 
L 86.094132 234.383426 
L 86.14771 234.399543 
L 86.272681 234.328115 
L 86.230847 234.424496 
L 86.272829 234.330298 
L 86.524871 234.441192 
L 86.849755 234.619386 
L 86.858208 234.606172 
L 87.265312 234.712032 
L 87.265312 234.715853 
L 87.282213 234.720171 
L 87.313969 234.610059 
L 87.402479 234.513117 
L 87.321315 234.615214 
L 87.433004 234.529544 
L 87.498395 234.598115 
L 87.512025 234.502862 
L 87.546139 234.529877 
L 87.612886 234.42215 
L 87.639477 234.392219 
L 87.690204 234.446474 
L 87.723888 234.420878 
L 87.914017 234.285973 
L 87.736754 234.433308 
L 87.91472 234.288067 
L 87.920147 234.296062 
L 88.009583 234.173774 
L 88.010733 234.176863 
L 88.299743 234.282939 
L 88.299743 234.282939 
L 88.351199 234.306846 
L 88.410211 234.195837 
L 89.080363 233.741822 
L 89.087031 233.710267 
L 89.170223 233.76938 
L 89.190528 233.74908 
L 89.70899 233.85649 
L 89.714832 233.814017 
L 89.729268 233.788507 
L 89.82562 233.871104 
L 89.996064 233.982007 
L 89.996064 233.982007 
L 90.094585 234.064471 
L 90.106833 234.053806 
L 90.263714 234.085857 
L 90.265527 234.090452 
L 90.317605 234.107974 
L 90.355569 234.032523 
L 90.364263 234.038628 
L 91.988631 234.147891 
L 91.988631 234.147891 
L 92.098939 234.188868 
L 93.715283 234.296879 
L 93.769462 234.330758 
L 93.826177 234.327037 
L 93.838189 234.336984 
L 93.910395 234.243458 
L 93.91417 234.248564 
L 93.963749 234.138497 
L 93.963749 234.138497 
L 94.014117 234.096802 
L 94.071143 234.142519 
L 94.074687 234.142327 
L 94.242546 234.236298 
L 94.242546 234.237052 
L 94.340402 234.295352 
L 94.358455 234.289945 
L 97.878586 234.433511 
L 98.519928 234.418186 
L 98.519933 234.418222 
L 98.670167 234.385298 
L 98.670167 234.385016 
L 100.936976 234.495928 
L 100.974073 234.487641 
L 101.047551 234.505051 
L 102.914825 234.615778 
L 102.92462 234.62086 
L 102.981738 234.582974 
L 103.025554 234.594231 
L 104.369336 234.488767 
L 104.369336 234.488476 
L 104.428211 234.427255 
L 104.4854 234.448656 
L 105.150275 234.3859 
L 105.150282 234.382142 
L 105.577457 234.334652 
L 105.577457 234.335643 
L 110.874993 234.226062 
L 110.876226 234.222263 
L 110.917593 234.231709 
L 110.985574 234.225918 
L 112.625709 234.336083 
L 112.625709 234.336913 
L 112.951975 234.348197 
L 113.025034 234.296444 
L 113.063181 234.297447 
L 113.215768 234.303796 
L 113.215768 234.303796 
L 113.237351 234.309977 
L 113.285073 234.28067 
L 113.326601 234.285757 
L 116.789752 234.17619 
L 116.816281 234.166861 
L 116.891931 234.187387 
L 116.899787 234.184395 
L 117.948674 234.058357 
L 118.058719 234.005621 
L 118.063786 234.009216 
L 121.518405 234.119841 
L 121.518405 234.119841 
L 121.62569 234.149884 
L 121.629382 234.147801 
L 123.639199 234.037365 
L 123.656199 234.032131 
L 123.697275 234.048609 
L 123.749481 234.047148 
L 125.015747 234.158169 
L 125.015747 234.158169 
L 125.020422 234.160732 
L 125.123254 234.130276 
L 125.126129 234.13091 
L 130.839283 234.022694 
L 130.945824 233.999254 
L 130.874939 234.027545 
L 130.95033 234.001226 
L 131.610699 234.017109 
L 131.610699 234.017109 
L 131.679578 234.010645 
L 131.666872 234.022322 
L 131.721488 234.017891 
L 140.572271 234.128856 
L 140.699788 234.14005 
L 140.700217 234.139348 
L 140.728625 234.122686 
L 140.8106 234.134579 
L 141.683109 234.253129 
L 141.683109 234.253129 
L 141.723285 234.257114 
L 141.748419 234.246051 
L 141.793086 234.246548 
L 145.496989 234.136443 
L 145.496989 234.136443 
L 145.534777 234.118767 
L 145.607576 234.129247 
L 152.415561 234.019717 
L 152.532674 233.990593 
L 154.736484 233.880017 
L 154.846487 233.875603 
L 154.805935 233.887449 
L 154.847116 233.876138 
L 159.727594 233.766674 
L 159.8279 233.753562 
L 159.838717 233.75421 
L 161.153865 233.708067 
L 161.153865 233.708067 
L 161.214447 233.686946 
L 161.264194 233.688683 
L 169.502764 233.5788 
L 169.502764 233.577904 
L 169.652917 233.568301 
L 169.652917 233.568917 
L 177.769553 233.679812 
L 177.776181 233.678566 
L 177.880071 233.688393 
L 185.820466 233.799379 
L 185.973337 233.808834 
L 193.237622 233.919748 
L 193.374213 233.932607 
L 199.05364 234.043387 
L 199.05364 234.043387 
L 199.055668 234.04379 
L 199.161127 234.033533 
L 199.164045 234.034153 
L 228.328476 234.14481 
L 228.331443 234.145312 
L 228.355717 234.138757 
L 228.438954 234.141712 
L 275.055129 234.030621 
L 275.165716 234.02346 
L 305.862075 234.13456 
L 305.965333 234.141522 
L 305.862816 234.134256 
L 305.973771 234.139647 
L 347.781345 234.02856 
L 347.892914 234.022205 
L 398.487273 233.980059 
L 398.487273 233.980059 
" clip-path="url(#p6c84ba8193)" style="fill: none; stroke: #1f77b4; stroke-width: 1.5; stroke-linecap: square"/>
   </g>
   <g id="line2d_32">
    <path d="M 73.832727 295.488 
L 73.834756 295.488 
L 73.834756 295.488 
L 73.852432 90.448362 
L 73.945545 153.587851 
L 74.217802 193.050947 
L 74.21866 192.979472 
L 74.251608 192.607872 
L 74.28895 195.191361 
L 74.44389 202.533083 
L 74.448541 202.599673 
L 74.633001 208.326138 
L 74.633001 208.306413 
L 74.639159 208.222766 
L 74.646727 208.462787 
L 74.758151 210.635154 
L 74.758169 210.623362 
L 74.760834 210.713689 
L 74.760834 210.730907 
L 74.92904 214.712964 
L 74.95823 214.67247 
L 74.972671 214.748201 
L 74.972671 214.777152 
L 75.118765 216.895719 
L 75.118765 216.895719 
L 75.229658 218.444285 
L 75.232078 218.528174 
L 75.359931 219.629697 
L 75.244105 218.507154 
L 75.370373 219.427915 
L 75.376426 219.338481 
L 75.453565 220.136685 
L 75.461716 220.25874 
L 75.508174 219.779305 
L 75.564354 220.141665 
L 75.57119 220.239688 
L 75.682447 220.908259 
L 75.682447 220.907374 
L 75.692004 221.017831 
L 75.813766 221.687126 
L 75.822048 221.600349 
L 75.835203 221.700134 
L 75.946074 222.652001 
L 75.953862 222.759615 
L 76.044225 223.53316 
L 76.063916 223.424693 
L 76.094353 223.523695 
L 76.094353 223.523695 
L 76.171864 224.01895 
L 76.204659 223.924528 
L 76.227867 224.046781 
L 76.30769 224.540809 
L 76.243612 224.042164 
L 76.354482 224.385382 
L 76.3906 224.496314 
L 76.3906 224.496384 
L 76.407238 224.434897 
L 76.536488 224.676893 
L 76.647077 225.207534 
L 76.647583 225.196336 
L 76.663008 225.297514 
L 76.768386 225.898553 
L 76.774221 225.843296 
L 76.785461 225.757751 
L 76.785461 225.73504 
L 76.791143 225.647532 
L 76.869502 225.976537 
L 76.907148 226.220549 
L 76.929416 225.951875 
L 76.98099 226.042629 
L 77.178699 226.385372 
L 77.000624 226.021966 
L 77.178699 226.385372 
L 77.289487 226.862686 
L 77.328738 226.866591 
L 77.346394 226.72703 
L 77.350766 226.727036 
L 77.356853 226.656037 
L 77.432335 226.998243 
L 77.461831 226.892621 
L 77.506194 227.001666 
L 77.506194 227.001666 
L 77.616983 227.387424 
L 77.65513 227.508437 
L 77.65513 227.508437 
L 77.683537 227.491718 
L 77.766149 227.736631 
L 77.864126 227.982631 
L 77.767255 227.731483 
L 77.864126 227.982631 
L 77.937708 228.092043 
L 77.967681 227.962901 
L 77.974821 227.987476 
L 78.147727 228.088959 
L 78.258987 228.435962 
L 78.380726 228.696573 
L 78.38195 228.688316 
L 78.385207 228.674772 
L 78.433297 228.824478 
L 78.475728 228.773492 
L 78.556314 228.953527 
L 78.51373 228.761404 
L 78.586408 228.86366 
L 78.62747 228.974301 
L 78.62747 228.974301 
L 78.700112 229.080347 
L 78.637135 228.940554 
L 78.738259 229.020129 
L 78.804394 229.125385 
L 78.917047 229.44429 
L 78.920877 229.435699 
L 78.930929 229.428215 
L 78.976517 229.547226 
L 78.979259 229.560275 
L 79.019491 229.385418 
L 79.083204 229.508499 
L 79.128656 229.617467 
L 79.128656 229.617467 
L 79.236794 229.740952 
L 79.156443 229.605372 
L 79.238797 229.724681 
L 79.29865 229.802356 
L 79.300317 229.817358 
L 79.504039 230.206759 
L 79.306608 229.803256 
L 79.504054 230.206429 
L 79.566632 230.090915 
L 79.615146 230.180278 
L 79.711524 230.250395 
L 79.715469 230.272072 
L 79.732815 230.253511 
L 79.825962 230.356159 
L 79.861158 230.467058 
L 79.861158 230.467058 
L 79.929335 230.597142 
L 79.948815 230.452388 
L 79.970875 230.50575 
L 80.018413 230.614421 
L 80.126151 230.799009 
L 80.024201 230.612547 
L 80.138735 230.793885 
L 80.186218 230.901771 
L 80.186218 230.901771 
L 80.19474 230.918439 
L 80.28889 230.64086 
L 80.297007 230.647498 
L 80.448822 230.757302 
L 80.681529 230.974315 
L 80.453653 230.751266 
L 80.687987 230.923771 
L 80.755581 230.781203 
L 80.802727 230.890889 
L 80.91176 230.964635 
L 80.823219 230.844806 
L 80.91389 230.96253 
L 81.016928 230.869874 
L 81.016928 230.859888 
L 81.097148 230.802196 
L 81.126026 230.876261 
L 81.209664 230.77383 
L 81.315866 230.707465 
L 81.271303 230.820133 
L 81.320777 230.724054 
L 81.360892 230.611677 
L 81.42612 230.727098 
L 81.43215 230.7134 
L 81.450583 230.751869 
L 81.501049 230.693566 
L 81.542754 230.713866 
L 81.608277 230.64435 
L 81.559102 230.625232 
L 81.608913 230.624335 
L 81.610683 230.599919 
L 81.719345 230.662048 
L 81.793035 230.772893 
L 81.796377 230.782683 
L 81.880176 230.686849 
L 81.889843 230.697278 
L 81.935295 230.596489 
L 81.935295 230.596339 
L 81.988863 230.480874 
L 82.04642 230.573785 
L 82.081082 230.46333 
L 82.084384 230.435238 
L 82.18643 230.626381 
L 82.261573 230.735777 
L 82.261573 230.735777 
L 82.337867 230.781427 
L 82.37216 230.71663 
L 82.689711 230.614141 
L 82.689711 230.614023 
L 82.772904 230.535347 
L 82.800207 230.571861 
L 83.066716 230.68184 
L 83.066716 230.68184 
L 83.169394 230.820828 
L 83.177505 230.81623 
L 83.378791 230.926939 
L 83.378791 230.926939 
L 83.484534 230.962933 
L 83.447547 230.920539 
L 83.489854 230.952485 
L 83.555772 230.988536 
L 83.513725 230.914174 
L 83.600088 230.938101 
L 83.845076 231.047201 
L 83.845076 231.047201 
L 83.955336 231.105003 
L 84.071705 231.209646 
L 83.956753 231.090584 
L 84.123304 231.112066 
L 84.400235 231.105948 
L 84.400235 231.106363 
L 84.624077 231.217546 
L 84.694011 231.268348 
L 84.726513 231.201856 
L 84.735052 231.218648 
L 85.75648 231.328683 
L 85.75648 231.329722 
L 85.872684 231.387327 
L 85.889588 231.368979 
L 86.055568 231.424282 
L 86.055568 231.425677 
L 86.067737 231.420887 
L 86.176233 231.46674 
L 86.796998 231.577606 
L 86.796998 231.577606 
L 86.906986 231.647808 
L 86.90751 231.644684 
L 87.142306 231.755306 
L 87.254244 231.87257 
L 87.568053 231.981721 
L 87.568053 231.981721 
L 87.650458 232.047369 
L 87.678841 232.029377 
L 88.145573 232.139523 
L 88.249979 232.226814 
L 88.25654 232.224812 
L 88.496971 232.114211 
L 88.496971 232.114211 
L 88.509145 232.098294 
L 88.58374 232.135857 
L 88.608004 232.102335 
L 89.479301 232.21287 
L 89.494066 232.219988 
L 89.5866 232.160584 
L 89.58984 232.163534 
L 90.123826 232.274572 
L 90.188422 232.249904 
L 90.234451 232.292397 
L 90.635227 232.402358 
L 90.635227 232.402463 
L 90.74769 232.480936 
L 90.644338 232.40151 
L 90.749262 232.476786 
L 91.041046 232.586639 
L 91.041046 232.586639 
L 91.152006 232.691199 
L 91.824856 232.801772 
L 91.861204 232.78787 
L 91.935908 232.839991 
L 93.685717 232.884809 
L 93.685723 232.877887 
L 93.770114 232.860906 
L 93.715707 232.888027 
L 93.799918 232.875103 
L 94.473804 232.984403 
L 94.580399 233.027407 
L 94.584599 233.014954 
L 95.039979 233.125338 
L 95.039979 233.125338 
L 95.120754 233.16689 
L 95.15076 233.163805 
L 95.597121 233.053774 
L 95.615835 233.037122 
L 95.690506 233.08339 
L 95.703492 233.080042 
L 96.781345 232.969649 
L 96.781345 232.969649 
L 96.791709 232.957989 
L 96.883206 232.994914 
L 96.890479 232.972475 
L 98.257306 232.875572 
L 98.257306 232.871947 
L 98.354571 232.828963 
L 98.369885 232.838311 
L 98.846438 232.907121 
L 98.907601 232.917062 
L 98.956825 232.904535 
L 99.300259 233.014557 
L 99.300259 233.015164 
L 99.434179 233.052852 
L 100.088764 233.112861 
L 100.088764 233.112861 
L 100.088764 233.112705 
L 100.186855 233.152705 
L 100.199385 233.123819 
L 100.863066 233.234555 
L 100.863066 233.234668 
L 100.865644 233.226709 
L 101.014413 233.268324 
L 102.10771 233.379288 
L 102.10771 233.379288 
L 102.108846 233.380641 
L 102.175174 233.353779 
L 102.218093 233.358339 
L 102.959117 233.249658 
L 103.041092 233.238413 
L 103.07014 233.26204 
L 106.67035 233.155008 
L 106.744959 233.099018 
L 106.781114 233.11288 
L 107.20421 233.223552 
L 107.227281 233.235 
L 107.256617 233.210414 
L 107.314647 233.216719 
L 107.624388 233.217824 
L 107.624426 233.215818 
L 107.751831 233.206939 
L 107.753477 233.208085 
L 110.069402 233.317778 
L 110.175378 233.357599 
L 110.179634 233.357135 
L 111.659861 233.48906 
L 111.659861 233.48906 
L 111.72685 233.529539 
L 111.770966 233.527679 
L 117.637564 233.638413 
L 117.637564 233.638413 
L 117.748107 233.656657 
L 119.942827 233.767654 
L 120.009566 233.774165 
L 120.026069 233.761466 
L 120.052183 233.761795 
L 125.484526 233.650902 
L 126.26298 233.632301 
L 131.573822 233.521542 
L 131.601888 233.518761 
L 131.683341 233.536853 
L 131.684501 233.536819 
L 132.535313 233.553364 
L 132.544043 233.556386 
L 132.596456 233.540967 
L 132.645543 233.548497 
L 137.235341 233.437651 
L 137.235341 233.437651 
L 137.262547 233.435088 
L 137.321878 233.445531 
L 137.346352 233.444139 
L 150.304313 233.555082 
L 150.304313 233.555082 
L 150.400089 233.575296 
L 150.307218 233.554934 
L 150.41488 233.575283 
L 151.749424 233.539046 
L 151.749432 233.538866 
L 152.759046 233.577855 
L 152.776704 233.574786 
L 152.869792 233.590723 
L 162.554749 233.701537 
L 162.554749 233.701537 
L 162.563677 233.702366 
L 162.627797 233.69237 
L 162.665729 233.698906 
L 172.155086 233.587905 
L 172.259894 233.578008 
L 172.265182 233.578837 
L 178.564281 233.689838 
L 178.564281 233.689838 
L 178.603442 233.691295 
L 178.675292 233.68701 
L 191.400313 233.797675 
L 191.400313 233.797675 
L 191.470483 233.803438 
L 191.494406 233.789992 
L 191.510545 233.791552 
L 206.792189 233.902329 
L 206.792189 233.902329 
L 206.886343 233.910101 
L 206.902571 233.907842 
L 215.23427 234.018939 
L 216.193781 234.012994 
L 216.193781 234.012368 
L 216.346305 234.002126 
L 216.712974 233.989357 
L 253.93923 233.87884 
L 254.096042 233.869599 
L 254.09605 233.869787 
L 289.081947 233.758865 
L 289.093344 233.75779 
L 289.169012 233.763768 
L 289.192806 233.763533 
L 319.557321 233.874534 
L 319.557321 233.874534 
L 319.609092 233.876156 
L 319.66691 233.873977 
L 319.668109 233.874251 
L 337.660855 233.9853 
L 337.771314 233.990299 
L 340.026247 233.987354 
L 340.02625 233.987052 
L 342.423558 233.973226 
L 342.423558 233.973302 
L 346.104169 233.974058 
L 346.717521 233.967197 
L 346.717521 233.967227 
L 349.010517 233.933034 
L 349.046837 233.932753 
L 349.107818 233.937267 
L 349.121183 233.937063 
L 367.426459 233.971341 
L 367.477408 233.966919 
L 367.537622 233.96918 
L 369.393835 233.960754 
L 369.393835 233.960568 
L 371.615128 233.965187 
L 398.486542 233.95538 
L 398.486542 233.95538 
" clip-path="url(#p6c84ba8193)" style="fill: none; stroke: #ff7f0e; stroke-width: 1.5; stroke-linecap: square"/>
   </g>
   <g id="line2d_33">
    <path d="M 73.832727 295.488 
L 73.835162 295.488 
L 73.835162 295.488 
L 73.843684 53.568 
L 73.94611 180.911379 
L 73.946581 180.915383 
L 74.057843 204.09871 
L 74.058768 204.100435 
L 74.058768 204.100435 
L 74.112483 210.985443 
L 74.16758 209.813705 
L 74.170663 209.789492 
L 74.177325 210.019204 
L 74.294708 215.24972 
L 74.301473 215.164178 
L 74.4411 220.751021 
L 74.542006 221.853318 
L 74.558736 221.290394 
L 74.561126 221.264864 
L 74.61839 222.820932 
L 74.623941 222.923601 
L 74.691402 222.847929 
L 74.739069 223.795264 
L 74.807503 224.513756 
L 74.762469 223.645581 
L 74.807503 224.513756 
L 74.867535 225.230002 
L 74.894675 224.427257 
L 74.918447 224.694116 
L 75.0543 226.426284 
L 75.061941 226.530814 
L 75.116736 227.228826 
L 75.146262 226.402758 
L 75.172739 226.68174 
L 75.17635 226.710148 
L 75.195871 226.384206 
L 75.205911 226.177907 
L 75.289463 226.823127 
L 75.29532 226.90261 
L 75.387597 227.53452 
L 75.40597 227.410517 
L 75.425932 227.341691 
L 75.533106 226.845399 
L 75.477103 227.562013 
L 75.536186 226.885596 
L 75.586492 226.995096 
L 75.652153 227.486779 
L 75.675389 226.92076 
L 75.694719 226.964426 
L 75.705736 227.071515 
L 75.743552 226.909279 
L 75.828539 227.549032 
L 75.83747 227.651249 
L 75.83747 227.659181 
L 75.866973 227.843231 
L 75.929927 227.549041 
L 75.93933 227.577261 
L 75.957279 227.688277 
L 76.031984 228.03618 
L 75.960791 227.660901 
L 76.068819 227.828418 
L 76.108622 227.72028 
L 76.114024 227.693037 
L 76.187761 228.351235 
L 76.262612 228.472153 
L 76.234794 228.17403 
L 76.298479 228.346591 
L 76.436165 228.677412 
L 76.316824 228.324425 
L 76.47179 228.608518 
L 76.494769 228.715049 
L 76.524889 228.740076 
L 76.543694 228.496601 
L 76.544405 228.496601 
L 76.579091 228.407701 
L 76.641758 228.565713 
L 76.654788 228.471048 
L 76.67424 228.581194 
L 76.784202 228.628135 
L 76.749343 228.518287 
L 76.784736 228.618822 
L 76.791698 228.589134 
L 76.812716 228.73355 
L 76.81468 228.73355 
L 76.919606 229.135245 
L 76.819083 228.731199 
L 76.925354 229.133548 
L 77.056548 229.029596 
L 77.056548 229.025216 
L 77.069632 228.985509 
L 77.133247 229.290801 
L 77.241796 229.659668 
L 77.168379 229.177749 
L 77.299781 229.494549 
L 77.407175 229.156306 
L 77.410827 229.173096 
L 77.41245 229.165929 
L 77.486309 229.462579 
L 77.504096 229.405564 
L 77.533834 229.511578 
L 77.67539 229.776978 
L 77.58223 229.4967 
L 77.68462 229.772718 
L 77.732235 229.883029 
L 77.732235 229.883029 
L 77.747656 229.872736 
L 77.842985 230.030541 
L 77.882476 230.136149 
L 77.898519 230.120638 
L 77.993176 230.333587 
L 78.025236 230.240257 
L 78.025236 230.229766 
L 78.103153 229.970746 
L 78.035619 230.231004 
L 78.144141 230.153317 
L 78.210289 230.263756 
L 78.210289 230.263756 
L 78.301192 230.358786 
L 78.321077 230.14812 
L 78.33628 230.042784 
L 78.342992 229.963174 
L 78.435518 230.187454 
L 78.452981 230.20512 
L 78.480252 230.044031 
L 78.589912 229.833263 
L 78.48391 230.045735 
L 78.590947 229.841643 
L 78.592825 229.845079 
L 78.601733 229.706592 
L 78.601904 229.706592 
L 78.617325 229.655412 
L 78.712949 229.946435 
L 78.878139 230.056496 
L 78.962435 230.166315 
L 78.885165 230.029333 
L 78.998388 230.106896 
L 79.013403 229.998057 
L 79.07506 230.158739 
L 79.109988 230.095383 
L 79.220364 230.275952 
L 79.295041 230.215298 
L 79.384727 230.110615 
L 79.407885 230.195402 
L 79.493098 230.267107 
L 79.454414 230.154201 
L 79.518241 230.210041 
L 79.658021 230.110054 
L 79.524329 230.218118 
L 79.685856 230.180707 
L 79.799664 230.349865 
L 79.814083 230.302419 
L 79.894435 230.409671 
L 79.894435 230.409671 
L 79.95687 230.501165 
L 80.005127 230.45241 
L 80.083546 230.34342 
L 80.083546 230.342295 
L 80.087042 230.339217 
L 80.137926 230.44993 
L 80.142796 230.446604 
L 80.227496 230.520384 
L 80.168585 230.389682 
L 80.253677 230.480444 
L 80.321884 230.525483 
L 80.268093 230.456006 
L 80.354659 230.426643 
L 80.412665 230.352623 
L 80.465699 230.424067 
L 80.52183 230.534773 
L 80.52183 230.534773 
L 80.57134 230.608371 
L 80.622473 230.509126 
L 80.631984 230.545468 
L 81.10475 231.050323 
L 80.656156 230.511884 
L 81.121181 230.97194 
L 81.223629 230.877111 
L 81.181328 230.986523 
L 81.233183 230.927311 
L 81.409355 231.038056 
L 81.409355 231.038056 
L 81.504316 231.184995 
L 81.519559 231.144056 
L 82.052772 231.509717 
L 81.526047 231.115712 
L 82.072867 231.428722 
L 82.158912 231.496913 
L 82.160118 231.503377 
L 82.259644 231.463976 
L 82.263196 231.429782 
L 82.312769 231.417849 
L 82.268066 231.43499 
L 82.362216 231.483894 
L 82.689522 231.683569 
L 82.690523 231.677921 
L 82.717713 231.57914 
L 82.799466 231.703579 
L 82.801311 231.700256 
L 83.037498 231.811108 
L 83.037498 231.811108 
L 83.095836 231.963888 
L 83.147647 231.893235 
L 83.264168 231.829869 
L 83.180572 231.928364 
L 83.291135 231.864114 
L 83.392805 231.961046 
L 83.322788 231.85175 
L 83.401991 231.940048 
L 83.7282 232.023689 
L 83.7282 232.024995 
L 83.866491 232.233359 
L 83.87596 232.227652 
L 83.880084 232.219548 
L 83.981025 232.294449 
L 84.18816 232.405048 
L 84.253569 232.481585 
L 84.18921 232.403002 
L 84.302649 232.457437 
L 84.603443 232.508686 
L 84.603451 232.510576 
L 85.067034 232.621396 
L 85.107191 232.651783 
L 85.12332 232.597989 
L 85.176814 232.624938 
L 85.517893 232.513884 
L 85.570197 232.481988 
L 85.556413 232.538458 
L 85.62743 232.533075 
L 85.787615 232.6588 
L 85.862192 232.725317 
L 85.898922 232.713095 
L 85.998754 232.788948 
L 85.998754 232.790392 
L 86.339021 232.772954 
L 86.339035 232.767508 
L 86.970688 232.878103 
L 86.970688 232.878103 
L 87.070151 232.97659 
L 86.971178 232.87693 
L 87.081477 232.96589 
L 87.349315 232.861196 
L 87.37853 232.826539 
L 87.441702 232.902738 
L 87.460271 232.857207 
L 87.903036 232.87104 
L 87.462946 232.842223 
L 87.903052 232.858816 
L 88.01882 232.789056 
L 88.024389 232.796027 
L 88.279452 232.955073 
L 88.279452 232.955073 
L 88.293978 232.965689 
L 88.365892 232.925991 
L 88.390232 232.936856 
L 90.361107 233.047772 
L 90.431132 233.063298 
L 90.379562 233.0288 
L 90.478582 233.019251 
L 90.867356 233.129753 
L 90.867356 233.129753 
L 90.940809 233.155951 
L 90.978023 233.113764 
L 91.029492 233.070991 
L 91.096643 233.109972 
L 91.18892 233.135151 
L 91.121398 233.104604 
L 91.207484 233.128526 
L 91.64328 233.238721 
L 91.64328 233.239361 
L 91.791951 233.287421 
L 91.795868 233.278234 
L 92.019887 233.360833 
L 92.161981 233.425973 
L 92.027662 233.347307 
L 92.165917 233.423863 
L 93.56978 233.534177 
L 93.656394 233.551433 
L 93.674732 233.529669 
L 93.680475 233.532637 
L 93.838225 233.48696 
L 93.83825 233.487782 
L 96.136173 233.377094 
L 96.207383 233.368677 
L 96.246883 233.39133 
L 96.366193 233.38276 
L 97.254935 233.332505 
L 97.254935 233.331501 
L 97.336817 233.2991 
L 97.368698 233.31678 
L 97.849175 233.427667 
L 97.959339 233.451964 
L 97.959364 233.451396 
L 99.090524 233.497403 
L 99.262518 233.522815 
L 99.262518 233.522815 
L 99.267388 233.522215 
L 99.333131 233.554905 
L 99.372997 233.537661 
L 100.358269 233.430879 
L 100.389476 233.412196 
L 100.469091 233.444223 
L 100.613893 233.335341 
L 100.613893 233.335341 
L 100.721865 233.276145 
L 100.62485 233.337936 
L 100.724276 233.277063 
L 101.560198 233.295497 
L 101.590948 233.261246 
L 101.671215 233.279958 
L 103.299224 233.170279 
L 103.414776 233.150024 
L 103.421344 233.156299 
L 103.423951 233.158678 
L 103.48384 233.118114 
L 103.532132 233.139759 
L 103.818504 233.114221 
L 103.818522 233.114086 
L 103.824098 233.107077 
L 103.915631 233.145566 
L 103.928248 233.141459 
L 105.94107 233.031265 
L 105.94107 233.030544 
L 106.652063 233.039555 
L 106.652063 233.039555 
L 106.759605 233.05554 
L 106.762801 233.054612 
L 107.786731 233.165705 
L 107.786731 233.165705 
L 107.868301 233.17807 
L 107.896708 233.137431 
L 112.108168 233.248401 
L 112.221514 233.281256 
L 114.380159 233.234389 
L 114.541037 233.263564 
L 114.541037 233.263648 
L 115.868197 233.37475 
L 115.868197 233.37475 
L 115.901168 233.382414 
L 115.962752 233.351926 
L 115.978867 233.35664 
L 120.130009 233.466938 
L 120.262364 233.464909 
L 120.262392 233.464653 
L 120.491278 233.457387 
L 120.491278 233.457814 
L 120.66578 233.485001 
L 120.66578 233.484993 
L 121.123949 233.472227 
L 121.123949 233.472227 
L 121.163596 233.479539 
L 121.229408 233.45786 
L 121.234377 233.458569 
L 129.994325 233.56942 
L 129.994325 233.569546 
L 130.121242 233.571578 
L 130.372397 233.586451 
L 133.615141 233.697453 
L 133.69888 233.704787 
L 133.637634 233.696249 
L 133.726221 233.694761 
L 134.023708 233.691233 
L 140.917764 233.581076 
L 140.944727 233.569865 
L 141.01919 233.583616 
L 141.028565 233.581298 
L 141.856013 233.61153 
L 141.85602 233.610595 
L 142.059907 233.597164 
L 142.059946 233.597515 
L 143.345784 233.627421 
L 143.345791 233.62717 
L 143.456621 233.632667 
L 143.460801 233.634239 
L 146.241666 233.745271 
L 146.241666 233.745329 
L 146.426784 233.75837 
L 146.426788 233.757935 
L 148.019962 233.868869 
L 148.019962 233.868869 
L 148.12381 233.884697 
L 148.13075 233.883398 
L 150.108708 233.993995 
L 150.108708 233.994045 
L 150.22351 234.021247 
L 163.388749 233.91117 
L 163.469727 233.905274 
L 163.42807 233.912228 
L 163.499494 233.90771 
L 163.978082 233.917969 
L 163.978087 233.91717 
L 164.090771 233.912432 
L 164.090771 233.912558 
L 165.950231 233.912903 
L 165.950231 233.912903 
L 165.954289 233.91059 
L 166.044787 233.918522 
L 166.060668 233.917042 
L 169.627329 234.028091 
L 169.705448 234.034084 
L 169.738537 234.030632 
L 170.315462 234.04909 
L 184.54523 233.938709 
L 184.54523 233.938709 
L 184.55578 233.935872 
L 184.635322 233.946011 
L 184.656056 233.944232 
L 195.842645 233.833294 
L 196.018931 233.826623 
L 196.018987 233.827145 
L 200.470351 233.910164 
L 200.470351 233.910164 
L 200.54137 233.898243 
L 200.581279 233.904975 
L 222.952853 233.794032 
L 223.237607 233.762843 
L 238.683013 233.873919 
L 238.683013 233.873924 
L 238.799077 233.879349 
L 382.394223 233.990445 
L 382.394223 233.990445 
L 382.505102 233.993956 
L 383.482813 233.997572 
L 383.600007 233.997666 
L 383.600007 233.997683 
L 384.120515 233.999799 
L 384.120515 233.999778 
L 398.486542 233.989784 
L 398.486542 233.989784 
" clip-path="url(#p6c84ba8193)" style="fill: none; stroke: #2ca02c; stroke-width: 1.5; stroke-linecap: square"/>
   </g>
   <g id="line2d_34">
    <path d="M 73.832727 295.488 
L 73.833945 295.488 
L 73.833945 295.488 
L 73.840811 111.740152 
L 73.944911 207.010141 
L 73.947168 207.078058 
L 73.947168 207.078058 
L 74.058166 218.469766 
L 74.058798 218.528712 
L 74.159574 223.617006 
L 74.082329 218.186371 
L 74.169551 223.059096 
L 74.205268 222.439533 
L 74.253561 224.734273 
L 74.255184 224.734273 
L 74.336061 226.793837 
L 74.365972 225.646478 
L 74.367287 225.64634 
L 74.367313 225.714521 
L 74.368563 225.71083 
L 74.390322 224.927579 
L 74.476945 226.55071 
L 74.479602 226.426997 
L 74.486633 226.142359 
L 74.542342 227.868772 
L 74.572921 227.776627 
L 74.575375 227.829187 
L 74.575375 227.875707 
L 74.693062 228.199163 
L 74.625144 227.409635 
L 74.694279 228.143723 
L 74.714832 227.843905 
L 74.801821 228.825376 
L 74.805305 228.821215 
L 74.822448 228.931564 
L 74.883797 229.899738 
L 74.933329 229.816831 
L 74.940917 229.923456 
L 74.958467 230.21691 
L 75.007472 229.61222 
L 75.049947 229.892975 
L 75.057487 229.554382 
L 75.160565 230.487428 
L 75.165871 230.585807 
L 75.260837 231.420034 
L 75.276971 231.264847 
L 75.295846 231.371208 
L 75.32354 231.370683 
L 75.407554 231.716662 
L 75.415048 231.616394 
L 75.488039 231.014315 
L 75.434184 231.737551 
L 75.526106 231.202866 
L 75.551765 231.170523 
L 75.647141 230.846329 
L 75.609806 231.347364 
L 75.662562 231.007154 
L 75.672878 231.111724 
L 75.781673 231.357219 
L 75.697462 231.087585 
L 75.783866 231.343485 
L 75.792449 231.240687 
L 75.806554 231.177481 
L 75.891292 231.840532 
L 75.915598 231.742692 
L 75.971252 231.618761 
L 75.953591 231.923683 
L 76.025363 231.744336 
L 76.041197 231.635614 
L 76.181034 231.389317 
L 76.110585 231.741262 
L 76.223403 231.48301 
L 76.292392 231.920509 
L 76.333791 231.772104 
L 76.346772 231.86735 
L 76.346772 231.86735 
L 76.455796 232.012503 
L 76.416542 231.795376 
L 76.456468 232.008696 
L 76.472538 231.968857 
L 76.490431 232.123237 
L 76.573524 232.280673 
L 76.504635 231.927006 
L 76.602445 232.188881 
L 76.682789 232.299895 
L 76.682789 232.299895 
L 76.697333 232.40739 
L 76.758807 231.928728 
L 76.793806 232.189445 
L 76.880017 232.290511 
L 76.880017 232.292032 
L 76.9949 232.590156 
L 77.070346 232.695908 
L 77.070346 232.695908 
L 77.178261 232.873377 
L 77.121013 232.661639 
L 77.181294 232.860322 
L 77.199802 232.750257 
L 77.199802 232.750257 
L 77.201116 232.724749 
L 77.269295 232.987042 
L 77.309372 232.819646 
L 77.373713 232.904691 
L 77.320708 232.773272 
L 77.427687 232.834343 
L 77.518369 232.614107 
L 77.502292 232.927906 
L 77.545153 232.702864 
L 77.562766 232.807831 
L 77.591998 232.799425 
L 77.680651 232.996641 
L 77.777487 233.044159 
L 77.791805 232.940524 
L 77.794332 232.902908 
L 77.852763 233.094459 
L 77.897625 232.996443 
L 77.945622 233.029964 
L 77.914632 232.946244 
L 77.96038 232.910291 
L 78.0699 232.809445 
L 78.007024 233.010126 
L 78.071499 232.829763 
L 78.087021 232.760634 
L 78.136005 232.985675 
L 78.242823 233.353148 
L 78.156679 232.981521 
L 78.246615 233.33877 
L 78.266306 233.265896 
L 78.271162 233.154955 
L 78.33244 233.369972 
L 78.377197 233.252998 
L 78.421397 233.364005 
L 78.461404 233.439819 
L 78.531291 233.419376 
L 78.539365 233.42738 
L 78.559509 233.313096 
L 78.665211 233.216283 
L 78.618364 233.478043 
L 78.678176 233.261454 
L 78.697904 233.175019 
L 78.789209 233.378583 
L 78.85497 233.484582 
L 78.958937 233.515075 
L 78.871773 233.312578 
L 78.965475 233.49557 
L 79.005184 233.603918 
L 79.115523 233.827084 
L 79.115846 233.82117 
L 79.232951 233.565141 
L 79.120406 233.826053 
L 79.246747 233.57415 
L 79.277997 233.585621 
L 79.301534 233.672411 
L 79.301977 233.672504 
L 79.303135 233.679002 
L 79.407519 233.292674 
L 79.412001 233.304256 
L 79.427744 233.20948 
L 79.427744 233.20948 
L 79.475087 233.119378 
L 79.537721 233.246268 
L 79.538743 233.240857 
L 79.612797 233.284605 
L 79.580505 233.371185 
L 79.62416 233.31095 
L 79.718987 233.563698 
L 79.627659 233.301812 
L 79.734948 233.364228 
L 79.939892 233.253319 
L 80.046336 233.157124 
L 79.954902 233.294596 
L 80.066908 233.22122 
L 80.209186 233.46327 
L 80.668185 233.807885 
L 80.831347 233.892483 
L 80.683306 233.756845 
L 80.832687 233.868047 
L 80.8964 233.804013 
L 80.9432 233.832052 
L 80.992985 233.721841 
L 80.992985 233.721841 
L 80.994608 233.716773 
L 81.098904 233.840697 
L 81.103852 233.835832 
L 81.185842 233.917746 
L 81.225416 233.869763 
L 81.35133 233.810658 
L 81.305059 233.923563 
L 81.357659 233.823224 
L 81.358259 233.823641 
L 81.398193 233.714472 
L 81.41179 233.61368 
L 81.507744 233.739351 
L 81.527765 233.669042 
L 81.551391 233.581029 
L 81.636172 233.691273 
L 81.636666 233.673275 
L 81.968978 233.780991 
L 81.968978 233.780991 
L 81.968978 233.789227 
L 82.029851 233.700136 
L 82.079763 233.723161 
L 82.181047 233.614645 
L 82.291473 233.586741 
L 82.228296 233.67476 
L 82.292204 233.589604 
L 82.525248 233.479065 
L 82.614635 233.298896 
L 82.528856 233.487667 
L 82.656434 233.370466 
L 82.717885 233.414951 
L 82.745599 233.306498 
L 82.764382 233.241453 
L 82.749367 233.310928 
L 82.860155 233.267565 
L 82.930593 233.377225 
L 83.041937 233.624531 
L 83.292351 233.729278 
L 83.292351 233.733821 
L 83.37595 233.756748 
L 83.391777 233.684206 
L 83.433787 233.567045 
L 83.52007 233.47078 
L 83.43804 233.568162 
L 83.54831 233.542416 
L 83.654341 233.65129 
L 83.654341 233.653256 
L 84.006294 233.998878 
L 84.018245 233.980271 
L 84.019776 233.978084 
L 84.098307 234.053437 
L 84.125666 234.03229 
L 84.355584 234.077893 
L 84.355606 234.080002 
L 84.578413 233.978351 
L 84.667745 233.931831 
L 84.59037 233.998379 
L 84.688366 233.941674 
L 84.801994 233.897921 
L 84.700964 233.919471 
L 84.802008 233.891195 
L 84.850288 233.846411 
L 84.823136 233.90652 
L 84.914001 233.877572 
L 85.100145 234.022846 
L 85.14126 233.979798 
L 85.338487 233.86986 
L 85.338487 233.86986 
L 85.347818 233.854341 
L 85.397275 233.910819 
L 85.449276 233.892383 
L 85.551136 234.002568 
L 85.551136 234.002568 
L 85.599023 234.018706 
L 85.636387 233.989813 
L 85.662136 234.00075 
L 85.795396 233.89841 
L 85.865645 233.813757 
L 85.818662 233.90443 
L 85.906521 233.836022 
L 86.024647 233.946438 
L 86.135684 233.982191 
L 86.318944 234.09196 
L 86.318944 234.093049 
L 86.456491 234.304661 
L 86.575293 234.193707 
L 86.695949 234.145505 
L 86.599026 234.208015 
L 86.698326 234.15189 
L 87.38584 234.262687 
L 87.38584 234.262687 
L 87.496382 234.304584 
L 87.830211 234.415397 
L 87.830211 234.415397 
L 87.886214 234.382029 
L 87.941 234.443219 
L 88.793424 234.332606 
L 88.817394 234.292241 
L 88.860234 234.335103 
L 88.904466 234.323148 
L 88.90703 234.305383 
L 89.090088 234.250981 
L 89.199037 234.173001 
L 89.123411 234.252927 
L 89.201066 234.173445 
L 89.883048 234.263667 
L 89.994235 234.317077 
L 90.462404 234.427784 
L 90.613225 234.426133 
L 90.469248 234.418251 
L 90.615342 234.419051 
L 91.888927 234.308318 
L 92.000068 234.273921 
L 92.213027 234.341079 
L 92.21303 234.341813 
L 92.724713 234.33752 
L 92.726086 234.321432 
L 92.731022 234.310383 
L 92.799247 234.350279 
L 92.832733 234.353155 
L 92.934028 234.24806 
L 93.048629 234.194885 
L 93.058922 234.208611 
L 93.110476 234.238642 
L 93.163619 234.147071 
L 93.169157 234.153898 
L 93.722693 234.263765 
L 93.722693 234.264352 
L 93.831046 234.245183 
L 93.754628 234.240072 
L 93.83203 234.2426 
L 94.995302 234.135319 
L 95.110591 234.011841 
L 95.113432 234.014828 
L 95.926464 233.911703 
L 96.037707 233.868983 
L 96.03914 233.869264 
L 97.093785 233.94566 
L 97.203217 233.974456 
L 97.095853 233.94284 
L 97.21273 233.969051 
L 97.869504 233.861346 
L 97.941986 233.829137 
L 97.980538 233.85506 
L 98.073877 233.883798 
L 98.109605 233.838557 
L 98.168026 233.816227 
L 98.133938 233.848168 
L 98.221915 233.832931 
L 102.667759 233.726719 
L 102.756677 233.684845 
L 102.780792 233.692674 
L 102.957494 233.675145 
L 103.31015 233.785519 
L 103.31015 233.785827 
L 103.434355 233.810868 
L 103.316614 233.783048 
L 103.436359 233.80606 
L 107.468628 233.697031 
L 107.579609 233.661267 
L 107.579646 233.662144 
L 110.34501 233.771943 
L 110.34501 233.772555 
L 110.528548 233.790632 
L 112.907473 233.770905 
L 113.006366 233.757593 
L 112.98851 233.776191 
L 113.017285 233.758556 
L 114.997838 233.647841 
L 115.076851 233.587937 
L 115.108911 233.59346 
L 115.389971 233.640926 
L 115.483157 233.650787 
L 115.430035 233.635427 
L 115.500643 233.641804 
L 115.977404 233.601044 
L 117.876882 233.569693 
L 117.878215 233.565557 
L 117.984172 233.601101 
L 117.987493 233.599407 
L 119.324888 233.520361 
L 119.516503 233.488502 
L 119.516503 233.488502 
L 119.518532 233.488372 
L 119.607564 233.503254 
L 119.627487 233.500557 
L 119.747727 233.506027 
L 119.749443 233.507368 
L 119.755832 233.500442 
L 119.880776 233.481185 
L 121.656355 233.385183 
L 122.801568 233.27452 
L 122.900104 233.27291 
L 122.917508 233.280857 
L 123.171708 233.315791 
L 123.171708 233.314929 
L 134.56181 233.425912 
L 134.56181 233.426022 
L 134.72181 233.436004 
L 134.722296 233.434705 
L 134.746863 233.419588 
L 134.832491 233.439671 
L 136.033744 233.329434 
L 136.03493 233.327484 
L 136.135849 233.335594 
L 136.144561 233.332584 
L 182.609261 233.443683 
L 182.809204 233.441937 
L 182.809212 233.441736 
L 198.245656 233.552772 
L 198.245656 233.552772 
L 198.327181 233.557422 
L 198.356264 233.556821 
L 367.971479 233.446081 
L 368.124526 233.444605 
L 368.12453 233.444644 
L 398.487198 233.430183 
L 398.487198 233.430183 
" clip-path="url(#p6c84ba8193)" style="fill: none; stroke: #d62728; stroke-width: 1.5; stroke-linecap: square"/>
   </g>
   <g id="line2d_35">
    <path d="M 73.832727 295.488 
L 73.833539 295.488 
L 73.833539 295.488 
L 73.841153 107.839229 
L 73.944366 197.626927 
L 74.285746 223.71634 
L 74.306994 223.36803 
L 74.308752 223.459314 
L 74.308752 223.467384 
L 74.441049 227.721228 
L 74.441713 227.694054 
L 74.867178 231.965077 
L 74.447354 227.575458 
L 74.867789 231.834695 
L 74.92169 231.491006 
L 74.95801 232.211623 
L 74.958061 232.211623 
L 75.064382 232.618397 
L 75.068088 232.512417 
L 75.132563 232.906707 
L 75.085321 232.495156 
L 75.132563 232.906707 
L 75.240511 233.631523 
L 75.243112 233.612649 
L 75.258773 233.716563 
L 75.258773 233.716563 
L 75.362256 234.400952 
L 75.272258 233.669562 
L 75.369625 234.396845 
L 75.388472 234.342548 
L 75.424652 234.431825 
L 75.499542 234.07947 
L 75.55492 233.520054 
L 75.612646 233.825998 
L 75.721816 233.438705 
L 75.639956 233.997798 
L 75.76848 233.706145 
L 75.791206 233.815007 
L 75.791206 233.815007 
L 75.856949 234.249065 
L 75.890665 233.769992 
L 75.901995 233.819383 
L 75.962896 233.929832 
L 75.971867 233.965277 
L 76.016985 233.645864 
L 76.043392 233.657239 
L 76.075279 233.559612 
L 76.135265 233.889993 
L 76.154326 233.853476 
L 76.16268 233.738657 
L 76.184255 233.297385 
L 76.26439 233.761771 
L 76.274023 233.657344 
L 76.29645 233.767162 
L 76.29645 233.767162 
L 76.405209 233.979359 
L 76.312277 233.734328 
L 76.406833 233.94255 
L 76.425673 233.856999 
L 76.476103 234.122653 
L 76.49733 234.092758 
L 76.544127 234.198111 
L 76.727127 234.741805 
L 76.554666 234.127151 
L 76.730854 234.664629 
L 76.783398 234.429119 
L 76.841869 234.533951 
L 76.860278 234.432263 
L 76.906409 234.132432 
L 76.972543 234.304655 
L 76.99811 234.40755 
L 76.99811 234.409946 
L 77.010255 234.489836 
L 77.105031 234.283961 
L 77.141737 234.190382 
L 77.246876 234.028145 
L 77.194414 234.229233 
L 77.252558 234.053521 
L 77.259262 234.092357 
L 77.305205 233.823866 
L 77.325509 233.838058 
L 77.415801 233.579346 
L 77.435074 233.665891 
L 77.494736 233.809636 
L 77.599938 234.01964 
L 77.503354 233.805759 
L 77.605646 233.979619 
L 77.781879 233.875224 
L 77.782756 233.858708 
L 77.855074 234.070111 
L 77.891503 234.01522 
L 78.000075 233.91127 
L 78.000075 233.90453 
L 78.053237 233.564995 
L 78.003728 233.926893 
L 78.167272 233.805004 
L 78.28024 234.145488 
L 78.288927 234.080232 
L 78.337413 234.083773 
L 78.300971 234.018476 
L 78.342405 234.003332 
L 78.382704 233.83695 
L 78.453463 233.938442 
L 78.551176 234.048523 
L 78.551176 234.048523 
L 78.561632 234.036563 
L 78.662132 234.206796 
L 78.817046 234.462305 
L 78.817068 234.444499 
L 78.819922 234.437727 
L 78.866837 234.601177 
L 78.889223 234.570661 
L 78.897628 234.615517 
L 78.965702 234.478386 
L 78.9992 234.51707 
L 79.036129 234.62883 
L 79.101901 234.708218 
L 79.143399 234.607508 
L 79.211187 234.499746 
L 79.248746 234.613428 
L 79.254356 234.599322 
L 79.494068 234.707628 
L 79.496269 234.714076 
L 79.593047 234.525757 
L 79.604122 234.585204 
L 79.734137 234.72206 
L 79.734137 234.72206 
L 79.839757 234.851898 
L 79.845011 234.838198 
L 79.886724 234.940833 
L 79.886724 234.940833 
L 79.897682 234.979034 
L 79.91593 234.87721 
L 79.997803 234.954132 
L 80.095552 234.959077 
L 80.038906 234.893918 
L 80.103431 234.913408 
L 80.162471 234.807174 
L 80.309181 234.574342 
L 80.313573 234.599763 
L 80.406795 234.690604 
L 80.31905 234.534409 
L 80.441664 234.574787 
L 80.55985 234.312851 
L 80.46456 234.592637 
L 80.629372 234.400825 
L 80.635368 234.414595 
L 80.670598 234.218318 
L 80.775935 234.266686 
L 80.672577 234.226279 
L 80.782771 234.291443 
L 80.788082 234.320544 
L 80.893552 233.926755 
L 80.90556 233.863407 
L 80.99827 233.979717 
L 80.999072 233.979717 
L 81.01371 234.026263 
L 81.095933 233.896058 
L 81.110179 233.940763 
L 81.117691 233.927175 
L 81.161848 234.01287 
L 81.220243 233.984944 
L 81.436786 233.976599 
L 81.44787 234.022479 
L 81.50727 233.91473 
L 81.612029 233.813648 
L 81.618049 233.824894 
L 81.726693 233.901661 
L 81.739328 233.892858 
L 82.261857 233.860715 
L 82.26279 233.844608 
L 82.281052 233.728125 
L 82.373751 233.746966 
L 82.51805 233.636121 
L 82.51805 233.636121 
L 82.522713 233.628134 
L 82.627621 233.771622 
L 82.997173 233.881448 
L 83.062411 233.953805 
L 83.095925 233.816693 
L 83.59402 233.5082 
L 83.609148 233.546309 
L 83.64798 233.579589 
L 83.687229 233.474697 
L 83.718954 233.516541 
L 83.944888 233.539868 
L 83.733165 233.456621 
L 83.946531 233.521969 
L 84.068276 233.301897 
L 83.956064 233.526355 
L 84.072334 233.31633 
L 84.290214 233.344553 
L 84.292288 233.315841 
L 84.384003 233.178144 
L 84.403076 233.199067 
L 84.415656 233.181212 
L 84.531467 233.258541 
L 84.72562 233.148095 
L 84.762488 233.124427 
L 84.8093 233.180774 
L 84.833649 233.173449 
L 85.160263 233.063073 
L 85.161956 233.052231 
L 85.270509 233.131377 
L 85.948229 233.257709 
L 85.94965 233.235615 
L 85.990111 233.220451 
L 86.026481 233.278615 
L 86.05509 233.26886 
L 86.129243 233.246711 
L 86.146594 233.195878 
L 86.18725 233.120787 
L 86.25747 233.149065 
L 86.533441 233.040103 
L 86.626554 233.025871 
L 86.589711 233.063228 
L 86.644333 233.040946 
L 86.794969 233.147454 
L 86.794969 233.148351 
L 86.910627 233.224233 
L 86.913511 233.218093 
L 86.913874 233.217349 
L 87.018226 233.302889 
L 87.20096 233.381588 
L 87.786383 233.280223 
L 87.786383 233.278237 
L 87.958334 233.348124 
L 87.958462 233.349455 
L 88.66643 233.504176 
L 88.667415 233.492528 
L 88.690546 233.466994 
L 88.778171 233.543669 
L 90.099125 233.502262 
L 90.121056 233.480997 
L 90.209524 233.559216 
L 90.471285 233.597809 
L 90.480205 233.548639 
L 90.538916 233.52882 
L 90.591206 233.57423 
L 90.847065 233.463944 
L 90.847065 233.463944 
L 90.894674 233.422207 
L 90.95766 233.437157 
L 91.100585 233.449371 
L 91.100602 233.4452 
L 91.223162 233.450322 
L 91.142094 233.496974 
L 91.231684 233.464864 
L 91.299086 233.491023 
L 91.340945 233.43274 
L 91.778834 233.324535 
L 91.849842 233.289365 
L 91.887583 233.341026 
L 91.889256 233.339753 
L 92.00851 233.391675 
L 91.891121 233.338576 
L 92.025155 233.371674 
L 92.064373 233.315697 
L 92.135943 233.352196 
L 93.60567 233.2455 
L 93.633413 233.221271 
L 93.715834 233.230061 
L 94.015288 233.229323 
L 94.016087 233.232589 
L 94.433281 233.15487 
L 94.433281 233.15487 
L 94.446325 233.108855 
L 94.533088 233.16871 
L 94.544034 233.163336 
L 96.097947 233.05441 
L 96.097947 233.053582 
L 96.206348 233.012988 
L 96.109435 233.056324 
L 96.217004 233.022308 
L 97.505941 232.915311 
L 97.537147 232.873015 
L 97.61676 232.887033 
L 98.609557 232.997746 
L 98.609557 232.997746 
L 98.65512 233.022251 
L 98.717583 232.975419 
L 98.720416 232.979819 
L 98.890343 232.958 
L 98.890789 232.955928 
L 98.994272 232.894143 
L 99.001171 232.901893 
L 99.571346 233.012711 
L 99.571346 233.012711 
L 99.641952 233.060362 
L 99.68224 233.024736 
L 101.651165 233.134095 
L 101.651165 233.134095 
L 101.751959 233.161195 
L 101.7622 233.159221 
L 102.744327 233.270017 
L 102.805127 233.306062 
L 102.855956 233.283973 
L 114.870695 233.394728 
L 114.870695 233.39485 
L 114.879566 233.384002 
L 114.984324 233.400592 
L 115.120298 233.424659 
L 126.096035 233.53577 
L 126.096035 233.53577 
L 126.14798 233.538417 
L 126.175631 233.524309 
L 126.205663 233.526171 
L 128.703566 233.5272 
L 128.80893 233.495962 
L 128.814217 233.497572 
L 131.260783 233.386986 
L 131.372431 233.385497 
L 131.375991 233.387707 
L 131.692675 233.419901 
L 131.692675 233.419901 
L 131.78645 233.399106 
L 131.729798 233.426301 
L 131.803049 233.40258 
L 139.258858 233.513674 
L 139.311913 233.521885 
L 139.369561 233.512557 
L 178.596634 233.623635 
L 178.597963 233.623909 
L 178.653678 233.615955 
L 178.706723 233.617823 
L 183.316284 233.506805 
L 183.484013 233.501991 
L 183.484016 233.502098 
L 227.179196 233.613175 
L 227.751983 233.620127 
L 258.720253 233.509736 
L 258.721102 233.508968 
L 258.800282 233.513094 
L 258.831261 233.511114 
L 398.485022 233.467654 
L 398.485022 233.467654 
" clip-path="url(#p6c84ba8193)" style="fill: none; stroke: #9467bd; stroke-width: 1.5; stroke-linecap: square"/>
   </g>
   <g id="patch_3">
    <path d="M 57.6 307.584 
L 57.6 41.472 
" style="fill: none; stroke: #000000; stroke-width: 0.8; stroke-linejoin: miter; stroke-linecap: square"/>
   </g>
   <g id="patch_4">
    <path d="M 414.72 307.584 
L 414.72 41.472 
" style="fill: none; stroke: #000000; stroke-width: 0.8; stroke-linejoin: miter; stroke-linecap: square"/>
   </g>
   <g id="patch_5">
    <path d="M 57.6 307.584 
L 414.72 307.584 
" style="fill: none; stroke: #000000; stroke-width: 0.8; stroke-linejoin: miter; stroke-linecap: square"/>
   </g>
   <g id="patch_6">
    <path d="M 57.6 41.472 
L 414.72 41.472 
" style="fill: none; stroke: #000000; stroke-width: 0.8; stroke-linejoin: miter; stroke-linecap: square"/>
   </g>
   <g id="text_18">
    <!-- useOfPageStdDev vs. TimePoint for Each Run -->
    <g transform="translate(100.330312 35.472) scale(0.12 -0.12)">
     <defs>
      <path id="DejaVuSans-20" transform="scale(0.015625)"/>
      <path id="DejaVuSans-2e" d="M 684 794 
L 1344 794 
L 1344 0 
L 684 0 
L 684 794 
z
" transform="scale(0.015625)"/>
      <path id="DejaVuSans-72" d="M 2631 2963 
Q 2534 3019 2420 3045 
Q 2306 3072 2169 3072 
Q 1681 3072 1420 2755 
Q 1159 2438 1159 1844 
L 1159 0 
L 581 0 
L 581 3500 
L 1159 3500 
L 1159 2956 
Q 1341 3275 1631 3429 
Q 1922 3584 2338 3584 
Q 2397 3584 2469 3576 
Q 2541 3569 2628 3553 
L 2631 2963 
z
" transform="scale(0.015625)"/>
      <path id="DejaVuSans-45" d="M 628 4666 
L 3578 4666 
L 3578 4134 
L 1259 4134 
L 1259 2753 
L 3481 2753 
L 3481 2222 
L 1259 2222 
L 1259 531 
L 3634 531 
L 3634 0 
L 628 0 
L 628 4666 
z
" transform="scale(0.015625)"/>
      <path id="DejaVuSans-63" d="M 3122 3366 
L 3122 2828 
Q 2878 2963 2633 3030 
Q 2388 3097 2138 3097 
Q 1578 3097 1268 2742 
Q 959 2388 959 1747 
Q 959 1106 1268 751 
Q 1578 397 2138 397 
Q 2388 397 2633 464 
Q 2878 531 3122 666 
L 3122 134 
Q 2881 22 2623 -34 
Q 2366 -91 2075 -91 
Q 1284 -91 818 406 
Q 353 903 353 1747 
Q 353 2603 823 3093 
Q 1294 3584 2113 3584 
Q 2378 3584 2631 3529 
Q 2884 3475 3122 3366 
z
" transform="scale(0.015625)"/>
      <path id="DejaVuSans-68" d="M 3513 2113 
L 3513 0 
L 2938 0 
L 2938 2094 
Q 2938 2591 2744 2837 
Q 2550 3084 2163 3084 
Q 1697 3084 1428 2787 
Q 1159 2491 1159 1978 
L 1159 0 
L 581 0 
L 581 4863 
L 1159 4863 
L 1159 2956 
Q 1366 3272 1645 3428 
Q 1925 3584 2291 3584 
Q 2894 3584 3203 3211 
Q 3513 2838 3513 2113 
z
" transform="scale(0.015625)"/>
      <path id="DejaVuSans-52" d="M 2841 2188 
Q 3044 2119 3236 1894 
Q 3428 1669 3622 1275 
L 4263 0 
L 3584 0 
L 2988 1197 
Q 2756 1666 2539 1819 
Q 2322 1972 1947 1972 
L 1259 1972 
L 1259 0 
L 628 0 
L 628 4666 
L 2053 4666 
Q 2853 4666 3247 4331 
Q 3641 3997 3641 3322 
Q 3641 2881 3436 2590 
Q 3231 2300 2841 2188 
z
M 1259 4147 
L 1259 2491 
L 2053 2491 
Q 2509 2491 2742 2702 
Q 2975 2913 2975 3322 
Q 2975 3731 2742 3939 
Q 2509 4147 2053 4147 
L 1259 4147 
z
" transform="scale(0.015625)"/>
     </defs>
     <use xlink:href="#DejaVuSans-75"/>
     <use xlink:href="#DejaVuSans-73" x="63.378906"/>
     <use xlink:href="#DejaVuSans-65" x="115.478516"/>
     <use xlink:href="#DejaVuSans-4f" x="177.001953"/>
     <use xlink:href="#DejaVuSans-66" x="255.712891"/>
     <use xlink:href="#DejaVuSans-50" x="290.917969"/>
     <use xlink:href="#DejaVuSans-61" x="346.720703"/>
     <use xlink:href="#DejaVuSans-67" x="408"/>
     <use xlink:href="#DejaVuSans-65" x="471.476562"/>
     <use xlink:href="#DejaVuSans-53" x="533"/>
     <use xlink:href="#DejaVuSans-74" x="596.476562"/>
     <use xlink:href="#DejaVuSans-64" x="635.685547"/>
     <use xlink:href="#DejaVuSans-44" x="699.162109"/>
     <use xlink:href="#DejaVuSans-65" x="776.164062"/>
     <use xlink:href="#DejaVuSans-76" x="837.6875"/>
     <use xlink:href="#DejaVuSans-20" x="896.867188"/>
     <use xlink:href="#DejaVuSans-76" x="928.654297"/>
     <use xlink:href="#DejaVuSans-73" x="987.833984"/>
     <use xlink:href="#DejaVuSans-2e" x="1039.933594"/>
     <use xlink:href="#DejaVuSans-20" x="1071.720703"/>
     <use xlink:href="#DejaVuSans-54" x="1103.507812"/>
     <use xlink:href="#DejaVuSans-69" x="1161.466797"/>
     <use xlink:href="#DejaVuSans-6d" x="1189.25"/>
     <use xlink:href="#DejaVuSans-65" x="1286.662109"/>
     <use xlink:href="#DejaVuSans-50" x="1348.185547"/>
     <use xlink:href="#DejaVuSans-6f" x="1404.863281"/>
     <use xlink:href="#DejaVuSans-69" x="1466.044922"/>
     <use xlink:href="#DejaVuSans-6e" x="1493.828125"/>
     <use xlink:href="#DejaVuSans-74" x="1557.207031"/>
     <use xlink:href="#DejaVuSans-20" x="1596.416016"/>
     <use xlink:href="#DejaVuSans-66" x="1628.203125"/>
     <use xlink:href="#DejaVuSans-6f" x="1663.408203"/>
     <use xlink:href="#DejaVuSans-72" x="1724.589844"/>
     <use xlink:href="#DejaVuSans-20" x="1765.703125"/>
     <use xlink:href="#DejaVuSans-45" x="1797.490234"/>
     <use xlink:href="#DejaVuSans-61" x="1860.673828"/>
     <use xlink:href="#DejaVuSans-63" x="1921.953125"/>
     <use xlink:href="#DejaVuSans-68" x="1976.933594"/>
     <use xlink:href="#DejaVuSans-20" x="2040.3125"/>
     <use xlink:href="#DejaVuSans-52" x="2072.099609"/>
     <use xlink:href="#DejaVuSans-75" x="2137.082031"/>
     <use xlink:href="#DejaVuSans-6e" x="2200.460938"/>
    </g>
   </g>
   <g id="legend_1">
    <g id="patch_7">
     <path d="M 341.196563 137.54075 
L 407.72 137.54075 
Q 409.72 137.54075 409.72 135.54075 
L 409.72 48.472 
Q 409.72 46.472 407.72 46.472 
L 341.196563 46.472 
Q 339.196563 46.472 339.196563 48.472 
L 339.196563 135.54075 
Q 339.196563 137.54075 341.196563 137.54075 
z
" style="fill: #ffffff; opacity: 0.8; stroke: #cccccc; stroke-linejoin: miter"/>
    </g>
    <g id="text_19">
     <!-- Run Number -->
     <g transform="translate(343.196563 58.070438) scale(0.1 -0.1)">
      <defs>
       <path id="DejaVuSans-4e" d="M 628 4666 
L 1478 4666 
L 3547 763 
L 3547 4666 
L 4159 4666 
L 4159 0 
L 3309 0 
L 1241 3903 
L 1241 0 
L 628 0 
L 628 4666 
z
" transform="scale(0.015625)"/>
       <path id="DejaVuSans-62" d="M 3116 1747 
Q 3116 2381 2855 2742 
Q 2594 3103 2138 3103 
Q 1681 3103 1420 2742 
Q 1159 2381 1159 1747 
Q 1159 1113 1420 752 
Q 1681 391 2138 391 
Q 2594 391 2855 752 
Q 3116 1113 3116 1747 
z
M 1159 2969 
Q 1341 3281 1617 3432 
Q 1894 3584 2278 3584 
Q 2916 3584 3314 3078 
Q 3713 2572 3713 1747 
Q 3713 922 3314 415 
Q 2916 -91 2278 -91 
Q 1894 -91 1617 61 
Q 1341 213 1159 525 
L 1159 0 
L 581 0 
L 581 4863 
L 1159 4863 
L 1159 2969 
z
" transform="scale(0.015625)"/>
      </defs>
      <use xlink:href="#DejaVuSans-52"/>
      <use xlink:href="#DejaVuSans-75" x="64.982422"/>
      <use xlink:href="#DejaVuSans-6e" x="128.361328"/>
      <use xlink:href="#DejaVuSans-20" x="191.740234"/>
      <use xlink:href="#DejaVuSans-4e" x="223.527344"/>
      <use xlink:href="#DejaVuSans-75" x="298.332031"/>
      <use xlink:href="#DejaVuSans-6d" x="361.710938"/>
      <use xlink:href="#DejaVuSans-62" x="459.123047"/>
      <use xlink:href="#DejaVuSans-65" x="522.599609"/>
      <use xlink:href="#DejaVuSans-72" x="584.123047"/>
     </g>
    </g>
    <g id="line2d_36">
     <path d="M 346.10125 69.248563 
L 356.10125 69.248563 
L 366.10125 69.248563 
" style="fill: none; stroke: #1f77b4; stroke-width: 1.5; stroke-linecap: square"/>
    </g>
    <g id="text_20">
     <!-- Run 0 -->
     <g transform="translate(374.10125 72.748563) scale(0.1 -0.1)">
      <use xlink:href="#DejaVuSans-52"/>
      <use xlink:href="#DejaVuSans-75" x="64.982422"/>
      <use xlink:href="#DejaVuSans-6e" x="128.361328"/>
      <use xlink:href="#DejaVuSans-20" x="191.740234"/>
      <use xlink:href="#DejaVuSans-30" x="223.527344"/>
     </g>
    </g>
    <g id="line2d_37">
     <path d="M 346.10125 83.926688 
L 356.10125 83.926688 
L 366.10125 83.926688 
" style="fill: none; stroke: #ff7f0e; stroke-width: 1.5; stroke-linecap: square"/>
    </g>
    <g id="text_21">
     <!-- Run 1 -->
     <g transform="translate(374.10125 87.426688) scale(0.1 -0.1)">
      <use xlink:href="#DejaVuSans-52"/>
      <use xlink:href="#DejaVuSans-75" x="64.982422"/>
      <use xlink:href="#DejaVuSans-6e" x="128.361328"/>
      <use xlink:href="#DejaVuSans-20" x="191.740234"/>
      <use xlink:href="#DejaVuSans-31" x="223.527344"/>
     </g>
    </g>
    <g id="line2d_38">
     <path d="M 346.10125 98.604813 
L 356.10125 98.604813 
L 366.10125 98.604813 
" style="fill: none; stroke: #2ca02c; stroke-width: 1.5; stroke-linecap: square"/>
    </g>
    <g id="text_22">
     <!-- Run 2 -->
     <g transform="translate(374.10125 102.104813) scale(0.1 -0.1)">
      <use xlink:href="#DejaVuSans-52"/>
      <use xlink:href="#DejaVuSans-75" x="64.982422"/>
      <use xlink:href="#DejaVuSans-6e" x="128.361328"/>
      <use xlink:href="#DejaVuSans-20" x="191.740234"/>
      <use xlink:href="#DejaVuSans-32" x="223.527344"/>
     </g>
    </g>
    <g id="line2d_39">
     <path d="M 346.10125 113.282938 
L 356.10125 113.282938 
L 366.10125 113.282938 
" style="fill: none; stroke: #d62728; stroke-width: 1.5; stroke-linecap: square"/>
    </g>
    <g id="text_23">
     <!-- Run 3 -->
     <g transform="translate(374.10125 116.782938) scale(0.1 -0.1)">
      <use xlink:href="#DejaVuSans-52"/>
      <use xlink:href="#DejaVuSans-75" x="64.982422"/>
      <use xlink:href="#DejaVuSans-6e" x="128.361328"/>
      <use xlink:href="#DejaVuSans-20" x="191.740234"/>
      <use xlink:href="#DejaVuSans-33" x="223.527344"/>
     </g>
    </g>
    <g id="line2d_40">
     <path d="M 346.10125 127.961063 
L 356.10125 127.961063 
L 366.10125 127.961063 
" style="fill: none; stroke: #9467bd; stroke-width: 1.5; stroke-linecap: square"/>
    </g>
    <g id="text_24">
     <!-- Run 4 -->
     <g transform="translate(374.10125 131.461063) scale(0.1 -0.1)">
      <use xlink:href="#DejaVuSans-52"/>
      <use xlink:href="#DejaVuSans-75" x="64.982422"/>
      <use xlink:href="#DejaVuSans-6e" x="128.361328"/>
      <use xlink:href="#DejaVuSans-20" x="191.740234"/>
      <use xlink:href="#DejaVuSans-34" x="223.527344"/>
     </g>
    </g>
   </g>
  </g>
 </g>
 <defs>
  <clipPath id="p6c84ba8193">
   <rect x="57.6" y="41.472" width="357.12" height="266.112"/>
  </clipPath>
 </defs>
</svg>
